<svg width="110" height="32" viewBox="0 0 110 32" fill="none" xmlns="http://www.w3.org/2000/svg">
<g filter="url(#filter0_d_198_35)">
<path d="M5.00601 1.86583L4.98731 1.96383L9.15792 3.05825H5L4.99138 3.15751L11.2422 4.25104H5H4.95V4.30104V21V21.0342L4.98186 21.0466L10.1183 23.0466L10.1634 22.9578L7.38661 21.1872L10.5829 22.2975L10.6301 22.2109L9.20963 21.1004L11.1251 21.5487L11.3082 21.5915L11.1705 21.4634L10.7264 21.05H62.9545L62.9642 20.9509L53.8733 19.1618L53.856 19.1584L53.8404 19.1665L51.8366 20.2182L52.7635 19.2453L52.8298 19.1756L52.7347 19.1614L46.2121 18.1833L56.1324 18.9767L56.1492 18.8785L51.0669 17.5322L60.604 18.4706L62.944 18.9757L62.944 18.9758L62.947 18.9763L76.5834 21.0494L76.5833 21.05H76.5909H103.864L103.887 20.9557L98.4549 18.1049L104.993 18.9764L105.02 18.8811L101.828 17.4716H105H105.05V17.4216V2V1.93117L104.985 1.95245L101.858 2.9689L104.406 1.03987L104.525 0.95H104.376H5L4.991 1.04918L18.1397 3.45642L5.00601 1.86583Z" fill="black" stroke="url(#paint0_linear_198_35)" stroke-width="0.1"/>
<path d="M23.988 15.484C24.012 15.532 24.032 15.584 24.048 15.64C24.072 15.688 24.076 15.74 24.06 15.796C24.052 15.828 24.04 15.856 24.024 15.88C24.008 15.896 23.992 15.912 23.976 15.928L23.94 15.964C23.932 15.98 23.924 16 23.916 16.024C23.916 16.048 23.908 16.068 23.892 16.084C23.884 16.108 23.876 16.132 23.868 16.156C23.868 16.18 23.86 16.204 23.844 16.228C23.836 16.252 23.828 16.284 23.82 16.324C23.82 16.372 23.812 16.388 23.796 16.372C23.772 16.348 23.76 16.316 23.76 16.276C23.76 16.244 23.76 16.212 23.76 16.18C23.728 16.22 23.692 16.26 23.652 16.3C23.62 16.348 23.588 16.392 23.556 16.432C23.5 16.52 23.444 16.612 23.388 16.708C23.332 16.812 23.28 16.912 23.232 17.008C23.2 17.072 23.168 17.14 23.136 17.212C23.104 17.284 23.068 17.352 23.028 17.416C22.98 17.496 22.952 17.54 22.944 17.548C22.936 17.556 22.908 17.584 22.86 17.632H22.848C22.84 17.64 22.824 17.652 22.8 17.668C22.792 17.74 22.784 17.812 22.776 17.884C22.776 17.964 22.768 18.04 22.752 18.112C22.744 18.128 22.736 18.12 22.728 18.088C22.72 18.056 22.712 18.032 22.704 18.016C22.696 17.952 22.692 17.884 22.692 17.812C22.692 17.748 22.684 17.684 22.668 17.62C22.644 17.596 22.62 17.56 22.596 17.512C22.596 17.504 22.592 17.496 22.584 17.488C22.56 17.432 22.536 17.376 22.512 17.32C22.496 17.272 22.476 17.22 22.452 17.164C22.412 17.084 22.368 17.02 22.32 16.972C22.312 16.964 22.304 16.96 22.296 16.96C22.296 16.96 22.292 16.956 22.284 16.948C22.276 16.956 22.268 16.964 22.26 16.972C22.252 16.98 22.244 16.988 22.236 16.996C22.164 17.044 22.132 17.076 22.14 17.092C22.156 17.108 22.18 17.12 22.212 17.128C22.252 17.144 22.272 17.168 22.272 17.2C22.272 17.24 22.228 17.304 22.14 17.392C22.116 17.424 22.104 17.4 22.104 17.32C22.104 17.248 22.1 17.196 22.092 17.164C22.084 17.116 22.076 17.064 22.068 17.008C22.068 16.96 22.06 16.912 22.044 16.864C21.996 16.816 21.96 16.76 21.936 16.696C21.912 16.656 21.888 16.612 21.864 16.564C21.848 16.524 21.832 16.484 21.816 16.444L21.78 16.348C21.772 16.324 21.756 16.3 21.732 16.276C21.716 16.26 21.7 16.244 21.684 16.228C21.684 16.22 21.684 16.22 21.684 16.228C21.668 16.228 21.616 16.256 21.528 16.312C21.528 16.32 21.532 16.32 21.54 16.312C21.548 16.304 21.596 16.276 21.684 16.228L21.672 16.216L21.648 16.192C21.544 16.296 21.5 16.348 21.516 16.348C21.532 16.348 21.564 16.328 21.612 16.288C21.66 16.256 21.688 16.232 21.696 16.216C21.704 16.2 21.648 16.232 21.528 16.312L21.504 16.336C21.496 16.328 21.488 16.312 21.48 16.288C21.472 16.264 21.468 16.26 21.468 16.276C21.452 16.324 21.444 16.392 21.444 16.48C21.444 16.576 21.436 16.604 21.42 16.564C21.404 16.524 21.396 16.46 21.396 16.372C21.396 16.292 21.388 16.216 21.372 16.144C21.348 16.104 21.324 16.06 21.3 16.012C21.284 15.972 21.264 15.932 21.24 15.892C21.224 15.892 21.216 15.884 21.216 15.868C21.2 15.852 21.18 15.832 21.156 15.808C21.14 15.784 21.136 15.776 21.144 15.784C21.136 15.768 21.128 15.752 21.12 15.736C21.112 15.72 21.104 15.708 21.096 15.7C21.064 15.62 21.036 15.54 21.012 15.46C20.988 15.38 20.96 15.3 20.928 15.22C20.92 15.204 20.916 15.192 20.916 15.184C20.916 15.176 20.912 15.168 20.904 15.16C20.904 15.144 20.896 15.12 20.88 15.088C20.88 15.072 20.876 15.06 20.868 15.052C20.868 15.044 20.864 15.032 20.856 15.016C20.856 15 20.852 14.992 20.844 14.992C20.844 14.976 20.836 14.952 20.82 14.92C20.82 14.912 20.82 14.908 20.82 14.908C20.82 14.908 20.804 14.908 20.772 14.908C20.764 14.924 20.76 14.948 20.76 14.98C20.76 15.012 20.744 15.036 20.712 15.052C20.696 15.092 20.676 15.136 20.652 15.184C20.628 15.224 20.604 15.264 20.58 15.304C20.524 15.408 20.468 15.524 20.412 15.652C20.364 15.772 20.312 15.9 20.256 16.036C20.224 16.132 20.188 16.228 20.148 16.324C20.116 16.42 20.08 16.508 20.04 16.588C20.008 16.66 19.976 16.732 19.944 16.804C19.912 16.884 19.876 16.956 19.836 17.02C19.828 17.036 19.812 17.056 19.788 17.08C19.772 17.112 19.748 17.128 19.716 17.128C19.684 17.136 19.652 17.124 19.62 17.092C19.588 17.044 19.56 16.992 19.536 16.936C19.52 16.88 19.504 16.824 19.488 16.768C19.448 16.68 19.412 16.576 19.38 16.456C19.348 16.336 19.32 16.212 19.296 16.084C19.264 15.956 19.232 15.832 19.2 15.712C19.176 15.592 19.144 15.488 19.104 15.4L19.068 15.304C19.06 15.288 19.052 15.272 19.044 15.256C19.044 15.24 19.04 15.22 19.032 15.196C19.016 15.164 19.004 15.136 18.996 15.112C18.988 15.104 18.98 15.096 18.972 15.088C18.964 15.072 18.96 15.072 18.96 15.088C18.944 15.168 18.936 15.256 18.936 15.352C18.936 15.44 18.928 15.528 18.912 15.616C18.904 15.648 18.896 15.64 18.888 15.592C18.88 15.536 18.872 15.496 18.864 15.472C18.808 15.36 18.792 15.292 18.816 15.268C18.84 15.244 18.864 15.224 18.888 15.208C18.912 15.192 18.892 15.14 18.828 15.052C18.82 15.052 18.808 15.068 18.792 15.1C18.784 15.108 18.78 15.116 18.78 15.124C18.78 15.132 18.776 15.14 18.768 15.148C18.752 15.172 18.736 15.196 18.72 15.22C18.704 15.236 18.684 15.252 18.66 15.268C18.644 15.284 18.632 15.292 18.624 15.292C18.616 15.38 18.608 15.472 18.6 15.568C18.6 15.656 18.592 15.744 18.576 15.832C18.576 15.84 18.568 15.848 18.552 15.856C18.536 15.864 18.528 15.864 18.528 15.856C18.512 15.76 18.504 15.664 18.504 15.568C18.504 15.464 18.496 15.36 18.48 15.256C18.44 15.216 18.404 15.168 18.372 15.112C18.34 15.056 18.312 15.012 18.288 14.98C18.216 14.836 18.184 14.768 18.192 14.776C18.2 14.776 18.212 14.8 18.228 14.848C18.244 14.904 18.244 14.94 18.228 14.956C18.204 15.004 18.192 15.032 18.192 15.04C18.184 15.064 18.176 15.088 18.168 15.112C18.16 15.128 18.152 15.148 18.144 15.172C18.128 15.22 18.112 15.268 18.096 15.316C18.08 15.364 18.064 15.408 18.048 15.448L17.976 15.652C17.968 15.684 17.956 15.716 17.94 15.748C17.924 15.772 17.908 15.796 17.892 15.82C17.868 15.86 17.836 15.892 17.796 15.916C17.78 15.932 17.764 15.956 17.748 15.988L17.712 16.072C17.696 16.136 17.676 16.204 17.652 16.276C17.628 16.348 17.604 16.416 17.58 16.48C17.58 16.488 17.576 16.492 17.568 16.492C17.568 16.5 17.568 16.504 17.568 16.504C17.56 16.56 17.548 16.612 17.532 16.66C17.516 16.716 17.5 16.772 17.484 16.828C17.476 16.836 17.472 16.848 17.472 16.864C17.472 16.88 17.468 16.896 17.46 16.912C17.436 17.008 17.412 17.104 17.388 17.2C17.372 17.304 17.348 17.4 17.316 17.488C17.3 17.568 17.28 17.644 17.256 17.716C17.232 17.788 17.208 17.86 17.184 17.932C17.176 17.964 17.16 17.996 17.136 18.028C17.12 18.068 17.104 18.108 17.088 18.148L17.016 18.244C16.992 18.268 16.96 18.288 16.92 18.304C16.912 18.392 16.904 18.48 16.896 18.568C16.896 18.664 16.888 18.756 16.872 18.844C16.864 18.86 16.852 18.876 16.836 18.892C16.82 18.908 16.812 18.912 16.812 18.904C16.796 18.792 16.788 18.684 16.788 18.58C16.788 18.476 16.78 18.372 16.764 18.268C16.748 18.252 16.732 18.236 16.716 18.22C16.708 18.204 16.696 18.192 16.68 18.184L16.572 18.064C16.564 18.048 16.552 18.032 16.536 18.016C16.528 18 16.516 17.984 16.5 17.968C16.468 17.92 16.432 17.872 16.392 17.824C16.36 17.776 16.332 17.728 16.308 17.68C16.22 17.528 16.144 17.372 16.08 17.212C16.016 17.06 15.948 16.908 15.876 16.756C15.844 16.692 15.812 16.624 15.78 16.552C15.748 16.488 15.712 16.424 15.672 16.36C15.664 16.352 15.656 16.344 15.648 16.336C15.648 16.328 15.644 16.32 15.636 16.312C15.62 16.28 15.6 16.252 15.576 16.228C15.544 16.196 15.52 16.176 15.504 16.168C15.504 16.168 15.5 16.164 15.492 16.156C15.492 16.156 15.492 16.152 15.492 16.144C15.484 16.144 15.48 16.14 15.48 16.132C15.48 16.132 15.476 16.132 15.468 16.132C15.444 16.172 15.428 16.216 15.42 16.264C15.42 16.312 15.408 16.356 15.384 16.396C15.384 16.428 15.372 16.444 15.348 16.444C15.316 16.452 15.292 16.424 15.276 16.36C15.268 16.304 15.264 16.284 15.264 16.3C15.232 16.468 15.22 16.504 15.228 16.408C15.244 16.312 15.236 16.176 15.204 16C15.196 15.992 15.188 15.988 15.18 15.988C15.172 15.988 15.164 15.984 15.156 15.976C15.132 15.968 15.1 15.944 15.06 15.904C15.044 15.888 15.028 15.864 15.012 15.832C14.996 15.8 14.992 15.752 15 15.688C15.008 15.64 15.02 15.592 15.036 15.544C15.052 15.496 15.068 15.452 15.084 15.412C15.1 15.356 15.116 15.308 15.132 15.268C15.156 15.22 15.172 15.192 15.18 15.184L15.588 14.02C15.628 13.86 15.664 13.708 15.696 13.564C15.736 13.412 15.78 13.288 15.828 13.192C15.828 13.184 15.828 13.176 15.828 13.168C15.836 13.16 15.84 13.152 15.84 13.144C15.856 13.112 15.868 13.08 15.876 13.048C15.892 13.016 15.908 12.984 15.924 12.952C15.94 12.92 15.956 12.892 15.972 12.868C15.988 12.836 16 12.812 16.008 12.796L16.632 11.008C16.672 10.864 16.708 10.728 16.74 10.6C16.78 10.464 16.816 10.356 16.848 10.276C16.872 10.196 16.892 10.12 16.908 10.048C16.932 9.968 16.956 9.896 16.98 9.832C17.004 9.744 17.032 9.664 17.064 9.592C17.152 9.328 17.232 9.16 17.304 9.088L17.52 8.464L17.688 7.996C17.712 7.908 17.768 7.82 17.856 7.732C17.944 7.644 18.076 7.6 18.252 7.6H20.832C20.928 7.6 21.008 7.616 21.072 7.648C21.096 7.656 21.132 7.676 21.18 7.708C21.236 7.748 21.28 7.796 21.312 7.852C21.344 7.908 21.372 7.968 21.396 8.032C21.396 8.048 21.404 8.072 21.42 8.104L21.456 8.224C21.464 8.24 21.468 8.26 21.468 8.284C21.476 8.308 21.484 8.328 21.492 8.344L21.6 8.608C21.6 8.616 21.6 8.624 21.6 8.632C21.608 8.632 21.612 8.636 21.612 8.644C21.628 8.676 21.636 8.704 21.636 8.728C21.66 8.784 21.68 8.844 21.696 8.908C21.72 8.972 21.74 9.036 21.756 9.1C21.764 9.116 21.772 9.136 21.78 9.16C21.788 9.184 21.796 9.204 21.804 9.22L21.828 9.304C21.876 9.352 21.928 9.448 21.984 9.592C22.048 9.728 22.112 9.896 22.176 10.096L22.212 10.216C22.268 10.344 22.316 10.476 22.356 10.612C22.404 10.748 22.444 10.884 22.476 11.02C22.516 11.1 22.556 11.212 22.596 11.356C22.636 11.5 22.672 11.652 22.704 11.812L23.292 13.48C23.34 13.56 23.388 13.68 23.436 13.84C23.492 13.992 23.548 14.164 23.604 14.356C23.62 14.396 23.632 14.436 23.64 14.476C23.656 14.516 23.668 14.556 23.676 14.596L23.94 15.352C23.964 15.392 23.98 15.436 23.988 15.484ZM19.512 10.384C19.512 10.392 19.508 10.404 19.5 10.42C19.492 10.436 19.488 10.452 19.488 10.468C19.472 10.524 19.452 10.58 19.428 10.636C19.412 10.692 19.396 10.752 19.38 10.816L19.104 11.752C19.096 11.784 19.088 11.816 19.08 11.848C19.072 11.872 19.06 11.904 19.044 11.944C19.036 11.992 19.024 12.044 19.008 12.1C18.992 12.148 18.976 12.2 18.96 12.256C18.952 12.288 18.944 12.32 18.936 12.352C18.928 12.384 18.916 12.416 18.9 12.448C18.892 12.456 18.888 12.468 18.888 12.484C18.888 12.492 18.884 12.504 18.876 12.52C18.876 12.52 18.876 12.524 18.876 12.532C18.876 12.532 18.872 12.532 18.864 12.532C18.864 12.54 18.86 12.548 18.852 12.556C18.852 12.556 18.852 12.56 18.852 12.568H19.884C19.924 12.568 19.964 12.568 20.004 12.568C20.044 12.56 20.08 12.56 20.112 12.568H20.208L20.172 12.436C20.156 12.396 20.144 12.36 20.136 12.328C20.128 12.288 20.116 12.252 20.1 12.22L20.064 12.112C20.032 12.024 20 11.928 19.968 11.824C19.944 11.712 19.916 11.604 19.884 11.5C19.876 11.492 19.872 11.476 19.872 11.452L19.668 10.816L19.596 10.564C19.596 10.564 19.588 10.548 19.572 10.516C19.564 10.476 19.556 10.44 19.548 10.408C19.54 10.4 19.536 10.396 19.536 10.396C19.536 10.388 19.528 10.384 19.512 10.384ZM32.2786 15.736C32.2706 15.768 32.2586 15.796 32.2426 15.82C32.2346 15.844 32.2186 15.872 32.1946 15.904C32.2106 15.896 32.1986 15.908 32.1586 15.94C32.1266 15.964 32.1146 15.972 32.1226 15.964C32.1146 15.964 32.1066 15.968 32.0986 15.976C32.0826 16.056 32.0706 16.132 32.0626 16.204C32.0626 16.276 32.0586 16.352 32.0506 16.432C32.0426 16.56 32.0266 16.7 32.0026 16.852C31.9866 17.012 31.9706 17.156 31.9546 17.284C31.9466 17.364 31.9306 17.46 31.9066 17.572C31.8906 17.692 31.8746 17.792 31.8586 17.872C31.8506 17.896 31.8426 17.92 31.8346 17.944C31.8346 17.968 31.8266 17.988 31.8106 18.004C31.8106 18.012 31.8026 18.016 31.7866 18.016C31.7786 18.016 31.7746 18.012 31.7746 18.004C31.7586 17.988 31.7466 17.968 31.7386 17.944C31.7386 17.928 31.7346 17.912 31.7266 17.896C31.7026 17.824 31.6826 17.732 31.6666 17.62C31.6506 17.516 31.6346 17.432 31.6186 17.368C31.5866 17.184 31.5626 16.972 31.5466 16.732C31.5386 16.5 31.5146 16.296 31.4746 16.12C31.4666 16.16 31.4626 16.2 31.4626 16.24C31.4626 16.288 31.4546 16.332 31.4386 16.372C31.4306 16.388 31.4146 16.396 31.3906 16.396C31.3746 16.404 31.3586 16.416 31.3426 16.432C31.3346 16.432 31.3226 16.436 31.3066 16.444C31.2986 16.46 31.2946 16.464 31.2946 16.456C31.2866 16.416 31.2786 16.376 31.2706 16.336C31.2706 16.296 31.2666 16.256 31.2586 16.216C31.2586 16.224 31.2546 16.232 31.2466 16.24C31.2386 16.256 31.2306 16.272 31.2226 16.288C31.2146 16.304 31.2066 16.32 31.1986 16.336C31.1986 16.336 31.1946 16.336 31.1866 16.336C31.1866 16.344 31.1866 16.352 31.1866 16.36C31.1866 16.36 31.1746 16.372 31.1506 16.396C31.1266 16.428 31.1106 16.444 31.1026 16.444C31.0866 16.46 31.0706 16.468 31.0546 16.468C31.0466 16.596 31.0386 16.72 31.0306 16.84C31.0306 16.968 31.0226 17.092 31.0066 17.212C31.0066 17.22 30.9986 17.224 30.9826 17.224C30.9666 17.224 30.9546 17.22 30.9466 17.212C30.9386 17.076 30.9346 16.98 30.9346 16.924C30.9346 16.876 30.9346 16.836 30.9346 16.804C30.9346 16.78 30.9306 16.74 30.9226 16.684C30.9146 16.628 30.8946 16.532 30.8626 16.396C30.8226 16.348 30.7826 16.296 30.7426 16.24C30.7346 16.232 30.7306 16.224 30.7306 16.216C30.7306 16.208 30.7266 16.2 30.7186 16.192L30.6706 16.12C30.6626 16.104 30.6586 16.088 30.6586 16.072C30.6586 16.064 30.6546 16.056 30.6466 16.048C30.6466 16.072 30.6386 16.084 30.6226 16.084C30.6226 16.084 30.6066 16.076 30.5746 16.06C30.5666 16.084 30.5546 16.108 30.5386 16.132C30.5226 16.156 30.5026 16.176 30.4786 16.192C30.4626 16.208 30.4506 16.216 30.4426 16.216C30.4266 16.232 30.4186 16.26 30.4186 16.3C30.4186 16.34 30.4066 16.356 30.3826 16.348C30.3586 16.34 30.3466 16.316 30.3466 16.276C30.3546 16.244 30.3506 16.216 30.3346 16.192L30.2866 16.144L30.2146 16.06C30.2146 16.068 30.2106 16.072 30.2026 16.072C30.2106 16.072 30.1946 16.06 30.1546 16.036C30.1226 16.02 30.1066 16.012 30.1066 16.012C30.1066 16.012 30.0866 16.02 30.0466 16.036C30.0146 16.06 29.9826 16.08 29.9506 16.096C29.9186 16.12 29.8866 16.12 29.8546 16.096C29.8226 16.08 29.8026 16.06 29.7946 16.036C29.7946 16.012 29.7866 15.984 29.7706 15.952C29.7306 15.92 29.6906 15.884 29.6506 15.844C29.6186 15.804 29.5866 15.76 29.5546 15.712C29.5226 15.656 29.4906 15.608 29.4586 15.568L29.3986 15.472C29.3826 15.448 29.3626 15.424 29.3386 15.4C29.3226 15.368 29.3066 15.34 29.2906 15.316C29.2746 15.292 29.2586 15.268 29.2426 15.244C29.2266 15.22 29.2106 15.192 29.1946 15.16L29.1226 15.052C29.0506 14.98 28.9786 14.892 28.9066 14.788C28.8426 14.684 28.7746 14.572 28.7026 14.452C28.6386 14.364 28.5706 14.264 28.4986 14.152C28.4266 14.032 28.3586 13.912 28.2946 13.792L27.8146 13.072C27.7506 12.992 27.6946 12.912 27.6466 12.832C27.6386 12.816 27.6306 12.8 27.6226 12.784C27.6146 12.768 27.6026 12.756 27.5866 12.748C27.5706 12.716 27.5626 12.7 27.5626 12.7C27.5466 12.676 27.5386 12.664 27.5386 12.664C27.5386 12.656 27.5386 12.672 27.5386 12.712V15.436C27.5386 15.484 27.5386 15.536 27.5386 15.592C27.5466 15.64 27.5466 15.688 27.5386 15.736C27.5386 15.72 27.5346 15.728 27.5266 15.76C27.5186 15.784 27.5186 15.792 27.5266 15.784C27.5266 15.792 27.5226 15.8 27.5146 15.808C27.5146 15.816 27.5106 15.82 27.5026 15.82C27.5026 15.82 27.5026 15.824 27.5026 15.832C27.5026 15.84 27.4986 15.844 27.4906 15.844C27.4906 15.844 27.4906 15.848 27.4906 15.856C27.4506 15.904 27.4106 15.94 27.3706 15.964C27.3546 15.98 27.3426 15.996 27.3346 16.012C27.3186 16.028 27.3106 16.044 27.3106 16.06L27.2626 16.144C27.2546 16.168 27.2426 16.188 27.2266 16.204C27.2186 16.228 27.2066 16.252 27.1906 16.276C27.1186 16.436 27.0386 16.596 26.9506 16.756L26.8426 16.996C26.8426 17.004 26.8386 17.008 26.8306 17.008C26.8306 17.008 26.8306 17.012 26.8306 17.02L26.7826 17.092L26.7466 17.128C26.7466 17.128 26.7426 17.128 26.7346 17.128C26.7346 17.128 26.7346 17.132 26.7346 17.14C26.7266 17.14 26.7146 17.148 26.6986 17.164C26.6906 17.316 26.6826 17.468 26.6746 17.62C26.6746 17.772 26.6666 17.928 26.6506 18.088C26.6426 18.112 26.6306 18.1 26.6146 18.052C26.6066 18.012 26.6026 17.98 26.6026 17.956C26.5866 17.82 26.5786 17.68 26.5786 17.536C26.5786 17.4 26.5706 17.264 26.5546 17.128C26.5386 17.12 26.5226 17.1 26.5066 17.068C26.4986 17.068 26.4906 17.064 26.4826 17.056L26.3986 16.912C26.3906 16.888 26.3786 16.864 26.3626 16.84C26.3546 16.816 26.3466 16.788 26.3386 16.756C26.3306 16.732 26.3226 16.708 26.3146 16.684C26.3066 16.66 26.2946 16.632 26.2786 16.6L26.1706 16.276C26.1626 16.26 26.1546 16.24 26.1466 16.216C26.1466 16.192 26.1426 16.172 26.1346 16.156C26.1186 16.236 26.1106 16.316 26.1106 16.396C26.1106 16.476 26.1026 16.56 26.0866 16.648C26.0786 16.656 26.0706 16.648 26.0626 16.624C26.0546 16.608 26.0466 16.596 26.0386 16.588C26.0226 16.572 26.0066 16.548 25.9906 16.516C25.9586 16.46 25.9266 16.404 25.8946 16.348C25.8706 16.292 25.8386 16.244 25.7986 16.204C25.7826 16.188 25.7706 16.18 25.7626 16.18C25.7546 16.204 25.7346 16.232 25.7026 16.264C25.6866 16.28 25.6626 16.292 25.6306 16.3C25.6066 16.316 25.5826 16.332 25.5586 16.348C25.5346 16.372 25.5146 16.396 25.4986 16.42C25.4826 16.452 25.4586 16.476 25.4266 16.492C25.3946 16.516 25.3586 16.52 25.3186 16.504C25.2866 16.472 25.2706 16.464 25.2706 16.48C25.2626 16.568 25.2706 16.708 25.2946 16.9C25.3186 17.092 25.3386 17.284 25.3546 17.476C25.3786 17.668 25.3826 17.812 25.3666 17.908C25.3586 18.012 25.3106 18.02 25.2226 17.932C25.1106 17.812 25.0546 17.652 25.0546 17.452C25.0626 17.252 25.0866 17.052 25.1266 16.852C25.1746 16.652 25.1946 16.492 25.1866 16.372L25.1386 16.3C25.1306 16.284 25.1186 16.26 25.1026 16.228C25.0946 16.204 25.0906 16.2 25.0906 16.216C25.0746 16.296 25.0706 16.376 25.0786 16.456C25.0946 16.536 25.0826 16.608 25.0426 16.672C25.0186 16.704 25.0066 16.696 25.0066 16.648C25.0066 16.608 25.0106 16.552 25.0186 16.48C25.0266 16.416 25.0266 16.364 25.0186 16.324L24.9346 15.988C24.9026 15.972 24.8746 15.956 24.8506 15.94C24.7626 15.876 24.7186 15.788 24.7186 15.676V7.924C24.7186 7.892 24.7266 7.852 24.7426 7.804C24.7666 7.732 24.8026 7.684 24.8506 7.66C24.8666 7.644 24.8986 7.628 24.9466 7.612C24.9706 7.604 25.0066 7.6 25.0546 7.6H26.9386C27.0426 7.6 27.1266 7.616 27.1906 7.648C27.2546 7.68 27.3026 7.716 27.3346 7.756C27.3986 7.812 27.4506 7.88 27.4906 7.96C27.5386 8.04 27.5826 8.116 27.6226 8.188L27.6586 8.248L27.7066 8.32C27.7946 8.408 27.8746 8.52 27.9466 8.656C28.0186 8.792 28.0906 8.928 28.1626 9.064L28.1866 9.124L28.6066 9.808C28.6146 9.808 28.6186 9.812 28.6186 9.82C28.7306 9.988 28.8386 10.164 28.9426 10.348C29.0546 10.524 29.1626 10.7 29.2666 10.876L29.4106 11.116L29.4226 11.128L29.4586 11.104V8.248C29.4586 8.192 29.4546 8.132 29.4466 8.068C29.4466 8.004 29.4506 7.944 29.4586 7.888C29.4586 7.848 29.4666 7.816 29.4826 7.792C29.4986 7.76 29.5106 7.74 29.5186 7.732C29.5266 7.708 29.5426 7.692 29.5666 7.684C29.5666 7.684 29.5746 7.676 29.5906 7.66C29.6466 7.62 29.7026 7.6 29.7586 7.6C29.7906 7.592 29.8226 7.588 29.8546 7.588C29.8866 7.588 29.9146 7.588 29.9386 7.588C29.9786 7.596 30.0146 7.6 30.0466 7.6C30.0866 7.6 30.1226 7.6 30.1546 7.6H31.8106C31.8506 7.6 31.8906 7.6 31.9306 7.6C31.9786 7.592 32.0226 7.596 32.0626 7.612C32.1186 7.636 32.1666 7.668 32.2066 7.708C32.2306 7.74 32.2466 7.772 32.2546 7.804C32.2706 7.852 32.2786 7.892 32.2786 7.924C32.2866 7.98 32.2866 8.04 32.2786 8.104C32.2786 8.168 32.2786 8.224 32.2786 8.272V15.268C32.2866 15.348 32.2906 15.428 32.2906 15.508C32.2986 15.588 32.2946 15.664 32.2786 15.736ZM40.8254 9.532C40.8254 9.588 40.8294 9.652 40.8374 9.724C40.8454 9.788 40.8414 9.852 40.8254 9.916C40.8254 9.9 40.8214 9.908 40.8134 9.94C40.8054 9.964 40.8054 9.972 40.8134 9.964C40.8054 9.972 40.8014 9.98 40.8014 9.988C40.8014 9.996 40.7974 10.004 40.7894 10.012L40.7294 10.084L40.6934 10.12C40.6854 10.12 40.6734 10.128 40.6574 10.144C40.6494 10.16 40.6414 10.172 40.6334 10.18C40.6014 10.212 40.5734 10.256 40.5494 10.312C40.5254 10.36 40.4934 10.416 40.4534 10.48C40.4214 10.552 40.3894 10.624 40.3574 10.696C40.3254 10.768 40.2894 10.84 40.2494 10.912C40.1934 11.04 40.1334 11.172 40.0694 11.308C40.0134 11.436 39.9414 11.568 39.8534 11.704C39.7974 11.784 39.7454 11.84 39.6974 11.872C39.6894 11.888 39.6814 11.908 39.6734 11.932C39.6734 11.956 39.6654 11.976 39.6494 11.992C39.6494 11.992 39.6334 11.98 39.6014 11.956C39.5934 11.948 39.5854 11.936 39.5774 11.92C39.5774 11.904 39.5534 11.872 39.5054 11.824L39.4814 11.8C39.4574 11.76 39.4334 11.724 39.4094 11.692C39.3934 11.652 39.3774 11.616 39.3614 11.584L39.3254 11.512L39.3134 11.5L39.2054 11.296C39.1334 11.168 39.0574 11.044 38.9774 10.924C38.9054 10.796 38.8294 10.668 38.7494 10.54C38.7174 10.492 38.6894 10.448 38.6654 10.408L38.5814 10.288C38.5574 10.264 38.5334 10.24 38.5094 10.216V10.276V15.436C38.5174 15.5 38.5174 15.56 38.5094 15.616C38.5094 15.672 38.5094 15.712 38.5094 15.736V15.76C38.5014 15.768 38.4974 15.776 38.4974 15.784C38.4814 15.816 38.4694 15.836 38.4614 15.844C38.4614 15.852 38.4574 15.86 38.4494 15.868C38.4174 15.908 38.3774 15.94 38.3294 15.964C38.3214 15.972 38.3134 15.98 38.3054 15.988C38.2974 15.996 38.2894 16.004 38.2814 16.012C38.2734 16.028 38.2614 16.044 38.2454 16.06C38.2294 16.084 38.2134 16.104 38.1974 16.12C38.1654 16.152 38.1294 16.164 38.0894 16.156C38.0734 16.148 38.0574 16.132 38.0414 16.108C38.0254 16.092 38.0094 16.084 37.9934 16.084C37.9774 16.076 37.9614 16.08 37.9454 16.096C37.9294 16.12 37.9134 16.132 37.8974 16.132C37.8334 16.108 37.8054 16.084 37.8134 16.06C37.8294 16.036 37.8014 16.04 37.7294 16.072C37.7054 16.112 37.6774 16.164 37.6454 16.228C37.6134 16.3 37.5694 16.316 37.5134 16.276C37.4974 16.26 37.4814 16.236 37.4654 16.204C37.4574 16.18 37.4414 16.164 37.4174 16.156L37.4054 16.168C37.4054 16.176 37.4014 16.18 37.3934 16.18C37.3934 16.188 37.3934 16.192 37.3934 16.192L37.3214 16.24L37.2734 16.288C37.2734 16.296 37.2654 16.344 37.2494 16.432C37.2334 16.52 37.2174 16.608 37.2014 16.696C37.1854 16.784 37.1774 16.828 37.1774 16.828C37.1694 16.86 37.1614 16.896 37.1534 16.936C37.1534 16.976 37.1454 17.012 37.1294 17.044C37.1214 17.052 37.1094 17.056 37.0934 17.056C37.0854 17.064 37.0814 17.064 37.0814 17.056C37.0654 16.944 37.0574 16.832 37.0574 16.72C37.0574 16.608 37.0494 16.496 37.0334 16.384C37.0334 16.344 37.0214 16.3 36.9974 16.252C36.9814 16.236 36.9534 16.204 36.9134 16.156C36.8814 16.116 36.8534 16.084 36.8294 16.06H36.7934C36.7534 16.06 36.7254 16.056 36.7094 16.048C36.7014 16.064 36.6894 16.076 36.6734 16.084C36.6574 16.1 36.6494 16.112 36.6494 16.12L36.6374 16.132C36.5974 16.18 36.5574 16.228 36.5174 16.276C36.4854 16.324 36.4494 16.38 36.4094 16.444C36.3934 16.46 36.3814 16.476 36.3734 16.492C36.3654 16.5 36.3574 16.508 36.3494 16.516C36.3414 16.524 36.3294 16.536 36.3134 16.552C36.2974 16.568 36.2814 16.58 36.2654 16.588C36.2574 16.676 36.2534 16.804 36.2534 16.972C36.2534 17.148 36.2494 17.332 36.2414 17.524C36.2414 17.716 36.2374 17.896 36.2294 18.064C36.2294 18.24 36.2254 18.372 36.2174 18.46C36.2174 18.468 36.2094 18.464 36.1934 18.448C36.1774 18.432 36.1694 18.42 36.1694 18.412C36.1214 18.324 36.1014 18.196 36.1094 18.028C36.1254 17.868 36.1454 17.688 36.1694 17.488C36.1934 17.296 36.2014 17.112 36.1934 16.936C36.1934 16.768 36.1574 16.632 36.0854 16.528C36.0854 16.512 36.0774 16.5 36.0614 16.492C36.0534 16.484 36.0494 16.48 36.0494 16.48C36.0174 16.416 35.9854 16.356 35.9534 16.3C35.9214 16.244 35.8894 16.188 35.8574 16.132C35.8574 16.124 35.8534 16.116 35.8454 16.108C35.8454 16.108 35.8454 16.104 35.8454 16.096C35.8374 16.088 35.8254 16.068 35.8094 16.036C35.7854 16.012 35.7574 16 35.7254 16C35.7174 16 35.7094 16 35.7014 16C35.7014 15.992 35.6934 15.988 35.6774 15.988C35.6134 15.964 35.5614 15.924 35.5214 15.868C35.5054 15.852 35.4894 15.82 35.4734 15.772C35.4574 15.708 35.4494 15.648 35.4494 15.592C35.4494 15.552 35.4494 15.52 35.4494 15.496C35.4574 15.464 35.4614 15.432 35.4614 15.4V10.276L35.4134 10.18C35.4134 10.18 35.4054 10.196 35.3894 10.228C35.3814 10.236 35.3774 10.248 35.3774 10.264C35.3694 10.296 35.3614 10.328 35.3534 10.36C35.3454 10.392 35.3334 10.42 35.3174 10.444L35.2454 10.588C35.2294 10.62 35.2094 10.652 35.1854 10.684C35.1614 10.716 35.1334 10.748 35.1014 10.78C35.0854 10.796 35.0774 10.804 35.0774 10.804C35.0614 10.812 35.0454 10.824 35.0294 10.84C35.0054 10.872 34.9934 10.892 34.9934 10.9C34.9934 10.908 34.9614 10.94 34.8974 10.996C34.8654 10.996 34.8494 10.996 34.8494 10.996C34.8334 11.028 34.8294 11.068 34.8374 11.116C34.8454 11.164 34.8294 11.196 34.7894 11.212C34.7654 11.22 34.7534 11.204 34.7534 11.164C34.7534 11.116 34.7494 11.08 34.7414 11.056L34.7054 10.888C34.6814 10.872 34.6574 10.852 34.6334 10.828C34.6094 10.796 34.5894 10.772 34.5734 10.756C34.5814 10.764 34.5734 10.76 34.5494 10.744C34.5254 10.72 34.5094 10.704 34.5014 10.696L34.4774 10.672C34.4614 10.68 34.4494 10.696 34.4414 10.72C34.4334 10.744 34.4254 10.764 34.4174 10.78C34.4094 10.82 34.3974 10.856 34.3814 10.888C34.3734 10.92 34.3694 10.948 34.3694 10.972C34.3694 10.9 34.3534 10.812 34.3214 10.708C34.3214 10.716 34.3174 10.72 34.3094 10.72C34.3094 10.72 34.3094 10.724 34.3094 10.732C34.3014 10.732 34.2974 10.736 34.2974 10.744C34.2894 10.752 34.2814 10.76 34.2734 10.768C34.2654 10.776 34.2494 10.8 34.2254 10.84C34.2094 10.872 34.1934 10.896 34.1774 10.912C34.1774 10.912 34.1734 10.916 34.1654 10.924C34.1654 10.924 34.1614 10.924 34.1534 10.924C34.1534 10.924 34.1494 10.928 34.1414 10.936C34.1414 10.936 34.1374 10.936 34.1294 10.936C34.1214 11.016 34.1174 11.092 34.1174 11.164C34.1254 11.236 34.1334 11.312 34.1414 11.392C34.1254 11.288 34.0894 11.24 34.0334 11.248C33.9854 11.264 33.9574 11.288 33.9494 11.32C33.9494 11.248 33.9494 11.176 33.9494 11.104C33.9574 11.024 33.9574 10.948 33.9494 10.876C33.9254 10.86 33.9014 10.84 33.8774 10.816C33.8534 10.784 33.8294 10.756 33.8054 10.732L33.7094 10.636C33.6454 10.564 33.6134 10.528 33.6134 10.528C33.6134 10.528 33.6054 10.52 33.5894 10.504C33.5734 10.488 33.5054 10.416 33.3854 10.288C33.3854 10.304 33.3774 10.312 33.3614 10.312C33.3534 10.312 33.3454 10.3 33.3374 10.276C33.3374 10.252 33.3334 10.232 33.3254 10.216C33.3334 10.224 33.3254 10.212 33.3014 10.18C33.2854 10.14 33.2734 10.116 33.2654 10.108C33.1854 10.044 33.1454 9.96 33.1454 9.856V8.308C33.1454 8.268 33.1414 8.2 33.1334 8.104C33.1334 8 33.1414 7.912 33.1574 7.84C33.1654 7.824 33.1694 7.812 33.1694 7.804C33.1694 7.788 33.1734 7.776 33.1814 7.768C33.2054 7.72 33.2374 7.684 33.2774 7.66C33.2854 7.66 33.2894 7.66 33.2894 7.66C33.2894 7.652 33.2934 7.648 33.3014 7.648L33.3134 7.636C33.3614 7.612 33.4054 7.6 33.4454 7.6C33.5094 7.592 33.5694 7.592 33.6254 7.6C33.6894 7.6 33.7494 7.6 33.8054 7.6H40.0694C40.1574 7.6 40.2494 7.596 40.3454 7.588C40.4414 7.58 40.5294 7.588 40.6094 7.612C40.6334 7.62 40.6534 7.632 40.6694 7.648C40.6934 7.656 40.7094 7.668 40.7174 7.684C40.7734 7.724 40.8054 7.768 40.8134 7.816C40.8214 7.864 40.8254 7.916 40.8254 7.972C40.8334 8.1 40.8334 8.236 40.8254 8.38C40.8254 8.516 40.8254 8.652 40.8254 8.788V9.532ZM33.9854 12.04C34.0014 12.112 33.9974 12.104 33.9734 12.016C33.9494 11.928 33.9294 11.812 33.9134 11.668C33.9054 11.516 33.9174 11.4 33.9494 11.32C33.9414 11.448 33.9374 11.572 33.9374 11.692C33.9454 11.812 33.9614 11.928 33.9854 12.04ZM34.0814 12.028C34.0654 12.076 34.0614 12.076 34.0694 12.028C34.0854 11.972 34.1014 11.892 34.1174 11.788C34.1334 11.684 34.1414 11.588 34.1414 11.5C34.1414 11.588 34.1374 11.676 34.1294 11.764C34.1294 11.852 34.1134 11.94 34.0814 12.028ZM43.5759 13.6C43.5839 13.656 43.5839 13.716 43.5759 13.78C43.5759 13.836 43.5759 13.892 43.5759 13.948V15.736C43.5759 15.736 43.5719 15.752 43.5639 15.784C43.5559 15.808 43.5479 15.82 43.5399 15.82C43.5399 15.828 43.5359 15.836 43.5279 15.844C43.5279 15.852 43.5199 15.864 43.5039 15.88C43.4959 15.888 43.4879 15.896 43.4799 15.904C43.4719 15.912 43.4639 15.92 43.4559 15.928C43.3919 15.992 43.3599 16.02 43.3599 16.012C43.3679 16.004 43.3879 15.984 43.4199 15.952C43.4119 15.96 43.3959 15.976 43.3719 16C43.3479 16.016 43.3399 16.02 43.3479 16.012C43.3399 16.02 43.3399 16.02 43.3479 16.012C43.3639 16.012 43.3479 16.032 43.2999 16.072C43.2919 16.08 43.2839 16.088 43.2759 16.096C43.2759 16.112 43.2679 16.116 43.2519 16.108C43.2199 16.14 43.1919 16.168 43.1679 16.192C43.1439 16.224 43.1199 16.256 43.0959 16.288C43.0879 16.296 43.0759 16.308 43.0599 16.324C43.0439 16.34 43.0279 16.352 43.0119 16.36C42.9959 16.368 42.9799 16.38 42.9639 16.396C42.9559 16.5 42.9559 16.608 42.9639 16.72C42.9719 16.832 42.9559 16.936 42.9159 17.032C42.8999 17.072 42.8879 17.064 42.8799 17.008C42.8799 16.96 42.8799 16.892 42.8799 16.804C42.8879 16.716 42.8839 16.652 42.8679 16.612C42.8679 16.596 42.8639 16.596 42.8559 16.612C42.8479 16.628 42.8359 16.636 42.8199 16.636C42.8119 16.636 42.7999 16.628 42.7839 16.612C42.7679 16.596 42.7519 16.572 42.7359 16.54C42.7279 16.524 42.7199 16.5 42.7119 16.468C42.7039 16.444 42.6959 16.44 42.6879 16.456C42.6639 16.488 42.6519 16.516 42.6519 16.54C42.6439 16.516 42.6359 16.484 42.6279 16.444C42.6199 16.412 42.6079 16.372 42.5919 16.324L42.5319 16.396L42.4959 16.432C42.4799 16.44 42.4639 16.452 42.4479 16.468C42.4399 16.484 42.4319 16.504 42.4239 16.528C42.4239 16.552 42.4159 16.56 42.3999 16.552C42.3759 16.536 42.3639 16.512 42.3639 16.48C42.3719 16.456 42.3679 16.432 42.3519 16.408C42.3199 16.368 42.2959 16.324 42.2799 16.276C42.2639 16.228 42.2479 16.184 42.2319 16.144C42.2159 16.144 42.2079 16.148 42.2079 16.156C42.1919 16.268 42.1839 16.38 42.1839 16.492C42.1839 16.604 42.1759 16.716 42.1599 16.828C42.1599 16.836 42.1519 16.84 42.1359 16.84C42.1199 16.848 42.1119 16.848 42.1119 16.84C42.0959 16.736 42.0879 16.632 42.0879 16.528C42.0959 16.424 42.0919 16.32 42.0759 16.216C42.0439 16.248 42.0239 16.264 42.0159 16.264C42.0159 16.264 42.0079 16.264 41.9919 16.264C41.9679 16.288 41.9399 16.3 41.9079 16.3C41.8759 16.308 41.8559 16.3 41.8479 16.276C41.8479 16.252 41.8399 16.224 41.8239 16.192L41.7399 16.12H41.7159C41.7159 16.176 41.7039 16.212 41.6799 16.228C41.6799 16.228 41.6679 16.208 41.6439 16.168C41.6359 16.224 41.6399 16.296 41.6559 16.384C41.6799 16.472 41.6599 16.52 41.5959 16.528C41.5559 16.528 41.5399 16.496 41.5479 16.432C41.5639 16.376 41.5759 16.316 41.5839 16.252C41.5999 16.188 41.5879 16.152 41.5479 16.144C41.5079 16.136 41.4919 16.164 41.4999 16.228C41.5159 16.292 41.5279 16.356 41.5359 16.42C41.5519 16.484 41.5399 16.508 41.4999 16.492C41.4439 16.468 41.4279 16.412 41.4519 16.324C41.4839 16.236 41.4839 16.164 41.4519 16.108C41.4359 16.068 41.4279 16.084 41.4279 16.156C41.4279 16.236 41.4199 16.292 41.4039 16.324C41.3959 16.332 41.3879 16.32 41.3799 16.288C41.3719 16.264 41.3639 16.244 41.3559 16.228C41.3079 16.164 41.2559 16.116 41.1999 16.084C41.1519 16.052 41.1039 16.02 41.0559 15.988C41.0399 15.98 41.0239 15.972 41.0079 15.964C40.9919 15.948 40.9759 15.936 40.9599 15.928C40.8799 15.864 40.8399 15.78 40.8399 15.676V13.792C40.8399 13.728 40.8399 13.66 40.8399 13.588C40.8399 13.516 40.8599 13.452 40.8999 13.396L40.9719 13.324C41.0279 13.284 41.0919 13.264 41.1639 13.264H42.5679C42.6319 13.264 42.6919 13.264 42.7479 13.264C42.8039 13.256 42.8519 13.252 42.8919 13.252C42.9159 13.252 42.9719 13.252 43.0599 13.252C43.1559 13.244 43.2399 13.248 43.3119 13.264C43.4399 13.296 43.5239 13.372 43.5639 13.492C43.5719 13.516 43.5759 13.552 43.5759 13.6ZM52.5342 11.896V12.268C52.5342 12.396 52.5302 12.54 52.5222 12.7C52.5222 12.86 52.5102 13.008 52.4862 13.144C52.4622 13.288 52.4342 13.428 52.4022 13.564C52.3702 13.692 52.3302 13.82 52.2822 13.948C52.2502 14.036 52.2222 14.116 52.1982 14.188C52.1742 14.252 52.1422 14.304 52.1022 14.344C52.1022 14.352 52.0982 14.356 52.0902 14.356C52.0902 14.356 52.0902 14.36 52.0902 14.368C52.0342 14.472 51.9822 14.556 51.9342 14.62C51.9022 14.676 51.8622 14.732 51.8142 14.788C51.7662 14.836 51.7182 14.884 51.6702 14.932C51.6302 14.972 51.5862 15.012 51.5382 15.052C51.4982 15.092 51.4582 15.132 51.4182 15.172C51.4182 15.172 51.4142 15.172 51.4062 15.172C51.4062 15.172 51.4062 15.176 51.4062 15.184C51.3662 15.224 51.3262 15.284 51.2862 15.364C51.2782 15.372 51.2742 15.38 51.2742 15.388C51.2742 15.396 51.2702 15.404 51.2622 15.412L51.2262 15.472C51.2182 15.48 51.2102 15.492 51.2022 15.508C51.2022 15.516 51.1982 15.52 51.1902 15.52C51.1582 15.576 51.1182 15.628 51.0702 15.676C51.0302 15.708 50.9822 15.748 50.9262 15.796C50.8782 15.836 50.8262 15.864 50.7702 15.88H50.7102C50.7022 15.912 50.6902 15.948 50.6742 15.988C50.6662 16.02 50.6542 16.052 50.6382 16.084C50.6302 16.092 50.6222 16.104 50.6142 16.12C50.6142 16.136 50.6062 16.152 50.5902 16.168C50.5822 16.176 50.5742 16.184 50.5662 16.192C50.5582 16.2 50.5542 16.212 50.5542 16.228C50.5462 16.316 50.5382 16.448 50.5302 16.624C50.5302 16.8 50.5262 16.984 50.5182 17.176C50.5182 17.376 50.5182 17.564 50.5182 17.74C50.5182 17.916 50.5142 18.048 50.5062 18.136C50.5062 18.144 50.4902 18.132 50.4582 18.1C50.4502 18.076 50.4422 18.052 50.4342 18.028C50.4342 18.004 50.4262 17.98 50.4102 17.956L50.2902 17.416C50.2502 17.296 50.2302 17.148 50.2302 16.972C50.2302 16.796 50.2302 16.62 50.2302 16.444C50.2382 16.276 50.2262 16.132 50.1942 16.012C50.1942 16.012 50.1902 16.012 50.1822 16.012C50.1822 16.02 50.1822 16.028 50.1822 16.036C50.1822 16.044 50.1782 16.044 50.1702 16.036C50.1622 16.028 50.1542 16.024 50.1462 16.024C50.1302 16.016 50.1142 16.004 50.0982 15.988C50.0902 15.98 50.0782 15.972 50.0622 15.964C50.0542 15.956 50.0422 15.948 50.0262 15.94C49.9942 15.972 49.9702 16.004 49.9542 16.036C49.9382 16.052 49.9302 16.064 49.9302 16.072L49.8582 16.156C49.7702 16.268 49.7022 16.392 49.6542 16.528L49.5822 16.744C49.5502 16.84 49.5142 16.94 49.4742 17.044C49.4342 17.156 49.3742 17.256 49.2942 17.344C49.2462 17.392 49.2262 17.408 49.2342 17.392C49.2502 17.384 49.2582 17.376 49.2582 17.368L49.2102 17.416C49.1782 17.432 49.1622 17.444 49.1622 17.452C49.1622 17.468 49.1422 17.48 49.1022 17.488C49.0942 17.488 49.0782 17.484 49.0542 17.476C49.0382 17.468 49.0222 17.468 49.0062 17.476C48.9982 17.476 48.9902 17.476 48.9822 17.476C48.9742 17.484 48.9622 17.488 48.9462 17.488L48.8622 17.548C48.8462 17.556 48.8222 17.572 48.7902 17.596C48.7662 17.62 48.7422 17.62 48.7182 17.596C48.7102 17.588 48.7022 17.576 48.6942 17.56C48.6942 17.544 48.6862 17.532 48.6702 17.524C48.6622 17.516 48.6542 17.516 48.6462 17.524C48.6382 17.54 48.6302 17.544 48.6222 17.536C48.6142 17.528 48.6062 17.52 48.5982 17.512C48.5902 17.504 48.5822 17.496 48.5742 17.488C48.5422 17.472 48.5102 17.448 48.4782 17.416C48.4462 17.384 48.4142 17.356 48.3822 17.332C48.3502 17.3 48.3222 17.276 48.2982 17.26C48.2822 17.3 48.2742 17.34 48.2742 17.38C48.2742 17.428 48.2662 17.472 48.2502 17.512C48.2422 17.544 48.2302 17.572 48.2142 17.596C48.2062 17.62 48.2022 17.644 48.2022 17.668C48.1942 17.756 48.1902 17.884 48.1902 18.052C48.1902 18.228 48.1902 18.412 48.1902 18.604C48.1902 18.796 48.1862 18.976 48.1782 19.144C48.1702 19.32 48.1582 19.452 48.1422 19.54C48.1342 19.612 48.1262 19.624 48.1182 19.576C48.1182 19.528 48.1142 19.448 48.1062 19.336C48.1062 19.224 48.1022 19.108 48.0942 18.988C48.0942 18.876 48.0942 18.784 48.0942 18.712C48.0862 18.592 48.0782 18.44 48.0702 18.256C48.0702 18.072 48.0662 17.888 48.0582 17.704C48.0582 17.528 48.0542 17.38 48.0462 17.26C48.0142 17.284 47.9862 17.312 47.9622 17.344C47.9142 17.4 47.8702 17.456 47.8302 17.512C47.7902 17.568 47.7382 17.616 47.6742 17.656C47.6662 17.72 47.6582 17.784 47.6502 17.848C47.6422 17.912 47.6342 17.976 47.6262 18.04C47.6182 18.16 47.6022 18.276 47.5782 18.388C47.5622 18.5 47.5462 18.612 47.5302 18.724C47.5222 18.772 47.5142 18.816 47.5062 18.856C47.5062 18.904 47.4982 18.948 47.4822 18.988C47.4742 19.02 47.4662 19.068 47.4582 19.132C47.4502 19.204 47.4422 19.224 47.4342 19.192C47.4182 19.008 47.4102 18.808 47.4102 18.592C47.4102 18.384 47.4022 18.192 47.3862 18.016C47.3862 18.008 47.3782 18.004 47.3622 18.004C47.3462 18.004 47.3382 18.008 47.3382 18.016C47.3222 18.192 47.3142 18.392 47.3142 18.616C47.3142 18.84 47.3062 19.044 47.2902 19.228C47.2902 19.26 47.2822 19.248 47.2662 19.192C47.2582 19.136 47.2502 19.096 47.2422 19.072C47.2182 18.984 47.1982 18.884 47.1822 18.772C47.1662 18.66 47.1502 18.568 47.1342 18.496C47.1182 18.352 47.1022 18.208 47.0862 18.064C47.0782 17.928 47.0622 17.792 47.0382 17.656L46.9662 17.584C46.9422 17.544 46.9182 17.504 46.8942 17.464C46.8782 17.432 46.8622 17.4 46.8462 17.368C46.7822 17.224 46.7222 17.08 46.6662 16.936C46.6182 16.792 46.5622 16.652 46.4982 16.516L46.3182 16.144C46.3102 16.128 46.3062 16.116 46.3062 16.108C46.3062 16.1 46.3022 16.092 46.2942 16.084C46.2782 16.116 46.2702 16.152 46.2702 16.192C46.2782 16.24 46.2702 16.284 46.2462 16.324C46.2382 16.332 46.2302 16.32 46.2222 16.288C46.2142 16.264 46.2062 16.248 46.1982 16.24C46.1902 16.192 46.1782 16.156 46.1622 16.132C46.1622 16.148 46.1542 16.164 46.1382 16.18C46.1302 16.196 46.1142 16.216 46.0902 16.24C46.0662 16.264 46.0422 16.288 46.0182 16.312C46.0022 16.336 45.9822 16.356 45.9582 16.372C45.9182 16.428 45.8862 16.492 45.8622 16.564C45.8462 16.644 45.8302 16.716 45.8142 16.78C45.8062 16.812 45.7982 16.844 45.7902 16.876C45.7902 16.908 45.7822 16.94 45.7662 16.972C45.7582 17.004 45.7502 17.052 45.7422 17.116C45.7342 17.18 45.7262 17.196 45.7182 17.164C45.6302 17.076 45.5902 17.04 45.5982 17.056C45.6062 17.08 45.6302 17.12 45.6702 17.176C45.7102 17.24 45.7342 17.292 45.7422 17.332C45.7502 17.38 45.7102 17.384 45.6222 17.344C45.5422 17.32 45.5022 17.264 45.5022 17.176C45.5102 17.088 45.5262 16.988 45.5502 16.876C45.5822 16.764 45.5902 16.668 45.5742 16.588C45.5742 16.572 45.5662 16.556 45.5502 16.54C45.5422 16.524 45.5382 16.524 45.5382 16.54C45.5302 16.58 45.5262 16.64 45.5262 16.72C45.5262 16.8 45.5262 16.864 45.5262 16.912C45.5262 16.968 45.5142 16.976 45.4902 16.936C45.4502 16.848 45.4382 16.756 45.4542 16.66C45.4702 16.564 45.4702 16.472 45.4542 16.384C45.4462 16.336 45.4262 16.296 45.3942 16.264C45.3782 16.256 45.3622 16.244 45.3462 16.228C45.3302 16.212 45.3142 16.2 45.2982 16.192C45.2902 16.192 45.2822 16.196 45.2742 16.204C45.2742 16.22 45.2702 16.232 45.2622 16.24C45.2382 16.24 45.2262 16.244 45.2262 16.252C45.2182 16.316 45.2182 16.4 45.2262 16.504C45.2422 16.616 45.2502 16.708 45.2502 16.78C45.2582 16.852 45.2342 16.872 45.1782 16.84C45.0982 16.776 45.0742 16.68 45.1062 16.552C45.1462 16.424 45.1582 16.308 45.1422 16.204C45.1422 16.188 45.1382 16.168 45.1302 16.144C45.1222 16.12 45.1102 16.116 45.0942 16.132C45.0782 16.156 45.0742 16.192 45.0822 16.24C45.0902 16.288 45.0822 16.308 45.0582 16.3C45.0262 16.284 45.0142 16.256 45.0222 16.216C45.0382 16.176 45.0422 16.14 45.0342 16.108L44.9502 15.988C44.9182 15.972 44.8902 15.956 44.8662 15.94C44.7782 15.876 44.7342 15.788 44.7342 15.676V13.42C44.5822 13.172 44.4702 12.94 44.3982 12.724C44.3342 12.5 44.3222 12.32 44.3622 12.184C44.4102 12.048 44.5342 11.98 44.7342 11.98V8.26C44.7342 8.212 44.7302 8.16 44.7222 8.104C44.7222 8.04 44.7262 7.98 44.7342 7.924C44.7342 7.844 44.7542 7.78 44.7942 7.732C44.8262 7.684 44.8702 7.648 44.9262 7.624C44.9742 7.608 45.0142 7.6 45.0462 7.6C45.0862 7.592 45.1262 7.592 45.1662 7.6C45.2142 7.6 45.2582 7.6 45.2982 7.6H48.2982C48.4262 7.6 48.5542 7.6 48.6822 7.6C48.8102 7.6 48.9382 7.608 49.0662 7.624C49.9462 7.696 50.6862 7.96 51.2862 8.416C51.3342 8.448 51.3702 8.476 51.3942 8.5C51.4182 8.516 51.4382 8.532 51.4542 8.548C51.5982 8.668 51.7382 8.816 51.8742 8.992C51.9702 9.096 52.0502 9.216 52.1142 9.352C52.2662 9.632 52.3782 9.948 52.4502 10.3C52.4502 10.308 52.4502 10.312 52.4502 10.312C52.4582 10.312 52.4622 10.316 52.4622 10.324C52.4702 10.356 52.4782 10.392 52.4862 10.432C52.4942 10.464 52.4982 10.5 52.4982 10.54C52.5222 10.644 52.5342 10.756 52.5342 10.876C52.5502 11.252 52.5502 11.592 52.5342 11.896ZM47.7822 9.976L47.7102 9.904C47.6222 9.816 47.5862 9.776 47.6022 9.784C47.6182 9.792 47.6462 9.82 47.6862 9.868C47.7342 9.916 47.7502 9.956 47.7342 9.988V13.516C47.7342 14.1 47.6662 14.528 47.5302 14.8C47.4022 15.072 47.2262 15.22 47.0022 15.244C46.7862 15.268 46.5502 15.208 46.2942 15.064C46.0382 14.912 45.7862 14.708 45.5382 14.452C45.2902 14.196 45.0662 13.924 44.8662 13.636C44.6742 13.348 44.5302 13.076 44.4342 12.82C44.3382 12.556 44.3142 12.348 44.3622 12.196C44.4182 12.036 44.5662 11.964 44.8062 11.98C45.0462 11.988 45.4022 12.12 45.8742 12.376C46.3542 12.624 46.9742 13.028 47.7342 13.588L47.8302 13.66H48.3342C48.4382 13.66 48.5382 13.656 48.6342 13.648C48.7382 13.632 48.8422 13.608 48.9462 13.576C49.0102 13.552 49.0702 13.516 49.1262 13.468C49.1342 13.468 49.1382 13.468 49.1382 13.468C49.1382 13.46 49.1422 13.456 49.1502 13.456C49.1662 13.44 49.1822 13.42 49.1982 13.396C49.2142 13.372 49.2302 13.348 49.2462 13.324C49.2942 13.244 49.3302 13.16 49.3542 13.072C49.3862 12.976 49.4102 12.888 49.4262 12.808C49.4262 12.8 49.4262 12.792 49.4262 12.784C49.4342 12.768 49.4382 12.756 49.4382 12.748C49.4542 12.7 49.4622 12.652 49.4622 12.604C49.4702 12.548 49.4782 12.496 49.4862 12.448C49.4862 12.36 49.4862 12.264 49.4862 12.16C49.4942 12.048 49.4982 11.936 49.4982 11.824V11.644C49.4982 11.564 49.4942 11.488 49.4862 11.416C49.4862 11.336 49.4862 11.256 49.4862 11.176C49.4862 11.152 49.4822 11.112 49.4742 11.056C49.4742 10.992 49.4742 10.932 49.4742 10.876C49.4662 10.788 49.4502 10.708 49.4262 10.636C49.4102 10.556 49.3822 10.48 49.3422 10.408C49.3422 10.408 49.3342 10.392 49.3182 10.36C49.3102 10.344 49.2942 10.324 49.2702 10.3C49.2702 10.292 49.2622 10.28 49.2462 10.264L49.1742 10.192C49.1182 10.144 49.0622 10.12 49.0062 10.12C48.9502 10.12 48.8902 10.128 48.8262 10.144C48.7622 10.152 48.6942 10.168 48.6222 10.192C48.5502 10.208 48.4782 10.22 48.4062 10.228C48.3742 10.236 48.3382 10.244 48.2982 10.252C48.2662 10.252 48.2342 10.248 48.2022 10.24C48.1462 10.224 48.0902 10.2 48.0342 10.168C47.9782 10.128 47.9262 10.092 47.8782 10.06C47.8382 10.02 47.8062 9.992 47.7822 9.976ZM60.517 14.404C60.517 14.564 60.521 14.752 60.529 14.968C60.537 15.176 60.537 15.368 60.529 15.544C60.529 15.584 60.529 15.624 60.529 15.664C60.529 15.704 60.521 15.744 60.505 15.784C60.505 15.792 60.501 15.8 60.493 15.808C60.485 15.84 60.469 15.868 60.445 15.892C60.421 15.908 60.397 15.924 60.373 15.94C60.365 15.956 60.349 15.972 60.325 15.988C60.309 16.004 60.293 16.024 60.277 16.048C60.269 16.064 60.257 16.084 60.241 16.108C60.225 16.132 60.209 16.156 60.193 16.18C60.185 16.188 60.177 16.196 60.169 16.204C60.161 16.212 60.153 16.224 60.145 16.24C60.105 16.288 60.061 16.336 60.013 16.384C59.973 16.432 59.933 16.484 59.893 16.54L59.809 16.66C59.777 16.7 59.749 16.74 59.725 16.78C59.701 16.82 59.673 16.86 59.641 16.9C59.625 16.916 59.617 16.924 59.617 16.924C59.593 16.956 59.549 16.992 59.485 17.032C59.477 17.04 59.469 17.044 59.461 17.044C59.453 17.052 59.441 17.06 59.425 17.068C59.409 17.076 59.389 17.092 59.365 17.116C59.341 17.14 59.317 17.156 59.293 17.164C59.261 17.172 59.225 17.164 59.185 17.14C59.153 17.124 59.125 17.108 59.101 17.092C59.085 17.076 59.073 17.068 59.065 17.068C59.081 17.052 59.069 17.06 59.029 17.092C58.997 17.124 58.973 17.148 58.957 17.164C58.941 17.332 58.933 17.5 58.933 17.668C58.933 17.844 58.925 18.02 58.909 18.196C58.901 18.268 58.909 18.356 58.933 18.46C58.957 18.564 58.933 18.624 58.861 18.64C58.789 18.648 58.761 18.596 58.777 18.484C58.801 18.372 58.813 18.28 58.813 18.208C58.805 18.024 58.797 17.844 58.789 17.668C58.789 17.492 58.781 17.316 58.765 17.14C58.757 17.132 58.753 17.124 58.753 17.116C58.745 17.116 58.737 17.112 58.729 17.104L58.669 17.008C58.637 16.944 58.601 16.876 58.561 16.804C58.529 16.732 58.493 16.664 58.453 16.6L58.273 16.288C58.265 16.256 58.253 16.224 58.237 16.192C58.221 16.168 58.205 16.136 58.189 16.096L58.177 16.084C58.169 16.132 58.165 16.18 58.165 16.228C58.165 16.284 58.157 16.336 58.141 16.384C58.133 16.392 58.125 16.408 58.117 16.432C58.109 16.456 58.101 16.464 58.093 16.456C58.085 16.416 58.077 16.372 58.069 16.324C58.069 16.284 58.069 16.248 58.069 16.216C58.037 16.28 58.017 16.324 58.009 16.348C57.985 16.404 57.961 16.46 57.937 16.516C57.913 16.58 57.885 16.644 57.853 16.708C57.829 16.764 57.789 16.836 57.733 16.924C57.733 16.932 57.729 16.936 57.721 16.936C57.713 16.952 57.693 16.976 57.661 17.008C57.645 17.024 57.633 17.032 57.625 17.032C57.609 17.088 57.597 17.144 57.589 17.2C57.589 17.264 57.585 17.328 57.577 17.392C57.569 17.432 57.561 17.468 57.553 17.5C57.545 17.54 57.537 17.58 57.529 17.62C57.521 17.636 57.509 17.66 57.493 17.692C57.485 17.732 57.477 17.744 57.469 17.728C57.453 17.64 57.457 17.54 57.481 17.428C57.505 17.324 57.485 17.244 57.421 17.188C57.397 17.164 57.385 17.176 57.385 17.224C57.385 17.272 57.389 17.332 57.397 17.404C57.413 17.476 57.421 17.536 57.421 17.584C57.421 17.64 57.405 17.656 57.373 17.632C57.309 17.576 57.293 17.492 57.325 17.38C57.357 17.276 57.357 17.184 57.325 17.104C57.317 17.064 57.313 17.088 57.313 17.176C57.321 17.264 57.309 17.324 57.277 17.356C57.269 17.372 57.261 17.356 57.253 17.308C57.253 17.268 57.245 17.236 57.229 17.212C57.221 17.196 57.205 17.16 57.181 17.104C57.165 17.048 57.137 17.032 57.097 17.056C57.097 17.056 57.093 17.056 57.085 17.056C57.085 17.056 57.085 17.06 57.085 17.068C57.069 17.084 57.041 17.116 57.001 17.164C56.961 17.22 56.913 17.272 56.857 17.32C56.857 17.32 56.841 17.328 56.809 17.344C56.801 17.432 56.809 17.552 56.833 17.704C56.857 17.856 56.881 18.004 56.905 18.148C56.929 18.3 56.933 18.424 56.917 18.52C56.901 18.616 56.849 18.656 56.761 18.64C56.673 18.624 56.621 18.564 56.605 18.46C56.589 18.356 56.589 18.232 56.605 18.088C56.629 17.952 56.653 17.812 56.677 17.668C56.709 17.532 56.721 17.416 56.713 17.32C56.705 17.32 56.701 17.316 56.701 17.308C56.701 17.308 56.697 17.308 56.689 17.308C56.681 17.308 56.677 17.304 56.677 17.296C56.661 17.28 56.645 17.256 56.629 17.224C56.613 17.208 56.597 17.184 56.581 17.152C56.541 17.056 56.501 16.952 56.461 16.84L56.281 16.48C56.273 16.464 56.265 16.448 56.257 16.432C56.257 16.416 56.249 16.4 56.233 16.384C56.193 16.368 56.149 16.352 56.101 16.336C56.061 16.32 56.021 16.304 55.981 16.288C55.997 16.272 55.997 16.256 55.981 16.24C55.973 16.248 55.969 16.256 55.969 16.264C55.969 16.272 55.969 16.276 55.969 16.276C55.953 16.276 55.929 16.268 55.897 16.252C55.897 16.252 55.893 16.252 55.885 16.252C55.885 16.252 55.885 16.248 55.885 16.24C55.877 16.248 55.869 16.256 55.861 16.264C55.853 16.28 55.845 16.292 55.837 16.3C55.789 16.364 55.741 16.42 55.693 16.468L55.669 16.492C55.669 16.492 55.665 16.492 55.657 16.492C55.657 16.492 55.657 16.496 55.657 16.504C55.649 16.504 55.641 16.504 55.633 16.504C55.633 16.512 55.629 16.516 55.621 16.516C55.613 16.636 55.605 16.804 55.597 17.02C55.597 17.244 55.593 17.464 55.585 17.68C55.585 17.904 55.577 18.076 55.561 18.196C55.561 18.204 55.553 18.212 55.537 18.22C55.521 18.236 55.513 18.24 55.513 18.232C55.465 18.144 55.449 18.016 55.465 17.848C55.481 17.688 55.501 17.516 55.525 17.332C55.557 17.156 55.569 16.984 55.561 16.816C55.553 16.656 55.505 16.532 55.417 16.444L55.249 16.228C55.241 16.212 55.229 16.196 55.213 16.18C55.205 16.164 55.193 16.152 55.177 16.144C55.161 16.112 55.133 16.076 55.093 16.036C55.093 16.044 55.089 16.048 55.081 16.048C55.057 16.08 55.025 16.108 54.985 16.132L54.901 16.168C54.893 16.168 54.889 16.168 54.889 16.168C54.889 16.176 54.885 16.18 54.877 16.18C54.877 16.196 54.877 16.22 54.877 16.252C54.877 16.292 54.869 16.344 54.853 16.408L54.757 17.02C54.749 17.076 54.741 17.128 54.733 17.176C54.725 17.224 54.713 17.272 54.697 17.32C54.689 17.368 54.681 17.436 54.673 17.524C54.665 17.612 54.657 17.636 54.649 17.596C54.593 17.508 54.569 17.396 54.577 17.26C54.585 17.124 54.601 16.992 54.625 16.864C54.657 16.744 54.669 16.648 54.661 16.576C54.653 16.504 54.605 16.484 54.517 16.516C54.405 16.54 54.309 16.524 54.229 16.468C54.213 16.452 54.197 16.436 54.181 16.42C54.165 16.404 54.149 16.392 54.133 16.384C54.125 16.368 54.113 16.348 54.097 16.324C54.089 16.308 54.085 16.308 54.085 16.324C54.077 16.404 54.077 16.508 54.085 16.636C54.101 16.772 54.113 16.9 54.121 17.02C54.129 17.148 54.129 17.24 54.121 17.296C54.113 17.36 54.085 17.36 54.037 17.296C53.965 17.2 53.929 17.088 53.929 16.96C53.937 16.84 53.953 16.712 53.977 16.576C54.009 16.448 54.013 16.324 53.989 16.204C53.981 16.148 53.977 16.152 53.977 16.216C53.985 16.288 53.985 16.372 53.977 16.468C53.977 16.564 53.965 16.636 53.941 16.684C53.917 16.74 53.905 16.712 53.905 16.6C53.913 16.488 53.917 16.404 53.917 16.348L53.833 15.988C53.801 15.972 53.773 15.956 53.749 15.94C53.661 15.876 53.617 15.788 53.617 15.676V8.116C53.617 8.052 53.617 7.988 53.617 7.924C53.617 7.852 53.637 7.788 53.677 7.732C53.701 7.684 53.749 7.648 53.821 7.624C53.837 7.616 53.853 7.612 53.869 7.612C53.893 7.604 53.921 7.6 53.953 7.6H59.809C59.889 7.6 59.973 7.6 60.061 7.6C60.149 7.592 60.225 7.612 60.289 7.66L60.361 7.732C60.401 7.788 60.421 7.848 60.421 7.912V9.328C60.429 9.36 60.433 9.4 60.433 9.448C60.433 9.488 60.433 9.528 60.433 9.568C60.433 9.608 60.425 9.66 60.409 9.724C60.409 9.732 60.405 9.74 60.397 9.748C60.397 9.748 60.397 9.752 60.397 9.76C60.389 9.76 60.385 9.764 60.385 9.772C60.369 9.788 60.361 9.796 60.361 9.796C60.353 9.812 60.325 9.84 60.277 9.88C60.229 9.92 60.201 9.944 60.193 9.952C60.177 9.968 60.161 9.98 60.145 9.988C60.113 10.004 60.097 10.012 60.097 10.012C60.097 10.004 60.097 9.996 60.097 9.988C60.097 9.988 60.089 9.984 60.073 9.976C60.057 9.96 60.021 9.956 59.965 9.964C59.917 9.98 59.877 9.988 59.845 9.988C59.789 9.996 59.733 10 59.677 10C59.629 10 59.577 10.008 59.521 10.024C59.465 10.04 59.413 10.064 59.365 10.096C59.325 10.12 59.281 10.14 59.233 10.156C59.193 10.164 59.153 10.176 59.113 10.192C59.073 10.2 59.033 10.212 58.993 10.228C58.953 10.236 58.913 10.256 58.873 10.288C58.833 10.312 58.793 10.328 58.753 10.336C58.697 10.344 58.633 10.328 58.561 10.288C58.537 10.264 58.517 10.252 58.501 10.252C58.493 10.252 58.489 10.252 58.489 10.252C58.481 10.276 58.465 10.292 58.441 10.3C58.409 10.332 58.369 10.364 58.321 10.396C58.281 10.42 58.237 10.44 58.189 10.456C58.133 10.48 58.081 10.488 58.033 10.48C57.993 10.464 57.945 10.452 57.889 10.444C57.857 10.436 57.821 10.436 57.781 10.444C57.741 10.444 57.701 10.44 57.661 10.432C57.581 10.416 57.505 10.388 57.433 10.348C57.361 10.308 57.289 10.268 57.217 10.228C57.153 10.188 57.081 10.156 57.001 10.132C56.929 10.1 56.857 10.072 56.785 10.048L56.497 9.94V10.552L56.545 10.696H59.353C59.441 10.696 59.545 10.692 59.665 10.684C59.785 10.676 59.889 10.692 59.977 10.732C59.985 10.732 59.993 10.736 60.001 10.744C60.049 10.776 60.081 10.804 60.097 10.828C60.121 10.86 60.137 10.896 60.145 10.936C60.153 10.976 60.161 11.016 60.169 11.056C60.169 11.104 60.165 11.156 60.157 11.212C60.157 11.26 60.157 11.308 60.157 11.356V12.472C60.157 12.504 60.157 12.536 60.157 12.568C60.165 12.592 60.165 12.616 60.157 12.64C60.157 12.656 60.149 12.68 60.133 12.712C60.133 12.72 60.129 12.724 60.121 12.724C60.121 12.724 60.121 12.728 60.121 12.736C60.089 12.8 60.033 12.852 59.953 12.892C59.945 12.892 59.941 12.896 59.941 12.904C59.941 12.904 59.937 12.904 59.929 12.904C59.881 12.936 59.829 12.96 59.773 12.976C59.725 12.984 59.681 12.996 59.641 13.012C59.577 13.044 59.513 13.084 59.449 13.132C59.385 13.172 59.317 13.2 59.245 13.216C59.205 13.224 59.161 13.232 59.113 13.24C59.065 13.24 59.021 13.248 58.981 13.264C58.941 13.272 58.901 13.284 58.861 13.3C58.821 13.316 58.781 13.332 58.741 13.348C58.669 13.372 58.597 13.384 58.525 13.384C58.453 13.384 58.385 13.388 58.321 13.396H58.261C58.245 13.396 58.229 13.4 58.213 13.408C58.197 13.408 58.181 13.404 58.165 13.396C58.117 13.388 58.073 13.376 58.033 13.36C58.001 13.336 57.965 13.32 57.925 13.312C57.853 13.296 57.781 13.304 57.709 13.336C57.637 13.36 57.565 13.364 57.493 13.348C57.437 13.332 57.381 13.304 57.325 13.264C57.277 13.216 57.221 13.172 57.157 13.132C57.093 13.1 57.025 13.068 56.953 13.036C56.881 13.004 56.809 12.976 56.737 12.952C56.753 12.952 56.721 12.944 56.641 12.928C56.561 12.912 56.513 12.904 56.497 12.904V13.516L56.545 13.66H60.193C60.241 13.66 60.289 13.672 60.337 13.696C60.353 13.696 60.373 13.708 60.397 13.732C60.413 13.74 60.425 13.748 60.433 13.756C60.441 13.764 60.449 13.776 60.457 13.792C60.473 13.808 60.489 13.84 60.505 13.888C60.513 13.912 60.517 13.948 60.517 13.996V14.404ZM68.6769 14.68C68.6209 14.76 68.5649 14.832 68.5089 14.896C68.4529 14.952 68.4049 15 68.3649 15.04L68.2809 15.124C68.2649 15.132 68.2449 15.144 68.2209 15.16C68.2049 15.176 68.1889 15.192 68.1729 15.208C68.1569 15.24 68.1409 15.272 68.1249 15.304C68.1169 15.328 68.1049 15.356 68.0889 15.388C68.0489 15.484 67.9969 15.568 67.9329 15.64C67.9249 15.648 67.9169 15.66 67.9089 15.676C67.9089 15.692 67.9049 15.696 67.8969 15.688C67.8889 15.68 67.8849 15.668 67.8849 15.652L67.8129 15.76C67.8049 15.776 67.7929 15.792 67.7769 15.808C67.7769 15.808 67.7729 15.812 67.7649 15.82C67.7649 15.82 67.7609 15.82 67.7529 15.82C67.7449 15.82 67.7409 15.824 67.7409 15.832C67.7409 15.832 67.7369 15.832 67.7289 15.832C67.7209 15.92 67.7169 16.056 67.7169 16.24C67.7169 16.424 67.7129 16.624 67.7049 16.84C67.7049 17.056 67.7009 17.256 67.6929 17.44C67.6929 17.624 67.6889 17.76 67.6809 17.848C67.6809 17.856 67.6729 17.864 67.6569 17.872C67.6409 17.88 67.6329 17.88 67.6329 17.872C67.6249 17.784 67.6169 17.644 67.6089 17.452C67.6089 17.26 67.6089 17.052 67.6089 16.828C67.6089 16.612 67.6049 16.408 67.5969 16.216C67.5969 16.032 67.5929 15.892 67.5849 15.796C67.5689 15.78 67.5529 15.768 67.5369 15.76C67.5369 15.76 67.5289 15.752 67.5129 15.736C67.5129 15.736 67.5089 15.736 67.5009 15.736C67.5009 15.728 67.5009 15.72 67.5009 15.712C67.4929 15.712 67.4889 15.712 67.4889 15.712C67.4889 15.704 67.4849 15.7 67.4769 15.7L67.4649 15.712C67.4569 15.736 67.4529 15.76 67.4529 15.784C67.4529 15.808 67.4449 15.84 67.4289 15.88C67.4209 15.912 67.4049 15.94 67.3809 15.964C67.3649 15.988 67.3449 16.016 67.3209 16.048C67.3209 16.056 67.3129 16.076 67.2969 16.108C67.2809 16.124 67.2689 16.132 67.2609 16.132C67.2529 16.132 67.2489 16.132 67.2489 16.132C67.2489 16.14 67.2489 16.144 67.2489 16.144C67.1769 16.272 67.1169 16.416 67.0689 16.576L66.9849 16.852C66.9769 16.876 66.9649 16.908 66.9489 16.948C66.9409 16.996 66.9369 17.008 66.9369 16.984C66.9209 16.856 66.9129 16.728 66.9129 16.6C66.9209 16.472 66.9169 16.344 66.9009 16.216C66.9009 16.224 66.8969 16.228 66.8889 16.228C66.8889 16.228 66.8889 16.232 66.8889 16.24C66.8729 16.296 66.8529 16.348 66.8289 16.396C66.8049 16.452 66.7809 16.508 66.7569 16.564C66.7169 16.652 66.6689 16.74 66.6129 16.828C66.5569 16.916 66.4929 16.996 66.4209 17.068C66.4129 17.076 66.3969 17.088 66.3729 17.104C66.3569 17.128 66.3369 17.148 66.3129 17.164C66.2809 17.196 66.2489 17.228 66.2169 17.26C66.1929 17.3 66.1489 17.312 66.0849 17.296C66.0369 17.272 65.9929 17.24 65.9529 17.2C65.9209 17.176 65.8849 17.144 65.8449 17.104C65.8129 17.064 65.7809 17.028 65.7489 16.996C65.6849 16.916 65.6249 16.828 65.5689 16.732C65.5209 16.644 65.4689 16.552 65.4129 16.456C65.3969 16.424 65.3769 16.384 65.3529 16.336C65.3289 16.296 65.3049 16.26 65.2809 16.228L65.2449 16.192C65.2449 16.184 65.2369 16.18 65.2209 16.18C65.2209 16.18 65.2049 16.168 65.1729 16.144C65.1569 16.152 65.1489 16.168 65.1489 16.192C65.1489 16.224 65.1409 16.248 65.1249 16.264C65.1089 16.296 65.0969 16.312 65.0889 16.312C65.0809 16.304 65.0729 16.292 65.0649 16.276C65.0649 16.26 65.0609 16.248 65.0529 16.24L65.0169 16.12H65.0049C64.1409 16.104 63.4249 15.972 62.8569 15.724C62.2969 15.468 61.8769 15.152 61.5969 14.776C61.5409 14.704 61.4929 14.632 61.4529 14.56C61.4129 14.496 61.3809 14.432 61.3569 14.368L61.3089 14.248C61.2849 14.184 61.2649 14.12 61.2489 14.056C61.2329 13.984 61.2169 13.916 61.2009 13.852C61.1929 13.788 61.1809 13.724 61.1649 13.66C61.1569 13.588 61.1689 13.52 61.2009 13.456C61.2009 13.448 61.2009 13.444 61.2009 13.444C61.2089 13.436 61.2129 13.432 61.2129 13.432C61.2289 13.4 61.2609 13.368 61.3089 13.336C61.3409 13.32 61.3729 13.312 61.4049 13.312C61.4369 13.304 61.4649 13.3 61.4889 13.3C61.6009 13.292 61.7129 13.292 61.8249 13.3C61.9369 13.3 62.0449 13.3 62.1489 13.3H63.2889C63.3289 13.3 63.3809 13.3 63.4449 13.3C63.5169 13.292 63.5809 13.288 63.6369 13.288C63.6849 13.288 63.7289 13.292 63.7689 13.3C63.8169 13.3 63.8569 13.304 63.8889 13.312C63.9529 13.32 64.0049 13.34 64.0449 13.372C64.0929 13.396 64.1409 13.428 64.1889 13.468L64.3689 13.588C64.4249 13.62 64.4809 13.648 64.5369 13.672C64.5929 13.696 64.6489 13.716 64.7049 13.732C64.8089 13.764 64.9489 13.78 65.1249 13.78C65.2209 13.78 65.3129 13.776 65.4009 13.768C65.4889 13.76 65.5689 13.748 65.6409 13.732L65.7609 13.696C65.7769 13.688 65.7889 13.684 65.7969 13.684C65.8129 13.684 65.8249 13.68 65.8329 13.672C65.9609 13.608 66.0249 13.532 66.0249 13.444V13.432C66.0249 13.384 66.0049 13.332 65.9649 13.276L65.8929 13.204H65.8809C65.8489 13.188 65.8049 13.188 65.7489 13.204C65.6929 13.212 65.6449 13.22 65.6049 13.228C65.5729 13.228 65.5369 13.232 65.4969 13.24C65.4649 13.24 65.4289 13.24 65.3889 13.24C65.3729 13.24 65.3569 13.236 65.3409 13.228C65.3249 13.22 65.3089 13.216 65.2929 13.216C65.2689 13.224 65.2449 13.232 65.2209 13.24C65.2049 13.248 65.1889 13.256 65.1729 13.264C65.1329 13.28 65.0889 13.296 65.0409 13.312C64.9929 13.328 64.9449 13.348 64.8969 13.372C64.8249 13.404 64.7489 13.432 64.6689 13.456C64.5969 13.472 64.5209 13.464 64.4409 13.432C64.3929 13.416 64.3489 13.396 64.3089 13.372C64.2689 13.348 64.2289 13.324 64.1889 13.3C64.1089 13.26 64.0329 13.216 63.9609 13.168C63.8969 13.12 63.8329 13.068 63.7689 13.012L63.4929 12.736L63.3969 12.664H63.3129C63.3049 12.672 63.2929 12.684 63.2769 12.7C63.2689 12.708 63.2569 12.72 63.2409 12.736C63.2089 12.768 63.1729 12.804 63.1329 12.844C63.0929 12.884 63.0529 12.92 63.0129 12.952C62.9969 12.96 62.9729 12.972 62.9409 12.988C62.9169 13.004 62.8929 13.008 62.8689 13C62.8369 12.984 62.8089 12.96 62.7849 12.928C62.7609 12.896 62.7409 12.864 62.7249 12.832C62.7009 12.768 62.6809 12.7 62.6649 12.628C62.6569 12.556 62.6369 12.492 62.6049 12.436C62.5729 12.412 62.5369 12.384 62.4969 12.352C62.4649 12.32 62.4329 12.288 62.4009 12.256C62.3929 12.248 62.3849 12.24 62.3769 12.232C62.3769 12.224 62.3689 12.216 62.3529 12.208C62.2969 12.152 62.2649 12.124 62.2569 12.124C62.2569 12.124 62.2409 12.116 62.2089 12.1C62.1929 12.084 62.1849 12.068 62.1849 12.052C62.1129 11.988 62.0449 11.92 61.9809 11.848C61.9569 11.816 61.9289 11.788 61.8969 11.764C61.8729 11.732 61.8529 11.7 61.8369 11.668C61.8049 11.636 61.7769 11.6 61.7529 11.56C61.7289 11.52 61.7049 11.484 61.6809 11.452C61.6649 11.42 61.6489 11.392 61.6329 11.368C61.6169 11.336 61.6009 11.304 61.5849 11.272C61.5129 11.152 61.4569 10.984 61.4169 10.768C61.3849 10.552 61.3729 10.34 61.3809 10.132C61.3889 9.916 61.4129 9.748 61.4529 9.628C61.4689 9.58 61.4849 9.532 61.5009 9.484C61.5169 9.436 61.5329 9.388 61.5489 9.34C61.5649 9.292 61.5809 9.256 61.5969 9.232C61.6129 9.184 61.6289 9.148 61.6449 9.124C61.9009 8.628 62.3129 8.236 62.8809 7.948C63.4489 7.652 64.1369 7.496 64.9449 7.48H65.0409C65.7049 7.48 66.2809 7.576 66.7689 7.768C67.2649 7.952 67.6729 8.192 67.9929 8.488C68.3129 8.776 68.5409 9.076 68.6769 9.388C68.6929 9.436 68.7089 9.484 68.7249 9.532C68.7489 9.58 68.7649 9.628 68.7729 9.676C68.7889 9.724 68.8009 9.776 68.8089 9.832C68.8249 9.888 68.8249 9.944 68.8089 10C68.7929 10.072 68.7609 10.128 68.7129 10.168C68.6809 10.2 68.6529 10.22 68.6289 10.228C68.6289 10.228 68.6209 10.236 68.6049 10.252C68.5969 10.252 68.5889 10.248 68.5809 10.24C68.5729 10.248 68.5649 10.252 68.5569 10.252C68.5489 10.244 68.5369 10.244 68.5209 10.252C68.5049 10.252 68.4849 10.26 68.4609 10.276C68.4449 10.284 68.4289 10.292 68.4129 10.3C68.3569 10.324 68.3009 10.352 68.2449 10.384C68.1969 10.416 68.1409 10.436 68.0769 10.444C68.0129 10.444 67.9489 10.436 67.8849 10.42C67.8209 10.396 67.7569 10.384 67.6929 10.384C67.6449 10.384 67.5969 10.396 67.5489 10.42C67.5009 10.436 67.4529 10.44 67.4049 10.432C67.3729 10.424 67.3409 10.412 67.3089 10.396C67.2769 10.372 67.2449 10.352 67.2129 10.336C67.1889 10.328 67.1649 10.32 67.1409 10.312C67.1169 10.304 67.0929 10.3 67.0689 10.3L66.9729 10.324C66.8929 10.34 66.8129 10.356 66.7329 10.372C66.6529 10.388 66.5689 10.4 66.4809 10.408C66.4489 10.416 66.4169 10.428 66.3849 10.444C66.3609 10.46 66.3329 10.472 66.3009 10.48C66.2529 10.496 66.2009 10.508 66.1449 10.516C66.0969 10.524 66.0449 10.52 65.9889 10.504C65.9169 10.472 65.8569 10.424 65.8089 10.36C65.7689 10.288 65.7249 10.224 65.6769 10.168C65.6609 10.144 65.6409 10.12 65.6169 10.096C65.5929 10.072 65.5689 10.048 65.5449 10.024C65.5369 10.032 65.5249 10.036 65.5089 10.036C65.3729 10.076 65.2489 10.06 65.1369 9.988C65.1129 9.972 65.0889 9.956 65.0649 9.94C65.0409 9.916 65.0129 9.9 64.9809 9.892C64.9809 9.884 64.9649 9.872 64.9329 9.856C64.9009 9.864 64.8689 9.876 64.8369 9.892C64.8049 9.9 64.7729 9.912 64.7409 9.928C64.7329 9.928 64.7209 9.932 64.7049 9.94C64.6969 9.94 64.6849 9.94 64.6689 9.94H64.5969C64.5649 9.94 64.5449 9.944 64.5369 9.952C64.5369 9.96 64.5289 9.972 64.5129 9.988C64.5129 9.996 64.5089 10 64.5009 10C64.5009 10 64.5009 10.004 64.5009 10.012C64.4849 10.044 64.4769 10.068 64.4769 10.084C64.4689 10.1 64.4649 10.124 64.4649 10.156C64.4649 10.268 64.5289 10.352 64.6569 10.408C64.6729 10.424 64.7049 10.44 64.7529 10.456C64.8249 10.488 64.9009 10.512 64.9809 10.528C65.1329 10.568 65.3049 10.604 65.4969 10.636L65.7969 10.672C65.8129 10.672 65.8289 10.676 65.8449 10.684C65.8689 10.684 65.8849 10.684 65.8929 10.684L66.1209 10.72H66.1929C66.2009 10.728 66.2089 10.732 66.2169 10.732C66.2409 10.732 66.2649 10.736 66.2889 10.744C66.3209 10.744 66.3529 10.748 66.3849 10.756C67.6329 10.98 68.4409 11.404 68.8089 12.028C68.8169 12.028 68.8209 12.032 68.8209 12.04C68.8689 12.096 68.9049 12.172 68.9289 12.268C68.9369 12.284 68.9449 12.304 68.9529 12.328C68.9609 12.344 68.9689 12.36 68.9769 12.376L69.0489 12.592C69.0489 12.6 69.0489 12.612 69.0489 12.628C69.0569 12.636 69.0609 12.644 69.0609 12.652C69.0849 12.724 69.0969 12.796 69.0969 12.868C69.1049 12.916 69.1089 12.964 69.1089 13.012C69.1089 13.052 69.1089 13.092 69.1089 13.132V13.288C69.1089 13.576 69.0609 13.852 68.9649 14.116C68.9089 14.316 68.8409 14.468 68.7609 14.572L68.6769 14.68ZM73.0841 15.1C73.0841 15.204 73.0881 15.312 73.0961 15.424C73.1041 15.528 73.1001 15.632 73.0841 15.736C73.0841 15.744 73.0801 15.752 73.0721 15.76C73.0721 15.76 73.0721 15.768 73.0721 15.784C73.0481 15.848 72.9961 15.908 72.9161 15.964C72.8921 16.004 72.8721 16.044 72.8561 16.084C72.8401 16.132 72.8201 16.176 72.7961 16.216C72.7961 16.224 72.7881 16.244 72.7721 16.276C72.7561 16.316 72.7361 16.332 72.7121 16.324C72.6801 16.308 72.6601 16.276 72.6521 16.228C72.6441 16.18 72.6361 16.152 72.6281 16.144L72.5921 16.18C72.5761 16.196 72.5561 16.216 72.5321 16.24C72.5161 16.264 72.5001 16.284 72.4841 16.3L72.3761 16.456C72.3601 16.488 72.3401 16.524 72.3161 16.564C72.2921 16.604 72.2641 16.632 72.2321 16.648C72.2241 16.672 72.2161 16.696 72.2081 16.72C72.2081 16.744 72.2001 16.772 72.1841 16.804C72.1761 16.82 72.1681 16.84 72.1601 16.864C72.1521 16.888 72.1401 16.908 72.1241 16.924C72.1241 16.932 72.1161 16.936 72.1001 16.936C72.0921 16.944 72.0841 16.944 72.0761 16.936C72.0681 16.896 72.0601 16.852 72.0521 16.804C72.0521 16.756 72.0481 16.708 72.0401 16.66C72.0321 16.644 72.0241 16.628 72.0161 16.612C72.0161 16.596 72.0081 16.584 71.9921 16.576C71.9761 16.56 71.9601 16.544 71.9441 16.528C71.9281 16.512 71.9121 16.496 71.8961 16.48C71.8721 16.456 71.8521 16.44 71.8361 16.432C71.7961 16.432 71.7641 16.428 71.7401 16.42L71.7041 16.564C71.6961 16.572 71.6881 16.588 71.6801 16.612C71.6721 16.636 71.6641 16.644 71.6561 16.636C71.6401 16.604 71.6321 16.568 71.6321 16.528C71.6401 16.488 71.6361 16.452 71.6201 16.42C71.6121 16.42 71.6081 16.42 71.6081 16.42C71.6081 16.428 71.6041 16.432 71.5961 16.432C71.5961 16.44 71.5801 16.46 71.5481 16.492C71.5481 16.492 71.5441 16.492 71.5361 16.492C71.5361 16.492 71.5361 16.496 71.5361 16.504C71.5361 16.504 71.5321 16.508 71.5241 16.516C71.5241 16.524 71.5041 16.54 71.4641 16.564C71.4561 16.66 71.4481 16.756 71.4401 16.852C71.4401 16.948 71.4361 17.044 71.4281 17.14C71.4121 17.316 71.3921 17.544 71.3681 17.824C71.3521 18.112 71.3241 18.348 71.2841 18.532C71.2761 18.572 71.2681 18.608 71.2601 18.64C71.2601 18.68 71.2521 18.72 71.2361 18.76C71.2121 18.808 71.1961 18.828 71.1881 18.82C71.1641 18.804 71.1481 18.78 71.1401 18.748C71.1401 18.724 71.1361 18.704 71.1281 18.688C71.1201 18.624 71.1121 18.564 71.1041 18.508C71.0961 18.46 71.0881 18.408 71.0801 18.352C71.0721 18.232 71.0641 18.08 71.0561 17.896C71.0561 17.712 71.0561 17.528 71.0561 17.344C71.0561 17.16 71.0481 17.008 71.0321 16.888C71.0321 16.848 71.0281 16.864 71.0201 16.936C71.0201 17.016 71.0161 17.092 71.0081 17.164C71.0081 17.244 71.0001 17.268 70.9841 17.236C70.9521 17.1 70.9401 16.996 70.9481 16.924C70.9561 16.852 70.9401 16.724 70.9001 16.54C70.8841 16.524 70.8641 16.504 70.8401 16.48C70.8241 16.464 70.8081 16.444 70.7921 16.42L70.6241 16.24C70.6081 16.224 70.5881 16.208 70.5641 16.192C70.5481 16.176 70.5321 16.16 70.5161 16.144C70.4841 16.12 70.4561 16.108 70.4321 16.108C70.4081 16.108 70.3961 16.108 70.3961 16.108C70.3881 16.164 70.3921 16.232 70.4081 16.312C70.4241 16.4 70.4081 16.436 70.3601 16.42C70.3041 16.404 70.2881 16.356 70.3121 16.276C70.3361 16.196 70.3361 16.132 70.3121 16.084C70.2881 16.028 70.2761 16.008 70.2761 16.024C70.2761 16.04 70.2801 16.064 70.2881 16.096C70.2961 16.128 70.3001 16.14 70.3001 16.132C70.3001 16.132 70.2841 16.088 70.2521 16C70.2441 15.992 70.2321 15.988 70.2161 15.988C70.2081 15.988 70.1961 15.984 70.1801 15.976C70.0521 15.92 69.9881 15.816 69.9881 15.664C69.9801 15.584 69.9761 15.504 69.9761 15.424C69.9841 15.336 69.9881 15.256 69.9881 15.184V8.164C69.9881 8.124 69.9841 8.084 69.9761 8.044C69.9761 7.996 69.9801 7.952 69.9881 7.912C69.9881 7.88 69.9961 7.84 70.0121 7.792C70.0281 7.76 70.0401 7.74 70.0481 7.732C70.0641 7.708 70.0801 7.688 70.0961 7.672C70.1201 7.656 70.1401 7.644 70.1561 7.636C70.1721 7.628 70.1881 7.624 70.2041 7.624C70.2201 7.616 70.2361 7.612 70.2521 7.612C70.2841 7.596 70.3161 7.588 70.3481 7.588C70.3801 7.588 70.4121 7.588 70.4441 7.588C70.4921 7.588 70.5441 7.592 70.6001 7.6C70.6561 7.6 70.7041 7.6 70.7441 7.6H72.6161C72.6561 7.6 72.6961 7.6 72.7361 7.6C72.7841 7.592 72.8281 7.596 72.8681 7.612C72.8761 7.62 72.8841 7.624 72.8921 7.624C72.9001 7.624 72.9081 7.628 72.9161 7.636C72.9641 7.652 73.0041 7.692 73.0361 7.756C73.0521 7.78 73.0681 7.824 73.0841 7.888C73.1001 7.968 73.1041 8.052 73.0961 8.14C73.0881 8.22 73.0841 8.292 73.0841 8.356V15.1ZM81.8341 14.644C81.8181 14.668 81.7981 14.692 81.7741 14.716C81.7581 14.74 81.7421 14.76 81.7261 14.776C81.6941 14.808 81.6661 14.84 81.6421 14.872C81.6181 14.904 81.5901 14.936 81.5581 14.968C81.5261 15 81.4901 15.032 81.4501 15.064C81.4181 15.096 81.3821 15.132 81.3421 15.172C81.3261 15.188 81.3101 15.2 81.2941 15.208C81.2941 15.216 81.2861 15.224 81.2701 15.232C81.2621 15.24 81.2621 15.24 81.2701 15.232C81.2381 15.28 81.2181 15.32 81.2101 15.352C81.2021 15.36 81.1981 15.368 81.1981 15.376C81.1741 15.432 81.1501 15.488 81.1261 15.544C81.1101 15.6 81.0901 15.656 81.0661 15.712C81.0661 15.728 81.0621 15.74 81.0541 15.748C81.0461 15.788 81.0301 15.832 81.0061 15.88C80.9901 15.92 80.9741 15.96 80.9581 16L80.9221 16.072C80.8981 16.12 80.8701 16.164 80.8381 16.204C80.8141 16.252 80.7821 16.288 80.7421 16.312C80.7341 16.4 80.7421 16.512 80.7661 16.648C80.7981 16.784 80.8221 16.916 80.8381 17.044C80.8621 17.172 80.8661 17.276 80.8501 17.356C80.8341 17.436 80.7821 17.468 80.6941 17.452C80.5741 17.428 80.5181 17.344 80.5261 17.2C80.5341 17.064 80.5581 16.904 80.5981 16.72C80.6461 16.544 80.6621 16.396 80.6461 16.276C80.6461 16.276 80.6381 16.268 80.6221 16.252C80.6061 16.236 80.5981 16.228 80.5981 16.228C80.5981 16.22 80.5941 16.216 80.5861 16.216C80.5861 16.216 80.5861 16.212 80.5861 16.204L80.5501 16.144C80.5341 16.104 80.5181 16.068 80.5021 16.036C80.4861 16.004 80.4661 15.972 80.4421 15.94C80.4341 15.94 80.4301 15.936 80.4301 15.928L80.3581 15.964H80.3461C80.3381 16.076 80.3301 16.184 80.3221 16.288C80.3221 16.4 80.3181 16.512 80.3101 16.624C80.3021 16.696 80.2981 16.796 80.2981 16.924C80.2981 17.06 80.2981 17.168 80.2981 17.248C80.2981 17.336 80.2861 17.344 80.2621 17.272C80.2381 17.184 80.2221 17.096 80.2141 17.008C80.2141 16.928 80.2141 16.844 80.2141 16.756C80.1901 16.756 80.1781 16.752 80.1781 16.744C80.1701 16.688 80.1701 16.624 80.1781 16.552C80.1941 16.488 80.2061 16.42 80.2141 16.348V16.288C80.2141 16.28 80.2101 16.284 80.2021 16.3C80.1941 16.316 80.1861 16.324 80.1781 16.324C80.1621 16.308 80.1501 16.292 80.1421 16.276C80.1421 16.26 80.1381 16.248 80.1301 16.24C80.1221 16.232 80.1141 16.208 80.1061 16.168C80.0981 16.128 80.0861 16.088 80.0701 16.048C80.0221 16.08 80.0021 16.136 80.0101 16.216C80.0181 16.304 80.0341 16.396 80.0581 16.492C80.0821 16.596 80.0901 16.684 80.0821 16.756C80.0821 16.764 80.0741 16.768 80.0581 16.768C80.0501 16.776 80.0421 16.788 80.0341 16.804C80.0261 16.812 80.0181 16.828 80.0101 16.852C80.0021 16.876 79.9941 16.88 79.9861 16.864C79.9781 16.752 79.9741 16.64 79.9741 16.528C79.9741 16.416 79.9701 16.308 79.9621 16.204C79.9381 16.292 79.9141 16.388 79.8901 16.492C79.8741 16.596 79.8461 16.692 79.8061 16.78C79.7981 16.804 79.7861 16.828 79.7701 16.852C79.7541 16.884 79.7341 16.904 79.7101 16.912C79.6701 16.936 79.6341 16.924 79.6021 16.876C79.5861 16.86 79.5701 16.84 79.5541 16.816C79.5461 16.792 79.5381 16.776 79.5301 16.768C79.4741 16.696 79.4101 16.624 79.3381 16.552C79.2741 16.48 79.2181 16.404 79.1701 16.324C79.1701 16.316 79.1661 16.308 79.1581 16.3C79.1581 16.3 79.1581 16.296 79.1581 16.288C79.1501 16.288 79.1461 16.284 79.1461 16.276C79.1381 16.26 79.1301 16.24 79.1221 16.216C79.1141 16.2 79.1061 16.184 79.0981 16.168C79.0821 16.208 79.0741 16.252 79.0741 16.3C79.0821 16.356 79.0741 16.408 79.0501 16.456C79.0421 16.464 79.0341 16.452 79.0261 16.42C79.0181 16.396 79.0101 16.376 79.0021 16.36C78.9861 16.312 78.9781 16.272 78.9781 16.24C78.9621 16.272 78.9421 16.304 78.9181 16.336C78.9021 16.376 78.8781 16.412 78.8461 16.444C78.7901 16.5 78.7541 16.576 78.7381 16.672C78.7221 16.776 78.7181 16.884 78.7261 16.996C78.7101 16.996 78.6901 17.008 78.6661 17.032C78.6501 17.056 78.6341 17.08 78.6181 17.104C78.6021 17.128 78.5901 17.16 78.5821 17.2C78.5821 17.04 78.5821 16.892 78.5821 16.756C78.5901 16.62 78.5901 16.516 78.5821 16.444C78.5421 16.412 78.5021 16.372 78.4621 16.324C78.4301 16.284 78.4021 16.252 78.3781 16.228C78.3701 16.212 78.3541 16.192 78.3301 16.168C78.3221 16.168 78.3101 16.16 78.2941 16.144C78.2621 16.128 78.2421 16.14 78.2341 16.18C78.2261 16.252 78.2221 16.324 78.2221 16.396C78.2221 16.476 78.2141 16.552 78.1981 16.624C78.1901 16.64 78.1821 16.628 78.1741 16.588C78.1741 16.548 78.1701 16.52 78.1621 16.504L78.1261 16.12H78.1141C77.3141 16.104 76.6221 15.972 76.0381 15.724C75.4541 15.468 75.0061 15.092 74.6941 14.596C74.6461 14.532 74.6021 14.464 74.5621 14.392C74.5301 14.312 74.4981 14.232 74.4661 14.152C74.4421 14.104 74.4221 14.056 74.4061 14.008C74.3901 13.96 74.3741 13.912 74.3581 13.864C74.3261 13.816 74.2981 13.732 74.2741 13.612C74.2341 13.484 74.2061 13.324 74.1901 13.132C74.1741 12.94 74.1661 12.748 74.1661 12.556C74.1661 12.356 74.1661 12.196 74.1661 12.076C74.1661 12.004 74.1661 11.932 74.1661 11.86C74.1661 11.788 74.1701 11.716 74.1781 11.644V11.164C74.1781 11.004 74.1781 10.84 74.1781 10.672C74.1861 10.496 74.2061 10.332 74.2381 10.18C74.3101 9.74 74.4541 9.352 74.6701 9.016L74.7421 8.896C74.7501 8.888 74.7541 8.88 74.7541 8.872C74.7621 8.864 74.7701 8.856 74.7781 8.848C74.7941 8.824 74.8101 8.8 74.8261 8.776C74.8501 8.752 74.8701 8.732 74.8861 8.716C75.2301 8.316 75.6781 8.012 76.2301 7.804C76.7901 7.596 77.4261 7.488 78.1381 7.48H78.2941C78.3661 7.48 78.4421 7.48 78.5221 7.48C78.6021 7.48 78.6701 7.484 78.7261 7.492C78.7501 7.492 78.7741 7.496 78.7981 7.504C78.8221 7.504 78.8461 7.504 78.8701 7.504L79.1101 7.528C79.1501 7.536 79.1901 7.544 79.2301 7.552C79.2701 7.552 79.3061 7.556 79.3381 7.564C79.5221 7.588 79.7021 7.624 79.8781 7.672C79.8861 7.672 79.8901 7.676 79.8901 7.684C80.3301 7.796 80.7101 7.952 81.0301 8.152C81.3581 8.344 81.6301 8.568 81.8461 8.824C81.8861 8.872 81.9261 8.924 81.9661 8.98C82.0061 9.028 82.0421 9.084 82.0741 9.148C82.0741 9.156 82.0821 9.168 82.0981 9.184C82.1141 9.216 82.1301 9.252 82.1461 9.292C82.1701 9.332 82.1901 9.372 82.2061 9.412C82.2781 9.58 82.3261 9.756 82.3501 9.94V10C82.3581 10.024 82.3621 10.048 82.3621 10.072C82.3621 10.096 82.3621 10.12 82.3621 10.144V10.216C82.3621 10.232 82.3541 10.248 82.3381 10.264C82.3381 10.264 82.3341 10.268 82.3261 10.276C82.3261 10.276 82.3261 10.28 82.3261 10.288C82.3261 10.288 82.3181 10.296 82.3021 10.312C82.3181 10.312 82.3221 10.316 82.3141 10.324C82.3061 10.324 82.2901 10.336 82.2661 10.36C82.2581 10.368 82.2501 10.38 82.2421 10.396C82.2341 10.404 82.2261 10.416 82.2181 10.432C82.2101 10.44 82.2061 10.448 82.2061 10.456C82.2061 10.464 82.2021 10.472 82.1941 10.48C82.1861 10.488 82.1781 10.504 82.1701 10.528C82.1701 10.552 82.1621 10.56 82.1461 10.552C82.1301 10.552 82.1221 10.544 82.1221 10.528C82.1221 10.504 82.1181 10.484 82.1101 10.468C82.1021 10.468 82.0981 10.468 82.0981 10.468C82.0981 10.46 82.0981 10.456 82.0981 10.456C82.0901 10.448 82.0781 10.448 82.0621 10.456C82.0541 10.464 82.0421 10.472 82.0261 10.48C82.0101 10.496 82.0021 10.504 82.0021 10.504C81.9941 10.512 81.9781 10.516 81.9541 10.516C81.9381 10.516 81.9221 10.52 81.9061 10.528C81.8501 10.544 81.7901 10.564 81.7261 10.588C81.6701 10.612 81.6101 10.62 81.5461 10.612C81.4901 10.612 81.4381 10.604 81.3901 10.588C81.3501 10.564 81.3021 10.548 81.2461 10.54C81.2061 10.524 81.1621 10.52 81.1141 10.528C81.0741 10.536 81.0301 10.54 80.9821 10.54C80.9661 10.54 80.9501 10.54 80.9341 10.54C80.9181 10.532 80.9021 10.528 80.8861 10.528C80.8461 10.536 80.8061 10.56 80.7661 10.6C80.7341 10.632 80.7021 10.66 80.6701 10.684C80.6381 10.708 80.6021 10.724 80.5621 10.732C80.5221 10.74 80.4821 10.752 80.4421 10.768C80.4021 10.792 80.3661 10.824 80.3341 10.864C80.3021 10.896 80.2661 10.92 80.2261 10.936H82.0381C82.1021 10.936 82.1661 10.956 82.2301 10.996L82.3021 11.068C82.3421 11.124 82.3621 11.188 82.3621 11.26C82.3621 11.324 82.3621 11.388 82.3621 11.452V12.16C82.3621 12.304 82.3621 12.448 82.3621 12.592C82.3701 12.736 82.3701 12.88 82.3621 13.024C82.3541 13.224 82.3301 13.412 82.2901 13.588C82.2501 13.756 82.1981 13.92 82.1341 14.08L82.0261 14.32C81.9941 14.376 81.9621 14.432 81.9301 14.488C81.9061 14.544 81.8741 14.596 81.8341 14.644ZM78.2461 13.78H78.2821C78.4421 13.78 78.6021 13.756 78.7621 13.708C78.9301 13.652 79.0621 13.56 79.1581 13.432C79.1981 13.368 79.2261 13.308 79.2421 13.252C79.2661 13.188 79.2821 13.128 79.2901 13.072C79.2901 13.064 79.2901 13.052 79.2901 13.036C79.2981 13.02 79.3021 13.004 79.3021 12.988L79.2661 12.916C79.2421 12.924 79.2221 12.944 79.2061 12.976C79.1901 13.008 79.1741 13.032 79.1581 13.048C79.1341 13.08 79.1061 13.108 79.0741 13.132C79.0501 13.156 79.0221 13.18 78.9901 13.204C78.9741 13.212 78.9581 13.22 78.9421 13.228C78.9261 13.228 78.9101 13.228 78.8941 13.228C78.8381 13.244 78.7861 13.228 78.7381 13.18L78.6781 13.12C78.6461 13.08 78.6221 13.036 78.6061 12.988C78.5901 12.94 78.5701 12.896 78.5461 12.856V12.844C78.5061 12.82 78.4701 12.78 78.4381 12.724C78.4381 12.716 78.4341 12.712 78.4261 12.712C78.4261 12.704 78.4261 12.696 78.4261 12.688C78.4261 12.68 78.4221 12.672 78.4141 12.664C78.4141 12.656 78.4141 12.648 78.4141 12.64V12.628C78.4061 12.572 78.4021 12.516 78.4021 12.46C78.4101 12.404 78.4141 12.352 78.4141 12.304V11.692C78.4141 11.62 78.4101 11.544 78.4021 11.464C78.3941 11.376 78.3981 11.296 78.4141 11.224C78.4301 11.152 78.4501 11.1 78.4741 11.068C78.4901 11.052 78.4981 11.044 78.4981 11.044C78.5621 10.972 78.6421 10.936 78.7381 10.936H80.0221C79.9821 10.92 79.9421 10.9 79.9021 10.876C79.8621 10.852 79.8261 10.832 79.7941 10.816C79.6901 10.752 79.5861 10.696 79.4821 10.648C79.3781 10.592 79.2861 10.516 79.2061 10.42L79.1341 10.336C79.1261 10.328 79.1181 10.32 79.1101 10.312C79.1101 10.304 79.1061 10.296 79.0981 10.288L79.0621 10.252C79.0381 10.22 79.0141 10.188 78.9901 10.156C78.9661 10.124 78.9381 10.092 78.9061 10.06L78.8341 10L78.7501 10.084C78.7421 10.076 78.7381 10.064 78.7381 10.048C78.7141 10.056 78.6901 10.064 78.6661 10.072C78.6501 10.072 78.6341 10.064 78.6181 10.048C78.6261 10.104 78.6301 10.164 78.6301 10.228C78.6381 10.292 78.6181 10.324 78.5701 10.324C78.5141 10.324 78.4941 10.276 78.5101 10.18C78.5341 10.084 78.5381 10.008 78.5221 9.952C78.5221 9.944 78.5141 9.94 78.4981 9.94C78.4901 9.932 78.4821 9.936 78.4741 9.952C78.4661 10.008 78.4621 10.072 78.4621 10.144C78.4621 10.208 78.4501 10.272 78.4261 10.336C78.4181 10.344 78.4101 10.336 78.4021 10.312C78.3941 10.288 78.3861 10.268 78.3781 10.252L78.3301 10.132C78.3221 10.108 78.3141 10.084 78.3061 10.06C78.2981 10.028 78.2901 9.996 78.2821 9.964C78.2581 9.988 78.2341 10.008 78.2101 10.024C78.1941 10.04 78.1661 10.052 78.1261 10.06C78.1181 10.068 78.0981 10.076 78.0661 10.084C78.0341 10.084 78.0101 10.08 77.9941 10.072C77.9941 10.072 77.9901 10.072 77.9821 10.072C77.9821 10.072 77.9821 10.068 77.9821 10.06C77.9661 10.044 77.9581 10.028 77.9581 10.012C77.9581 9.996 77.9541 9.984 77.9461 9.976C77.9461 9.96 77.9461 9.948 77.9461 9.94C77.9141 9.94 77.8861 9.944 77.8621 9.952C77.8301 10.008 77.8181 10.044 77.8261 10.06C77.8421 10.068 77.8261 10.1 77.7781 10.156C77.7301 10.212 77.6901 10.208 77.6581 10.144C77.6341 10.08 77.6061 10.044 77.5741 10.036C77.5741 10.036 77.5621 10.048 77.5381 10.072L77.5261 10.084L77.4661 10.156C77.4581 10.164 77.4541 10.172 77.4541 10.18C77.4541 10.188 77.4501 10.196 77.4421 10.204C77.3861 10.308 77.3501 10.42 77.3341 10.54C77.3181 10.652 77.3101 10.764 77.3101 10.876C77.3101 10.916 77.3061 10.968 77.2981 11.032C77.2981 11.088 77.2981 11.148 77.2981 11.212V12.22C77.2981 12.3 77.2981 12.376 77.2981 12.448C77.2981 12.512 77.3021 12.568 77.3101 12.616C77.3101 12.672 77.3101 12.728 77.3101 12.784C77.3101 12.832 77.3141 12.884 77.3221 12.94C77.3381 13.02 77.3581 13.104 77.3821 13.192C77.4061 13.272 77.4421 13.348 77.4901 13.42C77.5541 13.524 77.6381 13.604 77.7421 13.66C77.8461 13.716 77.9541 13.752 78.0661 13.768C78.0981 13.768 78.1261 13.772 78.1501 13.78C78.1821 13.78 78.2141 13.78 78.2461 13.78ZM78.7261 16.996C78.7581 17.004 78.7781 17.052 78.7861 17.14C78.7941 17.228 78.7941 17.328 78.7861 17.44C78.7781 17.36 78.7661 17.284 78.7501 17.212C78.7421 17.14 78.7341 17.068 78.7261 16.996ZM78.6181 18.424C78.6341 18.504 78.6341 18.508 78.6181 18.436C78.6021 18.372 78.5821 18.264 78.5581 18.112C78.5421 17.968 78.5301 17.808 78.5221 17.632C78.5221 17.464 78.5421 17.32 78.5821 17.2C78.5741 17.44 78.5701 17.676 78.5701 17.908C78.5701 18.14 78.5861 18.312 78.6181 18.424ZM78.7141 18.328C78.6981 18.4 78.6941 18.392 78.7021 18.304C78.7181 18.216 78.7341 18.088 78.7501 17.92C78.7741 17.752 78.7861 17.592 78.7861 17.44C78.8181 17.616 78.8341 17.784 78.8341 17.944C78.8421 18.112 78.8021 18.24 78.7141 18.328ZM91.0013 15.736C90.9933 15.768 90.9813 15.796 90.9653 15.82C90.9573 15.844 90.9413 15.872 90.9173 15.904C90.9333 15.896 90.9213 15.908 90.8813 15.94C90.8493 15.964 90.8373 15.972 90.8453 15.964C90.8373 15.964 90.8293 15.968 90.8213 15.976C90.8053 16.056 90.7933 16.132 90.7853 16.204C90.7853 16.276 90.7813 16.352 90.7733 16.432C90.7653 16.56 90.7493 16.7 90.7253 16.852C90.7093 17.012 90.6933 17.156 90.6773 17.284C90.6693 17.364 90.6533 17.46 90.6293 17.572C90.6133 17.692 90.5973 17.792 90.5813 17.872C90.5733 17.896 90.5653 17.92 90.5573 17.944C90.5573 17.968 90.5493 17.988 90.5333 18.004C90.5333 18.012 90.5253 18.016 90.5093 18.016C90.5013 18.016 90.4973 18.012 90.4973 18.004C90.4813 17.988 90.4693 17.968 90.4613 17.944C90.4613 17.928 90.4573 17.912 90.4493 17.896C90.4253 17.824 90.4053 17.732 90.3893 17.62C90.3733 17.516 90.3573 17.432 90.3413 17.368C90.3093 17.184 90.2853 16.972 90.2693 16.732C90.2613 16.5 90.2373 16.296 90.1973 16.12C90.1893 16.16 90.1853 16.2 90.1853 16.24C90.1853 16.288 90.1773 16.332 90.1613 16.372C90.1533 16.388 90.1373 16.396 90.1133 16.396C90.0973 16.404 90.0813 16.416 90.0653 16.432C90.0573 16.432 90.0453 16.436 90.0293 16.444C90.0213 16.46 90.0173 16.464 90.0173 16.456C90.0093 16.416 90.0013 16.376 89.9933 16.336C89.9933 16.296 89.9893 16.256 89.9813 16.216C89.9813 16.224 89.9773 16.232 89.9693 16.24C89.9613 16.256 89.9533 16.272 89.9453 16.288C89.9373 16.304 89.9293 16.32 89.9213 16.336C89.9213 16.336 89.9173 16.336 89.9093 16.336C89.9093 16.344 89.9093 16.352 89.9093 16.36C89.9093 16.36 89.8973 16.372 89.8733 16.396C89.8493 16.428 89.8333 16.444 89.8253 16.444C89.8093 16.46 89.7933 16.468 89.7773 16.468C89.7693 16.596 89.7613 16.72 89.7533 16.84C89.7533 16.968 89.7453 17.092 89.7293 17.212C89.7293 17.22 89.7213 17.224 89.7053 17.224C89.6893 17.224 89.6773 17.22 89.6693 17.212C89.6613 17.076 89.6573 16.98 89.6573 16.924C89.6573 16.876 89.6573 16.836 89.6573 16.804C89.6573 16.78 89.6533 16.74 89.6453 16.684C89.6373 16.628 89.6173 16.532 89.5853 16.396C89.5453 16.348 89.5053 16.296 89.4653 16.24C89.4573 16.232 89.4533 16.224 89.4533 16.216C89.4533 16.208 89.4493 16.2 89.4413 16.192L89.3932 16.12C89.3853 16.104 89.3813 16.088 89.3813 16.072C89.3813 16.064 89.3773 16.056 89.3693 16.048C89.3693 16.072 89.3613 16.084 89.3453 16.084C89.3453 16.084 89.3293 16.076 89.2973 16.06C89.2893 16.084 89.2773 16.108 89.2613 16.132C89.2453 16.156 89.2253 16.176 89.2013 16.192C89.1853 16.208 89.1733 16.216 89.1653 16.216C89.1493 16.232 89.1413 16.26 89.1413 16.3C89.1413 16.34 89.1293 16.356 89.1053 16.348C89.0813 16.34 89.0693 16.316 89.0693 16.276C89.0773 16.244 89.0733 16.216 89.0573 16.192L89.0093 16.144L88.9373 16.06C88.9373 16.068 88.9333 16.072 88.9253 16.072C88.9333 16.072 88.9173 16.06 88.8773 16.036C88.8453 16.02 88.8293 16.012 88.8293 16.012C88.8293 16.012 88.8093 16.02 88.7693 16.036C88.7373 16.06 88.7053 16.08 88.6733 16.096C88.6413 16.12 88.6093 16.12 88.5773 16.096C88.5453 16.08 88.5253 16.06 88.5173 16.036C88.5173 16.012 88.5093 15.984 88.4933 15.952C88.4533 15.92 88.4133 15.884 88.3733 15.844C88.3413 15.804 88.3093 15.76 88.2773 15.712C88.2453 15.656 88.2133 15.608 88.1813 15.568L88.1213 15.472C88.1053 15.448 88.0853 15.424 88.0613 15.4C88.0453 15.368 88.0293 15.34 88.0133 15.316C87.9973 15.292 87.9813 15.268 87.9653 15.244C87.9493 15.22 87.9333 15.192 87.9173 15.16L87.8453 15.052C87.7733 14.98 87.7013 14.892 87.6293 14.788C87.5653 14.684 87.4973 14.572 87.4253 14.452C87.3613 14.364 87.2933 14.264 87.2213 14.152C87.1493 14.032 87.0813 13.912 87.0173 13.792L86.5373 13.072C86.4733 12.992 86.4173 12.912 86.3693 12.832C86.3613 12.816 86.3533 12.8 86.3453 12.784C86.3373 12.768 86.3253 12.756 86.3092 12.748C86.2933 12.716 86.2853 12.7 86.2853 12.7C86.2693 12.676 86.2613 12.664 86.2613 12.664C86.2613 12.656 86.2613 12.672 86.2613 12.712V15.436C86.2613 15.484 86.2613 15.536 86.2613 15.592C86.2693 15.64 86.2693 15.688 86.2613 15.736C86.2613 15.72 86.2573 15.728 86.2493 15.76C86.2413 15.784 86.2413 15.792 86.2493 15.784C86.2493 15.792 86.2453 15.8 86.2373 15.808C86.2373 15.816 86.2333 15.82 86.2253 15.82C86.2253 15.82 86.2253 15.824 86.2253 15.832C86.2253 15.84 86.2213 15.844 86.2133 15.844C86.2133 15.844 86.2133 15.848 86.2133 15.856C86.1733 15.904 86.1333 15.94 86.0933 15.964C86.0773 15.98 86.0653 15.996 86.0573 16.012C86.0413 16.028 86.0333 16.044 86.0333 16.06L85.9853 16.144C85.9773 16.168 85.9653 16.188 85.9492 16.204C85.9413 16.228 85.9293 16.252 85.9133 16.276C85.8413 16.436 85.7613 16.596 85.6733 16.756L85.5653 16.996C85.5653 17.004 85.5613 17.008 85.5533 17.008C85.5533 17.008 85.5533 17.012 85.5533 17.02L85.5053 17.092L85.4693 17.128C85.4693 17.128 85.4653 17.128 85.4573 17.128C85.4573 17.128 85.4573 17.132 85.4573 17.14C85.4493 17.14 85.4373 17.148 85.4213 17.164C85.4133 17.316 85.4053 17.468 85.3973 17.62C85.3973 17.772 85.3893 17.928 85.3733 18.088C85.3653 18.112 85.3533 18.1 85.3373 18.052C85.3293 18.012 85.3253 17.98 85.3253 17.956C85.3093 17.82 85.3013 17.68 85.3013 17.536C85.3013 17.4 85.2933 17.264 85.2773 17.128C85.2613 17.12 85.2453 17.1 85.2293 17.068C85.2213 17.068 85.2133 17.064 85.2053 17.056L85.1213 16.912C85.1133 16.888 85.1013 16.864 85.0853 16.84C85.0773 16.816 85.0693 16.788 85.0613 16.756C85.0533 16.732 85.0453 16.708 85.0373 16.684C85.0293 16.66 85.0173 16.632 85.0013 16.6L84.8933 16.276C84.8853 16.26 84.8773 16.24 84.8693 16.216C84.8693 16.192 84.8653 16.172 84.8573 16.156C84.8413 16.236 84.8333 16.316 84.8333 16.396C84.8333 16.476 84.8253 16.56 84.8093 16.648C84.8013 16.656 84.7933 16.648 84.7853 16.624C84.7773 16.608 84.7693 16.596 84.7613 16.588C84.7453 16.572 84.7293 16.548 84.7133 16.516C84.6813 16.46 84.6493 16.404 84.6173 16.348C84.5933 16.292 84.5613 16.244 84.5213 16.204C84.5053 16.188 84.4933 16.18 84.4853 16.18C84.4773 16.204 84.4573 16.232 84.4253 16.264C84.4093 16.28 84.3853 16.292 84.3533 16.3C84.3293 16.316 84.3053 16.332 84.2812 16.348C84.2573 16.372 84.2373 16.396 84.2213 16.42C84.2053 16.452 84.1813 16.476 84.1493 16.492C84.1173 16.516 84.0813 16.52 84.0413 16.504C84.0093 16.472 83.9933 16.464 83.9933 16.48C83.9853 16.568 83.9933 16.708 84.0173 16.9C84.0413 17.092 84.0613 17.284 84.0773 17.476C84.1013 17.668 84.1053 17.812 84.0893 17.908C84.0813 18.012 84.0333 18.02 83.9453 17.932C83.8333 17.812 83.7773 17.652 83.7773 17.452C83.7853 17.252 83.8093 17.052 83.8493 16.852C83.8973 16.652 83.9173 16.492 83.9093 16.372L83.8613 16.3C83.8533 16.284 83.8413 16.26 83.8253 16.228C83.8173 16.204 83.8133 16.2 83.8133 16.216C83.7973 16.296 83.7933 16.376 83.8013 16.456C83.8173 16.536 83.8053 16.608 83.7653 16.672C83.7413 16.704 83.7293 16.696 83.7293 16.648C83.7293 16.608 83.7333 16.552 83.7413 16.48C83.7493 16.416 83.7493 16.364 83.7413 16.324L83.6573 15.988C83.6253 15.972 83.5973 15.956 83.5732 15.94C83.4853 15.876 83.4413 15.788 83.4413 15.676V7.924C83.4413 7.892 83.4493 7.852 83.4653 7.804C83.4893 7.732 83.5253 7.684 83.5732 7.66C83.5893 7.644 83.6213 7.628 83.6693 7.612C83.6933 7.604 83.7293 7.6 83.7773 7.6H85.6613C85.7653 7.6 85.8493 7.616 85.9133 7.648C85.9773 7.68 86.0253 7.716 86.0573 7.756C86.1213 7.812 86.1733 7.88 86.2133 7.96C86.2613 8.04 86.3053 8.116 86.3453 8.188L86.3813 8.248L86.4293 8.32C86.5173 8.408 86.5973 8.52 86.6693 8.656C86.7413 8.792 86.8133 8.928 86.8853 9.064L86.9093 9.124L87.3293 9.808C87.3373 9.808 87.3413 9.812 87.3413 9.82C87.4533 9.988 87.5613 10.164 87.6653 10.348C87.7773 10.524 87.8853 10.7 87.9893 10.876L88.1333 11.116L88.1453 11.128L88.1813 11.104V8.248C88.1813 8.192 88.1773 8.132 88.1693 8.068C88.1693 8.004 88.1733 7.944 88.1813 7.888C88.1813 7.848 88.1893 7.816 88.2053 7.792C88.2213 7.76 88.2333 7.74 88.2413 7.732C88.2493 7.708 88.2653 7.692 88.2893 7.684C88.2893 7.684 88.2973 7.676 88.3133 7.66C88.3693 7.62 88.4253 7.6 88.4813 7.6C88.5133 7.592 88.5453 7.588 88.5773 7.588C88.6093 7.588 88.6373 7.588 88.6613 7.588C88.7013 7.596 88.7373 7.6 88.7693 7.6C88.8093 7.6 88.8453 7.6 88.8773 7.6H90.5333C90.5733 7.6 90.6133 7.6 90.6533 7.6C90.7013 7.592 90.7453 7.596 90.7853 7.612C90.8413 7.636 90.8893 7.668 90.9293 7.708C90.9533 7.74 90.9693 7.772 90.9773 7.804C90.9933 7.852 91.0013 7.892 91.0013 7.924C91.0093 7.98 91.0093 8.04 91.0013 8.104C91.0013 8.168 91.0013 8.224 91.0013 8.272V15.268C91.0093 15.348 91.0133 15.428 91.0133 15.508C91.0213 15.588 91.0173 15.664 91.0013 15.736Z" fill="white"/>
</g>
<defs>
<filter id="filter0_d_198_35" x="0.900024" y="0.899902" width="108.2" height="30.1934" filterUnits="userSpaceOnUse" color-interpolation-filters="sRGB">
<feFlood flood-opacity="0" result="BackgroundImageFix"/>
<feColorMatrix in="SourceAlpha" type="matrix" values="0 0 0 0 0 0 0 0 0 0 0 0 0 0 0 0 0 0 127 0" result="hardAlpha"/>
<feOffset dy="4"/>
<feGaussianBlur stdDeviation="2"/>
<feComposite in2="hardAlpha" operator="out"/>
<feColorMatrix type="matrix" values="0 0 0 0 0 0 0 0 0 0 0 0 0 0 0 0 0 0 0.25 0"/>
<feBlend mode="normal" in2="BackgroundImageFix" result="effect1_dropShadow_198_35"/>
<feBlend mode="normal" in="SourceGraphic" in2="effect1_dropShadow_198_35" result="shape"/>
</filter>
<linearGradient id="paint0_linear_198_35" x1="56.1365" y1="1" x2="56.1365" y2="21.7676" gradientUnits="userSpaceOnUse">
<stop stop-color="#D9F049"/>
<stop offset="0.416667" stop-color="#D7F67F" stop-opacity="0.583333"/>
<stop offset="1" stop-color="#7EFF7B"/>
</linearGradient>
</defs>
</svg>
