<svg width="170" height="40" viewBox="0 0 170 40" fill="none" xmlns="http://www.w3.org/2000/svg">
<rect width="170" height="40" fill="black"/>
<path d="M12.8691 16.1504L11.1895 12.4883H17.1367L24.2461 27.0098H17.8691L16.7949 24.6855H11.0723L10.0078 27.0098H7.53711L12.8691 16.1504ZM15.7695 22.4492L13.9336 18.4648L12.1074 22.4492H15.7695ZM26.2383 12.4883H29.7734L38.9824 20.2227L38.9922 12.4883H41.1406V27H37.6055L28.3867 19.2949V27H26.2383V12.4883ZM47.4004 14.7148H43.2598V12.4785H57.1855V14.7148H53.0449V27H47.4004V14.7148ZM59.0117 20.3398H65.7207V22.1758H59.0117V20.3398ZM69.1484 12.4883H75.1152C76.7949 12.4883 78.25 12.6478 79.4805 12.9668C80.7109 13.2793 81.7298 13.7415 82.5371 14.3535C83.3444 14.9655 83.9434 15.7174 84.334 16.6094C84.7246 17.5013 84.9199 18.5234 84.9199 19.6758C84.9199 20.7044 84.7246 21.6647 84.334 22.5566C83.9434 23.4421 83.3444 24.2168 82.5371 24.8809C81.7298 25.5384 80.7109 26.056 79.4805 26.4336C78.25 26.8112 76.7949 27 75.1152 27H69.1484V12.4883ZM74.793 24.8711C75.444 24.8711 76.0299 24.7702 76.5508 24.5684C77.0716 24.3665 77.5111 24.054 77.8691 23.6309C78.2337 23.2077 78.5104 22.6706 78.6992 22.0195C78.8945 21.362 78.9922 20.5775 78.9922 19.666C78.9922 18.7611 78.8945 17.9896 78.6992 17.3516C78.5039 16.7135 78.224 16.1927 77.8594 15.7891C77.4948 15.3789 77.0521 15.0827 76.5312 14.9004C76.0169 14.7116 75.4408 14.6172 74.8027 14.6172L74.793 24.8711ZM87.7812 12.4883H100.047V14.7246H93.4355L93.4258 18.6406H98.4844V20.877H93.4258V24.7637H100.047V27H87.7812V12.4883ZM103.152 23.7773C103.842 24.1289 104.565 24.3926 105.32 24.5684C106.076 24.7441 106.779 24.832 107.43 24.832C108.178 24.832 108.725 24.7246 109.07 24.5098C109.422 24.2949 109.598 24.002 109.598 23.6309C109.598 23.5137 109.575 23.3932 109.529 23.2695C109.49 23.1458 109.409 23.0254 109.285 22.9082C109.168 22.7845 109.002 22.6641 108.787 22.5469C108.579 22.4232 108.305 22.3027 107.967 22.1855L106.219 21.5898C104.969 21.1602 104.028 20.5807 103.396 19.8516C102.765 19.1159 102.449 18.2435 102.449 17.2344C102.449 16.5833 102.586 15.9583 102.859 15.3594C103.133 14.7539 103.546 14.2233 104.1 13.7676C104.653 13.3053 105.35 12.9375 106.189 12.6641C107.036 12.3906 108.025 12.2539 109.158 12.2539C109.718 12.2539 110.255 12.2865 110.77 12.3516C111.284 12.4167 111.766 12.5013 112.215 12.6055C112.671 12.7096 113.087 12.8301 113.465 12.9668C113.842 13.097 114.174 13.2272 114.461 13.3574L113.406 15.2617C113.198 15.1315 112.977 15.0176 112.742 14.9199C112.514 14.8223 112.283 14.7409 112.049 14.6758C111.821 14.6107 111.596 14.5618 111.375 14.5293C111.154 14.4967 110.952 14.4805 110.77 14.4805C110.457 14.4805 110.184 14.5228 109.949 14.6074C109.715 14.6855 109.516 14.793 109.354 14.9297C109.197 15.0599 109.077 15.2096 108.992 15.3789C108.914 15.5417 108.875 15.7044 108.875 15.8672C108.875 16.0104 108.908 16.1504 108.973 16.2871C109.044 16.4173 109.161 16.5475 109.324 16.6777C109.493 16.8014 109.712 16.9284 109.979 17.0586C110.252 17.1823 110.59 17.3125 110.994 17.4492L112.166 17.8398C113.436 18.263 114.406 18.8457 115.076 19.5879C115.747 20.3301 116.082 21.2285 116.082 22.2832C116.082 22.9993 115.919 23.6602 115.594 24.2656C115.275 24.8711 114.796 25.3952 114.158 25.8379C113.52 26.2741 112.726 26.6159 111.775 26.8633C110.831 27.1042 109.734 27.2246 108.484 27.2246C107.885 27.2246 107.306 27.1921 106.746 27.127C106.193 27.0684 105.649 26.9772 105.115 26.8535C104.588 26.7298 104.067 26.5736 103.553 26.3848C103.038 26.196 102.524 25.9746 102.01 25.7207L103.152 23.7773ZM118.797 12.4883H124.451L124.441 27H118.797V12.4883ZM127.322 19.7539C127.322 19.0638 127.41 18.3997 127.586 17.7617C127.768 17.1172 128.032 16.5182 128.377 15.9648C128.722 15.4115 129.145 14.9069 129.646 14.4512C130.148 13.9954 130.717 13.6048 131.355 13.2793C132 12.9538 132.71 12.7031 133.484 12.5273C134.259 12.3451 135.092 12.2539 135.984 12.2539C136.557 12.2539 137.104 12.2897 137.625 12.3613C138.152 12.4329 138.647 12.5339 139.109 12.6641C139.572 12.7878 139.998 12.9342 140.389 13.1035C140.786 13.2663 141.144 13.4388 141.463 13.6211L140.623 15.2617C140.258 15.0859 139.842 14.9395 139.373 14.8223C138.911 14.6986 138.429 14.6367 137.928 14.6367C137.257 14.6367 136.635 14.7572 136.062 14.998C135.49 15.2389 134.995 15.5807 134.578 16.0234C134.161 16.4661 133.833 17.0033 133.592 17.6348C133.357 18.2598 133.24 18.9629 133.24 19.7441C133.24 20.5189 133.357 21.222 133.592 21.8535C133.826 22.4785 134.148 23.0156 134.559 23.4648C134.975 23.9076 135.467 24.2526 136.033 24.5C136.606 24.7409 137.225 24.8613 137.889 24.8613V19.9492H143.582L142.566 21.7949V25.7402L142.576 25.7598C142.257 25.9486 141.863 26.1309 141.395 26.3066C140.926 26.4824 140.402 26.6419 139.822 26.7852C139.249 26.9219 138.637 27.0326 137.986 27.1172C137.335 27.2018 136.668 27.2441 135.984 27.2441C134.65 27.2441 133.445 27.0488 132.371 26.6582C131.303 26.2611 130.395 25.724 129.646 25.0469C128.898 24.3633 128.322 23.569 127.918 22.6641C127.521 21.7526 127.322 20.7826 127.322 19.7539ZM145.77 12.4883H149.305L158.514 20.2227L158.523 12.4883H160.672V27H157.137L147.918 19.2949V27H145.77V12.4883Z" fill="white"/>
</svg>
