<svg width="110" height="32" viewBox="0 0 110 32" fill="none" xmlns="http://www.w3.org/2000/svg">
<g filter="url(#filter0_d_193_26)">
<path d="M5.00601 1.86583L4.98731 1.96383L9.15792 3.05825H5L4.99138 3.15751L11.2422 4.25104H5H4.95V4.30104V21V21.0342L4.98186 21.0466L10.1183 23.0466L10.1634 22.9578L7.38661 21.1872L10.5829 22.2975L10.6301 22.2109L9.20963 21.1004L11.1251 21.5487L11.3082 21.5915L11.1705 21.4634L10.7264 21.05H62.9545L62.9642 20.9509L53.8733 19.1618L53.856 19.1584L53.8404 19.1665L51.8366 20.2182L52.7635 19.2453L52.8298 19.1756L52.7347 19.1614L46.2121 18.1833L56.1324 18.9767L56.1492 18.8785L51.0669 17.5322L60.604 18.4706L62.944 18.9757L62.944 18.9758L62.947 18.9763L76.5834 21.0494L76.5833 21.05H76.5909H103.864L103.887 20.9557L98.4549 18.1049L104.993 18.9764L105.02 18.8811L101.828 17.4716H105H105.05V17.4216V2V1.93117L104.985 1.95245L101.858 2.9689L104.406 1.03987L104.525 0.95H104.376H5L4.991 1.04918L18.1397 3.45642L5.00601 1.86583Z" fill="black" stroke="url(#paint0_linear_193_26)" stroke-width="0.1"/>
<path d="M22.472 13.54C22.472 13.7 22.448 13.884 22.4 14.092C22.28 14.58 22.04 14.98 21.68 15.292C21.672 15.3 21.664 15.308 21.656 15.316C21.648 15.324 21.64 15.332 21.632 15.34C21.632 15.436 21.644 15.544 21.668 15.664C21.692 15.776 21.704 15.884 21.704 15.988C21.712 16.092 21.676 16.176 21.596 16.24C21.532 16.296 21.496 16.28 21.488 16.192C21.488 16.104 21.5 15.988 21.524 15.844C21.548 15.7 21.56 15.576 21.56 15.472C21.496 15.616 21.416 15.744 21.32 15.856C21.312 15.864 21.3 15.876 21.284 15.892C21.268 15.908 21.252 15.924 21.236 15.94C21.212 15.964 21.2 15.976 21.2 15.976C21.192 15.944 21.184 15.916 21.176 15.892C21.176 15.86 21.176 15.828 21.176 15.796C21.112 15.876 21.048 15.956 20.984 16.036C20.928 16.124 20.868 16.212 20.804 16.3C20.7 16.46 20.608 16.624 20.528 16.792C20.448 16.968 20.348 17.132 20.228 17.284C20.172 17.348 20.112 17.412 20.048 17.476C19.992 17.548 19.936 17.616 19.88 17.68C19.856 17.712 19.828 17.744 19.796 17.776C19.772 17.808 19.744 17.832 19.712 17.848C19.696 17.888 19.68 17.956 19.664 18.052C19.648 18.156 19.628 18.232 19.604 18.28C19.604 18.288 19.596 18.296 19.58 18.304C19.572 18.32 19.564 18.324 19.556 18.316C19.54 18.292 19.528 18.264 19.52 18.232C19.52 18.2 19.516 18.168 19.508 18.136C19.5 18.08 19.496 18.024 19.496 17.968C19.496 17.92 19.488 17.868 19.472 17.812C19.464 17.804 19.444 17.788 19.412 17.764C19.388 17.74 19.372 17.72 19.364 17.704C19.356 17.696 19.352 17.688 19.352 17.68C19.352 17.68 19.348 17.676 19.34 17.668L19.28 17.572C19.264 17.548 19.248 17.52 19.232 17.488C19.216 17.464 19.2 17.44 19.184 17.416C19.184 17.416 19.176 17.408 19.16 17.392C19.144 17.384 19.12 17.368 19.088 17.344C19.056 17.312 19.028 17.272 19.004 17.224C18.988 17.184 18.968 17.148 18.944 17.116C18.88 17.02 18.82 16.92 18.764 16.816C18.708 16.72 18.656 16.62 18.608 16.516C18.592 16.468 18.576 16.432 18.56 16.408C18.552 16.368 18.536 16.332 18.512 16.3C18.496 16.268 18.48 16.232 18.464 16.192L18.416 16.216C18.408 16.376 18.4 16.536 18.392 16.696C18.392 16.864 18.384 17.028 18.368 17.188C18.368 17.212 18.36 17.24 18.344 17.272C18.336 17.312 18.328 17.324 18.32 17.308C18.304 17.132 18.296 16.96 18.296 16.792C18.296 16.624 18.288 16.456 18.272 16.288C18.272 16.272 18.268 16.268 18.26 16.276C18.252 16.292 18.24 16.3 18.224 16.3C18.208 16.316 18.192 16.324 18.176 16.324L18.104 16.42L17.996 16.6C17.948 16.688 17.908 16.78 17.876 16.876C17.844 16.972 17.808 17.064 17.768 17.152L17.732 17.236C17.732 17.244 17.728 17.248 17.72 17.248C17.72 17.256 17.72 17.264 17.72 17.272C17.704 17.296 17.688 17.32 17.672 17.344C17.656 17.368 17.636 17.388 17.612 17.404C17.596 17.42 17.58 17.428 17.564 17.428C17.54 17.524 17.524 17.62 17.516 17.716C17.508 17.812 17.492 17.904 17.468 17.992C17.46 18.008 17.452 18.028 17.444 18.052C17.444 18.084 17.436 18.1 17.42 18.1C17.404 18.1 17.392 18.084 17.384 18.052C17.384 18.028 17.38 18.008 17.372 17.992C17.348 17.904 17.332 17.816 17.324 17.728C17.324 17.64 17.308 17.552 17.276 17.464C17.252 17.488 17.228 17.512 17.204 17.536C17.18 17.56 17.156 17.58 17.132 17.596C17.124 17.62 17.112 17.656 17.096 17.704C17.088 17.752 17.064 17.748 17.024 17.692C17.016 17.676 17.008 17.656 17 17.632C17 17.616 16.996 17.6 16.988 17.584C16.972 17.568 16.956 17.548 16.94 17.524C16.932 17.5 16.92 17.48 16.904 17.464C16.904 17.456 16.9 17.452 16.892 17.452C16.892 17.452 16.892 17.448 16.892 17.44C16.836 17.344 16.784 17.244 16.736 17.14C16.696 17.044 16.636 16.956 16.556 16.876C16.548 16.86 16.54 16.848 16.532 16.84C16.524 16.832 16.516 16.824 16.508 16.816L16.424 16.744C16.408 16.728 16.388 16.712 16.364 16.696C16.348 16.68 16.332 16.664 16.316 16.648C16.284 16.608 16.248 16.564 16.208 16.516C16.168 16.476 16.124 16.44 16.076 16.408C16.028 16.392 16.008 16.388 16.016 16.396C16.032 16.404 16.044 16.412 16.052 16.42C16.068 16.428 16.048 16.42 15.992 16.396C15.96 16.38 15.932 16.356 15.908 16.324C15.892 16.3 15.864 16.284 15.824 16.276C15.768 16.268 15.716 16.272 15.668 16.288C15.62 16.304 15.568 16.32 15.512 16.336C15.448 16.352 15.4 16.356 15.368 16.348C15.336 16.348 15.32 16.344 15.32 16.336C15.304 16.512 15.296 16.728 15.296 16.984C15.296 17.24 15.288 17.46 15.272 17.644C15.272 17.66 15.264 17.652 15.248 17.62C15.24 17.588 15.232 17.568 15.224 17.56C15.2 17.496 15.176 17.432 15.152 17.368C15.136 17.312 15.12 17.256 15.104 17.2C15.096 17.032 15.092 16.864 15.092 16.696C15.1 16.528 15.084 16.36 15.044 16.192C15.036 16.144 15.032 16.152 15.032 16.216C15.04 16.28 15.04 16.352 15.032 16.432C15.032 16.52 15.016 16.584 14.984 16.624C14.952 16.664 14.94 16.636 14.948 16.54C14.956 16.444 14.96 16.368 14.96 16.312L14.876 15.988C14.844 15.972 14.816 15.956 14.792 15.94C14.704 15.876 14.66 15.788 14.66 15.676V8.26C14.66 8.204 14.656 8.148 14.648 8.092C14.648 8.036 14.652 7.98 14.66 7.924C14.66 7.868 14.668 7.824 14.684 7.792C14.7 7.76 14.724 7.724 14.756 7.684C14.828 7.628 14.904 7.6 14.984 7.6H16.436C16.516 7.6 16.66 7.6 16.868 7.6C17.076 7.6 17.312 7.6 17.576 7.6C17.84 7.6 18.096 7.6 18.344 7.6C18.592 7.6 18.8 7.6 18.968 7.6C19.08 7.6 19.188 7.604 19.292 7.612C19.396 7.612 19.496 7.616 19.592 7.624C19.624 7.624 19.652 7.628 19.676 7.636C19.708 7.636 19.74 7.636 19.772 7.636C19.852 7.644 19.928 7.652 20 7.66C20.072 7.66 20.144 7.668 20.216 7.684C20.256 7.692 20.292 7.7 20.324 7.708C20.364 7.716 20.4 7.724 20.432 7.732C20.448 7.732 20.46 7.736 20.468 7.744C20.508 7.752 20.54 7.76 20.564 7.768C20.588 7.776 20.612 7.788 20.636 7.804C20.66 7.812 20.68 7.82 20.696 7.828C20.72 7.836 20.744 7.844 20.768 7.852C21.064 7.956 21.324 8.1 21.548 8.284C21.572 8.3 21.596 8.32 21.62 8.344C21.644 8.36 21.664 8.376 21.68 8.392C21.72 8.432 21.752 8.468 21.776 8.5C21.824 8.548 21.876 8.62 21.932 8.716C21.98 8.772 22.02 8.836 22.052 8.908C22.084 8.972 22.112 9.04 22.136 9.112C22.208 9.328 22.256 9.568 22.28 9.832C22.296 9.992 22.296 10.152 22.28 10.312C22.272 10.464 22.24 10.588 22.184 10.684C22.176 10.708 22.168 10.732 22.16 10.756C22.152 10.772 22.14 10.792 22.124 10.816C22.1 10.872 22.072 10.924 22.04 10.972C22.008 11.02 21.972 11.068 21.932 11.116C21.916 11.132 21.9 11.152 21.884 11.176C21.868 11.2 21.852 11.22 21.836 11.236L21.728 11.344C21.704 11.36 21.668 11.392 21.62 11.44C21.612 11.496 21.608 11.552 21.608 11.608C21.608 11.656 21.604 11.708 21.596 11.764C21.644 11.788 21.688 11.82 21.728 11.86C21.776 11.892 21.808 11.916 21.824 11.932L22.004 12.112C22.068 12.176 22.136 12.272 22.208 12.4C22.384 12.704 22.472 13.024 22.472 13.36V13.54ZM17.756 9.676L17.66 9.664V10.756H18.68C18.72 10.756 18.756 10.752 18.788 10.744C18.876 10.712 18.952 10.652 19.016 10.564C19.08 10.468 19.12 10.368 19.136 10.264C19.144 10.2 19.144 10.136 19.136 10.072C19.128 10.008 19.108 9.948 19.076 9.892C19.052 9.844 19.012 9.8 18.956 9.76C18.956 9.752 18.952 9.748 18.944 9.748C18.888 9.708 18.828 9.692 18.764 9.7C18.7 9.7 18.636 9.704 18.572 9.712C18.492 9.72 18.412 9.724 18.332 9.724C18.252 9.724 18.172 9.72 18.092 9.712C18.036 9.712 17.98 9.708 17.924 9.7C17.868 9.692 17.812 9.684 17.756 9.676ZM17.66 13.936H18.764C18.804 13.936 18.856 13.928 18.92 13.912C19.072 13.872 19.18 13.76 19.244 13.576C19.316 13.384 19.32 13.212 19.256 13.06L19.232 13C19.216 12.976 19.192 12.948 19.16 12.916C19.08 12.836 18.976 12.808 18.848 12.832C18.72 12.848 18.604 12.86 18.5 12.868C18.42 12.876 18.34 12.876 18.26 12.868C18.188 12.852 18.112 12.84 18.032 12.832C17.984 12.816 17.936 12.808 17.888 12.808C17.84 12.8 17.796 12.792 17.756 12.784L17.66 12.856V13.936ZM30.9005 14.368C30.8605 14.464 30.8205 14.532 30.7805 14.572L30.6365 14.788C30.5645 14.884 30.4845 14.976 30.3965 15.064L30.1805 15.256C30.1725 15.4 30.1645 15.544 30.1565 15.688C30.1565 15.832 30.1525 15.98 30.1445 16.132C30.1365 16.204 30.1365 16.276 30.1445 16.348C30.1525 16.428 30.1365 16.5 30.0965 16.564C30.0645 16.604 30.0485 16.576 30.0485 16.48C30.0565 16.384 30.0605 16.308 30.0605 16.252C30.0525 16.116 30.0445 15.976 30.0365 15.832C30.0365 15.68 30.0285 15.536 30.0125 15.4C29.9565 15.464 29.9085 15.544 29.8685 15.64C29.8285 15.736 29.7965 15.824 29.7725 15.904C29.7245 16.04 29.6765 16.18 29.6285 16.324C29.5805 16.468 29.5285 16.608 29.4725 16.744C29.4485 16.808 29.4245 16.872 29.4005 16.936C29.3765 17.008 29.3445 17.072 29.3045 17.128C29.2965 17.136 29.2805 17.148 29.2565 17.164C29.2405 17.18 29.2245 17.192 29.2085 17.2C29.1525 17.208 29.1045 17.172 29.0645 17.092C29.0245 17.02 28.9965 16.968 28.9805 16.936C28.9725 16.92 28.9605 16.904 28.9445 16.888C28.9365 16.872 28.9325 16.856 28.9325 16.84C28.9245 16.72 28.9165 16.596 28.9085 16.468C28.9085 16.348 28.9005 16.224 28.8845 16.096C28.8525 16.144 28.8165 16.192 28.7765 16.24C28.7445 16.288 28.7085 16.336 28.6685 16.384C28.6525 16.4 28.6445 16.408 28.6445 16.408C28.6365 16.424 28.6245 16.436 28.6085 16.444C28.5925 16.46 28.5765 16.476 28.5605 16.492C28.5525 16.508 28.5365 16.536 28.5125 16.576C28.4965 16.624 28.4805 16.656 28.4645 16.672C28.4485 16.688 28.4325 16.688 28.4165 16.672C28.3925 16.656 28.3725 16.62 28.3565 16.564C28.3485 16.516 28.3365 16.48 28.3205 16.456C28.2885 16.432 28.2605 16.4 28.2365 16.36C28.2125 16.32 28.1925 16.284 28.1765 16.252C28.1605 16.228 28.1445 16.2 28.1285 16.168C28.1205 16.208 28.1125 16.252 28.1045 16.3C28.1045 16.356 28.0965 16.404 28.0805 16.444C28.0805 16.444 28.0645 16.444 28.0325 16.444C28.0085 16.444 27.9845 16.44 27.9605 16.432C27.9365 16.432 27.9125 16.432 27.8885 16.432C27.8325 16.424 27.7925 16.416 27.7685 16.408H27.6965C27.6565 16.432 27.5925 16.432 27.5045 16.408C27.4965 16.4 27.4845 16.392 27.4685 16.384C27.4605 16.376 27.4565 16.376 27.4565 16.384C27.4405 16.528 27.4325 16.668 27.4325 16.804C27.4325 16.948 27.4245 17.088 27.4085 17.224C27.4005 17.256 27.3925 17.24 27.3845 17.176C27.3765 17.12 27.3685 17.076 27.3605 17.044C27.3525 16.916 27.3485 16.788 27.3485 16.66C27.3565 16.532 27.3445 16.404 27.3125 16.276C27.3045 16.228 27.2965 16.232 27.2885 16.288C27.2885 16.344 27.2885 16.412 27.2885 16.492C27.2885 16.572 27.2805 16.632 27.2645 16.672C27.2565 16.704 27.2485 16.688 27.2405 16.624C27.2405 16.568 27.2365 16.524 27.2285 16.492L27.1565 16.12H27.1445C26.3525 16.104 25.6645 15.964 25.0805 15.7C24.4965 15.436 24.0445 15.048 23.7245 14.536C23.6685 14.472 23.6205 14.396 23.5805 14.308C23.5485 14.22 23.5205 14.136 23.4965 14.056L23.4245 13.888V13.876C23.4085 13.828 23.3925 13.78 23.3765 13.732C23.3605 13.684 23.3445 13.636 23.3285 13.588C23.2965 13.468 23.2725 13.312 23.2565 13.12C23.2405 12.928 23.2325 12.74 23.2325 12.556C23.2325 12.364 23.2325 12.208 23.2325 12.088C23.2325 11.928 23.2325 11.768 23.2325 11.608C23.2325 11.44 23.2365 11.28 23.2445 11.128V11.032C23.2445 10.92 23.2445 10.804 23.2445 10.684C23.2525 10.564 23.2685 10.448 23.2925 10.336C23.2925 10.32 23.2925 10.308 23.2925 10.3C23.3005 10.292 23.3045 10.284 23.3045 10.276C23.3765 9.836 23.5205 9.444 23.7365 9.1C23.8085 8.956 23.9045 8.824 24.0245 8.704C24.7445 7.888 25.8245 7.48 27.2645 7.48H27.5165C27.5325 7.48 27.5445 7.484 27.5525 7.492C27.5925 7.492 27.6285 7.492 27.6605 7.492C27.7005 7.492 27.7365 7.496 27.7685 7.504C27.7925 7.496 27.8125 7.496 27.8285 7.504C27.8525 7.504 27.8765 7.504 27.9005 7.504L28.1045 7.54C28.1845 7.548 28.2605 7.56 28.3325 7.576C28.4125 7.592 28.4925 7.608 28.5725 7.624C28.6605 7.632 28.7605 7.656 28.8725 7.696C28.8805 7.696 28.8845 7.7 28.8845 7.708C28.8925 7.708 28.9005 7.708 28.9085 7.708C28.9725 7.716 29.0325 7.732 29.0885 7.756C29.1525 7.772 29.2045 7.796 29.2445 7.828C29.7565 8.036 30.1965 8.348 30.5645 8.764C30.6765 8.876 30.7765 9.028 30.8645 9.22C31.0085 9.492 31.1165 9.776 31.1885 10.072C31.2125 10.128 31.2245 10.196 31.2245 10.276L31.2605 10.504C31.2685 10.592 31.2725 10.68 31.2725 10.768C31.2805 10.856 31.2845 10.944 31.2845 11.032C31.2925 11.152 31.2965 11.3 31.2965 11.476C31.2965 11.652 31.2965 11.828 31.2965 12.004C31.2965 12.18 31.2965 12.328 31.2965 12.448C31.2885 12.6 31.2845 12.756 31.2845 12.916C31.2845 13.068 31.2645 13.216 31.2245 13.36C31.1685 13.728 31.0605 14.064 30.9005 14.368ZM26.7605 13.564C26.8085 13.628 26.8605 13.684 26.9165 13.732C26.9965 13.748 27.0925 13.764 27.2045 13.78H27.3485C27.3725 13.772 27.3965 13.768 27.4205 13.768C27.4525 13.768 27.4805 13.764 27.5045 13.756C27.6565 13.716 27.7805 13.644 27.8765 13.54C27.9165 13.5 27.9525 13.452 27.9845 13.396C28.0165 13.34 28.0405 13.284 28.0565 13.228L28.0925 13.096C28.1245 12.96 28.1405 12.828 28.1405 12.7C28.1485 12.564 28.1565 12.448 28.1645 12.352V11.524C28.1645 11.428 28.1645 11.332 28.1645 11.236C28.1645 11.132 28.1605 11.032 28.1525 10.936C28.1525 10.88 28.1525 10.828 28.1525 10.78C28.1525 10.724 28.1485 10.672 28.1405 10.624C28.1325 10.608 28.1285 10.592 28.1285 10.576C28.1285 10.552 28.1245 10.536 28.1165 10.528C28.1165 10.504 28.1085 10.468 28.0925 10.42C28.0685 10.324 28.0325 10.244 27.9845 10.18C27.9365 10.108 27.8805 10.044 27.8165 9.988L27.8045 9.976C27.7725 9.96 27.7525 9.952 27.7445 9.952C27.7285 9.944 27.7005 9.94 27.6605 9.94C27.6525 9.94 27.6445 9.944 27.6365 9.952C27.6285 9.96 27.6125 9.968 27.5885 9.976C27.5805 9.976 27.5725 9.976 27.5645 9.976C27.5645 9.968 27.5565 9.964 27.5405 9.964C27.5085 9.972 27.4725 9.992 27.4325 10.024C27.3925 10.056 27.3605 10.084 27.3365 10.108C27.3205 10.116 27.2965 10.128 27.2645 10.144C27.2325 10.16 27.2125 10.176 27.2045 10.192C27.1725 10.232 27.1565 10.268 27.1565 10.3C27.1565 10.332 27.1245 10.344 27.0605 10.336C27.0045 10.336 26.9805 10.328 26.9885 10.312C27.0045 10.296 26.9925 10.26 26.9525 10.204C26.9445 10.188 26.9325 10.176 26.9165 10.168C26.9005 10.16 26.8845 10.152 26.8685 10.144C26.8765 10.144 26.8645 10.136 26.8325 10.12C26.8085 10.096 26.7925 10.08 26.7845 10.072C26.7845 10.072 26.7805 10.072 26.7725 10.072C26.7725 10.064 26.7565 10.044 26.7245 10.012C26.7085 9.988 26.7045 9.984 26.7125 10C26.7285 10.008 26.7245 10.008 26.7005 10C26.7005 10 26.6965 10 26.6885 10C26.6885 10 26.6885 10.004 26.6885 10.012C26.6725 10.028 26.6525 10.048 26.6285 10.072C26.6045 10.088 26.5725 10.128 26.5325 10.192C26.4765 10.296 26.4405 10.4 26.4245 10.504C26.4085 10.6 26.3925 10.696 26.3765 10.792C26.3765 10.832 26.3725 10.888 26.3645 10.96C26.3645 11.032 26.3645 11.1 26.3645 11.164V12.088C26.3645 12.152 26.3645 12.216 26.3645 12.28C26.3725 12.336 26.3805 12.396 26.3885 12.46C26.4125 12.628 26.4565 12.824 26.5205 13.048L26.5565 13.144C26.5885 13.224 26.6205 13.3 26.6525 13.372C26.6845 13.436 26.7205 13.5 26.7605 13.564ZM39.8068 14.368C39.7668 14.464 39.7268 14.532 39.6868 14.572L39.5428 14.788C39.4708 14.884 39.3908 14.976 39.3028 15.064L39.0868 15.256C39.0788 15.4 39.0708 15.544 39.0628 15.688C39.0628 15.832 39.0588 15.98 39.0508 16.132C39.0428 16.204 39.0428 16.276 39.0508 16.348C39.0588 16.428 39.0428 16.5 39.0028 16.564C38.9708 16.604 38.9548 16.576 38.9548 16.48C38.9628 16.384 38.9668 16.308 38.9668 16.252C38.9588 16.116 38.9508 15.976 38.9428 15.832C38.9428 15.68 38.9348 15.536 38.9188 15.4C38.8628 15.464 38.8148 15.544 38.7747 15.64C38.7348 15.736 38.7028 15.824 38.6788 15.904C38.6308 16.04 38.5828 16.18 38.5348 16.324C38.4868 16.468 38.4348 16.608 38.3788 16.744C38.3548 16.808 38.3308 16.872 38.3068 16.936C38.2828 17.008 38.2508 17.072 38.2108 17.128C38.2028 17.136 38.1868 17.148 38.1628 17.164C38.1468 17.18 38.1308 17.192 38.1148 17.2C38.0588 17.208 38.0108 17.172 37.9708 17.092C37.9308 17.02 37.9028 16.968 37.8867 16.936C37.8788 16.92 37.8668 16.904 37.8508 16.888C37.8428 16.872 37.8388 16.856 37.8388 16.84C37.8308 16.72 37.8228 16.596 37.8148 16.468C37.8148 16.348 37.8068 16.224 37.7908 16.096C37.7588 16.144 37.7228 16.192 37.6828 16.24C37.6508 16.288 37.6148 16.336 37.5748 16.384C37.5588 16.4 37.5508 16.408 37.5508 16.408C37.5428 16.424 37.5308 16.436 37.5148 16.444C37.4988 16.46 37.4828 16.476 37.4668 16.492C37.4588 16.508 37.4428 16.536 37.4188 16.576C37.4028 16.624 37.3868 16.656 37.3708 16.672C37.3548 16.688 37.3388 16.688 37.3228 16.672C37.2988 16.656 37.2788 16.62 37.2628 16.564C37.2548 16.516 37.2428 16.48 37.2268 16.456C37.1948 16.432 37.1668 16.4 37.1428 16.36C37.1188 16.32 37.0988 16.284 37.0828 16.252C37.0668 16.228 37.0508 16.2 37.0348 16.168C37.0268 16.208 37.0188 16.252 37.0108 16.3C37.0108 16.356 37.0028 16.404 36.9868 16.444C36.9868 16.444 36.9708 16.444 36.9388 16.444C36.9148 16.444 36.8908 16.44 36.8668 16.432C36.8428 16.432 36.8188 16.432 36.7948 16.432C36.7388 16.424 36.6988 16.416 36.6748 16.408H36.6028C36.5628 16.432 36.4988 16.432 36.4108 16.408C36.4028 16.4 36.3908 16.392 36.3748 16.384C36.3668 16.376 36.3628 16.376 36.3628 16.384C36.3468 16.528 36.3388 16.668 36.3388 16.804C36.3388 16.948 36.3308 17.088 36.3148 17.224C36.3068 17.256 36.2988 17.24 36.2908 17.176C36.2828 17.12 36.2748 17.076 36.2668 17.044C36.2588 16.916 36.2548 16.788 36.2548 16.66C36.2628 16.532 36.2508 16.404 36.2188 16.276C36.2108 16.228 36.2028 16.232 36.1948 16.288C36.1948 16.344 36.1948 16.412 36.1948 16.492C36.1948 16.572 36.1868 16.632 36.1708 16.672C36.1628 16.704 36.1548 16.688 36.1468 16.624C36.1468 16.568 36.1428 16.524 36.1348 16.492L36.0628 16.12H36.0508C35.2588 16.104 34.5708 15.964 33.9868 15.7C33.4028 15.436 32.9508 15.048 32.6308 14.536C32.5748 14.472 32.5268 14.396 32.4868 14.308C32.4548 14.22 32.4268 14.136 32.4028 14.056L32.3308 13.888V13.876C32.3148 13.828 32.2988 13.78 32.2828 13.732C32.2668 13.684 32.2508 13.636 32.2348 13.588C32.2028 13.468 32.1788 13.312 32.1628 13.12C32.1468 12.928 32.1388 12.74 32.1388 12.556C32.1388 12.364 32.1388 12.208 32.1388 12.088C32.1388 11.928 32.1388 11.768 32.1388 11.608C32.1388 11.44 32.1428 11.28 32.1508 11.128V11.032C32.1508 10.92 32.1508 10.804 32.1508 10.684C32.1588 10.564 32.1748 10.448 32.1988 10.336C32.1988 10.32 32.1988 10.308 32.1988 10.3C32.2068 10.292 32.2108 10.284 32.2108 10.276C32.2828 9.836 32.4268 9.444 32.6428 9.1C32.7148 8.956 32.8108 8.824 32.9308 8.704C33.6508 7.888 34.7308 7.48 36.1708 7.48H36.4228C36.4388 7.48 36.4508 7.484 36.4588 7.492C36.4988 7.492 36.5348 7.492 36.5668 7.492C36.6068 7.492 36.6428 7.496 36.6748 7.504C36.6988 7.496 36.7188 7.496 36.7348 7.504C36.7588 7.504 36.7828 7.504 36.8068 7.504L37.0108 7.54C37.0908 7.548 37.1668 7.56 37.2388 7.576C37.3188 7.592 37.3988 7.608 37.4788 7.624C37.5668 7.632 37.6668 7.656 37.7787 7.696C37.7868 7.696 37.7908 7.7 37.7908 7.708C37.7988 7.708 37.8068 7.708 37.8148 7.708C37.8788 7.716 37.9388 7.732 37.9948 7.756C38.0588 7.772 38.1108 7.796 38.1508 7.828C38.6628 8.036 39.1028 8.348 39.4708 8.764C39.5828 8.876 39.6828 9.028 39.7708 9.22C39.9148 9.492 40.0228 9.776 40.0948 10.072C40.1188 10.128 40.1308 10.196 40.1308 10.276L40.1668 10.504C40.1748 10.592 40.1788 10.68 40.1788 10.768C40.1868 10.856 40.1908 10.944 40.1908 11.032C40.1988 11.152 40.2028 11.3 40.2028 11.476C40.2028 11.652 40.2028 11.828 40.2028 12.004C40.2028 12.18 40.2028 12.328 40.2028 12.448C40.1948 12.6 40.1908 12.756 40.1908 12.916C40.1908 13.068 40.1708 13.216 40.1308 13.36C40.0748 13.728 39.9668 14.064 39.8068 14.368ZM35.6668 13.564C35.7148 13.628 35.7668 13.684 35.8228 13.732C35.9028 13.748 35.9988 13.764 36.1108 13.78H36.2548C36.2788 13.772 36.3028 13.768 36.3268 13.768C36.3588 13.768 36.3868 13.764 36.4108 13.756C36.5628 13.716 36.6868 13.644 36.7828 13.54C36.8228 13.5 36.8588 13.452 36.8908 13.396C36.9228 13.34 36.9468 13.284 36.9628 13.228L36.9988 13.096C37.0308 12.96 37.0468 12.828 37.0468 12.7C37.0548 12.564 37.0628 12.448 37.0708 12.352V11.524C37.0708 11.428 37.0708 11.332 37.0708 11.236C37.0708 11.132 37.0668 11.032 37.0588 10.936C37.0588 10.88 37.0588 10.828 37.0588 10.78C37.0588 10.724 37.0548 10.672 37.0468 10.624C37.0388 10.608 37.0348 10.592 37.0348 10.576C37.0348 10.552 37.0308 10.536 37.0228 10.528C37.0228 10.504 37.0148 10.468 36.9988 10.42C36.9748 10.324 36.9388 10.244 36.8908 10.18C36.8428 10.108 36.7868 10.044 36.7228 9.988L36.7108 9.976C36.6788 9.96 36.6588 9.952 36.6508 9.952C36.6348 9.944 36.6068 9.94 36.5668 9.94C36.5588 9.94 36.5508 9.944 36.5428 9.952C36.5348 9.96 36.5188 9.968 36.4948 9.976C36.4868 9.976 36.4788 9.976 36.4708 9.976C36.4708 9.968 36.4628 9.964 36.4468 9.964C36.4148 9.972 36.3788 9.992 36.3388 10.024C36.2988 10.056 36.2668 10.084 36.2428 10.108C36.2268 10.116 36.2028 10.128 36.1708 10.144C36.1388 10.16 36.1188 10.176 36.1108 10.192C36.0788 10.232 36.0628 10.268 36.0628 10.3C36.0628 10.332 36.0308 10.344 35.9668 10.336C35.9108 10.336 35.8868 10.328 35.8948 10.312C35.9108 10.296 35.8988 10.26 35.8588 10.204C35.8508 10.188 35.8388 10.176 35.8228 10.168C35.8068 10.16 35.7908 10.152 35.7748 10.144C35.7828 10.144 35.7708 10.136 35.7388 10.12C35.7148 10.096 35.6988 10.08 35.6908 10.072C35.6908 10.072 35.6868 10.072 35.6788 10.072C35.6788 10.064 35.6628 10.044 35.6308 10.012C35.6148 9.988 35.6108 9.984 35.6188 10C35.6348 10.008 35.6308 10.008 35.6068 10C35.6068 10 35.6028 10 35.5948 10C35.5948 10 35.5948 10.004 35.5948 10.012C35.5788 10.028 35.5588 10.048 35.5348 10.072C35.5108 10.088 35.4788 10.128 35.4388 10.192C35.3828 10.296 35.3468 10.4 35.3308 10.504C35.3148 10.6 35.2988 10.696 35.2828 10.792C35.2828 10.832 35.2788 10.888 35.2708 10.96C35.2708 11.032 35.2708 11.1 35.2708 11.164V12.088C35.2708 12.152 35.2708 12.216 35.2708 12.28C35.2788 12.336 35.2868 12.396 35.2948 12.46C35.3188 12.628 35.3628 12.824 35.4268 13.048L35.4628 13.144C35.4948 13.224 35.5268 13.3 35.5588 13.372C35.5908 13.436 35.6268 13.5 35.6668 13.564ZM48.427 9.532C48.427 9.588 48.431 9.652 48.439 9.724C48.447 9.788 48.443 9.852 48.427 9.916C48.427 9.9 48.423 9.908 48.415 9.94C48.407 9.964 48.407 9.972 48.415 9.964C48.407 9.972 48.403 9.98 48.403 9.988C48.403 9.996 48.399 10.004 48.391 10.012L48.331 10.084L48.295 10.12C48.287 10.12 48.275 10.128 48.259 10.144C48.251 10.16 48.243 10.172 48.235 10.18C48.203 10.212 48.175 10.256 48.151 10.312C48.127 10.36 48.095 10.416 48.055 10.48C48.023 10.552 47.991 10.624 47.959 10.696C47.927 10.768 47.891 10.84 47.851 10.912C47.795 11.04 47.735 11.172 47.671 11.308C47.615 11.436 47.543 11.568 47.455 11.704C47.399 11.784 47.347 11.84 47.299 11.872C47.291 11.888 47.283 11.908 47.275 11.932C47.275 11.956 47.267 11.976 47.251 11.992C47.251 11.992 47.235 11.98 47.203 11.956C47.195 11.948 47.187 11.936 47.179 11.92C47.179 11.904 47.155 11.872 47.107 11.824L47.083 11.8C47.059 11.76 47.035 11.724 47.011 11.692C46.995 11.652 46.979 11.616 46.963 11.584L46.927 11.512L46.915 11.5L46.807 11.296C46.735 11.168 46.659 11.044 46.579 10.924C46.507 10.796 46.431 10.668 46.351 10.54C46.319 10.492 46.291 10.448 46.267 10.408L46.183 10.288C46.159 10.264 46.135 10.24 46.111 10.216V10.276V15.436C46.119 15.5 46.119 15.56 46.111 15.616C46.111 15.672 46.111 15.712 46.111 15.736V15.76C46.103 15.768 46.099 15.776 46.099 15.784C46.083 15.816 46.071 15.836 46.063 15.844C46.063 15.852 46.059 15.86 46.051 15.868C46.019 15.908 45.979 15.94 45.931 15.964C45.923 15.972 45.915 15.98 45.907 15.988C45.899 15.996 45.891 16.004 45.883 16.012C45.875 16.028 45.863 16.044 45.847 16.06C45.831 16.084 45.815 16.104 45.799 16.12C45.767 16.152 45.731 16.164 45.691 16.156C45.675 16.148 45.659 16.132 45.643 16.108C45.627 16.092 45.611 16.084 45.595 16.084C45.579 16.076 45.563 16.08 45.547 16.096C45.531 16.12 45.515 16.132 45.499 16.132C45.435 16.108 45.407 16.084 45.415 16.06C45.431 16.036 45.403 16.04 45.331 16.072C45.307 16.112 45.279 16.164 45.247 16.228C45.215 16.3 45.171 16.316 45.115 16.276C45.099 16.26 45.083 16.236 45.067 16.204C45.059 16.18 45.043 16.164 45.019 16.156L45.007 16.168C45.007 16.176 45.003 16.18 44.995 16.18C44.995 16.188 44.995 16.192 44.995 16.192L44.923 16.24L44.875 16.288C44.875 16.296 44.867 16.344 44.851 16.432C44.835 16.52 44.819 16.608 44.803 16.696C44.787 16.784 44.779 16.828 44.779 16.828C44.771 16.86 44.763 16.896 44.755 16.936C44.755 16.976 44.747 17.012 44.731 17.044C44.723 17.052 44.711 17.056 44.695 17.056C44.687 17.064 44.683 17.064 44.683 17.056C44.667 16.944 44.659 16.832 44.659 16.72C44.659 16.608 44.651 16.496 44.635 16.384C44.635 16.344 44.623 16.3 44.599 16.252C44.583 16.236 44.555 16.204 44.515 16.156C44.483 16.116 44.455 16.084 44.431 16.06H44.395C44.355 16.06 44.327 16.056 44.311 16.048C44.303 16.064 44.291 16.076 44.275 16.084C44.259 16.1 44.251 16.112 44.251 16.12L44.239 16.132C44.199 16.18 44.159 16.228 44.119 16.276C44.087 16.324 44.051 16.38 44.011 16.444C43.995 16.46 43.983 16.476 43.975 16.492C43.967 16.5 43.959 16.508 43.951 16.516C43.943 16.524 43.931 16.536 43.915 16.552C43.899 16.568 43.883 16.58 43.867 16.588C43.859 16.676 43.855 16.804 43.855 16.972C43.855 17.148 43.851 17.332 43.843 17.524C43.843 17.716 43.839 17.896 43.831 18.064C43.831 18.24 43.827 18.372 43.819 18.46C43.819 18.468 43.811 18.464 43.795 18.448C43.779 18.432 43.771 18.42 43.771 18.412C43.723 18.324 43.703 18.196 43.711 18.028C43.727 17.868 43.747 17.688 43.771 17.488C43.795 17.296 43.803 17.112 43.795 16.936C43.795 16.768 43.759 16.632 43.687 16.528C43.687 16.512 43.679 16.5 43.663 16.492C43.655 16.484 43.651 16.48 43.651 16.48C43.619 16.416 43.587 16.356 43.555 16.3C43.523 16.244 43.491 16.188 43.459 16.132C43.459 16.124 43.455 16.116 43.447 16.108C43.447 16.108 43.447 16.104 43.447 16.096C43.439 16.088 43.427 16.068 43.411 16.036C43.387 16.012 43.359 16 43.327 16C43.319 16 43.311 16 43.303 16C43.303 15.992 43.295 15.988 43.279 15.988C43.215 15.964 43.163 15.924 43.123 15.868C43.107 15.852 43.091 15.82 43.075 15.772C43.059 15.708 43.051 15.648 43.051 15.592C43.051 15.552 43.051 15.52 43.051 15.496C43.059 15.464 43.063 15.432 43.063 15.4V10.276L43.015 10.18C43.015 10.18 43.007 10.196 42.991 10.228C42.983 10.236 42.979 10.248 42.979 10.264C42.971 10.296 42.963 10.328 42.955 10.36C42.947 10.392 42.935 10.42 42.919 10.444L42.847 10.588C42.831 10.62 42.811 10.652 42.787 10.684C42.763 10.716 42.735 10.748 42.703 10.78C42.687 10.796 42.679 10.804 42.679 10.804C42.663 10.812 42.647 10.824 42.631 10.84C42.607 10.872 42.595 10.892 42.595 10.9C42.595 10.908 42.563 10.94 42.499 10.996C42.467 10.996 42.451 10.996 42.451 10.996C42.435 11.028 42.431 11.068 42.439 11.116C42.447 11.164 42.431 11.196 42.391 11.212C42.367 11.22 42.355 11.204 42.355 11.164C42.355 11.116 42.351 11.08 42.343 11.056L42.307 10.888C42.283 10.872 42.259 10.852 42.235 10.828C42.211 10.796 42.191 10.772 42.175 10.756C42.183 10.764 42.175 10.76 42.151 10.744C42.127 10.72 42.111 10.704 42.103 10.696L42.079 10.672C42.063 10.68 42.051 10.696 42.043 10.72C42.035 10.744 42.027 10.764 42.019 10.78C42.011 10.82 41.999 10.856 41.983 10.888C41.975 10.92 41.971 10.948 41.971 10.972C41.971 10.9 41.955 10.812 41.923 10.708C41.923 10.716 41.919 10.72 41.911 10.72C41.911 10.72 41.911 10.724 41.911 10.732C41.903 10.732 41.899 10.736 41.899 10.744C41.891 10.752 41.883 10.76 41.875 10.768C41.867 10.776 41.851 10.8 41.827 10.84C41.811 10.872 41.795 10.896 41.779 10.912C41.779 10.912 41.775 10.916 41.767 10.924C41.767 10.924 41.763 10.924 41.755 10.924C41.755 10.924 41.751 10.928 41.743 10.936C41.743 10.936 41.739 10.936 41.731 10.936C41.723 11.016 41.719 11.092 41.719 11.164C41.727 11.236 41.735 11.312 41.743 11.392C41.727 11.288 41.691 11.24 41.635 11.248C41.587 11.264 41.559 11.288 41.551 11.32C41.551 11.248 41.551 11.176 41.551 11.104C41.559 11.024 41.559 10.948 41.551 10.876C41.527 10.86 41.503 10.84 41.479 10.816C41.455 10.784 41.431 10.756 41.407 10.732L41.311 10.636C41.247 10.564 41.215 10.528 41.215 10.528C41.215 10.528 41.207 10.52 41.191 10.504C41.175 10.488 41.107 10.416 40.987 10.288C40.987 10.304 40.979 10.312 40.963 10.312C40.955 10.312 40.947 10.3 40.939 10.276C40.939 10.252 40.935 10.232 40.927 10.216C40.935 10.224 40.927 10.212 40.903 10.18C40.887 10.14 40.875 10.116 40.867 10.108C40.787 10.044 40.747 9.96 40.747 9.856V8.308C40.747 8.268 40.743 8.2 40.735 8.104C40.735 8 40.743 7.912 40.759 7.84C40.767 7.824 40.771 7.812 40.771 7.804C40.771 7.788 40.775 7.776 40.783 7.768C40.807 7.72 40.839 7.684 40.879 7.66C40.887 7.66 40.891 7.66 40.891 7.66C40.891 7.652 40.895 7.648 40.903 7.648L40.915 7.636C40.963 7.612 41.007 7.6 41.047 7.6C41.111 7.592 41.171 7.592 41.227 7.6C41.291 7.6 41.351 7.6 41.407 7.6H47.671C47.759 7.6 47.851 7.596 47.947 7.588C48.043 7.58 48.131 7.588 48.211 7.612C48.235 7.62 48.255 7.632 48.271 7.648C48.295 7.656 48.311 7.668 48.319 7.684C48.375 7.724 48.407 7.768 48.415 7.816C48.423 7.864 48.427 7.916 48.427 7.972C48.435 8.1 48.435 8.236 48.427 8.38C48.427 8.516 48.427 8.652 48.427 8.788V9.532ZM41.587 12.04C41.603 12.112 41.599 12.104 41.575 12.016C41.551 11.928 41.531 11.812 41.515 11.668C41.507 11.516 41.519 11.4 41.551 11.32C41.543 11.448 41.539 11.572 41.539 11.692C41.547 11.812 41.563 11.928 41.587 12.04ZM41.683 12.028C41.667 12.076 41.663 12.076 41.671 12.028C41.687 11.972 41.703 11.892 41.719 11.788C41.735 11.684 41.743 11.588 41.743 11.5C41.743 11.588 41.739 11.676 41.731 11.764C41.731 11.852 41.715 11.94 41.683 12.028ZM56.3449 14.68C56.2889 14.76 56.2329 14.832 56.1769 14.896C56.1209 14.952 56.0729 15 56.0329 15.04L55.9489 15.124C55.9329 15.132 55.9129 15.144 55.8889 15.16C55.8729 15.176 55.8569 15.192 55.8409 15.208C55.8249 15.24 55.8089 15.272 55.7929 15.304C55.7849 15.328 55.7729 15.356 55.7569 15.388C55.7169 15.484 55.6649 15.568 55.6009 15.64C55.5929 15.648 55.5849 15.66 55.5769 15.676C55.5769 15.692 55.5729 15.696 55.5649 15.688C55.5569 15.68 55.5529 15.668 55.5529 15.652L55.4809 15.76C55.4729 15.776 55.4609 15.792 55.4449 15.808C55.4449 15.808 55.4409 15.812 55.4329 15.82C55.4329 15.82 55.4289 15.82 55.4209 15.82C55.4129 15.82 55.4089 15.824 55.4089 15.832C55.4089 15.832 55.4049 15.832 55.3969 15.832C55.3889 15.92 55.3849 16.056 55.3849 16.24C55.3849 16.424 55.3809 16.624 55.3729 16.84C55.3729 17.056 55.3689 17.256 55.3609 17.44C55.3609 17.624 55.3569 17.76 55.3489 17.848C55.3489 17.856 55.3409 17.864 55.3249 17.872C55.3089 17.88 55.3009 17.88 55.3009 17.872C55.2929 17.784 55.2849 17.644 55.2769 17.452C55.2769 17.26 55.2769 17.052 55.2769 16.828C55.2769 16.612 55.2729 16.408 55.2649 16.216C55.2649 16.032 55.2609 15.892 55.2529 15.796C55.2369 15.78 55.2209 15.768 55.2049 15.76C55.2049 15.76 55.1969 15.752 55.1809 15.736C55.1809 15.736 55.1769 15.736 55.1689 15.736C55.1689 15.728 55.1689 15.72 55.1689 15.712C55.1609 15.712 55.1569 15.712 55.1569 15.712C55.1569 15.704 55.1529 15.7 55.1449 15.7L55.1329 15.712C55.1249 15.736 55.1209 15.76 55.1209 15.784C55.1209 15.808 55.1129 15.84 55.0969 15.88C55.0889 15.912 55.0729 15.94 55.0489 15.964C55.0329 15.988 55.0129 16.016 54.9889 16.048C54.9889 16.056 54.9809 16.076 54.9649 16.108C54.9489 16.124 54.9369 16.132 54.9289 16.132C54.9209 16.132 54.9169 16.132 54.9169 16.132C54.9169 16.14 54.9169 16.144 54.9169 16.144C54.8449 16.272 54.7849 16.416 54.7369 16.576L54.6529 16.852C54.6449 16.876 54.6329 16.908 54.6169 16.948C54.6089 16.996 54.6049 17.008 54.6049 16.984C54.5889 16.856 54.5809 16.728 54.5809 16.6C54.5889 16.472 54.5849 16.344 54.5689 16.216C54.5689 16.224 54.5649 16.228 54.5569 16.228C54.5569 16.228 54.5569 16.232 54.5569 16.24C54.5409 16.296 54.5209 16.348 54.4969 16.396C54.4729 16.452 54.4489 16.508 54.4249 16.564C54.3849 16.652 54.3369 16.74 54.2809 16.828C54.2249 16.916 54.1609 16.996 54.0889 17.068C54.0809 17.076 54.0649 17.088 54.0409 17.104C54.0249 17.128 54.0049 17.148 53.9809 17.164C53.9489 17.196 53.9169 17.228 53.8849 17.26C53.8609 17.3 53.8169 17.312 53.7529 17.296C53.7049 17.272 53.6609 17.24 53.6209 17.2C53.5889 17.176 53.5529 17.144 53.5129 17.104C53.4809 17.064 53.4489 17.028 53.4169 16.996C53.3529 16.916 53.2929 16.828 53.2369 16.732C53.1889 16.644 53.1369 16.552 53.0809 16.456C53.0649 16.424 53.0449 16.384 53.0209 16.336C52.9969 16.296 52.9729 16.26 52.9489 16.228L52.9129 16.192C52.9129 16.184 52.9049 16.18 52.8889 16.18C52.8889 16.18 52.8729 16.168 52.8409 16.144C52.8249 16.152 52.8169 16.168 52.8169 16.192C52.8169 16.224 52.8089 16.248 52.7929 16.264C52.7769 16.296 52.7649 16.312 52.7569 16.312C52.7489 16.304 52.7409 16.292 52.7329 16.276C52.7329 16.26 52.7289 16.248 52.7209 16.24L52.6849 16.12H52.6729C51.8089 16.104 51.0929 15.972 50.5249 15.724C49.9649 15.468 49.5449 15.152 49.2649 14.776C49.2089 14.704 49.1609 14.632 49.1209 14.56C49.0809 14.496 49.0489 14.432 49.0249 14.368L48.9769 14.248C48.9529 14.184 48.9329 14.12 48.9169 14.056C48.9009 13.984 48.8849 13.916 48.8689 13.852C48.8609 13.788 48.8489 13.724 48.8329 13.66C48.8249 13.588 48.8369 13.52 48.8689 13.456C48.8689 13.448 48.8689 13.444 48.8689 13.444C48.8769 13.436 48.8809 13.432 48.8809 13.432C48.8969 13.4 48.9289 13.368 48.9769 13.336C49.0089 13.32 49.0409 13.312 49.0729 13.312C49.1049 13.304 49.1329 13.3 49.1569 13.3C49.2689 13.292 49.3809 13.292 49.4929 13.3C49.6049 13.3 49.7129 13.3 49.8169 13.3H50.9569C50.9969 13.3 51.0489 13.3 51.1129 13.3C51.1849 13.292 51.2489 13.288 51.3049 13.288C51.3529 13.288 51.3969 13.292 51.4369 13.3C51.4849 13.3 51.5249 13.304 51.5569 13.312C51.6209 13.32 51.6729 13.34 51.7129 13.372C51.7609 13.396 51.8089 13.428 51.8569 13.468L52.0369 13.588C52.0929 13.62 52.1489 13.648 52.2049 13.672C52.2609 13.696 52.3169 13.716 52.3729 13.732C52.4769 13.764 52.6169 13.78 52.7929 13.78C52.8889 13.78 52.9809 13.776 53.0689 13.768C53.1569 13.76 53.2369 13.748 53.3089 13.732L53.4289 13.696C53.4449 13.688 53.4569 13.684 53.4649 13.684C53.4809 13.684 53.4929 13.68 53.5009 13.672C53.6289 13.608 53.6929 13.532 53.6929 13.444V13.432C53.6929 13.384 53.6729 13.332 53.6329 13.276L53.5609 13.204H53.5489C53.5169 13.188 53.4729 13.188 53.4169 13.204C53.3609 13.212 53.3129 13.22 53.2729 13.228C53.2409 13.228 53.2049 13.232 53.1649 13.24C53.1329 13.24 53.0969 13.24 53.0569 13.24C53.0409 13.24 53.0249 13.236 53.0089 13.228C52.9929 13.22 52.9769 13.216 52.9609 13.216C52.9369 13.224 52.9129 13.232 52.8889 13.24C52.8729 13.248 52.8569 13.256 52.8409 13.264C52.8009 13.28 52.7569 13.296 52.7089 13.312C52.6609 13.328 52.6129 13.348 52.5649 13.372C52.4929 13.404 52.4169 13.432 52.3369 13.456C52.2649 13.472 52.1889 13.464 52.1089 13.432C52.0609 13.416 52.0169 13.396 51.9769 13.372C51.9369 13.348 51.8969 13.324 51.8569 13.3C51.7769 13.26 51.7009 13.216 51.6289 13.168C51.5649 13.12 51.5009 13.068 51.4369 13.012L51.1609 12.736L51.0649 12.664H50.9809C50.9729 12.672 50.9609 12.684 50.9449 12.7C50.9369 12.708 50.9249 12.72 50.9089 12.736C50.8769 12.768 50.8409 12.804 50.8009 12.844C50.7609 12.884 50.7209 12.92 50.6809 12.952C50.6649 12.96 50.6409 12.972 50.6089 12.988C50.5849 13.004 50.5609 13.008 50.5369 13C50.5049 12.984 50.4769 12.96 50.4529 12.928C50.4289 12.896 50.4089 12.864 50.3929 12.832C50.3689 12.768 50.3489 12.7 50.3329 12.628C50.3249 12.556 50.3049 12.492 50.2729 12.436C50.2409 12.412 50.2049 12.384 50.1649 12.352C50.1329 12.32 50.1009 12.288 50.0689 12.256C50.0609 12.248 50.0529 12.24 50.0449 12.232C50.0449 12.224 50.0369 12.216 50.0209 12.208C49.9649 12.152 49.9329 12.124 49.9249 12.124C49.9249 12.124 49.9089 12.116 49.8769 12.1C49.8609 12.084 49.8529 12.068 49.8529 12.052C49.7809 11.988 49.7129 11.92 49.6489 11.848C49.6249 11.816 49.5969 11.788 49.5649 11.764C49.5409 11.732 49.5209 11.7 49.5049 11.668C49.4729 11.636 49.4449 11.6 49.4209 11.56C49.3969 11.52 49.3729 11.484 49.3489 11.452C49.3329 11.42 49.3169 11.392 49.3009 11.368C49.2849 11.336 49.2689 11.304 49.2529 11.272C49.1809 11.152 49.1249 10.984 49.0849 10.768C49.0529 10.552 49.0409 10.34 49.0489 10.132C49.0569 9.916 49.0809 9.748 49.1209 9.628C49.1369 9.58 49.1529 9.532 49.1689 9.484C49.1849 9.436 49.2009 9.388 49.2169 9.34C49.2329 9.292 49.2489 9.256 49.2649 9.232C49.2809 9.184 49.2969 9.148 49.3129 9.124C49.5689 8.628 49.9809 8.236 50.5489 7.948C51.1169 7.652 51.8049 7.496 52.6129 7.48H52.7089C53.3729 7.48 53.9489 7.576 54.4369 7.768C54.9329 7.952 55.3409 8.192 55.6609 8.488C55.9809 8.776 56.2089 9.076 56.3449 9.388C56.3609 9.436 56.3769 9.484 56.3929 9.532C56.4169 9.58 56.4329 9.628 56.4409 9.676C56.4569 9.724 56.4689 9.776 56.4769 9.832C56.4929 9.888 56.4929 9.944 56.4769 10C56.4609 10.072 56.4289 10.128 56.3809 10.168C56.3489 10.2 56.3209 10.22 56.2969 10.228C56.2969 10.228 56.2889 10.236 56.2729 10.252C56.2649 10.252 56.2569 10.248 56.2489 10.24C56.2409 10.248 56.2329 10.252 56.2249 10.252C56.2169 10.244 56.2049 10.244 56.1889 10.252C56.1729 10.252 56.1529 10.26 56.1289 10.276C56.1129 10.284 56.0969 10.292 56.0809 10.3C56.0249 10.324 55.9689 10.352 55.9129 10.384C55.8649 10.416 55.8089 10.436 55.7449 10.444C55.6809 10.444 55.6169 10.436 55.5529 10.42C55.4889 10.396 55.4249 10.384 55.3609 10.384C55.3129 10.384 55.2649 10.396 55.2169 10.42C55.1689 10.436 55.1209 10.44 55.0729 10.432C55.0409 10.424 55.0089 10.412 54.9769 10.396C54.9449 10.372 54.9129 10.352 54.8809 10.336C54.8569 10.328 54.8329 10.32 54.8089 10.312C54.7849 10.304 54.7609 10.3 54.7369 10.3L54.6409 10.324C54.5609 10.34 54.4809 10.356 54.4009 10.372C54.3209 10.388 54.2369 10.4 54.1489 10.408C54.1169 10.416 54.0849 10.428 54.0529 10.444C54.0289 10.46 54.0009 10.472 53.9689 10.48C53.9209 10.496 53.8689 10.508 53.8129 10.516C53.7649 10.524 53.7129 10.52 53.6569 10.504C53.5849 10.472 53.5249 10.424 53.4769 10.36C53.4369 10.288 53.3929 10.224 53.3449 10.168C53.3289 10.144 53.3089 10.12 53.2849 10.096C53.2609 10.072 53.2369 10.048 53.2129 10.024C53.2049 10.032 53.1929 10.036 53.1769 10.036C53.0409 10.076 52.9169 10.06 52.8049 9.988C52.7809 9.972 52.7569 9.956 52.7329 9.94C52.7089 9.916 52.6809 9.9 52.6489 9.892C52.6489 9.884 52.6329 9.872 52.6009 9.856C52.5689 9.864 52.5369 9.876 52.5049 9.892C52.4729 9.9 52.4409 9.912 52.4089 9.928C52.4009 9.928 52.3889 9.932 52.3729 9.94C52.3649 9.94 52.3529 9.94 52.3369 9.94H52.2649C52.2329 9.94 52.2129 9.944 52.2049 9.952C52.2049 9.96 52.1969 9.972 52.1809 9.988C52.1809 9.996 52.1769 10 52.1689 10C52.1689 10 52.1689 10.004 52.1689 10.012C52.1529 10.044 52.1449 10.068 52.1449 10.084C52.1369 10.1 52.1329 10.124 52.1329 10.156C52.1329 10.268 52.1969 10.352 52.3249 10.408C52.3409 10.424 52.3729 10.44 52.4209 10.456C52.4929 10.488 52.5689 10.512 52.6489 10.528C52.8009 10.568 52.9729 10.604 53.1649 10.636L53.4649 10.672C53.4809 10.672 53.4969 10.676 53.5129 10.684C53.5369 10.684 53.5529 10.684 53.5609 10.684L53.7889 10.72H53.8609C53.8689 10.728 53.8769 10.732 53.8849 10.732C53.9089 10.732 53.9329 10.736 53.9569 10.744C53.9889 10.744 54.0209 10.748 54.0529 10.756C55.3009 10.98 56.1089 11.404 56.4769 12.028C56.4849 12.028 56.4889 12.032 56.4889 12.04C56.5369 12.096 56.5729 12.172 56.5969 12.268C56.6049 12.284 56.6129 12.304 56.6209 12.328C56.6289 12.344 56.6369 12.36 56.6449 12.376L56.7169 12.592C56.7169 12.6 56.7169 12.612 56.7169 12.628C56.7249 12.636 56.7289 12.644 56.7289 12.652C56.7529 12.724 56.7649 12.796 56.7649 12.868C56.7729 12.916 56.7769 12.964 56.7769 13.012C56.7769 13.052 56.7769 13.092 56.7769 13.132V13.288C56.7769 13.576 56.7289 13.852 56.6329 14.116C56.5769 14.316 56.5089 14.468 56.4289 14.572L56.3449 14.68ZM64.7981 9.532C64.7981 9.588 64.8021 9.652 64.8101 9.724C64.8181 9.788 64.8141 9.852 64.7981 9.916C64.7981 9.9 64.7941 9.908 64.7861 9.94C64.7781 9.964 64.7781 9.972 64.7861 9.964C64.7781 9.972 64.7741 9.98 64.7741 9.988C64.7741 9.996 64.7701 10.004 64.7621 10.012L64.7021 10.084L64.6661 10.12C64.6581 10.12 64.6461 10.128 64.6301 10.144C64.6221 10.16 64.6141 10.172 64.6061 10.18C64.5741 10.212 64.5461 10.256 64.5221 10.312C64.4981 10.36 64.4661 10.416 64.4261 10.48C64.3941 10.552 64.3621 10.624 64.3301 10.696C64.2981 10.768 64.2621 10.84 64.2221 10.912C64.1661 11.04 64.1061 11.172 64.0421 11.308C63.9861 11.436 63.9141 11.568 63.8261 11.704C63.7701 11.784 63.7181 11.84 63.6701 11.872C63.6621 11.888 63.6541 11.908 63.6461 11.932C63.6461 11.956 63.6381 11.976 63.6221 11.992C63.6221 11.992 63.6061 11.98 63.5741 11.956C63.5661 11.948 63.5581 11.936 63.5501 11.92C63.5501 11.904 63.5261 11.872 63.4781 11.824L63.4541 11.8C63.4301 11.76 63.4061 11.724 63.3821 11.692C63.3661 11.652 63.3501 11.616 63.3341 11.584L63.2981 11.512L63.2861 11.5L63.1781 11.296C63.1061 11.168 63.0301 11.044 62.9501 10.924C62.8781 10.796 62.8021 10.668 62.7221 10.54C62.6901 10.492 62.6621 10.448 62.6381 10.408L62.5541 10.288C62.5301 10.264 62.5061 10.24 62.4821 10.216V10.276V15.436C62.4901 15.5 62.4901 15.56 62.4821 15.616C62.4821 15.672 62.4821 15.712 62.4821 15.736V15.76C62.4741 15.768 62.4701 15.776 62.4701 15.784C62.4541 15.816 62.4421 15.836 62.4341 15.844C62.4341 15.852 62.4301 15.86 62.4221 15.868C62.3901 15.908 62.3501 15.94 62.3021 15.964C62.2941 15.972 62.2861 15.98 62.2781 15.988C62.2701 15.996 62.2621 16.004 62.2541 16.012C62.2461 16.028 62.2341 16.044 62.2181 16.06C62.2021 16.084 62.1861 16.104 62.1701 16.12C62.1381 16.152 62.1021 16.164 62.0621 16.156C62.0461 16.148 62.0301 16.132 62.0141 16.108C61.9981 16.092 61.9821 16.084 61.9661 16.084C61.9501 16.076 61.9341 16.08 61.9181 16.096C61.9021 16.12 61.8861 16.132 61.8701 16.132C61.8061 16.108 61.7781 16.084 61.7861 16.06C61.8021 16.036 61.7741 16.04 61.7021 16.072C61.6781 16.112 61.6501 16.164 61.6181 16.228C61.5861 16.3 61.5421 16.316 61.4861 16.276C61.4701 16.26 61.4541 16.236 61.4381 16.204C61.4301 16.18 61.4141 16.164 61.3901 16.156L61.3781 16.168C61.3781 16.176 61.3741 16.18 61.3661 16.18C61.3661 16.188 61.3661 16.192 61.3661 16.192L61.2941 16.24L61.2461 16.288C61.2461 16.296 61.2381 16.344 61.2221 16.432C61.2061 16.52 61.1901 16.608 61.1741 16.696C61.1581 16.784 61.1501 16.828 61.1501 16.828C61.1421 16.86 61.1341 16.896 61.1261 16.936C61.1261 16.976 61.1181 17.012 61.1021 17.044C61.0941 17.052 61.0821 17.056 61.0661 17.056C61.0581 17.064 61.0541 17.064 61.0541 17.056C61.0381 16.944 61.0301 16.832 61.0301 16.72C61.0301 16.608 61.0221 16.496 61.0061 16.384C61.0061 16.344 60.9941 16.3 60.9701 16.252C60.9541 16.236 60.9261 16.204 60.8861 16.156C60.8541 16.116 60.8261 16.084 60.8021 16.06H60.7661C60.7261 16.06 60.6981 16.056 60.6821 16.048C60.6741 16.064 60.6621 16.076 60.6461 16.084C60.6301 16.1 60.6221 16.112 60.6221 16.12L60.6101 16.132C60.5701 16.18 60.5301 16.228 60.4901 16.276C60.4581 16.324 60.4221 16.38 60.3821 16.444C60.3661 16.46 60.3541 16.476 60.3461 16.492C60.3381 16.5 60.3301 16.508 60.3221 16.516C60.3141 16.524 60.3021 16.536 60.2861 16.552C60.2701 16.568 60.2541 16.58 60.2381 16.588C60.2301 16.676 60.2261 16.804 60.2261 16.972C60.2261 17.148 60.2221 17.332 60.2141 17.524C60.2141 17.716 60.2101 17.896 60.2021 18.064C60.2021 18.24 60.1981 18.372 60.1901 18.46C60.1901 18.468 60.1821 18.464 60.1661 18.448C60.1501 18.432 60.1421 18.42 60.1421 18.412C60.0941 18.324 60.0741 18.196 60.0821 18.028C60.0981 17.868 60.1181 17.688 60.1421 17.488C60.1661 17.296 60.1741 17.112 60.1661 16.936C60.1661 16.768 60.1301 16.632 60.0581 16.528C60.0581 16.512 60.0501 16.5 60.0341 16.492C60.0261 16.484 60.0221 16.48 60.0221 16.48C59.9901 16.416 59.9581 16.356 59.9261 16.3C59.8941 16.244 59.8621 16.188 59.8301 16.132C59.8301 16.124 59.8261 16.116 59.8181 16.108C59.8181 16.108 59.8181 16.104 59.8181 16.096C59.8101 16.088 59.7981 16.068 59.7821 16.036C59.7581 16.012 59.7301 16 59.6981 16C59.6901 16 59.6821 16 59.6741 16C59.6741 15.992 59.6661 15.988 59.6501 15.988C59.5861 15.964 59.5341 15.924 59.4941 15.868C59.4781 15.852 59.4621 15.82 59.4461 15.772C59.4301 15.708 59.4221 15.648 59.4221 15.592C59.4221 15.552 59.4221 15.52 59.4221 15.496C59.4301 15.464 59.4341 15.432 59.4341 15.4V10.276L59.3861 10.18C59.3861 10.18 59.3781 10.196 59.3621 10.228C59.3541 10.236 59.3501 10.248 59.3501 10.264C59.3421 10.296 59.3341 10.328 59.3261 10.36C59.3181 10.392 59.3061 10.42 59.2901 10.444L59.2181 10.588C59.2021 10.62 59.1821 10.652 59.1581 10.684C59.1341 10.716 59.1061 10.748 59.0741 10.78C59.0581 10.796 59.0501 10.804 59.0501 10.804C59.0341 10.812 59.0181 10.824 59.0021 10.84C58.9781 10.872 58.9661 10.892 58.9661 10.9C58.9661 10.908 58.9341 10.94 58.8701 10.996C58.8381 10.996 58.8221 10.996 58.8221 10.996C58.8061 11.028 58.8021 11.068 58.8101 11.116C58.8181 11.164 58.8021 11.196 58.7621 11.212C58.7381 11.22 58.7261 11.204 58.7261 11.164C58.7261 11.116 58.7221 11.08 58.7141 11.056L58.6781 10.888C58.6541 10.872 58.6301 10.852 58.6061 10.828C58.5821 10.796 58.5621 10.772 58.5461 10.756C58.5541 10.764 58.5461 10.76 58.5221 10.744C58.4981 10.72 58.4821 10.704 58.4741 10.696L58.4501 10.672C58.4341 10.68 58.4221 10.696 58.4141 10.72C58.4061 10.744 58.3981 10.764 58.3901 10.78C58.3821 10.82 58.3701 10.856 58.3541 10.888C58.3461 10.92 58.3421 10.948 58.3421 10.972C58.3421 10.9 58.3261 10.812 58.2941 10.708C58.2941 10.716 58.2901 10.72 58.2821 10.72C58.2821 10.72 58.2821 10.724 58.2821 10.732C58.2741 10.732 58.2701 10.736 58.2701 10.744C58.2621 10.752 58.2541 10.76 58.2461 10.768C58.2381 10.776 58.2221 10.8 58.1981 10.84C58.1821 10.872 58.1661 10.896 58.1501 10.912C58.1501 10.912 58.1461 10.916 58.1381 10.924C58.1381 10.924 58.1341 10.924 58.1261 10.924C58.1261 10.924 58.1221 10.928 58.1141 10.936C58.1141 10.936 58.1101 10.936 58.1021 10.936C58.0941 11.016 58.0901 11.092 58.0901 11.164C58.0981 11.236 58.1061 11.312 58.1141 11.392C58.0981 11.288 58.0621 11.24 58.0061 11.248C57.9581 11.264 57.9301 11.288 57.9221 11.32C57.9221 11.248 57.9221 11.176 57.9221 11.104C57.9301 11.024 57.9301 10.948 57.9221 10.876C57.8981 10.86 57.8741 10.84 57.8501 10.816C57.8261 10.784 57.8021 10.756 57.7781 10.732L57.6821 10.636C57.6181 10.564 57.5861 10.528 57.5861 10.528C57.5861 10.528 57.5781 10.52 57.5621 10.504C57.5461 10.488 57.4781 10.416 57.3581 10.288C57.3581 10.304 57.3501 10.312 57.3341 10.312C57.3261 10.312 57.3181 10.3 57.3101 10.276C57.3101 10.252 57.3061 10.232 57.2981 10.216C57.3061 10.224 57.2981 10.212 57.2741 10.18C57.2581 10.14 57.2461 10.116 57.2381 10.108C57.1581 10.044 57.1181 9.96 57.1181 9.856V8.308C57.1181 8.268 57.1141 8.2 57.1061 8.104C57.1061 8 57.1141 7.912 57.1301 7.84C57.1381 7.824 57.1421 7.812 57.1421 7.804C57.1421 7.788 57.1461 7.776 57.1541 7.768C57.1781 7.72 57.2101 7.684 57.2501 7.66C57.2581 7.66 57.2621 7.66 57.2621 7.66C57.2621 7.652 57.2661 7.648 57.2741 7.648L57.2861 7.636C57.3341 7.612 57.3781 7.6 57.4181 7.6C57.4821 7.592 57.5421 7.592 57.5981 7.6C57.6621 7.6 57.7221 7.6 57.7781 7.6H64.0421C64.1301 7.6 64.2221 7.596 64.3181 7.588C64.4141 7.58 64.5021 7.588 64.5821 7.612C64.6061 7.62 64.6261 7.632 64.6421 7.648C64.6661 7.656 64.6821 7.668 64.6901 7.684C64.7461 7.724 64.7781 7.768 64.7861 7.816C64.7941 7.864 64.7981 7.916 64.7981 7.972C64.8061 8.1 64.8061 8.236 64.7981 8.38C64.7981 8.516 64.7981 8.652 64.7981 8.788V9.532ZM57.9581 12.04C57.9741 12.112 57.9701 12.104 57.9461 12.016C57.9221 11.928 57.9021 11.812 57.8861 11.668C57.8781 11.516 57.8901 11.4 57.9221 11.32C57.9141 11.448 57.9101 11.572 57.9101 11.692C57.9181 11.812 57.9341 11.928 57.9581 12.04ZM58.0541 12.028C58.0381 12.076 58.0341 12.076 58.0421 12.028C58.0581 11.972 58.0741 11.892 58.0901 11.788C58.1061 11.684 58.1141 11.588 58.1141 11.5C58.1141 11.588 58.1101 11.676 58.1021 11.764C58.1021 11.852 58.0861 11.94 58.0541 12.028ZM73.424 15.736C73.424 15.76 73.416 15.796 73.4 15.844C73.392 15.868 73.376 15.892 73.352 15.916C73.336 15.932 73.32 15.948 73.304 15.964C73.288 15.996 73.272 16.028 73.256 16.06C73.24 16.1 73.224 16.14 73.208 16.18L73.016 16.516C72.984 16.572 72.952 16.628 72.92 16.684C72.896 16.74 72.864 16.792 72.824 16.84C72.816 16.856 72.8 16.876 72.776 16.9C72.752 16.924 72.74 16.936 72.74 16.936C72.724 16.808 72.716 16.68 72.716 16.552C72.716 16.432 72.708 16.312 72.692 16.192C72.684 16.184 72.676 16.18 72.668 16.18C72.66 16.188 72.652 16.192 72.644 16.192C72.652 16.192 72.636 16.204 72.596 16.228C72.556 16.26 72.528 16.28 72.512 16.288C72.504 16.296 72.496 16.308 72.488 16.324C72.48 16.348 72.468 16.36 72.452 16.36C72.444 16.368 72.436 16.364 72.428 16.348C72.42 16.332 72.412 16.32 72.404 16.312C72.38 16.272 72.352 16.236 72.32 16.204C72.296 16.172 72.276 16.14 72.26 16.108C72.244 16.164 72.236 16.224 72.236 16.288C72.244 16.352 72.236 16.416 72.212 16.48C72.204 16.496 72.196 16.488 72.188 16.456C72.18 16.424 72.172 16.4 72.164 16.384L72.14 16.144C72.132 16.152 72.124 16.16 72.116 16.168C72.116 16.176 72.112 16.188 72.104 16.204C72.088 16.228 72.064 16.256 72.032 16.288C72.04 16.288 72.032 16.292 72.008 16.3C71.984 16.308 71.972 16.312 71.972 16.312C71.964 16.392 71.956 16.472 71.948 16.552C71.948 16.64 71.94 16.728 71.924 16.816C71.924 16.84 71.92 16.868 71.912 16.9C71.904 16.94 71.892 16.956 71.876 16.948C71.852 16.924 71.84 16.892 71.84 16.852C71.84 16.812 71.836 16.776 71.828 16.744C71.82 16.696 71.812 16.648 71.804 16.6C71.804 16.552 71.796 16.504 71.78 16.456C71.78 16.408 71.768 16.372 71.744 16.348C71.728 16.356 71.708 16.372 71.684 16.396C71.668 16.42 71.652 16.444 71.636 16.468C71.62 16.5 71.6 16.528 71.576 16.552C71.56 16.584 71.536 16.612 71.504 16.636C71.496 16.644 71.484 16.648 71.468 16.648C71.468 16.656 71.464 16.66 71.456 16.66C71.448 16.788 71.44 16.916 71.432 17.044C71.432 17.172 71.424 17.304 71.408 17.44C71.4 17.504 71.4 17.576 71.408 17.656C71.424 17.736 71.404 17.796 71.348 17.836C71.316 17.868 71.3 17.836 71.3 17.74C71.308 17.652 71.308 17.584 71.3 17.536C71.292 17.376 71.288 17.22 71.288 17.068C71.288 16.916 71.28 16.764 71.264 16.612C71.256 16.604 71.244 16.592 71.228 16.576C71.22 16.56 71.208 16.548 71.192 16.54C71.176 16.516 71.152 16.488 71.12 16.456C71.096 16.432 71.072 16.404 71.048 16.372C71.024 16.348 70.996 16.324 70.964 16.3C70.94 16.268 70.908 16.248 70.868 16.24C70.892 16.248 70.892 16.248 70.868 16.24C70.844 16.232 70.816 16.22 70.784 16.204H70.748C70.732 16.308 70.724 16.416 70.724 16.528C70.724 16.64 70.716 16.752 70.7 16.864C70.692 16.888 70.684 16.88 70.676 16.84C70.668 16.8 70.656 16.772 70.64 16.756C70.632 16.692 70.62 16.652 70.604 16.636C70.596 16.628 70.584 16.616 70.568 16.6C70.56 16.608 70.548 16.604 70.532 16.588C70.468 16.532 70.444 16.456 70.46 16.36C70.484 16.264 70.492 16.176 70.484 16.096C70.484 16.128 70.48 16.156 70.472 16.18C70.472 16.212 70.464 16.236 70.448 16.252C70.44 16.26 70.432 16.244 70.424 16.204C70.424 16.172 70.42 16.144 70.412 16.12C70.396 16.088 70.388 16.06 70.388 16.036C70.38 16.068 70.372 16.08 70.364 16.072C70.332 16.016 70.324 15.992 70.34 16C70.356 16.008 70.368 16.008 70.376 16C70.384 15.992 70.356 15.936 70.292 15.832L70.256 15.796C70.248 15.78 70.236 15.764 70.22 15.748C70.204 15.724 70.188 15.7 70.172 15.676C70.172 15.66 70.164 15.644 70.148 15.628C70.132 15.596 70.116 15.564 70.1 15.532C70.092 15.5 70.08 15.468 70.064 15.436C70.04 15.372 70.012 15.312 69.98 15.256C69.956 15.192 69.932 15.132 69.908 15.076C69.868 14.996 69.828 14.912 69.788 14.824C69.748 14.728 69.708 14.632 69.668 14.536C69.652 14.488 69.636 14.456 69.62 14.44C69.588 14.344 69.548 14.252 69.5 14.164C69.492 14.148 69.484 14.132 69.476 14.116C69.468 14.092 69.46 14.072 69.452 14.056L69.368 13.876C69.368 13.86 69.364 13.848 69.356 13.84C69.356 13.84 69.352 13.84 69.344 13.84C69.344 13.832 69.344 13.824 69.344 13.816C69.336 13.8 69.328 13.78 69.32 13.756C69.312 13.732 69.3 13.712 69.284 13.696C69.276 13.672 69.268 13.648 69.26 13.624C69.252 13.6 69.24 13.576 69.224 13.552L69.188 13.468L69.104 13.384C69.104 13.4 69.096 13.416 69.08 13.432C69.064 13.464 69.056 13.488 69.056 13.504L69.02 13.6C69.004 13.632 68.988 13.656 68.972 13.672C68.948 13.704 68.916 13.72 68.876 13.72C68.836 13.704 68.804 13.668 68.78 13.612C68.756 13.556 68.736 13.512 68.72 13.48C68.712 13.48 68.708 13.48 68.708 13.48C68.708 13.472 68.708 13.468 68.708 13.468C68.676 13.38 68.66 13.356 68.66 13.396C68.668 13.436 68.668 13.464 68.66 13.48V15.244C68.66 15.324 68.664 15.412 68.672 15.508C68.68 15.604 68.672 15.696 68.648 15.784C68.616 15.848 68.6 15.876 68.6 15.868L68.576 15.892C68.568 15.9 68.56 15.908 68.552 15.916C68.552 15.924 68.544 15.932 68.528 15.94C68.512 15.948 68.492 15.964 68.468 15.988C68.452 16.012 68.44 16.028 68.432 16.036C68.416 16.068 68.4 16.088 68.384 16.096C68.36 16.144 68.344 16.164 68.336 16.156C68.336 16.156 68.332 16.156 68.324 16.156C68.324 16.156 68.324 16.152 68.324 16.144C68.308 16.224 68.296 16.304 68.288 16.384C68.28 16.472 68.264 16.56 68.24 16.648C68.232 16.664 68.224 16.684 68.216 16.708C68.216 16.732 68.208 16.752 68.192 16.768C68.184 16.776 68.172 16.776 68.156 16.768C68.148 16.76 68.144 16.752 68.144 16.744C68.136 16.728 68.128 16.708 68.12 16.684C68.112 16.66 68.104 16.64 68.096 16.624C68.088 16.592 68.08 16.56 68.072 16.528C68.064 16.504 68.056 16.476 68.048 16.444C68.04 16.42 68.032 16.392 68.024 16.36C68.024 16.336 68.016 16.312 68 16.288L67.928 16.36C67.92 16.368 67.912 16.372 67.904 16.372C67.88 16.396 67.86 16.412 67.844 16.42C67.836 16.596 67.832 16.788 67.832 16.996C67.832 17.212 67.824 17.412 67.808 17.596C67.808 17.644 67.812 17.708 67.82 17.788C67.828 17.876 67.828 17.944 67.82 17.992C67.82 18.048 67.8 18.064 67.76 18.04C67.688 17.992 67.664 17.916 67.688 17.812C67.712 17.708 67.72 17.616 67.712 17.536C67.704 17.352 67.696 17.164 67.688 16.972C67.688 16.788 67.68 16.608 67.664 16.432C67.656 16.424 67.644 16.412 67.628 16.396C67.62 16.388 67.608 16.376 67.592 16.36C67.584 16.336 67.572 16.312 67.556 16.288C67.548 16.272 67.536 16.252 67.52 16.228C67.504 16.196 67.496 16.18 67.496 16.18C67.496 16.18 67.488 16.164 67.472 16.132C67.472 16.132 67.464 16.116 67.448 16.084C67.432 16.116 67.424 16.132 67.424 16.132C67.416 16.14 67.392 16.148 67.352 16.156C67.32 16.164 67.296 16.168 67.28 16.168C67.208 16.176 67.148 16.156 67.1 16.108C67.06 16.068 67.008 16.036 66.944 16.012C66.896 16.02 66.852 16.036 66.812 16.06C66.78 16.092 66.744 16.116 66.704 16.132C66.648 16.148 66.58 16.144 66.5 16.12L66.416 16.084H66.404C66.388 16.092 66.364 16.104 66.332 16.12C66.308 16.136 66.284 16.148 66.26 16.156C66.204 16.172 66.144 16.16 66.08 16.12C66.016 16.08 65.948 16.036 65.876 15.988C65.844 15.972 65.816 15.956 65.792 15.94C65.704 15.876 65.66 15.788 65.66 15.676V8.116C65.66 8.052 65.66 7.988 65.66 7.924C65.66 7.852 65.68 7.788 65.72 7.732C65.752 7.684 65.796 7.648 65.852 7.624C65.9 7.608 65.94 7.6 65.972 7.6C66.012 7.592 66.052 7.592 66.092 7.6C66.14 7.6 66.184 7.6 66.224 7.6H69.176C69.336 7.6 69.496 7.6 69.656 7.6C69.816 7.592 69.972 7.6 70.124 7.624C70.532 7.656 70.904 7.732 71.24 7.852C71.584 7.964 71.88 8.112 72.128 8.296C72.176 8.32 72.22 8.352 72.26 8.392C72.26 8.392 72.26 8.396 72.26 8.404C72.268 8.404 72.272 8.408 72.272 8.416C72.28 8.416 72.288 8.42 72.296 8.428C72.592 8.676 72.816 8.976 72.968 9.328C73.128 9.68 73.208 10.076 73.208 10.516C73.208 10.78 73.176 11.032 73.112 11.272C73.096 11.424 73.064 11.524 73.016 11.572C73 11.604 72.992 11.624 72.992 11.632C72.952 11.728 72.904 11.82 72.848 11.908C72.8 11.996 72.744 12.084 72.68 12.172C72.672 12.18 72.664 12.192 72.656 12.208C72.648 12.216 72.64 12.224 72.632 12.232C72.624 12.24 72.616 12.248 72.608 12.256C72.6 12.264 72.592 12.276 72.584 12.292L72.488 12.4C72.48 12.408 72.468 12.416 72.452 12.424C72.444 12.432 72.436 12.444 72.428 12.46C72.404 12.476 72.38 12.496 72.356 12.52C72.34 12.544 72.32 12.564 72.296 12.58C72.288 12.692 72.304 12.86 72.344 13.084C72.384 13.308 72.408 13.528 72.416 13.744C72.432 13.768 72.448 13.792 72.464 13.816C72.48 13.84 72.492 13.868 72.5 13.9C72.58 14.036 72.66 14.204 72.74 14.404L73.028 14.932C73.068 15.012 73.108 15.088 73.148 15.16C73.196 15.232 73.24 15.304 73.28 15.376C73.296 15.408 73.312 15.436 73.328 15.46C73.344 15.484 73.356 15.512 73.364 15.544C73.372 15.552 73.38 15.568 73.388 15.592C73.396 15.608 73.4 15.624 73.4 15.64C73.416 15.672 73.424 15.704 73.424 15.736ZM68.756 11.104H69.536C69.576 11.104 69.628 11.096 69.692 11.08C69.772 11.056 69.836 11.008 69.884 10.936C69.94 10.864 69.984 10.78 70.016 10.684C70.032 10.644 70.044 10.604 70.052 10.564C70.06 10.516 70.064 10.468 70.064 10.42C70.064 10.332 70.048 10.244 70.016 10.156C69.984 10.068 69.932 9.996 69.86 9.94C69.828 9.908 69.784 9.892 69.728 9.892C69.672 9.884 69.62 9.884 69.572 9.892C69.484 9.9 69.392 9.912 69.296 9.928C69.208 9.936 69.116 9.932 69.02 9.916C68.972 9.908 68.924 9.9 68.876 9.892C68.836 9.876 68.796 9.864 68.756 9.856C68.74 9.848 68.728 9.844 68.72 9.844C68.72 9.836 68.7 9.832 68.66 9.832V10.852C68.66 10.996 68.668 11.064 68.684 11.056C68.7 11.048 68.724 11.064 68.756 11.104ZM72.152 13.312C72.192 13.008 72.212 12.788 72.212 12.652C72.212 12.652 72.204 12.66 72.188 12.676C72.188 12.684 72.184 12.692 72.176 12.7C72.176 12.7 72.176 12.704 72.176 12.712C72.176 12.72 72.176 12.736 72.176 12.76C72.176 12.784 72.168 12.82 72.152 12.868C72.136 12.9 72.12 12.92 72.104 12.928C72.08 12.936 72.064 12.92 72.056 12.88C72.048 12.84 72.028 12.828 71.996 12.844C71.996 12.868 71.98 12.884 71.948 12.892C71.94 12.9 71.932 12.9 71.924 12.892C71.924 12.876 71.92 12.868 71.912 12.868L71.948 12.94C71.964 12.948 71.976 12.964 71.984 12.988C71.992 13.004 72 13.02 72.008 13.036L72.152 13.312ZM70.568 16.312C70.584 16.296 70.596 16.276 70.604 16.252C70.62 16.228 70.612 16.192 70.58 16.144C70.58 16.144 70.576 16.144 70.568 16.144C70.568 16.144 70.568 16.148 70.568 16.156C70.56 16.172 70.556 16.192 70.556 16.216C70.564 16.248 70.568 16.28 70.568 16.312ZM82.6482 15.484C82.6722 15.532 82.6922 15.584 82.7082 15.64C82.7322 15.688 82.7362 15.74 82.7202 15.796C82.7122 15.828 82.7002 15.856 82.6842 15.88C82.6682 15.896 82.6522 15.912 82.6362 15.928L82.6002 15.964C82.5922 15.98 82.5842 16 82.5762 16.024C82.5762 16.048 82.5682 16.068 82.5522 16.084C82.5442 16.108 82.5362 16.132 82.5282 16.156C82.5282 16.18 82.5202 16.204 82.5042 16.228C82.4962 16.252 82.4882 16.284 82.4802 16.324C82.4802 16.372 82.4722 16.388 82.4562 16.372C82.4322 16.348 82.4202 16.316 82.4202 16.276C82.4202 16.244 82.4202 16.212 82.4202 16.18C82.3882 16.22 82.3522 16.26 82.3122 16.3C82.2802 16.348 82.2482 16.392 82.2162 16.432C82.1602 16.52 82.1042 16.612 82.0482 16.708C81.9922 16.812 81.9402 16.912 81.8922 17.008C81.8602 17.072 81.8282 17.14 81.7962 17.212C81.7642 17.284 81.7282 17.352 81.6882 17.416C81.6402 17.496 81.6122 17.54 81.6042 17.548C81.5962 17.556 81.5682 17.584 81.5202 17.632H81.5082C81.5002 17.64 81.4842 17.652 81.4602 17.668C81.4522 17.74 81.4442 17.812 81.4362 17.884C81.4362 17.964 81.4282 18.04 81.4122 18.112C81.4042 18.128 81.3962 18.12 81.3882 18.088C81.3802 18.056 81.3722 18.032 81.3642 18.016C81.3562 17.952 81.3522 17.884 81.3522 17.812C81.3522 17.748 81.3442 17.684 81.3282 17.62C81.3042 17.596 81.2802 17.56 81.2562 17.512C81.2562 17.504 81.2522 17.496 81.2442 17.488C81.2202 17.432 81.1962 17.376 81.1722 17.32C81.1562 17.272 81.1362 17.22 81.1122 17.164C81.0722 17.084 81.0282 17.02 80.9802 16.972C80.9722 16.964 80.9642 16.96 80.9562 16.96C80.9562 16.96 80.9522 16.956 80.9442 16.948C80.9362 16.956 80.9282 16.964 80.9202 16.972C80.9122 16.98 80.9042 16.988 80.8962 16.996C80.8242 17.044 80.7922 17.076 80.8002 17.092C80.8162 17.108 80.8402 17.12 80.8722 17.128C80.9122 17.144 80.9322 17.168 80.9322 17.2C80.9322 17.24 80.8882 17.304 80.8002 17.392C80.7762 17.424 80.7642 17.4 80.7642 17.32C80.7642 17.248 80.7602 17.196 80.7522 17.164C80.7442 17.116 80.7362 17.064 80.7282 17.008C80.7282 16.96 80.7202 16.912 80.7042 16.864C80.6562 16.816 80.6202 16.76 80.5962 16.696C80.5722 16.656 80.5482 16.612 80.5242 16.564C80.5082 16.524 80.4922 16.484 80.4762 16.444L80.4402 16.348C80.4322 16.324 80.4162 16.3 80.3922 16.276C80.3762 16.26 80.3602 16.244 80.3442 16.228C80.3442 16.22 80.3442 16.22 80.3442 16.228C80.3282 16.228 80.2762 16.256 80.1882 16.312C80.1882 16.32 80.1922 16.32 80.2002 16.312C80.2082 16.304 80.2562 16.276 80.3442 16.228L80.3322 16.216L80.3082 16.192C80.2042 16.296 80.1602 16.348 80.1762 16.348C80.1922 16.348 80.2242 16.328 80.2722 16.288C80.3202 16.256 80.3482 16.232 80.3562 16.216C80.3642 16.2 80.3082 16.232 80.1882 16.312L80.1642 16.336C80.1562 16.328 80.1482 16.312 80.1402 16.288C80.1322 16.264 80.1282 16.26 80.1282 16.276C80.1122 16.324 80.1042 16.392 80.1042 16.48C80.1042 16.576 80.0962 16.604 80.0802 16.564C80.0642 16.524 80.0562 16.46 80.0562 16.372C80.0562 16.292 80.0482 16.216 80.0322 16.144C80.0082 16.104 79.9842 16.06 79.9602 16.012C79.9442 15.972 79.9242 15.932 79.9002 15.892C79.8842 15.892 79.8762 15.884 79.8762 15.868C79.8602 15.852 79.8402 15.832 79.8162 15.808C79.8002 15.784 79.7962 15.776 79.8042 15.784C79.7962 15.768 79.7882 15.752 79.7802 15.736C79.7722 15.72 79.7642 15.708 79.7562 15.7C79.7242 15.62 79.6962 15.54 79.6722 15.46C79.6482 15.38 79.6202 15.3 79.5882 15.22C79.5802 15.204 79.5762 15.192 79.5762 15.184C79.5762 15.176 79.5722 15.168 79.5642 15.16C79.5642 15.144 79.5562 15.12 79.5402 15.088C79.5402 15.072 79.5362 15.06 79.5282 15.052C79.5282 15.044 79.5242 15.032 79.5162 15.016C79.5162 15 79.5122 14.992 79.5042 14.992C79.5042 14.976 79.4962 14.952 79.4802 14.92C79.4802 14.912 79.4802 14.908 79.4802 14.908C79.4802 14.908 79.4642 14.908 79.4322 14.908C79.4242 14.924 79.4202 14.948 79.4202 14.98C79.4202 15.012 79.4042 15.036 79.3722 15.052C79.3562 15.092 79.3362 15.136 79.3122 15.184C79.2882 15.224 79.2642 15.264 79.2402 15.304C79.1842 15.408 79.1282 15.524 79.0722 15.652C79.0242 15.772 78.9722 15.9 78.9162 16.036C78.8842 16.132 78.8482 16.228 78.8082 16.324C78.7762 16.42 78.7402 16.508 78.7002 16.588C78.6682 16.66 78.6362 16.732 78.6042 16.804C78.5722 16.884 78.5362 16.956 78.4962 17.02C78.4882 17.036 78.4722 17.056 78.4482 17.08C78.4322 17.112 78.4082 17.128 78.3762 17.128C78.3442 17.136 78.3122 17.124 78.2802 17.092C78.2482 17.044 78.2202 16.992 78.1962 16.936C78.1802 16.88 78.1642 16.824 78.1482 16.768C78.1082 16.68 78.0722 16.576 78.0402 16.456C78.0082 16.336 77.9802 16.212 77.9562 16.084C77.9242 15.956 77.8922 15.832 77.8602 15.712C77.8362 15.592 77.8042 15.488 77.7642 15.4L77.7282 15.304C77.7202 15.288 77.7122 15.272 77.7042 15.256C77.7042 15.24 77.7002 15.22 77.6922 15.196C77.6762 15.164 77.6642 15.136 77.6562 15.112C77.6482 15.104 77.6402 15.096 77.6322 15.088C77.6242 15.072 77.6202 15.072 77.6202 15.088C77.6042 15.168 77.5962 15.256 77.5962 15.352C77.5962 15.44 77.5882 15.528 77.5722 15.616C77.5642 15.648 77.5562 15.64 77.5482 15.592C77.5402 15.536 77.5322 15.496 77.5242 15.472C77.4682 15.36 77.4522 15.292 77.4762 15.268C77.5002 15.244 77.5242 15.224 77.5482 15.208C77.5722 15.192 77.5522 15.14 77.4882 15.052C77.4802 15.052 77.4682 15.068 77.4522 15.1C77.4442 15.108 77.4402 15.116 77.4402 15.124C77.4402 15.132 77.4362 15.14 77.4282 15.148C77.4122 15.172 77.3962 15.196 77.3802 15.22C77.3642 15.236 77.3442 15.252 77.3202 15.268C77.3042 15.284 77.2922 15.292 77.2842 15.292C77.2762 15.38 77.2682 15.472 77.2602 15.568C77.2602 15.656 77.2522 15.744 77.2362 15.832C77.2362 15.84 77.2282 15.848 77.2122 15.856C77.1962 15.864 77.1882 15.864 77.1882 15.856C77.1722 15.76 77.1642 15.664 77.1642 15.568C77.1642 15.464 77.1562 15.36 77.1402 15.256C77.1002 15.216 77.0642 15.168 77.0322 15.112C77.0002 15.056 76.9722 15.012 76.9482 14.98C76.8762 14.836 76.8442 14.768 76.8522 14.776C76.8602 14.776 76.8722 14.8 76.8882 14.848C76.9042 14.904 76.9042 14.94 76.8882 14.956C76.8642 15.004 76.8522 15.032 76.8522 15.04C76.8442 15.064 76.8362 15.088 76.8282 15.112C76.8202 15.128 76.8122 15.148 76.8042 15.172C76.7882 15.22 76.7722 15.268 76.7562 15.316C76.7402 15.364 76.7242 15.408 76.7082 15.448L76.6362 15.652C76.6282 15.684 76.6162 15.716 76.6002 15.748C76.5842 15.772 76.5682 15.796 76.5522 15.82C76.5282 15.86 76.4962 15.892 76.4562 15.916C76.4402 15.932 76.4242 15.956 76.4082 15.988L76.3722 16.072C76.3562 16.136 76.3362 16.204 76.3122 16.276C76.2882 16.348 76.2642 16.416 76.2402 16.48C76.2402 16.488 76.2362 16.492 76.2282 16.492C76.2282 16.5 76.2282 16.504 76.2282 16.504C76.2202 16.56 76.2082 16.612 76.1922 16.66C76.1762 16.716 76.1602 16.772 76.1442 16.828C76.1362 16.836 76.1322 16.848 76.1322 16.864C76.1322 16.88 76.1282 16.896 76.1202 16.912C76.0962 17.008 76.0722 17.104 76.0482 17.2C76.0322 17.304 76.0082 17.4 75.9762 17.488C75.9602 17.568 75.9402 17.644 75.9162 17.716C75.8922 17.788 75.8682 17.86 75.8442 17.932C75.8362 17.964 75.8202 17.996 75.7962 18.028C75.7802 18.068 75.7642 18.108 75.7482 18.148L75.6762 18.244C75.6522 18.268 75.6202 18.288 75.5802 18.304C75.5722 18.392 75.5642 18.48 75.5562 18.568C75.5562 18.664 75.5482 18.756 75.5322 18.844C75.5242 18.86 75.5122 18.876 75.4962 18.892C75.4802 18.908 75.4722 18.912 75.4722 18.904C75.4562 18.792 75.4482 18.684 75.4482 18.58C75.4482 18.476 75.4402 18.372 75.4242 18.268C75.4082 18.252 75.3922 18.236 75.3762 18.22C75.3682 18.204 75.3562 18.192 75.3402 18.184L75.2322 18.064C75.2242 18.048 75.2122 18.032 75.1962 18.016C75.1882 18 75.1762 17.984 75.1602 17.968C75.1282 17.92 75.0922 17.872 75.0522 17.824C75.0202 17.776 74.9922 17.728 74.9682 17.68C74.8802 17.528 74.8042 17.372 74.7402 17.212C74.6762 17.06 74.6082 16.908 74.5362 16.756C74.5042 16.692 74.4722 16.624 74.4402 16.552C74.4082 16.488 74.3722 16.424 74.3322 16.36C74.3242 16.352 74.3162 16.344 74.3082 16.336C74.3082 16.328 74.3042 16.32 74.2962 16.312C74.2802 16.28 74.2602 16.252 74.2362 16.228C74.2042 16.196 74.1802 16.176 74.1642 16.168C74.1642 16.168 74.1602 16.164 74.1522 16.156C74.1522 16.156 74.1522 16.152 74.1522 16.144C74.1442 16.144 74.1402 16.14 74.1402 16.132C74.1402 16.132 74.1362 16.132 74.1282 16.132C74.1042 16.172 74.0882 16.216 74.0802 16.264C74.0802 16.312 74.0682 16.356 74.0442 16.396C74.0442 16.428 74.0322 16.444 74.0082 16.444C73.9762 16.452 73.9522 16.424 73.9362 16.36C73.9282 16.304 73.9242 16.284 73.9242 16.3C73.8922 16.468 73.8802 16.504 73.8882 16.408C73.9042 16.312 73.8962 16.176 73.8642 16C73.8562 15.992 73.8482 15.988 73.8402 15.988C73.8322 15.988 73.8242 15.984 73.8162 15.976C73.7922 15.968 73.7602 15.944 73.7202 15.904C73.7042 15.888 73.6882 15.864 73.6722 15.832C73.6562 15.8 73.6522 15.752 73.6602 15.688C73.6682 15.64 73.6802 15.592 73.6962 15.544C73.7122 15.496 73.7282 15.452 73.7442 15.412C73.7602 15.356 73.7762 15.308 73.7922 15.268C73.8162 15.22 73.8322 15.192 73.8402 15.184L74.2482 14.02C74.2882 13.86 74.3242 13.708 74.3562 13.564C74.3962 13.412 74.4402 13.288 74.4882 13.192C74.4882 13.184 74.4882 13.176 74.4882 13.168C74.4962 13.16 74.5002 13.152 74.5002 13.144C74.5162 13.112 74.5282 13.08 74.5362 13.048C74.5522 13.016 74.5682 12.984 74.5842 12.952C74.6002 12.92 74.6162 12.892 74.6322 12.868C74.6482 12.836 74.6602 12.812 74.6682 12.796L75.2922 11.008C75.3322 10.864 75.3682 10.728 75.4002 10.6C75.4402 10.464 75.4762 10.356 75.5082 10.276C75.5322 10.196 75.5522 10.12 75.5682 10.048C75.5922 9.968 75.6162 9.896 75.6402 9.832C75.6642 9.744 75.6922 9.664 75.7242 9.592C75.8122 9.328 75.8922 9.16 75.9642 9.088L76.1802 8.464L76.3482 7.996C76.3722 7.908 76.4282 7.82 76.5162 7.732C76.6042 7.644 76.7362 7.6 76.9122 7.6H79.4922C79.5882 7.6 79.6682 7.616 79.7322 7.648C79.7562 7.656 79.7922 7.676 79.8402 7.708C79.8962 7.748 79.9402 7.796 79.9722 7.852C80.0042 7.908 80.0322 7.968 80.0562 8.032C80.0562 8.048 80.0642 8.072 80.0802 8.104L80.1162 8.224C80.1242 8.24 80.1282 8.26 80.1282 8.284C80.1362 8.308 80.1442 8.328 80.1522 8.344L80.2602 8.608C80.2602 8.616 80.2602 8.624 80.2602 8.632C80.2682 8.632 80.2722 8.636 80.2722 8.644C80.2882 8.676 80.2962 8.704 80.2962 8.728C80.3202 8.784 80.3402 8.844 80.3562 8.908C80.3802 8.972 80.4002 9.036 80.4162 9.1C80.4242 9.116 80.4322 9.136 80.4402 9.16C80.4482 9.184 80.4562 9.204 80.4642 9.22L80.4882 9.304C80.5362 9.352 80.5882 9.448 80.6442 9.592C80.7082 9.728 80.7722 9.896 80.8362 10.096L80.8722 10.216C80.9282 10.344 80.9762 10.476 81.0162 10.612C81.0642 10.748 81.1042 10.884 81.1362 11.02C81.1762 11.1 81.2162 11.212 81.2562 11.356C81.2962 11.5 81.3322 11.652 81.3642 11.812L81.9522 13.48C82.0002 13.56 82.0482 13.68 82.0962 13.84C82.1522 13.992 82.2082 14.164 82.2642 14.356C82.2802 14.396 82.2922 14.436 82.3002 14.476C82.3162 14.516 82.3282 14.556 82.3362 14.596L82.6002 15.352C82.6242 15.392 82.6402 15.436 82.6482 15.484ZM78.1722 10.384C78.1722 10.392 78.1682 10.404 78.1602 10.42C78.1522 10.436 78.1482 10.452 78.1482 10.468C78.1322 10.524 78.1122 10.58 78.0882 10.636C78.0722 10.692 78.0562 10.752 78.0402 10.816L77.7642 11.752C77.7562 11.784 77.7482 11.816 77.7402 11.848C77.7322 11.872 77.7202 11.904 77.7042 11.944C77.6962 11.992 77.6842 12.044 77.6682 12.1C77.6522 12.148 77.6362 12.2 77.6202 12.256C77.6122 12.288 77.6042 12.32 77.5962 12.352C77.5882 12.384 77.5762 12.416 77.5602 12.448C77.5522 12.456 77.5482 12.468 77.5482 12.484C77.5482 12.492 77.5442 12.504 77.5362 12.52C77.5362 12.52 77.5362 12.524 77.5362 12.532C77.5362 12.532 77.5322 12.532 77.5242 12.532C77.5242 12.54 77.5202 12.548 77.5122 12.556C77.5122 12.556 77.5122 12.56 77.5122 12.568H78.5442C78.5842 12.568 78.6242 12.568 78.6642 12.568C78.7042 12.56 78.7402 12.56 78.7722 12.568H78.8682L78.8322 12.436C78.8162 12.396 78.8042 12.36 78.7962 12.328C78.7882 12.288 78.7762 12.252 78.7602 12.22L78.7242 12.112C78.6922 12.024 78.6602 11.928 78.6282 11.824C78.6042 11.712 78.5762 11.604 78.5442 11.5C78.5362 11.492 78.5322 11.476 78.5322 11.452L78.3282 10.816L78.2562 10.564C78.2562 10.564 78.2482 10.548 78.2322 10.516C78.2242 10.476 78.2162 10.44 78.2082 10.408C78.2002 10.4 78.1962 10.396 78.1962 10.396C78.1962 10.388 78.1882 10.384 78.1722 10.384ZM90.9508 10.648C90.9508 10.792 90.9388 10.936 90.9148 11.08C90.8988 11.232 90.8748 11.372 90.8428 11.5C90.8108 11.628 90.7668 11.728 90.7108 11.8C90.7028 11.824 90.6908 11.848 90.6748 11.872C90.6668 11.896 90.6548 11.916 90.6388 11.932C90.5988 12.004 90.5548 12.076 90.5068 12.148C90.4668 12.22 90.4188 12.288 90.3628 12.352C90.3548 12.36 90.3428 12.372 90.3268 12.388C90.3188 12.396 90.3068 12.408 90.2908 12.424L90.2068 12.508C90.1748 12.532 90.1308 12.572 90.0748 12.628C90.0588 12.644 90.0468 12.66 90.0388 12.676C90.0228 12.708 90.0148 12.728 90.0148 12.736L89.9428 12.916C89.9108 12.996 89.8788 13.076 89.8468 13.156C89.8228 13.236 89.7908 13.316 89.7508 13.396L89.7148 13.48C89.6908 13.528 89.6668 13.564 89.6428 13.588C89.6348 13.612 89.6148 13.64 89.5828 13.672C89.5508 13.688 89.5308 13.696 89.5228 13.696C89.5148 13.752 89.5068 13.812 89.4987 13.876C89.4987 13.932 89.4908 13.992 89.4748 14.056C89.4668 14.072 89.4588 14.092 89.4508 14.116C89.4428 14.14 89.4308 14.152 89.4148 14.152C89.3988 14.16 89.3868 14.152 89.3788 14.128C89.3788 14.096 89.3748 14.076 89.3668 14.068C89.3508 14.02 89.3388 13.968 89.3307 13.912C89.3307 13.856 89.3148 13.812 89.2828 13.78L89.2468 13.816C89.2308 13.832 89.2068 13.864 89.1748 13.912C89.1428 13.96 89.1028 14.004 89.0547 14.044C89.0388 14.196 89.0428 14.352 89.0668 14.512C89.0908 14.664 89.0708 14.808 89.0068 14.944C88.9748 15.008 88.9548 14.996 88.9468 14.908C88.9468 14.812 88.9508 14.696 88.9588 14.56C88.9668 14.416 88.9668 14.308 88.9588 14.236C88.9508 14.124 88.9388 14.06 88.9228 14.044C88.9148 14.028 88.8948 13.992 88.8628 13.936C88.8308 13.896 88.7988 13.852 88.7668 13.804C88.7428 13.756 88.7108 13.716 88.6708 13.684C88.6628 13.716 88.6508 13.748 88.6348 13.78C88.6268 13.812 88.6228 13.848 88.6228 13.888C88.6148 13.976 88.6068 14.108 88.5988 14.284C88.5988 14.46 88.5988 14.648 88.5988 14.848C88.5988 15.04 88.5948 15.224 88.5868 15.4C88.5868 15.576 88.5828 15.708 88.5748 15.796C88.5748 15.796 88.5708 15.848 88.5628 15.952C88.5628 16.048 88.5548 16.164 88.5388 16.3C88.5308 16.436 88.5228 16.564 88.5148 16.684C88.5068 16.804 88.4948 16.888 88.4788 16.936C88.4788 16.944 88.4708 16.944 88.4548 16.936C88.4468 16.928 88.4428 16.92 88.4428 16.912C88.4268 16.848 88.4148 16.78 88.4068 16.708C88.4068 16.636 88.4028 16.564 88.3948 16.492C88.3868 16.364 88.3788 16.236 88.3708 16.108C88.3628 15.98 88.3548 15.852 88.3468 15.724C88.3388 15.564 88.3308 15.404 88.3228 15.244C88.3148 15.076 88.3068 14.912 88.2988 14.752C88.2908 14.576 88.2828 14.404 88.2748 14.236C88.2748 14.06 88.2668 13.884 88.2508 13.708C88.2588 13.716 88.2508 13.708 88.2268 13.684C88.2108 13.652 88.1948 13.632 88.1788 13.624C88.1628 13.592 88.1428 13.564 88.1188 13.54C88.1028 13.508 88.0828 13.476 88.0588 13.444L88.0348 13.42C88.0348 13.428 88.0268 13.448 88.0108 13.48C87.9948 13.52 87.9308 13.576 87.8188 13.648C87.8108 13.648 87.8028 13.656 87.7948 13.672C87.7868 13.68 87.7788 13.68 87.7708 13.672C87.7628 13.656 87.7548 13.636 87.7468 13.612C87.7468 13.588 87.7468 13.568 87.7468 13.552C87.7308 13.552 87.7228 13.56 87.7228 13.576C87.7148 13.632 87.7068 13.692 87.6988 13.756C87.6988 13.82 87.6908 13.884 87.6748 13.948C87.6668 13.996 87.6508 14.044 87.6268 14.092C87.6108 14.14 87.5948 14.192 87.5788 14.248L87.4348 14.776C87.4268 14.824 87.4108 14.876 87.3868 14.932C87.3708 14.988 87.3548 15.036 87.3388 15.076C87.3308 15.092 87.3188 15.116 87.3028 15.148C87.2868 15.18 87.2668 15.204 87.2428 15.22C87.2028 15.244 87.1668 15.224 87.1348 15.16C87.1028 15.096 87.0788 15.052 87.0628 15.028C87.0548 15.012 87.0428 14.996 87.0268 14.98C87.0188 14.964 87.0108 14.948 87.0028 14.932C86.9948 14.764 86.9868 14.596 86.9788 14.428C86.9788 14.26 86.9708 14.088 86.9548 13.912C86.9548 13.904 86.9508 13.9 86.9428 13.9C86.9348 13.9 86.9268 13.896 86.9188 13.888L86.8348 13.816C86.7868 13.776 86.7428 13.732 86.7028 13.684C86.6708 13.628 86.6348 13.572 86.5948 13.516C86.5708 13.484 86.5468 13.452 86.5228 13.42L86.4988 13.432V15.304C86.5068 15.376 86.5108 15.448 86.5108 15.52C86.5188 15.592 86.5148 15.664 86.4988 15.736V15.76C86.4908 15.768 86.4868 15.776 86.4868 15.784C86.4788 15.816 86.4628 15.844 86.4388 15.868C86.4068 15.908 86.3588 15.948 86.2948 15.988L86.1988 16.132C86.1908 16.14 86.1708 16.156 86.1388 16.18C86.1148 16.212 86.0988 16.228 86.0908 16.228C86.0828 16.332 86.0748 16.436 86.0668 16.54C86.0668 16.652 86.0588 16.76 86.0428 16.864C86.0348 16.936 86.0308 17.008 86.0308 17.08C86.0308 17.16 86.0228 17.236 86.0068 17.308C85.9988 17.332 85.9948 17.364 85.9948 17.404C86.0028 17.444 85.9908 17.46 85.9588 17.452C85.9348 17.452 85.9228 17.432 85.9228 17.392C85.9308 17.36 85.9308 17.328 85.9228 17.296C85.8988 17.152 85.8867 17.04 85.8867 16.96C85.8867 16.888 85.8828 16.812 85.8748 16.732C85.8748 16.66 85.8548 16.556 85.8148 16.42L85.6948 16.54H85.6828C85.6668 16.556 85.6548 16.564 85.6468 16.564C85.6388 16.58 85.6348 16.596 85.6348 16.612C85.6348 16.628 85.6268 16.64 85.6108 16.648C85.6028 16.648 85.5948 16.64 85.5868 16.624C85.5868 16.608 85.5788 16.596 85.5628 16.588C85.5468 16.604 85.5348 16.624 85.5268 16.648C85.5268 16.672 85.5188 16.692 85.5028 16.708C85.4948 16.716 85.4908 16.728 85.4908 16.744C85.4908 16.76 85.4828 16.772 85.4668 16.78C85.4348 16.78 85.4188 16.76 85.4188 16.72C85.4108 16.68 85.4028 16.64 85.3948 16.6C85.3948 16.568 85.3868 16.536 85.3708 16.504C85.3708 16.496 85.3668 16.492 85.3588 16.492C85.3588 16.492 85.3588 16.488 85.3588 16.48C85.3268 16.456 85.2988 16.428 85.2748 16.396C85.2508 16.364 85.2268 16.332 85.2028 16.3L85.1068 16.168L85.0828 16.144C85.0748 16.128 85.0668 16.116 85.0588 16.108C85.0508 16.1 85.0388 16.092 85.0228 16.084L84.9868 16.156C84.9468 16.22 84.8948 16.292 84.8308 16.372C84.7668 16.46 84.6908 16.512 84.6028 16.528C84.5068 16.552 84.4628 16.52 84.4708 16.432C84.4788 16.344 84.4788 16.256 84.4708 16.168L84.3988 16.24C84.3988 16.248 84.3868 16.26 84.3628 16.276C84.3548 16.284 84.3468 16.288 84.3388 16.288C84.3388 16.288 84.3348 16.292 84.3268 16.3C84.3188 16.316 84.3108 16.336 84.3027 16.36C84.3027 16.384 84.2948 16.404 84.2788 16.42C84.2468 16.452 84.2268 16.456 84.2188 16.432C84.2028 16.408 84.1948 16.38 84.1948 16.348C84.1948 16.324 84.1868 16.296 84.1708 16.264C84.1628 16.256 84.1508 16.244 84.1348 16.228C84.1268 16.22 84.1148 16.208 84.0988 16.192L84.0268 16.084C84.0188 16.108 84.0148 16.132 84.0148 16.156C84.0148 16.188 84.0068 16.212 83.9908 16.228C83.9828 16.236 83.9668 16.228 83.9428 16.204C83.9268 16.196 83.9108 16.184 83.8948 16.168L83.7628 16.06C83.7148 16.076 83.6868 16.076 83.6788 16.06C83.6548 16.012 83.6388 15.992 83.6308 16C83.6228 16 83.6108 15.996 83.5948 15.988C83.5628 15.972 83.5348 15.956 83.5107 15.94C83.4228 15.876 83.3788 15.788 83.3788 15.676V7.972C83.3788 7.932 83.3788 7.892 83.3788 7.852C83.3868 7.804 83.4068 7.764 83.4388 7.732C83.4628 7.684 83.5108 7.648 83.5828 7.624C83.6308 7.608 83.6668 7.6 83.6908 7.6C83.7068 7.592 83.7428 7.592 83.7988 7.6C83.8548 7.6 83.9068 7.6 83.9548 7.6H85.1548C85.2508 7.6 85.4188 7.6 85.6588 7.6C85.8988 7.6 86.1628 7.6 86.4508 7.6C86.7388 7.592 86.9988 7.592 87.2308 7.6H87.3388C87.4908 7.6 87.6388 7.608 87.7828 7.624C87.9268 7.632 88.0668 7.644 88.2028 7.66C88.3628 7.668 88.5228 7.688 88.6828 7.72C88.8508 7.744 88.9908 7.78 89.1028 7.828C89.2068 7.868 89.2788 7.908 89.3188 7.948C89.3188 7.948 89.3348 7.956 89.3668 7.972C89.3748 7.972 89.3788 7.976 89.3788 7.984C89.5948 8.08 89.7908 8.192 89.9668 8.32C89.9908 8.328 90.0068 8.34 90.0148 8.356C90.0308 8.372 90.0508 8.392 90.0748 8.416C90.1788 8.512 90.2788 8.612 90.3748 8.716C90.3988 8.748 90.4228 8.78 90.4468 8.812C90.4708 8.836 90.4948 8.868 90.5188 8.908C90.5428 8.94 90.5628 8.976 90.5788 9.016C90.6028 9.048 90.6228 9.084 90.6388 9.124C90.7508 9.34 90.8308 9.568 90.8788 9.808C90.9268 10.04 90.9508 10.292 90.9508 10.564V10.648ZM86.4388 9.832V10.936C86.6228 10.792 86.8348 10.684 87.0748 10.612C87.3148 10.54 87.5548 10.5 87.7948 10.492C87.8188 10.324 87.7868 10.172 87.6988 10.036C87.6908 10.02 87.6748 10 87.6508 9.976C87.6268 9.952 87.6068 9.936 87.5908 9.928L87.5308 9.892C87.4828 9.876 87.4308 9.872 87.3748 9.88C87.3268 9.888 87.2788 9.896 87.2308 9.904C87.1748 9.912 87.1188 9.92 87.0628 9.928C87.0148 9.928 86.9628 9.924 86.9068 9.916C86.8508 9.908 86.7948 9.9 86.7388 9.892C86.6908 9.876 86.6388 9.864 86.5828 9.856C86.5828 9.856 86.5668 9.856 86.5348 9.856C86.5108 9.848 86.4788 9.84 86.4388 9.832Z" fill="white"/>
</g>
<defs>
<filter id="filter0_d_193_26" x="0.900024" y="0.899902" width="108.2" height="30.1934" filterUnits="userSpaceOnUse" color-interpolation-filters="sRGB">
<feFlood flood-opacity="0" result="BackgroundImageFix"/>
<feColorMatrix in="SourceAlpha" type="matrix" values="0 0 0 0 0 0 0 0 0 0 0 0 0 0 0 0 0 0 127 0" result="hardAlpha"/>
<feOffset dy="4"/>
<feGaussianBlur stdDeviation="2"/>
<feComposite in2="hardAlpha" operator="out"/>
<feColorMatrix type="matrix" values="0 0 0 0 0 0 0 0 0 0 0 0 0 0 0 0 0 0 0.25 0"/>
<feBlend mode="normal" in2="BackgroundImageFix" result="effect1_dropShadow_193_26"/>
<feBlend mode="normal" in="SourceGraphic" in2="effect1_dropShadow_193_26" result="shape"/>
</filter>
<linearGradient id="paint0_linear_193_26" x1="56.1365" y1="1" x2="56.1365" y2="21.7676" gradientUnits="userSpaceOnUse">
<stop stop-color="#D9F049"/>
<stop offset="0.416667" stop-color="#D7F67F" stop-opacity="0.583333"/>
<stop offset="1" stop-color="#7EFF7B"/>
</linearGradient>
</defs>
</svg>
