<svg width="170" height="40" viewBox="0 0 170 40" fill="none" xmlns="http://www.w3.org/2000/svg">
<rect width="170" height="40" fill="black"/>
<path d="M9.85547 12.4883H17.5312C18.612 12.4883 19.556 12.5794 20.3633 12.7617C21.1771 12.944 21.8542 13.2044 22.3945 13.543C22.9414 13.875 23.3516 14.2786 23.625 14.7539C23.8984 15.2227 24.0352 15.7467 24.0352 16.3262C24.0352 16.9056 23.8724 17.4525 23.5469 17.9668C23.2279 18.4746 22.7591 18.9141 22.1406 19.2852C23.1562 19.5781 23.9147 20.0078 24.416 20.5742C24.9173 21.1406 25.168 21.834 25.168 22.6543C25.168 23.2142 25.0312 23.7546 24.7578 24.2754C24.4909 24.7962 24.0872 25.2585 23.5469 25.6621C23.013 26.0658 22.3424 26.3913 21.5352 26.6387C20.7279 26.8796 19.7839 27 18.7031 27H9.85547V12.4883ZM16.1055 18.3867C16.6393 18.3867 17.0885 18.3379 17.4531 18.2402C17.8177 18.1361 18.1074 17.9961 18.3223 17.8203C18.5436 17.6445 18.6999 17.4427 18.791 17.2148C18.8887 16.987 18.9375 16.7493 18.9375 16.502C18.9375 16.2546 18.8887 16.0169 18.791 15.7891C18.6999 15.5612 18.5436 15.3626 18.3223 15.1934C18.1074 15.0176 17.8177 14.8776 17.4531 14.7734C17.0885 14.6693 16.6393 14.6172 16.1055 14.6172H15.5098L15.5 18.3867H16.1055ZM16.1055 24.8711C16.6849 24.8711 17.1732 24.8092 17.5703 24.6855C17.9674 24.5618 18.2897 24.3926 18.5371 24.1777C18.7845 23.9629 18.9635 23.7122 19.0742 23.4258C19.1849 23.1328 19.2402 22.8203 19.2402 22.4883C19.2402 22.1953 19.1816 21.9089 19.0645 21.6289C18.9473 21.349 18.7715 21.1016 18.5371 20.8867C18.3092 20.6654 18.026 20.4896 17.6875 20.3594C17.349 20.2227 16.9583 20.1543 16.5156 20.1543H15.5V24.8711H16.1055ZM27.0137 19.7148C27.0137 18.6146 27.1895 17.6087 27.541 16.6973C27.8926 15.7793 28.4167 14.9915 29.1133 14.334C29.8099 13.6764 30.679 13.1654 31.7207 12.8008C32.7624 12.4362 33.9733 12.2539 35.3535 12.2539C36.7337 12.2539 37.9447 12.4362 38.9863 12.8008C40.028 13.1654 40.8971 13.6764 41.5938 14.334C42.2904 14.9915 42.8145 15.7793 43.166 16.6973C43.5176 17.6087 43.6934 18.6146 43.6934 19.7148C43.6934 20.8281 43.5176 21.847 43.166 22.7715C42.8145 23.696 42.2904 24.487 41.5938 25.1445C40.8971 25.8021 40.028 26.3132 38.9863 26.6777C37.9447 27.0423 36.7337 27.2246 35.3535 27.2246C33.9733 27.2246 32.7624 27.0423 31.7207 26.6777C30.679 26.3132 29.8099 25.8021 29.1133 25.1445C28.4167 24.487 27.8926 23.696 27.541 22.7715C27.1895 21.847 27.0137 20.8281 27.0137 19.7148ZM35.3535 25.2031C35.7441 25.2031 36.0892 25.1348 36.3887 24.998C36.6882 24.8613 36.9388 24.5944 37.1406 24.1973C37.3424 23.8001 37.4954 23.2435 37.5996 22.5273C37.7038 21.8112 37.7559 20.8737 37.7559 19.7148C37.7559 18.569 37.7038 17.6413 37.5996 16.9316C37.4954 16.222 37.3424 15.6719 37.1406 15.2812C36.9388 14.8906 36.6882 14.627 36.3887 14.4902C36.0892 14.3535 35.7441 14.2852 35.3535 14.2852C34.9629 14.2852 34.6146 14.3535 34.3086 14.4902C34.0091 14.627 33.7585 14.8906 33.5566 15.2812C33.3548 15.6719 33.2018 16.222 33.0977 16.9316C32.9935 17.6413 32.9414 18.569 32.9414 19.7148C32.9414 20.8737 32.9935 21.8112 33.0977 22.5273C33.2018 23.2435 33.3548 23.8001 33.5566 24.1973C33.7585 24.5944 34.0091 24.8613 34.3086 24.998C34.6146 25.1348 34.9629 25.2031 35.3535 25.2031ZM45.7051 19.7148C45.7051 18.6146 45.8809 17.6087 46.2324 16.6973C46.584 15.7793 47.1081 14.9915 47.8047 14.334C48.5013 13.6764 49.3704 13.1654 50.4121 12.8008C51.4538 12.4362 52.6647 12.2539 54.0449 12.2539C55.4251 12.2539 56.6361 12.4362 57.6777 12.8008C58.7194 13.1654 59.5885 13.6764 60.2852 14.334C60.9818 14.9915 61.5059 15.7793 61.8574 16.6973C62.209 17.6087 62.3848 18.6146 62.3848 19.7148C62.3848 20.8281 62.209 21.847 61.8574 22.7715C61.5059 23.696 60.9818 24.487 60.2852 25.1445C59.5885 25.8021 58.7194 26.3132 57.6777 26.6777C56.6361 27.0423 55.4251 27.2246 54.0449 27.2246C52.6647 27.2246 51.4538 27.0423 50.4121 26.6777C49.3704 26.3132 48.5013 25.8021 47.8047 25.1445C47.1081 24.487 46.584 23.696 46.2324 22.7715C45.8809 21.847 45.7051 20.8281 45.7051 19.7148ZM54.0449 25.2031C54.4355 25.2031 54.7806 25.1348 55.0801 24.998C55.3796 24.8613 55.6302 24.5944 55.832 24.1973C56.0339 23.8001 56.1868 23.2435 56.291 22.5273C56.3952 21.8112 56.4473 20.8737 56.4473 19.7148C56.4473 18.569 56.3952 17.6413 56.291 16.9316C56.1868 16.222 56.0339 15.6719 55.832 15.2812C55.6302 14.8906 55.3796 14.627 55.0801 14.4902C54.7806 14.3535 54.4355 14.2852 54.0449 14.2852C53.6543 14.2852 53.306 14.3535 53 14.4902C52.7005 14.627 52.4499 14.8906 52.248 15.2812C52.0462 15.6719 51.8932 16.222 51.7891 16.9316C51.6849 17.6413 51.6328 18.569 51.6328 19.7148C51.6328 20.8737 51.6849 21.8112 51.7891 22.5273C51.8932 23.2435 52.0462 23.8001 52.248 24.1973C52.4499 24.5944 52.7005 24.8613 53 24.998C53.306 25.1348 53.6543 25.2031 54.0449 25.2031ZM67.7949 14.7148H63.6543V12.4785H77.5801V14.7148H73.4395V27H67.7949V14.7148ZM79.8945 23.7773C80.5846 24.1289 81.3073 24.3926 82.0625 24.5684C82.8177 24.7441 83.5208 24.832 84.1719 24.832C84.9206 24.832 85.4674 24.7246 85.8125 24.5098C86.1641 24.2949 86.3398 24.002 86.3398 23.6309C86.3398 23.5137 86.3171 23.3932 86.2715 23.2695C86.2324 23.1458 86.151 23.0254 86.0273 22.9082C85.9102 22.7845 85.7441 22.6641 85.5293 22.5469C85.321 22.4232 85.0475 22.3027 84.709 22.1855L82.9609 21.5898C81.7109 21.1602 80.7702 20.5807 80.1387 19.8516C79.5072 19.1159 79.1914 18.2435 79.1914 17.2344C79.1914 16.5833 79.3281 15.9583 79.6016 15.3594C79.875 14.7539 80.2884 14.2233 80.8418 13.7676C81.3952 13.3053 82.0918 12.9375 82.9316 12.6641C83.778 12.3906 84.7676 12.2539 85.9004 12.2539C86.4603 12.2539 86.9974 12.2865 87.5117 12.3516C88.026 12.4167 88.5078 12.5013 88.957 12.6055C89.4128 12.7096 89.8294 12.8301 90.207 12.9668C90.5846 13.097 90.9167 13.2272 91.2031 13.3574L90.1484 15.2617C89.9401 15.1315 89.7188 15.0176 89.4844 14.9199C89.2565 14.8223 89.0254 14.7409 88.791 14.6758C88.5632 14.6107 88.3385 14.5618 88.1172 14.5293C87.8958 14.4967 87.694 14.4805 87.5117 14.4805C87.1992 14.4805 86.9258 14.5228 86.6914 14.6074C86.457 14.6855 86.2585 14.793 86.0957 14.9297C85.9395 15.0599 85.819 15.2096 85.7344 15.3789C85.6562 15.5417 85.6172 15.7044 85.6172 15.8672C85.6172 16.0104 85.6497 16.1504 85.7148 16.2871C85.7865 16.4173 85.9036 16.5475 86.0664 16.6777C86.2357 16.8014 86.4538 16.9284 86.7207 17.0586C86.9941 17.1823 87.3327 17.3125 87.7363 17.4492L88.9082 17.8398C90.1777 18.263 91.1478 18.8457 91.8184 19.5879C92.4889 20.3301 92.8242 21.2285 92.8242 22.2832C92.8242 22.9993 92.6615 23.6602 92.3359 24.2656C92.0169 24.8711 91.5384 25.3952 90.9004 25.8379C90.2624 26.2741 89.4681 26.6159 88.5176 26.8633C87.5736 27.1042 86.4766 27.2246 85.2266 27.2246C84.6276 27.2246 84.0482 27.1921 83.4883 27.127C82.9349 27.0684 82.3913 26.9772 81.8574 26.8535C81.3301 26.7298 80.8092 26.5736 80.2949 26.3848C79.7806 26.196 79.2663 25.9746 78.752 25.7207L79.8945 23.7773ZM98.0879 14.7148H93.9473V12.4785H107.873V14.7148H103.732V27H98.0879V14.7148ZM109.992 12.4883H118.361C119.442 12.4883 120.386 12.6022 121.193 12.8301C122.007 13.0579 122.684 13.377 123.225 13.7871C123.771 14.1973 124.182 14.6888 124.455 15.2617C124.729 15.8346 124.865 16.4661 124.865 17.1562C124.865 18.0091 124.663 18.7676 124.26 19.4316C123.856 20.0892 123.257 20.6133 122.463 21.0039L125.51 27.0098H119.133L116.828 21.7363H115.637V27H109.992V12.4883ZM115.979 19.9688C116.441 19.9688 116.854 19.9036 117.219 19.7734C117.583 19.6432 117.893 19.4609 118.146 19.2266C118.4 18.9857 118.596 18.7025 118.732 18.377C118.869 18.0449 118.938 17.6836 118.938 17.293C118.938 16.9023 118.869 16.5443 118.732 16.2188C118.596 15.8867 118.4 15.6035 118.146 15.3691C117.893 15.1283 117.583 14.9427 117.219 14.8125C116.854 14.6823 116.441 14.6172 115.979 14.6172H115.646L115.637 19.9688H115.979ZM132.229 16.1504L130.549 12.4883H136.496L143.605 27.0098H137.229L136.154 24.6855H130.432L129.367 27.0098H126.896L132.229 16.1504ZM135.129 22.4492L133.293 18.4648L131.467 22.4492H135.129ZM145.598 12.4883H152.58C153.869 12.4818 154.979 12.5957 155.91 12.8301C156.848 13.0579 157.619 13.3867 158.225 13.8164C158.83 14.2461 159.276 14.7637 159.562 15.3691C159.855 15.9681 160.002 16.6354 160.002 17.3711C160.002 18.0156 159.865 18.6341 159.592 19.2266C159.325 19.8125 158.908 20.3301 158.342 20.7793C157.782 21.2285 157.066 21.5866 156.193 21.8535C155.327 22.1204 154.296 22.2539 153.098 22.2539H151.242V27H145.598V12.4883ZM151.242 20.125C151.691 20.1185 152.092 20.0501 152.443 19.9199C152.795 19.7832 153.091 19.5977 153.332 19.3633C153.573 19.1224 153.755 18.8359 153.879 18.5039C154.009 18.1654 154.074 17.7878 154.074 17.3711C154.074 16.9609 154.009 16.5898 153.879 16.2578C153.749 15.9258 153.56 15.6426 153.312 15.4082C153.072 15.1673 152.775 14.9785 152.424 14.8418C152.079 14.7051 151.685 14.6302 151.242 14.6172V20.125Z" fill="white"/>
</svg>
