<svg width="170" height="40" viewBox="0 0 170 40" fill="none" xmlns="http://www.w3.org/2000/svg">
<rect width="170" height="40" fill="black"/>
<path d="M8.73828 25.1914L8.71875 23.209V11.7441C8.71875 11.347 8.59505 11.0247 8.34766 10.7773L8.54297 10.582C8.79036 10.8294 9.11263 10.9531 9.50977 10.9531H17.9375C19.2852 10.9531 20.1966 10.9922 20.6719 11.0703C21.1536 11.1484 21.5736 11.2363 21.9316 11.334C22.2897 11.4251 22.5892 11.5358 22.8301 11.666C23.071 11.7962 23.3184 11.9622 23.5723 12.1641C23.8262 12.3659 24.028 12.5938 24.1777 12.8477C24.5228 13.4336 24.6953 14.0911 24.6953 14.8203C24.6953 15.543 24.6139 16.1615 24.4512 16.6758C24.2949 17.1836 24.041 17.6393 23.6895 18.043C22.9603 18.8893 21.7201 19.3125 19.9688 19.3125H14.5879C14.1842 19.3125 13.8587 19.1888 13.6113 18.9414L13.4062 19.127C13.6667 19.3874 13.7969 19.7129 13.7969 20.1035V23.209C13.7969 23.7103 13.7904 24.3255 13.7773 25.0547L13.3379 25.0938C13.2533 24.3646 13.1426 24 13.0059 24H9.50977C9.43164 24 9.36654 24.1562 9.31445 24.4688C9.26888 24.7878 9.24609 25.0905 9.24609 25.377C9.24609 25.6699 9.30794 26.1647 9.43164 26.8613C9.55534 27.5579 9.61719 28.0462 9.61719 28.3262C9.61719 28.9251 9.39909 29.2246 8.96289 29.2246C8.52669 29.2246 8.30859 28.9186 8.30859 28.3066C8.30859 28.0137 8.38021 27.4961 8.52344 26.7539C8.66667 26.0117 8.73828 25.4909 8.73828 25.1914ZM13.7969 15.0059V15.582C13.7969 15.9661 13.6667 16.2884 13.4062 16.5488L13.6113 16.7539C13.8652 16.5 14.1908 16.373 14.5879 16.373H17.752C18.4095 16.373 18.8034 16.3372 18.9336 16.2656C19.0638 16.1875 19.1745 16.1094 19.2656 16.0312C19.4219 15.888 19.5 15.6829 19.5 15.416C19.5 15.1491 19.4707 14.9538 19.4121 14.8301C19.36 14.6999 19.2819 14.599 19.1777 14.5273C19.0736 14.4557 18.9694 14.3971 18.8652 14.3516C18.7611 14.306 18.6341 14.2734 18.4844 14.2539C18.276 14.2279 18.0449 14.2148 17.791 14.2148H14.5879C14.1842 14.2148 13.8587 14.0911 13.6113 13.8438L13.4062 14.0293C13.6667 14.2897 13.7969 14.6152 13.7969 15.0059ZM11.4531 24.6641L11.707 26.9785C11.707 27.3757 11.5605 27.5742 11.2676 27.5742C10.9811 27.5742 10.8379 27.3724 10.8379 26.9688C10.8379 26.7344 10.8965 26.3242 11.0137 25.7383C11.1374 25.1589 11.1992 24.778 11.1992 24.5957C11.1992 24.4199 11.196 24.1921 11.1895 23.9121C11.1895 23.6322 11.1895 23.3978 11.1895 23.209L11.6289 23.7266C11.5833 23.7266 11.541 23.8307 11.502 24.0391C11.4694 24.2539 11.4531 24.4622 11.4531 24.6641ZM35.4473 25.582L35.5156 24.6445C35.5156 24.4818 35.4375 24.3548 35.2812 24.2637C35.125 24.179 34.9557 24.1367 34.7734 24.1367C34.5911 24.1367 34.4284 24.1855 34.2852 24.2832C34.1419 24.3809 34.0703 24.5208 34.0703 24.7031V26.9492C34.0703 27.2747 34.1387 27.7533 34.2754 28.3848C34.4121 29.0163 34.4805 29.4655 34.4805 29.7324C34.4805 30.0059 34.4219 30.2305 34.3047 30.4062C34.1875 30.582 34.0247 30.6699 33.8164 30.6699C33.6146 30.6699 33.4616 30.5788 33.3574 30.3965C33.2533 30.2142 33.2012 29.9766 33.2012 29.6836C33.2012 29.3906 33.276 28.8828 33.4258 28.1602C33.5755 27.4375 33.6504 26.8776 33.6504 26.4805C33.6504 24.8724 33.3509 24.0684 32.752 24.0684C31.9447 24.0684 31.541 24.0358 31.541 23.9707V23.9902C31.541 24.4395 31.6387 25.097 31.834 25.9629C32.0358 26.8353 32.1367 27.4603 32.1367 27.8379C32.1367 28.2155 32.0684 28.5247 31.9316 28.7656C31.7949 29.013 31.5833 29.1367 31.2969 29.1367C31.0169 29.1367 30.7956 29.0195 30.6328 28.7852C30.4766 28.5508 30.3984 28.2448 30.3984 27.8672C30.3984 27.4961 30.4928 26.8548 30.6816 25.9434C30.8704 25.0384 30.9648 24.3516 30.9648 23.8828C29.4219 23.3945 28.2598 22.597 27.4785 21.4902C26.7038 20.3835 26.3164 19.0163 26.3164 17.3887C26.3164 14.0163 28.0156 11.8874 31.4141 11.002C32.5143 10.7155 33.6504 10.5723 34.8223 10.5723C36.0007 10.5723 37 10.6374 37.8203 10.7676C38.6471 10.8978 39.4447 11.1289 40.2129 11.4609C40.9876 11.7865 41.6452 12.2031 42.1855 12.7109C42.7324 13.2122 43.1686 13.8633 43.4941 14.6641C43.8197 15.4583 43.9824 16.3665 43.9824 17.3887C43.9824 19.472 43.3965 21.0866 42.2246 22.2324C41.0527 23.3717 39.4056 24.0716 37.2832 24.332C37.2572 24.3776 37.2441 24.4492 37.2441 24.5469L37.293 25.084C37.293 25.416 37.2018 25.582 37.0195 25.582C36.8372 25.582 36.7461 25.4225 36.7461 25.1035L36.7754 24.5566C36.7754 24.3613 36.6354 24.2637 36.3555 24.2637C36.3294 24.3223 36.3164 24.4329 36.3164 24.5957L36.3652 25.543C36.3652 25.7383 36.3294 25.9271 36.2578 26.1094C36.1862 26.2917 36.0658 26.3828 35.8965 26.3828C35.597 26.3828 35.4473 26.1159 35.4473 25.582ZM31.7559 17.3984C31.7559 19.7812 32.8887 20.9727 35.1543 20.9727C37.4199 20.9727 38.5527 19.7812 38.5527 17.3984C38.5527 16.3047 38.2598 15.4681 37.6738 14.8887C37.0879 14.3092 36.248 14.0195 35.1543 14.0195C34.0605 14.0195 33.2207 14.3092 32.6348 14.8887C32.0488 15.4681 31.7559 16.3047 31.7559 17.3984ZM62.2344 27.2031L62.4492 25.1816C62.4492 24.3613 62.1139 23.7363 61.4434 23.3066C60.7793 22.8704 60.0794 22.6784 59.3438 22.7305C58.6081 22.776 58.0938 23.0234 57.8008 23.4727C57.651 23.6875 57.5762 23.9414 57.5762 24.2344L57.5273 26.8516C57.5273 27.2096 57.5827 27.7402 57.6934 28.4434C57.804 29.153 57.8594 29.6868 57.8594 30.0449C57.8594 30.6764 57.6803 30.9922 57.3223 30.9922C56.9642 30.9922 56.7852 30.6862 56.7852 30.0742C56.7852 29.6706 56.8438 29.0911 56.9609 28.3359C57.0781 27.5807 57.1432 27.0078 57.1562 26.6172C57.1758 26.2266 57.1855 25.3932 57.1855 24.1172C57.1855 23.7786 57.0814 23.388 56.873 22.9453C56.6647 22.5026 56.3359 21.8939 55.8867 21.1191C55.4375 20.3444 55.0697 19.6608 54.7832 19.0684L54.4902 18.9023C54.334 19.1888 54.0573 19.332 53.6602 19.332L52.8398 19.3613C52.2799 19.3613 51.86 19.2246 51.5801 18.9512L51.375 19.1465C51.3945 19.3874 51.4043 19.9017 51.4043 20.6895L51.3945 23.082C51.3945 23.7982 51.4076 24.3255 51.4336 24.6641L51.6191 26.0996C51.6191 26.3665 51.528 26.5 51.3457 26.5C51.1634 26.5 51.0723 26.3763 51.0723 26.1289L51.2285 24.918C51.2285 24.625 51.1406 24.3906 50.9648 24.2148C50.7956 24.0456 50.571 23.9609 50.291 23.9609C50.0176 23.9609 49.7734 24.0814 49.5586 24.3223C49.3503 24.5697 49.2461 24.8887 49.2461 25.2793C49.2461 25.6699 49.3177 26.1973 49.4609 26.8613C49.6042 27.5319 49.6758 28.0137 49.6758 28.3066C49.6758 28.9186 49.4577 29.2246 49.0215 29.2246C48.5853 29.2246 48.3672 28.9251 48.3672 28.3262C48.3672 28.0462 48.429 27.5579 48.5527 26.8613C48.6829 26.1647 48.748 25.6113 48.748 25.2012C48.748 24.791 48.6536 24.4525 48.4648 24.1855C48.276 23.9251 48.0612 23.7949 47.8203 23.7949C47.5794 23.7949 47.3743 23.8763 47.2051 24.0391C47.0358 24.2083 46.9512 24.4167 46.9512 24.6641L47.2148 26.9785C47.2148 27.3757 47.0684 27.5742 46.7754 27.5742C46.4824 27.5742 46.3359 27.3724 46.3359 26.9688C46.3359 26.7344 46.3978 26.3242 46.5215 25.7383C46.6452 25.1589 46.7038 24.7064 46.6973 24.3809C46.6908 24.0553 46.6875 19.8431 46.6875 11.7441C46.6875 11.3405 46.5638 11.0182 46.3164 10.7773L46.5117 10.582C46.7656 10.8294 47.0879 10.9531 47.4785 10.9531H56.2285C57.5957 10.9531 58.5137 10.9954 58.9824 11.0801C59.4577 11.1582 59.8711 11.2428 60.2227 11.334C60.5807 11.4251 60.8802 11.5391 61.1211 11.6758C61.3685 11.806 61.6159 11.972 61.8633 12.1738C62.1172 12.3691 62.319 12.5938 62.4688 12.8477C62.8138 13.4271 62.9863 14.0423 62.9863 14.6934C62.9863 15.3444 62.9342 15.8783 62.8301 16.2949C62.7324 16.7051 62.5664 17.0924 62.332 17.457C61.8242 18.2448 60.9323 18.6387 59.6562 18.6387L59.5781 18.8633C59.9883 19.026 60.2617 19.2507 60.3984 19.5371C60.9714 20.7871 61.3945 21.5814 61.668 21.9199C61.9414 22.252 62.1953 22.5189 62.4297 22.7207C62.6641 22.9225 62.9993 23.1276 63.4355 23.3359C63.8717 23.5443 64.1354 23.681 64.2266 23.7461C64.3177 23.8047 64.3633 23.8535 64.3633 23.8926C64.3633 24.5436 64.4512 25.3802 64.627 26.4023C64.8027 27.4245 64.8906 28.082 64.8906 28.375C64.8906 28.668 64.8776 28.8796 64.8516 29.0098C64.832 29.14 64.7832 29.2669 64.7051 29.3906C64.627 29.5208 64.513 29.5859 64.3633 29.5859C64.2135 29.5859 64.0996 29.4785 64.0215 29.2637C63.9499 29.0488 63.9141 28.7852 63.9141 28.4727C63.9141 28.1602 63.9564 27.6003 64.041 26.793C64.1257 25.9922 64.168 25.3867 64.168 24.9766C64.168 24.1628 63.9043 23.7559 63.377 23.7559C63.1165 23.7559 62.9212 23.8014 62.791 23.8926C62.6673 23.9837 62.6055 24.1693 62.6055 24.4492C62.6055 24.7357 62.6641 25.1882 62.7812 25.8066C62.8984 26.4251 62.957 26.8906 62.957 27.2031C62.957 27.5221 62.8366 27.6816 62.5957 27.6816C62.3548 27.6816 62.2344 27.5221 62.2344 27.2031ZM55.7305 14.1953L53.4258 14.2637C52.4818 14.2637 51.8665 14.1237 51.5801 13.8438L51.375 14.0293C51.6354 14.2832 51.7656 14.6087 51.7656 15.0059V15.6602C51.7656 16.0508 51.6354 16.3763 51.375 16.6367L51.5801 16.832C51.86 16.5456 52.4395 16.4023 53.3184 16.4023L55.7891 16.4902C56.4466 16.4902 56.9544 16.4056 57.3125 16.2363C57.6771 16.0605 57.8594 15.7415 57.8594 15.2793C57.8594 14.9863 57.7585 14.7585 57.5566 14.5957C57.3548 14.4264 57.1107 14.319 56.8242 14.2734C56.5378 14.2214 56.1732 14.1953 55.7305 14.1953ZM66.043 13.5215L66.0918 12.2715C66.0918 11.5553 65.9518 11.0605 65.6719 10.7871L65.8672 10.5918C66.1276 10.8457 66.4499 10.9727 66.834 10.9727H79.6562C80.0534 10.9727 80.3789 10.8457 80.6328 10.5918L80.8281 10.7871C80.5807 11.0345 80.457 11.36 80.457 11.7637L80.4082 13.0137C80.4082 13.7168 80.5482 14.2083 80.8281 14.4883L80.6328 14.6934C80.3398 14.3939 79.8646 14.2441 79.207 14.2441L77.0488 14.3809C76.3652 14.3809 75.8737 14.2311 75.5742 13.9316L75.3691 14.127C75.623 14.3743 75.75 14.6999 75.75 15.1035V23.209C75.75 23.8861 75.8086 24.8952 75.9258 26.2363C76.0495 27.5775 76.1113 28.4596 76.1113 28.8828C76.1113 29.625 75.9779 29.9961 75.7109 29.9961C75.444 29.9961 75.3105 29.7324 75.3105 29.2051C75.3105 28.6777 75.3529 27.9616 75.4375 27.0566C75.5286 26.1582 75.5742 25.4811 75.5742 25.0254C75.5742 24.3158 75.4342 23.9609 75.1543 23.9609C75.0176 23.9609 74.9102 24.0423 74.832 24.2051C74.7539 24.3678 74.7148 24.5273 74.7148 24.6836L74.9395 26.7246C74.9395 27.1934 74.806 27.4277 74.5391 27.4277C74.4023 27.4277 74.3014 27.3594 74.2363 27.2227C74.1712 27.0859 74.1387 26.9264 74.1387 26.7441C74.1387 26.5618 74.1973 26.2624 74.3145 25.8457C74.4316 25.4355 74.4902 25.1003 74.4902 24.8398C74.4902 24.5794 74.3763 24.3809 74.1484 24.2441C73.9271 24.1074 73.6439 24.0391 73.2988 24.0391C72.9603 24.0391 72.6055 24.1074 72.2344 24.2441C71.8698 24.3809 71.5475 24.5924 71.2676 24.8789C70.9876 25.1719 70.8477 25.4583 70.8477 25.7383C70.8477 26.0247 70.89 26.3698 70.9746 26.7734C71.0658 27.1771 71.1113 27.5124 71.1113 27.7793C71.1113 28.0527 70.9909 28.1895 70.75 28.1895C70.4766 28.1895 70.3398 28.043 70.3398 27.75C70.3398 27.4635 70.3919 27.099 70.4961 26.6562C70.6003 26.2135 70.6523 25.8815 70.6523 25.6602V23.1211C70.6654 19.5534 70.6719 16.8809 70.6719 15.1035C70.6719 14.6934 70.7956 14.3678 71.043 14.127L70.8477 13.9316C70.5612 14.2246 70.0859 14.3711 69.4219 14.3711L67.3223 14.2441C66.6517 14.2441 66.1667 14.3939 65.8672 14.6934L65.6719 14.4883C65.9193 14.2409 66.043 13.9186 66.043 13.5215ZM74.4609 28.9023C74.6172 29.6185 74.6953 30.2402 74.6953 30.7676C74.6953 30.9954 74.6139 31.1094 74.4512 31.1094C74.2884 31.1094 74.207 31.0052 74.207 30.7969C74.207 30.2109 74.2917 29.5794 74.4609 28.9023ZM88.2598 19.9668L88.1816 21.959C88.1816 22.3171 88.2663 22.8477 88.4355 23.5508C88.6113 24.2474 88.6992 24.7617 88.6992 25.0938C88.6992 25.4323 88.7546 25.9043 88.8652 26.5098C88.9759 27.1152 89.0312 27.6003 89.0312 27.9648C89.0312 28.3359 88.8717 28.5215 88.5527 28.5215C88.2402 28.5215 88.084 28.3392 88.084 27.9746C88.084 27.6165 88.1393 27.1348 88.25 26.5293C88.3672 25.9303 88.4258 25.4811 88.4258 25.1816C88.4258 24.8822 88.3216 24.6087 88.1133 24.3613C87.9049 24.1204 87.6576 24 87.3711 24C86.7201 24 86.3945 24.791 86.3945 26.373C86.3945 26.7441 86.4434 27.3008 86.541 28.043C86.6387 28.7852 86.6875 29.293 86.6875 29.5664C86.6875 30.1003 86.528 30.3672 86.209 30.3672C86.0462 30.3672 85.9193 30.2956 85.8281 30.1523C85.7435 30.0156 85.7012 29.8171 85.7012 29.5566C85.7012 29.2962 85.7565 28.821 85.8672 28.1309C85.9844 27.4408 86.043 26.9395 86.043 26.627C86.043 26.3145 86.0234 26.0182 85.9844 25.7383C85.9518 25.4648 85.8867 25.1686 85.7891 24.8496C85.6979 24.5371 85.5482 24.2832 85.3398 24.0879C85.138 23.8926 84.8743 23.7949 84.5488 23.7949C84.2298 23.7949 83.9401 23.9349 83.6797 24.2148C83.4258 24.4948 83.2988 24.7585 83.2988 25.0059C83.2988 25.2598 83.3444 25.5234 83.4355 25.7969C83.5267 26.0703 83.5723 26.2819 83.5723 26.4316C83.5723 26.7181 83.4648 26.8613 83.25 26.8613C83.0417 26.8613 82.9375 26.7181 82.9375 26.4316L83.1719 24.8691L83.1621 12.4375C83.1621 11.6693 82.9277 11.028 82.459 10.5137L82.6543 10.3184C83.1751 10.7806 83.8164 11.0117 84.5781 11.0117H95.8477C96.6094 11.0117 97.2507 10.7806 97.7715 10.3184L97.9668 10.5137C97.5046 11.0345 97.2734 11.6204 97.2734 12.2715C97.2734 12.9225 97.3158 13.4271 97.4004 13.7852C97.485 14.1432 97.6738 14.4883 97.9668 14.8203L97.7715 15.0156C97.4264 14.5534 96.9967 14.3223 96.4824 14.3223H89.0703C88.7057 14.3223 88.3932 14.1986 88.1328 13.9512L87.9473 14.1367C88.1947 14.3971 88.3184 14.7129 88.3184 15.084C88.3184 15.4551 88.1947 15.7708 87.9473 16.0312L88.1328 16.2168C88.3477 16.0085 88.6048 15.875 88.9043 15.8164C89.2103 15.7578 89.5716 15.7285 89.9883 15.7285L93.6992 15.9336C94.3047 15.9336 94.8385 15.8815 95.3008 15.7773C95.7695 15.6732 96.1699 15.4616 96.502 15.1426L96.6973 15.3379C96.209 15.8717 95.9648 16.6107 95.9648 17.5547C95.9648 18.4987 96.1895 19.2051 96.6387 19.6738L96.4336 19.8691C95.8411 19.3418 94.8841 19.0781 93.5625 19.0781L89.9102 19.2832C89.0182 19.2832 88.4095 19.1204 88.084 18.7949L87.8984 18.9902C88.1393 19.2376 88.2598 19.5632 88.2598 19.9668ZM108.553 25.582L108.621 24.6445C108.621 24.4818 108.543 24.3548 108.387 24.2637C108.23 24.179 108.061 24.1367 107.879 24.1367C107.697 24.1367 107.534 24.1855 107.391 24.2832C107.247 24.3809 107.176 24.5208 107.176 24.7031V26.9492C107.176 27.2747 107.244 27.7533 107.381 28.3848C107.518 29.0163 107.586 29.4655 107.586 29.7324C107.586 30.0059 107.527 30.2305 107.41 30.4062C107.293 30.582 107.13 30.6699 106.922 30.6699C106.72 30.6699 106.567 30.5788 106.463 30.3965C106.359 30.2142 106.307 29.9766 106.307 29.6836C106.307 29.3906 106.382 28.8828 106.531 28.1602C106.681 27.4375 106.756 26.8776 106.756 26.4805C106.756 24.8724 106.456 24.0684 105.857 24.0684C105.05 24.0684 104.646 24.0358 104.646 23.9707V23.9902C104.646 24.4395 104.744 25.097 104.939 25.9629C105.141 26.8353 105.242 27.4603 105.242 27.8379C105.242 28.2155 105.174 28.5247 105.037 28.7656C104.9 29.013 104.689 29.1367 104.402 29.1367C104.122 29.1367 103.901 29.0195 103.738 28.7852C103.582 28.5508 103.504 28.2448 103.504 27.8672C103.504 27.4961 103.598 26.8548 103.787 25.9434C103.976 25.0384 104.07 24.3516 104.07 23.8828C102.527 23.3945 101.365 22.597 100.584 21.4902C99.8092 20.3835 99.4219 19.0163 99.4219 17.3887C99.4219 14.0163 101.121 11.8874 104.52 11.002C105.62 10.7155 106.756 10.5723 107.928 10.5723C109.106 10.5723 110.105 10.6374 110.926 10.7676C111.753 10.8978 112.55 11.1289 113.318 11.4609C114.093 11.7865 114.751 12.2031 115.291 12.7109C115.838 13.2122 116.274 13.8633 116.6 14.6641C116.925 15.4583 117.088 16.3665 117.088 17.3887C117.088 19.472 116.502 21.0866 115.33 22.2324C114.158 23.3717 112.511 24.0716 110.389 24.332C110.363 24.3776 110.35 24.4492 110.35 24.5469L110.398 25.084C110.398 25.416 110.307 25.582 110.125 25.582C109.943 25.582 109.852 25.4225 109.852 25.1035L109.881 24.5566C109.881 24.3613 109.741 24.2637 109.461 24.2637C109.435 24.3223 109.422 24.4329 109.422 24.5957L109.471 25.543C109.471 25.7383 109.435 25.9271 109.363 26.1094C109.292 26.2917 109.171 26.3828 109.002 26.3828C108.702 26.3828 108.553 26.1159 108.553 25.582ZM104.861 17.3984C104.861 19.7812 105.994 20.9727 108.26 20.9727C110.525 20.9727 111.658 19.7812 111.658 17.3984C111.658 16.3047 111.365 15.4681 110.779 14.8887C110.193 14.3092 109.354 14.0195 108.26 14.0195C107.166 14.0195 106.326 14.3092 105.74 14.8887C105.154 15.4681 104.861 16.3047 104.861 17.3984ZM133.436 21.4219L133.396 22.6914C133.396 23.401 133.54 23.8991 133.826 24.1855L133.621 24.3809C133.374 24.127 133.048 24 132.645 24H129.803C129.809 24.0911 129.812 24.2116 129.812 24.3613C129.812 24.7259 129.721 24.9082 129.539 24.9082C129.357 24.9082 129.266 24.7031 129.266 24.293C129.266 24.1693 129.269 24.0716 129.275 24H120.535C120.379 24 120.242 24.2799 120.125 24.8398C120.014 25.4062 119.959 25.8587 119.959 26.1973C119.959 26.5358 120.037 27.1413 120.193 28.0137C120.35 28.8926 120.428 29.5762 120.428 30.0645C120.428 30.5592 120.236 30.8066 119.852 30.8066C119.435 30.8066 119.227 30.5527 119.227 30.0449C119.227 29.5371 119.314 28.8307 119.49 27.9258C119.666 27.0273 119.754 26.3503 119.754 25.8945L119.744 11.7832C119.744 11.3861 119.614 11.0605 119.354 10.8066L119.559 10.6016C119.826 10.862 120.151 10.9922 120.535 10.9922H124.031C124.428 10.9922 124.754 10.862 125.008 10.6016L125.213 10.8066C124.952 11.0605 124.822 11.3861 124.822 11.7832V19.8398C124.822 20.2305 124.695 20.5527 124.441 20.8066L124.646 21.0117C124.979 20.6797 125.704 20.5137 126.824 20.5137L131.453 20.748C132.566 20.748 133.289 20.582 133.621 20.25L133.826 20.4453C133.566 20.6992 133.436 21.0247 133.436 21.4219ZM129.871 28.3359C129.871 28.6029 129.76 28.7363 129.539 28.7363C129.318 28.7363 129.207 28.5768 129.207 28.2578C129.207 27.9779 129.259 27.6328 129.363 27.2227C129.474 26.819 129.533 26.6009 129.539 26.5684C129.552 26.6335 129.585 26.7669 129.637 26.9688C129.689 27.1706 129.728 27.3268 129.754 27.4375C129.832 27.7695 129.871 28.069 129.871 28.3359ZM140.633 29.2637L140.74 26.666C140.74 25.8262 140.708 25.2956 140.643 25.0742C140.584 24.8529 140.522 24.6576 140.457 24.4883C140.392 24.319 140.307 24.1823 140.203 24.0781C140.099 23.974 139.975 23.8763 139.832 23.7852C139.559 23.6029 139.129 23.5117 138.543 23.5117C137.957 23.5117 137.462 23.7493 137.059 24.2246C136.661 24.6999 136.463 25.2695 136.463 25.9336C136.463 26.181 136.512 26.5488 136.609 27.0371C136.707 27.5319 136.756 27.903 136.756 28.1504C136.756 28.6191 136.59 28.8535 136.258 28.8535C135.926 28.8535 135.76 28.6257 135.76 28.1699C135.76 27.916 135.809 27.5352 135.906 27.0273C136.01 26.5195 136.062 26.1354 136.062 25.875L136.131 23.2578V11.7832C136.131 11.3796 136.004 11.054 135.75 10.8066L135.945 10.6016C136.219 10.862 136.544 10.9922 136.922 10.9922H140.457C140.848 10.9922 141.173 10.862 141.434 10.6016L141.629 10.8066C141.375 11.0605 141.248 11.3861 141.248 11.7832V23.209C141.248 23.5475 141.212 24.1302 141.141 24.957C141.069 25.7904 141.046 26.4316 141.072 26.8809H141.062C141.303 27.9616 141.424 28.7852 141.424 29.3516C141.424 29.918 141.316 30.2012 141.102 30.2012C140.789 30.2012 140.633 29.8887 140.633 29.2637ZM152.889 25.582L152.957 24.6445C152.957 24.4818 152.879 24.3548 152.723 24.2637C152.566 24.179 152.397 24.1367 152.215 24.1367C152.033 24.1367 151.87 24.1855 151.727 24.2832C151.583 24.3809 151.512 24.5208 151.512 24.7031V26.9492C151.512 27.2747 151.58 27.7533 151.717 28.3848C151.854 29.0163 151.922 29.4655 151.922 29.7324C151.922 30.0059 151.863 30.2305 151.746 30.4062C151.629 30.582 151.466 30.6699 151.258 30.6699C151.056 30.6699 150.903 30.5788 150.799 30.3965C150.695 30.2142 150.643 29.9766 150.643 29.6836C150.643 29.3906 150.717 28.8828 150.867 28.1602C151.017 27.4375 151.092 26.8776 151.092 26.4805C151.092 24.8724 150.792 24.0684 150.193 24.0684C149.386 24.0684 148.982 24.0358 148.982 23.9707V23.9902C148.982 24.4395 149.08 25.097 149.275 25.9629C149.477 26.8353 149.578 27.4603 149.578 27.8379C149.578 28.2155 149.51 28.5247 149.373 28.7656C149.236 29.013 149.025 29.1367 148.738 29.1367C148.458 29.1367 148.237 29.0195 148.074 28.7852C147.918 28.5508 147.84 28.2448 147.84 27.8672C147.84 27.4961 147.934 26.8548 148.123 25.9434C148.312 25.0384 148.406 24.3516 148.406 23.8828C146.863 23.3945 145.701 22.597 144.92 21.4902C144.145 20.3835 143.758 19.0163 143.758 17.3887C143.758 14.0163 145.457 11.8874 148.855 11.002C149.956 10.7155 151.092 10.5723 152.264 10.5723C153.442 10.5723 154.441 10.6374 155.262 10.7676C156.089 10.8978 156.886 11.1289 157.654 11.4609C158.429 11.7865 159.087 12.2031 159.627 12.7109C160.174 13.2122 160.61 13.8633 160.936 14.6641C161.261 15.4583 161.424 16.3665 161.424 17.3887C161.424 19.472 160.838 21.0866 159.666 22.2324C158.494 23.3717 156.847 24.0716 154.725 24.332C154.699 24.3776 154.686 24.4492 154.686 24.5469L154.734 25.084C154.734 25.416 154.643 25.582 154.461 25.582C154.279 25.582 154.188 25.4225 154.188 25.1035L154.217 24.5566C154.217 24.3613 154.077 24.2637 153.797 24.2637C153.771 24.3223 153.758 24.4329 153.758 24.5957L153.807 25.543C153.807 25.7383 153.771 25.9271 153.699 26.1094C153.628 26.2917 153.507 26.3828 153.338 26.3828C153.038 26.3828 152.889 26.1159 152.889 25.582ZM149.197 17.3984C149.197 19.7812 150.33 20.9727 152.596 20.9727C154.861 20.9727 155.994 19.7812 155.994 17.3984C155.994 16.3047 155.701 15.4681 155.115 14.8887C154.529 14.3092 153.689 14.0195 152.596 14.0195C151.502 14.0195 150.662 14.3092 150.076 14.8887C149.49 15.4681 149.197 16.3047 149.197 17.3984Z" fill="white"/>
</svg>
