<svg width="62" height="67" viewBox="0 0 62 67" fill="none" xmlns="http://www.w3.org/2000/svg">
<g filter="url(#filter0_d_233_5)">
<path d="M57.0264 57.1309C56.9971 57.2773 57.0117 57.3945 57.0703 57.4824C57.1582 57.5703 57.1582 57.6875 57.0703 57.834C56.9824 58.2441 56.8652 58.4199 56.7188 58.3613C56.5723 58.3027 56.4697 58.2295 56.4111 58.1416C56.3525 58.1709 56.2939 58.1123 56.2354 57.9658C56.1768 57.8486 56.1182 57.7754 56.0596 57.7461C55.7373 57.5703 55.4883 57.4824 55.3125 57.4824C55.166 57.4824 55.0635 57.4531 55.0049 57.3945C55.0928 57.7461 55.0195 57.9219 54.7852 57.9219C54.5801 57.9512 54.4189 57.8926 54.3018 57.7461C54.1553 57.4824 54.0088 57.3066 53.8623 57.2188C53.6279 56.8672 53.3057 56.6914 52.8955 56.6914C52.749 56.5156 52.6465 56.3691 52.5879 56.252C52.3242 56.1348 52.1777 56.0908 52.1484 56.1201C52.1191 56.1787 52.0605 56.1934 51.9727 56.1641C51.9141 55.959 51.8848 55.7686 51.8848 55.5928C51.5625 55.4463 51.2842 55.3584 51.0498 55.3291C50.8447 55.2998 50.7568 55.168 50.7861 54.9336C50.6982 54.9629 50.625 55.0068 50.5664 55.0654C50.5371 55.1533 50.4639 55.1973 50.3467 55.1973C50.1123 55.0801 49.9805 55.0508 49.9512 55.1094C49.9219 55.1973 49.8926 55.1973 49.8633 55.1094C49.6289 54.9336 49.3799 54.8018 49.1162 54.7139C48.8525 54.626 48.6475 54.5527 48.501 54.4941C48.3838 54.1719 48.3252 53.9814 48.3252 53.9229C48.3545 53.8643 48.3691 53.791 48.3691 53.7031C48.2227 53.7617 48.0908 53.8643 47.9736 54.0107C47.8564 54.1865 47.6807 54.2158 47.4463 54.0986C47.2998 53.835 47.1387 53.7031 46.9629 53.7031C46.8164 53.7031 46.6553 53.6885 46.4795 53.6592C46.1279 53.8057 45.9229 53.8203 45.8643 53.7031C45.8936 53.4102 45.8789 53.249 45.8203 53.2197C45.7617 53.2197 45.7324 53.1904 45.7324 53.1318C45.6738 52.751 45.6885 52.4873 45.7764 52.3408C45.6592 52.0479 45.5713 51.9014 45.5127 51.9014C45.4834 51.8721 45.4541 51.8281 45.4248 51.7695C45.3662 51.4766 45.3516 51.2715 45.3809 51.1543C45.4102 51.0078 45.4541 50.876 45.5127 50.7588C45.3955 50.2314 45.2637 49.9092 45.1172 49.792C44.707 49.792 44.5312 49.7041 44.5898 49.5283C44.6777 49.3525 44.707 49.1768 44.6777 49.001L44.2822 48.3418C44.0771 48.0488 44.0039 47.8584 44.0625 47.7705C44.1504 47.6826 44.1943 47.5654 44.1943 47.4189C44.1064 47.3896 44.0186 47.3896 43.9307 47.4189C43.8721 47.4189 43.7988 47.3896 43.7109 47.3311C43.5938 47.0381 43.5059 46.8916 43.4473 46.8916C43.418 46.8916 43.374 46.8623 43.3154 46.8037C43.1104 46.5986 43.0518 46.3789 43.1396 46.1445C43.1104 46.0566 43.0664 45.9834 43.0078 45.9248C42.9492 45.8369 42.9492 45.7197 43.0078 45.5732C42.8613 45.5146 42.7148 45.4854 42.5684 45.4854C42.4512 45.4854 42.3633 45.4268 42.3047 45.3096C42.2754 45.1631 42.29 45.0459 42.3486 44.958C42.4072 44.8701 42.4512 44.7676 42.4805 44.6504C42.1289 44.3867 41.8799 44.2109 41.7334 44.123C41.6162 44.0059 41.5283 43.8301 41.4697 43.5957C41.4697 43.4492 41.4697 43.3174 41.4697 43.2002C41.499 43.083 41.5137 42.9512 41.5137 42.8047C41.4551 42.6875 41.3965 42.6143 41.3379 42.585C41.2793 42.5264 41.2207 42.4678 41.1621 42.4092C41.1328 42.2627 41.0303 42.1016 40.8545 41.9258C40.8252 41.7207 40.8252 41.5889 40.8545 41.5303C40.9131 41.4717 40.957 41.3984 40.9863 41.3105C40.8398 41.1934 40.6494 41.1641 40.415 41.2227C40.21 41.1055 40.1221 40.9443 40.1514 40.7393C40.1807 40.5342 40.2246 40.3584 40.2832 40.2119C40.2539 39.7725 40.2539 39.5234 40.2832 39.4648C40.2246 39.4062 40.1367 39.3916 40.0195 39.4209C39.9023 39.4502 39.8145 39.4355 39.7559 39.377C39.6387 39.4355 39.5654 39.5234 39.5361 39.6406C39.5361 39.7578 39.4775 39.8457 39.3604 39.9043C39.5068 40.1387 39.5068 40.3291 39.3604 40.4756C39.2432 40.5928 39.1113 40.6807 38.9648 40.7393C38.5547 40.8271 38.3057 40.9736 38.2178 41.1787C38.335 41.3545 38.3496 41.5449 38.2617 41.75C38.4668 42.1016 38.4961 42.3506 38.3496 42.4971C38.4375 42.7607 38.4961 42.9365 38.5254 43.0244C38.5547 43.083 38.584 43.1855 38.6133 43.332C38.584 43.4785 38.5254 43.5957 38.4375 43.6836C38.3789 43.7715 38.335 43.8887 38.3057 44.0352C38.335 44.1523 38.3789 44.2695 38.4375 44.3867C38.5254 44.4746 38.584 44.5918 38.6133 44.7383C38.6133 44.8555 38.5986 44.958 38.5693 45.0459C38.54 45.1338 38.5107 45.2363 38.4814 45.3535C38.54 45.4414 38.5986 45.5146 38.6572 45.5732C38.7451 45.6318 38.8037 45.7344 38.833 45.8809C38.6865 46.2324 38.5986 46.5254 38.5693 46.7598C38.5693 46.9941 38.5107 47.1846 38.3936 47.3311C38.4814 47.6533 38.5107 47.8438 38.4814 47.9023C38.4814 47.9609 38.4814 48.0195 38.4814 48.0781C38.54 48.166 38.5693 48.2832 38.5693 48.4297C38.5986 48.5469 38.584 48.6348 38.5254 48.6934C38.4961 49.0449 38.4521 49.25 38.3936 49.3086C38.3643 49.3672 38.3203 49.4258 38.2617 49.4844C38.3203 49.8359 38.3203 50.041 38.2617 50.0996C38.2324 50.1289 38.1885 50.1875 38.1299 50.2754C38.2178 50.5098 38.3643 50.7002 38.5693 50.8467C38.8037 50.9932 38.9502 51.1982 39.0088 51.4619C38.6572 51.667 38.4229 51.8574 38.3057 52.0332C38.335 52.1797 38.3643 52.3262 38.3936 52.4727C38.4521 52.5898 38.5107 52.7217 38.5693 52.8682C38.54 53.0146 38.5254 53.1465 38.5254 53.2637C38.5254 53.3809 38.4521 53.4688 38.3057 53.5273C38.1299 53.5273 38.0127 53.5127 37.9541 53.4834C37.8955 53.4541 37.8076 53.4102 37.6904 53.3516C37.5439 53.3516 37.4268 53.3223 37.3389 53.2637C37.2803 53.2051 37.207 53.1465 37.1191 53.0879C37.002 53.1465 36.8994 53.2051 36.8115 53.2637C36.7236 53.3516 36.6064 53.4248 36.46 53.4834C36.167 53.3662 35.9326 53.3955 35.7568 53.5713C35.6104 53.542 35.4932 53.5713 35.4053 53.6592C35.3467 53.7471 35.2441 53.7764 35.0977 53.7471C34.9805 53.4248 34.8633 53.2637 34.7461 53.2637C34.6582 53.293 34.5557 53.3076 34.4385 53.3076C34.3213 53.3369 34.2041 53.3516 34.0869 53.3516C33.999 53.3516 33.9258 53.293 33.8672 53.1758C33.6914 53.2051 33.5449 53.249 33.4277 53.3076C33.3398 53.3955 33.208 53.4541 33.0322 53.4834C32.6514 53.3955 32.373 53.3809 32.1973 53.4395C31.9336 53.3516 31.7725 53.3369 31.7139 53.3955C31.6846 53.4834 31.5967 53.498 31.4502 53.4395C31.2744 53.5859 30.9961 53.7031 30.6152 53.791C30.4688 53.7324 30.293 53.7031 30.0879 53.7031C29.8828 53.7324 29.751 53.6885 29.6924 53.5713C29.9561 53.249 30.1318 53.0293 30.2197 52.9121C30.3076 52.7656 30.4395 52.6777 30.6152 52.6484C30.9375 52.6191 31.084 52.5605 31.0547 52.4727C31.0547 52.3555 31.04 52.2676 31.0107 52.209C31.04 52.0918 31.084 52.0186 31.1426 51.9893C31.2012 51.9307 31.2451 51.8428 31.2744 51.7256C31.5088 51.5205 31.6553 51.3301 31.7139 51.1543C31.7725 50.9785 31.875 50.8613 32.0215 50.8027C32.1387 50.7734 32.2412 50.7734 32.3291 50.8027C32.4463 50.8027 32.5342 50.7734 32.5928 50.7148C32.6807 50.5391 32.7832 50.3926 32.9004 50.2754C32.9883 49.9531 33.0615 49.7773 33.1201 49.748C33.1787 49.7188 33.2373 49.6748 33.2959 49.6162C33.2959 49.2061 33.2666 48.957 33.208 48.8691C33.2373 48.3125 33.2373 47.9023 33.208 47.6387C33.208 47.3457 33.208 47.0674 33.208 46.8037C33.1787 46.6865 33.1201 46.6133 33.0322 46.584C32.9736 46.5254 32.915 46.4521 32.8564 46.3643C32.8564 46.2178 32.8857 46.1299 32.9443 46.1006C33.0322 46.0713 33.0615 45.998 33.0322 45.8809C33.1201 45.6172 33.1494 45.3975 33.1201 45.2217C33.0908 45.0459 33.1494 44.8994 33.2959 44.7822C33.1787 44.6064 33.1641 44.4453 33.252 44.2988C33.1348 43.9473 33.0469 43.7568 32.9883 43.7275C32.9297 43.6982 32.915 43.625 32.9443 43.5078C33.2666 43.1855 33.3691 42.9072 33.252 42.6729C33.1348 42.4385 33.1641 42.2334 33.3398 42.0576C33.2812 41.9404 33.2373 41.8379 33.208 41.75C33.1787 41.6621 33.1494 41.5596 33.1201 41.4424C33.0908 41.1494 33.0908 40.8857 33.1201 40.6514C33.1787 40.417 33.1934 40.168 33.1641 39.9043C33.1348 39.5527 33.1641 39.3477 33.252 39.2891C33.3691 39.2012 33.4131 39.0547 33.3838 38.8496C33.2666 38.5566 33.2227 38.3809 33.252 38.3223C33.3105 38.2637 33.3398 38.2051 33.3398 38.1465C33.1348 37.7656 33.0615 37.5459 33.1201 37.4873C33.1787 37.3994 33.2373 37.3262 33.2959 37.2676C33.1787 36.9746 33.1348 36.7988 33.1641 36.7402C33.2227 36.6816 33.2227 36.6084 33.1641 36.5205C33.1934 36.4326 33.2227 36.3447 33.252 36.2568C33.2812 36.1689 33.2812 36.0518 33.252 35.9053C33.1348 35.6416 33.1055 35.4951 33.1641 35.4658C33.252 35.4072 33.3105 35.3047 33.3398 35.1582C33.3398 34.8066 33.2666 34.5137 33.1201 34.2793C33.1787 34.1621 33.1787 34.0449 33.1201 33.9277C33.0908 33.7812 33.1055 33.6641 33.1641 33.5762C33.0762 33.2832 33.0029 33.1074 32.9443 33.0488C32.915 32.9902 32.8857 32.917 32.8564 32.8291C32.8564 32.6826 32.915 32.4922 33.0322 32.2578C33.0029 32.1406 33.0029 32.0381 33.0322 31.9502C33.0908 31.8623 33.1494 31.7744 33.208 31.6865C33.0908 31.3936 33.0322 31.2324 33.0322 31.2031C33.0615 31.1445 33.0615 31.0566 33.0322 30.9395C33.1201 30.7051 33.1201 30.5586 33.0322 30.5C32.9736 30.4414 32.915 30.3682 32.8564 30.2803C32.8564 29.958 32.9297 29.7676 33.0762 29.709C33.2227 29.6504 33.3252 29.5479 33.3838 29.4014C33.3252 29.0498 33.252 28.874 33.1641 28.874C33.0762 28.8447 33.0322 28.7715 33.0322 28.6543C33.0615 28.5371 33.1055 28.4639 33.1641 28.4346C33.2227 28.376 33.2666 28.3027 33.2959 28.2148C33.208 27.9805 33.1934 27.8633 33.252 27.8633C33.3105 27.834 33.3398 27.7607 33.3398 27.6436C33.3398 27.4971 33.2959 27.4092 33.208 27.3799C33.1201 27.3506 33.0908 27.2627 33.1201 27.1162C33.2666 26.9111 33.3105 26.7939 33.252 26.7646C33.1934 26.7061 33.1641 26.6328 33.1641 26.5449C33.1934 26.2812 33.1787 26.1201 33.1201 26.0615C33.0908 26.0029 33.0469 25.9297 32.9883 25.8418C32.9883 25.6367 33.0176 25.4756 33.0762 25.3584C33.0469 25.1533 33.0322 24.9775 33.0322 24.8311C32.9736 24.7432 32.915 24.6406 32.8564 24.5234C32.8271 24.4062 32.8418 24.2744 32.9004 24.1279C32.666 23.9229 32.5342 23.8057 32.5049 23.7764C32.4756 23.7178 32.4902 23.6592 32.5488 23.6006C32.4023 23.5127 32.2412 23.4395 32.0654 23.3809C31.8896 23.3223 31.7725 23.2197 31.7139 23.0732C31.7432 22.7803 31.6846 22.6338 31.5381 22.6338C31.4209 22.6338 31.333 22.5752 31.2744 22.458C31.2451 22.3115 31.2451 22.2236 31.2744 22.1943C31.333 22.1357 31.3623 22.0625 31.3623 21.9746C31.2158 21.8867 30.9814 21.8428 30.6592 21.8428C30.9521 21.4619 31.1865 21.1982 31.3623 21.0518C31.5674 20.876 31.8018 20.7441 32.0654 20.6562C32.1533 21.0078 32.2119 21.1689 32.2412 21.1396C32.2705 21.0811 32.3145 21.0664 32.373 21.0957C32.7539 21.2422 33.0029 21.2861 33.1201 21.2275C33.2666 21.1396 33.4131 21.0811 33.5596 21.0518C33.8818 21.1104 34.1016 21.125 34.2188 21.0957C34.3652 21.0371 34.5117 20.9785 34.6582 20.9199C34.7754 20.9492 34.8926 20.9639 35.0098 20.9639C35.127 20.9639 35.1855 21.0225 35.1855 21.1396C35.332 21.0811 35.4932 21.0371 35.6689 21.0078C35.874 20.9785 36.0498 21.0371 36.1963 21.1836C36.3428 21.0957 36.5479 21.0371 36.8115 21.0078C37.1045 20.9785 37.2803 21.0957 37.3389 21.3594C37.4561 21.3594 37.6318 21.3301 37.8662 21.2715C37.9248 21.2422 37.998 21.2129 38.0859 21.1836C38.1738 21.1543 38.2617 21.1689 38.3496 21.2275C38.4082 21.3447 38.3936 21.4326 38.3057 21.4912C38.2471 21.5498 38.2031 21.623 38.1738 21.7109C38.4668 21.9453 38.584 22.1211 38.5254 22.2383C38.4961 22.3555 38.4375 22.4434 38.3496 22.502C38.4375 22.8242 38.4521 23 38.3936 23.0293C38.3643 23.0586 38.335 23.0879 38.3057 23.1172C38.4229 23.3516 38.4229 23.5566 38.3057 23.7324C38.1885 23.9082 38.0859 24.0693 37.998 24.2158C38.0566 24.2744 38.1445 24.3184 38.2617 24.3477C38.3789 24.377 38.4668 24.4502 38.5254 24.5674C38.3496 24.8311 38.291 24.9775 38.3496 25.0068C38.4375 25.0361 38.4961 25.0801 38.5254 25.1387C38.4375 25.4902 38.4229 25.6953 38.4814 25.7539C38.54 25.7832 38.5693 25.8564 38.5693 25.9736C38.5107 26.208 38.4814 26.3545 38.4814 26.4131C38.5107 26.4717 38.54 26.5303 38.5693 26.5889C38.5693 27.0576 38.5547 27.4092 38.5254 27.6436C38.5254 27.8486 38.5547 28.0684 38.6133 28.3027C38.6426 28.7422 38.6426 29.0645 38.6133 29.2695C38.584 29.4453 38.5547 29.6504 38.5254 29.8848C38.7891 30.3535 38.8477 30.6904 38.7012 30.8955C38.584 31.0713 38.5547 31.2617 38.6133 31.4668C38.7598 31.4082 38.9062 31.335 39.0527 31.2471C39.1992 31.1299 39.2578 30.9688 39.2285 30.7637C39.4922 30.4707 39.5947 30.3096 39.5361 30.2803C39.5068 30.2217 39.5215 30.1631 39.5801 30.1045C39.873 29.8408 40.0781 29.5918 40.1953 29.3574C40.3125 28.9766 40.415 28.6982 40.5029 28.5225C40.6201 28.3467 40.7666 28.2002 40.9424 28.083C41.0596 27.7607 41.25 27.4678 41.5137 27.2041C41.543 26.9697 41.543 26.8379 41.5137 26.8086C41.5137 26.7793 41.5137 26.7354 41.5137 26.6768C41.748 26.2959 41.9092 26.0615 41.9971 25.9736C42.1143 25.8857 42.2021 25.7393 42.2607 25.5342C42.3193 25.4756 42.3779 25.417 42.4365 25.3584C42.4951 25.2998 42.5537 25.2412 42.6123 25.1826C42.7295 24.8896 42.8613 24.7139 43.0078 24.6553C43.1543 24.5967 43.2568 24.4795 43.3154 24.3037C43.2861 24.1865 43.2275 24.1133 43.1396 24.084C43.0518 24.0547 43.0078 23.9814 43.0078 23.8643C43.0371 23.7178 43.1104 23.6592 43.2275 23.6885C43.374 23.6885 43.4912 23.7031 43.5791 23.7324C43.5791 23.4102 43.667 23.1758 43.8428 23.0293C44.0479 22.8535 44.1797 22.6191 44.2383 22.3262C44.3848 22.0918 44.4727 21.9453 44.502 21.8867C44.5605 21.7988 44.5898 21.6963 44.5898 21.5791C44.7656 21.3447 44.9121 21.1836 45.0293 21.0957C45.3223 21.1543 45.5127 21.1689 45.6006 21.1396C45.9814 21.0811 46.2012 21.0811 46.2598 21.1396L46.9189 20.9199C47.2705 20.832 47.4609 20.8027 47.4902 20.832C47.5488 20.8613 47.6074 20.8906 47.666 20.9199C47.9883 21.0371 48.252 21.0518 48.457 20.9639C48.6914 20.876 48.9697 20.8174 49.292 20.7881C49.4385 20.9932 49.4824 21.1104 49.4238 21.1396C49.3945 21.1689 49.3799 21.2129 49.3799 21.2715C49.5264 21.2422 49.6436 21.1982 49.7314 21.1396C49.8486 21.0811 50.0098 21.0664 50.2148 21.0957C50.4199 21.0078 50.6689 20.9492 50.9619 20.9199C51.2842 20.8613 51.5625 20.9199 51.7969 21.0957C52.0312 20.9785 52.2656 20.8906 52.5 20.832C52.7344 20.7441 53.0127 20.6855 53.335 20.6562C53.5107 20.9492 53.54 21.1396 53.4229 21.2275C53.3057 21.3154 53.2617 21.4326 53.291 21.5791C52.998 21.8135 52.7344 21.96 52.5 22.0186C52.2656 22.0771 52.0752 22.1797 51.9287 22.3262C51.6943 22.3848 51.4893 22.458 51.3135 22.5459C51.167 22.6338 50.9766 22.6777 50.7422 22.6777C50.4785 22.9121 50.332 23.0586 50.3027 23.1172C50.3027 23.1758 50.2881 23.2344 50.2588 23.293C50.0244 23.4688 49.8047 23.6592 49.5996 23.8643C49.3945 24.04 49.2188 24.2598 49.0723 24.5234C48.8086 24.582 48.6768 24.6553 48.6768 24.7432C48.6768 24.8018 48.6621 24.8604 48.6328 24.9189C48.4863 25.124 48.3984 25.2559 48.3691 25.3145C48.3691 25.3438 48.3691 25.3877 48.3691 25.4463C48.3691 25.7686 48.2666 26.0029 48.0615 26.1494C47.8857 26.2666 47.7539 26.4424 47.666 26.6768C47.4023 26.8232 47.2705 27.1016 47.2705 27.5117C47.2119 27.5703 47.1533 27.6436 47.0947 27.7314C47.0361 27.8193 46.9775 27.8926 46.9189 27.9512C46.8604 28.1855 46.8018 28.3467 46.7432 28.4346C46.7139 28.4932 46.6846 28.5811 46.6553 28.6982C46.5381 28.8154 46.3916 28.9033 46.2158 28.9619C46.0693 29.0205 45.9229 29.0938 45.7764 29.1816C45.7764 29.4453 45.7471 29.5918 45.6885 29.6211C45.6592 29.6504 45.6299 29.6943 45.6006 29.7529C45.5713 29.8994 45.5713 30.0166 45.6006 30.1045C45.6299 30.1924 45.5859 30.2656 45.4688 30.3242C45.3223 30.6172 45.2197 30.7783 45.1611 30.8076C45.1318 30.8076 45.1025 30.8369 45.0732 30.8955C45.0732 31.2471 44.9414 31.4668 44.6777 31.5547C44.6484 31.7012 44.6045 31.8184 44.5459 31.9062C44.4873 31.9648 44.4287 32.0381 44.3701 32.126C44.165 32.3896 44.0186 32.5361 43.9307 32.5654C43.8428 32.5654 43.7695 32.5947 43.7109 32.6533C43.5352 32.9756 43.4766 33.1514 43.5352 33.1807C43.5938 33.1807 43.6084 33.2393 43.5791 33.3564C43.2861 33.5615 43.0957 33.7666 43.0078 33.9717C43.0371 34.2354 43.0225 34.3818 42.9639 34.4111C42.9053 34.4404 42.8613 34.499 42.832 34.5869C43.1836 34.6455 43.3301 34.7041 43.2715 34.7627C43.2129 34.8213 43.1689 34.8945 43.1396 34.9824C43.4326 35.1289 43.5645 35.2754 43.5352 35.4219C43.5352 35.5391 43.5205 35.6416 43.4912 35.7295C43.5498 35.7881 43.6084 35.8467 43.667 35.9053C43.7549 35.9639 43.8135 36.0518 43.8428 36.1689C44.1357 36.4033 44.2529 36.6084 44.1943 36.7842C44.1357 36.9307 44.0771 37.0918 44.0186 37.2676C44.3994 37.3555 44.5898 37.4141 44.5898 37.4434C44.8535 37.4434 44.9854 37.5605 44.9854 37.7949C44.9854 38.0293 44.9561 38.2344 44.8975 38.4102C45.3369 38.5273 45.5127 38.7031 45.4248 38.9375C45.3662 39.1719 45.3076 39.377 45.249 39.5527C45.3076 39.6992 45.4102 39.8018 45.5566 39.8604C45.7324 39.8896 45.8789 39.9629 45.9961 40.0801C46.084 40.2266 46.0986 40.3877 46.04 40.5635C45.9814 40.7393 45.9082 40.9004 45.8203 41.0469C46.1426 41.0176 46.3037 41.0469 46.3037 41.1348C46.333 41.2227 46.377 41.2959 46.4355 41.3545C46.6699 41.4717 46.8311 41.5449 46.9189 41.5742C47.0068 41.6035 47.0654 41.6768 47.0947 41.7939C47.0654 42.2041 47.0801 42.4238 47.1387 42.4531C47.2266 42.4824 47.2998 42.541 47.3584 42.6289C47.4463 42.9805 47.5342 43.2295 47.6221 43.376C47.71 43.4932 47.7393 43.6689 47.71 43.9033C47.7979 43.9326 47.8857 43.9619 47.9736 43.9912C48.0615 44.0205 48.1348 44.0645 48.1934 44.123C48.252 44.3867 48.2959 44.5479 48.3252 44.6064C48.3838 44.6357 48.4424 44.6797 48.501 44.7383C48.5303 45.0312 48.5742 45.2217 48.6328 45.3096C48.6914 45.3682 48.75 45.4561 48.8086 45.5732C48.7793 45.6904 48.7793 45.793 48.8086 45.8809C48.8379 45.9688 48.8525 46.0713 48.8525 46.1885C48.9404 46.1885 49.0283 46.2031 49.1162 46.2324C49.2334 46.2617 49.3213 46.3057 49.3799 46.3643C49.3506 46.5107 49.3652 46.6279 49.4238 46.7158C49.4824 46.7744 49.5264 46.833 49.5557 46.8916C49.585 47.0381 49.5703 47.1846 49.5117 47.3311C49.4824 47.4775 49.5117 47.6094 49.5996 47.7266C49.7461 47.7852 49.8926 47.8145 50.0391 47.8145C50.2148 47.7852 50.3613 47.8145 50.4785 47.9023C50.5371 48.166 50.5225 48.3271 50.4346 48.3857C50.376 48.4443 50.3467 48.5322 50.3467 48.6494C50.5225 48.9131 50.5957 49.0596 50.5664 49.0889C50.5371 49.1182 50.5225 49.1621 50.5225 49.2207C50.6982 49.4551 50.7422 49.7188 50.6543 50.0117C50.918 50.1875 51.0791 50.3193 51.1377 50.4072C51.1963 50.4658 51.2549 50.5391 51.3135 50.627C51.3721 50.8906 51.4453 51.0957 51.5332 51.2422C51.6211 51.3887 51.7236 51.5352 51.8408 51.6816C51.8408 51.916 51.8701 52.0771 51.9287 52.165C52.0459 52.1064 52.1777 52.0771 52.3242 52.0771C52.4707 52.0479 52.5732 52.1064 52.6318 52.2529C52.7197 52.458 52.8076 52.5605 52.8955 52.5605C53.0127 52.5605 53.0713 52.6191 53.0713 52.7363C53.1299 52.9707 53.2324 53.0879 53.3789 53.0879C53.5547 53.0879 53.6719 53.1465 53.7305 53.2637C53.7305 53.3809 53.7158 53.4834 53.6865 53.5713C53.6865 53.6885 53.7158 53.7764 53.7744 53.835C54.126 53.7764 54.3018 53.8496 54.3018 54.0547C54.3311 54.2891 54.2578 54.4795 54.082 54.626C54.1406 54.6846 54.2578 54.7139 54.4336 54.7139C54.6094 54.7139 54.7266 54.7432 54.7852 54.8018C54.9316 55.0361 55.0781 55.1533 55.2246 55.1533C55.3711 55.1826 55.4736 55.2412 55.5322 55.3291C55.5029 55.6807 55.5176 55.8711 55.5762 55.9004C55.6348 55.959 55.6494 56.0469 55.6201 56.1641C55.7959 56.4277 55.9863 56.6621 56.1914 56.8672C56.3672 56.8965 56.5283 56.9111 56.6748 56.9111C56.8213 56.9404 56.9385 57.0137 57.0264 57.1309Z" fill="white"/>
<path d="M33.707 46.4141C33.7721 46.5443 33.8535 46.6419 33.9512 46.707C34.0814 46.7721 34.1628 46.8861 34.1953 47.0488C34.1302 47.179 34.0814 47.293 34.0488 47.3906C34.0488 47.5208 33.9837 47.6185 33.8535 47.6836C33.528 47.6185 33.2025 47.5534 32.877 47.4883C32.584 47.4232 32.2585 47.3581 31.9004 47.293C31.5423 47.293 31.2656 47.3581 31.0703 47.4883C30.875 47.651 30.5983 47.7324 30.2402 47.7324C29.9798 47.6999 29.7845 47.6022 29.6543 47.4395C29.4915 47.472 29.3288 47.5046 29.166 47.5371C29.0358 47.5697 28.9219 47.5208 28.8242 47.3906C28.2383 47.4883 27.8477 47.6022 27.6523 47.7324C27.4896 47.8626 27.278 47.944 27.0176 47.9766C26.8874 47.8789 26.7734 47.7161 26.6758 47.4883C26.5781 47.4883 26.4642 47.4883 26.334 47.4883C26.2363 47.4883 26.1549 47.472 26.0898 47.4395C25.8945 47.5371 25.6504 47.6348 25.3574 47.7324C25.0645 47.8301 24.7878 47.7812 24.5273 47.5859C24.332 47.651 24.0879 47.6836 23.7949 47.6836C23.5345 47.7161 23.2904 47.765 23.0625 47.8301C22.9648 47.8952 22.8672 47.9603 22.7695 48.0254C22.7044 48.0905 22.5742 48.1068 22.3789 48.0742C22.3789 47.7161 22.444 47.5534 22.5742 47.5859C22.737 47.651 22.8509 47.6185 22.916 47.4883C23.0788 47.2279 23.2253 47.0814 23.3555 47.0488C23.5182 47.0488 23.681 47.0326 23.8438 47C24.0716 46.9349 24.2669 46.8372 24.4297 46.707C24.5924 46.5768 24.8529 46.528 25.2109 46.5605C25.3737 46.4629 25.4876 46.349 25.5527 46.2188C25.6504 46.0885 25.7643 45.9746 25.8945 45.877C25.8945 45.6816 25.9434 45.5352 26.041 45.4375C26.1387 45.3398 26.1875 45.1771 26.1875 44.9492C26.3503 44.7214 26.4154 44.5911 26.3828 44.5586C26.3503 44.526 26.334 44.4772 26.334 44.4121C26.3665 44.0866 26.334 43.8262 26.2363 43.6309C26.1387 43.403 26.1387 43.1426 26.2363 42.8496C26.1387 42.5892 26.1224 42.3451 26.1875 42.1172C26.0247 41.7266 25.9596 41.515 25.9922 41.4824C26.0573 41.4173 26.0736 41.3522 26.041 41.2871C25.9759 40.9941 25.8783 40.7174 25.748 40.457C25.6504 40.1966 25.6016 39.8874 25.6016 39.5293C25.4714 39.334 25.3737 39.1061 25.3086 38.8457C25.2435 38.5853 25.1784 38.3249 25.1133 38.0645C25.2435 37.6413 25.2435 37.3809 25.1133 37.2832C25.0156 37.1855 24.918 37.0879 24.8203 36.9902C24.4948 37.0879 24.2669 37.153 24.1367 37.1855C24.0391 37.2181 23.9577 37.2507 23.8926 37.2832C23.6322 37.2832 23.388 37.2669 23.1602 37.2344C22.9648 37.1693 22.737 37.1367 22.4766 37.1367C22.3138 37.2018 22.1185 37.2669 21.8906 37.332C21.6953 37.3646 21.5163 37.3158 21.3535 37.1855C20.9954 37.153 20.7839 37.1204 20.7188 37.0879C20.6862 37.0228 20.6374 36.9577 20.5723 36.8926C20.377 36.9251 20.1979 36.9902 20.0352 37.0879C19.9049 37.153 19.7585 37.1693 19.5957 37.1367C19.5306 37.0716 19.4655 37.0065 19.4004 36.9414C19.3678 36.8438 19.3027 36.7786 19.2051 36.7461C18.9447 36.7461 18.6517 36.8275 18.3262 36.9902C18.2611 37.4785 18.196 37.7878 18.1309 37.918C18.0983 38.0482 18.0332 38.1784 17.9355 38.3086C17.8704 38.4388 17.8053 38.569 17.7402 38.6992C17.7077 38.8294 17.7402 38.9759 17.8379 39.1387C17.7728 39.334 17.6914 39.513 17.5938 39.6758C17.5286 39.806 17.4635 39.9525 17.3984 40.1152C17.3984 40.2129 17.3984 40.3105 17.3984 40.4082C17.431 40.4733 17.431 40.5547 17.3984 40.6523C17.3659 40.8802 17.2845 41.0755 17.1543 41.2383C17.0566 41.401 17.0241 41.6452 17.0566 41.9707C16.959 42.1335 16.8776 42.2962 16.8125 42.459C16.7799 42.6217 16.7148 42.7845 16.6172 42.9473C16.6823 43.3379 16.6823 43.5658 16.6172 43.6309C16.5846 43.696 16.5521 43.7936 16.5195 43.9238C16.5195 43.9889 16.5195 44.0703 16.5195 44.168C16.5521 44.2656 16.5521 44.3633 16.5195 44.4609C16.4544 44.6888 16.373 44.8841 16.2754 45.0469C16.2103 45.2096 16.1615 45.4212 16.1289 45.6816C15.9987 46.1048 15.8848 46.3652 15.7871 46.4629C15.7871 46.821 15.7708 47.0977 15.7383 47.293C15.7057 47.4883 15.5592 47.5859 15.2988 47.5859C14.9733 47.8464 14.778 48.0417 14.7129 48.1719C14.6803 48.3346 14.5827 48.4323 14.4199 48.4648C14.2572 48.7904 14.0944 49.002 13.9316 49.0996C13.8014 49.1973 13.6061 49.2624 13.3457 49.2949C13.2155 49.36 13.1016 49.4414 13.0039 49.5391C12.9062 49.6367 12.7598 49.6693 12.5645 49.6367C12.4993 49.7018 12.418 49.7832 12.3203 49.8809C12.2552 49.9785 12.125 50.0111 11.9297 49.9785C11.5391 49.8809 11.36 49.8809 11.3926 49.9785C11.4251 50.0762 11.4089 50.1901 11.3438 50.3203C11.2461 50.7435 11.0833 50.9714 10.8555 51.0039C10.6276 51.0365 10.3997 51.0365 10.1719 51.0039C9.97656 51.1341 9.78125 51.248 9.58594 51.3457C9.42318 51.4759 9.29297 51.6224 9.19531 51.7852C9.03255 51.7852 8.91862 51.834 8.85352 51.9316C8.75586 52.0618 8.62565 52.1432 8.46289 52.1758C8.16992 52.4688 7.97461 52.6803 7.87695 52.8105C7.7793 52.9408 7.64909 53.0384 7.48633 53.1035C6.93294 53.3639 6.49349 53.6895 6.16797 54.0801C5.8099 54.4707 5.45182 54.8288 5.09375 55.1543C4.93099 55.0892 4.78451 54.9753 4.6543 54.8125C4.49154 54.6823 4.45898 54.487 4.55664 54.2266C4.6543 54.1289 4.76823 54.0312 4.89844 53.9336C5.02865 53.8685 5.1263 53.7546 5.19141 53.5918C5.45182 53.429 5.64714 53.2826 5.77734 53.1523C5.90755 53.0547 5.97266 52.8919 5.97266 52.6641C6.33073 52.1758 6.67253 51.6061 6.99805 50.9551C7.12826 50.89 7.24219 50.8086 7.33984 50.7109C7.40495 50.6133 7.47005 50.5156 7.53516 50.418C7.56771 50.1901 7.64909 50.0111 7.7793 49.8809C7.87695 49.7832 7.95833 49.6367 8.02344 49.4414C8.1862 49.3438 8.31641 49.2135 8.41406 49.0508C8.47917 48.8555 8.51172 48.6602 8.51172 48.4648C8.57682 48.3021 8.6582 48.123 8.75586 47.9277C8.82096 47.765 8.88607 47.6022 8.95117 47.4395C9.4069 46.9512 9.68359 46.4629 9.78125 45.9746C9.91146 45.4863 10.0742 45.0469 10.2695 44.6562C10.3346 44.3307 10.3997 44.168 10.4648 44.168C10.5625 44.168 10.6113 44.1354 10.6113 44.0703C10.5462 43.7448 10.5137 43.5495 10.5137 43.4844C10.5462 43.4193 10.5951 43.3542 10.6602 43.2891C10.6602 42.8984 10.709 42.5892 10.8066 42.3613C10.9368 42.1009 11.0671 41.8405 11.1973 41.5801C11.1322 41.4499 11.1159 41.3522 11.1484 41.2871C11.2135 41.222 11.2624 41.1243 11.2949 40.9941C11.2298 40.6035 11.2624 40.2617 11.3926 39.9688C11.5228 39.6432 11.6204 39.3177 11.6855 38.9922C11.7507 38.8945 11.7995 38.8132 11.832 38.748C11.8971 38.6504 11.9622 38.5527 12.0273 38.4551C12.125 38.2598 12.1901 38.0482 12.2227 37.8203C12.2552 37.5599 12.3203 37.332 12.418 37.1367C12.418 36.974 12.4342 36.8275 12.4668 36.6973C12.4993 36.5671 12.5482 36.4368 12.6133 36.3066C12.6133 35.8835 12.6296 35.623 12.6621 35.5254C12.6947 35.4277 12.7272 35.3301 12.7598 35.2324C12.7923 35.0697 12.8086 34.9395 12.8086 34.8418C12.8411 34.7116 12.8411 34.5651 12.8086 34.4023C12.9062 33.849 13.0202 33.3118 13.1504 32.791C13.3132 32.2702 13.4596 31.7331 13.5898 31.1797C13.6549 31.1146 13.7038 31.0332 13.7363 30.9355C13.7689 30.8053 13.8177 30.6914 13.8828 30.5938C13.9805 30.2357 14.0293 30.0404 14.0293 30.0078C14.0293 29.9427 14.0618 29.8776 14.127 29.8125C14.1921 29.4219 14.2409 29.0475 14.2734 28.6895C14.306 28.3314 14.3548 27.9733 14.4199 27.6152C14.4525 27.2897 14.5013 27.0781 14.5664 26.9805C14.6315 26.8828 14.6966 26.7689 14.7617 26.6387C14.7943 26.3457 14.778 26.0853 14.7129 25.8574C14.6478 25.597 14.6478 25.3203 14.7129 25.0273C14.9408 24.7669 15.1198 24.4902 15.25 24.1973C15.1849 23.8392 15.2174 23.5951 15.3477 23.4648C15.2174 23.0417 15.1849 22.7812 15.25 22.6836C15.3477 22.5534 15.429 22.4557 15.4941 22.3906C15.6895 21.8698 15.8197 21.3978 15.8848 20.9746C15.9499 20.5189 16.0964 20.1445 16.3242 19.8516C16.487 19.4609 16.5521 19.1517 16.5195 18.9238C16.5195 18.7611 16.4544 18.5983 16.3242 18.4355C16.2266 18.2728 16.2266 18.11 16.3242 17.9473C16.3893 17.8496 16.4382 17.752 16.4707 17.6543C16.5033 17.5241 16.5684 17.4264 16.666 17.3613C16.6986 17.1009 16.7148 16.8405 16.7148 16.5801C16.7148 16.2871 16.7474 16.0104 16.8125 15.75C16.6497 15.2943 16.6172 14.985 16.7148 14.8223C16.6497 14.6921 16.5846 14.6107 16.5195 14.5781C16.4544 14.5456 16.4056 14.4805 16.373 14.3828C16.5033 14.0247 16.487 13.7155 16.3242 13.4551C16.2591 13.39 16.1777 13.3411 16.0801 13.3086C16.015 13.2435 15.9499 13.1784 15.8848 13.1133C15.5267 12.9505 15.429 12.8203 15.5918 12.7227C15.7871 12.5924 15.9173 12.4622 15.9824 12.332C15.9173 12.2344 15.8197 12.1855 15.6895 12.1855C15.5918 12.153 15.4779 12.1367 15.3477 12.1367C15.2174 12.1367 15.1035 12.1204 15.0059 12.0879C14.9082 12.0228 14.8594 11.9089 14.8594 11.7461C15.0221 11.681 15.2012 11.6322 15.3965 11.5996C15.5918 11.5671 15.7708 11.5182 15.9336 11.4531C16.5521 11.4857 16.9427 11.5508 17.1055 11.6484C17.3659 11.5833 17.5938 11.502 17.7891 11.4043C17.9844 11.2741 18.2448 11.2578 18.5703 11.3555C18.9609 11.4531 19.2214 11.4043 19.3516 11.209C19.5143 10.9811 19.6934 10.8509 19.8887 10.8184C20.1165 10.7858 20.2793 10.8672 20.377 11.0625C20.4746 11.2578 20.4746 11.4857 20.377 11.7461C20.6048 11.7135 20.7676 11.6647 20.8652 11.5996C20.9954 11.5345 21.1419 11.4694 21.3047 11.4043C21.7604 11.5996 22.0534 11.6647 22.1836 11.5996C22.3464 11.502 22.5417 11.4206 22.7695 11.3555C23.1602 11.5508 23.388 11.6322 23.4531 11.5996C23.5508 11.5345 23.6647 11.5182 23.7949 11.5508C23.9251 11.4857 24.0391 11.4206 24.1367 11.3555C24.2344 11.2578 24.3646 11.2253 24.5273 11.2578C24.6901 11.5833 24.7227 11.7949 24.625 11.8926C24.5599 11.9902 24.5111 12.1204 24.4785 12.2832C24.6738 12.6087 24.7552 12.804 24.7227 12.8691C24.7227 12.9342 24.7389 12.9993 24.7715 13.0645C24.7389 13.2598 24.7064 13.4551 24.6738 13.6504C24.6738 13.8457 24.6738 14.0573 24.6738 14.2852C24.7064 14.3828 24.7389 14.4642 24.7715 14.5293C24.804 14.5944 24.8203 14.7083 24.8203 14.8711C25.0807 15.0664 25.1947 15.2129 25.1621 15.3105C25.1621 15.4082 25.1621 15.5059 25.1621 15.6035C25.2272 15.929 25.2435 16.1732 25.2109 16.3359C25.1784 16.4661 25.1947 16.5964 25.2598 16.7266C25.2923 16.8568 25.3249 16.9707 25.3574 17.0684C25.4225 17.1335 25.4551 17.1986 25.4551 17.2637C25.748 17.5566 25.862 17.7194 25.7969 17.752C25.7643 17.7845 25.7155 17.8496 25.6504 17.9473C25.9108 18.4681 26.0573 18.8587 26.0898 19.1191C26.1224 19.347 26.2038 19.5423 26.334 19.7051C26.3665 20.0957 26.513 20.4375 26.7734 20.7305C26.8385 21.2188 26.9036 21.6908 26.9688 22.1465C27.0339 22.5697 27.0827 23.0417 27.1152 23.5625C27.2454 23.5299 27.3268 23.4811 27.3594 23.416C27.4245 23.3509 27.5221 23.3346 27.6523 23.3672C27.5547 23.6927 27.5547 23.8555 27.6523 23.8555C27.75 23.8555 27.8151 23.888 27.8477 23.9531C27.8477 24.1159 27.7988 24.2298 27.7012 24.2949C27.6035 24.36 27.5384 24.4577 27.5059 24.5879C27.7337 25.1413 27.8639 25.5482 27.8965 25.8086C27.929 26.069 27.9616 26.3294 27.9941 26.5898C28.1569 26.8828 28.2546 27.0944 28.2871 27.2246C28.3197 27.3548 28.2871 27.4688 28.1895 27.5664C28.222 27.8268 28.2708 28.0221 28.3359 28.1523C28.4336 28.2826 28.5475 28.429 28.6777 28.5918C28.6452 28.7546 28.6615 28.8848 28.7266 28.9824C28.7917 29.0801 28.8242 29.2103 28.8242 29.373C28.8242 29.5358 28.7754 29.6497 28.6777 29.7148C28.6126 29.7799 28.5801 29.8776 28.5801 30.0078C28.7754 30.2682 28.9219 30.4635 29.0195 30.5938C29.1172 30.724 29.1986 30.8216 29.2637 30.8867C29.3613 31.2773 29.4264 31.5866 29.459 31.8145C29.5241 32.0098 29.6217 32.1725 29.752 32.3027C29.6868 32.9212 29.7682 33.377 29.9961 33.6699C30.1589 33.7676 30.3216 33.8652 30.4844 33.9629C30.6471 34.028 30.8099 34.1094 30.9727 34.207C31.0378 34.4349 30.9564 34.6302 30.7285 34.793C30.7611 34.9232 30.7936 35.0534 30.8262 35.1836C30.8913 35.2812 30.8913 35.4115 30.8262 35.5742C30.8913 35.7695 30.9401 35.9974 30.9727 36.2578C31.0378 36.4857 31.054 36.7135 31.0215 36.9414C31.054 37.0716 31.0866 37.2018 31.1191 37.332C31.1517 37.4622 31.168 37.6087 31.168 37.7715C31.2331 37.9017 31.2656 38.0482 31.2656 38.2109C31.2982 38.3737 31.3145 38.5527 31.3145 38.748C31.3796 38.8457 31.4284 38.9434 31.4609 39.041C31.4935 39.1061 31.526 39.1875 31.5586 39.2852C31.5586 39.4805 31.5911 39.6595 31.6562 39.8223C31.7214 39.9525 31.7865 40.0827 31.8516 40.2129C31.8841 40.5384 31.9329 40.8314 31.998 41.0918C32.0957 41.3522 32.1445 41.6615 32.1445 42.0195C32.3724 42.5729 32.584 42.931 32.7793 43.0938C33.0072 43.224 33.2025 43.3867 33.3652 43.582C33.3978 43.875 33.3815 44.1191 33.3164 44.3145C33.2513 44.4772 33.1862 44.6562 33.1211 44.8516C33.2839 45.0794 33.3978 45.3398 33.4629 45.6328C33.528 45.8932 33.6094 46.1536 33.707 46.4141ZM22.9648 32.3027C23.1276 32.498 23.3392 32.5143 23.5996 32.3516C23.5345 32.0911 23.4694 31.847 23.4043 31.6191C23.3392 31.3587 23.2741 31.0983 23.209 30.8379C23.3066 30.7077 23.3229 30.5449 23.2578 30.3496C23.2253 30.1217 23.2415 29.9102 23.3066 29.7148C23.209 29.5521 23.1276 29.373 23.0625 29.1777C22.9974 28.9824 22.8835 28.8034 22.7207 28.6406C22.6882 28.5104 22.6393 28.4128 22.5742 28.3477C22.5091 28.2826 22.4603 28.1849 22.4277 28.0547C22.4277 27.8594 22.4115 27.6478 22.3789 27.4199C22.3789 27.1921 22.4115 26.9805 22.4766 26.7852C22.3464 26.5247 22.2161 26.2806 22.0859 26.0527C21.9557 25.8249 21.8255 25.5807 21.6953 25.3203C21.5977 24.8646 21.5326 24.5065 21.5 24.2461C21.5 24.0833 21.5163 23.9043 21.5488 23.709C21.6139 23.5137 21.5163 23.3997 21.2559 23.3672C21.1908 23.8229 21.1419 24.1484 21.1094 24.3438C21.0768 24.5065 21.0117 24.653 20.9141 24.7832C20.8815 25.0111 20.8652 25.2227 20.8652 25.418C20.8652 25.5807 20.849 25.776 20.8164 26.0039C20.6536 26.1667 20.5723 26.362 20.5723 26.5898C20.6048 26.7852 20.6211 27.0293 20.6211 27.3223C20.5234 27.5176 20.4258 27.7129 20.3281 27.9082C20.2305 28.071 20.1328 28.2337 20.0352 28.3965C20.0026 28.5267 19.9863 28.6406 19.9863 28.7383C20.0189 28.8359 20.0026 28.9336 19.9375 29.0312C19.9049 29.194 19.8561 29.3242 19.791 29.4219C19.7585 29.487 19.7259 29.5846 19.6934 29.7148C19.6934 29.7799 19.6934 29.8776 19.6934 30.0078C19.7259 30.1055 19.7422 30.2031 19.7422 30.3008C19.7422 30.4635 19.7259 30.6426 19.6934 30.8379C19.6608 31.0332 19.6283 31.196 19.5957 31.3262C19.5306 31.4889 19.4492 31.6191 19.3516 31.7168C19.2865 31.8145 19.2214 31.9284 19.1562 32.0586C19.0911 32.4167 19.1725 32.5306 19.4004 32.4004C19.6608 32.2702 19.8724 32.2051 20.0352 32.2051C20.1328 32.2376 20.2142 32.2865 20.2793 32.3516C20.3444 32.3841 20.4421 32.4167 20.5723 32.4492C20.8327 32.5143 21.0605 32.5143 21.2559 32.4492C21.4837 32.3841 21.6953 32.4167 21.8906 32.5469C22.2161 32.3841 22.5742 32.3027 22.9648 32.3027Z" fill="white"/>
</g>
<defs>
<filter id="filter0_d_233_5" x="0.410156" y="10.7695" width="60.792" height="55.6797" filterUnits="userSpaceOnUse" color-interpolation-filters="sRGB">
<feFlood flood-opacity="0" result="BackgroundImageFix"/>
<feColorMatrix in="SourceAlpha" type="matrix" values="0 0 0 0 0 0 0 0 0 0 0 0 0 0 0 0 0 0 127 0" result="hardAlpha"/>
<feOffset dy="4"/>
<feGaussianBlur stdDeviation="2"/>
<feComposite in2="hardAlpha" operator="out"/>
<feColorMatrix type="matrix" values="0 0 0 0 0 0 0 0 0 0 0 0 0 0 0 0 0 0 0.25 0"/>
<feBlend mode="normal" in2="BackgroundImageFix" result="effect1_dropShadow_233_5"/>
<feBlend mode="normal" in="SourceGraphic" in2="effect1_dropShadow_233_5" result="shape"/>
</filter>
</defs>
</svg>
