<svg width="120" height="40" viewBox="0 0 120 40" fill="none" xmlns="http://www.w3.org/2000/svg">
<rect width="120" height="40" fill="black"/>
<path d="M37.0059 19.7539C37.0059 19.0638 37.0938 18.3997 37.2695 17.7617C37.4518 17.1172 37.7155 16.5182 38.0605 15.9648C38.4056 15.4115 38.8288 14.9069 39.3301 14.4512C39.8314 13.9954 40.401 13.6048 41.0391 13.2793C41.6836 12.9538 42.3932 12.7031 43.168 12.5273C43.9427 12.3451 44.776 12.2539 45.668 12.2539C46.2409 12.2539 46.7878 12.2897 47.3086 12.3613C47.8359 12.4329 48.3307 12.5339 48.793 12.6641C49.2552 12.7878 49.6816 12.9342 50.0723 13.1035C50.4694 13.2663 50.8275 13.4388 51.1465 13.6211L50.3066 15.2617C49.9421 15.0859 49.5254 14.9395 49.0566 14.8223C48.5944 14.6986 48.1126 14.6367 47.6113 14.6367C46.9408 14.6367 46.319 14.7572 45.7461 14.998C45.1732 15.2389 44.6784 15.5807 44.2617 16.0234C43.8451 16.4661 43.5163 17.0033 43.2754 17.6348C43.041 18.2598 42.9238 18.9629 42.9238 19.7441C42.9238 20.5189 43.041 21.222 43.2754 21.8535C43.5098 22.4785 43.832 23.0156 44.2422 23.4648C44.6589 23.9076 45.1504 24.2526 45.7168 24.5C46.2897 24.7409 46.9082 24.8613 47.5723 24.8613C48.041 24.8613 48.5098 24.806 48.9785 24.6953C49.4473 24.5781 49.877 24.4251 50.2676 24.2363L51.1074 25.877C50.7884 26.0658 50.4336 26.2415 50.043 26.4043C49.6523 26.5671 49.2292 26.7135 48.7734 26.8438C48.3177 26.9674 47.8294 27.0651 47.3086 27.1367C46.7878 27.2083 46.2409 27.2441 45.668 27.2441C44.3333 27.2441 43.1289 27.0488 42.0547 26.6582C40.987 26.2611 40.0788 25.724 39.3301 25.0469C38.5814 24.3633 38.0052 23.569 37.6016 22.6641C37.2044 21.7526 37.0059 20.7826 37.0059 19.7539ZM53.5977 23.7773C54.2878 24.1289 55.0104 24.3926 55.7656 24.5684C56.5208 24.7441 57.224 24.832 57.875 24.832C58.6237 24.832 59.1706 24.7246 59.5156 24.5098C59.8672 24.2949 60.043 24.002 60.043 23.6309C60.043 23.5137 60.0202 23.3932 59.9746 23.2695C59.9355 23.1458 59.8542 23.0254 59.7305 22.9082C59.6133 22.7845 59.4473 22.6641 59.2324 22.5469C59.0241 22.4232 58.7507 22.3027 58.4121 22.1855L56.6641 21.5898C55.4141 21.1602 54.4733 20.5807 53.8418 19.8516C53.2103 19.1159 52.8945 18.2435 52.8945 17.2344C52.8945 16.5833 53.0312 15.9583 53.3047 15.3594C53.5781 14.7539 53.9915 14.2233 54.5449 13.7676C55.0983 13.3053 55.7949 12.9375 56.6348 12.6641C57.4811 12.3906 58.4707 12.2539 59.6035 12.2539C60.1634 12.2539 60.7005 12.2865 61.2148 12.3516C61.7292 12.4167 62.2109 12.5013 62.6602 12.6055C63.1159 12.7096 63.5326 12.8301 63.9102 12.9668C64.2878 13.097 64.6198 13.2272 64.9062 13.3574L63.8516 15.2617C63.6432 15.1315 63.4219 15.0176 63.1875 14.9199C62.9596 14.8223 62.7285 14.7409 62.4941 14.6758C62.2663 14.6107 62.0417 14.5618 61.8203 14.5293C61.599 14.4967 61.3971 14.4805 61.2148 14.4805C60.9023 14.4805 60.6289 14.5228 60.3945 14.6074C60.1602 14.6855 59.9616 14.793 59.7988 14.9297C59.6426 15.0599 59.5221 15.2096 59.4375 15.3789C59.3594 15.5417 59.3203 15.7044 59.3203 15.8672C59.3203 16.0104 59.3529 16.1504 59.418 16.2871C59.4896 16.4173 59.6068 16.5475 59.7695 16.6777C59.9388 16.8014 60.1569 16.9284 60.4238 17.0586C60.6973 17.1823 61.0358 17.3125 61.4395 17.4492L62.6113 17.8398C63.8809 18.263 64.8509 18.8457 65.5215 19.5879C66.1921 20.3301 66.5273 21.2285 66.5273 22.2832C66.5273 22.9993 66.3646 23.6602 66.0391 24.2656C65.7201 24.8711 65.2415 25.3952 64.6035 25.8379C63.9655 26.2741 63.1712 26.6159 62.2207 26.8633C61.2767 27.1042 60.1797 27.2246 58.9297 27.2246C58.3307 27.2246 57.7513 27.1921 57.1914 27.127C56.638 27.0684 56.0944 26.9772 55.5605 26.8535C55.0332 26.7298 54.5124 26.5736 53.998 26.3848C53.4837 26.196 52.9694 25.9746 52.4551 25.7207L53.5977 23.7773ZM69.4375 23.7773C70.1276 24.1289 70.8503 24.3926 71.6055 24.5684C72.3607 24.7441 73.0638 24.832 73.7148 24.832C74.4635 24.832 75.0104 24.7246 75.3555 24.5098C75.707 24.2949 75.8828 24.002 75.8828 23.6309C75.8828 23.5137 75.86 23.3932 75.8145 23.2695C75.7754 23.1458 75.694 23.0254 75.5703 22.9082C75.4531 22.7845 75.2871 22.6641 75.0723 22.5469C74.8639 22.4232 74.5905 22.3027 74.252 22.1855L72.5039 21.5898C71.2539 21.1602 70.3132 20.5807 69.6816 19.8516C69.0501 19.1159 68.7344 18.2435 68.7344 17.2344C68.7344 16.5833 68.8711 15.9583 69.1445 15.3594C69.418 14.7539 69.8314 14.2233 70.3848 13.7676C70.9382 13.3053 71.6348 12.9375 72.4746 12.6641C73.321 12.3906 74.3105 12.2539 75.4434 12.2539C76.0033 12.2539 76.5404 12.2865 77.0547 12.3516C77.569 12.4167 78.0508 12.5013 78.5 12.6055C78.9557 12.7096 79.3724 12.8301 79.75 12.9668C80.1276 13.097 80.4596 13.2272 80.7461 13.3574L79.6914 15.2617C79.4831 15.1315 79.2617 15.0176 79.0273 14.9199C78.7995 14.8223 78.5684 14.7409 78.334 14.6758C78.1061 14.6107 77.8815 14.5618 77.6602 14.5293C77.4388 14.4967 77.237 14.4805 77.0547 14.4805C76.7422 14.4805 76.4688 14.5228 76.2344 14.6074C76 14.6855 75.8014 14.793 75.6387 14.9297C75.4824 15.0599 75.362 15.2096 75.2773 15.3789C75.1992 15.5417 75.1602 15.7044 75.1602 15.8672C75.1602 16.0104 75.1927 16.1504 75.2578 16.2871C75.3294 16.4173 75.4466 16.5475 75.6094 16.6777C75.7786 16.8014 75.9967 16.9284 76.2637 17.0586C76.5371 17.1823 76.8757 17.3125 77.2793 17.4492L78.4512 17.8398C79.7207 18.263 80.6908 18.8457 81.3613 19.5879C82.0319 20.3301 82.3672 21.2285 82.3672 22.2832C82.3672 22.9993 82.2044 23.6602 81.8789 24.2656C81.5599 24.8711 81.0814 25.3952 80.4434 25.8379C79.8053 26.2741 79.0111 26.6159 78.0605 26.8633C77.1165 27.1042 76.0195 27.2246 74.7695 27.2246C74.1706 27.2246 73.5911 27.1921 73.0312 27.127C72.4779 27.0684 71.9342 26.9772 71.4004 26.8535C70.873 26.7298 70.3522 26.5736 69.8379 26.3848C69.3236 26.196 68.8092 25.9746 68.2949 25.7207L69.4375 23.7773Z" fill="white"/>
</svg>
