<svg width="110" height="32" viewBox="0 0 110 32" fill="none" xmlns="http://www.w3.org/2000/svg">
<g filter="url(#filter0_d_192_20)">
<path d="M5 1.91547L19.7727 3.70455L5 1H104.376L101.591 3.10825L105 2V17.4216H101.591L105 18.9268L98.1818 18.018L103.864 21H76.5909L62.9545 18.9268L50.4545 16.2289L68.6364 19.2108L50.4545 17.4216L56.1364 18.9268L44.7727 18.018L52.7273 19.2108L51.5909 20.4036L53.8636 19.2108L62.9545 21H10.5993L11.1365 21.5L9 21L10.5993 22.2503L7 21L10.1365 23L5 21V4.30104H11.8182L5 3.10825H9.54545L5 1.91547Z" fill="black" shape-rendering="crispEdges"/>
<path d="M5.00601 1.86583L4.98731 1.96383L9.15792 3.05825H5L4.99138 3.15751L11.2422 4.25104H5H4.95V4.30104V21V21.0342L4.98186 21.0466L10.1183 23.0466L10.1634 22.9578L7.38661 21.1872L10.5829 22.2975L10.6301 22.2109L9.20963 21.1004L11.1251 21.5487L11.3082 21.5915L11.1705 21.4634L10.7264 21.05H62.9545L62.9642 20.9509L53.8733 19.1618L53.856 19.1584L53.8404 19.1665L51.8366 20.2182L52.7635 19.2453L52.8298 19.1756L52.7347 19.1614L46.2121 18.1833L56.1324 18.9767L56.1492 18.8785L51.0669 17.5322L60.604 18.4706L62.944 18.9757L62.944 18.9758L62.947 18.9763L76.5834 21.0494L76.5833 21.05H76.5909H103.864L103.887 20.9557L98.4549 18.1049L104.993 18.9764L105.02 18.8811L101.828 17.4716H105H105.05V17.4216V2V1.93117L104.985 1.95245L101.858 2.9689L104.406 1.03987L104.525 0.95H104.376H5L4.991 1.04918L18.1397 3.45642L5.00601 1.86583Z" stroke="url(#paint0_linear_192_20)" stroke-width="0.1" shape-rendering="crispEdges"/>
</g>
<path d="M42.944 14.764L42.872 14.836C42.856 14.86 42.836 14.884 42.812 14.908C42.796 14.932 42.776 14.952 42.752 14.968C42.744 14.984 42.724 15.008 42.692 15.04C42.676 15.056 42.664 15.064 42.656 15.064L42.548 15.172C42.516 15.204 42.496 15.228 42.488 15.244C42.472 15.308 42.456 15.376 42.44 15.448C42.424 15.52 42.408 15.588 42.392 15.652C42.376 15.716 42.36 15.78 42.344 15.844C42.328 15.908 42.312 15.972 42.296 16.036L42.152 16.552C42.144 16.584 42.132 16.62 42.116 16.66C42.108 16.7 42.096 16.74 42.08 16.78C42.056 16.86 42.02 16.936 41.972 17.008L41.936 17.044C41.928 17.052 41.92 17.06 41.912 17.068C41.904 17.076 41.896 17.084 41.888 17.092C41.88 17.116 41.872 17.14 41.864 17.164C41.856 17.196 41.844 17.224 41.828 17.248C41.812 17.264 41.792 17.264 41.768 17.248C41.712 17.208 41.688 17.18 41.696 17.164C41.704 17.148 41.716 17.14 41.732 17.14C41.748 17.148 41.74 17.16 41.708 17.176L41.66 17.2C41.652 17.208 41.644 17.216 41.636 17.224C41.636 17.232 41.636 17.236 41.636 17.236C41.612 17.268 41.588 17.3 41.564 17.332C41.548 17.372 41.528 17.408 41.504 17.44C41.496 17.448 41.484 17.46 41.468 17.476C41.452 17.492 41.432 17.5 41.408 17.5C41.384 17.5 41.364 17.488 41.348 17.464L41.324 17.44C41.308 17.408 41.292 17.376 41.276 17.344C41.268 17.312 41.256 17.28 41.24 17.248C41.24 17.24 41.236 17.232 41.228 17.224C41.228 17.224 41.228 17.22 41.228 17.212C41.172 17.06 41.112 16.908 41.048 16.756C40.992 16.612 40.928 16.468 40.856 16.324C40.84 16.292 40.828 16.272 40.82 16.264C40.812 16.264 40.804 16.26 40.796 16.252C40.788 16.252 40.776 16.252 40.76 16.252C40.728 16.252 40.712 16.252 40.712 16.252C40.704 16.356 40.716 16.484 40.748 16.636C40.788 16.788 40.808 16.92 40.808 17.032C40.816 17.144 40.768 17.196 40.664 17.188C40.568 17.18 40.52 17.12 40.52 17.008C40.52 16.904 40.536 16.78 40.568 16.636C40.608 16.5 40.624 16.38 40.616 16.276C40.608 16.324 40.592 16.368 40.568 16.408C40.544 16.448 40.524 16.488 40.508 16.528L40.424 16.672C40.416 16.68 40.404 16.688 40.388 16.696C40.38 16.712 40.368 16.728 40.352 16.744L40.34 16.756C40.308 16.772 40.292 16.78 40.292 16.78C40.284 16.86 40.28 16.944 40.28 17.032C40.288 17.12 40.292 17.208 40.292 17.296C40.276 17.168 40.24 17.1 40.184 17.092C40.136 17.076 40.104 17.1 40.088 17.164C40.088 17.084 40.088 17.004 40.088 16.924C40.096 16.852 40.096 16.78 40.088 16.708C40.08 16.708 40.068 16.704 40.052 16.696C40.044 16.688 40.044 16.684 40.052 16.684L40.004 16.636L39.86 16.48C39.812 16.44 39.764 16.4 39.716 16.36C39.676 16.32 39.624 16.272 39.56 16.216C39.496 16.168 39.468 16.144 39.476 16.144C39.492 16.152 39.504 16.156 39.512 16.156C39.52 16.164 39.488 16.152 39.416 16.12C39.4 16.136 39.392 16.164 39.392 16.204C39.4 16.244 39.404 16.264 39.404 16.264C39.404 16.264 39.388 16.216 39.356 16.12C38.58 16.104 37.892 15.976 37.292 15.736C36.7 15.488 36.24 15.1 35.912 14.572C35.776 14.348 35.672 14.112 35.6 13.864C35.576 13.816 35.552 13.756 35.528 13.684C35.528 13.668 35.524 13.656 35.516 13.648C35.516 13.64 35.516 13.632 35.516 13.624C35.484 13.504 35.46 13.348 35.444 13.156C35.428 12.956 35.42 12.76 35.42 12.568C35.42 12.368 35.42 12.208 35.42 12.088C35.42 11.976 35.416 11.824 35.408 11.632C35.408 11.432 35.412 11.228 35.42 11.02C35.428 10.812 35.44 10.636 35.456 10.492C35.464 10.452 35.468 10.42 35.468 10.396C35.468 10.364 35.472 10.332 35.48 10.3C35.48 10.292 35.48 10.288 35.48 10.288C35.488 10.28 35.492 10.272 35.492 10.264C35.532 10.008 35.592 9.772 35.672 9.556C35.76 9.332 35.868 9.128 35.996 8.944C36.044 8.856 36.116 8.764 36.212 8.668C36.572 8.268 37.032 7.972 37.592 7.78C38.152 7.58 38.776 7.48 39.464 7.48H39.752C39.776 7.48 39.796 7.484 39.812 7.492C40.468 7.524 41.084 7.66 41.66 7.9C42.236 8.132 42.692 8.484 43.028 8.956C43.092 9.028 43.144 9.108 43.184 9.196C43.232 9.284 43.272 9.376 43.304 9.472C43.36 9.6 43.404 9.736 43.436 9.88C43.468 10.024 43.488 10.168 43.496 10.312C43.496 10.32 43.496 10.34 43.496 10.372C43.504 10.396 43.508 10.408 43.508 10.408V10.42C43.508 10.452 43.508 10.484 43.508 10.516C43.516 10.54 43.516 10.568 43.508 10.6C43.5 10.608 43.496 10.62 43.496 10.636C43.496 10.644 43.492 10.656 43.484 10.672C43.468 10.688 43.456 10.704 43.448 10.72L43.436 10.732C43.42 10.756 43.396 10.784 43.364 10.816C43.34 10.84 43.324 10.86 43.316 10.876C43.316 10.892 43.308 10.9 43.292 10.9C43.284 10.9 43.276 10.892 43.268 10.876C43.268 10.86 43.26 10.848 43.244 10.84C43.252 10.832 43.248 10.836 43.232 10.852C43.216 10.86 43.204 10.864 43.196 10.864C43.132 10.88 43.084 10.904 43.052 10.936C43.004 10.968 42.964 11.008 42.932 11.056C42.9 11.104 42.864 11.148 42.824 11.188C42.808 11.204 42.788 11.224 42.764 11.248C42.748 11.272 42.728 11.292 42.704 11.308C42.656 11.316 42.632 11.296 42.632 11.248C42.632 11.2 42.612 11.188 42.572 11.212C42.564 11.212 42.544 11.224 42.512 11.248C42.488 11.272 42.476 11.284 42.476 11.284C42.428 11.324 42.376 11.368 42.32 11.416C42.264 11.456 42.2 11.48 42.128 11.488C42.088 11.488 42.048 11.48 42.008 11.464C41.976 11.448 41.94 11.436 41.9 11.428C41.836 11.396 41.772 11.364 41.708 11.332C41.644 11.3 41.58 11.276 41.516 11.26C41.444 11.236 41.368 11.22 41.288 11.212C41.216 11.196 41.148 11.168 41.084 11.128C41.036 11.096 40.988 11.064 40.94 11.032C40.892 10.992 40.844 10.956 40.796 10.924C40.788 10.916 40.78 10.912 40.772 10.912C40.764 10.904 40.752 10.896 40.736 10.888C40.712 10.864 40.696 10.852 40.688 10.852C40.688 10.852 40.684 10.86 40.676 10.876C40.676 10.884 40.676 10.896 40.676 10.912C40.668 10.92 40.664 10.932 40.664 10.948C40.664 10.956 40.656 10.964 40.64 10.972C40.624 10.988 40.616 10.98 40.616 10.948C40.608 10.94 40.604 10.932 40.604 10.924C40.604 10.916 40.6 10.908 40.592 10.9C40.568 10.876 40.556 10.852 40.556 10.828C40.54 10.804 40.524 10.776 40.508 10.744C40.468 10.704 40.436 10.66 40.412 10.612C40.364 10.516 40.324 10.424 40.292 10.336C40.26 10.24 40.204 10.152 40.124 10.072C40.116 10.056 40.108 10.044 40.1 10.036C40.092 10.028 40.084 10.02 40.076 10.012C40.068 10.012 40.06 10.012 40.052 10.012C40.052 10.004 40.052 10 40.052 10C40.036 9.984 40.024 9.976 40.016 9.976C40.016 9.976 40.004 9.976 39.98 9.976C39.948 9.976 39.924 9.972 39.908 9.964C39.884 9.964 39.864 9.968 39.848 9.976C39.84 9.976 39.832 9.984 39.824 10C39.816 10.008 39.804 10.008 39.788 10C39.78 10 39.776 9.992 39.776 9.976C39.72 10.008 39.676 10.056 39.644 10.12C39.612 10.184 39.58 10.24 39.548 10.288C39.532 10.32 39.512 10.36 39.488 10.408C39.464 10.448 39.432 10.476 39.392 10.492C39.384 10.5 39.372 10.508 39.356 10.516C39.348 10.524 39.344 10.524 39.344 10.516C39.328 10.428 39.32 10.344 39.32 10.264C39.328 10.176 39.324 10.092 39.308 10.012C39.284 10.044 39.26 10.076 39.236 10.108C39.22 10.14 39.2 10.172 39.176 10.204C39.168 10.212 39.148 10.228 39.116 10.252C39.092 10.276 39.072 10.284 39.056 10.276C39.04 10.276 39.024 10.268 39.008 10.252C38.976 10.236 38.952 10.212 38.936 10.18C38.92 10.14 38.904 10.108 38.888 10.084C38.88 10.068 38.876 10.052 38.876 10.036C38.876 10.02 38.868 10.008 38.852 10L38.816 10.036C38.792 10.06 38.764 10.096 38.732 10.144C38.732 10.152 38.728 10.156 38.72 10.156C38.72 10.156 38.72 10.16 38.72 10.168C38.72 10.176 38.716 10.18 38.708 10.18C38.708 10.18 38.708 10.184 38.708 10.192C38.676 10.24 38.648 10.304 38.624 10.384C38.592 10.488 38.572 10.588 38.564 10.684V10.9C38.556 11.012 38.552 11.128 38.552 11.248C38.552 11.36 38.552 11.472 38.552 11.584V12.34C38.552 12.42 38.552 12.5 38.552 12.58C38.56 12.652 38.564 12.728 38.564 12.808C38.564 12.84 38.564 12.876 38.564 12.916C38.572 12.948 38.576 12.984 38.576 13.024C38.584 13.032 38.588 13.044 38.588 13.06C38.588 13.076 38.592 13.092 38.6 13.108C38.6 13.132 38.604 13.148 38.612 13.156C38.62 13.188 38.628 13.22 38.636 13.252C38.652 13.276 38.664 13.304 38.672 13.336C38.744 13.44 38.856 13.524 39.008 13.588C39.168 13.644 39.336 13.676 39.512 13.684C39.696 13.692 39.856 13.664 39.992 13.6C40.032 13.576 40.072 13.548 40.112 13.516C40.152 13.484 40.188 13.448 40.22 13.408C40.252 13.368 40.28 13.316 40.304 13.252C40.32 13.212 40.332 13.176 40.34 13.144C40.356 13.112 40.368 13.08 40.376 13.048C40.392 13.008 40.408 12.972 40.424 12.94C40.448 12.908 40.484 12.872 40.532 12.832C40.548 12.824 40.56 12.82 40.568 12.82C40.576 12.82 40.584 12.816 40.592 12.808C40.632 12.792 40.672 12.784 40.712 12.784C40.76 12.776 40.808 12.772 40.856 12.772C40.904 12.772 40.952 12.776 41 12.784C41.048 12.784 41.092 12.784 41.132 12.784H42.896C42.912 12.784 42.96 12.784 43.04 12.784C43.12 12.776 43.188 12.776 43.244 12.784C43.316 12.784 43.376 12.808 43.424 12.856C43.472 12.904 43.5 12.952 43.508 13C43.516 13.024 43.52 13.052 43.52 13.084C43.52 13.108 43.52 13.136 43.52 13.168L43.484 13.444C43.428 13.836 43.304 14.192 43.112 14.512C43.072 14.592 43.016 14.676 42.944 14.764ZM40.1 17.668C40.092 17.58 40.084 17.488 40.076 17.392C40.068 17.296 40.072 17.22 40.088 17.164C40.088 17.244 40.088 17.324 40.088 17.404C40.088 17.492 40.092 17.58 40.1 17.668ZM40.232 17.908C40.216 17.964 40.212 17.968 40.22 17.92C40.228 17.872 40.24 17.8 40.256 17.704C40.28 17.608 40.292 17.512 40.292 17.416C40.292 17.496 40.288 17.576 40.28 17.656C40.272 17.744 40.256 17.828 40.232 17.908ZM40.1 17.668C40.108 17.708 40.112 17.748 40.112 17.788C40.12 17.828 40.128 17.86 40.136 17.884C40.112 17.812 40.1 17.74 40.1 17.668ZM51.5168 14.68C51.4608 14.76 51.4048 14.832 51.3488 14.896C51.2928 14.952 51.2448 15 51.2048 15.04L51.1208 15.124C51.1048 15.132 51.0848 15.144 51.0608 15.16C51.0448 15.176 51.0288 15.192 51.0128 15.208C50.9968 15.24 50.9808 15.272 50.9648 15.304C50.9568 15.328 50.9448 15.356 50.9288 15.388C50.8888 15.484 50.8368 15.568 50.7728 15.64C50.7648 15.648 50.7568 15.66 50.7488 15.676C50.7488 15.692 50.7448 15.696 50.7368 15.688C50.7288 15.68 50.7248 15.668 50.7248 15.652L50.6528 15.76C50.6448 15.776 50.6328 15.792 50.6168 15.808C50.6168 15.808 50.6128 15.812 50.6048 15.82C50.6048 15.82 50.6008 15.82 50.5928 15.82C50.5848 15.82 50.5808 15.824 50.5808 15.832C50.5808 15.832 50.5768 15.832 50.5688 15.832C50.5608 15.92 50.5568 16.056 50.5568 16.24C50.5568 16.424 50.5528 16.624 50.5448 16.84C50.5448 17.056 50.5408 17.256 50.5328 17.44C50.5328 17.624 50.5288 17.76 50.5208 17.848C50.5208 17.856 50.5128 17.864 50.4968 17.872C50.4808 17.88 50.4728 17.88 50.4728 17.872C50.4648 17.784 50.4568 17.644 50.4488 17.452C50.4488 17.26 50.4488 17.052 50.4488 16.828C50.4488 16.612 50.4448 16.408 50.4368 16.216C50.4368 16.032 50.4328 15.892 50.4248 15.796C50.4088 15.78 50.3928 15.768 50.3768 15.76C50.3768 15.76 50.3688 15.752 50.3528 15.736C50.3528 15.736 50.3488 15.736 50.3408 15.736C50.3408 15.728 50.3408 15.72 50.3408 15.712C50.3328 15.712 50.3288 15.712 50.3288 15.712C50.3288 15.704 50.3248 15.7 50.3168 15.7L50.3048 15.712C50.2968 15.736 50.2928 15.76 50.2928 15.784C50.2928 15.808 50.2848 15.84 50.2688 15.88C50.2608 15.912 50.2448 15.94 50.2208 15.964C50.2048 15.988 50.1848 16.016 50.1608 16.048C50.1608 16.056 50.1528 16.076 50.1368 16.108C50.1208 16.124 50.1088 16.132 50.1008 16.132C50.0928 16.132 50.0888 16.132 50.0888 16.132C50.0888 16.14 50.0888 16.144 50.0888 16.144C50.0168 16.272 49.9568 16.416 49.9088 16.576L49.8248 16.852C49.8168 16.876 49.8048 16.908 49.7888 16.948C49.7808 16.996 49.7768 17.008 49.7768 16.984C49.7608 16.856 49.7528 16.728 49.7528 16.6C49.7608 16.472 49.7568 16.344 49.7408 16.216C49.7408 16.224 49.7368 16.228 49.7288 16.228C49.7288 16.228 49.7288 16.232 49.7288 16.24C49.7128 16.296 49.6928 16.348 49.6688 16.396C49.6448 16.452 49.6208 16.508 49.5968 16.564C49.5568 16.652 49.5088 16.74 49.4528 16.828C49.3968 16.916 49.3328 16.996 49.2608 17.068C49.2528 17.076 49.2368 17.088 49.2128 17.104C49.1968 17.128 49.1768 17.148 49.1528 17.164C49.1208 17.196 49.0888 17.228 49.0568 17.26C49.0328 17.3 48.9888 17.312 48.9248 17.296C48.8768 17.272 48.8328 17.24 48.7928 17.2C48.7608 17.176 48.7248 17.144 48.6848 17.104C48.6528 17.064 48.6208 17.028 48.5888 16.996C48.5248 16.916 48.4648 16.828 48.4088 16.732C48.3608 16.644 48.3088 16.552 48.2528 16.456C48.2368 16.424 48.2168 16.384 48.1928 16.336C48.1688 16.296 48.1448 16.26 48.1208 16.228L48.0848 16.192C48.0848 16.184 48.0768 16.18 48.0608 16.18C48.0608 16.18 48.0448 16.168 48.0128 16.144C47.9968 16.152 47.9888 16.168 47.9888 16.192C47.9888 16.224 47.9808 16.248 47.9648 16.264C47.9488 16.296 47.9368 16.312 47.9288 16.312C47.9208 16.304 47.9128 16.292 47.9048 16.276C47.9048 16.26 47.9008 16.248 47.8928 16.24L47.8568 16.12H47.8448C46.9808 16.104 46.2648 15.972 45.6968 15.724C45.1368 15.468 44.7168 15.152 44.4368 14.776C44.3808 14.704 44.3328 14.632 44.2928 14.56C44.2528 14.496 44.2208 14.432 44.1968 14.368L44.1488 14.248C44.1248 14.184 44.1048 14.12 44.0888 14.056C44.0728 13.984 44.0568 13.916 44.0408 13.852C44.0328 13.788 44.0208 13.724 44.0048 13.66C43.9968 13.588 44.0088 13.52 44.0408 13.456C44.0408 13.448 44.0408 13.444 44.0408 13.444C44.0488 13.436 44.0528 13.432 44.0528 13.432C44.0688 13.4 44.1008 13.368 44.1488 13.336C44.1808 13.32 44.2128 13.312 44.2448 13.312C44.2768 13.304 44.3048 13.3 44.3288 13.3C44.4408 13.292 44.5528 13.292 44.6648 13.3C44.7768 13.3 44.8848 13.3 44.9888 13.3H46.1288C46.1688 13.3 46.2208 13.3 46.2848 13.3C46.3568 13.292 46.4208 13.288 46.4768 13.288C46.5248 13.288 46.5688 13.292 46.6088 13.3C46.6568 13.3 46.6968 13.304 46.7288 13.312C46.7928 13.32 46.8448 13.34 46.8848 13.372C46.9328 13.396 46.9808 13.428 47.0288 13.468L47.2088 13.588C47.2648 13.62 47.3208 13.648 47.3768 13.672C47.4328 13.696 47.4888 13.716 47.5448 13.732C47.6488 13.764 47.7888 13.78 47.9648 13.78C48.0608 13.78 48.1528 13.776 48.2408 13.768C48.3288 13.76 48.4088 13.748 48.4808 13.732L48.6008 13.696C48.6168 13.688 48.6288 13.684 48.6368 13.684C48.6528 13.684 48.6648 13.68 48.6728 13.672C48.8008 13.608 48.8648 13.532 48.8648 13.444V13.432C48.8648 13.384 48.8448 13.332 48.8048 13.276L48.7328 13.204H48.7208C48.6888 13.188 48.6448 13.188 48.5888 13.204C48.5328 13.212 48.4848 13.22 48.4448 13.228C48.4128 13.228 48.3768 13.232 48.3368 13.24C48.3048 13.24 48.2688 13.24 48.2288 13.24C48.2128 13.24 48.1968 13.236 48.1808 13.228C48.1648 13.22 48.1488 13.216 48.1328 13.216C48.1088 13.224 48.0848 13.232 48.0608 13.24C48.0448 13.248 48.0288 13.256 48.0128 13.264C47.9728 13.28 47.9288 13.296 47.8808 13.312C47.8328 13.328 47.7848 13.348 47.7368 13.372C47.6648 13.404 47.5888 13.432 47.5088 13.456C47.4368 13.472 47.3608 13.464 47.2808 13.432C47.2328 13.416 47.1888 13.396 47.1488 13.372C47.1088 13.348 47.0688 13.324 47.0288 13.3C46.9488 13.26 46.8728 13.216 46.8008 13.168C46.7368 13.12 46.6728 13.068 46.6088 13.012L46.3328 12.736L46.2368 12.664H46.1528C46.1448 12.672 46.1328 12.684 46.1168 12.7C46.1088 12.708 46.0968 12.72 46.0808 12.736C46.0488 12.768 46.0128 12.804 45.9728 12.844C45.9328 12.884 45.8928 12.92 45.8528 12.952C45.8368 12.96 45.8128 12.972 45.7808 12.988C45.7568 13.004 45.7328 13.008 45.7088 13C45.6768 12.984 45.6488 12.96 45.6248 12.928C45.6008 12.896 45.5808 12.864 45.5648 12.832C45.5408 12.768 45.5208 12.7 45.5048 12.628C45.4968 12.556 45.4768 12.492 45.4448 12.436C45.4128 12.412 45.3768 12.384 45.3368 12.352C45.3048 12.32 45.2728 12.288 45.2408 12.256C45.2328 12.248 45.2248 12.24 45.2168 12.232C45.2168 12.224 45.2088 12.216 45.1928 12.208C45.1368 12.152 45.1048 12.124 45.0968 12.124C45.0968 12.124 45.0808 12.116 45.0488 12.1C45.0328 12.084 45.0248 12.068 45.0248 12.052C44.9528 11.988 44.8848 11.92 44.8208 11.848C44.7968 11.816 44.7688 11.788 44.7368 11.764C44.7128 11.732 44.6928 11.7 44.6768 11.668C44.6448 11.636 44.6168 11.6 44.5928 11.56C44.5688 11.52 44.5448 11.484 44.5208 11.452C44.5048 11.42 44.4888 11.392 44.4728 11.368C44.4568 11.336 44.4408 11.304 44.4248 11.272C44.3528 11.152 44.2968 10.984 44.2568 10.768C44.2248 10.552 44.2128 10.34 44.2208 10.132C44.2288 9.916 44.2528 9.748 44.2928 9.628C44.3088 9.58 44.3248 9.532 44.3408 9.484C44.3568 9.436 44.3728 9.388 44.3888 9.34C44.4048 9.292 44.4208 9.256 44.4368 9.232C44.4528 9.184 44.4688 9.148 44.4848 9.124C44.7408 8.628 45.1528 8.236 45.7208 7.948C46.2888 7.652 46.9768 7.496 47.7848 7.48H47.8808C48.5448 7.48 49.1208 7.576 49.6088 7.768C50.1048 7.952 50.5128 8.192 50.8328 8.488C51.1528 8.776 51.3808 9.076 51.5168 9.388C51.5328 9.436 51.5488 9.484 51.5648 9.532C51.5888 9.58 51.6048 9.628 51.6128 9.676C51.6288 9.724 51.6408 9.776 51.6488 9.832C51.6648 9.888 51.6648 9.944 51.6488 10C51.6328 10.072 51.6008 10.128 51.5528 10.168C51.5208 10.2 51.4928 10.22 51.4688 10.228C51.4688 10.228 51.4608 10.236 51.4448 10.252C51.4368 10.252 51.4288 10.248 51.4208 10.24C51.4128 10.248 51.4048 10.252 51.3968 10.252C51.3888 10.244 51.3768 10.244 51.3608 10.252C51.3448 10.252 51.3248 10.26 51.3008 10.276C51.2848 10.284 51.2688 10.292 51.2528 10.3C51.1968 10.324 51.1408 10.352 51.0848 10.384C51.0368 10.416 50.9808 10.436 50.9168 10.444C50.8528 10.444 50.7888 10.436 50.7248 10.42C50.6608 10.396 50.5968 10.384 50.5328 10.384C50.4848 10.384 50.4368 10.396 50.3888 10.42C50.3408 10.436 50.2928 10.44 50.2448 10.432C50.2128 10.424 50.1808 10.412 50.1488 10.396C50.1168 10.372 50.0848 10.352 50.0528 10.336C50.0288 10.328 50.0048 10.32 49.9808 10.312C49.9568 10.304 49.9328 10.3 49.9088 10.3L49.8128 10.324C49.7328 10.34 49.6528 10.356 49.5728 10.372C49.4928 10.388 49.4088 10.4 49.3208 10.408C49.2888 10.416 49.2568 10.428 49.2248 10.444C49.2008 10.46 49.1728 10.472 49.1408 10.48C49.0928 10.496 49.0408 10.508 48.9848 10.516C48.9368 10.524 48.8848 10.52 48.8288 10.504C48.7568 10.472 48.6968 10.424 48.6488 10.36C48.6088 10.288 48.5648 10.224 48.5168 10.168C48.5008 10.144 48.4808 10.12 48.4568 10.096C48.4328 10.072 48.4088 10.048 48.3848 10.024C48.3768 10.032 48.3648 10.036 48.3488 10.036C48.2128 10.076 48.0888 10.06 47.9768 9.988C47.9528 9.972 47.9288 9.956 47.9048 9.94C47.8808 9.916 47.8528 9.9 47.8208 9.892C47.8208 9.884 47.8048 9.872 47.7728 9.856C47.7408 9.864 47.7088 9.876 47.6768 9.892C47.6448 9.9 47.6128 9.912 47.5808 9.928C47.5728 9.928 47.5608 9.932 47.5448 9.94C47.5368 9.94 47.5248 9.94 47.5088 9.94H47.4368C47.4048 9.94 47.3848 9.944 47.3768 9.952C47.3768 9.96 47.3688 9.972 47.3528 9.988C47.3528 9.996 47.3488 10 47.3408 10C47.3408 10 47.3408 10.004 47.3408 10.012C47.3248 10.044 47.3168 10.068 47.3168 10.084C47.3088 10.1 47.3048 10.124 47.3048 10.156C47.3048 10.268 47.3688 10.352 47.4968 10.408C47.5128 10.424 47.5448 10.44 47.5928 10.456C47.6648 10.488 47.7408 10.512 47.8208 10.528C47.9728 10.568 48.1448 10.604 48.3368 10.636L48.6368 10.672C48.6528 10.672 48.6688 10.676 48.6848 10.684C48.7088 10.684 48.7248 10.684 48.7328 10.684L48.9608 10.72H49.0328C49.0408 10.728 49.0488 10.732 49.0568 10.732C49.0808 10.732 49.1048 10.736 49.1288 10.744C49.1608 10.744 49.1928 10.748 49.2248 10.756C50.4728 10.98 51.2808 11.404 51.6488 12.028C51.6568 12.028 51.6608 12.032 51.6608 12.04C51.7088 12.096 51.7448 12.172 51.7688 12.268C51.7768 12.284 51.7848 12.304 51.7928 12.328C51.8008 12.344 51.8088 12.36 51.8168 12.376L51.8888 12.592C51.8888 12.6 51.8888 12.612 51.8888 12.628C51.8968 12.636 51.9008 12.644 51.9008 12.652C51.9248 12.724 51.9368 12.796 51.9368 12.868C51.9448 12.916 51.9488 12.964 51.9488 13.012C51.9488 13.052 51.9488 13.092 51.9488 13.132V13.288C51.9488 13.576 51.9008 13.852 51.8048 14.116C51.7488 14.316 51.6808 14.468 51.6008 14.572L51.5168 14.68ZM59.884 14.68C59.828 14.76 59.772 14.832 59.716 14.896C59.66 14.952 59.612 15 59.572 15.04L59.488 15.124C59.472 15.132 59.452 15.144 59.428 15.16C59.412 15.176 59.396 15.192 59.38 15.208C59.364 15.24 59.348 15.272 59.332 15.304C59.324 15.328 59.312 15.356 59.296 15.388C59.256 15.484 59.204 15.568 59.14 15.64C59.132 15.648 59.124 15.66 59.116 15.676C59.116 15.692 59.112 15.696 59.104 15.688C59.096 15.68 59.092 15.668 59.092 15.652L59.02 15.76C59.012 15.776 59 15.792 58.984 15.808C58.984 15.808 58.98 15.812 58.972 15.82C58.972 15.82 58.968 15.82 58.96 15.82C58.952 15.82 58.948 15.824 58.948 15.832C58.948 15.832 58.944 15.832 58.936 15.832C58.928 15.92 58.924 16.056 58.924 16.24C58.924 16.424 58.92 16.624 58.912 16.84C58.912 17.056 58.908 17.256 58.9 17.44C58.9 17.624 58.896 17.76 58.888 17.848C58.888 17.856 58.88 17.864 58.864 17.872C58.848 17.88 58.84 17.88 58.84 17.872C58.832 17.784 58.824 17.644 58.816 17.452C58.816 17.26 58.816 17.052 58.816 16.828C58.816 16.612 58.812 16.408 58.804 16.216C58.804 16.032 58.8 15.892 58.792 15.796C58.776 15.78 58.76 15.768 58.744 15.76C58.744 15.76 58.736 15.752 58.72 15.736C58.72 15.736 58.716 15.736 58.708 15.736C58.708 15.728 58.708 15.72 58.708 15.712C58.7 15.712 58.696 15.712 58.696 15.712C58.696 15.704 58.692 15.7 58.684 15.7L58.672 15.712C58.664 15.736 58.66 15.76 58.66 15.784C58.66 15.808 58.652 15.84 58.636 15.88C58.628 15.912 58.612 15.94 58.588 15.964C58.572 15.988 58.552 16.016 58.528 16.048C58.528 16.056 58.52 16.076 58.504 16.108C58.488 16.124 58.476 16.132 58.468 16.132C58.46 16.132 58.456 16.132 58.456 16.132C58.456 16.14 58.456 16.144 58.456 16.144C58.384 16.272 58.324 16.416 58.276 16.576L58.192 16.852C58.184 16.876 58.172 16.908 58.156 16.948C58.148 16.996 58.144 17.008 58.144 16.984C58.128 16.856 58.12 16.728 58.12 16.6C58.128 16.472 58.124 16.344 58.108 16.216C58.108 16.224 58.104 16.228 58.096 16.228C58.096 16.228 58.096 16.232 58.096 16.24C58.08 16.296 58.06 16.348 58.036 16.396C58.012 16.452 57.988 16.508 57.964 16.564C57.924 16.652 57.876 16.74 57.82 16.828C57.764 16.916 57.7 16.996 57.628 17.068C57.62 17.076 57.604 17.088 57.58 17.104C57.564 17.128 57.544 17.148 57.52 17.164C57.488 17.196 57.456 17.228 57.424 17.26C57.4 17.3 57.356 17.312 57.292 17.296C57.244 17.272 57.2 17.24 57.16 17.2C57.128 17.176 57.092 17.144 57.052 17.104C57.02 17.064 56.988 17.028 56.956 16.996C56.892 16.916 56.832 16.828 56.776 16.732C56.728 16.644 56.676 16.552 56.62 16.456C56.604 16.424 56.584 16.384 56.56 16.336C56.536 16.296 56.512 16.26 56.488 16.228L56.452 16.192C56.452 16.184 56.444 16.18 56.428 16.18C56.428 16.18 56.412 16.168 56.38 16.144C56.364 16.152 56.356 16.168 56.356 16.192C56.356 16.224 56.348 16.248 56.332 16.264C56.316 16.296 56.304 16.312 56.296 16.312C56.288 16.304 56.28 16.292 56.272 16.276C56.272 16.26 56.268 16.248 56.26 16.24L56.224 16.12H56.212C55.348 16.104 54.632 15.972 54.064 15.724C53.504 15.468 53.084 15.152 52.804 14.776C52.748 14.704 52.7 14.632 52.66 14.56C52.62 14.496 52.588 14.432 52.564 14.368L52.516 14.248C52.492 14.184 52.472 14.12 52.456 14.056C52.44 13.984 52.424 13.916 52.408 13.852C52.4 13.788 52.388 13.724 52.372 13.66C52.364 13.588 52.376 13.52 52.408 13.456C52.408 13.448 52.408 13.444 52.408 13.444C52.416 13.436 52.42 13.432 52.42 13.432C52.436 13.4 52.468 13.368 52.516 13.336C52.548 13.32 52.58 13.312 52.612 13.312C52.644 13.304 52.672 13.3 52.696 13.3C52.808 13.292 52.92 13.292 53.032 13.3C53.144 13.3 53.252 13.3 53.356 13.3H54.496C54.536 13.3 54.588 13.3 54.652 13.3C54.724 13.292 54.788 13.288 54.844 13.288C54.892 13.288 54.936 13.292 54.976 13.3C55.024 13.3 55.064 13.304 55.096 13.312C55.16 13.32 55.212 13.34 55.252 13.372C55.3 13.396 55.348 13.428 55.396 13.468L55.576 13.588C55.632 13.62 55.688 13.648 55.744 13.672C55.8 13.696 55.856 13.716 55.912 13.732C56.016 13.764 56.156 13.78 56.332 13.78C56.428 13.78 56.52 13.776 56.608 13.768C56.696 13.76 56.776 13.748 56.848 13.732L56.968 13.696C56.984 13.688 56.996 13.684 57.004 13.684C57.02 13.684 57.032 13.68 57.04 13.672C57.168 13.608 57.232 13.532 57.232 13.444V13.432C57.232 13.384 57.212 13.332 57.172 13.276L57.1 13.204H57.088C57.056 13.188 57.012 13.188 56.956 13.204C56.9 13.212 56.852 13.22 56.812 13.228C56.78 13.228 56.744 13.232 56.704 13.24C56.672 13.24 56.636 13.24 56.596 13.24C56.58 13.24 56.564 13.236 56.548 13.228C56.532 13.22 56.516 13.216 56.5 13.216C56.476 13.224 56.452 13.232 56.428 13.24C56.412 13.248 56.396 13.256 56.38 13.264C56.34 13.28 56.296 13.296 56.248 13.312C56.2 13.328 56.152 13.348 56.104 13.372C56.032 13.404 55.956 13.432 55.876 13.456C55.804 13.472 55.728 13.464 55.648 13.432C55.6 13.416 55.556 13.396 55.516 13.372C55.476 13.348 55.436 13.324 55.396 13.3C55.316 13.26 55.24 13.216 55.168 13.168C55.104 13.12 55.04 13.068 54.976 13.012L54.7 12.736L54.604 12.664H54.52C54.512 12.672 54.5 12.684 54.484 12.7C54.476 12.708 54.464 12.72 54.448 12.736C54.416 12.768 54.38 12.804 54.34 12.844C54.3 12.884 54.26 12.92 54.22 12.952C54.204 12.96 54.18 12.972 54.148 12.988C54.124 13.004 54.1 13.008 54.076 13C54.044 12.984 54.016 12.96 53.992 12.928C53.968 12.896 53.948 12.864 53.932 12.832C53.908 12.768 53.888 12.7 53.872 12.628C53.864 12.556 53.844 12.492 53.812 12.436C53.78 12.412 53.744 12.384 53.704 12.352C53.672 12.32 53.64 12.288 53.608 12.256C53.6 12.248 53.592 12.24 53.584 12.232C53.584 12.224 53.576 12.216 53.56 12.208C53.504 12.152 53.472 12.124 53.464 12.124C53.464 12.124 53.448 12.116 53.416 12.1C53.4 12.084 53.392 12.068 53.392 12.052C53.32 11.988 53.252 11.92 53.188 11.848C53.164 11.816 53.136 11.788 53.104 11.764C53.08 11.732 53.06 11.7 53.044 11.668C53.012 11.636 52.984 11.6 52.96 11.56C52.936 11.52 52.912 11.484 52.888 11.452C52.872 11.42 52.856 11.392 52.84 11.368C52.824 11.336 52.808 11.304 52.792 11.272C52.72 11.152 52.664 10.984 52.624 10.768C52.592 10.552 52.58 10.34 52.588 10.132C52.596 9.916 52.62 9.748 52.66 9.628C52.676 9.58 52.692 9.532 52.708 9.484C52.724 9.436 52.74 9.388 52.756 9.34C52.772 9.292 52.788 9.256 52.804 9.232C52.82 9.184 52.836 9.148 52.852 9.124C53.108 8.628 53.52 8.236 54.088 7.948C54.656 7.652 55.344 7.496 56.152 7.48H56.248C56.912 7.48 57.488 7.576 57.976 7.768C58.472 7.952 58.88 8.192 59.2 8.488C59.52 8.776 59.748 9.076 59.884 9.388C59.9 9.436 59.916 9.484 59.932 9.532C59.956 9.58 59.972 9.628 59.98 9.676C59.996 9.724 60.008 9.776 60.016 9.832C60.032 9.888 60.032 9.944 60.016 10C60 10.072 59.968 10.128 59.92 10.168C59.888 10.2 59.86 10.22 59.836 10.228C59.836 10.228 59.828 10.236 59.812 10.252C59.804 10.252 59.796 10.248 59.788 10.24C59.78 10.248 59.772 10.252 59.764 10.252C59.756 10.244 59.744 10.244 59.728 10.252C59.712 10.252 59.692 10.26 59.668 10.276C59.652 10.284 59.636 10.292 59.62 10.3C59.564 10.324 59.508 10.352 59.452 10.384C59.404 10.416 59.348 10.436 59.284 10.444C59.22 10.444 59.156 10.436 59.092 10.42C59.028 10.396 58.964 10.384 58.9 10.384C58.852 10.384 58.804 10.396 58.756 10.42C58.708 10.436 58.66 10.44 58.612 10.432C58.58 10.424 58.548 10.412 58.516 10.396C58.484 10.372 58.452 10.352 58.42 10.336C58.396 10.328 58.372 10.32 58.348 10.312C58.324 10.304 58.3 10.3 58.276 10.3L58.18 10.324C58.1 10.34 58.02 10.356 57.94 10.372C57.86 10.388 57.776 10.4 57.688 10.408C57.656 10.416 57.624 10.428 57.592 10.444C57.568 10.46 57.54 10.472 57.508 10.48C57.46 10.496 57.408 10.508 57.352 10.516C57.304 10.524 57.252 10.52 57.196 10.504C57.124 10.472 57.064 10.424 57.016 10.36C56.976 10.288 56.932 10.224 56.884 10.168C56.868 10.144 56.848 10.12 56.824 10.096C56.8 10.072 56.776 10.048 56.752 10.024C56.744 10.032 56.732 10.036 56.716 10.036C56.58 10.076 56.456 10.06 56.344 9.988C56.32 9.972 56.296 9.956 56.272 9.94C56.248 9.916 56.22 9.9 56.188 9.892C56.188 9.884 56.172 9.872 56.14 9.856C56.108 9.864 56.076 9.876 56.044 9.892C56.012 9.9 55.98 9.912 55.948 9.928C55.94 9.928 55.928 9.932 55.912 9.94C55.904 9.94 55.892 9.94 55.876 9.94H55.804C55.772 9.94 55.752 9.944 55.744 9.952C55.744 9.96 55.736 9.972 55.72 9.988C55.72 9.996 55.716 10 55.708 10C55.708 10 55.708 10.004 55.708 10.012C55.692 10.044 55.684 10.068 55.684 10.084C55.676 10.1 55.672 10.124 55.672 10.156C55.672 10.268 55.736 10.352 55.864 10.408C55.88 10.424 55.912 10.44 55.96 10.456C56.032 10.488 56.108 10.512 56.188 10.528C56.34 10.568 56.512 10.604 56.704 10.636L57.004 10.672C57.02 10.672 57.036 10.676 57.052 10.684C57.076 10.684 57.092 10.684 57.1 10.684L57.328 10.72H57.4C57.408 10.728 57.416 10.732 57.424 10.732C57.448 10.732 57.472 10.736 57.496 10.744C57.528 10.744 57.56 10.748 57.592 10.756C58.84 10.98 59.648 11.404 60.016 12.028C60.024 12.028 60.028 12.032 60.028 12.04C60.076 12.096 60.112 12.172 60.136 12.268C60.144 12.284 60.152 12.304 60.16 12.328C60.168 12.344 60.176 12.36 60.184 12.376L60.256 12.592C60.256 12.6 60.256 12.612 60.256 12.628C60.264 12.636 60.268 12.644 60.268 12.652C60.292 12.724 60.304 12.796 60.304 12.868C60.312 12.916 60.316 12.964 60.316 13.012C60.316 13.052 60.316 13.092 60.316 13.132V13.288C60.316 13.576 60.268 13.852 60.172 14.116C60.116 14.316 60.048 14.468 59.968 14.572L59.884 14.68ZM70.6577 12.292C70.7297 12.38 70.7817 12.52 70.8137 12.712C70.8537 12.904 70.8737 13.116 70.8737 13.348C70.8737 13.572 70.8537 13.78 70.8137 13.972C70.7737 14.164 70.7137 14.304 70.6337 14.392C70.6177 14.424 70.5977 14.456 70.5737 14.488C70.5577 14.52 70.5417 14.552 70.5257 14.584C70.4697 14.68 70.4097 14.764 70.3457 14.836C70.3137 14.868 70.2817 14.904 70.2497 14.944C70.2257 14.976 70.1937 15.008 70.1537 15.04L70.0817 15.112C70.0657 15.12 70.0497 15.132 70.0337 15.148C70.0257 15.156 70.0097 15.172 69.9857 15.196C69.9697 15.212 69.9497 15.232 69.9257 15.256C69.9097 15.272 69.8937 15.296 69.8777 15.328L69.8297 15.412C69.8217 15.444 69.8057 15.476 69.7817 15.508C69.7657 15.54 69.7497 15.572 69.7337 15.604C69.7177 15.636 69.7017 15.66 69.6857 15.676C69.6777 15.684 69.6657 15.696 69.6497 15.712C69.6337 15.72 69.6177 15.728 69.6017 15.736C69.5857 15.752 69.5737 15.76 69.5657 15.76C69.5497 15.792 69.5377 15.828 69.5297 15.868C69.5297 15.9 69.5217 15.936 69.5057 15.976C69.4977 15.992 69.4897 16.016 69.4817 16.048C69.4737 16.08 69.4657 16.088 69.4577 16.072C69.4337 16.032 69.4217 15.984 69.4217 15.928C69.4297 15.872 69.4257 15.82 69.4097 15.772C69.3937 15.708 69.3697 15.7 69.3377 15.748C69.3137 15.788 69.2937 15.804 69.2777 15.796C69.2617 15.78 69.2537 15.76 69.2537 15.736C69.2617 15.712 69.2577 15.692 69.2417 15.676L69.1937 15.724C69.1937 15.732 69.1897 15.74 69.1817 15.748C69.1657 15.772 69.1457 15.792 69.1217 15.808C69.1057 15.824 69.0897 15.84 69.0737 15.856C69.0737 15.856 69.0697 15.86 69.0617 15.868C69.0617 15.868 69.0577 15.868 69.0497 15.868C69.0497 15.868 69.0497 15.872 69.0497 15.88C69.0497 15.88 69.0457 15.884 69.0377 15.892C69.0297 15.956 69.0217 16.024 69.0137 16.096C69.0137 16.168 69.0057 16.236 68.9897 16.3C68.9897 16.332 68.9897 16.368 68.9897 16.408C68.9977 16.448 68.9857 16.48 68.9537 16.504C68.9377 16.52 68.9297 16.508 68.9297 16.468C68.9297 16.428 68.9257 16.396 68.9177 16.372C68.9097 16.308 68.9057 16.244 68.9057 16.18C68.9057 16.124 68.8977 16.068 68.8817 16.012L68.7257 16.168C68.6937 16.2 68.6737 16.224 68.6657 16.24C68.6257 16.296 68.5857 16.344 68.5457 16.384C68.5137 16.424 68.4857 16.46 68.4617 16.492C68.4537 16.508 68.4377 16.524 68.4137 16.54C68.3977 16.556 68.3817 16.572 68.3657 16.588C68.3417 16.62 68.3137 16.648 68.2817 16.672C68.2497 16.696 68.2177 16.724 68.1857 16.756C68.1777 16.764 68.1657 16.772 68.1497 16.78C68.1337 16.796 68.1177 16.812 68.1017 16.828C68.0937 16.86 68.0857 16.892 68.0777 16.924C68.0777 16.964 68.0737 17.004 68.0657 17.044C68.0497 17.156 68.0297 17.268 68.0057 17.38C67.9897 17.5 67.9697 17.616 67.9457 17.728C67.9297 17.808 67.9097 17.888 67.8857 17.968C67.8697 18.056 67.8417 18.136 67.8017 18.208C67.7937 18.216 67.7817 18.228 67.7657 18.244C67.7497 18.268 67.7297 18.272 67.7057 18.256C67.6737 18.224 67.6577 18.2 67.6577 18.184C67.6417 18.016 67.6377 17.848 67.6457 17.68C67.6617 17.512 67.6497 17.348 67.6097 17.188C67.5937 17.14 67.5857 17.152 67.5857 17.224C67.5937 17.296 67.6017 17.388 67.6097 17.5C67.6177 17.612 67.6177 17.704 67.6097 17.776C67.6097 17.856 67.5937 17.876 67.5617 17.836C67.4817 17.724 67.4577 17.6 67.4897 17.464C67.5217 17.328 67.5297 17.196 67.5137 17.068C67.5137 17.044 67.5097 17.052 67.5017 17.092C67.5017 17.132 67.4977 17.168 67.4897 17.2C67.4897 17.24 67.4857 17.252 67.4777 17.236C67.4537 17.18 67.4417 17.12 67.4417 17.056C67.4497 16.992 67.4457 16.932 67.4297 16.876C67.4217 16.868 67.4097 16.86 67.3937 16.852C67.3697 16.828 67.3457 16.8 67.3217 16.768C67.3057 16.744 67.2897 16.72 67.2737 16.696C67.2657 16.68 67.2577 16.664 67.2497 16.648C67.2417 16.64 67.2337 16.628 67.2257 16.612C67.2097 16.58 67.1937 16.548 67.1777 16.516C67.1617 16.492 67.1457 16.464 67.1297 16.432L67.0937 16.348C67.0937 16.34 67.0897 16.336 67.0817 16.336C67.0817 16.336 67.0817 16.332 67.0817 16.324L67.0457 16.24L67.0337 16.228C67.0017 16.172 66.9777 16.14 66.9617 16.132C66.9457 16.132 66.9257 16.128 66.9017 16.12C66.8937 16.128 66.8897 16.14 66.8897 16.156C66.8977 16.172 66.8897 16.18 66.8657 16.18C66.8577 16.18 66.8497 16.172 66.8417 16.156C66.8337 16.14 66.8217 16.128 66.8057 16.12C65.9177 16.104 65.2057 15.964 64.6697 15.7C64.1417 15.428 63.7457 15.12 63.4817 14.776C63.3697 14.648 63.2777 14.5 63.2057 14.332C63.1417 14.156 63.0897 13.984 63.0497 13.816C63.0497 13.8 63.0457 13.784 63.0377 13.768C63.0377 13.744 63.0377 13.728 63.0377 13.72V13.564C63.0617 13.452 63.1337 13.384 63.2537 13.36C63.2937 13.352 63.3377 13.352 63.3857 13.36C63.4417 13.36 63.4937 13.36 63.5417 13.36H65.2337C65.3297 13.36 65.4257 13.356 65.5217 13.348C65.6257 13.34 65.7217 13.348 65.8097 13.372C65.8737 13.38 65.9297 13.4 65.9777 13.432C66.0257 13.456 66.0657 13.488 66.0977 13.528L66.1817 13.6L66.1937 13.612C66.2017 13.62 66.2137 13.632 66.2297 13.648C66.2537 13.656 66.2577 13.656 66.2417 13.648C66.3137 13.688 66.3777 13.716 66.4337 13.732C66.4977 13.74 66.5577 13.752 66.6137 13.768C66.6297 13.768 66.6417 13.772 66.6497 13.78C66.6577 13.78 66.6657 13.78 66.6737 13.78C66.6897 13.78 66.7097 13.78 66.7337 13.78C66.7577 13.78 66.7777 13.784 66.7937 13.792H66.9857C67.0417 13.792 67.0857 13.788 67.1177 13.78C67.2217 13.764 67.3177 13.736 67.4057 13.696C67.5017 13.656 67.5777 13.596 67.6337 13.516C67.6817 13.452 67.7097 13.392 67.7177 13.336C67.7257 13.32 67.7297 13.292 67.7297 13.252C67.7457 13.188 67.7457 13.116 67.7297 13.036C67.7217 13.02 67.7137 13 67.7057 12.976C67.7057 12.952 67.6977 12.932 67.6817 12.916C67.6817 12.9 67.6737 12.884 67.6577 12.868C67.6417 12.844 67.6177 12.816 67.5857 12.784C67.5537 12.768 67.5297 12.76 67.5137 12.76C67.4097 12.744 67.3057 12.76 67.2017 12.808C67.1057 12.848 67.0057 12.888 66.9017 12.928C66.8457 12.952 66.7817 12.968 66.7097 12.976C66.6377 12.984 66.5697 12.988 66.5057 12.988C66.4977 12.996 66.4897 13 66.4817 13C66.4657 13.008 66.4337 13.004 66.3857 12.988C66.2577 12.98 66.1377 12.936 66.0257 12.856C65.9217 12.776 65.8097 12.716 65.6897 12.676C65.6577 12.66 65.6337 12.652 65.6177 12.652L65.5337 12.664C65.4457 12.664 65.3617 12.64 65.2817 12.592C65.2097 12.544 65.1617 12.48 65.1377 12.4C65.1217 12.336 65.1137 12.284 65.1137 12.244C65.1137 12.204 65.1137 12.164 65.1137 12.124C65.1217 12.084 65.1257 12.048 65.1257 12.016V11.332C65.1257 11.228 65.1417 11.148 65.1737 11.092C65.1817 11.06 65.2017 11.02 65.2337 10.972C65.2737 10.916 65.3177 10.876 65.3657 10.852L65.4377 10.816C65.4537 10.8 65.4697 10.788 65.4857 10.78C65.5017 10.772 65.5177 10.764 65.5337 10.756C65.5657 10.74 65.5937 10.724 65.6177 10.708C65.6417 10.692 65.6697 10.676 65.7017 10.66C65.7337 10.652 65.7657 10.636 65.7977 10.612C65.8217 10.596 65.8457 10.584 65.8697 10.576C65.9017 10.56 65.9297 10.544 65.9537 10.528L66.1697 10.42L66.7817 10.072C66.7897 10.064 66.7977 10.06 66.8057 10.06C66.8137 10.06 66.8217 10.056 66.8297 10.048C66.8457 10.032 66.8657 10.02 66.8897 10.012C66.9137 9.996 66.9377 9.984 66.9617 9.976L66.9737 9.94C66.9497 9.948 66.9257 9.96 66.9017 9.976C66.8857 9.984 66.8657 9.996 66.8417 10.012C66.7857 10.044 66.7217 10.072 66.6497 10.096C66.5857 10.12 66.5177 10.136 66.4457 10.144C66.4217 10.144 66.3977 10.144 66.3737 10.144C66.3577 10.136 66.3377 10.132 66.3137 10.132C66.2897 10.14 66.2657 10.148 66.2417 10.156C66.2177 10.164 66.1937 10.172 66.1697 10.18L66.0017 10.204C65.9857 10.212 65.9657 10.22 65.9417 10.228C65.9177 10.236 65.8977 10.244 65.8817 10.252C65.8497 10.26 65.8137 10.268 65.7737 10.276C65.7337 10.284 65.6937 10.292 65.6537 10.3C65.5977 10.324 65.5457 10.344 65.4977 10.36C65.4337 10.368 65.3657 10.368 65.2937 10.36C65.2297 10.344 65.1737 10.332 65.1257 10.324C65.1177 10.388 65.1097 10.46 65.1017 10.54C65.1017 10.62 65.1017 10.704 65.1017 10.792C65.1017 10.88 65.1017 10.968 65.1017 11.056C65.1017 11.144 65.0977 11.232 65.0897 11.32V11.524C65.0897 11.556 65.0857 11.588 65.0777 11.62C65.0777 11.652 65.0777 11.68 65.0777 11.704C65.0777 11.712 65.0697 11.708 65.0537 11.692C65.0537 11.684 65.0497 11.68 65.0417 11.68C65.0417 11.664 65.0377 11.656 65.0297 11.656C65.0297 11.648 65.0297 11.64 65.0297 11.632C65.0057 11.592 64.9897 11.564 64.9817 11.548C64.9737 11.524 64.9657 11.504 64.9577 11.488C64.9497 11.464 64.9377 11.44 64.9217 11.416C64.9057 11.376 64.8897 11.332 64.8737 11.284C64.8657 11.236 64.8537 11.192 64.8377 11.152C64.7977 11.032 64.7577 10.916 64.7177 10.804C64.6857 10.684 64.6497 10.568 64.6097 10.456C64.5937 10.416 64.5777 10.376 64.5617 10.336C64.5457 10.296 64.5297 10.26 64.5137 10.228L64.4537 10.096V10.108C64.4377 10.196 64.4297 10.288 64.4297 10.384C64.4297 10.48 64.4217 10.572 64.4057 10.66C64.3977 10.676 64.3897 10.668 64.3817 10.636C64.3737 10.596 64.3657 10.568 64.3577 10.552C64.3497 10.536 64.3417 10.52 64.3337 10.504C64.3257 10.48 64.3177 10.46 64.3097 10.444C64.2937 10.412 64.2737 10.384 64.2497 10.36C64.2337 10.328 64.2217 10.296 64.2137 10.264C64.2057 10.24 64.2017 10.216 64.2017 10.192C64.2017 10.168 64.1977 10.144 64.1897 10.12C64.1817 10.136 64.1737 10.156 64.1657 10.18C64.1657 10.196 64.1657 10.224 64.1657 10.264C64.1497 10.44 64.1377 10.66 64.1297 10.924C64.1297 11.18 64.1217 11.4 64.1057 11.584C64.1057 11.624 64.1017 11.684 64.0937 11.764C64.0857 11.836 64.0777 11.896 64.0697 11.944C64.0697 11.992 64.0657 11.996 64.0577 11.956C64.0417 11.836 64.0457 11.684 64.0697 11.5C64.0937 11.316 64.1097 11.132 64.1177 10.948C64.1257 10.764 64.0897 10.612 64.0097 10.492C63.9697 10.42 63.9457 10.428 63.9377 10.516C63.9377 10.604 63.9457 10.728 63.9617 10.888C63.9777 11.048 63.9897 11.208 63.9977 11.368C64.0137 11.528 64.0177 11.652 64.0097 11.74C64.0097 11.828 63.9897 11.836 63.9497 11.764C63.8697 11.644 63.8297 11.496 63.8297 11.32C63.8377 11.136 63.8537 10.956 63.8777 10.78C63.9097 10.596 63.9177 10.444 63.9017 10.324C63.9017 10.284 63.8977 10.304 63.8897 10.384C63.8897 10.456 63.8857 10.532 63.8777 10.612C63.8777 10.692 63.8697 10.712 63.8537 10.672C63.8297 10.568 63.8177 10.492 63.8177 10.444C63.8257 10.396 63.8297 10.344 63.8297 10.288C63.8297 10.224 63.8097 10.128 63.7697 10C63.7697 10 63.7577 9.988 63.7337 9.964C63.7177 9.932 63.7017 9.908 63.6857 9.892C63.6777 9.876 63.6697 9.868 63.6617 9.868C63.6537 9.86 63.6457 9.852 63.6377 9.844L63.5777 9.748C63.5777 9.74 63.5737 9.736 63.5657 9.736C63.5657 9.728 63.5657 9.72 63.5657 9.712C63.5657 9.696 63.5617 9.68 63.5537 9.664C63.5457 9.624 63.5417 9.588 63.5417 9.556C63.5417 9.524 63.5417 9.492 63.5417 9.46C63.5417 9.42 63.5417 9.384 63.5417 9.352C63.5497 9.312 63.5537 9.276 63.5537 9.244V7.912C63.5537 7.888 63.5617 7.852 63.5777 7.804L63.6137 7.732C63.6377 7.692 63.6657 7.668 63.6977 7.66C63.7217 7.636 63.7497 7.62 63.7817 7.612C63.8537 7.588 63.9297 7.58 64.0097 7.588C64.0977 7.596 64.1817 7.6 64.2617 7.6H69.6377C69.6857 7.6 69.7337 7.6 69.7817 7.6C69.8297 7.592 69.8817 7.588 69.9377 7.588C69.9777 7.588 70.0097 7.588 70.0337 7.588C70.0657 7.588 70.0977 7.596 70.1297 7.612C70.1697 7.62 70.2017 7.636 70.2257 7.66C70.2497 7.684 70.2657 7.704 70.2737 7.72C70.3137 7.768 70.3377 7.828 70.3457 7.9C70.3617 7.956 70.3657 8.024 70.3577 8.104C70.3577 8.176 70.3537 8.244 70.3457 8.308V9.112C70.3457 9.168 70.3457 9.232 70.3457 9.304C70.3537 9.376 70.3537 9.444 70.3457 9.508C70.3457 9.532 70.3377 9.568 70.3217 9.616C70.3137 9.672 70.2897 9.724 70.2497 9.772C70.2337 9.804 70.2097 9.836 70.1777 9.868C70.1537 9.9 70.1297 9.928 70.1057 9.952C70.0977 9.984 70.0817 10.04 70.0577 10.12C70.0417 10.192 70.0337 10.236 70.0337 10.252C70.0017 10.372 69.9737 10.492 69.9497 10.612C69.9257 10.732 69.8977 10.852 69.8657 10.972C69.8657 10.988 69.8617 10.996 69.8537 10.996C69.8457 11.028 69.8377 11.064 69.8297 11.104C69.8297 11.136 69.8217 11.172 69.8057 11.212C69.7977 11.228 69.7937 11.248 69.7937 11.272C69.7937 11.288 69.7897 11.304 69.7817 11.32C69.8777 11.376 69.9777 11.448 70.0817 11.536C70.3217 11.736 70.5097 11.98 70.6457 12.268C70.6457 12.276 70.6457 12.28 70.6457 12.28C70.6537 12.28 70.6577 12.284 70.6577 12.292ZM69.3137 10.684C69.3057 10.692 69.2977 10.696 69.2897 10.696C69.2817 10.696 69.2737 10.7 69.2657 10.708C69.2577 10.724 69.2497 10.744 69.2417 10.768C69.2337 10.792 69.2217 10.82 69.2057 10.852C69.1977 10.876 69.1897 10.904 69.1817 10.936C69.1737 10.968 69.1617 10.996 69.1457 11.02L69.3257 11.092C69.3577 11.108 69.3737 11.116 69.3737 11.116V10.924C69.3737 10.884 69.3697 10.844 69.3617 10.804C69.3617 10.756 69.3617 10.712 69.3617 10.672C69.3537 10.672 69.3457 10.676 69.3377 10.684C69.3377 10.684 69.3337 10.684 69.3257 10.684H69.3137Z" fill="white"/>
<defs>
<filter id="filter0_d_192_20" x="0.900024" y="0.899902" width="108.2" height="30.1934" filterUnits="userSpaceOnUse" color-interpolation-filters="sRGB">
<feFlood flood-opacity="0" result="BackgroundImageFix"/>
<feColorMatrix in="SourceAlpha" type="matrix" values="0 0 0 0 0 0 0 0 0 0 0 0 0 0 0 0 0 0 127 0" result="hardAlpha"/>
<feOffset dy="4"/>
<feGaussianBlur stdDeviation="2"/>
<feComposite in2="hardAlpha" operator="out"/>
<feColorMatrix type="matrix" values="0 0 0 0 0 0 0 0 0 0 0 0 0 0 0 0 0 0 0.25 0"/>
<feBlend mode="normal" in2="BackgroundImageFix" result="effect1_dropShadow_192_20"/>
<feBlend mode="normal" in="SourceGraphic" in2="effect1_dropShadow_192_20" result="shape"/>
</filter>
<linearGradient id="paint0_linear_192_20" x1="56.1365" y1="1" x2="56.1365" y2="21.7676" gradientUnits="userSpaceOnUse">
<stop stop-color="#D9F049"/>
<stop offset="0.416667" stop-color="#D7F67F" stop-opacity="0.583333"/>
<stop offset="1" stop-color="#7EFF7B"/>
</linearGradient>
</defs>
</svg>
