<svg width="55" height="25" viewBox="0 0 55 25" fill="none" xmlns="http://www.w3.org/2000/svg">
<g filter="url(#filter0_d_222_19)">
<path d="M11.6978 11.3809L11.8735 12.9116C11.8735 13.0337 11.8491 13.1509 11.8003 13.2632C11.7515 13.3755 11.6758 13.4316 11.5732 13.4316C11.373 13.4316 11.2729 13.2729 11.2729 12.9556C11.2729 12.7944 11.3169 12.5576 11.4048 12.2451C11.4927 11.9375 11.5366 11.686 11.5366 11.4907C11.5366 11.2954 11.4512 11.1465 11.2803 11.0439C11.1143 10.9414 10.9043 10.8901 10.6504 10.8901C10.3965 10.8901 10.1304 10.9414 9.85205 11.0439C9.57373 11.1465 9.32959 11.3076 9.11963 11.5273C8.90967 11.7471 8.80469 11.9619 8.80469 12.1719C8.80469 12.3867 8.83643 12.6455 8.8999 12.9482C8.96826 13.251 9.00244 13.5024 9.00244 13.7026C9.00244 13.9028 8.90479 14.0029 8.70947 14.0029C8.51416 14.0029 8.4165 13.8955 8.4165 13.6807C8.4165 13.4658 8.45557 13.1924 8.53369 12.8604C8.61182 12.5283 8.65088 12.2769 8.65088 12.106L8.76807 11.2124C6.79053 10.9585 5.51855 10.2676 4.95215 9.13965C4.7959 8.82227 4.71777 8.49268 4.71777 8.15088C4.71777 7.29639 5.16943 6.61279 6.07275 6.1001C5.32568 5.63623 4.95215 4.98438 4.95215 4.14453C4.95215 3.06055 5.49902 2.25 6.59277 1.71289C7.66211 1.19043 9.15869 0.929199 11.0825 0.929199C13.1138 0.929199 14.5884 1.38818 15.5063 2.30615C16.0239 2.82373 16.2827 3.43896 16.2827 4.15186C16.2827 4.86475 15.9458 5.46777 15.272 5.96094C16.2632 6.43457 16.7588 7.14258 16.7588 8.08496C16.7588 9.77441 15.3745 10.7998 12.606 11.1611C12.606 11.5664 12.6377 12.1743 12.7012 12.9849C12.7695 13.8003 12.8037 14.3398 12.8037 14.6035C12.8037 15.1113 12.7061 15.3652 12.5107 15.3652C12.3984 15.3652 12.3179 15.2896 12.269 15.1382C12.2251 14.9868 12.2031 14.8379 12.2031 14.6914L12.3496 11.6299C12.3496 11.1025 12.2446 10.8389 12.0347 10.8389C11.9272 10.8389 11.8442 10.8999 11.7856 11.022C11.7271 11.144 11.6978 11.2637 11.6978 11.3809ZM13.0308 7.9458C13.0308 7.33057 12.3936 7.02295 11.1191 7.02295C10.0107 7.02295 9.03662 6.93018 8.19678 6.74463C8.18213 6.82275 8.1748 6.93506 8.1748 7.08154C8.1748 8.19971 8.98291 8.75879 10.5991 8.75879C12.2202 8.75879 13.0308 8.48779 13.0308 7.9458ZM10.7749 3.4707C9.3833 3.4707 8.6875 3.73926 8.6875 4.27637C8.6875 4.59375 8.83887 4.83545 9.1416 5.00146C9.30762 5.08936 9.48828 5.14307 9.68359 5.1626C9.87891 5.18213 10.001 5.19434 10.0498 5.19922C10.1963 5.21387 10.3403 5.22363 10.4819 5.22852C10.6235 5.2334 10.875 5.24561 11.2363 5.26514C12.0371 5.30908 12.6206 5.36279 12.9868 5.42627C12.9966 5.35791 13.0015 5.21631 13.0015 5.00146C13.0015 4.78174 12.9404 4.56201 12.8184 4.34229C12.6963 4.12256 12.5303 3.95166 12.3203 3.82959C11.9004 3.59033 11.3853 3.4707 10.7749 3.4707ZM8.8999 16.0903C8.8999 16.2612 8.83887 16.3467 8.7168 16.3467C8.59961 16.3467 8.54102 16.2563 8.54102 16.0757C8.54102 15.7485 8.60205 15.2871 8.72412 14.6914C8.84131 15.2773 8.8999 15.7437 8.8999 16.0903ZM22.5405 4.02734C22.8433 4.40332 22.7944 4.7915 22.394 5.19189L22.4819 5.27979C22.6724 5.08936 22.8604 4.97705 23.0459 4.94287C23.6514 4.82568 24.2739 4.76709 24.9136 4.76709C25.5581 4.76709 26.022 4.77441 26.3052 4.78906C26.5884 4.80371 26.9204 4.83789 27.3013 4.8916C27.6821 4.94531 28.0337 5.01855 28.356 5.11133C28.6782 5.19922 29.0029 5.32617 29.3301 5.49219C29.6572 5.65332 29.9355 5.84375 30.165 6.06348C30.6777 6.56152 30.9341 7.20361 30.9341 7.98975C30.9341 9.14209 30.436 10.0088 29.4399 10.5898C28.4731 11.1465 27.1108 11.4248 25.353 11.4248C23.9956 11.4248 22.9141 11.332 22.1084 11.1465C21.2393 10.9463 20.5508 10.6582 20.043 10.2822C19.4277 9.81836 19.0444 9.21045 18.8931 8.4585C18.8345 8.15576 18.7026 7.9165 18.4976 7.74072L18.6221 7.60156C18.832 7.78711 19.0859 7.88232 19.3838 7.88721L21.6909 7.9751C21.8911 7.98486 22.0449 7.96777 22.1523 7.92383C22.2646 7.87988 22.3477 7.79199 22.4014 7.66016L22.7383 7.79199C22.6895 7.92383 22.6895 8.04346 22.7383 8.15088C22.7871 8.25342 22.9067 8.3877 23.0972 8.55371C23.2925 8.71484 23.5732 8.83936 23.9395 8.92725C24.3105 9.01025 24.6304 9.04688 24.8989 9.03711C25.1724 9.02246 25.4019 8.99805 25.5874 8.96387C25.7729 8.9248 25.9634 8.86621 26.1587 8.78809C26.5981 8.6123 26.8179 8.3291 26.8179 7.93848C26.8179 7.25977 26.0537 6.92041 24.5254 6.92041C24.1201 6.92041 23.7856 6.95703 23.522 7.03027C23.2632 7.09863 23.0947 7.16211 23.0166 7.2207C22.9434 7.2793 22.9141 7.37695 22.9287 7.51367L22.5552 7.55029C22.5405 7.41357 22.4893 7.32568 22.4014 7.28662C22.3135 7.24268 22.1646 7.21582 21.9546 7.20605L20.0869 7.14014C19.7988 7.12549 19.5474 7.20605 19.3325 7.38184L19.208 7.22803C19.4131 7.05225 19.5352 6.81787 19.5742 6.5249L20.1528 2.47461C20.1919 2.17676 20.126 1.93262 19.9551 1.74219L20.1309 1.5957C20.2969 1.79102 20.5288 1.88867 20.8267 1.88867L29.7183 1.896C30.0112 1.896 30.2529 1.80078 30.4434 1.61035L30.5972 1.76416C30.4067 1.95459 30.3115 2.19629 30.3115 2.48926V3.61719C30.3115 3.91016 30.4067 4.15186 30.5972 4.34229L30.4434 4.49609C30.2529 4.30566 30.0112 4.21045 29.7183 4.21045H23.1997C22.9995 4.21045 22.8188 4.11523 22.6577 3.9248L22.5405 4.02734ZM33.1709 3.82959C33.1709 2.34033 33.9131 1.41992 35.3975 1.06836C35.7979 0.975586 36.2153 0.929199 36.6499 0.929199C37.0894 0.929199 37.4751 0.958496 37.8071 1.01709C38.1392 1.0708 38.459 1.16846 38.7666 1.31006C39.0791 1.44678 39.3452 1.62256 39.5649 1.8374C40.0435 2.30615 40.2827 2.97021 40.2827 3.82959C40.2827 5.80225 39.0767 6.78857 36.6646 6.78857C35.6196 6.78857 34.7749 6.53711 34.1304 6.03418C33.4907 5.52637 33.1709 4.7915 33.1709 3.82959ZM41.1836 11.0073H38.5835C38.8374 10.6606 39.0693 10.2432 39.2793 9.75488L42.4434 2.45996C42.6533 1.97168 42.7778 1.56641 42.8169 1.24414H45.4243C45.1558 1.61035 44.9263 2.01562 44.7358 2.45996L41.5791 9.75488C41.3643 10.2578 41.2324 10.6753 41.1836 11.0073ZM35.478 3.83691C35.478 4.84766 35.8931 5.35303 36.7231 5.35303C37.5581 5.35303 37.9756 4.84766 37.9756 3.83691C37.9756 3.37305 37.8682 3.0166 37.6533 2.76758C37.4385 2.51855 37.1284 2.39404 36.7231 2.39404C36.3228 2.39404 36.0151 2.51855 35.8003 2.76758C35.5854 3.0166 35.478 3.37305 35.478 3.83691ZM44.9775 6.06348C45.6221 5.6582 46.4399 5.45557 47.4312 5.45557C49.228 5.45557 50.3486 6.03906 50.793 7.20605C50.9199 7.54297 50.9834 7.92871 50.9834 8.36328C50.9834 10.3359 49.7773 11.3223 47.3652 11.3223C46.3203 11.3223 45.4756 11.0708 44.8311 10.5679C44.1914 10.0601 43.8716 9.29834 43.8716 8.28271C43.8716 7.26221 44.2402 6.52246 44.9775 6.06348ZM46.186 8.36328C46.186 9.37891 46.6011 9.88672 47.4312 9.88672C48.2612 9.88672 48.6763 9.37891 48.6763 8.36328C48.6763 7.89941 48.5688 7.54541 48.354 7.30127C48.144 7.05225 47.8364 6.92773 47.4312 6.92773C47.0259 6.92773 46.7158 7.05225 46.501 7.30127C46.291 7.54541 46.186 7.89941 46.186 8.36328Z" fill="black"/>
</g>
<defs>
<filter id="filter0_d_222_19" x="0.717773" y="0.929199" width="54.2656" height="23.4175" filterUnits="userSpaceOnUse" color-interpolation-filters="sRGB">
<feFlood flood-opacity="0" result="BackgroundImageFix"/>
<feColorMatrix in="SourceAlpha" type="matrix" values="0 0 0 0 0 0 0 0 0 0 0 0 0 0 0 0 0 0 127 0" result="hardAlpha"/>
<feOffset dy="4"/>
<feGaussianBlur stdDeviation="2"/>
<feComposite in2="hardAlpha" operator="out"/>
<feColorMatrix type="matrix" values="0 0 0 0 0 0 0 0 0 0 0 0 0 0 0 0 0 0 0.25 0"/>
<feBlend mode="normal" in2="BackgroundImageFix" result="effect1_dropShadow_222_19"/>
<feBlend mode="normal" in="SourceGraphic" in2="effect1_dropShadow_222_19" result="shape"/>
</filter>
</defs>
</svg>
