<svg width="178" height="40" viewBox="0 0 178 40" fill="none" xmlns="http://www.w3.org/2000/svg">
<rect width="177.684" height="40" fill="black"/>
<path d="M17.8555 12.4883H30.1211V14.7246H23.5098L23.5 18.6406H28.5586V20.877H23.5V24.7637H30.1211V27H17.8555V12.4883ZM36.1758 20.0273L31.4688 12.4883H37.8457L40.6777 17.0195L43.5684 12.4883H46.1172L41.8789 18.9531L46.918 27L40.541 27.0098L37.3574 21.9316L34.0664 27.0098H31.5078L36.1758 20.0273ZM48.9297 12.4883H55.9121C57.2012 12.4818 58.3112 12.5957 59.2422 12.8301C60.1797 13.0579 60.9512 13.3867 61.5566 13.8164C62.1621 14.2461 62.6081 14.7637 62.8945 15.3691C63.1875 15.9681 63.334 16.6354 63.334 17.3711C63.334 18.0156 63.1973 18.6341 62.9238 19.2266C62.6569 19.8125 62.2402 20.3301 61.6738 20.7793C61.1139 21.2285 60.3978 21.5866 59.5254 21.8535C58.6595 22.1204 57.6276 22.2539 56.4297 22.2539H54.5742V27H48.9297V12.4883ZM54.5742 20.125C55.0234 20.1185 55.4238 20.0501 55.7754 19.9199C56.127 19.7832 56.4232 19.5977 56.6641 19.3633C56.9049 19.1224 57.0872 18.8359 57.2109 18.5039C57.3411 18.1654 57.4062 17.7878 57.4062 17.3711C57.4062 16.9609 57.3411 16.5898 57.2109 16.2578C57.0807 15.9258 56.8919 15.6426 56.6445 15.4082C56.4036 15.1673 56.1074 14.9785 55.7559 14.8418C55.4108 14.7051 55.0169 14.6302 54.5742 14.6172V20.125ZM65.668 12.4883H74.0371C75.1178 12.4883 76.0618 12.6022 76.8691 12.8301C77.6829 13.0579 78.36 13.377 78.9004 13.7871C79.4473 14.1973 79.8574 14.6888 80.1309 15.2617C80.4043 15.8346 80.541 16.4661 80.541 17.1562C80.541 18.0091 80.3392 18.7676 79.9355 19.4316C79.5319 20.0892 78.9329 20.6133 78.1387 21.0039L81.1855 27.0098H74.8086L72.5039 21.7363H71.3125V27H65.668V12.4883ZM71.6543 19.9688C72.1165 19.9688 72.5299 19.9036 72.8945 19.7734C73.2591 19.6432 73.5684 19.4609 73.8223 19.2266C74.0762 18.9857 74.2715 18.7025 74.4082 18.377C74.5449 18.0449 74.6133 17.6836 74.6133 17.293C74.6133 16.9023 74.5449 16.5443 74.4082 16.2188C74.2715 15.8867 74.0762 15.6035 73.8223 15.3691C73.5684 15.1283 73.2591 14.9427 72.8945 14.8125C72.5299 14.6823 72.1165 14.6172 71.6543 14.6172H71.3223L71.3125 19.9688H71.6543ZM83.8906 12.4883H96.1562V14.7246H89.5449L89.5352 18.6406H94.5938V20.877H89.5352V24.7637H96.1562V27H83.8906V12.4883ZM99.2617 23.7773C99.9518 24.1289 100.674 24.3926 101.43 24.5684C102.185 24.7441 102.888 24.832 103.539 24.832C104.288 24.832 104.835 24.7246 105.18 24.5098C105.531 24.2949 105.707 24.002 105.707 23.6309C105.707 23.5137 105.684 23.3932 105.639 23.2695C105.6 23.1458 105.518 23.0254 105.395 22.9082C105.277 22.7845 105.111 22.6641 104.896 22.5469C104.688 22.4232 104.415 22.3027 104.076 22.1855L102.328 21.5898C101.078 21.1602 100.137 20.5807 99.5059 19.8516C98.8743 19.1159 98.5586 18.2435 98.5586 17.2344C98.5586 16.5833 98.6953 15.9583 98.9688 15.3594C99.2422 14.7539 99.6556 14.2233 100.209 13.7676C100.762 13.3053 101.459 12.9375 102.299 12.6641C103.145 12.3906 104.135 12.2539 105.268 12.2539C105.827 12.2539 106.365 12.2865 106.879 12.3516C107.393 12.4167 107.875 12.5013 108.324 12.6055C108.78 12.7096 109.197 12.8301 109.574 12.9668C109.952 13.097 110.284 13.2272 110.57 13.3574L109.516 15.2617C109.307 15.1315 109.086 15.0176 108.852 14.9199C108.624 14.8223 108.393 14.7409 108.158 14.6758C107.93 14.6107 107.706 14.5618 107.484 14.5293C107.263 14.4967 107.061 14.4805 106.879 14.4805C106.566 14.4805 106.293 14.5228 106.059 14.6074C105.824 14.6855 105.626 14.793 105.463 14.9297C105.307 15.0599 105.186 15.2096 105.102 15.3789C105.023 15.5417 104.984 15.7044 104.984 15.8672C104.984 16.0104 105.017 16.1504 105.082 16.2871C105.154 16.4173 105.271 16.5475 105.434 16.6777C105.603 16.8014 105.821 16.9284 106.088 17.0586C106.361 17.1823 106.7 17.3125 107.104 17.4492L108.275 17.8398C109.545 18.263 110.515 18.8457 111.186 19.5879C111.856 20.3301 112.191 21.2285 112.191 22.2832C112.191 22.9993 112.029 23.6602 111.703 24.2656C111.384 24.8711 110.906 25.3952 110.268 25.8379C109.63 26.2741 108.835 26.6159 107.885 26.8633C106.941 27.1042 105.844 27.2246 104.594 27.2246C103.995 27.2246 103.415 27.1921 102.855 27.127C102.302 27.0684 101.758 26.9772 101.225 26.8535C100.697 26.7298 100.176 26.5736 99.6621 26.3848C99.1478 26.196 98.6335 25.9746 98.1191 25.7207L99.2617 23.7773ZM115.102 23.7773C115.792 24.1289 116.514 24.3926 117.27 24.5684C118.025 24.7441 118.728 24.832 119.379 24.832C120.128 24.832 120.674 24.7246 121.02 24.5098C121.371 24.2949 121.547 24.002 121.547 23.6309C121.547 23.5137 121.524 23.3932 121.479 23.2695C121.439 23.1458 121.358 23.0254 121.234 22.9082C121.117 22.7845 120.951 22.6641 120.736 22.5469C120.528 22.4232 120.255 22.3027 119.916 22.1855L118.168 21.5898C116.918 21.1602 115.977 20.5807 115.346 19.8516C114.714 19.1159 114.398 18.2435 114.398 17.2344C114.398 16.5833 114.535 15.9583 114.809 15.3594C115.082 14.7539 115.495 14.2233 116.049 13.7676C116.602 13.3053 117.299 12.9375 118.139 12.6641C118.985 12.3906 119.975 12.2539 121.107 12.2539C121.667 12.2539 122.204 12.2865 122.719 12.3516C123.233 12.4167 123.715 12.5013 124.164 12.6055C124.62 12.7096 125.036 12.8301 125.414 12.9668C125.792 13.097 126.124 13.2272 126.41 13.3574L125.355 15.2617C125.147 15.1315 124.926 15.0176 124.691 14.9199C124.464 14.8223 124.232 14.7409 123.998 14.6758C123.77 14.6107 123.546 14.5618 123.324 14.5293C123.103 14.4967 122.901 14.4805 122.719 14.4805C122.406 14.4805 122.133 14.5228 121.898 14.6074C121.664 14.6855 121.465 14.793 121.303 14.9297C121.146 15.0599 121.026 15.2096 120.941 15.3789C120.863 15.5417 120.824 15.7044 120.824 15.8672C120.824 16.0104 120.857 16.1504 120.922 16.2871C120.993 16.4173 121.111 16.5475 121.273 16.6777C121.443 16.8014 121.661 16.9284 121.928 17.0586C122.201 17.1823 122.54 17.3125 122.943 17.4492L124.115 17.8398C125.385 18.263 126.355 18.8457 127.025 19.5879C127.696 20.3301 128.031 21.2285 128.031 22.2832C128.031 22.9993 127.868 23.6602 127.543 24.2656C127.224 24.8711 126.745 25.3952 126.107 25.8379C125.469 26.2741 124.675 26.6159 123.725 26.8633C122.781 27.1042 121.684 27.2246 120.434 27.2246C119.835 27.2246 119.255 27.1921 118.695 27.127C118.142 27.0684 117.598 26.9772 117.064 26.8535C116.537 26.7298 116.016 26.5736 115.502 26.3848C114.988 26.196 114.473 25.9746 113.959 25.7207L115.102 23.7773ZM130.453 20.3398H137.162V22.1758H130.453V20.3398ZM142.855 15.7109C142.374 15.7109 141.957 15.6589 141.605 15.5547C141.26 15.4505 140.974 15.3073 140.746 15.125C140.525 14.9362 140.362 14.7214 140.258 14.4805C140.154 14.2331 140.102 13.9661 140.102 13.6797C140.102 13.3997 140.154 13.1361 140.258 12.8887C140.362 12.6413 140.525 12.4264 140.746 12.2441C140.974 12.0553 141.26 11.9089 141.605 11.8047C141.957 11.7005 142.374 11.6484 142.855 11.6484C143.344 11.6484 143.76 11.7005 144.105 11.8047C144.451 11.9089 144.734 12.0553 144.955 12.2441C145.183 12.4264 145.349 12.6413 145.453 12.8887C145.557 13.1361 145.609 13.3997 145.609 13.6797C145.609 13.9661 145.557 14.2331 145.453 14.4805C145.349 14.7214 145.183 14.9362 144.955 15.125C144.734 15.3073 144.451 15.4505 144.105 15.5547C143.76 15.6589 143.344 15.7109 142.855 15.7109ZM140.209 17.3223H145.512V25.3887C145.512 26.2871 145.382 27.1009 145.121 27.8301C144.861 28.5658 144.48 29.207 143.979 29.7539C143.477 30.3008 142.855 30.75 142.113 31.1016C141.371 31.4531 140.521 31.6973 139.564 31.834L139.145 30.916C139.346 30.7012 139.516 30.4863 139.652 30.2715C139.789 30.0632 139.896 29.8385 139.975 29.5977C140.059 29.3633 140.118 29.1029 140.15 28.8164C140.189 28.5299 140.209 28.2044 140.209 27.8398V17.3223ZM148.529 24.5C148.796 24.6432 149.053 24.7734 149.301 24.8906C149.548 25.0078 149.796 25.1087 150.043 25.1934C150.29 25.2715 150.538 25.3333 150.785 25.3789C151.039 25.4245 151.303 25.4473 151.576 25.4473C152.006 25.4473 152.315 25.3952 152.504 25.291C152.693 25.1868 152.787 25.0501 152.787 24.8809C152.787 24.7767 152.755 24.6888 152.689 24.6172C152.631 24.5456 152.546 24.4837 152.436 24.4316C152.325 24.373 152.195 24.321 152.045 24.2754C151.895 24.2233 151.729 24.1712 151.547 24.1191L150.99 23.9531C150.443 23.7904 149.971 23.6016 149.574 23.3867C149.177 23.1654 148.852 22.918 148.598 22.6445C148.344 22.3711 148.155 22.0781 148.031 21.7656C147.908 21.4466 147.846 21.1081 147.846 20.75C147.846 20.2878 147.95 19.8418 148.158 19.4121C148.367 18.9759 148.689 18.5885 149.125 18.25C149.561 17.9115 150.118 17.6413 150.795 17.4395C151.479 17.2376 152.289 17.1367 153.227 17.1367C153.578 17.1367 153.943 17.1595 154.32 17.2051C154.704 17.2441 155.076 17.2962 155.434 17.3613C155.792 17.4264 156.127 17.5013 156.439 17.5859C156.752 17.6641 157.016 17.7454 157.23 17.8301L156.371 19.4023C156.228 19.3242 156.059 19.2559 155.863 19.1973C155.674 19.1322 155.479 19.0768 155.277 19.0312C155.076 18.9792 154.88 18.9401 154.691 18.9141C154.509 18.888 154.353 18.875 154.223 18.875C153.845 18.875 153.575 18.9271 153.412 19.0312C153.249 19.1354 153.168 19.2624 153.168 19.4121C153.168 19.4707 153.184 19.5326 153.217 19.5977C153.249 19.6628 153.314 19.7311 153.412 19.8027C153.51 19.8743 153.646 19.9492 153.822 20.0273C153.998 20.1055 154.229 20.1868 154.516 20.2715L155.062 20.4375C155.668 20.6198 156.169 20.8249 156.566 21.0527C156.97 21.2806 157.292 21.528 157.533 21.7949C157.781 22.0553 157.953 22.332 158.051 22.625C158.155 22.918 158.207 23.2174 158.207 23.5234C158.207 23.9922 158.093 24.4479 157.865 24.8906C157.637 25.3333 157.273 25.724 156.771 26.0625C156.277 26.401 155.635 26.6745 154.848 26.8828C154.06 27.0846 153.106 27.1855 151.986 27.1855C151.505 27.1855 151.062 27.166 150.658 27.127C150.255 27.0879 149.874 27.0293 149.516 26.9512C149.158 26.873 148.812 26.7786 148.48 26.668C148.155 26.5508 147.833 26.4206 147.514 26.2773L148.529 24.5Z" fill="white"/>
</svg>
