<svg width="110" height="32" viewBox="0 0 110 32" fill="none" xmlns="http://www.w3.org/2000/svg">
<g filter="url(#filter0_d_192_19)">
<path d="M5.00601 1.86583L4.98731 1.96383L9.15792 3.05825H5L4.99138 3.15751L11.2422 4.25104H5H4.95V4.30104V21V21.0342L4.98186 21.0466L10.1183 23.0466L10.1634 22.9578L7.38661 21.1872L10.5829 22.2975L10.6301 22.2109L9.20963 21.1004L11.1251 21.5487L11.3082 21.5915L11.1705 21.4634L10.7264 21.05H62.9545L62.9642 20.9509L53.8733 19.1618L53.856 19.1584L53.8404 19.1665L51.8366 20.2182L52.7635 19.2453L52.8298 19.1756L52.7347 19.1614L46.2121 18.1833L56.1324 18.9767L56.1492 18.8785L51.0669 17.5322L60.604 18.4706L62.944 18.9757L62.944 18.9758L62.947 18.9763L76.5834 21.0494L76.5833 21.05H76.5909H103.864L103.887 20.9557L98.4549 18.1049L104.993 18.9764L105.02 18.8811L101.828 17.4716H105H105.05V17.4216V2V1.93117L104.985 1.95245L101.858 2.9689L104.406 1.03987L104.525 0.95H104.376H5L4.991 1.04918L18.1397 3.45642L5.00601 1.86583Z" fill="black" stroke="url(#paint0_linear_192_19)" stroke-width="0.1"/>
<path d="M39.604 15.232C39.612 15.296 39.616 15.364 39.616 15.436C39.624 15.508 39.624 15.576 39.616 15.64C39.616 15.664 39.612 15.688 39.604 15.712C39.604 15.736 39.6 15.76 39.592 15.784C39.584 15.792 39.58 15.8 39.58 15.808C39.58 15.816 39.576 15.824 39.568 15.832C39.56 15.84 39.556 15.848 39.556 15.856C39.524 15.904 39.48 15.94 39.424 15.964C39.408 15.996 39.392 16.032 39.376 16.072C39.36 16.112 39.344 16.148 39.328 16.18C39.312 16.228 39.3 16.256 39.292 16.264C39.292 16.272 39.284 16.268 39.268 16.252C39.26 16.452 39.256 16.684 39.256 16.948C39.256 17.22 39.248 17.436 39.232 17.596C39.232 17.7 39.244 17.82 39.268 17.956C39.3 18.092 39.272 18.192 39.184 18.256C39.136 18.296 39.108 18.276 39.1 18.196C39.1 18.124 39.108 18.032 39.124 17.92C39.14 17.816 39.144 17.732 39.136 17.668C39.128 17.452 39.124 17.196 39.124 16.9C39.124 16.604 39.108 16.34 39.076 16.108C39.068 16.164 39.064 16.216 39.064 16.264C39.064 16.312 39.056 16.36 39.04 16.408C39.04 16.4 39.024 16.396 38.992 16.396C38.984 16.388 38.964 16.376 38.932 16.36C38.908 16.344 38.896 16.332 38.896 16.324C38.888 16.3 38.88 16.276 38.872 16.252C38.872 16.228 38.872 16.204 38.872 16.18C38.848 16.22 38.82 16.256 38.788 16.288C38.764 16.32 38.744 16.344 38.728 16.36C38.712 16.376 38.688 16.392 38.656 16.408C38.648 16.424 38.64 16.444 38.632 16.468C38.632 16.492 38.624 16.512 38.608 16.528C38.6 16.56 38.584 16.592 38.56 16.624C38.544 16.664 38.528 16.696 38.512 16.72C38.504 16.728 38.496 16.744 38.488 16.768C38.48 16.8 38.472 16.812 38.464 16.804C38.448 16.748 38.44 16.692 38.44 16.636C38.44 16.588 38.432 16.54 38.416 16.492C38.416 16.476 38.408 16.468 38.392 16.468C38.376 16.468 38.368 16.472 38.368 16.48C38.352 16.536 38.344 16.592 38.344 16.648C38.344 16.704 38.336 16.756 38.32 16.804C38.312 16.82 38.304 16.812 38.296 16.78C38.288 16.748 38.276 16.728 38.26 16.72C38.244 16.672 38.228 16.632 38.212 16.6C38.204 16.568 38.188 16.528 38.164 16.48C38.148 16.44 38.132 16.404 38.116 16.372C38.108 16.348 38.096 16.328 38.08 16.312C38.072 16.296 38.072 16.296 38.08 16.312C38.08 16.312 38.064 16.292 38.032 16.252C38 16.212 37.972 16.18 37.948 16.156V16.144C37.94 16.144 37.936 16.148 37.936 16.156C37.92 16.252 37.912 16.348 37.912 16.444C37.912 16.548 37.904 16.648 37.888 16.744C37.888 16.744 37.856 16.744 37.792 16.744C37.76 16.744 37.744 16.744 37.744 16.744C37.72 16.608 37.712 16.512 37.72 16.456C37.736 16.408 37.72 16.316 37.672 16.18C37.584 16.244 37.544 16.34 37.552 16.468C37.56 16.596 37.556 16.712 37.54 16.816C37.532 16.856 37.524 16.916 37.516 16.996C37.516 17.076 37.508 17.096 37.492 17.056C37.468 16.944 37.456 16.832 37.456 16.72C37.464 16.608 37.46 16.496 37.444 16.384C37.444 16.392 37.428 16.396 37.396 16.396L37.324 16.36C37.324 16.368 37.32 16.372 37.312 16.372C37.312 16.38 37.312 16.388 37.312 16.396C37.312 16.404 37.3 16.388 37.276 16.348C37.252 16.316 37.236 16.3 37.228 16.3L37.216 16.288L37.12 16.276C37.112 16.276 37.1 16.268 37.084 16.252C37.076 16.244 37.072 16.244 37.072 16.252C37.056 16.38 37.048 16.504 37.048 16.624C37.048 16.744 37.036 16.864 37.012 16.984C37.012 17.016 37.004 17 36.988 16.936C36.98 16.88 36.972 16.836 36.964 16.804C36.956 16.692 36.952 16.576 36.952 16.456C36.96 16.344 36.948 16.236 36.916 16.132C36.908 16.092 36.908 16.12 36.916 16.216C36.924 16.312 36.908 16.38 36.868 16.42C36.852 16.444 36.844 16.428 36.844 16.372C36.844 16.316 36.836 16.272 36.82 16.24L36.784 16.072C36.776 16.048 36.768 16.024 36.76 16C36.76 15.984 36.752 15.968 36.736 15.952C36.704 15.92 36.68 15.892 36.664 15.868C36.64 15.836 36.624 15.804 36.616 15.772C36.616 15.764 36.612 15.756 36.604 15.748C36.604 15.74 36.604 15.732 36.604 15.724C36.596 15.612 36.592 15.496 36.592 15.376C36.6 15.256 36.604 15.144 36.604 15.04V13.228C36.604 12.948 36.604 12.8 36.604 12.784C36.604 12.768 36.604 12.796 36.604 12.868C36.604 12.924 36.6 12.984 36.592 13.048C36.584 13.104 36.572 13.116 36.556 13.084C36.548 13.092 36.536 13.104 36.52 13.12C36.512 13.128 36.496 13.152 36.472 13.192C36.448 13.224 36.42 13.256 36.388 13.288C36.364 13.312 36.34 13.344 36.316 13.384L35.848 14.044C35.824 14.068 35.796 14.1 35.764 14.14C35.74 14.172 35.708 14.204 35.668 14.236C35.636 14.308 35.612 14.412 35.596 14.548C35.588 14.676 35.58 14.764 35.572 14.812C35.564 14.844 35.56 14.888 35.56 14.944C35.568 14.992 35.552 15.024 35.512 15.04C35.48 15.048 35.464 15.024 35.464 14.968C35.472 14.912 35.472 14.868 35.464 14.836C35.456 14.732 35.452 14.632 35.452 14.536C35.452 14.432 35.444 14.328 35.428 14.224C35.404 14.208 35.38 14.184 35.356 14.152C35.356 14.144 35.352 14.14 35.344 14.14L35.272 14.02C35.216 13.924 35.164 13.824 35.116 13.72C35.076 13.616 35.024 13.512 34.96 13.408C34.952 13.4 34.94 13.38 34.924 13.348C34.868 13.276 34.804 13.212 34.732 13.156L34.708 13.132L34.672 13.084C34.664 13.084 34.66 13.084 34.66 13.084C34.66 13.084 34.66 13.116 34.66 13.18V15.028C34.66 15.124 34.66 15.22 34.66 15.316C34.668 15.412 34.672 15.508 34.672 15.604C34.672 15.636 34.672 15.668 34.672 15.7C34.672 15.724 34.664 15.752 34.648 15.784C34.632 15.816 34.624 15.832 34.624 15.832C34.616 15.848 34.604 15.864 34.588 15.88C34.54 15.928 34.504 15.956 34.48 15.964C34.48 15.964 34.472 15.972 34.456 15.988C34.432 16.02 34.42 16.044 34.42 16.06C34.42 16.06 34.424 16.056 34.432 16.048C34.44 16.04 34.444 16.04 34.444 16.048C34.452 16.048 34.452 16.052 34.444 16.06C34.444 16.068 34.44 16.072 34.432 16.072C34.432 16.072 34.424 16.08 34.408 16.096C34.408 16.104 34.4 16.116 34.384 16.132C34.352 16.164 34.308 16.2 34.252 16.24C34.204 16.28 34.152 16.296 34.096 16.288C34.016 16.272 33.976 16.264 33.976 16.264C33.984 16.264 34.004 16.264 34.036 16.264C34.068 16.272 34.092 16.272 34.108 16.264C34.132 16.264 34.112 16.26 34.048 16.252C34.04 16.252 34.032 16.248 34.024 16.24C34.016 16.24 34.004 16.24 33.988 16.24C33.98 16.24 33.968 16.248 33.952 16.264C33.936 16.288 33.92 16.296 33.904 16.288L33.808 16.192C33.808 16.16 33.8 16.152 33.784 16.168C33.752 16.184 33.748 16.228 33.772 16.3C33.796 16.372 33.788 16.404 33.748 16.396C33.708 16.38 33.7 16.328 33.724 16.24C33.756 16.16 33.748 16.124 33.7 16.132C33.676 16.132 33.668 16.156 33.676 16.204C33.684 16.26 33.692 16.308 33.7 16.348C33.708 16.396 33.696 16.416 33.664 16.408C33.624 16.392 33.604 16.356 33.604 16.3C33.612 16.244 33.616 16.196 33.616 16.156C33.6 16.156 33.584 16.164 33.568 16.18C33.52 16.212 33.476 16.244 33.436 16.276C33.404 16.316 33.368 16.356 33.328 16.396L33.184 16.576C33.176 16.584 33.168 16.6 33.16 16.624C33.152 16.656 33.144 16.668 33.136 16.66C33.12 16.58 33.112 16.5 33.112 16.42C33.112 16.34 33.104 16.26 33.088 16.18C33.08 16.188 33.064 16.192 33.04 16.192C33.024 16.2 33.008 16.212 32.992 16.228C32.984 16.252 32.976 16.28 32.968 16.312C32.968 16.344 32.96 16.372 32.944 16.396C32.936 16.404 32.928 16.4 32.92 16.384C32.912 16.368 32.904 16.356 32.896 16.348C32.88 16.332 32.86 16.304 32.836 16.264C32.812 16.224 32.784 16.208 32.752 16.216C32.72 16.224 32.696 16.236 32.68 16.252C32.672 16.276 32.648 16.288 32.608 16.288C32.552 16.288 32.504 16.268 32.464 16.228C32.432 16.188 32.392 16.156 32.344 16.132C32.288 16.124 32.276 16.152 32.308 16.216C32.34 16.28 32.328 16.392 32.272 16.552C32.264 16.56 32.256 16.552 32.248 16.528C32.24 16.504 32.232 16.488 32.224 16.48C32.216 16.464 32.208 16.448 32.2 16.432C32.192 16.424 32.184 16.412 32.176 16.396C32.144 16.348 32.116 16.296 32.092 16.24C32.068 16.184 32.044 16.128 32.02 16.072L31.876 15.988C31.876 15.988 31.86 15.98 31.828 15.964C31.756 15.924 31.712 15.88 31.696 15.832C31.68 15.792 31.668 15.76 31.66 15.736C31.66 15.704 31.66 15.676 31.66 15.652V7.924C31.66 7.836 31.688 7.764 31.744 7.708C31.752 7.692 31.76 7.684 31.768 7.684C31.776 7.676 31.784 7.668 31.792 7.66C31.8 7.66 31.804 7.66 31.804 7.66C31.804 7.652 31.808 7.648 31.816 7.648C31.856 7.624 31.896 7.612 31.936 7.612C31.976 7.604 32.016 7.6 32.056 7.6H34.048C34.088 7.6 34.132 7.6 34.18 7.6C34.236 7.592 34.288 7.592 34.336 7.6C34.52 7.6 34.624 7.684 34.648 7.852C34.664 7.924 34.668 8 34.66 8.08C34.66 8.16 34.66 8.236 34.66 8.308V10.3L34.708 10.444H36.604V8.308C36.604 8.236 36.6 8.16 36.592 8.08C36.584 7.992 36.592 7.908 36.616 7.828C36.656 7.676 36.76 7.6 36.928 7.6C36.976 7.592 37.024 7.592 37.072 7.6C37.128 7.6 37.176 7.6 37.216 7.6H39.28C39.328 7.6 39.364 7.608 39.388 7.624C39.412 7.632 39.44 7.644 39.472 7.66C39.544 7.708 39.588 7.78 39.604 7.876C39.62 7.948 39.624 8.024 39.616 8.104C39.608 8.184 39.604 8.256 39.604 8.32V15.232ZM33.82 16.348C33.796 16.332 33.792 16.292 33.808 16.228C33.824 16.26 33.848 16.3 33.88 16.348C33.92 16.404 33.94 16.436 33.94 16.444C33.94 16.46 33.9 16.428 33.82 16.348ZM48.1535 9.532C48.1535 9.588 48.1575 9.652 48.1655 9.724C48.1735 9.788 48.1695 9.852 48.1535 9.916C48.1535 9.9 48.1495 9.908 48.1415 9.94C48.1335 9.964 48.1335 9.972 48.1415 9.964C48.1335 9.972 48.1295 9.98 48.1295 9.988C48.1295 9.996 48.1255 10.004 48.1175 10.012L48.0575 10.084L48.0215 10.12C48.0135 10.12 48.0015 10.128 47.9855 10.144C47.9775 10.16 47.9695 10.172 47.9615 10.18C47.9295 10.212 47.9015 10.256 47.8775 10.312C47.8535 10.36 47.8215 10.416 47.7815 10.48C47.7495 10.552 47.7175 10.624 47.6855 10.696C47.6535 10.768 47.6175 10.84 47.5775 10.912C47.5215 11.04 47.4615 11.172 47.3975 11.308C47.3415 11.436 47.2695 11.568 47.1815 11.704C47.1255 11.784 47.0735 11.84 47.0255 11.872C47.0175 11.888 47.0095 11.908 47.0015 11.932C47.0015 11.956 46.9935 11.976 46.9775 11.992C46.9775 11.992 46.9615 11.98 46.9295 11.956C46.9215 11.948 46.9135 11.936 46.9055 11.92C46.9055 11.904 46.8815 11.872 46.8335 11.824L46.8095 11.8C46.7855 11.76 46.7615 11.724 46.7375 11.692C46.7215 11.652 46.7055 11.616 46.6895 11.584L46.6535 11.512L46.6415 11.5L46.5335 11.296C46.4615 11.168 46.3855 11.044 46.3055 10.924C46.2335 10.796 46.1575 10.668 46.0775 10.54C46.0455 10.492 46.0175 10.448 45.9935 10.408L45.9095 10.288C45.8855 10.264 45.8615 10.24 45.8375 10.216V10.276V15.436C45.8455 15.5 45.8455 15.56 45.8375 15.616C45.8375 15.672 45.8375 15.712 45.8375 15.736V15.76C45.8295 15.768 45.8255 15.776 45.8255 15.784C45.8095 15.816 45.7975 15.836 45.7895 15.844C45.7895 15.852 45.7855 15.86 45.7775 15.868C45.7455 15.908 45.7055 15.94 45.6575 15.964C45.6495 15.972 45.6415 15.98 45.6335 15.988C45.6255 15.996 45.6175 16.004 45.6095 16.012C45.6015 16.028 45.5895 16.044 45.5735 16.06C45.5575 16.084 45.5415 16.104 45.5255 16.12C45.4935 16.152 45.4575 16.164 45.4175 16.156C45.4015 16.148 45.3855 16.132 45.3695 16.108C45.3535 16.092 45.3375 16.084 45.3215 16.084C45.3055 16.076 45.2895 16.08 45.2735 16.096C45.2575 16.12 45.2415 16.132 45.2255 16.132C45.1615 16.108 45.1335 16.084 45.1415 16.06C45.1575 16.036 45.1295 16.04 45.0575 16.072C45.0335 16.112 45.0055 16.164 44.9735 16.228C44.9415 16.3 44.8975 16.316 44.8415 16.276C44.8255 16.26 44.8095 16.236 44.7935 16.204C44.7855 16.18 44.7695 16.164 44.7455 16.156L44.7335 16.168C44.7335 16.176 44.7295 16.18 44.7215 16.18C44.7215 16.188 44.7215 16.192 44.7215 16.192L44.6495 16.24L44.6015 16.288C44.6015 16.296 44.5935 16.344 44.5775 16.432C44.5615 16.52 44.5455 16.608 44.5295 16.696C44.5135 16.784 44.5055 16.828 44.5055 16.828C44.4975 16.86 44.4895 16.896 44.4815 16.936C44.4815 16.976 44.4735 17.012 44.4575 17.044C44.4495 17.052 44.4375 17.056 44.4215 17.056C44.4135 17.064 44.4095 17.064 44.4095 17.056C44.3935 16.944 44.3855 16.832 44.3855 16.72C44.3855 16.608 44.3775 16.496 44.3615 16.384C44.3615 16.344 44.3495 16.3 44.3255 16.252C44.3095 16.236 44.2815 16.204 44.2415 16.156C44.2095 16.116 44.1815 16.084 44.1575 16.06H44.1215C44.0815 16.06 44.0535 16.056 44.0375 16.048C44.0295 16.064 44.0175 16.076 44.0015 16.084C43.9855 16.1 43.9775 16.112 43.9775 16.12L43.9655 16.132C43.9255 16.18 43.8855 16.228 43.8455 16.276C43.8135 16.324 43.7775 16.38 43.7375 16.444C43.7215 16.46 43.7095 16.476 43.7015 16.492C43.6935 16.5 43.6855 16.508 43.6775 16.516C43.6695 16.524 43.6575 16.536 43.6415 16.552C43.6255 16.568 43.6095 16.58 43.5935 16.588C43.5855 16.676 43.5815 16.804 43.5815 16.972C43.5815 17.148 43.5775 17.332 43.5695 17.524C43.5695 17.716 43.5655 17.896 43.5575 18.064C43.5575 18.24 43.5535 18.372 43.5455 18.46C43.5455 18.468 43.5375 18.464 43.5215 18.448C43.5055 18.432 43.4975 18.42 43.4975 18.412C43.4495 18.324 43.4295 18.196 43.4375 18.028C43.4535 17.868 43.4735 17.688 43.4975 17.488C43.5215 17.296 43.5295 17.112 43.5215 16.936C43.5215 16.768 43.4855 16.632 43.4135 16.528C43.4135 16.512 43.4055 16.5 43.3895 16.492C43.3815 16.484 43.3775 16.48 43.3775 16.48C43.3455 16.416 43.3135 16.356 43.2815 16.3C43.2495 16.244 43.2175 16.188 43.1855 16.132C43.1855 16.124 43.1815 16.116 43.1735 16.108C43.1735 16.108 43.1735 16.104 43.1735 16.096C43.1655 16.088 43.1535 16.068 43.1375 16.036C43.1135 16.012 43.0855 16 43.0535 16C43.0455 16 43.0375 16 43.0295 16C43.0295 15.992 43.0215 15.988 43.0055 15.988C42.9415 15.964 42.8895 15.924 42.8495 15.868C42.8335 15.852 42.8175 15.82 42.8015 15.772C42.7855 15.708 42.7775 15.648 42.7775 15.592C42.7775 15.552 42.7775 15.52 42.7775 15.496C42.7855 15.464 42.7895 15.432 42.7895 15.4V10.276L42.7415 10.18C42.7415 10.18 42.7335 10.196 42.7175 10.228C42.7095 10.236 42.7055 10.248 42.7055 10.264C42.6975 10.296 42.6895 10.328 42.6815 10.36C42.6735 10.392 42.6615 10.42 42.6455 10.444L42.5735 10.588C42.5575 10.62 42.5375 10.652 42.5135 10.684C42.4895 10.716 42.4615 10.748 42.4295 10.78C42.4135 10.796 42.4055 10.804 42.4055 10.804C42.3895 10.812 42.3735 10.824 42.3575 10.84C42.3335 10.872 42.3215 10.892 42.3215 10.9C42.3215 10.908 42.2895 10.94 42.2255 10.996C42.1935 10.996 42.1775 10.996 42.1775 10.996C42.1615 11.028 42.1575 11.068 42.1655 11.116C42.1735 11.164 42.1575 11.196 42.1175 11.212C42.0935 11.22 42.0815 11.204 42.0815 11.164C42.0815 11.116 42.0775 11.08 42.0695 11.056L42.0335 10.888C42.0095 10.872 41.9855 10.852 41.9615 10.828C41.9375 10.796 41.9175 10.772 41.9015 10.756C41.9095 10.764 41.9015 10.76 41.8775 10.744C41.8535 10.72 41.8375 10.704 41.8295 10.696L41.8055 10.672C41.7895 10.68 41.7775 10.696 41.7695 10.72C41.7615 10.744 41.7535 10.764 41.7455 10.78C41.7375 10.82 41.7255 10.856 41.7095 10.888C41.7015 10.92 41.6975 10.948 41.6975 10.972C41.6975 10.9 41.6815 10.812 41.6495 10.708C41.6495 10.716 41.6455 10.72 41.6375 10.72C41.6375 10.72 41.6375 10.724 41.6375 10.732C41.6295 10.732 41.6255 10.736 41.6255 10.744C41.6175 10.752 41.6095 10.76 41.6015 10.768C41.5935 10.776 41.5775 10.8 41.5535 10.84C41.5375 10.872 41.5215 10.896 41.5055 10.912C41.5055 10.912 41.5015 10.916 41.4935 10.924C41.4935 10.924 41.4895 10.924 41.4815 10.924C41.4815 10.924 41.4775 10.928 41.4695 10.936C41.4695 10.936 41.4655 10.936 41.4575 10.936C41.4495 11.016 41.4455 11.092 41.4455 11.164C41.4535 11.236 41.4615 11.312 41.4695 11.392C41.4535 11.288 41.4175 11.24 41.3615 11.248C41.3135 11.264 41.2855 11.288 41.2775 11.32C41.2775 11.248 41.2775 11.176 41.2775 11.104C41.2855 11.024 41.2855 10.948 41.2775 10.876C41.2535 10.86 41.2295 10.84 41.2055 10.816C41.1815 10.784 41.1575 10.756 41.1335 10.732L41.0375 10.636C40.9735 10.564 40.9415 10.528 40.9415 10.528C40.9415 10.528 40.9335 10.52 40.9175 10.504C40.9015 10.488 40.8335 10.416 40.7135 10.288C40.7135 10.304 40.7055 10.312 40.6895 10.312C40.6815 10.312 40.6735 10.3 40.6655 10.276C40.6655 10.252 40.6615 10.232 40.6535 10.216C40.6615 10.224 40.6535 10.212 40.6295 10.18C40.6135 10.14 40.6015 10.116 40.5935 10.108C40.5135 10.044 40.4735 9.96 40.4735 9.856V8.308C40.4735 8.268 40.4695 8.2 40.4615 8.104C40.4615 8 40.4695 7.912 40.4855 7.84C40.4935 7.824 40.4975 7.812 40.4975 7.804C40.4975 7.788 40.5015 7.776 40.5095 7.768C40.5335 7.72 40.5655 7.684 40.6055 7.66C40.6135 7.66 40.6175 7.66 40.6175 7.66C40.6175 7.652 40.6215 7.648 40.6295 7.648L40.6415 7.636C40.6895 7.612 40.7335 7.6 40.7735 7.6C40.8375 7.592 40.8975 7.592 40.9535 7.6C41.0175 7.6 41.0775 7.6 41.1335 7.6H47.3975C47.4855 7.6 47.5775 7.596 47.6735 7.588C47.7695 7.58 47.8575 7.588 47.9375 7.612C47.9615 7.62 47.9815 7.632 47.9975 7.648C48.0215 7.656 48.0375 7.668 48.0455 7.684C48.1015 7.724 48.1335 7.768 48.1415 7.816C48.1495 7.864 48.1535 7.916 48.1535 7.972C48.1615 8.1 48.1615 8.236 48.1535 8.38C48.1535 8.516 48.1535 8.652 48.1535 8.788V9.532ZM41.3135 12.04C41.3295 12.112 41.3255 12.104 41.3015 12.016C41.2775 11.928 41.2575 11.812 41.2415 11.668C41.2335 11.516 41.2455 11.4 41.2775 11.32C41.2695 11.448 41.2655 11.572 41.2655 11.692C41.2735 11.812 41.2895 11.928 41.3135 12.04ZM41.4095 12.028C41.3935 12.076 41.3895 12.076 41.3975 12.028C41.4135 11.972 41.4295 11.892 41.4455 11.788C41.4615 11.684 41.4695 11.588 41.4695 11.5C41.4695 11.588 41.4655 11.676 41.4575 11.764C41.4575 11.852 41.4415 11.94 41.4095 12.028ZM57.9675 15.736C57.9595 15.744 57.9555 15.756 57.9555 15.772C57.9555 15.78 57.9515 15.788 57.9435 15.796C57.9275 15.828 57.9195 15.844 57.9195 15.844C57.9115 15.876 57.8995 15.896 57.8835 15.904C57.8675 15.912 57.8515 15.924 57.8355 15.94L57.7875 15.976C57.7635 16.08 57.7435 16.18 57.7275 16.276C57.7195 16.38 57.7075 16.484 57.6915 16.588C57.6835 16.628 57.6755 16.688 57.6675 16.768C57.6675 16.848 57.6595 16.868 57.6435 16.828C57.6195 16.724 57.6075 16.62 57.6075 16.516C57.6155 16.412 57.6115 16.308 57.5955 16.204C57.5955 16.196 57.5875 16.196 57.5715 16.204C57.5635 16.22 57.5555 16.228 57.5475 16.228C57.5315 16.236 57.5115 16.248 57.4875 16.264C57.4635 16.28 57.4355 16.284 57.4035 16.276C57.3955 16.276 57.3835 16.268 57.3675 16.252C57.3035 16.252 57.2355 16.224 57.1635 16.168C57.1555 16.192 57.1515 16.22 57.1515 16.252C57.1595 16.292 57.1515 16.32 57.1275 16.336C57.1035 16.352 57.0915 16.34 57.0915 16.3C57.0915 16.26 57.0875 16.228 57.0795 16.204C57.0795 16.204 57.0755 16.168 57.0675 16.096C57.0675 16.032 57.0315 16.016 56.9595 16.048C56.9515 16.056 56.9395 16.068 56.9235 16.084C56.9155 16.1 56.8995 16.12 56.8755 16.144C56.8515 16.176 56.8235 16.204 56.7915 16.228C56.7835 16.236 56.7715 16.248 56.7555 16.264C56.7475 16.288 56.7355 16.308 56.7195 16.324C56.6955 16.34 56.6715 16.336 56.6475 16.312C56.6315 16.296 56.6155 16.284 56.5995 16.276C56.5915 16.276 56.5715 16.28 56.5395 16.288C56.5155 16.304 56.5035 16.316 56.5035 16.324C56.5035 16.324 56.4995 16.324 56.4915 16.324C56.4915 16.324 56.4915 16.328 56.4915 16.336C56.4915 16.336 56.4835 16.344 56.4675 16.36C56.4195 16.416 56.3835 16.48 56.3595 16.552C56.3355 16.632 56.3075 16.704 56.2755 16.768C56.2595 16.8 56.2395 16.836 56.2155 16.876C56.1995 16.924 56.1715 16.96 56.1315 16.984C56.1235 17.088 56.1155 17.192 56.1075 17.296C56.1075 17.4 56.0995 17.504 56.0835 17.608C56.0755 17.632 56.0675 17.668 56.0595 17.716C56.0595 17.764 56.0515 17.776 56.0355 17.752C56.0115 17.704 55.9995 17.652 55.9995 17.596C55.9995 17.548 55.9955 17.496 55.9875 17.44C55.9795 17.352 55.9755 17.268 55.9755 17.188C55.9755 17.108 55.9675 17.028 55.9515 16.948C55.9035 16.908 55.8675 16.872 55.8435 16.84C55.8115 16.792 55.7755 16.74 55.7355 16.684C55.7035 16.628 55.6675 16.572 55.6275 16.516C55.5955 16.46 55.5635 16.408 55.5315 16.36C55.5075 16.312 55.4795 16.264 55.4475 16.216C55.4395 16.2 55.4275 16.184 55.4115 16.168L55.3755 16.108H55.3635C55.3555 16.108 55.3435 16.088 55.3275 16.048C55.3195 16.016 55.3075 15.988 55.2915 15.964C55.3315 16.004 55.3435 16.016 55.3275 16C55.3195 15.984 55.2995 15.96 55.2675 15.928C55.2435 15.896 55.2275 15.88 55.2195 15.88L55.2075 15.868L55.1715 15.808C55.1715 15.8 55.1675 15.796 55.1595 15.796C55.1595 15.788 55.1595 15.78 55.1595 15.772C55.1355 15.708 55.1275 15.636 55.1355 15.556C55.1435 15.468 55.1475 15.392 55.1475 15.328V12.484C55.1475 12.62 55.1515 12.684 55.1595 12.676C55.1675 12.668 55.1755 12.632 55.1835 12.568C55.1915 12.504 55.1915 12.452 55.1835 12.412C55.1755 12.364 55.1555 12.372 55.1235 12.436L55.0755 12.508C55.0595 12.524 55.0515 12.536 55.0515 12.544C55.0595 12.544 55.0555 12.552 55.0395 12.568C55.0395 12.568 55.0355 12.572 55.0275 12.58C55.0275 12.58 55.0275 12.584 55.0275 12.592C54.9875 12.648 54.9475 12.708 54.9075 12.772C54.8755 12.836 54.8395 12.9 54.7995 12.964C54.7355 13.068 54.6715 13.176 54.6075 13.288C54.5435 13.4 54.4755 13.508 54.4035 13.612C54.3955 13.636 54.3835 13.66 54.3675 13.684C54.3515 13.708 54.3355 13.728 54.3195 13.744C54.2955 13.776 54.2675 13.808 54.2355 13.84C54.2115 13.872 54.1795 13.896 54.1395 13.912C54.1315 13.92 54.1195 13.932 54.1035 13.948C54.0955 13.964 54.0795 13.992 54.0555 14.032C54.0475 14.04 54.0355 14.044 54.0195 14.044C54.0115 14.132 54.0035 14.268 53.9955 14.452C53.9955 14.628 53.9915 14.82 53.9835 15.028C53.9835 15.236 53.9795 15.432 53.9715 15.616C53.9715 15.792 53.9675 15.924 53.9595 16.012C53.9595 16.02 53.9515 16.024 53.9355 16.024C53.9195 16.024 53.9115 16.02 53.9115 16.012C53.9035 15.9 53.8955 15.724 53.8875 15.484C53.8875 15.244 53.8875 15 53.8875 14.752C53.8875 14.504 53.8795 14.308 53.8635 14.164C53.8635 14.164 53.8515 14.152 53.8275 14.128L53.8155 14.14C53.8155 14.14 53.8155 14.144 53.8155 14.152C53.8155 14.152 53.8115 14.152 53.8035 14.152C53.8035 14.168 53.7955 14.184 53.7795 14.2C53.7635 14.232 53.7435 14.264 53.7195 14.296C53.6955 14.32 53.6675 14.34 53.6355 14.356C53.6195 14.396 53.6155 14.448 53.6235 14.512C53.6315 14.576 53.6155 14.604 53.5755 14.596C53.5355 14.58 53.5235 14.544 53.5395 14.488C53.5555 14.424 53.5555 14.368 53.5395 14.32C53.5235 14.304 53.5075 14.284 53.4915 14.26C53.4755 14.236 53.4595 14.22 53.4435 14.212C53.4195 14.188 53.4075 14.176 53.4075 14.176C53.3995 14.208 53.3875 14.24 53.3715 14.272C53.3635 14.304 53.3555 14.328 53.3475 14.344C53.3475 14.304 53.3355 14.256 53.3115 14.2C53.2955 14.216 53.2875 14.228 53.2875 14.236C53.2875 14.236 53.2795 14.244 53.2635 14.26C53.2475 14.284 53.2315 14.312 53.2155 14.344C53.1995 14.376 53.1835 14.404 53.1675 14.428C53.1595 14.436 53.1435 14.452 53.1195 14.476C53.1035 14.492 53.0875 14.496 53.0715 14.488C53.0555 14.48 53.0435 14.472 53.0355 14.464C53.0275 14.448 53.0155 14.436 52.9995 14.428C52.9595 14.388 52.9315 14.328 52.9155 14.248C52.8995 14.192 52.8835 14.14 52.8675 14.092C52.8595 14.036 52.8475 13.98 52.8315 13.924C52.7995 13.908 52.7715 13.888 52.7475 13.864C52.7315 13.832 52.7115 13.804 52.6875 13.78L52.6275 13.684C52.5635 13.58 52.4995 13.476 52.4355 13.372C52.3715 13.26 52.3075 13.152 52.2435 13.048L52.1355 12.868C52.1115 12.836 52.0875 12.804 52.0635 12.772C52.0475 12.74 52.0275 12.708 52.0035 12.676L51.9675 12.604C51.9595 12.588 51.9515 12.572 51.9435 12.556C51.9355 12.54 51.9235 12.524 51.9075 12.508C51.9075 12.5 51.9035 12.496 51.8955 12.496C51.8955 12.496 51.8955 12.492 51.8955 12.484C51.8955 12.484 51.8875 12.476 51.8715 12.46C51.8715 12.42 51.8635 12.392 51.8475 12.376C51.8395 12.352 51.8355 12.372 51.8355 12.436V15.484C51.8355 15.524 51.8355 15.568 51.8355 15.616C51.8435 15.656 51.8435 15.696 51.8355 15.736C51.8355 15.72 51.8315 15.728 51.8235 15.76C51.8155 15.784 51.8155 15.792 51.8235 15.784C51.8155 15.816 51.7955 15.848 51.7635 15.88L51.6915 15.952C51.6835 15.984 51.6755 16.016 51.6675 16.048C51.6675 16.088 51.6595 16.128 51.6435 16.168C51.6275 16.272 51.6075 16.372 51.5835 16.468C51.5675 16.572 51.5435 16.676 51.5115 16.78C51.5035 16.804 51.4915 16.844 51.4755 16.9C51.4595 16.956 51.4435 16.996 51.4275 17.02C51.3795 17.068 51.3435 17.052 51.3195 16.972C51.2955 16.9 51.2795 16.86 51.2715 16.852C51.2555 16.788 51.2395 16.72 51.2235 16.648C51.2075 16.584 51.1915 16.516 51.1755 16.444C51.1675 16.404 51.1635 16.364 51.1635 16.324C51.1635 16.284 51.1555 16.248 51.1395 16.216C51.1235 16.232 51.1035 16.248 51.0795 16.264C51.0555 16.288 51.0315 16.308 51.0075 16.324C50.9915 16.476 50.9795 16.632 50.9715 16.792C50.9715 16.96 50.9635 17.124 50.9475 17.284C50.9475 17.292 50.9395 17.288 50.9235 17.272C50.9075 17.256 50.8995 17.244 50.8995 17.236C50.8275 17.116 50.8035 17.004 50.8275 16.9C50.8515 16.804 50.8755 16.704 50.8995 16.6C50.9315 16.496 50.9115 16.388 50.8395 16.276C50.8315 16.26 50.8235 16.244 50.8155 16.228C50.8075 16.212 50.7955 16.196 50.7795 16.18C50.7635 16.18 50.7555 16.18 50.7555 16.18C50.7395 16.308 50.7315 16.432 50.7315 16.552C50.7315 16.68 50.7235 16.804 50.7075 16.924C50.7075 16.924 50.6915 16.924 50.6595 16.924C50.6275 16.924 50.6115 16.92 50.6115 16.912C50.6035 16.792 50.5955 16.668 50.5875 16.54C50.5875 16.42 50.5795 16.296 50.5635 16.168H50.5035L50.4915 16.156C50.4755 16.156 50.4675 16.156 50.4675 16.156C50.4595 16.26 50.4555 16.36 50.4555 16.456C50.4555 16.56 50.4475 16.664 50.4315 16.768C50.4315 16.776 50.4155 16.764 50.3835 16.732C50.3515 16.716 50.3355 16.704 50.3355 16.696C50.3195 16.608 50.3115 16.524 50.3115 16.444C50.3115 16.364 50.3075 16.284 50.2995 16.204C50.2915 16.212 50.2835 16.224 50.2755 16.24C50.2675 16.256 50.2675 16.256 50.2755 16.24C50.2675 16.264 50.2515 16.288 50.2275 16.312C50.2195 16.32 50.2075 16.328 50.1915 16.336C50.1755 16.352 50.1595 16.368 50.1435 16.384C50.1195 16.432 50.1035 16.48 50.0955 16.528C50.0875 16.584 50.0715 16.64 50.0475 16.696C50.0395 16.704 50.0315 16.716 50.0235 16.732C50.0235 16.748 50.0155 16.764 49.9995 16.78C49.9835 16.796 49.9675 16.796 49.9515 16.78C49.9195 16.748 49.8995 16.692 49.8915 16.612C49.8835 16.532 49.8715 16.48 49.8555 16.456C49.8155 16.416 49.7795 16.364 49.7475 16.3C49.7235 16.244 49.6915 16.176 49.6515 16.096C49.6435 16.112 49.6395 16.124 49.6395 16.132C49.6395 16.148 49.6355 16.164 49.6275 16.18C49.6195 16.188 49.5995 16.184 49.5675 16.168C49.5435 16.16 49.5315 16.156 49.5315 16.156C49.4995 16.14 49.4755 16.124 49.4595 16.108C49.4675 16.124 49.4715 16.152 49.4715 16.192C49.4715 16.232 49.4555 16.296 49.4235 16.384C49.4155 16.416 49.4075 16.444 49.3995 16.468C49.3915 16.492 49.3835 16.52 49.3755 16.552C49.3675 16.64 49.3635 16.776 49.3635 16.96C49.3635 17.152 49.3635 17.352 49.3635 17.56C49.3635 17.776 49.3635 17.976 49.3635 18.16C49.3635 18.352 49.3555 18.492 49.3395 18.58C49.3315 18.66 49.3235 18.672 49.3155 18.616C49.3155 18.56 49.3155 18.464 49.3155 18.328C49.3155 18.192 49.3155 18.052 49.3155 17.908C49.3155 17.764 49.3155 17.652 49.3155 17.572C49.3075 17.332 49.3035 17.132 49.3035 16.972C49.3035 16.82 49.2995 16.668 49.2915 16.516C49.2835 16.372 49.2635 16.196 49.2315 15.988C49.1995 15.972 49.1715 15.956 49.1475 15.94C49.0595 15.876 49.0155 15.788 49.0155 15.676V7.924C49.0155 7.836 49.0475 7.76 49.1115 7.696C49.1755 7.632 49.2635 7.6 49.3755 7.6H50.9955C51.0835 7.6 51.1675 7.6 51.2475 7.6C51.3275 7.592 51.4035 7.608 51.4755 7.648C51.5635 7.688 51.6315 7.744 51.6795 7.816C51.7355 7.888 51.7835 7.964 51.8235 8.044C51.8395 8.06 51.8515 8.08 51.8595 8.104C51.8755 8.12 51.8875 8.14 51.8955 8.164L51.9555 8.26C52.0275 8.348 52.0955 8.452 52.1595 8.572C52.2315 8.684 52.2995 8.804 52.3635 8.932L52.7835 9.628C52.8795 9.772 52.9715 9.92 53.0595 10.072C53.1475 10.224 53.2355 10.372 53.3235 10.516C53.3395 10.548 53.3595 10.584 53.3835 10.624C53.4075 10.656 53.4275 10.692 53.4435 10.732L53.4915 10.804L53.5395 10.72C53.5555 10.68 53.5755 10.644 53.5995 10.612C53.6235 10.58 53.6435 10.548 53.6595 10.516C53.7315 10.404 53.8035 10.288 53.8755 10.168C53.9475 10.048 54.0195 9.928 54.0915 9.808L54.1755 9.664C54.1755 9.656 54.1755 9.652 54.1755 9.652C54.1835 9.652 54.1875 9.648 54.1875 9.64C54.1875 9.64 54.1955 9.632 54.2115 9.616L54.6195 8.932C54.6275 8.932 54.6315 8.932 54.6315 8.932C54.6315 8.924 54.6315 8.92 54.6315 8.92C54.6955 8.8 54.7595 8.684 54.8235 8.572C54.8955 8.46 54.9595 8.36 55.0155 8.272L55.0875 8.152C55.1275 8.088 55.1635 8.028 55.1955 7.972C55.2355 7.908 55.2795 7.848 55.3275 7.792C55.3275 7.784 55.3315 7.78 55.3395 7.78C55.3795 7.724 55.4355 7.68 55.5075 7.648C55.5795 7.608 55.6555 7.592 55.7355 7.6C55.8235 7.6 55.9075 7.6 55.9875 7.6H57.6435C57.6915 7.6 57.7275 7.608 57.7515 7.624C57.7755 7.632 57.8035 7.644 57.8355 7.66C57.9075 7.708 57.9515 7.788 57.9675 7.9C57.9755 7.956 57.9755 8.016 57.9675 8.08C57.9675 8.144 57.9675 8.204 57.9675 8.26V15.148C57.9675 15.244 57.9715 15.344 57.9795 15.448C57.9875 15.544 57.9835 15.64 57.9675 15.736ZM65.9888 15.46C65.9888 15.484 65.9888 15.508 65.9888 15.532C65.9968 15.556 66.0008 15.58 66.0008 15.604C66.0008 15.636 65.9968 15.668 65.9888 15.7C65.9888 15.724 65.9848 15.752 65.9768 15.784L65.9408 15.844C65.9408 15.852 65.9328 15.864 65.9168 15.88C65.9088 15.888 65.9048 15.892 65.9048 15.892C65.8728 15.924 65.8448 15.948 65.8208 15.964C65.8128 15.972 65.8048 15.976 65.7968 15.976C65.7968 15.976 65.7928 15.98 65.7848 15.988C65.7608 16.012 65.7368 16.036 65.7128 16.06C65.6968 16.084 65.6728 16.104 65.6408 16.12C65.6248 16.136 65.6088 16.148 65.5928 16.156C65.5848 16.172 65.5608 16.188 65.5208 16.204C65.4888 16.212 65.4528 16.224 65.4128 16.24C65.3808 16.256 65.3488 16.26 65.3168 16.252C65.2848 16.236 65.2648 16.22 65.2568 16.204C65.2488 16.188 65.2368 16.168 65.2208 16.144L65.1728 16.096C65.1408 16.112 65.1368 16.144 65.1608 16.192C65.1848 16.24 65.1768 16.34 65.1368 16.492L65.0408 16.624C65.0328 16.632 65.0208 16.648 65.0048 16.672C64.9968 16.696 64.9928 16.7 64.9928 16.684C64.9768 16.604 64.9688 16.52 64.9688 16.432C64.9768 16.344 64.9728 16.26 64.9568 16.18C64.9488 16.18 64.9448 16.18 64.9448 16.18C64.9448 16.188 64.9448 16.192 64.9448 16.192C64.9288 16.216 64.9088 16.24 64.8848 16.264C64.8608 16.288 64.8408 16.308 64.8248 16.324L64.7648 16.384C64.7568 16.384 64.7528 16.384 64.7528 16.384C64.7528 16.392 64.7488 16.396 64.7408 16.396C64.7088 16.436 64.6688 16.476 64.6208 16.516C64.5808 16.556 64.5408 16.596 64.5008 16.636C64.4848 16.652 64.4608 16.668 64.4288 16.684C64.4128 16.86 64.4008 17.056 64.3928 17.272C64.3928 17.488 64.3848 17.688 64.3688 17.872C64.3688 17.88 64.3608 17.872 64.3448 17.848C64.3288 17.832 64.3208 17.82 64.3208 17.812C64.3048 17.628 64.2968 17.432 64.2968 17.224C64.2968 17.024 64.2888 16.836 64.2728 16.66C64.2328 16.62 64.2008 16.576 64.1768 16.528C64.1608 16.496 64.1448 16.464 64.1288 16.432C64.1208 16.408 64.1088 16.38 64.0928 16.348L64.0568 16.276H64.0328C64.0248 16.284 64.0128 16.284 63.9968 16.276C63.9888 16.268 63.9848 16.272 63.9848 16.288C63.9688 16.464 63.9608 16.656 63.9608 16.864C63.9608 17.072 63.9528 17.268 63.9368 17.452L63.8408 17.476C63.8328 17.476 63.8248 17.476 63.8168 17.476C63.8088 17.484 63.8008 17.488 63.7928 17.488C63.7608 17.488 63.7448 17.492 63.7448 17.5C63.7288 17.316 63.7208 17.112 63.7208 16.888C63.7208 16.672 63.7128 16.476 63.6968 16.3C63.6968 16.3 63.6648 16.3 63.6008 16.3L63.5648 16.336C63.5648 16.336 63.5608 16.336 63.5528 16.336C63.5528 16.344 63.5488 16.348 63.5408 16.348L63.4568 16.432C63.4408 16.448 63.4248 16.48 63.4088 16.528C63.4008 16.544 63.3888 16.56 63.3728 16.576C63.3648 16.6 63.3608 16.62 63.3608 16.636C63.3528 16.796 63.3448 16.956 63.3368 17.116C63.3368 17.284 63.3288 17.448 63.3128 17.608C63.3128 17.688 63.2968 17.756 63.2648 17.812C63.2568 17.82 63.2448 17.816 63.2288 17.8C63.2128 17.792 63.2048 17.784 63.2048 17.776C63.1888 17.592 63.1808 17.408 63.1808 17.224C63.1888 17.048 63.1808 16.872 63.1568 16.696C63.1568 16.656 63.1528 16.672 63.1448 16.744C63.1448 16.824 63.1408 16.9 63.1328 16.972C63.1328 17.044 63.1248 17.064 63.1088 17.032C63.0768 16.936 63.0648 16.836 63.0728 16.732C63.0888 16.636 63.0888 16.54 63.0728 16.444C63.0648 16.436 63.0568 16.428 63.0488 16.42C63.0408 16.412 63.0328 16.404 63.0248 16.396C63.0088 16.38 62.9928 16.36 62.9768 16.336C62.9608 16.32 62.9448 16.304 62.9288 16.288C62.9128 16.264 62.8968 16.24 62.8808 16.216C62.8648 16.2 62.8488 16.184 62.8328 16.168L62.7728 16.096C62.7648 16.136 62.7608 16.176 62.7608 16.216C62.7608 16.264 62.7528 16.308 62.7368 16.348C62.7368 16.356 62.7288 16.36 62.7128 16.36C62.7048 16.368 62.6968 16.376 62.6888 16.384C62.6808 16.392 62.6728 16.396 62.6648 16.396C62.6568 16.404 62.6488 16.416 62.6408 16.432C62.6088 16.464 62.5928 16.476 62.5928 16.468C62.5768 16.412 62.5688 16.356 62.5688 16.3C62.5768 16.252 62.5728 16.204 62.5568 16.156C62.5328 16.188 62.5088 16.216 62.4848 16.24C62.4608 16.272 62.4328 16.3 62.4008 16.324C62.3528 16.372 62.3168 16.4 62.2928 16.408C62.2848 16.448 62.2768 16.488 62.2688 16.528C62.2688 16.576 62.2648 16.62 62.2568 16.66C62.2488 16.684 62.2408 16.708 62.2328 16.732C62.2328 16.764 62.2248 16.792 62.2088 16.816C62.1768 16.848 62.1568 16.852 62.1488 16.828C62.1248 16.788 62.1048 16.708 62.0888 16.588C62.0808 16.476 62.0728 16.412 62.0648 16.396C62.0568 16.396 62.0448 16.392 62.0288 16.384C62.0208 16.376 62.0208 16.372 62.0288 16.372L62.0048 16.348C61.9728 16.316 61.9448 16.276 61.9208 16.228C61.9048 16.188 61.8888 16.152 61.8728 16.12C61.8728 16.112 61.8688 16.108 61.8608 16.108C61.8608 16.108 61.8608 16.104 61.8608 16.096C61.8528 16.136 61.8488 16.176 61.8488 16.216C61.8488 16.256 61.8408 16.296 61.8248 16.336C61.8168 16.344 61.8088 16.348 61.8008 16.348C61.7928 16.356 61.7848 16.368 61.7768 16.384C61.7688 16.392 61.7608 16.408 61.7528 16.432C61.7448 16.456 61.7368 16.464 61.7288 16.456C61.7208 16.408 61.7128 16.36 61.7048 16.312C61.7048 16.264 61.7008 16.22 61.6928 16.18C61.6768 16.212 61.6608 16.24 61.6448 16.264C61.6288 16.296 61.6088 16.328 61.5848 16.36C61.4968 16.488 61.4128 16.616 61.3328 16.744C61.2528 16.872 61.1768 17.004 61.1048 17.14C61.1128 17.124 61.1048 17.14 61.0808 17.188C61.0568 17.236 61.0288 17.28 60.9968 17.32L60.9848 17.332C60.9688 17.348 60.9448 17.364 60.9128 17.38C60.9048 17.404 60.8968 17.428 60.8888 17.452C60.8888 17.484 60.8808 17.516 60.8648 17.548C60.8568 17.564 60.8488 17.584 60.8408 17.608C60.8408 17.632 60.8328 17.652 60.8168 17.668C60.8008 17.692 60.7848 17.696 60.7688 17.68C60.7448 17.648 60.7248 17.584 60.7088 17.488C60.7008 17.392 60.6928 17.34 60.6848 17.332L60.6128 17.26C60.6128 17.244 60.6048 17.236 60.5888 17.236C60.5808 17.204 60.5688 17.18 60.5528 17.164C60.5368 17.148 60.5288 17.14 60.5288 17.14C60.4968 17.092 60.4648 17.04 60.4328 16.984C60.4008 16.936 60.3688 16.888 60.3368 16.84C60.2888 16.768 60.2368 16.696 60.1808 16.624C60.1328 16.552 60.0808 16.48 60.0248 16.408C59.9928 16.368 59.9608 16.328 59.9288 16.288C59.9048 16.256 59.8728 16.224 59.8328 16.192C59.8088 16.168 59.7808 16.144 59.7488 16.12C59.7248 16.096 59.7128 16.084 59.7128 16.084C59.7128 16.084 59.7048 16.076 59.6888 16.06C59.6808 16.052 59.6688 16.044 59.6528 16.036C59.6448 16.156 59.6408 16.336 59.6408 16.576C59.6408 16.816 59.6368 17.056 59.6288 17.296C59.6288 17.536 59.6248 17.716 59.6168 17.836C59.6168 17.844 59.6128 17.836 59.6048 17.812C59.5968 17.788 59.5928 17.772 59.5928 17.764C59.5688 17.428 59.5608 17.132 59.5688 16.876C59.5848 16.62 59.5648 16.324 59.5088 15.988C59.4608 15.964 59.4248 15.94 59.4008 15.916C59.3448 15.868 59.3088 15.8 59.2928 15.712C59.2768 15.624 59.2728 15.536 59.2808 15.448C59.2888 15.352 59.2928 15.264 59.2928 15.184V8.164C59.2928 8.124 59.2888 8.084 59.2808 8.044C59.2808 7.996 59.2848 7.952 59.2928 7.912C59.2928 7.88 59.3008 7.84 59.3168 7.792C59.3328 7.76 59.3448 7.74 59.3528 7.732C59.3688 7.708 59.3848 7.688 59.4008 7.672C59.4248 7.656 59.4448 7.644 59.4608 7.636C59.4768 7.628 59.4928 7.624 59.5088 7.624C59.5248 7.616 59.5408 7.612 59.5568 7.612C59.5888 7.596 59.6208 7.588 59.6528 7.588C59.6848 7.588 59.7168 7.588 59.7488 7.588C59.7968 7.588 59.8488 7.592 59.9048 7.6C59.9608 7.6 60.0088 7.6 60.0488 7.6H61.8728C61.9128 7.6 61.9528 7.6 61.9928 7.6C62.0408 7.592 62.0848 7.596 62.1248 7.612C62.1648 7.62 62.1928 7.636 62.2088 7.66C62.2248 7.676 62.2368 7.688 62.2448 7.696C62.2928 7.728 62.3208 7.772 62.3288 7.828C62.3368 7.876 62.3408 7.924 62.3408 7.972C62.3488 8.14 62.3488 8.308 62.3408 8.476C62.3408 8.644 62.3408 8.812 62.3408 8.98V13.444L62.3888 13.54H65.6648C65.7288 13.54 65.7928 13.56 65.8568 13.6L65.9288 13.672L65.9648 13.744C65.9808 13.776 65.9888 13.808 65.9888 13.84C65.9968 13.896 65.9968 13.956 65.9888 14.02C65.9888 14.084 65.9888 14.144 65.9888 14.2V15.46ZM75.4813 14.872L75.3373 15.028C75.3533 15.012 75.3493 15.02 75.3253 15.052C75.3013 15.076 75.2893 15.088 75.2893 15.088C75.2813 15.096 75.2733 15.104 75.2653 15.112C75.2573 15.12 75.2453 15.128 75.2293 15.136C75.2053 15.16 75.1813 15.184 75.1573 15.208C75.1333 15.232 75.1053 15.252 75.0733 15.268C75.0653 15.292 75.0493 15.308 75.0253 15.316C75.0173 15.332 75.0093 15.348 75.0013 15.364C74.9933 15.38 74.9853 15.396 74.9773 15.412L74.9173 15.52L74.8693 15.568C74.8373 15.6 74.8093 15.616 74.7853 15.616C74.7693 15.72 74.7613 15.828 74.7613 15.94C74.7613 16.044 74.7493 16.148 74.7253 16.252C74.7173 16.26 74.7053 16.252 74.6893 16.228C74.6733 16.212 74.6613 16.2 74.6533 16.192C74.6373 16.08 74.6293 16.016 74.6293 16C74.6373 15.976 74.6293 15.9 74.6053 15.772C74.5973 15.788 74.5853 15.812 74.5693 15.844C74.5533 15.868 74.5373 15.888 74.5213 15.904C74.5133 15.912 74.5053 15.928 74.4973 15.952C74.4893 15.968 74.4813 15.972 74.4733 15.964C74.4733 15.956 74.4693 15.952 74.4613 15.952L74.4373 16.048L74.4013 16.156C74.3933 16.204 74.3813 16.252 74.3653 16.3C74.3493 16.348 74.3333 16.396 74.3173 16.444C74.2853 16.572 74.2493 16.704 74.2093 16.84C74.1693 16.976 74.1173 17.104 74.0533 17.224L74.0173 17.284C74.0093 17.292 74.0053 17.296 74.0053 17.296C74.0053 17.304 74.0013 17.312 73.9933 17.32C73.9693 17.352 73.9413 17.38 73.9093 17.404C73.8853 17.436 73.8573 17.468 73.8253 17.5C73.8173 17.516 73.8053 17.532 73.7893 17.548C73.7733 17.572 73.7573 17.596 73.7413 17.62C73.7413 17.628 73.7373 17.632 73.7293 17.632C73.7293 17.64 73.7253 17.644 73.7173 17.644C73.7173 17.652 73.7173 17.66 73.7173 17.668C73.6933 17.716 73.6693 17.764 73.6453 17.812C73.6293 17.868 73.6133 17.924 73.5973 17.98L73.5253 18.196C73.4933 18.26 73.4813 18.288 73.4893 18.28C73.4973 18.28 73.4693 18.324 73.4053 18.412C73.4053 18.428 73.3973 18.436 73.3813 18.436C73.3653 18.452 73.3533 18.46 73.3453 18.46C73.3213 18.524 73.3013 18.588 73.2853 18.652C73.2773 18.724 73.2653 18.796 73.2493 18.868C73.2413 18.908 73.2333 18.972 73.2253 19.06C73.2253 19.148 73.2173 19.172 73.2013 19.132C73.1133 19.044 73.0733 18.992 73.0813 18.976C73.0893 18.968 73.1133 18.972 73.1533 18.988C73.1933 19.004 73.2173 19.004 73.2253 18.988C73.2333 18.98 73.1933 18.932 73.1053 18.844C73.0733 18.772 73.0613 18.696 73.0693 18.616C73.0773 18.536 73.0733 18.456 73.0573 18.376C73.0093 18.336 72.9733 18.284 72.9493 18.22C72.9253 18.156 72.9053 18.096 72.8893 18.04C72.8813 18.008 72.8733 17.98 72.8653 17.956C72.8573 17.932 72.8493 17.904 72.8413 17.872C72.7933 17.712 72.7493 17.536 72.7093 17.344C72.6693 17.16 72.6213 16.984 72.5653 16.816L72.3853 16.36L72.3133 16.216L72.2053 16.144C72.1733 16.32 72.1613 16.408 72.1693 16.408C72.1773 16.408 72.1613 16.32 72.1213 16.144C71.2493 16.128 70.5293 15.98 69.9613 15.7C69.3933 15.412 68.9773 15.048 68.7133 14.608L68.6773 14.536C68.6613 14.512 68.6453 14.488 68.6293 14.464C68.6213 14.432 68.6093 14.404 68.5933 14.38C68.5373 14.26 68.4933 14.144 68.4613 14.032C68.4373 13.92 68.4173 13.808 68.4013 13.696C68.3933 13.656 68.3853 13.612 68.3773 13.564C68.3773 13.508 68.3813 13.456 68.3893 13.408C68.3973 13.392 68.4013 13.38 68.4013 13.372C68.4013 13.356 68.4053 13.344 68.4133 13.336C68.4373 13.288 68.4733 13.252 68.5213 13.228C68.5613 13.204 68.6053 13.192 68.6533 13.192C68.7333 13.176 68.8133 13.172 68.8933 13.18C68.9813 13.188 69.0533 13.192 69.1093 13.192H70.5493C70.6213 13.192 70.6933 13.192 70.7653 13.192C70.8453 13.184 70.9213 13.18 70.9933 13.18C71.0333 13.18 71.0733 13.184 71.1133 13.192C71.1533 13.192 71.1893 13.196 71.2213 13.204C71.2693 13.22 71.3093 13.236 71.3413 13.252C71.3733 13.26 71.4093 13.284 71.4493 13.324C71.4893 13.356 71.5133 13.38 71.5213 13.396C71.5613 13.436 71.5973 13.476 71.6293 13.516C71.6693 13.556 71.7053 13.596 71.7373 13.636C71.7613 13.66 71.7973 13.688 71.8453 13.72C71.8933 13.744 71.9453 13.764 72.0013 13.78C72.0653 13.796 72.1373 13.804 72.2173 13.804C72.3773 13.788 72.5373 13.716 72.6973 13.588C72.8653 13.452 72.9613 13.284 72.9853 13.084C72.9853 13.044 72.9813 13.008 72.9733 12.976C72.9733 12.944 72.9693 12.912 72.9613 12.88C72.9533 12.84 72.9413 12.804 72.9253 12.772C72.9093 12.74 72.8933 12.708 72.8773 12.676C72.8533 12.628 72.8253 12.588 72.7933 12.556L72.7333 12.496C72.7253 12.496 72.7213 12.496 72.7213 12.496C72.7213 12.488 72.7173 12.484 72.7093 12.484C72.6293 12.42 72.5293 12.4 72.4093 12.424C72.2973 12.448 72.1933 12.468 72.0973 12.484C72.0493 12.492 72.0013 12.496 71.9533 12.496C71.9053 12.488 71.8573 12.492 71.8093 12.508C71.7693 12.516 71.7293 12.536 71.6893 12.568C71.6573 12.6 71.6213 12.62 71.5813 12.628C71.5493 12.636 71.5093 12.644 71.4613 12.652C71.4133 12.652 71.3733 12.66 71.3413 12.676C71.2853 12.708 71.2373 12.752 71.1973 12.808C71.1653 12.856 71.1173 12.888 71.0533 12.904C70.9893 12.92 70.9133 12.908 70.8253 12.868C70.7453 12.828 70.6773 12.792 70.6213 12.76C70.5893 12.728 70.5573 12.712 70.5253 12.712C70.5093 12.704 70.4853 12.704 70.4533 12.712C70.4293 12.712 70.4093 12.708 70.3933 12.7C70.3853 12.7 70.3773 12.7 70.3693 12.7C70.3613 12.692 70.3533 12.688 70.3453 12.688C70.3373 12.688 70.3293 12.692 70.3213 12.7C70.3133 12.708 70.3013 12.716 70.2853 12.724C70.2373 12.756 70.1733 12.78 70.0933 12.796C70.0613 12.804 70.0253 12.808 69.9853 12.808C69.9453 12.808 69.8893 12.804 69.8173 12.796C69.7773 12.796 69.7373 12.784 69.6973 12.76C69.6173 12.744 69.5333 12.728 69.4453 12.712C69.3653 12.688 69.2813 12.672 69.1933 12.664C69.1133 12.648 69.0453 12.624 68.9893 12.592C68.9653 12.576 68.9413 12.56 68.9173 12.544C68.9013 12.528 68.8853 12.512 68.8693 12.496C68.8453 12.432 68.8333 12.4 68.8333 12.4C68.8413 12.4 68.8413 12.384 68.8333 12.352C68.8253 12.288 68.8293 12.212 68.8453 12.124C68.8613 12.028 68.8733 11.948 68.8813 11.884L68.9053 11.704C68.9053 11.68 68.9053 11.66 68.9053 11.644C68.9133 11.62 68.9173 11.596 68.9173 11.572L69.0733 10.144C69.0893 9.992 69.1053 9.836 69.1213 9.676C69.1373 9.516 69.1493 9.372 69.1573 9.244C69.1653 9.22 69.1693 9.196 69.1693 9.172C69.1693 9.14 69.1733 9.112 69.1813 9.088C69.1893 9.048 69.1933 9.016 69.1933 8.992C69.1933 8.96 69.1973 8.932 69.2053 8.908C69.2133 8.884 69.2173 8.86 69.2173 8.836C69.2173 8.812 69.2213 8.788 69.2293 8.764C69.2373 8.724 69.2413 8.688 69.2413 8.656C69.2413 8.616 69.2453 8.58 69.2533 8.548L69.3133 8.008C69.3293 7.872 69.3813 7.772 69.4693 7.708C69.5653 7.636 69.6653 7.6 69.7693 7.6H74.7613C74.8013 7.6 74.8373 7.6 74.8693 7.6C74.9013 7.6 74.9333 7.596 74.9653 7.588C75.0133 7.588 75.0613 7.588 75.1093 7.588C75.1573 7.588 75.2053 7.596 75.2533 7.612C75.3253 7.636 75.3813 7.68 75.4213 7.744C75.4373 7.776 75.4493 7.808 75.4573 7.84C75.4653 7.864 75.4693 7.892 75.4693 7.924C75.4773 8.044 75.4813 8.196 75.4813 8.38C75.4813 8.556 75.4773 8.736 75.4693 8.92C75.4693 9.104 75.4693 9.256 75.4693 9.376V9.472C75.4693 9.512 75.4693 9.556 75.4693 9.604C75.4773 9.644 75.4733 9.684 75.4573 9.724C75.4493 9.756 75.4253 9.792 75.3853 9.832C75.3613 9.864 75.3293 9.888 75.2893 9.904C75.2893 9.912 75.2853 9.932 75.2773 9.964C75.2693 9.988 75.2573 10 75.2413 10C75.2333 10.008 75.2253 10.004 75.2173 9.988C75.2173 9.972 75.2093 9.964 75.1933 9.964H75.1813C75.1493 9.972 75.1293 9.996 75.1213 10.036C75.1213 10.068 75.1133 10.092 75.0973 10.108C75.0893 10.116 75.0813 10.112 75.0733 10.096C75.0733 10.072 75.0653 10.06 75.0493 10.06C75.0413 10.052 75.0253 10.06 75.0013 10.084L74.9053 10.144C74.7773 10.2 74.6493 10.232 74.5213 10.24H74.3173C74.2853 10.248 74.2533 10.256 74.2213 10.264C74.1973 10.272 74.1693 10.284 74.1373 10.3C74.0893 10.308 74.0413 10.324 73.9933 10.348C73.9453 10.364 73.8973 10.38 73.8493 10.396C73.7853 10.404 73.7213 10.4 73.6573 10.384C73.5933 10.36 73.5293 10.344 73.4653 10.336C73.3773 10.32 73.2893 10.308 73.2013 10.3C73.1133 10.292 73.0253 10.28 72.9373 10.264C72.8573 10.248 72.7773 10.228 72.6973 10.204C72.6173 10.172 72.5373 10.14 72.4573 10.108C72.4493 10.1 72.4413 10.096 72.4333 10.096C72.4253 10.096 72.4173 10.092 72.4093 10.084C72.3933 10.084 72.3773 10.084 72.3613 10.084C72.3453 10.076 72.3293 10.072 72.3133 10.072C72.2333 10.072 72.1533 10.072 72.0733 10.072C72.0013 10.064 71.9253 10.048 71.8453 10.024L71.6893 9.952C71.7053 9.952 71.6973 9.948 71.6653 9.94C71.6333 9.932 71.6253 9.932 71.6413 9.94L71.6293 10.084C71.6213 10.116 71.6133 10.152 71.6053 10.192C71.6053 10.232 71.6053 10.272 71.6053 10.312L71.5693 10.576C71.5693 10.608 71.5653 10.64 71.5573 10.672C71.5573 10.704 71.5573 10.724 71.5573 10.732L71.5813 10.768C71.5893 10.768 71.5933 10.768 71.5933 10.768C71.5933 10.76 71.5933 10.756 71.5933 10.756C71.6173 10.74 71.6413 10.724 71.6653 10.708C71.6893 10.692 71.7133 10.68 71.7373 10.672C71.8093 10.632 71.8773 10.6 71.9413 10.576C71.9573 10.56 71.9773 10.552 72.0013 10.552C72.0253 10.544 72.0453 10.536 72.0613 10.528L72.1453 10.492C72.1773 10.484 72.2053 10.476 72.2293 10.468C72.2613 10.46 72.2933 10.452 72.3253 10.444C72.3493 10.436 72.3733 10.432 72.3973 10.432C72.4213 10.432 72.4493 10.428 72.4813 10.42C72.5293 10.404 72.5773 10.396 72.6253 10.396C72.6973 10.388 72.7653 10.384 72.8293 10.384C72.9013 10.376 72.9733 10.372 73.0453 10.372C73.1093 10.372 73.1693 10.372 73.2253 10.372C73.2893 10.372 73.3533 10.376 73.4173 10.384L73.6453 10.42C73.6773 10.42 73.7173 10.428 73.7653 10.444C73.7733 10.444 73.7773 10.448 73.7773 10.456C74.2813 10.568 74.7173 10.78 75.0853 11.092C75.1093 11.108 75.1333 11.128 75.1573 11.152C75.1733 11.16 75.1893 11.172 75.2053 11.188C75.2213 11.204 75.2333 11.22 75.2413 11.236C75.5373 11.524 75.7613 11.852 75.9133 12.22C75.9773 12.308 76.0213 12.456 76.0453 12.664C76.0693 12.864 76.0813 13.048 76.0813 13.216V13.252C76.0733 13.612 75.9933 13.952 75.8413 14.272C75.7933 14.432 75.7293 14.552 75.6493 14.632C75.6013 14.712 75.5453 14.792 75.4813 14.872Z" fill="white"/>
</g>
<defs>
<filter id="filter0_d_192_19" x="0.900024" y="0.899902" width="108.2" height="30.1934" filterUnits="userSpaceOnUse" color-interpolation-filters="sRGB">
<feFlood flood-opacity="0" result="BackgroundImageFix"/>
<feColorMatrix in="SourceAlpha" type="matrix" values="0 0 0 0 0 0 0 0 0 0 0 0 0 0 0 0 0 0 127 0" result="hardAlpha"/>
<feOffset dy="4"/>
<feGaussianBlur stdDeviation="2"/>
<feComposite in2="hardAlpha" operator="out"/>
<feColorMatrix type="matrix" values="0 0 0 0 0 0 0 0 0 0 0 0 0 0 0 0 0 0 0.25 0"/>
<feBlend mode="normal" in2="BackgroundImageFix" result="effect1_dropShadow_192_19"/>
<feBlend mode="normal" in="SourceGraphic" in2="effect1_dropShadow_192_19" result="shape"/>
</filter>
<linearGradient id="paint0_linear_192_19" x1="56.1365" y1="1" x2="56.1365" y2="21.7676" gradientUnits="userSpaceOnUse">
<stop stop-color="#D9F049"/>
<stop offset="0.416667" stop-color="#D7F67F" stop-opacity="0.583333"/>
<stop offset="1" stop-color="#7EFF7B"/>
</linearGradient>
</defs>
</svg>
