<svg width="170" height="40" viewBox="0 0 170 40" fill="none" xmlns="http://www.w3.org/2000/svg">
<rect width="170" height="40" fill="black"/>
<path d="M11.2949 12.4883H16.9395V24.7539C16.946 25.6719 16.806 26.528 16.5195 27.3223C16.2396 28.123 15.8229 28.8294 15.2695 29.4414C14.7161 30.0599 14.0391 30.571 13.2383 30.9746C12.4375 31.3848 11.5293 31.6549 10.5137 31.7852L9.81055 30.6035C10.071 30.4082 10.2923 30.1999 10.4746 29.9785C10.6634 29.7572 10.8164 29.5 10.9336 29.207C11.0573 28.9206 11.1484 28.5885 11.207 28.2109C11.2656 27.8398 11.2949 27.4036 11.2949 26.9023V12.4883ZM24.6738 16.1504L22.9941 12.4883H28.9414L36.0508 27.0098H29.6738L28.5996 24.6855H22.877L21.8125 27.0098H19.3418L24.6738 16.1504ZM27.5742 22.4492L25.7383 18.4648L23.9121 22.4492H27.5742ZM36.5879 12.4883H42.7695L46.168 21.8145L49.3125 12.4883L51.8613 12.4785L46.7734 27L42.1738 26.9902L36.5879 12.4883ZM57.8574 16.1504L56.1777 12.4883H62.125L69.2344 27.0098H62.8574L61.7832 24.6855H56.0605L54.9961 27.0098H52.5254L57.8574 16.1504ZM60.7578 22.4492L58.9219 18.4648L57.0957 22.4492H60.7578ZM71.4219 23.7773C72.112 24.1289 72.8346 24.3926 73.5898 24.5684C74.3451 24.7441 75.0482 24.832 75.6992 24.832C76.4479 24.832 76.9948 24.7246 77.3398 24.5098C77.6914 24.2949 77.8672 24.002 77.8672 23.6309C77.8672 23.5137 77.8444 23.3932 77.7988 23.2695C77.7598 23.1458 77.6784 23.0254 77.5547 22.9082C77.4375 22.7845 77.2715 22.6641 77.0566 22.5469C76.8483 22.4232 76.5749 22.3027 76.2363 22.1855L74.4883 21.5898C73.2383 21.1602 72.2975 20.5807 71.666 19.8516C71.0345 19.1159 70.7188 18.2435 70.7188 17.2344C70.7188 16.5833 70.8555 15.9583 71.1289 15.3594C71.4023 14.7539 71.8158 14.2233 72.3691 13.7676C72.9225 13.3053 73.6191 12.9375 74.459 12.6641C75.3053 12.3906 76.2949 12.2539 77.4277 12.2539C77.9876 12.2539 78.5247 12.2865 79.0391 12.3516C79.5534 12.4167 80.0352 12.5013 80.4844 12.6055C80.9401 12.7096 81.3568 12.8301 81.7344 12.9668C82.112 13.097 82.444 13.2272 82.7305 13.3574L81.6758 15.2617C81.4674 15.1315 81.2461 15.0176 81.0117 14.9199C80.7839 14.8223 80.5527 14.7409 80.3184 14.6758C80.0905 14.6107 79.8659 14.5618 79.6445 14.5293C79.4232 14.4967 79.2214 14.4805 79.0391 14.4805C78.7266 14.4805 78.4531 14.5228 78.2188 14.6074C77.9844 14.6855 77.7858 14.793 77.623 14.9297C77.4668 15.0599 77.3464 15.2096 77.2617 15.3789C77.1836 15.5417 77.1445 15.7044 77.1445 15.8672C77.1445 16.0104 77.1771 16.1504 77.2422 16.2871C77.3138 16.4173 77.431 16.5475 77.5938 16.6777C77.763 16.8014 77.9811 16.9284 78.248 17.0586C78.5215 17.1823 78.86 17.3125 79.2637 17.4492L80.4355 17.8398C81.7051 18.263 82.6751 18.8457 83.3457 19.5879C84.0163 20.3301 84.3516 21.2285 84.3516 22.2832C84.3516 22.9993 84.1888 23.6602 83.8633 24.2656C83.5443 24.8711 83.0658 25.3952 82.4277 25.8379C81.7897 26.2741 80.9954 26.6159 80.0449 26.8633C79.1009 27.1042 78.0039 27.2246 76.7539 27.2246C76.1549 27.2246 75.5755 27.1921 75.0156 27.127C74.4622 27.0684 73.9186 26.9772 73.3848 26.8535C72.8574 26.7298 72.3366 26.5736 71.8223 26.3848C71.3079 26.196 70.7936 25.9746 70.2793 25.7207L71.4219 23.7773ZM86.2168 19.7539C86.2168 19.0638 86.3047 18.3997 86.4805 17.7617C86.6628 17.1172 86.9264 16.5182 87.2715 15.9648C87.6165 15.4115 88.0397 14.9069 88.541 14.4512C89.0423 13.9954 89.612 13.6048 90.25 13.2793C90.8945 12.9538 91.6042 12.7031 92.3789 12.5273C93.1536 12.3451 93.987 12.2539 94.8789 12.2539C95.4518 12.2539 95.9987 12.2897 96.5195 12.3613C97.0469 12.4329 97.5417 12.5339 98.0039 12.6641C98.4661 12.7878 98.8926 12.9342 99.2832 13.1035C99.6803 13.2663 100.038 13.4388 100.357 13.6211L99.5176 15.2617C99.153 15.0859 98.7363 14.9395 98.2676 14.8223C97.8053 14.6986 97.3236 14.6367 96.8223 14.6367C96.1517 14.6367 95.5299 14.7572 94.957 14.998C94.3841 15.2389 93.8893 15.5807 93.4727 16.0234C93.056 16.4661 92.7272 17.0033 92.4863 17.6348C92.252 18.2598 92.1348 18.9629 92.1348 19.7441C92.1348 20.5189 92.252 21.222 92.4863 21.8535C92.7207 22.4785 93.043 23.0156 93.4531 23.4648C93.8698 23.9076 94.3613 24.2526 94.9277 24.5C95.5007 24.7409 96.1191 24.8613 96.7832 24.8613C97.252 24.8613 97.7207 24.806 98.1895 24.6953C98.6582 24.5781 99.0879 24.4251 99.4785 24.2363L100.318 25.877C99.9993 26.0658 99.6445 26.2415 99.2539 26.4043C98.8633 26.5671 98.4401 26.7135 97.9844 26.8438C97.5286 26.9674 97.0404 27.0651 96.5195 27.1367C95.9987 27.2083 95.4518 27.2441 94.8789 27.2441C93.5443 27.2441 92.3398 27.0488 91.2656 26.6582C90.1979 26.2611 89.2897 25.724 88.541 25.0469C87.7923 24.3633 87.2161 23.569 86.8125 22.6641C86.4154 21.7526 86.2168 20.7826 86.2168 19.7539ZM102.613 12.4883H110.982C112.063 12.4883 113.007 12.6022 113.814 12.8301C114.628 13.0579 115.305 13.377 115.846 13.7871C116.393 14.1973 116.803 14.6888 117.076 15.2617C117.35 15.8346 117.486 16.4661 117.486 17.1562C117.486 18.0091 117.285 18.7676 116.881 19.4316C116.477 20.0892 115.878 20.6133 115.084 21.0039L118.131 27.0098H111.754L109.449 21.7363H108.258V27H102.613V12.4883ZM108.6 19.9688C109.062 19.9688 109.475 19.9036 109.84 19.7734C110.204 19.6432 110.514 19.4609 110.768 19.2266C111.021 18.9857 111.217 18.7025 111.354 18.377C111.49 18.0449 111.559 17.6836 111.559 17.293C111.559 16.9023 111.49 16.5443 111.354 16.2188C111.217 15.8867 111.021 15.6035 110.768 15.3691C110.514 15.1283 110.204 14.9427 109.84 14.8125C109.475 14.6823 109.062 14.6172 108.6 14.6172H108.268L108.258 19.9688H108.6ZM120.836 12.4883H126.49L126.48 27H120.836V12.4883ZM130.211 12.4883H137.193C138.482 12.4818 139.592 12.5957 140.523 12.8301C141.461 13.0579 142.232 13.3867 142.838 13.8164C143.443 14.2461 143.889 14.7637 144.176 15.3691C144.469 15.9681 144.615 16.6354 144.615 17.3711C144.615 18.0156 144.479 18.6341 144.205 19.2266C143.938 19.8125 143.521 20.3301 142.955 20.7793C142.395 21.2285 141.679 21.5866 140.807 21.8535C139.941 22.1204 138.909 22.2539 137.711 22.2539H135.855V27H130.211V12.4883ZM135.855 20.125C136.305 20.1185 136.705 20.0501 137.057 19.9199C137.408 19.7832 137.704 19.5977 137.945 19.3633C138.186 19.1224 138.368 18.8359 138.492 18.5039C138.622 18.1654 138.688 17.7878 138.688 17.3711C138.688 16.9609 138.622 16.5898 138.492 16.2578C138.362 15.9258 138.173 15.6426 137.926 15.4082C137.685 15.1673 137.389 14.9785 137.037 14.8418C136.692 14.7051 136.298 14.6302 135.855 14.6172V20.125ZM149.498 14.7148H145.357V12.4785H159.283V14.7148H155.143V27H149.498V14.7148Z" fill="white"/>
</svg>
