<svg width="110" height="32" viewBox="0 0 110 32" fill="none" xmlns="http://www.w3.org/2000/svg">
<g filter="url(#filter0_d_193_23)">
<path d="M5.00601 1.86583L4.98731 1.96383L9.15792 3.05825H5L4.99138 3.15751L11.2422 4.25104H5H4.95V4.30104V21V21.0342L4.98186 21.0466L10.1183 23.0466L10.1634 22.9578L7.38661 21.1872L10.5829 22.2975L10.6301 22.2109L9.20963 21.1004L11.1251 21.5487L11.3082 21.5915L11.1705 21.4634L10.7264 21.05H62.9545L62.9642 20.9509L53.8733 19.1618L53.856 19.1584L53.8404 19.1665L51.8366 20.2182L52.7635 19.2453L52.8298 19.1756L52.7347 19.1614L46.2121 18.1833L56.1324 18.9767L56.1492 18.8785L51.0669 17.5322L60.604 18.4706L62.944 18.9757L62.944 18.9758L62.947 18.9763L76.5834 21.0494L76.5833 21.05H76.5909H103.864L103.887 20.9557L98.4549 18.1049L104.993 18.9764L105.02 18.8811L101.828 17.4716H105H105.05V17.4216V2V1.93117L104.985 1.95245L101.858 2.9689L104.406 1.03987L104.525 0.95H104.376H5L4.991 1.04918L18.1397 3.45642L5.00601 1.86583Z" fill="black" stroke="url(#paint0_linear_193_23)" stroke-width="0.1"/>
<path d="M19.724 17.752C19.668 17.784 19.616 17.772 19.568 17.716C19.52 17.66 19.48 17.612 19.448 17.572C19.44 17.556 19.428 17.54 19.412 17.524C19.404 17.516 19.4 17.504 19.4 17.488C19.392 17.304 19.384 17.096 19.376 16.864C19.376 16.632 19.368 16.428 19.352 16.252C19.336 16.3 19.316 16.344 19.292 16.384C19.276 16.432 19.26 16.476 19.244 16.516C19.228 16.548 19.22 16.564 19.22 16.564C19.212 16.572 19.208 16.58 19.208 16.588C19.208 16.596 19.204 16.604 19.196 16.612C19.18 16.644 19.172 16.66 19.172 16.66C19.148 16.716 19.116 16.756 19.076 16.78C19.044 16.796 19.028 16.804 19.028 16.804C19.012 16.956 19.02 17.112 19.052 17.272C19.084 17.432 19.06 17.58 18.98 17.716C18.94 17.788 18.916 17.776 18.908 17.68C18.908 17.584 18.912 17.46 18.92 17.308C18.936 17.156 18.94 17.04 18.932 16.96C18.932 16.872 18.92 16.8 18.896 16.744C18.896 16.744 18.896 16.74 18.896 16.732C18.896 16.732 18.892 16.732 18.884 16.732L18.788 16.636C18.78 16.644 18.772 16.652 18.764 16.66C18.756 16.676 18.748 16.688 18.74 16.696C18.732 16.704 18.72 16.712 18.704 16.72C18.696 16.728 18.692 16.74 18.692 16.756C18.684 16.852 18.692 16.956 18.716 17.068C18.74 17.188 18.752 17.3 18.752 17.404C18.76 17.508 18.724 17.596 18.644 17.668C18.58 17.724 18.548 17.7 18.548 17.596C18.548 17.492 18.56 17.36 18.584 17.2C18.608 17.048 18.612 16.928 18.596 16.84C18.596 16.832 18.588 16.832 18.572 16.84C18.564 16.848 18.556 16.856 18.548 16.864C18.492 16.872 18.444 16.856 18.404 16.816C18.364 16.776 18.332 16.732 18.308 16.684C18.3 16.668 18.292 16.644 18.284 16.612C18.284 16.58 18.276 16.572 18.26 16.588C18.244 16.628 18.236 16.692 18.236 16.78C18.244 16.876 18.24 16.904 18.224 16.864C18.2 16.784 18.188 16.724 18.188 16.684C18.196 16.644 18.2 16.6 18.2 16.552C18.2 16.504 18.184 16.424 18.152 16.312L18.116 16.276C18.068 16.228 18.032 16.196 18.008 16.18C18 16.18 17.992 16.184 17.984 16.192C17.984 16.208 17.976 16.22 17.96 16.228C17.944 16.236 17.92 16.22 17.888 16.18C17.856 16.148 17.832 16.128 17.816 16.12C17.104 16.104 16.444 15.956 15.836 15.676C15.228 15.388 14.772 14.984 14.468 14.464C14.444 14.44 14.424 14.412 14.408 14.38C14.392 14.34 14.376 14.3 14.36 14.26C14.28 14.084 14.22 13.896 14.18 13.696C14.172 13.648 14.164 13.6 14.156 13.552C14.148 13.504 14.14 13.46 14.132 13.42C14.132 13.396 14.128 13.372 14.12 13.348C14.12 13.316 14.12 13.288 14.12 13.264V13.12C14.144 13.008 14.216 12.94 14.336 12.916C14.392 12.908 14.448 12.908 14.504 12.916C14.56 12.916 14.616 12.916 14.672 12.916H16.4C16.488 12.916 16.572 12.912 16.652 12.904C16.74 12.896 16.824 12.9 16.904 12.916C16.968 12.924 17.028 12.944 17.084 12.976C17.164 13.024 17.22 13.084 17.252 13.156C17.284 13.212 17.312 13.268 17.336 13.324C17.36 13.372 17.388 13.42 17.42 13.468L17.456 13.528C17.592 13.696 17.772 13.78 17.996 13.78C18.036 13.78 18.076 13.78 18.116 13.78C18.156 13.772 18.192 13.764 18.224 13.756C18.256 13.74 18.272 13.732 18.272 13.732C18.312 13.716 18.348 13.692 18.38 13.66C18.468 13.58 18.54 13.468 18.596 13.324C18.652 13.172 18.688 13.028 18.704 12.892C18.712 12.828 18.716 12.768 18.716 12.712C18.724 12.656 18.728 12.6 18.728 12.544V10.228C18.728 10.148 18.728 10.12 18.728 10.144C18.736 10.16 18.72 10.124 18.68 10.036C18.664 10.044 18.644 10.064 18.62 10.096C18.604 10.128 18.592 10.148 18.584 10.156C18.528 10.236 18.472 10.32 18.416 10.408C18.368 10.496 18.312 10.584 18.248 10.672C18.208 10.744 18.164 10.796 18.116 10.828C18.084 10.844 18.068 10.852 18.068 10.852C18.036 10.852 18.02 10.852 18.02 10.852C18.004 10.74 17.996 10.632 17.996 10.528C17.996 10.416 17.988 10.304 17.972 10.192C17.94 10.224 17.908 10.264 17.876 10.312C17.772 10.456 17.684 10.604 17.612 10.756C17.548 10.908 17.476 11.064 17.396 11.224C17.324 11.368 17.248 11.508 17.168 11.644C17.088 11.78 16.992 11.908 16.88 12.028C16.864 12.06 16.844 12.088 16.82 12.112C16.796 12.136 16.764 12.168 16.724 12.208C16.708 12.216 16.692 12.224 16.676 12.232C16.668 12.24 16.656 12.252 16.64 12.268C16.616 12.316 16.596 12.368 16.58 12.424C16.572 12.48 16.56 12.532 16.544 12.58C16.536 12.596 16.52 12.628 16.496 12.676C16.472 12.724 16.44 12.744 16.4 12.736C16.344 12.72 16.304 12.672 16.28 12.592C16.256 12.512 16.228 12.444 16.196 12.388C16.188 12.388 16.184 12.384 16.184 12.376C16.152 12.344 16.12 12.308 16.088 12.268C16.064 12.228 16.04 12.188 16.016 12.148L15.944 12.004C15.912 11.948 15.884 11.896 15.86 11.848C15.836 11.792 15.812 11.736 15.788 11.68C15.78 11.672 15.776 11.66 15.776 11.644C15.736 11.556 15.696 11.476 15.656 11.404C15.616 11.324 15.576 11.244 15.536 11.164C15.488 11.052 15.44 10.936 15.392 10.816C15.344 10.696 15.292 10.58 15.236 10.468L15.164 10.324C15.132 10.268 15.1 10.212 15.068 10.156C15.044 10.092 15.012 10.032 14.972 9.976L14.9 9.904C14.884 9.872 14.872 9.852 14.864 9.844C14.864 9.836 14.86 9.832 14.852 9.832C14.852 9.824 14.852 9.816 14.852 9.808C14.828 9.744 14.82 9.676 14.828 9.604C14.836 9.524 14.84 9.452 14.84 9.388V8.116C14.84 8.068 14.84 8.02 14.84 7.972C14.84 7.916 14.844 7.864 14.852 7.816C14.876 7.744 14.912 7.696 14.96 7.672C14.96 7.664 14.96 7.66 14.96 7.66C14.968 7.66 14.972 7.66 14.972 7.66C15.036 7.612 15.112 7.592 15.2 7.6C15.288 7.6 15.372 7.6 15.452 7.6H21.176C21.216 7.6 21.256 7.6 21.296 7.6C21.344 7.592 21.388 7.588 21.428 7.588C21.468 7.588 21.52 7.596 21.584 7.612C21.672 7.628 21.732 7.668 21.764 7.732C21.804 7.796 21.828 7.872 21.836 7.96C21.844 7.992 21.848 8.028 21.848 8.068C21.848 8.1 21.848 8.132 21.848 8.164C21.848 8.204 21.844 8.252 21.836 8.308C21.836 8.356 21.836 8.408 21.836 8.464V13C21.836 13.064 21.832 13.128 21.824 13.192C21.824 13.256 21.82 13.32 21.812 13.384C21.812 13.392 21.808 13.4 21.8 13.408C21.8 13.408 21.8 13.416 21.8 13.432C21.792 13.56 21.776 13.68 21.752 13.792C21.728 13.896 21.696 13.98 21.656 14.044C21.64 14.1 21.62 14.152 21.596 14.2C21.572 14.248 21.548 14.3 21.524 14.356C21.436 14.524 21.336 14.684 21.224 14.836C21.176 14.892 21.124 14.948 21.068 15.004C21.02 15.06 20.964 15.12 20.9 15.184C20.868 15.2 20.84 15.22 20.816 15.244C20.792 15.268 20.776 15.284 20.768 15.292C20.736 15.348 20.708 15.408 20.684 15.472C20.668 15.536 20.648 15.6 20.624 15.664C20.56 15.784 20.496 15.944 20.432 16.144C20.368 16.352 20.304 16.556 20.24 16.756C20.176 16.964 20.108 17.128 20.036 17.248C20.004 17.328 19.964 17.42 19.916 17.524C19.876 17.636 19.812 17.712 19.724 17.752ZM31.1911 15.484C31.2151 15.532 31.2351 15.584 31.2511 15.64C31.2751 15.688 31.2791 15.74 31.2631 15.796C31.2551 15.828 31.2431 15.856 31.2271 15.88C31.2111 15.896 31.1951 15.912 31.1791 15.928L31.1431 15.964C31.1351 15.98 31.1271 16 31.1191 16.024C31.1191 16.048 31.1111 16.068 31.0951 16.084C31.0871 16.108 31.0791 16.132 31.0711 16.156C31.0711 16.18 31.0631 16.204 31.0471 16.228C31.0391 16.252 31.0311 16.284 31.0231 16.324C31.0231 16.372 31.0151 16.388 30.9991 16.372C30.9751 16.348 30.9631 16.316 30.9631 16.276C30.9631 16.244 30.9631 16.212 30.9631 16.18C30.9311 16.22 30.8951 16.26 30.8551 16.3C30.8231 16.348 30.7911 16.392 30.7591 16.432C30.7031 16.52 30.6471 16.612 30.5911 16.708C30.5351 16.812 30.4831 16.912 30.4351 17.008C30.4031 17.072 30.3711 17.14 30.3391 17.212C30.3071 17.284 30.2711 17.352 30.2311 17.416C30.1831 17.496 30.1551 17.54 30.1471 17.548C30.1391 17.556 30.1111 17.584 30.0631 17.632H30.0511C30.0431 17.64 30.0271 17.652 30.0031 17.668C29.9951 17.74 29.9871 17.812 29.9791 17.884C29.9791 17.964 29.9711 18.04 29.9551 18.112C29.9471 18.128 29.9391 18.12 29.9311 18.088C29.9231 18.056 29.9151 18.032 29.9071 18.016C29.8991 17.952 29.8951 17.884 29.8951 17.812C29.8951 17.748 29.8871 17.684 29.8711 17.62C29.8471 17.596 29.8231 17.56 29.7991 17.512C29.7991 17.504 29.7951 17.496 29.7871 17.488C29.7631 17.432 29.7391 17.376 29.7151 17.32C29.6991 17.272 29.6791 17.22 29.6551 17.164C29.6151 17.084 29.5711 17.02 29.5231 16.972C29.5151 16.964 29.5071 16.96 29.4991 16.96C29.4991 16.96 29.4951 16.956 29.4871 16.948C29.4791 16.956 29.4711 16.964 29.4631 16.972C29.4551 16.98 29.4471 16.988 29.4391 16.996C29.3671 17.044 29.3351 17.076 29.3431 17.092C29.3591 17.108 29.3831 17.12 29.4151 17.128C29.4551 17.144 29.4751 17.168 29.4751 17.2C29.4751 17.24 29.4311 17.304 29.3431 17.392C29.3191 17.424 29.3071 17.4 29.3071 17.32C29.3071 17.248 29.3031 17.196 29.2951 17.164C29.2871 17.116 29.2791 17.064 29.2711 17.008C29.2711 16.96 29.2631 16.912 29.2471 16.864C29.1991 16.816 29.1631 16.76 29.1391 16.696C29.1151 16.656 29.0911 16.612 29.0671 16.564C29.0511 16.524 29.0351 16.484 29.0191 16.444L28.9831 16.348C28.9751 16.324 28.9591 16.3 28.9351 16.276C28.9191 16.26 28.9031 16.244 28.8871 16.228C28.8871 16.22 28.8871 16.22 28.8871 16.228C28.8711 16.228 28.8191 16.256 28.7311 16.312C28.7311 16.32 28.7351 16.32 28.7431 16.312C28.7511 16.304 28.7991 16.276 28.8871 16.228L28.8751 16.216L28.8511 16.192C28.7471 16.296 28.7031 16.348 28.7191 16.348C28.7351 16.348 28.7671 16.328 28.8151 16.288C28.8631 16.256 28.8911 16.232 28.8991 16.216C28.9071 16.2 28.8511 16.232 28.7311 16.312L28.7071 16.336C28.6991 16.328 28.6911 16.312 28.6831 16.288C28.6751 16.264 28.6711 16.26 28.6711 16.276C28.6551 16.324 28.6471 16.392 28.6471 16.48C28.6471 16.576 28.6391 16.604 28.6231 16.564C28.6071 16.524 28.5991 16.46 28.5991 16.372C28.5991 16.292 28.5911 16.216 28.5751 16.144C28.5511 16.104 28.5271 16.06 28.5031 16.012C28.4871 15.972 28.4671 15.932 28.4431 15.892C28.4271 15.892 28.4191 15.884 28.4191 15.868C28.4031 15.852 28.3831 15.832 28.3591 15.808C28.3431 15.784 28.3391 15.776 28.3471 15.784C28.3391 15.768 28.3311 15.752 28.3231 15.736C28.3151 15.72 28.3071 15.708 28.2991 15.7C28.2671 15.62 28.2391 15.54 28.2151 15.46C28.1911 15.38 28.1631 15.3 28.1311 15.22C28.1231 15.204 28.1191 15.192 28.1191 15.184C28.1191 15.176 28.1151 15.168 28.1071 15.16C28.1071 15.144 28.0991 15.12 28.0831 15.088C28.0831 15.072 28.0791 15.06 28.0711 15.052C28.0711 15.044 28.0671 15.032 28.0591 15.016C28.0591 15 28.0551 14.992 28.0471 14.992C28.0471 14.976 28.0391 14.952 28.0231 14.92C28.0231 14.912 28.0231 14.908 28.0231 14.908C28.0231 14.908 28.0071 14.908 27.9751 14.908C27.9671 14.924 27.9631 14.948 27.9631 14.98C27.9631 15.012 27.9471 15.036 27.9151 15.052C27.8991 15.092 27.8791 15.136 27.8551 15.184C27.8311 15.224 27.8071 15.264 27.7831 15.304C27.7271 15.408 27.6711 15.524 27.6151 15.652C27.5671 15.772 27.5151 15.9 27.4591 16.036C27.4271 16.132 27.3911 16.228 27.3511 16.324C27.3191 16.42 27.2831 16.508 27.2431 16.588C27.2111 16.66 27.1791 16.732 27.1471 16.804C27.1151 16.884 27.0791 16.956 27.0391 17.02C27.0311 17.036 27.0151 17.056 26.9911 17.08C26.9751 17.112 26.9511 17.128 26.9191 17.128C26.8871 17.136 26.8551 17.124 26.8231 17.092C26.7911 17.044 26.7631 16.992 26.7391 16.936C26.7231 16.88 26.7071 16.824 26.6911 16.768C26.6511 16.68 26.6151 16.576 26.5831 16.456C26.5511 16.336 26.5231 16.212 26.4991 16.084C26.4671 15.956 26.4351 15.832 26.4031 15.712C26.3791 15.592 26.3471 15.488 26.3071 15.4L26.2711 15.304C26.2631 15.288 26.2551 15.272 26.2471 15.256C26.2471 15.24 26.2431 15.22 26.2351 15.196C26.2191 15.164 26.2071 15.136 26.1991 15.112C26.1911 15.104 26.1831 15.096 26.1751 15.088C26.1671 15.072 26.1631 15.072 26.1631 15.088C26.1471 15.168 26.1391 15.256 26.1391 15.352C26.1391 15.44 26.1311 15.528 26.1151 15.616C26.1071 15.648 26.0991 15.64 26.0911 15.592C26.0831 15.536 26.0751 15.496 26.0671 15.472C26.0111 15.36 25.9951 15.292 26.0191 15.268C26.0431 15.244 26.0671 15.224 26.0911 15.208C26.1151 15.192 26.0951 15.14 26.0311 15.052C26.0231 15.052 26.0111 15.068 25.9951 15.1C25.9871 15.108 25.9831 15.116 25.9831 15.124C25.9831 15.132 25.9791 15.14 25.9711 15.148C25.9551 15.172 25.9391 15.196 25.9231 15.22C25.9071 15.236 25.8871 15.252 25.8631 15.268C25.8471 15.284 25.8351 15.292 25.8271 15.292C25.8191 15.38 25.8111 15.472 25.8031 15.568C25.8031 15.656 25.7951 15.744 25.7791 15.832C25.7791 15.84 25.7711 15.848 25.7551 15.856C25.7391 15.864 25.7311 15.864 25.7311 15.856C25.7151 15.76 25.7071 15.664 25.7071 15.568C25.7071 15.464 25.6991 15.36 25.6831 15.256C25.6431 15.216 25.6071 15.168 25.5751 15.112C25.5431 15.056 25.5151 15.012 25.4911 14.98C25.4191 14.836 25.3871 14.768 25.3951 14.776C25.4031 14.776 25.4151 14.8 25.4311 14.848C25.4471 14.904 25.4471 14.94 25.4311 14.956C25.4071 15.004 25.3951 15.032 25.3951 15.04C25.3871 15.064 25.3791 15.088 25.3711 15.112C25.3631 15.128 25.3551 15.148 25.3471 15.172C25.3311 15.22 25.3151 15.268 25.2991 15.316C25.2831 15.364 25.2671 15.408 25.2511 15.448L25.1791 15.652C25.1711 15.684 25.1591 15.716 25.1431 15.748C25.1271 15.772 25.1111 15.796 25.0951 15.82C25.0711 15.86 25.0391 15.892 24.9991 15.916C24.9831 15.932 24.9671 15.956 24.9511 15.988L24.9151 16.072C24.8991 16.136 24.8791 16.204 24.8551 16.276C24.8311 16.348 24.8071 16.416 24.7831 16.48C24.7831 16.488 24.7791 16.492 24.7711 16.492C24.7711 16.5 24.7711 16.504 24.7711 16.504C24.7631 16.56 24.7511 16.612 24.7351 16.66C24.7191 16.716 24.7031 16.772 24.6871 16.828C24.6791 16.836 24.6751 16.848 24.6751 16.864C24.6751 16.88 24.6711 16.896 24.6631 16.912C24.6391 17.008 24.6151 17.104 24.5911 17.2C24.5751 17.304 24.5511 17.4 24.5191 17.488C24.5031 17.568 24.4831 17.644 24.4591 17.716C24.4351 17.788 24.4111 17.86 24.3871 17.932C24.3791 17.964 24.3631 17.996 24.3391 18.028C24.3231 18.068 24.3071 18.108 24.2911 18.148L24.2191 18.244C24.1951 18.268 24.1631 18.288 24.1231 18.304C24.1151 18.392 24.1071 18.48 24.0991 18.568C24.0991 18.664 24.0911 18.756 24.0751 18.844C24.0671 18.86 24.0551 18.876 24.0391 18.892C24.0231 18.908 24.0151 18.912 24.0151 18.904C23.9991 18.792 23.9911 18.684 23.9911 18.58C23.9911 18.476 23.9831 18.372 23.9671 18.268C23.9511 18.252 23.9351 18.236 23.9191 18.22C23.9111 18.204 23.8991 18.192 23.8831 18.184L23.7751 18.064C23.7671 18.048 23.7551 18.032 23.7391 18.016C23.7311 18 23.7191 17.984 23.7031 17.968C23.6711 17.92 23.6351 17.872 23.5951 17.824C23.5631 17.776 23.5351 17.728 23.5111 17.68C23.4231 17.528 23.3471 17.372 23.2831 17.212C23.2191 17.06 23.1511 16.908 23.0791 16.756C23.0471 16.692 23.0151 16.624 22.9831 16.552C22.9511 16.488 22.9151 16.424 22.8751 16.36C22.8671 16.352 22.8591 16.344 22.8511 16.336C22.8511 16.328 22.8471 16.32 22.8391 16.312C22.8231 16.28 22.8031 16.252 22.7791 16.228C22.7471 16.196 22.7231 16.176 22.7071 16.168C22.7071 16.168 22.7031 16.164 22.6951 16.156C22.6951 16.156 22.6951 16.152 22.6951 16.144C22.6871 16.144 22.6831 16.14 22.6831 16.132C22.6831 16.132 22.6791 16.132 22.6711 16.132C22.6471 16.172 22.6311 16.216 22.6231 16.264C22.6231 16.312 22.6111 16.356 22.5871 16.396C22.5871 16.428 22.5751 16.444 22.5511 16.444C22.5191 16.452 22.4951 16.424 22.4791 16.36C22.4711 16.304 22.4671 16.284 22.4671 16.3C22.4351 16.468 22.4231 16.504 22.4311 16.408C22.4471 16.312 22.4391 16.176 22.4071 16C22.3991 15.992 22.3911 15.988 22.3831 15.988C22.3751 15.988 22.3671 15.984 22.3591 15.976C22.3351 15.968 22.3031 15.944 22.2631 15.904C22.2471 15.888 22.2311 15.864 22.2151 15.832C22.1991 15.8 22.1951 15.752 22.2031 15.688C22.2111 15.64 22.2231 15.592 22.2391 15.544C22.2551 15.496 22.2711 15.452 22.2871 15.412C22.3031 15.356 22.3191 15.308 22.3351 15.268C22.3591 15.22 22.3751 15.192 22.3831 15.184L22.7911 14.02C22.8311 13.86 22.8671 13.708 22.8991 13.564C22.9391 13.412 22.9831 13.288 23.0311 13.192C23.0311 13.184 23.0311 13.176 23.0311 13.168C23.0391 13.16 23.0431 13.152 23.0431 13.144C23.0591 13.112 23.0711 13.08 23.0791 13.048C23.0951 13.016 23.1111 12.984 23.1271 12.952C23.1431 12.92 23.1591 12.892 23.1751 12.868C23.1911 12.836 23.2031 12.812 23.2111 12.796L23.8351 11.008C23.8751 10.864 23.9111 10.728 23.9431 10.6C23.9831 10.464 24.0191 10.356 24.0511 10.276C24.0751 10.196 24.0951 10.12 24.1111 10.048C24.1351 9.968 24.1591 9.896 24.1831 9.832C24.2071 9.744 24.2351 9.664 24.2671 9.592C24.3551 9.328 24.4351 9.16 24.5071 9.088L24.7231 8.464L24.8911 7.996C24.9151 7.908 24.9711 7.82 25.0591 7.732C25.1471 7.644 25.2791 7.6 25.4551 7.6H28.0351C28.1311 7.6 28.2111 7.616 28.2751 7.648C28.2991 7.656 28.3351 7.676 28.3831 7.708C28.4391 7.748 28.4831 7.796 28.5151 7.852C28.5471 7.908 28.5751 7.968 28.5991 8.032C28.5991 8.048 28.6071 8.072 28.6231 8.104L28.6591 8.224C28.6671 8.24 28.6711 8.26 28.6711 8.284C28.6791 8.308 28.6871 8.328 28.6951 8.344L28.8031 8.608C28.8031 8.616 28.8031 8.624 28.8031 8.632C28.8111 8.632 28.8151 8.636 28.8151 8.644C28.8311 8.676 28.8391 8.704 28.8391 8.728C28.8631 8.784 28.8831 8.844 28.8991 8.908C28.9231 8.972 28.9431 9.036 28.9591 9.1C28.9671 9.116 28.9751 9.136 28.9831 9.16C28.9911 9.184 28.9991 9.204 29.0071 9.22L29.0311 9.304C29.0791 9.352 29.1311 9.448 29.1871 9.592C29.2511 9.728 29.3151 9.896 29.3791 10.096L29.4151 10.216C29.4711 10.344 29.5191 10.476 29.5591 10.612C29.6071 10.748 29.6471 10.884 29.6791 11.02C29.7191 11.1 29.7591 11.212 29.7991 11.356C29.8391 11.5 29.8751 11.652 29.9071 11.812L30.4951 13.48C30.5431 13.56 30.5911 13.68 30.6391 13.84C30.6951 13.992 30.7511 14.164 30.8071 14.356C30.8231 14.396 30.8351 14.436 30.8431 14.476C30.8591 14.516 30.8711 14.556 30.8791 14.596L31.1431 15.352C31.1671 15.392 31.1831 15.436 31.1911 15.484ZM26.7151 10.384C26.7151 10.392 26.7111 10.404 26.7031 10.42C26.6951 10.436 26.6911 10.452 26.6911 10.468C26.6751 10.524 26.6551 10.58 26.6311 10.636C26.6151 10.692 26.5991 10.752 26.5831 10.816L26.3071 11.752C26.2991 11.784 26.2911 11.816 26.2831 11.848C26.2751 11.872 26.2631 11.904 26.2471 11.944C26.2391 11.992 26.2271 12.044 26.2111 12.1C26.1951 12.148 26.1791 12.2 26.1631 12.256C26.1551 12.288 26.1471 12.32 26.1391 12.352C26.1311 12.384 26.1191 12.416 26.1031 12.448C26.0951 12.456 26.0911 12.468 26.0911 12.484C26.0911 12.492 26.0871 12.504 26.0791 12.52C26.0791 12.52 26.0791 12.524 26.0791 12.532C26.0791 12.532 26.0751 12.532 26.0671 12.532C26.0671 12.54 26.0631 12.548 26.0551 12.556C26.0551 12.556 26.0551 12.56 26.0551 12.568H27.0871C27.1271 12.568 27.1671 12.568 27.2071 12.568C27.2471 12.56 27.2831 12.56 27.3151 12.568H27.4111L27.3751 12.436C27.3591 12.396 27.3471 12.36 27.3391 12.328C27.3311 12.288 27.3191 12.252 27.3031 12.22L27.2671 12.112C27.2351 12.024 27.2031 11.928 27.1711 11.824C27.1471 11.712 27.1191 11.604 27.0871 11.5C27.0791 11.492 27.0751 11.476 27.0751 11.452L26.8711 10.816L26.7991 10.564C26.7991 10.564 26.7911 10.548 26.7751 10.516C26.7671 10.476 26.7591 10.44 26.7511 10.408C26.7431 10.4 26.7391 10.396 26.7391 10.396C26.7391 10.388 26.7311 10.384 26.7151 10.384ZM39.0672 7.9C39.0672 7.924 39.0632 7.94 39.0552 7.948C39.0472 8.012 39.0312 8.076 39.0072 8.14C38.9832 8.204 38.9632 8.268 38.9472 8.332L38.6712 9.244L38.6352 9.4C38.6032 9.52 38.5712 9.64 38.5392 9.76C38.5152 9.88 38.4792 9.996 38.4312 10.108C38.4312 10.116 38.4272 10.124 38.4192 10.132C38.4192 10.14 38.4192 10.148 38.4192 10.156C38.3632 10.428 38.2992 10.684 38.2272 10.924C38.1632 11.156 38.0992 11.316 38.0352 11.404L37.8312 12.088C37.7912 12.352 37.7472 12.604 37.6992 12.844C37.6512 13.076 37.5992 13.236 37.5432 13.324C37.5192 13.412 37.4952 13.5 37.4712 13.588C37.4472 13.668 37.4152 13.752 37.3752 13.84C37.3192 14.056 37.2632 14.248 37.2072 14.416C37.1592 14.584 37.1072 14.7 37.0512 14.764C37.0432 14.788 37.0352 14.812 37.0272 14.836C37.0272 14.86 37.0192 14.884 37.0032 14.908L36.9672 15.028C36.9352 15.132 36.9072 15.24 36.8832 15.352C36.8592 15.464 36.8272 15.568 36.7872 15.664L36.7512 15.724C36.7512 15.732 36.7472 15.736 36.7392 15.736C36.7392 15.736 36.7392 15.74 36.7392 15.748C36.7312 15.756 36.7232 15.768 36.7152 15.784C36.7072 15.8 36.6952 15.816 36.6792 15.832C36.6632 15.832 36.6552 15.84 36.6552 15.856C36.6392 15.864 36.6072 15.892 36.5592 15.94C36.5352 16.068 36.5152 16.196 36.4992 16.324C36.4912 16.46 36.4792 16.596 36.4632 16.732C36.4552 16.764 36.4472 16.796 36.4392 16.828C36.4312 16.868 36.4192 16.904 36.4032 16.936C36.4032 16.944 36.3992 16.956 36.3912 16.972C36.3832 16.996 36.3712 17.004 36.3552 16.996C36.3232 16.996 36.3072 16.972 36.3072 16.924C36.2912 16.812 36.2832 16.7 36.2832 16.588C36.2832 16.484 36.2792 16.38 36.2712 16.276C36.2632 16.276 36.2592 16.276 36.2592 16.276C36.2592 16.284 36.2592 16.288 36.2592 16.288C36.2512 16.296 36.2432 16.312 36.2352 16.336C36.2272 16.368 36.2192 16.38 36.2112 16.372C36.1952 16.332 36.1872 16.292 36.1872 16.252C36.1872 16.212 36.1832 16.172 36.1752 16.132L36.0312 16.276C36.0232 16.284 36.0152 16.292 36.0072 16.3C35.9992 16.316 35.9912 16.332 35.9832 16.348C35.9592 16.372 35.9392 16.4 35.9232 16.432C35.8832 16.504 35.8512 16.572 35.8272 16.636C35.8032 16.692 35.7792 16.752 35.7552 16.816C35.7392 16.88 35.7152 16.944 35.6832 17.008C35.6672 17.056 35.6432 17.104 35.6112 17.152C35.5792 17.2 35.5392 17.232 35.4912 17.248C35.4832 17.28 35.4752 17.312 35.4672 17.344C35.4592 17.384 35.4512 17.424 35.4432 17.464C35.4352 17.496 35.4272 17.544 35.4192 17.608C35.4192 17.672 35.4072 17.692 35.3832 17.668C35.3512 17.628 35.3392 17.576 35.3472 17.512C35.3632 17.456 35.3632 17.404 35.3472 17.356C35.3392 17.348 35.3312 17.344 35.3232 17.344C35.3152 17.352 35.3072 17.356 35.2992 17.356C35.2912 17.348 35.2752 17.344 35.2512 17.344C35.2432 17.336 35.2312 17.328 35.2152 17.32C35.2072 17.312 35.2032 17.312 35.2032 17.32C35.1872 17.408 35.1792 17.496 35.1792 17.584C35.1792 17.68 35.1712 17.772 35.1552 17.86C35.1472 17.868 35.1392 17.86 35.1312 17.836C35.1232 17.812 35.1152 17.792 35.1072 17.776L35.0112 17.62C34.9792 17.556 34.9472 17.488 34.9152 17.416C34.8832 17.352 34.8472 17.292 34.8072 17.236L34.7712 17.2C34.7392 17.16 34.7072 17.12 34.6752 17.08C34.6432 17.04 34.6112 17.004 34.5792 16.972L34.4832 16.876C34.4752 16.868 34.4672 16.86 34.4592 16.852C34.4512 16.852 34.4432 16.848 34.4352 16.84C34.4272 16.84 34.4112 16.852 34.3872 16.876C34.3632 16.9 34.3352 16.932 34.3032 16.972C34.2712 17.02 34.2352 17.028 34.1952 16.996C34.1632 16.964 34.1352 16.928 34.1112 16.888C34.0952 16.856 34.0752 16.824 34.0512 16.792L33.9912 16.72C33.9672 16.704 33.9472 16.692 33.9312 16.684C33.9232 16.676 33.9072 16.656 33.8832 16.624V16.612C33.8592 16.588 33.8352 16.56 33.8112 16.528C33.7952 16.504 33.7792 16.476 33.7632 16.444C33.6832 16.3 33.6032 16.152 33.5232 16H33.4632C33.4952 16 33.4912 16 33.4512 16C33.4112 15.992 33.3832 15.988 33.3672 15.988C33.3512 15.98 33.3352 15.976 33.3192 15.976C33.3032 15.968 33.2872 15.96 33.2712 15.952C33.2152 15.928 33.1672 15.896 33.1272 15.856C33.0552 15.768 33.0072 15.68 32.9832 15.592C32.9832 15.592 32.9752 15.576 32.9592 15.544L32.9232 15.424C32.8992 15.336 32.8672 15.228 32.8272 15.1C32.7952 14.972 32.7632 14.848 32.7312 14.728L32.6472 14.452C32.6312 14.436 32.6072 14.404 32.5752 14.356C32.5752 14.348 32.5712 14.344 32.5632 14.344C32.5632 14.336 32.5632 14.328 32.5632 14.32C32.4992 14.2 32.4432 14.056 32.3952 13.888C32.3472 13.72 32.3032 13.556 32.2632 13.396L32.1912 13.108C32.1832 13.092 32.1752 13.072 32.1672 13.048C32.1672 13.024 32.1632 13.004 32.1552 12.988C32.1152 12.9 32.0752 12.764 32.0352 12.58C32.0032 12.396 31.9672 12.204 31.9272 12.004C31.9192 11.996 31.9152 11.988 31.9152 11.98L31.1952 9.556C31.1632 9.492 31.1352 9.424 31.1112 9.352C31.0952 9.272 31.0792 9.196 31.0632 9.124C31.0632 9.108 31.0552 9.076 31.0392 9.028C30.9992 8.876 30.9552 8.728 30.9072 8.584C30.8672 8.432 30.8232 8.28 30.7752 8.128L30.7272 7.948C30.7192 7.916 30.7152 7.888 30.7152 7.864C30.7152 7.792 30.7432 7.728 30.7992 7.672C30.8152 7.656 30.8392 7.64 30.8712 7.624C30.9032 7.608 30.9312 7.6 30.9552 7.6H33.1512C33.2152 7.6 33.2752 7.604 33.3312 7.612C33.3952 7.62 33.4552 7.64 33.5112 7.672C33.5672 7.704 33.6192 7.756 33.6672 7.828C33.6992 7.86 33.7192 7.896 33.7272 7.936C33.7672 8.016 33.7952 8.104 33.8112 8.2C33.8352 8.288 33.8552 8.376 33.8712 8.464C33.8712 8.472 33.8712 8.48 33.8712 8.488C33.8792 8.496 33.8832 8.508 33.8832 8.524C33.8992 8.54 33.9072 8.556 33.9072 8.572C33.9712 8.668 34.0232 8.824 34.0632 9.04C34.1112 9.248 34.1512 9.472 34.1832 9.712L34.4832 10.84C34.4832 10.864 34.4912 10.892 34.5072 10.924C34.5232 10.98 34.5392 11.04 34.5552 11.104C34.5712 11.168 34.5872 11.232 34.6032 11.296C34.6192 11.36 34.6352 11.428 34.6512 11.5C34.6672 11.572 34.6832 11.64 34.6992 11.704L34.8312 12.208L34.8672 12.364L34.8792 12.412H34.9032C34.9032 12.404 34.9072 12.396 34.9152 12.388C34.9152 12.356 34.9192 12.332 34.9272 12.316C34.9272 12.308 34.9272 12.3 34.9272 12.292C34.9352 12.276 34.9392 12.264 34.9392 12.256C34.9472 12.232 34.9552 12.208 34.9632 12.184C34.9712 12.152 34.9792 12.124 34.9872 12.1L35.0352 11.896L35.1432 11.464C35.1592 11.392 35.1752 11.324 35.1912 11.26C35.2152 11.188 35.2312 11.12 35.2392 11.056L35.2752 10.924C35.3152 10.74 35.3552 10.568 35.3952 10.408C35.4352 10.24 35.4712 10.116 35.5032 10.036L35.5272 9.976L35.6112 9.664C35.6272 9.552 35.6472 9.444 35.6712 9.34C35.6952 9.228 35.7192 9.124 35.7432 9.028C35.7592 8.956 35.7752 8.884 35.7912 8.812C35.8152 8.74 35.8352 8.676 35.8512 8.62L35.8872 8.536C35.8952 8.52 35.8992 8.508 35.8992 8.5C35.8992 8.484 35.9032 8.472 35.9112 8.464C35.9272 8.392 35.9432 8.316 35.9592 8.236C35.9752 8.156 35.9992 8.076 36.0312 7.996C36.0472 7.924 36.0672 7.872 36.0912 7.84C36.1152 7.808 36.1512 7.772 36.1992 7.732C36.2312 7.7 36.2552 7.68 36.2712 7.672C36.3352 7.632 36.3992 7.612 36.4632 7.612C36.5272 7.604 36.5952 7.6 36.6672 7.6H38.6832C38.7152 7.6 38.7432 7.6 38.7672 7.6C38.7992 7.592 38.8312 7.592 38.8632 7.6C38.9192 7.608 38.9672 7.64 39.0072 7.696C39.0552 7.744 39.0752 7.812 39.0672 7.9ZM47.5036 15.484C47.5276 15.532 47.5476 15.584 47.5636 15.64C47.5876 15.688 47.5916 15.74 47.5756 15.796C47.5676 15.828 47.5556 15.856 47.5396 15.88C47.5236 15.896 47.5076 15.912 47.4916 15.928L47.4556 15.964C47.4476 15.98 47.4396 16 47.4316 16.024C47.4316 16.048 47.4236 16.068 47.4076 16.084C47.3996 16.108 47.3916 16.132 47.3836 16.156C47.3836 16.18 47.3756 16.204 47.3596 16.228C47.3516 16.252 47.3436 16.284 47.3356 16.324C47.3356 16.372 47.3276 16.388 47.3116 16.372C47.2876 16.348 47.2756 16.316 47.2756 16.276C47.2756 16.244 47.2756 16.212 47.2756 16.18C47.2436 16.22 47.2076 16.26 47.1676 16.3C47.1356 16.348 47.1036 16.392 47.0716 16.432C47.0156 16.52 46.9596 16.612 46.9036 16.708C46.8476 16.812 46.7956 16.912 46.7476 17.008C46.7156 17.072 46.6836 17.14 46.6516 17.212C46.6196 17.284 46.5836 17.352 46.5436 17.416C46.4956 17.496 46.4676 17.54 46.4596 17.548C46.4516 17.556 46.4236 17.584 46.3756 17.632H46.3636C46.3556 17.64 46.3396 17.652 46.3156 17.668C46.3076 17.74 46.2996 17.812 46.2916 17.884C46.2916 17.964 46.2836 18.04 46.2676 18.112C46.2596 18.128 46.2516 18.12 46.2436 18.088C46.2356 18.056 46.2276 18.032 46.2196 18.016C46.2116 17.952 46.2076 17.884 46.2076 17.812C46.2076 17.748 46.1996 17.684 46.1836 17.62C46.1596 17.596 46.1356 17.56 46.1116 17.512C46.1116 17.504 46.1076 17.496 46.0996 17.488C46.0756 17.432 46.0516 17.376 46.0276 17.32C46.0116 17.272 45.9916 17.22 45.9676 17.164C45.9276 17.084 45.8836 17.02 45.8356 16.972C45.8276 16.964 45.8196 16.96 45.8116 16.96C45.8116 16.96 45.8076 16.956 45.7996 16.948C45.7916 16.956 45.7836 16.964 45.7756 16.972C45.7676 16.98 45.7596 16.988 45.7516 16.996C45.6796 17.044 45.6476 17.076 45.6556 17.092C45.6716 17.108 45.6956 17.12 45.7276 17.128C45.7676 17.144 45.7876 17.168 45.7876 17.2C45.7876 17.24 45.7436 17.304 45.6556 17.392C45.6316 17.424 45.6196 17.4 45.6196 17.32C45.6196 17.248 45.6156 17.196 45.6076 17.164C45.5996 17.116 45.5916 17.064 45.5836 17.008C45.5836 16.96 45.5756 16.912 45.5596 16.864C45.5116 16.816 45.4756 16.76 45.4516 16.696C45.4276 16.656 45.4036 16.612 45.3796 16.564C45.3636 16.524 45.3476 16.484 45.3316 16.444L45.2956 16.348C45.2876 16.324 45.2716 16.3 45.2476 16.276C45.2316 16.26 45.2156 16.244 45.1996 16.228C45.1996 16.22 45.1996 16.22 45.1996 16.228C45.1836 16.228 45.1316 16.256 45.0436 16.312C45.0436 16.32 45.0476 16.32 45.0556 16.312C45.0636 16.304 45.1116 16.276 45.1996 16.228L45.1876 16.216L45.1636 16.192C45.0596 16.296 45.0156 16.348 45.0316 16.348C45.0476 16.348 45.0796 16.328 45.1276 16.288C45.1756 16.256 45.2036 16.232 45.2116 16.216C45.2196 16.2 45.1636 16.232 45.0436 16.312L45.0196 16.336C45.0116 16.328 45.0036 16.312 44.9956 16.288C44.9876 16.264 44.9836 16.26 44.9836 16.276C44.9676 16.324 44.9596 16.392 44.9596 16.48C44.9596 16.576 44.9516 16.604 44.9356 16.564C44.9196 16.524 44.9116 16.46 44.9116 16.372C44.9116 16.292 44.9036 16.216 44.8876 16.144C44.8636 16.104 44.8396 16.06 44.8156 16.012C44.7996 15.972 44.7796 15.932 44.7556 15.892C44.7396 15.892 44.7316 15.884 44.7316 15.868C44.7156 15.852 44.6956 15.832 44.6716 15.808C44.6556 15.784 44.6516 15.776 44.6596 15.784C44.6516 15.768 44.6436 15.752 44.6356 15.736C44.6276 15.72 44.6196 15.708 44.6116 15.7C44.5796 15.62 44.5516 15.54 44.5276 15.46C44.5036 15.38 44.4756 15.3 44.4436 15.22C44.4356 15.204 44.4316 15.192 44.4316 15.184C44.4316 15.176 44.4276 15.168 44.4196 15.16C44.4196 15.144 44.4116 15.12 44.3956 15.088C44.3956 15.072 44.3916 15.06 44.3836 15.052C44.3836 15.044 44.3796 15.032 44.3716 15.016C44.3716 15 44.3676 14.992 44.3596 14.992C44.3596 14.976 44.3516 14.952 44.3356 14.92C44.3356 14.912 44.3356 14.908 44.3356 14.908C44.3356 14.908 44.3196 14.908 44.2876 14.908C44.2796 14.924 44.2756 14.948 44.2756 14.98C44.2756 15.012 44.2596 15.036 44.2276 15.052C44.2116 15.092 44.1916 15.136 44.1676 15.184C44.1436 15.224 44.1196 15.264 44.0956 15.304C44.0396 15.408 43.9836 15.524 43.9276 15.652C43.8796 15.772 43.8276 15.9 43.7716 16.036C43.7396 16.132 43.7036 16.228 43.6636 16.324C43.6316 16.42 43.5956 16.508 43.5556 16.588C43.5236 16.66 43.4916 16.732 43.4596 16.804C43.4276 16.884 43.3916 16.956 43.3516 17.02C43.3436 17.036 43.3276 17.056 43.3036 17.08C43.2876 17.112 43.2636 17.128 43.2316 17.128C43.1996 17.136 43.1676 17.124 43.1356 17.092C43.1036 17.044 43.0756 16.992 43.0516 16.936C43.0356 16.88 43.0196 16.824 43.0036 16.768C42.9636 16.68 42.9276 16.576 42.8956 16.456C42.8636 16.336 42.8356 16.212 42.8116 16.084C42.7796 15.956 42.7476 15.832 42.7156 15.712C42.6916 15.592 42.6596 15.488 42.6196 15.4L42.5836 15.304C42.5756 15.288 42.5676 15.272 42.5596 15.256C42.5596 15.24 42.5556 15.22 42.5476 15.196C42.5316 15.164 42.5196 15.136 42.5116 15.112C42.5036 15.104 42.4956 15.096 42.4876 15.088C42.4796 15.072 42.4756 15.072 42.4756 15.088C42.4596 15.168 42.4516 15.256 42.4516 15.352C42.4516 15.44 42.4436 15.528 42.4276 15.616C42.4196 15.648 42.4116 15.64 42.4036 15.592C42.3956 15.536 42.3876 15.496 42.3796 15.472C42.3236 15.36 42.3076 15.292 42.3316 15.268C42.3556 15.244 42.3796 15.224 42.4036 15.208C42.4276 15.192 42.4076 15.14 42.3436 15.052C42.3356 15.052 42.3236 15.068 42.3076 15.1C42.2996 15.108 42.2956 15.116 42.2956 15.124C42.2956 15.132 42.2916 15.14 42.2836 15.148C42.2676 15.172 42.2516 15.196 42.2356 15.22C42.2196 15.236 42.1996 15.252 42.1756 15.268C42.1596 15.284 42.1476 15.292 42.1396 15.292C42.1316 15.38 42.1236 15.472 42.1156 15.568C42.1156 15.656 42.1076 15.744 42.0916 15.832C42.0916 15.84 42.0836 15.848 42.0676 15.856C42.0516 15.864 42.0436 15.864 42.0436 15.856C42.0276 15.76 42.0196 15.664 42.0196 15.568C42.0196 15.464 42.0116 15.36 41.9956 15.256C41.9556 15.216 41.9196 15.168 41.8876 15.112C41.8556 15.056 41.8276 15.012 41.8036 14.98C41.7316 14.836 41.6996 14.768 41.7076 14.776C41.7156 14.776 41.7276 14.8 41.7436 14.848C41.7596 14.904 41.7596 14.94 41.7436 14.956C41.7196 15.004 41.7076 15.032 41.7076 15.04C41.6996 15.064 41.6916 15.088 41.6836 15.112C41.6756 15.128 41.6676 15.148 41.6596 15.172C41.6436 15.22 41.6276 15.268 41.6116 15.316C41.5956 15.364 41.5796 15.408 41.5636 15.448L41.4916 15.652C41.4836 15.684 41.4716 15.716 41.4556 15.748C41.4396 15.772 41.4236 15.796 41.4076 15.82C41.3836 15.86 41.3516 15.892 41.3116 15.916C41.2956 15.932 41.2796 15.956 41.2636 15.988L41.2276 16.072C41.2116 16.136 41.1916 16.204 41.1676 16.276C41.1436 16.348 41.1196 16.416 41.0956 16.48C41.0956 16.488 41.0916 16.492 41.0836 16.492C41.0836 16.5 41.0836 16.504 41.0836 16.504C41.0756 16.56 41.0636 16.612 41.0476 16.66C41.0316 16.716 41.0156 16.772 40.9996 16.828C40.9916 16.836 40.9876 16.848 40.9876 16.864C40.9876 16.88 40.9836 16.896 40.9756 16.912C40.9516 17.008 40.9276 17.104 40.9036 17.2C40.8876 17.304 40.8636 17.4 40.8316 17.488C40.8156 17.568 40.7956 17.644 40.7716 17.716C40.7476 17.788 40.7236 17.86 40.6996 17.932C40.6916 17.964 40.6756 17.996 40.6516 18.028C40.6356 18.068 40.6196 18.108 40.6036 18.148L40.5316 18.244C40.5076 18.268 40.4756 18.288 40.4356 18.304C40.4276 18.392 40.4196 18.48 40.4116 18.568C40.4116 18.664 40.4036 18.756 40.3876 18.844C40.3796 18.86 40.3676 18.876 40.3516 18.892C40.3356 18.908 40.3276 18.912 40.3276 18.904C40.3116 18.792 40.3036 18.684 40.3036 18.58C40.3036 18.476 40.2956 18.372 40.2796 18.268C40.2636 18.252 40.2476 18.236 40.2316 18.22C40.2236 18.204 40.2116 18.192 40.1956 18.184L40.0876 18.064C40.0796 18.048 40.0676 18.032 40.0516 18.016C40.0436 18 40.0316 17.984 40.0156 17.968C39.9836 17.92 39.9476 17.872 39.9076 17.824C39.8756 17.776 39.8476 17.728 39.8236 17.68C39.7356 17.528 39.6596 17.372 39.5956 17.212C39.5316 17.06 39.4636 16.908 39.3916 16.756C39.3596 16.692 39.3276 16.624 39.2956 16.552C39.2636 16.488 39.2276 16.424 39.1876 16.36C39.1796 16.352 39.1716 16.344 39.1636 16.336C39.1636 16.328 39.1596 16.32 39.1516 16.312C39.1356 16.28 39.1156 16.252 39.0916 16.228C39.0596 16.196 39.0356 16.176 39.0196 16.168C39.0196 16.168 39.0156 16.164 39.0076 16.156C39.0076 16.156 39.0076 16.152 39.0076 16.144C38.9996 16.144 38.9956 16.14 38.9956 16.132C38.9956 16.132 38.9916 16.132 38.9836 16.132C38.9596 16.172 38.9436 16.216 38.9356 16.264C38.9356 16.312 38.9236 16.356 38.8996 16.396C38.8996 16.428 38.8876 16.444 38.8636 16.444C38.8316 16.452 38.8076 16.424 38.7916 16.36C38.7836 16.304 38.7796 16.284 38.7796 16.3C38.7476 16.468 38.7356 16.504 38.7436 16.408C38.7596 16.312 38.7516 16.176 38.7196 16C38.7116 15.992 38.7036 15.988 38.6956 15.988C38.6876 15.988 38.6796 15.984 38.6716 15.976C38.6476 15.968 38.6156 15.944 38.5756 15.904C38.5596 15.888 38.5436 15.864 38.5276 15.832C38.5116 15.8 38.5076 15.752 38.5156 15.688C38.5236 15.64 38.5356 15.592 38.5516 15.544C38.5676 15.496 38.5836 15.452 38.5996 15.412C38.6156 15.356 38.6316 15.308 38.6476 15.268C38.6716 15.22 38.6876 15.192 38.6956 15.184L39.1036 14.02C39.1436 13.86 39.1796 13.708 39.2116 13.564C39.2516 13.412 39.2956 13.288 39.3436 13.192C39.3436 13.184 39.3436 13.176 39.3436 13.168C39.3516 13.16 39.3556 13.152 39.3556 13.144C39.3716 13.112 39.3836 13.08 39.3916 13.048C39.4076 13.016 39.4236 12.984 39.4396 12.952C39.4556 12.92 39.4716 12.892 39.4876 12.868C39.5036 12.836 39.5156 12.812 39.5236 12.796L40.1476 11.008C40.1876 10.864 40.2236 10.728 40.2556 10.6C40.2956 10.464 40.3316 10.356 40.3636 10.276C40.3876 10.196 40.4076 10.12 40.4236 10.048C40.4476 9.968 40.4716 9.896 40.4956 9.832C40.5196 9.744 40.5476 9.664 40.5796 9.592C40.6676 9.328 40.7476 9.16 40.8196 9.088L41.0356 8.464L41.2036 7.996C41.2276 7.908 41.2836 7.82 41.3716 7.732C41.4596 7.644 41.5916 7.6 41.7676 7.6H44.3476C44.4436 7.6 44.5236 7.616 44.5876 7.648C44.6116 7.656 44.6476 7.676 44.6956 7.708C44.7516 7.748 44.7956 7.796 44.8276 7.852C44.8596 7.908 44.8876 7.968 44.9116 8.032C44.9116 8.048 44.9196 8.072 44.9356 8.104L44.9716 8.224C44.9796 8.24 44.9836 8.26 44.9836 8.284C44.9916 8.308 44.9996 8.328 45.0076 8.344L45.1156 8.608C45.1156 8.616 45.1156 8.624 45.1156 8.632C45.1236 8.632 45.1276 8.636 45.1276 8.644C45.1436 8.676 45.1516 8.704 45.1516 8.728C45.1756 8.784 45.1956 8.844 45.2116 8.908C45.2356 8.972 45.2556 9.036 45.2716 9.1C45.2796 9.116 45.2876 9.136 45.2956 9.16C45.3036 9.184 45.3116 9.204 45.3196 9.22L45.3436 9.304C45.3916 9.352 45.4436 9.448 45.4996 9.592C45.5636 9.728 45.6276 9.896 45.6916 10.096L45.7276 10.216C45.7836 10.344 45.8316 10.476 45.8716 10.612C45.9196 10.748 45.9596 10.884 45.9916 11.02C46.0316 11.1 46.0716 11.212 46.1116 11.356C46.1516 11.5 46.1876 11.652 46.2196 11.812L46.8076 13.48C46.8556 13.56 46.9036 13.68 46.9516 13.84C47.0076 13.992 47.0636 14.164 47.1196 14.356C47.1356 14.396 47.1476 14.436 47.1556 14.476C47.1716 14.516 47.1836 14.556 47.1916 14.596L47.4556 15.352C47.4796 15.392 47.4956 15.436 47.5036 15.484ZM43.0276 10.384C43.0276 10.392 43.0236 10.404 43.0156 10.42C43.0076 10.436 43.0036 10.452 43.0036 10.468C42.9876 10.524 42.9676 10.58 42.9436 10.636C42.9276 10.692 42.9116 10.752 42.8956 10.816L42.6196 11.752C42.6116 11.784 42.6036 11.816 42.5956 11.848C42.5876 11.872 42.5756 11.904 42.5596 11.944C42.5516 11.992 42.5396 12.044 42.5236 12.1C42.5076 12.148 42.4916 12.2 42.4756 12.256C42.4676 12.288 42.4596 12.32 42.4516 12.352C42.4436 12.384 42.4316 12.416 42.4156 12.448C42.4076 12.456 42.4036 12.468 42.4036 12.484C42.4036 12.492 42.3996 12.504 42.3916 12.52C42.3916 12.52 42.3916 12.524 42.3916 12.532C42.3916 12.532 42.3876 12.532 42.3796 12.532C42.3796 12.54 42.3756 12.548 42.3676 12.556C42.3676 12.556 42.3676 12.56 42.3676 12.568H43.3996C43.4396 12.568 43.4796 12.568 43.5196 12.568C43.5596 12.56 43.5956 12.56 43.6276 12.568H43.7236L43.6876 12.436C43.6716 12.396 43.6596 12.36 43.6516 12.328C43.6436 12.288 43.6316 12.252 43.6156 12.22L43.5796 12.112C43.5476 12.024 43.5156 11.928 43.4836 11.824C43.4596 11.712 43.4316 11.604 43.3996 11.5C43.3916 11.492 43.3876 11.476 43.3876 11.452L43.1836 10.816L43.1116 10.564C43.1116 10.564 43.1036 10.548 43.0876 10.516C43.0796 10.476 43.0716 10.44 43.0636 10.408C43.0556 10.4 43.0516 10.396 43.0516 10.396C43.0516 10.388 43.0436 10.384 43.0276 10.384ZM55.1613 14.68C55.1053 14.76 55.0493 14.832 54.9933 14.896C54.9373 14.952 54.8893 15 54.8493 15.04L54.7653 15.124C54.7493 15.132 54.7293 15.144 54.7053 15.16C54.6893 15.176 54.6733 15.192 54.6573 15.208C54.6413 15.24 54.6253 15.272 54.6093 15.304C54.6013 15.328 54.5893 15.356 54.5733 15.388C54.5333 15.484 54.4813 15.568 54.4173 15.64C54.4093 15.648 54.4013 15.66 54.3933 15.676C54.3933 15.692 54.3893 15.696 54.3813 15.688C54.3733 15.68 54.3693 15.668 54.3693 15.652L54.2973 15.76C54.2893 15.776 54.2773 15.792 54.2613 15.808C54.2613 15.808 54.2573 15.812 54.2493 15.82C54.2493 15.82 54.2453 15.82 54.2373 15.82C54.2293 15.82 54.2253 15.824 54.2253 15.832C54.2253 15.832 54.2213 15.832 54.2133 15.832C54.2053 15.92 54.2013 16.056 54.2013 16.24C54.2013 16.424 54.1973 16.624 54.1893 16.84C54.1893 17.056 54.1853 17.256 54.1773 17.44C54.1773 17.624 54.1733 17.76 54.1653 17.848C54.1653 17.856 54.1573 17.864 54.1413 17.872C54.1253 17.88 54.1173 17.88 54.1173 17.872C54.1093 17.784 54.1013 17.644 54.0933 17.452C54.0933 17.26 54.0933 17.052 54.0933 16.828C54.0933 16.612 54.0893 16.408 54.0813 16.216C54.0813 16.032 54.0773 15.892 54.0693 15.796C54.0533 15.78 54.0373 15.768 54.0213 15.76C54.0213 15.76 54.0133 15.752 53.9973 15.736C53.9973 15.736 53.9933 15.736 53.9853 15.736C53.9853 15.728 53.9853 15.72 53.9853 15.712C53.9773 15.712 53.9733 15.712 53.9733 15.712C53.9733 15.704 53.9693 15.7 53.9613 15.7L53.9493 15.712C53.9413 15.736 53.9373 15.76 53.9373 15.784C53.9373 15.808 53.9293 15.84 53.9133 15.88C53.9053 15.912 53.8893 15.94 53.8653 15.964C53.8493 15.988 53.8293 16.016 53.8053 16.048C53.8053 16.056 53.7973 16.076 53.7813 16.108C53.7653 16.124 53.7533 16.132 53.7453 16.132C53.7373 16.132 53.7333 16.132 53.7333 16.132C53.7333 16.14 53.7333 16.144 53.7333 16.144C53.6613 16.272 53.6013 16.416 53.5533 16.576L53.4693 16.852C53.4613 16.876 53.4493 16.908 53.4333 16.948C53.4253 16.996 53.4213 17.008 53.4213 16.984C53.4053 16.856 53.3973 16.728 53.3973 16.6C53.4053 16.472 53.4013 16.344 53.3853 16.216C53.3853 16.224 53.3813 16.228 53.3733 16.228C53.3733 16.228 53.3733 16.232 53.3733 16.24C53.3573 16.296 53.3373 16.348 53.3133 16.396C53.2893 16.452 53.2653 16.508 53.2413 16.564C53.2013 16.652 53.1533 16.74 53.0973 16.828C53.0413 16.916 52.9773 16.996 52.9053 17.068C52.8973 17.076 52.8813 17.088 52.8573 17.104C52.8413 17.128 52.8213 17.148 52.7973 17.164C52.7653 17.196 52.7333 17.228 52.7013 17.26C52.6773 17.3 52.6333 17.312 52.5693 17.296C52.5213 17.272 52.4773 17.24 52.4373 17.2C52.4053 17.176 52.3693 17.144 52.3293 17.104C52.2973 17.064 52.2653 17.028 52.2333 16.996C52.1693 16.916 52.1093 16.828 52.0533 16.732C52.0053 16.644 51.9533 16.552 51.8973 16.456C51.8813 16.424 51.8613 16.384 51.8373 16.336C51.8133 16.296 51.7893 16.26 51.7653 16.228L51.7293 16.192C51.7293 16.184 51.7213 16.18 51.7053 16.18C51.7053 16.18 51.6893 16.168 51.6573 16.144C51.6413 16.152 51.6333 16.168 51.6333 16.192C51.6333 16.224 51.6253 16.248 51.6093 16.264C51.5933 16.296 51.5813 16.312 51.5733 16.312C51.5653 16.304 51.5573 16.292 51.5493 16.276C51.5493 16.26 51.5453 16.248 51.5373 16.24L51.5013 16.12H51.4893C50.6253 16.104 49.9093 15.972 49.3413 15.724C48.7813 15.468 48.3613 15.152 48.0813 14.776C48.0253 14.704 47.9773 14.632 47.9373 14.56C47.8973 14.496 47.8653 14.432 47.8413 14.368L47.7933 14.248C47.7693 14.184 47.7493 14.12 47.7333 14.056C47.7173 13.984 47.7013 13.916 47.6853 13.852C47.6773 13.788 47.6653 13.724 47.6493 13.66C47.6413 13.588 47.6533 13.52 47.6853 13.456C47.6853 13.448 47.6853 13.444 47.6853 13.444C47.6933 13.436 47.6973 13.432 47.6973 13.432C47.7133 13.4 47.7453 13.368 47.7933 13.336C47.8253 13.32 47.8573 13.312 47.8893 13.312C47.9213 13.304 47.9493 13.3 47.9733 13.3C48.0853 13.292 48.1973 13.292 48.3093 13.3C48.4213 13.3 48.5293 13.3 48.6333 13.3H49.7733C49.8133 13.3 49.8653 13.3 49.9293 13.3C50.0013 13.292 50.0653 13.288 50.1213 13.288C50.1693 13.288 50.2133 13.292 50.2533 13.3C50.3013 13.3 50.3413 13.304 50.3733 13.312C50.4373 13.32 50.4893 13.34 50.5293 13.372C50.5773 13.396 50.6253 13.428 50.6733 13.468L50.8533 13.588C50.9093 13.62 50.9653 13.648 51.0213 13.672C51.0773 13.696 51.1333 13.716 51.1893 13.732C51.2933 13.764 51.4333 13.78 51.6093 13.78C51.7053 13.78 51.7973 13.776 51.8853 13.768C51.9733 13.76 52.0533 13.748 52.1253 13.732L52.2453 13.696C52.2613 13.688 52.2733 13.684 52.2813 13.684C52.2973 13.684 52.3093 13.68 52.3173 13.672C52.4453 13.608 52.5093 13.532 52.5093 13.444V13.432C52.5093 13.384 52.4893 13.332 52.4493 13.276L52.3773 13.204H52.3653C52.3333 13.188 52.2893 13.188 52.2333 13.204C52.1773 13.212 52.1293 13.22 52.0893 13.228C52.0573 13.228 52.0213 13.232 51.9813 13.24C51.9493 13.24 51.9133 13.24 51.8733 13.24C51.8573 13.24 51.8413 13.236 51.8253 13.228C51.8093 13.22 51.7933 13.216 51.7773 13.216C51.7533 13.224 51.7293 13.232 51.7053 13.24C51.6893 13.248 51.6733 13.256 51.6573 13.264C51.6173 13.28 51.5733 13.296 51.5253 13.312C51.4773 13.328 51.4293 13.348 51.3813 13.372C51.3093 13.404 51.2333 13.432 51.1533 13.456C51.0813 13.472 51.0053 13.464 50.9253 13.432C50.8773 13.416 50.8333 13.396 50.7933 13.372C50.7533 13.348 50.7133 13.324 50.6733 13.3C50.5933 13.26 50.5173 13.216 50.4453 13.168C50.3813 13.12 50.3173 13.068 50.2533 13.012L49.9773 12.736L49.8813 12.664H49.7973C49.7893 12.672 49.7773 12.684 49.7613 12.7C49.7533 12.708 49.7413 12.72 49.7253 12.736C49.6933 12.768 49.6573 12.804 49.6173 12.844C49.5773 12.884 49.5373 12.92 49.4973 12.952C49.4813 12.96 49.4573 12.972 49.4253 12.988C49.4013 13.004 49.3773 13.008 49.3533 13C49.3213 12.984 49.2933 12.96 49.2693 12.928C49.2453 12.896 49.2253 12.864 49.2093 12.832C49.1853 12.768 49.1653 12.7 49.1493 12.628C49.1413 12.556 49.1213 12.492 49.0893 12.436C49.0573 12.412 49.0213 12.384 48.9813 12.352C48.9493 12.32 48.9173 12.288 48.8853 12.256C48.8773 12.248 48.8693 12.24 48.8613 12.232C48.8613 12.224 48.8533 12.216 48.8373 12.208C48.7813 12.152 48.7493 12.124 48.7413 12.124C48.7413 12.124 48.7253 12.116 48.6933 12.1C48.6773 12.084 48.6693 12.068 48.6693 12.052C48.5973 11.988 48.5293 11.92 48.4653 11.848C48.4413 11.816 48.4133 11.788 48.3813 11.764C48.3573 11.732 48.3373 11.7 48.3213 11.668C48.2893 11.636 48.2613 11.6 48.2373 11.56C48.2133 11.52 48.1893 11.484 48.1653 11.452C48.1493 11.42 48.1333 11.392 48.1173 11.368C48.1013 11.336 48.0853 11.304 48.0693 11.272C47.9973 11.152 47.9413 10.984 47.9013 10.768C47.8693 10.552 47.8573 10.34 47.8653 10.132C47.8733 9.916 47.8973 9.748 47.9373 9.628C47.9533 9.58 47.9693 9.532 47.9853 9.484C48.0013 9.436 48.0173 9.388 48.0333 9.34C48.0493 9.292 48.0653 9.256 48.0813 9.232C48.0973 9.184 48.1133 9.148 48.1293 9.124C48.3853 8.628 48.7973 8.236 49.3653 7.948C49.9333 7.652 50.6213 7.496 51.4293 7.48H51.5253C52.1893 7.48 52.7653 7.576 53.2533 7.768C53.7493 7.952 54.1573 8.192 54.4773 8.488C54.7973 8.776 55.0253 9.076 55.1613 9.388C55.1773 9.436 55.1933 9.484 55.2093 9.532C55.2333 9.58 55.2493 9.628 55.2573 9.676C55.2733 9.724 55.2853 9.776 55.2933 9.832C55.3093 9.888 55.3093 9.944 55.2933 10C55.2773 10.072 55.2453 10.128 55.1973 10.168C55.1653 10.2 55.1373 10.22 55.1133 10.228C55.1133 10.228 55.1053 10.236 55.0893 10.252C55.0813 10.252 55.0733 10.248 55.0653 10.24C55.0573 10.248 55.0493 10.252 55.0413 10.252C55.0333 10.244 55.0213 10.244 55.0053 10.252C54.9893 10.252 54.9693 10.26 54.9453 10.276C54.9293 10.284 54.9133 10.292 54.8973 10.3C54.8413 10.324 54.7853 10.352 54.7293 10.384C54.6813 10.416 54.6253 10.436 54.5613 10.444C54.4973 10.444 54.4333 10.436 54.3693 10.42C54.3053 10.396 54.2413 10.384 54.1773 10.384C54.1293 10.384 54.0813 10.396 54.0333 10.42C53.9853 10.436 53.9373 10.44 53.8893 10.432C53.8573 10.424 53.8253 10.412 53.7933 10.396C53.7613 10.372 53.7293 10.352 53.6973 10.336C53.6733 10.328 53.6493 10.32 53.6253 10.312C53.6013 10.304 53.5773 10.3 53.5533 10.3L53.4573 10.324C53.3773 10.34 53.2973 10.356 53.2173 10.372C53.1373 10.388 53.0533 10.4 52.9653 10.408C52.9333 10.416 52.9013 10.428 52.8693 10.444C52.8453 10.46 52.8173 10.472 52.7853 10.48C52.7373 10.496 52.6853 10.508 52.6293 10.516C52.5813 10.524 52.5293 10.52 52.4733 10.504C52.4013 10.472 52.3413 10.424 52.2933 10.36C52.2533 10.288 52.2093 10.224 52.1613 10.168C52.1453 10.144 52.1253 10.12 52.1013 10.096C52.0773 10.072 52.0533 10.048 52.0293 10.024C52.0213 10.032 52.0093 10.036 51.9933 10.036C51.8573 10.076 51.7333 10.06 51.6213 9.988C51.5973 9.972 51.5733 9.956 51.5493 9.94C51.5253 9.916 51.4973 9.9 51.4653 9.892C51.4653 9.884 51.4493 9.872 51.4173 9.856C51.3853 9.864 51.3533 9.876 51.3213 9.892C51.2893 9.9 51.2573 9.912 51.2253 9.928C51.2173 9.928 51.2053 9.932 51.1893 9.94C51.1813 9.94 51.1693 9.94 51.1533 9.94H51.0813C51.0493 9.94 51.0293 9.944 51.0213 9.952C51.0213 9.96 51.0133 9.972 50.9973 9.988C50.9973 9.996 50.9933 10 50.9853 10C50.9853 10 50.9853 10.004 50.9853 10.012C50.9693 10.044 50.9613 10.068 50.9613 10.084C50.9533 10.1 50.9493 10.124 50.9493 10.156C50.9493 10.268 51.0133 10.352 51.1413 10.408C51.1573 10.424 51.1893 10.44 51.2373 10.456C51.3093 10.488 51.3853 10.512 51.4653 10.528C51.6173 10.568 51.7893 10.604 51.9813 10.636L52.2813 10.672C52.2973 10.672 52.3133 10.676 52.3293 10.684C52.3533 10.684 52.3693 10.684 52.3773 10.684L52.6053 10.72H52.6773C52.6853 10.728 52.6933 10.732 52.7013 10.732C52.7253 10.732 52.7493 10.736 52.7733 10.744C52.8053 10.744 52.8373 10.748 52.8693 10.756C54.1173 10.98 54.9253 11.404 55.2933 12.028C55.3013 12.028 55.3053 12.032 55.3053 12.04C55.3533 12.096 55.3893 12.172 55.4133 12.268C55.4213 12.284 55.4293 12.304 55.4373 12.328C55.4453 12.344 55.4533 12.36 55.4613 12.376L55.5333 12.592C55.5333 12.6 55.5333 12.612 55.5333 12.628C55.5413 12.636 55.5453 12.644 55.5453 12.652C55.5693 12.724 55.5813 12.796 55.5813 12.868C55.5893 12.916 55.5933 12.964 55.5933 13.012C55.5933 13.052 55.5933 13.092 55.5933 13.132V13.288C55.5933 13.576 55.5453 13.852 55.4493 14.116C55.3933 14.316 55.3253 14.468 55.2453 14.572L55.1613 14.68ZM63.7565 14.764L63.6845 14.836C63.6685 14.86 63.6485 14.884 63.6245 14.908C63.6085 14.932 63.5885 14.952 63.5645 14.968C63.5565 14.984 63.5365 15.008 63.5045 15.04C63.4885 15.056 63.4765 15.064 63.4685 15.064L63.3605 15.172C63.3285 15.204 63.3085 15.228 63.3005 15.244C63.2845 15.308 63.2685 15.376 63.2525 15.448C63.2365 15.52 63.2205 15.588 63.2045 15.652C63.1885 15.716 63.1725 15.78 63.1565 15.844C63.1405 15.908 63.1245 15.972 63.1085 16.036L62.9645 16.552C62.9565 16.584 62.9445 16.62 62.9285 16.66C62.9205 16.7 62.9085 16.74 62.8925 16.78C62.8685 16.86 62.8325 16.936 62.7845 17.008L62.7485 17.044C62.7405 17.052 62.7325 17.06 62.7245 17.068C62.7165 17.076 62.7085 17.084 62.7005 17.092C62.6925 17.116 62.6845 17.14 62.6765 17.164C62.6685 17.196 62.6565 17.224 62.6405 17.248C62.6245 17.264 62.6045 17.264 62.5805 17.248C62.5245 17.208 62.5005 17.18 62.5085 17.164C62.5165 17.148 62.5285 17.14 62.5445 17.14C62.5605 17.148 62.5525 17.16 62.5205 17.176L62.4725 17.2C62.4645 17.208 62.4565 17.216 62.4485 17.224C62.4485 17.232 62.4485 17.236 62.4485 17.236C62.4245 17.268 62.4005 17.3 62.3765 17.332C62.3605 17.372 62.3405 17.408 62.3165 17.44C62.3085 17.448 62.2965 17.46 62.2805 17.476C62.2645 17.492 62.2445 17.5 62.2205 17.5C62.1965 17.5 62.1765 17.488 62.1605 17.464L62.1365 17.44C62.1205 17.408 62.1045 17.376 62.0885 17.344C62.0805 17.312 62.0685 17.28 62.0525 17.248C62.0525 17.24 62.0485 17.232 62.0405 17.224C62.0405 17.224 62.0405 17.22 62.0405 17.212C61.9845 17.06 61.9245 16.908 61.8605 16.756C61.8045 16.612 61.7405 16.468 61.6685 16.324C61.6525 16.292 61.6405 16.272 61.6325 16.264C61.6245 16.264 61.6165 16.26 61.6085 16.252C61.6005 16.252 61.5885 16.252 61.5725 16.252C61.5405 16.252 61.5245 16.252 61.5245 16.252C61.5165 16.356 61.5285 16.484 61.5605 16.636C61.6005 16.788 61.6205 16.92 61.6205 17.032C61.6285 17.144 61.5805 17.196 61.4765 17.188C61.3805 17.18 61.3325 17.12 61.3325 17.008C61.3325 16.904 61.3485 16.78 61.3805 16.636C61.4205 16.5 61.4365 16.38 61.4285 16.276C61.4205 16.324 61.4045 16.368 61.3805 16.408C61.3565 16.448 61.3365 16.488 61.3205 16.528L61.2365 16.672C61.2285 16.68 61.2165 16.688 61.2005 16.696C61.1925 16.712 61.1805 16.728 61.1645 16.744L61.1525 16.756C61.1205 16.772 61.1045 16.78 61.1045 16.78C61.0965 16.86 61.0925 16.944 61.0925 17.032C61.1005 17.12 61.1045 17.208 61.1045 17.296C61.0885 17.168 61.0525 17.1 60.9965 17.092C60.9485 17.076 60.9165 17.1 60.9005 17.164C60.9005 17.084 60.9005 17.004 60.9005 16.924C60.9085 16.852 60.9085 16.78 60.9005 16.708C60.8925 16.708 60.8805 16.704 60.8645 16.696C60.8565 16.688 60.8565 16.684 60.8645 16.684L60.8165 16.636L60.6725 16.48C60.6245 16.44 60.5765 16.4 60.5285 16.36C60.4885 16.32 60.4365 16.272 60.3725 16.216C60.3085 16.168 60.2805 16.144 60.2885 16.144C60.3045 16.152 60.3165 16.156 60.3245 16.156C60.3325 16.164 60.3005 16.152 60.2285 16.12C60.2125 16.136 60.2045 16.164 60.2045 16.204C60.2125 16.244 60.2165 16.264 60.2165 16.264C60.2165 16.264 60.2005 16.216 60.1685 16.12C59.3925 16.104 58.7045 15.976 58.1045 15.736C57.5125 15.488 57.0525 15.1 56.7245 14.572C56.5885 14.348 56.4845 14.112 56.4125 13.864C56.3885 13.816 56.3645 13.756 56.3405 13.684C56.3405 13.668 56.3365 13.656 56.3285 13.648C56.3285 13.64 56.3285 13.632 56.3285 13.624C56.2965 13.504 56.2725 13.348 56.2565 13.156C56.2405 12.956 56.2325 12.76 56.2325 12.568C56.2325 12.368 56.2325 12.208 56.2325 12.088C56.2325 11.976 56.2285 11.824 56.2205 11.632C56.2205 11.432 56.2245 11.228 56.2325 11.02C56.2405 10.812 56.2525 10.636 56.2685 10.492C56.2765 10.452 56.2805 10.42 56.2805 10.396C56.2805 10.364 56.2845 10.332 56.2925 10.3C56.2925 10.292 56.2925 10.288 56.2925 10.288C56.3005 10.28 56.3045 10.272 56.3045 10.264C56.3445 10.008 56.4045 9.772 56.4845 9.556C56.5725 9.332 56.6805 9.128 56.8085 8.944C56.8565 8.856 56.9285 8.764 57.0245 8.668C57.3845 8.268 57.8445 7.972 58.4045 7.78C58.9645 7.58 59.5885 7.48 60.2765 7.48H60.5645C60.5885 7.48 60.6085 7.484 60.6245 7.492C61.2805 7.524 61.8965 7.66 62.4725 7.9C63.0485 8.132 63.5045 8.484 63.8405 8.956C63.9045 9.028 63.9565 9.108 63.9965 9.196C64.0445 9.284 64.0845 9.376 64.1165 9.472C64.1725 9.6 64.2165 9.736 64.2485 9.88C64.2805 10.024 64.3005 10.168 64.3085 10.312C64.3085 10.32 64.3085 10.34 64.3085 10.372C64.3165 10.396 64.3205 10.408 64.3205 10.408V10.42C64.3205 10.452 64.3205 10.484 64.3205 10.516C64.3285 10.54 64.3285 10.568 64.3205 10.6C64.3125 10.608 64.3085 10.62 64.3085 10.636C64.3085 10.644 64.3045 10.656 64.2965 10.672C64.2805 10.688 64.2685 10.704 64.2605 10.72L64.2485 10.732C64.2325 10.756 64.2085 10.784 64.1765 10.816C64.1525 10.84 64.1365 10.86 64.1285 10.876C64.1285 10.892 64.1205 10.9 64.1045 10.9C64.0965 10.9 64.0885 10.892 64.0805 10.876C64.0805 10.86 64.0725 10.848 64.0565 10.84C64.0645 10.832 64.0605 10.836 64.0445 10.852C64.0285 10.86 64.0165 10.864 64.0085 10.864C63.9445 10.88 63.8965 10.904 63.8645 10.936C63.8165 10.968 63.7765 11.008 63.7445 11.056C63.7125 11.104 63.6765 11.148 63.6365 11.188C63.6205 11.204 63.6005 11.224 63.5765 11.248C63.5605 11.272 63.5405 11.292 63.5165 11.308C63.4685 11.316 63.4445 11.296 63.4445 11.248C63.4445 11.2 63.4245 11.188 63.3845 11.212C63.3765 11.212 63.3565 11.224 63.3245 11.248C63.3005 11.272 63.2885 11.284 63.2885 11.284C63.2405 11.324 63.1885 11.368 63.1325 11.416C63.0765 11.456 63.0125 11.48 62.9405 11.488C62.9005 11.488 62.8605 11.48 62.8205 11.464C62.7885 11.448 62.7525 11.436 62.7125 11.428C62.6485 11.396 62.5845 11.364 62.5205 11.332C62.4565 11.3 62.3925 11.276 62.3285 11.26C62.2565 11.236 62.1805 11.22 62.1005 11.212C62.0285 11.196 61.9605 11.168 61.8965 11.128C61.8485 11.096 61.8005 11.064 61.7525 11.032C61.7045 10.992 61.6565 10.956 61.6085 10.924C61.6005 10.916 61.5925 10.912 61.5845 10.912C61.5765 10.904 61.5645 10.896 61.5485 10.888C61.5245 10.864 61.5085 10.852 61.5005 10.852C61.5005 10.852 61.4965 10.86 61.4885 10.876C61.4885 10.884 61.4885 10.896 61.4885 10.912C61.4805 10.92 61.4765 10.932 61.4765 10.948C61.4765 10.956 61.4685 10.964 61.4525 10.972C61.4365 10.988 61.4285 10.98 61.4285 10.948C61.4205 10.94 61.4165 10.932 61.4165 10.924C61.4165 10.916 61.4125 10.908 61.4045 10.9C61.3805 10.876 61.3685 10.852 61.3685 10.828C61.3525 10.804 61.3365 10.776 61.3205 10.744C61.2805 10.704 61.2485 10.66 61.2245 10.612C61.1765 10.516 61.1365 10.424 61.1045 10.336C61.0725 10.24 61.0165 10.152 60.9365 10.072C60.9285 10.056 60.9205 10.044 60.9125 10.036C60.9045 10.028 60.8965 10.02 60.8885 10.012C60.8805 10.012 60.8725 10.012 60.8645 10.012C60.8645 10.004 60.8645 10 60.8645 10C60.8485 9.984 60.8365 9.976 60.8285 9.976C60.8285 9.976 60.8165 9.976 60.7925 9.976C60.7605 9.976 60.7365 9.972 60.7205 9.964C60.6965 9.964 60.6765 9.968 60.6605 9.976C60.6525 9.976 60.6445 9.984 60.6365 10C60.6285 10.008 60.6165 10.008 60.6005 10C60.5925 10 60.5885 9.992 60.5885 9.976C60.5325 10.008 60.4885 10.056 60.4565 10.12C60.4245 10.184 60.3925 10.24 60.3605 10.288C60.3445 10.32 60.3245 10.36 60.3005 10.408C60.2765 10.448 60.2445 10.476 60.2045 10.492C60.1965 10.5 60.1845 10.508 60.1685 10.516C60.1605 10.524 60.1565 10.524 60.1565 10.516C60.1405 10.428 60.1325 10.344 60.1325 10.264C60.1405 10.176 60.1365 10.092 60.1205 10.012C60.0965 10.044 60.0725 10.076 60.0485 10.108C60.0325 10.14 60.0125 10.172 59.9885 10.204C59.9805 10.212 59.9605 10.228 59.9285 10.252C59.9045 10.276 59.8845 10.284 59.8685 10.276C59.8525 10.276 59.8365 10.268 59.8205 10.252C59.7885 10.236 59.7645 10.212 59.7485 10.18C59.7325 10.14 59.7165 10.108 59.7005 10.084C59.6925 10.068 59.6885 10.052 59.6885 10.036C59.6885 10.02 59.6805 10.008 59.6645 10L59.6285 10.036C59.6045 10.06 59.5765 10.096 59.5445 10.144C59.5445 10.152 59.5405 10.156 59.5325 10.156C59.5325 10.156 59.5325 10.16 59.5325 10.168C59.5325 10.176 59.5285 10.18 59.5205 10.18C59.5205 10.18 59.5205 10.184 59.5205 10.192C59.4885 10.24 59.4605 10.304 59.4365 10.384C59.4045 10.488 59.3845 10.588 59.3765 10.684V10.9C59.3685 11.012 59.3645 11.128 59.3645 11.248C59.3645 11.36 59.3645 11.472 59.3645 11.584V12.34C59.3645 12.42 59.3645 12.5 59.3645 12.58C59.3725 12.652 59.3765 12.728 59.3765 12.808C59.3765 12.84 59.3765 12.876 59.3765 12.916C59.3845 12.948 59.3885 12.984 59.3885 13.024C59.3965 13.032 59.4005 13.044 59.4005 13.06C59.4005 13.076 59.4045 13.092 59.4125 13.108C59.4125 13.132 59.4165 13.148 59.4245 13.156C59.4325 13.188 59.4405 13.22 59.4485 13.252C59.4645 13.276 59.4765 13.304 59.4845 13.336C59.5565 13.44 59.6685 13.524 59.8205 13.588C59.9805 13.644 60.1485 13.676 60.3245 13.684C60.5085 13.692 60.6685 13.664 60.8045 13.6C60.8445 13.576 60.8845 13.548 60.9245 13.516C60.9645 13.484 61.0005 13.448 61.0325 13.408C61.0645 13.368 61.0925 13.316 61.1165 13.252C61.1325 13.212 61.1445 13.176 61.1525 13.144C61.1685 13.112 61.1805 13.08 61.1885 13.048C61.2045 13.008 61.2205 12.972 61.2365 12.94C61.2605 12.908 61.2965 12.872 61.3445 12.832C61.3605 12.824 61.3725 12.82 61.3805 12.82C61.3885 12.82 61.3965 12.816 61.4045 12.808C61.4445 12.792 61.4845 12.784 61.5245 12.784C61.5725 12.776 61.6205 12.772 61.6685 12.772C61.7165 12.772 61.7645 12.776 61.8125 12.784C61.8605 12.784 61.9045 12.784 61.9445 12.784H63.7085C63.7245 12.784 63.7725 12.784 63.8525 12.784C63.9325 12.776 64.0005 12.776 64.0565 12.784C64.1285 12.784 64.1885 12.808 64.2365 12.856C64.2845 12.904 64.3125 12.952 64.3205 13C64.3285 13.024 64.3325 13.052 64.3325 13.084C64.3325 13.108 64.3325 13.136 64.3325 13.168L64.2965 13.444C64.2405 13.836 64.1165 14.192 63.9245 14.512C63.8845 14.592 63.8285 14.676 63.7565 14.764ZM60.9125 17.668C60.9045 17.58 60.8965 17.488 60.8885 17.392C60.8805 17.296 60.8845 17.22 60.9005 17.164C60.9005 17.244 60.9005 17.324 60.9005 17.404C60.9005 17.492 60.9045 17.58 60.9125 17.668ZM61.0445 17.908C61.0285 17.964 61.0245 17.968 61.0325 17.92C61.0405 17.872 61.0525 17.8 61.0685 17.704C61.0925 17.608 61.1045 17.512 61.1045 17.416C61.1045 17.496 61.1005 17.576 61.0925 17.656C61.0845 17.744 61.0685 17.828 61.0445 17.908ZM60.9125 17.668C60.9205 17.708 60.9245 17.748 60.9245 17.788C60.9325 17.828 60.9405 17.86 60.9485 17.884C60.9245 17.812 60.9125 17.74 60.9125 17.668ZM73.0373 15.736C73.0373 15.76 73.0293 15.796 73.0133 15.844C73.0053 15.868 72.9893 15.892 72.9653 15.916C72.9493 15.932 72.9333 15.948 72.9173 15.964C72.9013 15.996 72.8853 16.028 72.8693 16.06C72.8533 16.1 72.8373 16.14 72.8213 16.18L72.6293 16.516C72.5973 16.572 72.5653 16.628 72.5333 16.684C72.5093 16.74 72.4773 16.792 72.4373 16.84C72.4293 16.856 72.4133 16.876 72.3893 16.9C72.3653 16.924 72.3533 16.936 72.3533 16.936C72.3373 16.808 72.3293 16.68 72.3293 16.552C72.3293 16.432 72.3213 16.312 72.3053 16.192C72.2973 16.184 72.2893 16.18 72.2813 16.18C72.2733 16.188 72.2653 16.192 72.2573 16.192C72.2653 16.192 72.2493 16.204 72.2093 16.228C72.1693 16.26 72.1413 16.28 72.1253 16.288C72.1173 16.296 72.1093 16.308 72.1013 16.324C72.0933 16.348 72.0813 16.36 72.0653 16.36C72.0573 16.368 72.0493 16.364 72.0413 16.348C72.0333 16.332 72.0253 16.32 72.0173 16.312C71.9933 16.272 71.9653 16.236 71.9333 16.204C71.9093 16.172 71.8893 16.14 71.8733 16.108C71.8573 16.164 71.8493 16.224 71.8493 16.288C71.8573 16.352 71.8493 16.416 71.8253 16.48C71.8173 16.496 71.8093 16.488 71.8013 16.456C71.7933 16.424 71.7853 16.4 71.7773 16.384L71.7533 16.144C71.7453 16.152 71.7373 16.16 71.7293 16.168C71.7293 16.176 71.7253 16.188 71.7173 16.204C71.7013 16.228 71.6773 16.256 71.6453 16.288C71.6533 16.288 71.6453 16.292 71.6213 16.3C71.5973 16.308 71.5853 16.312 71.5853 16.312C71.5773 16.392 71.5693 16.472 71.5613 16.552C71.5613 16.64 71.5533 16.728 71.5373 16.816C71.5373 16.84 71.5333 16.868 71.5253 16.9C71.5173 16.94 71.5053 16.956 71.4893 16.948C71.4653 16.924 71.4533 16.892 71.4533 16.852C71.4533 16.812 71.4493 16.776 71.4413 16.744C71.4333 16.696 71.4253 16.648 71.4173 16.6C71.4173 16.552 71.4093 16.504 71.3933 16.456C71.3933 16.408 71.3813 16.372 71.3573 16.348C71.3413 16.356 71.3213 16.372 71.2973 16.396C71.2813 16.42 71.2653 16.444 71.2493 16.468C71.2333 16.5 71.2133 16.528 71.1893 16.552C71.1733 16.584 71.1493 16.612 71.1173 16.636C71.1093 16.644 71.0973 16.648 71.0813 16.648C71.0813 16.656 71.0773 16.66 71.0693 16.66C71.0613 16.788 71.0533 16.916 71.0453 17.044C71.0453 17.172 71.0373 17.304 71.0213 17.44C71.0133 17.504 71.0133 17.576 71.0213 17.656C71.0373 17.736 71.0173 17.796 70.9613 17.836C70.9293 17.868 70.9133 17.836 70.9133 17.74C70.9213 17.652 70.9213 17.584 70.9133 17.536C70.9053 17.376 70.9013 17.22 70.9013 17.068C70.9013 16.916 70.8933 16.764 70.8773 16.612C70.8693 16.604 70.8573 16.592 70.8413 16.576C70.8333 16.56 70.8213 16.548 70.8053 16.54C70.7893 16.516 70.7653 16.488 70.7333 16.456C70.7093 16.432 70.6853 16.404 70.6613 16.372C70.6373 16.348 70.6093 16.324 70.5773 16.3C70.5533 16.268 70.5213 16.248 70.4813 16.24C70.5053 16.248 70.5053 16.248 70.4813 16.24C70.4573 16.232 70.4293 16.22 70.3973 16.204H70.3613C70.3453 16.308 70.3373 16.416 70.3373 16.528C70.3373 16.64 70.3293 16.752 70.3133 16.864C70.3053 16.888 70.2973 16.88 70.2893 16.84C70.2813 16.8 70.2693 16.772 70.2533 16.756C70.2453 16.692 70.2333 16.652 70.2173 16.636C70.2093 16.628 70.1973 16.616 70.1813 16.6C70.1733 16.608 70.1613 16.604 70.1453 16.588C70.0813 16.532 70.0573 16.456 70.0733 16.36C70.0973 16.264 70.1053 16.176 70.0973 16.096C70.0973 16.128 70.0933 16.156 70.0853 16.18C70.0853 16.212 70.0773 16.236 70.0613 16.252C70.0533 16.26 70.0453 16.244 70.0373 16.204C70.0373 16.172 70.0333 16.144 70.0253 16.12C70.0093 16.088 70.0013 16.06 70.0013 16.036C69.9933 16.068 69.9853 16.08 69.9773 16.072C69.9453 16.016 69.9373 15.992 69.9533 16C69.9693 16.008 69.9813 16.008 69.9893 16C69.9973 15.992 69.9693 15.936 69.9053 15.832L69.8693 15.796C69.8613 15.78 69.8493 15.764 69.8333 15.748C69.8173 15.724 69.8013 15.7 69.7853 15.676C69.7853 15.66 69.7773 15.644 69.7613 15.628C69.7453 15.596 69.7293 15.564 69.7133 15.532C69.7053 15.5 69.6933 15.468 69.6773 15.436C69.6533 15.372 69.6253 15.312 69.5933 15.256C69.5693 15.192 69.5453 15.132 69.5213 15.076C69.4813 14.996 69.4413 14.912 69.4013 14.824C69.3613 14.728 69.3213 14.632 69.2813 14.536C69.2653 14.488 69.2493 14.456 69.2333 14.44C69.2013 14.344 69.1613 14.252 69.1133 14.164C69.1053 14.148 69.0973 14.132 69.0893 14.116C69.0813 14.092 69.0733 14.072 69.0653 14.056L68.9813 13.876C68.9813 13.86 68.9773 13.848 68.9693 13.84C68.9693 13.84 68.9653 13.84 68.9573 13.84C68.9573 13.832 68.9573 13.824 68.9573 13.816C68.9493 13.8 68.9413 13.78 68.9333 13.756C68.9253 13.732 68.9133 13.712 68.8973 13.696C68.8893 13.672 68.8813 13.648 68.8733 13.624C68.8653 13.6 68.8533 13.576 68.8373 13.552L68.8013 13.468L68.7173 13.384C68.7173 13.4 68.7093 13.416 68.6933 13.432C68.6773 13.464 68.6693 13.488 68.6693 13.504L68.6333 13.6C68.6173 13.632 68.6013 13.656 68.5853 13.672C68.5613 13.704 68.5293 13.72 68.4893 13.72C68.4493 13.704 68.4173 13.668 68.3933 13.612C68.3693 13.556 68.3493 13.512 68.3333 13.48C68.3253 13.48 68.3213 13.48 68.3213 13.48C68.3213 13.472 68.3213 13.468 68.3213 13.468C68.2893 13.38 68.2733 13.356 68.2733 13.396C68.2813 13.436 68.2813 13.464 68.2733 13.48V15.244C68.2733 15.324 68.2773 15.412 68.2853 15.508C68.2933 15.604 68.2853 15.696 68.2613 15.784C68.2293 15.848 68.2133 15.876 68.2133 15.868L68.1893 15.892C68.1813 15.9 68.1733 15.908 68.1653 15.916C68.1653 15.924 68.1573 15.932 68.1413 15.94C68.1253 15.948 68.1053 15.964 68.0813 15.988C68.0653 16.012 68.0533 16.028 68.0453 16.036C68.0293 16.068 68.0133 16.088 67.9973 16.096C67.9733 16.144 67.9573 16.164 67.9493 16.156C67.9493 16.156 67.9453 16.156 67.9373 16.156C67.9373 16.156 67.9373 16.152 67.9373 16.144C67.9213 16.224 67.9093 16.304 67.9013 16.384C67.8933 16.472 67.8773 16.56 67.8533 16.648C67.8453 16.664 67.8373 16.684 67.8293 16.708C67.8293 16.732 67.8213 16.752 67.8053 16.768C67.7973 16.776 67.7853 16.776 67.7693 16.768C67.7613 16.76 67.7573 16.752 67.7573 16.744C67.7493 16.728 67.7413 16.708 67.7333 16.684C67.7253 16.66 67.7173 16.64 67.7093 16.624C67.7013 16.592 67.6933 16.56 67.6853 16.528C67.6773 16.504 67.6693 16.476 67.6613 16.444C67.6533 16.42 67.6453 16.392 67.6373 16.36C67.6373 16.336 67.6293 16.312 67.6133 16.288L67.5413 16.36C67.5333 16.368 67.5253 16.372 67.5173 16.372C67.4933 16.396 67.4733 16.412 67.4573 16.42C67.4493 16.596 67.4453 16.788 67.4453 16.996C67.4453 17.212 67.4373 17.412 67.4213 17.596C67.4213 17.644 67.4253 17.708 67.4333 17.788C67.4413 17.876 67.4413 17.944 67.4333 17.992C67.4333 18.048 67.4133 18.064 67.3733 18.04C67.3013 17.992 67.2773 17.916 67.3013 17.812C67.3253 17.708 67.3333 17.616 67.3253 17.536C67.3173 17.352 67.3093 17.164 67.3013 16.972C67.3013 16.788 67.2933 16.608 67.2773 16.432C67.2693 16.424 67.2573 16.412 67.2413 16.396C67.2333 16.388 67.2213 16.376 67.2053 16.36C67.1973 16.336 67.1853 16.312 67.1693 16.288C67.1613 16.272 67.1493 16.252 67.1333 16.228C67.1173 16.196 67.1093 16.18 67.1093 16.18C67.1093 16.18 67.1013 16.164 67.0853 16.132C67.0853 16.132 67.0773 16.116 67.0613 16.084C67.0453 16.116 67.0373 16.132 67.0373 16.132C67.0293 16.14 67.0053 16.148 66.9653 16.156C66.9333 16.164 66.9093 16.168 66.8933 16.168C66.8213 16.176 66.7613 16.156 66.7133 16.108C66.6733 16.068 66.6213 16.036 66.5573 16.012C66.5093 16.02 66.4653 16.036 66.4253 16.06C66.3933 16.092 66.3573 16.116 66.3173 16.132C66.2613 16.148 66.1933 16.144 66.1133 16.12L66.0293 16.084H66.0173C66.0013 16.092 65.9773 16.104 65.9453 16.12C65.9213 16.136 65.8973 16.148 65.8733 16.156C65.8173 16.172 65.7573 16.16 65.6933 16.12C65.6293 16.08 65.5613 16.036 65.4893 15.988C65.4573 15.972 65.4293 15.956 65.4053 15.94C65.3173 15.876 65.2733 15.788 65.2733 15.676V8.116C65.2733 8.052 65.2733 7.988 65.2733 7.924C65.2733 7.852 65.2933 7.788 65.3333 7.732C65.3653 7.684 65.4093 7.648 65.4653 7.624C65.5133 7.608 65.5533 7.6 65.5853 7.6C65.6253 7.592 65.6653 7.592 65.7053 7.6C65.7533 7.6 65.7973 7.6 65.8373 7.6H68.7893C68.9493 7.6 69.1093 7.6 69.2693 7.6C69.4293 7.592 69.5853 7.6 69.7373 7.624C70.1453 7.656 70.5173 7.732 70.8533 7.852C71.1973 7.964 71.4933 8.112 71.7413 8.296C71.7893 8.32 71.8333 8.352 71.8733 8.392C71.8733 8.392 71.8733 8.396 71.8733 8.404C71.8813 8.404 71.8853 8.408 71.8853 8.416C71.8933 8.416 71.9013 8.42 71.9093 8.428C72.2053 8.676 72.4293 8.976 72.5813 9.328C72.7413 9.68 72.8213 10.076 72.8213 10.516C72.8213 10.78 72.7893 11.032 72.7253 11.272C72.7093 11.424 72.6773 11.524 72.6293 11.572C72.6133 11.604 72.6053 11.624 72.6053 11.632C72.5653 11.728 72.5173 11.82 72.4613 11.908C72.4133 11.996 72.3573 12.084 72.2933 12.172C72.2853 12.18 72.2773 12.192 72.2693 12.208C72.2613 12.216 72.2533 12.224 72.2453 12.232C72.2373 12.24 72.2293 12.248 72.2213 12.256C72.2133 12.264 72.2053 12.276 72.1973 12.292L72.1013 12.4C72.0933 12.408 72.0813 12.416 72.0653 12.424C72.0573 12.432 72.0493 12.444 72.0413 12.46C72.0173 12.476 71.9933 12.496 71.9693 12.52C71.9533 12.544 71.9333 12.564 71.9093 12.58C71.9013 12.692 71.9173 12.86 71.9573 13.084C71.9973 13.308 72.0213 13.528 72.0293 13.744C72.0453 13.768 72.0613 13.792 72.0773 13.816C72.0933 13.84 72.1053 13.868 72.1133 13.9C72.1933 14.036 72.2733 14.204 72.3533 14.404L72.6413 14.932C72.6813 15.012 72.7213 15.088 72.7613 15.16C72.8093 15.232 72.8533 15.304 72.8933 15.376C72.9093 15.408 72.9253 15.436 72.9413 15.46C72.9573 15.484 72.9693 15.512 72.9773 15.544C72.9853 15.552 72.9933 15.568 73.0013 15.592C73.0093 15.608 73.0133 15.624 73.0133 15.64C73.0293 15.672 73.0373 15.704 73.0373 15.736ZM68.3693 11.104H69.1493C69.1893 11.104 69.2413 11.096 69.3053 11.08C69.3853 11.056 69.4493 11.008 69.4973 10.936C69.5533 10.864 69.5973 10.78 69.6293 10.684C69.6453 10.644 69.6573 10.604 69.6653 10.564C69.6733 10.516 69.6773 10.468 69.6773 10.42C69.6773 10.332 69.6613 10.244 69.6293 10.156C69.5973 10.068 69.5453 9.996 69.4733 9.94C69.4413 9.908 69.3973 9.892 69.3413 9.892C69.2853 9.884 69.2333 9.884 69.1853 9.892C69.0973 9.9 69.0053 9.912 68.9093 9.928C68.8213 9.936 68.7293 9.932 68.6333 9.916C68.5853 9.908 68.5373 9.9 68.4893 9.892C68.4493 9.876 68.4093 9.864 68.3693 9.856C68.3533 9.848 68.3413 9.844 68.3333 9.844C68.3333 9.836 68.3133 9.832 68.2733 9.832V10.852C68.2733 10.996 68.2813 11.064 68.2973 11.056C68.3133 11.048 68.3373 11.064 68.3693 11.104ZM71.7653 13.312C71.8053 13.008 71.8253 12.788 71.8253 12.652C71.8253 12.652 71.8173 12.66 71.8013 12.676C71.8013 12.684 71.7973 12.692 71.7893 12.7C71.7893 12.7 71.7893 12.704 71.7893 12.712C71.7893 12.72 71.7893 12.736 71.7893 12.76C71.7893 12.784 71.7813 12.82 71.7653 12.868C71.7493 12.9 71.7333 12.92 71.7173 12.928C71.6933 12.936 71.6773 12.92 71.6693 12.88C71.6613 12.84 71.6413 12.828 71.6093 12.844C71.6093 12.868 71.5933 12.884 71.5613 12.892C71.5533 12.9 71.5453 12.9 71.5373 12.892C71.5373 12.876 71.5333 12.868 71.5253 12.868L71.5613 12.94C71.5773 12.948 71.5893 12.964 71.5973 12.988C71.6053 13.004 71.6133 13.02 71.6213 13.036L71.7653 13.312ZM70.1813 16.312C70.1973 16.296 70.2093 16.276 70.2173 16.252C70.2333 16.228 70.2253 16.192 70.1933 16.144C70.1933 16.144 70.1893 16.144 70.1813 16.144C70.1813 16.144 70.1813 16.148 70.1813 16.156C70.1733 16.172 70.1693 16.192 70.1693 16.216C70.1773 16.248 70.1813 16.28 70.1813 16.312ZM77.0294 15.1C77.0294 15.204 77.0334 15.312 77.0414 15.424C77.0494 15.528 77.0454 15.632 77.0294 15.736C77.0294 15.744 77.0254 15.752 77.0174 15.76C77.0174 15.76 77.0174 15.768 77.0174 15.784C76.9934 15.848 76.9414 15.908 76.8614 15.964C76.8374 16.004 76.8174 16.044 76.8014 16.084C76.7854 16.132 76.7654 16.176 76.7414 16.216C76.7414 16.224 76.7334 16.244 76.7174 16.276C76.7014 16.316 76.6814 16.332 76.6574 16.324C76.6254 16.308 76.6054 16.276 76.5974 16.228C76.5894 16.18 76.5814 16.152 76.5734 16.144L76.5374 16.18C76.5214 16.196 76.5014 16.216 76.4774 16.24C76.4614 16.264 76.4454 16.284 76.4294 16.3L76.3214 16.456C76.3054 16.488 76.2854 16.524 76.2614 16.564C76.2374 16.604 76.2094 16.632 76.1774 16.648C76.1694 16.672 76.1614 16.696 76.1534 16.72C76.1534 16.744 76.1454 16.772 76.1294 16.804C76.1214 16.82 76.1134 16.84 76.1054 16.864C76.0974 16.888 76.0854 16.908 76.0694 16.924C76.0694 16.932 76.0614 16.936 76.0454 16.936C76.0374 16.944 76.0294 16.944 76.0214 16.936C76.0134 16.896 76.0054 16.852 75.9974 16.804C75.9974 16.756 75.9934 16.708 75.9854 16.66C75.9774 16.644 75.9694 16.628 75.9614 16.612C75.9614 16.596 75.9534 16.584 75.9374 16.576C75.9214 16.56 75.9054 16.544 75.8894 16.528C75.8734 16.512 75.8574 16.496 75.8414 16.48C75.8174 16.456 75.7974 16.44 75.7814 16.432C75.7414 16.432 75.7094 16.428 75.6854 16.42L75.6494 16.564C75.6414 16.572 75.6334 16.588 75.6254 16.612C75.6174 16.636 75.6094 16.644 75.6014 16.636C75.5854 16.604 75.5774 16.568 75.5774 16.528C75.5854 16.488 75.5814 16.452 75.5654 16.42C75.5574 16.42 75.5534 16.42 75.5534 16.42C75.5534 16.428 75.5494 16.432 75.5414 16.432C75.5414 16.44 75.5254 16.46 75.4934 16.492C75.4934 16.492 75.4894 16.492 75.4814 16.492C75.4814 16.492 75.4814 16.496 75.4814 16.504C75.4814 16.504 75.4774 16.508 75.4694 16.516C75.4694 16.524 75.4494 16.54 75.4094 16.564C75.4014 16.66 75.3934 16.756 75.3854 16.852C75.3854 16.948 75.3814 17.044 75.3734 17.14C75.3574 17.316 75.3374 17.544 75.3134 17.824C75.2974 18.112 75.2694 18.348 75.2294 18.532C75.2214 18.572 75.2134 18.608 75.2054 18.64C75.2054 18.68 75.1974 18.72 75.1814 18.76C75.1574 18.808 75.1414 18.828 75.1334 18.82C75.1094 18.804 75.0934 18.78 75.0854 18.748C75.0854 18.724 75.0814 18.704 75.0734 18.688C75.0654 18.624 75.0574 18.564 75.0494 18.508C75.0414 18.46 75.0334 18.408 75.0254 18.352C75.0174 18.232 75.0094 18.08 75.0014 17.896C75.0014 17.712 75.0014 17.528 75.0014 17.344C75.0014 17.16 74.9934 17.008 74.9774 16.888C74.9774 16.848 74.9734 16.864 74.9654 16.936C74.9654 17.016 74.9614 17.092 74.9534 17.164C74.9534 17.244 74.9454 17.268 74.9294 17.236C74.8974 17.1 74.8854 16.996 74.8934 16.924C74.9014 16.852 74.8854 16.724 74.8454 16.54C74.8294 16.524 74.8094 16.504 74.7854 16.48C74.7694 16.464 74.7534 16.444 74.7374 16.42L74.5694 16.24C74.5534 16.224 74.5334 16.208 74.5094 16.192C74.4934 16.176 74.4774 16.16 74.4614 16.144C74.4294 16.12 74.4014 16.108 74.3774 16.108C74.3534 16.108 74.3414 16.108 74.3414 16.108C74.3334 16.164 74.3374 16.232 74.3534 16.312C74.3694 16.4 74.3534 16.436 74.3054 16.42C74.2494 16.404 74.2334 16.356 74.2574 16.276C74.2814 16.196 74.2814 16.132 74.2574 16.084C74.2334 16.028 74.2214 16.008 74.2214 16.024C74.2214 16.04 74.2254 16.064 74.2334 16.096C74.2414 16.128 74.2454 16.14 74.2454 16.132C74.2454 16.132 74.2294 16.088 74.1974 16C74.1894 15.992 74.1774 15.988 74.1614 15.988C74.1534 15.988 74.1414 15.984 74.1254 15.976C73.9974 15.92 73.9334 15.816 73.9334 15.664C73.9254 15.584 73.9214 15.504 73.9214 15.424C73.9294 15.336 73.9334 15.256 73.9334 15.184V8.164C73.9334 8.124 73.9294 8.084 73.9214 8.044C73.9214 7.996 73.9254 7.952 73.9334 7.912C73.9334 7.88 73.9414 7.84 73.9574 7.792C73.9734 7.76 73.9854 7.74 73.9934 7.732C74.0094 7.708 74.0254 7.688 74.0414 7.672C74.0654 7.656 74.0854 7.644 74.1014 7.636C74.1174 7.628 74.1334 7.624 74.1494 7.624C74.1654 7.616 74.1814 7.612 74.1974 7.612C74.2294 7.596 74.2614 7.588 74.2934 7.588C74.3254 7.588 74.3574 7.588 74.3894 7.588C74.4374 7.588 74.4894 7.592 74.5454 7.6C74.6014 7.6 74.6494 7.6 74.6894 7.6H76.5614C76.6014 7.6 76.6414 7.6 76.6814 7.6C76.7294 7.592 76.7734 7.596 76.8134 7.612C76.8214 7.62 76.8294 7.624 76.8374 7.624C76.8454 7.624 76.8534 7.628 76.8614 7.636C76.9094 7.652 76.9494 7.692 76.9814 7.756C76.9974 7.78 77.0134 7.824 77.0294 7.888C77.0454 7.968 77.0494 8.052 77.0414 8.14C77.0334 8.22 77.0294 8.292 77.0294 8.356V15.1ZM85.9234 10.648C85.9234 10.792 85.9114 10.936 85.8874 11.08C85.8714 11.232 85.8474 11.372 85.8154 11.5C85.7834 11.628 85.7394 11.728 85.6834 11.8C85.6754 11.824 85.6634 11.848 85.6474 11.872C85.6394 11.896 85.6274 11.916 85.6114 11.932C85.5714 12.004 85.5274 12.076 85.4794 12.148C85.4394 12.22 85.3914 12.288 85.3354 12.352C85.3274 12.36 85.3154 12.372 85.2994 12.388C85.2914 12.396 85.2794 12.408 85.2634 12.424L85.1794 12.508C85.1474 12.532 85.1034 12.572 85.0474 12.628C85.0314 12.644 85.0194 12.66 85.0114 12.676C84.9954 12.708 84.9874 12.728 84.9874 12.736L84.9154 12.916C84.8834 12.996 84.8514 13.076 84.8194 13.156C84.7954 13.236 84.7634 13.316 84.7234 13.396L84.6874 13.48C84.6634 13.528 84.6394 13.564 84.6154 13.588C84.6074 13.612 84.5874 13.64 84.5554 13.672C84.5234 13.688 84.5034 13.696 84.4954 13.696C84.4874 13.752 84.4794 13.812 84.4714 13.876C84.4714 13.932 84.4634 13.992 84.4474 14.056C84.4394 14.072 84.4314 14.092 84.4234 14.116C84.4154 14.14 84.4034 14.152 84.3874 14.152C84.3714 14.16 84.3594 14.152 84.3514 14.128C84.3514 14.096 84.3474 14.076 84.3394 14.068C84.3234 14.02 84.3114 13.968 84.3034 13.912C84.3034 13.856 84.2874 13.812 84.2554 13.78L84.2194 13.816C84.2034 13.832 84.1794 13.864 84.1474 13.912C84.1154 13.96 84.0754 14.004 84.0274 14.044C84.0114 14.196 84.0154 14.352 84.0394 14.512C84.0634 14.664 84.0434 14.808 83.9794 14.944C83.9474 15.008 83.9274 14.996 83.9194 14.908C83.9194 14.812 83.9234 14.696 83.9314 14.56C83.9394 14.416 83.9394 14.308 83.9314 14.236C83.9234 14.124 83.9114 14.06 83.8954 14.044C83.8874 14.028 83.8674 13.992 83.8354 13.936C83.8034 13.896 83.7714 13.852 83.7394 13.804C83.7154 13.756 83.6834 13.716 83.6434 13.684C83.6354 13.716 83.6234 13.748 83.6074 13.78C83.5994 13.812 83.5954 13.848 83.5954 13.888C83.5874 13.976 83.5794 14.108 83.5714 14.284C83.5714 14.46 83.5714 14.648 83.5714 14.848C83.5714 15.04 83.5674 15.224 83.5594 15.4C83.5594 15.576 83.5554 15.708 83.5474 15.796C83.5474 15.796 83.5434 15.848 83.5354 15.952C83.5354 16.048 83.5274 16.164 83.5114 16.3C83.5034 16.436 83.4954 16.564 83.4874 16.684C83.4794 16.804 83.4674 16.888 83.4514 16.936C83.4514 16.944 83.4434 16.944 83.4274 16.936C83.4194 16.928 83.4154 16.92 83.4154 16.912C83.3994 16.848 83.3874 16.78 83.3794 16.708C83.3794 16.636 83.3754 16.564 83.3674 16.492C83.3594 16.364 83.3514 16.236 83.3434 16.108C83.3354 15.98 83.3274 15.852 83.3194 15.724C83.3114 15.564 83.3034 15.404 83.2954 15.244C83.2874 15.076 83.2794 14.912 83.2714 14.752C83.2634 14.576 83.2554 14.404 83.2474 14.236C83.2474 14.06 83.2394 13.884 83.2234 13.708C83.2314 13.716 83.2234 13.708 83.1994 13.684C83.1834 13.652 83.1674 13.632 83.1514 13.624C83.1354 13.592 83.1154 13.564 83.0914 13.54C83.0754 13.508 83.0554 13.476 83.0314 13.444L83.0074 13.42C83.0074 13.428 82.9994 13.448 82.9834 13.48C82.9674 13.52 82.9034 13.576 82.7914 13.648C82.7834 13.648 82.7754 13.656 82.7674 13.672C82.7594 13.68 82.7514 13.68 82.7434 13.672C82.7354 13.656 82.7274 13.636 82.7194 13.612C82.7194 13.588 82.7194 13.568 82.7194 13.552C82.7034 13.552 82.6954 13.56 82.6954 13.576C82.6874 13.632 82.6794 13.692 82.6714 13.756C82.6714 13.82 82.6634 13.884 82.6474 13.948C82.6394 13.996 82.6234 14.044 82.5994 14.092C82.5834 14.14 82.5674 14.192 82.5514 14.248L82.4074 14.776C82.3994 14.824 82.3834 14.876 82.3594 14.932C82.3434 14.988 82.3274 15.036 82.3114 15.076C82.3034 15.092 82.2914 15.116 82.2754 15.148C82.2594 15.18 82.2394 15.204 82.2154 15.22C82.1754 15.244 82.1394 15.224 82.1074 15.16C82.0754 15.096 82.0514 15.052 82.0354 15.028C82.0274 15.012 82.0154 14.996 81.9994 14.98C81.9914 14.964 81.9834 14.948 81.9754 14.932C81.9674 14.764 81.9594 14.596 81.9514 14.428C81.9514 14.26 81.9434 14.088 81.9274 13.912C81.9274 13.904 81.9234 13.9 81.9154 13.9C81.9074 13.9 81.8994 13.896 81.8914 13.888L81.8074 13.816C81.7594 13.776 81.7154 13.732 81.6754 13.684C81.6434 13.628 81.6074 13.572 81.5674 13.516C81.5434 13.484 81.5194 13.452 81.4954 13.42L81.4714 13.432V15.304C81.4794 15.376 81.4834 15.448 81.4834 15.52C81.4914 15.592 81.4874 15.664 81.4714 15.736V15.76C81.4634 15.768 81.4594 15.776 81.4594 15.784C81.4514 15.816 81.4354 15.844 81.4114 15.868C81.3794 15.908 81.3314 15.948 81.2674 15.988L81.1714 16.132C81.1634 16.14 81.1434 16.156 81.1114 16.18C81.0874 16.212 81.0714 16.228 81.0634 16.228C81.0554 16.332 81.0474 16.436 81.0394 16.54C81.0394 16.652 81.0314 16.76 81.0154 16.864C81.0074 16.936 81.0034 17.008 81.0034 17.08C81.0034 17.16 80.9954 17.236 80.9794 17.308C80.9714 17.332 80.9674 17.364 80.9674 17.404C80.9754 17.444 80.9634 17.46 80.9314 17.452C80.9074 17.452 80.8954 17.432 80.8954 17.392C80.9034 17.36 80.9034 17.328 80.8954 17.296C80.8714 17.152 80.8594 17.04 80.8594 16.96C80.8594 16.888 80.8554 16.812 80.8474 16.732C80.8474 16.66 80.8274 16.556 80.7874 16.42L80.6674 16.54H80.6554C80.6394 16.556 80.6274 16.564 80.6194 16.564C80.6114 16.58 80.6074 16.596 80.6074 16.612C80.6074 16.628 80.5994 16.64 80.5834 16.648C80.5754 16.648 80.5674 16.64 80.5594 16.624C80.5594 16.608 80.5514 16.596 80.5354 16.588C80.5194 16.604 80.5074 16.624 80.4994 16.648C80.4994 16.672 80.4914 16.692 80.4754 16.708C80.4674 16.716 80.4634 16.728 80.4634 16.744C80.4634 16.76 80.4554 16.772 80.4394 16.78C80.4074 16.78 80.3914 16.76 80.3914 16.72C80.3834 16.68 80.3754 16.64 80.3674 16.6C80.3674 16.568 80.3594 16.536 80.3434 16.504C80.3434 16.496 80.3394 16.492 80.3314 16.492C80.3314 16.492 80.3314 16.488 80.3314 16.48C80.2994 16.456 80.2714 16.428 80.2474 16.396C80.2234 16.364 80.1994 16.332 80.1754 16.3L80.0794 16.168L80.0554 16.144C80.0474 16.128 80.0394 16.116 80.0314 16.108C80.0234 16.1 80.0114 16.092 79.9954 16.084L79.9594 16.156C79.9194 16.22 79.8674 16.292 79.8034 16.372C79.7394 16.46 79.6634 16.512 79.5754 16.528C79.4794 16.552 79.4354 16.52 79.4434 16.432C79.4514 16.344 79.4514 16.256 79.4434 16.168L79.3714 16.24C79.3714 16.248 79.3594 16.26 79.3354 16.276C79.3274 16.284 79.3194 16.288 79.3114 16.288C79.3114 16.288 79.3074 16.292 79.2994 16.3C79.2914 16.316 79.2834 16.336 79.2754 16.36C79.2754 16.384 79.2674 16.404 79.2514 16.42C79.2194 16.452 79.1994 16.456 79.1914 16.432C79.1754 16.408 79.1674 16.38 79.1674 16.348C79.1674 16.324 79.1594 16.296 79.1434 16.264C79.1354 16.256 79.1234 16.244 79.1074 16.228C79.0994 16.22 79.0874 16.208 79.0714 16.192L78.9994 16.084C78.9914 16.108 78.9874 16.132 78.9874 16.156C78.9874 16.188 78.9794 16.212 78.9634 16.228C78.9554 16.236 78.9394 16.228 78.9154 16.204C78.8994 16.196 78.8834 16.184 78.8674 16.168L78.7354 16.06C78.6874 16.076 78.6594 16.076 78.6514 16.06C78.6274 16.012 78.6114 15.992 78.6034 16C78.5954 16 78.5834 15.996 78.5674 15.988C78.5354 15.972 78.5074 15.956 78.4834 15.94C78.3954 15.876 78.3514 15.788 78.3514 15.676V7.972C78.3514 7.932 78.3514 7.892 78.3514 7.852C78.3594 7.804 78.3794 7.764 78.4114 7.732C78.4354 7.684 78.4834 7.648 78.5554 7.624C78.6034 7.608 78.6394 7.6 78.6634 7.6C78.6794 7.592 78.7154 7.592 78.7714 7.6C78.8274 7.6 78.8794 7.6 78.9274 7.6H80.1274C80.2234 7.6 80.3914 7.6 80.6314 7.6C80.8714 7.6 81.1354 7.6 81.4234 7.6C81.7114 7.592 81.9714 7.592 82.2034 7.6H82.3114C82.4634 7.6 82.6114 7.608 82.7554 7.624C82.8994 7.632 83.0394 7.644 83.1754 7.66C83.3354 7.668 83.4954 7.688 83.6554 7.72C83.8234 7.744 83.9634 7.78 84.0754 7.828C84.1794 7.868 84.2514 7.908 84.2914 7.948C84.2914 7.948 84.3074 7.956 84.3394 7.972C84.3474 7.972 84.3514 7.976 84.3514 7.984C84.5674 8.08 84.7634 8.192 84.9394 8.32C84.9634 8.328 84.9794 8.34 84.9874 8.356C85.0034 8.372 85.0234 8.392 85.0474 8.416C85.1514 8.512 85.2514 8.612 85.3474 8.716C85.3714 8.748 85.3954 8.78 85.4194 8.812C85.4434 8.836 85.4674 8.868 85.4914 8.908C85.5154 8.94 85.5354 8.976 85.5514 9.016C85.5754 9.048 85.5954 9.084 85.6114 9.124C85.7234 9.34 85.8034 9.568 85.8514 9.808C85.8994 10.04 85.9234 10.292 85.9234 10.564V10.648ZM81.4114 9.832V10.936C81.5954 10.792 81.8074 10.684 82.0474 10.612C82.2874 10.54 82.5274 10.5 82.7674 10.492C82.7914 10.324 82.7594 10.172 82.6714 10.036C82.6634 10.02 82.6474 10 82.6234 9.976C82.5994 9.952 82.5794 9.936 82.5634 9.928L82.5034 9.892C82.4554 9.876 82.4034 9.872 82.3474 9.88C82.2994 9.888 82.2514 9.896 82.2034 9.904C82.1474 9.912 82.0914 9.92 82.0354 9.928C81.9874 9.928 81.9354 9.924 81.8794 9.916C81.8234 9.908 81.7674 9.9 81.7114 9.892C81.6634 9.876 81.6114 9.864 81.5554 9.856C81.5554 9.856 81.5394 9.856 81.5074 9.856C81.4834 9.848 81.4514 9.84 81.4114 9.832ZM94.0363 9.532C94.0363 9.588 94.0403 9.652 94.0483 9.724C94.0563 9.788 94.0523 9.852 94.0363 9.916C94.0363 9.9 94.0323 9.908 94.0243 9.94C94.0163 9.964 94.0163 9.972 94.0243 9.964C94.0163 9.972 94.0123 9.98 94.0123 9.988C94.0123 9.996 94.0083 10.004 94.0003 10.012L93.9403 10.084L93.9043 10.12C93.8963 10.12 93.8843 10.128 93.8683 10.144C93.8603 10.16 93.8523 10.172 93.8443 10.18C93.8123 10.212 93.7843 10.256 93.7603 10.312C93.7363 10.36 93.7043 10.416 93.6643 10.48C93.6323 10.552 93.6003 10.624 93.5683 10.696C93.5363 10.768 93.5003 10.84 93.4603 10.912C93.4043 11.04 93.3443 11.172 93.2803 11.308C93.2243 11.436 93.1523 11.568 93.0643 11.704C93.0083 11.784 92.9563 11.84 92.9083 11.872C92.9003 11.888 92.8923 11.908 92.8843 11.932C92.8843 11.956 92.8763 11.976 92.8603 11.992C92.8603 11.992 92.8443 11.98 92.8123 11.956C92.8043 11.948 92.7963 11.936 92.7883 11.92C92.7883 11.904 92.7643 11.872 92.7163 11.824L92.6923 11.8C92.6683 11.76 92.6443 11.724 92.6203 11.692C92.6043 11.652 92.5883 11.616 92.5723 11.584L92.5363 11.512L92.5243 11.5L92.4163 11.296C92.3443 11.168 92.2683 11.044 92.1883 10.924C92.1163 10.796 92.0403 10.668 91.9603 10.54C91.9283 10.492 91.9003 10.448 91.8763 10.408L91.7923 10.288C91.7683 10.264 91.7443 10.24 91.7203 10.216V10.276V15.436C91.7283 15.5 91.7283 15.56 91.7203 15.616C91.7203 15.672 91.7203 15.712 91.7203 15.736V15.76C91.7123 15.768 91.7083 15.776 91.7083 15.784C91.6923 15.816 91.6803 15.836 91.6723 15.844C91.6723 15.852 91.6683 15.86 91.6603 15.868C91.6283 15.908 91.5883 15.94 91.5403 15.964C91.5323 15.972 91.5243 15.98 91.5163 15.988C91.5083 15.996 91.5003 16.004 91.4923 16.012C91.4843 16.028 91.4723 16.044 91.4563 16.06C91.4403 16.084 91.4243 16.104 91.4083 16.12C91.3763 16.152 91.3403 16.164 91.3003 16.156C91.2843 16.148 91.2683 16.132 91.2523 16.108C91.2363 16.092 91.2203 16.084 91.2043 16.084C91.1883 16.076 91.1723 16.08 91.1563 16.096C91.1403 16.12 91.1243 16.132 91.1083 16.132C91.0443 16.108 91.0163 16.084 91.0243 16.06C91.0403 16.036 91.0123 16.04 90.9403 16.072C90.9163 16.112 90.8883 16.164 90.8563 16.228C90.8243 16.3 90.7803 16.316 90.7243 16.276C90.7083 16.26 90.6923 16.236 90.6763 16.204C90.6683 16.18 90.6523 16.164 90.6283 16.156L90.6163 16.168C90.6163 16.176 90.6123 16.18 90.6043 16.18C90.6043 16.188 90.6043 16.192 90.6043 16.192L90.5323 16.24L90.4843 16.288C90.4843 16.296 90.4763 16.344 90.4603 16.432C90.4443 16.52 90.4283 16.608 90.4123 16.696C90.3963 16.784 90.3883 16.828 90.3883 16.828C90.3803 16.86 90.3723 16.896 90.3643 16.936C90.3643 16.976 90.3563 17.012 90.3403 17.044C90.3323 17.052 90.3203 17.056 90.3043 17.056C90.2963 17.064 90.2923 17.064 90.2923 17.056C90.2763 16.944 90.2683 16.832 90.2683 16.72C90.2683 16.608 90.2603 16.496 90.2443 16.384C90.2443 16.344 90.2323 16.3 90.2083 16.252C90.1923 16.236 90.1643 16.204 90.1243 16.156C90.0923 16.116 90.0643 16.084 90.0403 16.06H90.0043C89.9643 16.06 89.9363 16.056 89.9203 16.048C89.9123 16.064 89.9003 16.076 89.8843 16.084C89.8683 16.1 89.8603 16.112 89.8603 16.12L89.8483 16.132C89.8083 16.18 89.7683 16.228 89.7283 16.276C89.6963 16.324 89.6603 16.38 89.6203 16.444C89.6043 16.46 89.5923 16.476 89.5843 16.492C89.5763 16.5 89.5683 16.508 89.5603 16.516C89.5523 16.524 89.5403 16.536 89.5243 16.552C89.5083 16.568 89.4923 16.58 89.4763 16.588C89.4683 16.676 89.4643 16.804 89.4643 16.972C89.4643 17.148 89.4603 17.332 89.4523 17.524C89.4523 17.716 89.4483 17.896 89.4403 18.064C89.4403 18.24 89.4363 18.372 89.4283 18.46C89.4283 18.468 89.4203 18.464 89.4043 18.448C89.3883 18.432 89.3803 18.42 89.3803 18.412C89.3323 18.324 89.3123 18.196 89.3203 18.028C89.3363 17.868 89.3563 17.688 89.3803 17.488C89.4043 17.296 89.4123 17.112 89.4043 16.936C89.4043 16.768 89.3683 16.632 89.2963 16.528C89.2963 16.512 89.2883 16.5 89.2723 16.492C89.2643 16.484 89.2603 16.48 89.2603 16.48C89.2283 16.416 89.1963 16.356 89.1643 16.3C89.1323 16.244 89.1003 16.188 89.0683 16.132C89.0683 16.124 89.0643 16.116 89.0563 16.108C89.0563 16.108 89.0563 16.104 89.0563 16.096C89.0483 16.088 89.0363 16.068 89.0203 16.036C88.9963 16.012 88.9683 16 88.9363 16C88.9283 16 88.9203 16 88.9123 16C88.9123 15.992 88.9043 15.988 88.8883 15.988C88.8243 15.964 88.7723 15.924 88.7323 15.868C88.7163 15.852 88.7003 15.82 88.6843 15.772C88.6683 15.708 88.6603 15.648 88.6603 15.592C88.6603 15.552 88.6603 15.52 88.6603 15.496C88.6683 15.464 88.6723 15.432 88.6723 15.4V10.276L88.6243 10.18C88.6243 10.18 88.6163 10.196 88.6003 10.228C88.5923 10.236 88.5883 10.248 88.5883 10.264C88.5803 10.296 88.5723 10.328 88.5643 10.36C88.5563 10.392 88.5443 10.42 88.5283 10.444L88.4563 10.588C88.4403 10.62 88.4203 10.652 88.3963 10.684C88.3723 10.716 88.3443 10.748 88.3123 10.78C88.2963 10.796 88.2883 10.804 88.2883 10.804C88.2723 10.812 88.2563 10.824 88.2403 10.84C88.2163 10.872 88.2043 10.892 88.2043 10.9C88.2043 10.908 88.1723 10.94 88.1083 10.996C88.0763 10.996 88.0603 10.996 88.0603 10.996C88.0443 11.028 88.0403 11.068 88.0483 11.116C88.0563 11.164 88.0403 11.196 88.0003 11.212C87.9763 11.22 87.9643 11.204 87.9643 11.164C87.9643 11.116 87.9603 11.08 87.9523 11.056L87.9163 10.888C87.8923 10.872 87.8683 10.852 87.8443 10.828C87.8203 10.796 87.8003 10.772 87.7843 10.756C87.7923 10.764 87.7843 10.76 87.7603 10.744C87.7363 10.72 87.7203 10.704 87.7123 10.696L87.6883 10.672C87.6723 10.68 87.6603 10.696 87.6523 10.72C87.6443 10.744 87.6363 10.764 87.6283 10.78C87.6203 10.82 87.6083 10.856 87.5923 10.888C87.5843 10.92 87.5803 10.948 87.5803 10.972C87.5803 10.9 87.5643 10.812 87.5323 10.708C87.5323 10.716 87.5283 10.72 87.5203 10.72C87.5203 10.72 87.5203 10.724 87.5203 10.732C87.5123 10.732 87.5083 10.736 87.5083 10.744C87.5003 10.752 87.4923 10.76 87.4843 10.768C87.4763 10.776 87.4603 10.8 87.4363 10.84C87.4203 10.872 87.4043 10.896 87.3883 10.912C87.3883 10.912 87.3843 10.916 87.3763 10.924C87.3763 10.924 87.3723 10.924 87.3643 10.924C87.3643 10.924 87.3603 10.928 87.3523 10.936C87.3523 10.936 87.3483 10.936 87.3403 10.936C87.3323 11.016 87.3283 11.092 87.3283 11.164C87.3363 11.236 87.3443 11.312 87.3523 11.392C87.3363 11.288 87.3003 11.24 87.2443 11.248C87.1963 11.264 87.1683 11.288 87.1603 11.32C87.1603 11.248 87.1603 11.176 87.1603 11.104C87.1683 11.024 87.1683 10.948 87.1603 10.876C87.1363 10.86 87.1123 10.84 87.0883 10.816C87.0643 10.784 87.0403 10.756 87.0163 10.732L86.9203 10.636C86.8563 10.564 86.8243 10.528 86.8243 10.528C86.8243 10.528 86.8163 10.52 86.8003 10.504C86.7843 10.488 86.7163 10.416 86.5963 10.288C86.5963 10.304 86.5883 10.312 86.5723 10.312C86.5643 10.312 86.5563 10.3 86.5483 10.276C86.5483 10.252 86.5443 10.232 86.5363 10.216C86.5443 10.224 86.5363 10.212 86.5123 10.18C86.4963 10.14 86.4843 10.116 86.4763 10.108C86.3963 10.044 86.3563 9.96 86.3563 9.856V8.308C86.3563 8.268 86.3523 8.2 86.3443 8.104C86.3443 8 86.3523 7.912 86.3683 7.84C86.3763 7.824 86.3803 7.812 86.3803 7.804C86.3803 7.788 86.3843 7.776 86.3923 7.768C86.4163 7.72 86.4483 7.684 86.4883 7.66C86.4963 7.66 86.5003 7.66 86.5003 7.66C86.5003 7.652 86.5043 7.648 86.5123 7.648L86.5243 7.636C86.5723 7.612 86.6163 7.6 86.6563 7.6C86.7203 7.592 86.7803 7.592 86.8363 7.6C86.9003 7.6 86.9603 7.6 87.0163 7.6H93.2803C93.3683 7.6 93.4603 7.596 93.5563 7.588C93.6523 7.58 93.7403 7.588 93.8203 7.612C93.8443 7.62 93.8643 7.632 93.8803 7.648C93.9043 7.656 93.9203 7.668 93.9283 7.684C93.9843 7.724 94.0163 7.768 94.0243 7.816C94.0323 7.864 94.0363 7.916 94.0363 7.972C94.0443 8.1 94.0443 8.236 94.0363 8.38C94.0363 8.516 94.0363 8.652 94.0363 8.788V9.532ZM87.1963 12.04C87.2123 12.112 87.2083 12.104 87.1843 12.016C87.1603 11.928 87.1403 11.812 87.1243 11.668C87.1163 11.516 87.1283 11.4 87.1603 11.32C87.1523 11.448 87.1483 11.572 87.1483 11.692C87.1563 11.812 87.1723 11.928 87.1963 12.04ZM87.2923 12.028C87.2763 12.076 87.2723 12.076 87.2803 12.028C87.2963 11.972 87.3123 11.892 87.3283 11.788C87.3443 11.684 87.3523 11.588 87.3523 11.5C87.3523 11.588 87.3483 11.676 87.3403 11.764C87.3403 11.852 87.3243 11.94 87.2923 12.028Z" fill="white"/>
</g>
<defs>
<filter id="filter0_d_193_23" x="0.900024" y="0.899902" width="108.2" height="30.1934" filterUnits="userSpaceOnUse" color-interpolation-filters="sRGB">
<feFlood flood-opacity="0" result="BackgroundImageFix"/>
<feColorMatrix in="SourceAlpha" type="matrix" values="0 0 0 0 0 0 0 0 0 0 0 0 0 0 0 0 0 0 127 0" result="hardAlpha"/>
<feOffset dy="4"/>
<feGaussianBlur stdDeviation="2"/>
<feComposite in2="hardAlpha" operator="out"/>
<feColorMatrix type="matrix" values="0 0 0 0 0 0 0 0 0 0 0 0 0 0 0 0 0 0 0.25 0"/>
<feBlend mode="normal" in2="BackgroundImageFix" result="effect1_dropShadow_193_23"/>
<feBlend mode="normal" in="SourceGraphic" in2="effect1_dropShadow_193_23" result="shape"/>
</filter>
<linearGradient id="paint0_linear_193_23" x1="56.1365" y1="1" x2="56.1365" y2="21.7676" gradientUnits="userSpaceOnUse">
<stop stop-color="#D9F049"/>
<stop offset="0.416667" stop-color="#D7F67F" stop-opacity="0.583333"/>
<stop offset="1" stop-color="#7EFF7B"/>
</linearGradient>
</defs>
</svg>
