<svg width="110" height="32" viewBox="0 0 110 32" fill="none" xmlns="http://www.w3.org/2000/svg">
<g filter="url(#filter0_d_201_71)">
<path d="M5.00601 1.86583L4.98731 1.96383L9.15792 3.05825H5L4.99138 3.15751L11.2422 4.25104H5H4.95V4.30104V21V21.0342L4.98186 21.0466L10.1183 23.0466L10.1634 22.9578L7.38661 21.1872L10.5829 22.2975L10.6301 22.2109L9.20963 21.1004L11.1251 21.5487L11.3082 21.5915L11.1705 21.4634L10.7264 21.05H62.9545L62.9642 20.9509L53.8733 19.1618L53.856 19.1584L53.8404 19.1665L51.8366 20.2182L52.7635 19.2453L52.8298 19.1756L52.7347 19.1614L46.2121 18.1833L56.1324 18.9767L56.1492 18.8785L51.0669 17.5322L60.604 18.4706L62.944 18.9757L62.944 18.9758L62.947 18.9763L76.5834 21.0494L76.5833 21.05H76.5909H103.864L103.887 20.9557L98.4549 18.1049L104.993 18.9764L105.02 18.8811L101.828 17.4716H105H105.05V17.4216V2V1.93117L104.985 1.95245L101.858 2.9689L104.406 1.03987L104.525 0.95H104.376H5L4.991 1.04918L18.1397 3.45642L5.00601 1.86583Z" fill="black" stroke="url(#paint0_linear_201_71)" stroke-width="0.1"/>
<path d="M22.612 15.736C22.604 15.744 22.6 15.756 22.6 15.772C22.6 15.78 22.596 15.788 22.588 15.796C22.572 15.828 22.564 15.844 22.564 15.844C22.556 15.876 22.544 15.896 22.528 15.904C22.512 15.912 22.496 15.924 22.48 15.94L22.432 15.976C22.408 16.08 22.388 16.18 22.372 16.276C22.364 16.38 22.352 16.484 22.336 16.588C22.328 16.628 22.32 16.688 22.312 16.768C22.312 16.848 22.304 16.868 22.288 16.828C22.264 16.724 22.252 16.62 22.252 16.516C22.26 16.412 22.256 16.308 22.24 16.204C22.24 16.196 22.232 16.196 22.216 16.204C22.208 16.22 22.2 16.228 22.192 16.228C22.176 16.236 22.156 16.248 22.132 16.264C22.108 16.28 22.08 16.284 22.048 16.276C22.04 16.276 22.028 16.268 22.012 16.252C21.948 16.252 21.88 16.224 21.808 16.168C21.8 16.192 21.796 16.22 21.796 16.252C21.804 16.292 21.796 16.32 21.772 16.336C21.748 16.352 21.736 16.34 21.736 16.3C21.736 16.26 21.732 16.228 21.724 16.204C21.724 16.204 21.72 16.168 21.712 16.096C21.712 16.032 21.676 16.016 21.604 16.048C21.596 16.056 21.584 16.068 21.568 16.084C21.56 16.1 21.544 16.12 21.52 16.144C21.496 16.176 21.468 16.204 21.436 16.228C21.428 16.236 21.416 16.248 21.4 16.264C21.392 16.288 21.38 16.308 21.364 16.324C21.34 16.34 21.316 16.336 21.292 16.312C21.276 16.296 21.26 16.284 21.244 16.276C21.236 16.276 21.216 16.28 21.184 16.288C21.16 16.304 21.148 16.316 21.148 16.324C21.148 16.324 21.144 16.324 21.136 16.324C21.136 16.324 21.136 16.328 21.136 16.336C21.136 16.336 21.128 16.344 21.112 16.36C21.064 16.416 21.028 16.48 21.004 16.552C20.98 16.632 20.952 16.704 20.92 16.768C20.904 16.8 20.884 16.836 20.86 16.876C20.844 16.924 20.816 16.96 20.776 16.984C20.768 17.088 20.76 17.192 20.752 17.296C20.752 17.4 20.744 17.504 20.728 17.608C20.72 17.632 20.712 17.668 20.704 17.716C20.704 17.764 20.696 17.776 20.68 17.752C20.656 17.704 20.644 17.652 20.644 17.596C20.644 17.548 20.64 17.496 20.632 17.44C20.624 17.352 20.62 17.268 20.62 17.188C20.62 17.108 20.612 17.028 20.596 16.948C20.548 16.908 20.512 16.872 20.488 16.84C20.456 16.792 20.42 16.74 20.38 16.684C20.348 16.628 20.312 16.572 20.272 16.516C20.24 16.46 20.208 16.408 20.176 16.36C20.152 16.312 20.124 16.264 20.092 16.216C20.084 16.2 20.072 16.184 20.056 16.168L20.02 16.108H20.008C20 16.108 19.988 16.088 19.972 16.048C19.964 16.016 19.952 15.988 19.936 15.964C19.976 16.004 19.988 16.016 19.972 16C19.964 15.984 19.944 15.96 19.912 15.928C19.888 15.896 19.872 15.88 19.864 15.88L19.852 15.868L19.816 15.808C19.816 15.8 19.812 15.796 19.804 15.796C19.804 15.788 19.804 15.78 19.804 15.772C19.78 15.708 19.772 15.636 19.78 15.556C19.788 15.468 19.792 15.392 19.792 15.328V12.484C19.792 12.62 19.796 12.684 19.804 12.676C19.812 12.668 19.82 12.632 19.828 12.568C19.836 12.504 19.836 12.452 19.828 12.412C19.82 12.364 19.8 12.372 19.768 12.436L19.72 12.508C19.704 12.524 19.696 12.536 19.696 12.544C19.704 12.544 19.7 12.552 19.684 12.568C19.684 12.568 19.68 12.572 19.672 12.58C19.672 12.58 19.672 12.584 19.672 12.592C19.632 12.648 19.592 12.708 19.552 12.772C19.52 12.836 19.484 12.9 19.444 12.964C19.38 13.068 19.316 13.176 19.252 13.288C19.188 13.4 19.12 13.508 19.048 13.612C19.04 13.636 19.028 13.66 19.012 13.684C18.996 13.708 18.98 13.728 18.964 13.744C18.94 13.776 18.912 13.808 18.88 13.84C18.856 13.872 18.824 13.896 18.784 13.912C18.776 13.92 18.764 13.932 18.748 13.948C18.74 13.964 18.724 13.992 18.7 14.032C18.692 14.04 18.68 14.044 18.664 14.044C18.656 14.132 18.648 14.268 18.64 14.452C18.64 14.628 18.636 14.82 18.628 15.028C18.628 15.236 18.624 15.432 18.616 15.616C18.616 15.792 18.612 15.924 18.604 16.012C18.604 16.02 18.596 16.024 18.58 16.024C18.564 16.024 18.556 16.02 18.556 16.012C18.548 15.9 18.54 15.724 18.532 15.484C18.532 15.244 18.532 15 18.532 14.752C18.532 14.504 18.524 14.308 18.508 14.164C18.508 14.164 18.496 14.152 18.472 14.128L18.46 14.14C18.46 14.14 18.46 14.144 18.46 14.152C18.46 14.152 18.456 14.152 18.448 14.152C18.448 14.168 18.44 14.184 18.424 14.2C18.408 14.232 18.388 14.264 18.364 14.296C18.34 14.32 18.312 14.34 18.28 14.356C18.264 14.396 18.26 14.448 18.268 14.512C18.276 14.576 18.26 14.604 18.22 14.596C18.18 14.58 18.168 14.544 18.184 14.488C18.2 14.424 18.2 14.368 18.184 14.32C18.168 14.304 18.152 14.284 18.136 14.26C18.12 14.236 18.104 14.22 18.088 14.212C18.064 14.188 18.052 14.176 18.052 14.176C18.044 14.208 18.032 14.24 18.016 14.272C18.008 14.304 18 14.328 17.992 14.344C17.992 14.304 17.98 14.256 17.956 14.2C17.94 14.216 17.932 14.228 17.932 14.236C17.932 14.236 17.924 14.244 17.908 14.26C17.892 14.284 17.876 14.312 17.86 14.344C17.844 14.376 17.828 14.404 17.812 14.428C17.804 14.436 17.788 14.452 17.764 14.476C17.748 14.492 17.732 14.496 17.716 14.488C17.7 14.48 17.688 14.472 17.68 14.464C17.672 14.448 17.66 14.436 17.644 14.428C17.604 14.388 17.576 14.328 17.56 14.248C17.544 14.192 17.528 14.14 17.512 14.092C17.504 14.036 17.492 13.98 17.476 13.924C17.444 13.908 17.416 13.888 17.392 13.864C17.376 13.832 17.356 13.804 17.332 13.78L17.272 13.684C17.208 13.58 17.144 13.476 17.08 13.372C17.016 13.26 16.952 13.152 16.888 13.048L16.78 12.868C16.756 12.836 16.732 12.804 16.708 12.772C16.692 12.74 16.672 12.708 16.648 12.676L16.612 12.604C16.604 12.588 16.596 12.572 16.588 12.556C16.58 12.54 16.568 12.524 16.552 12.508C16.552 12.5 16.548 12.496 16.54 12.496C16.54 12.496 16.54 12.492 16.54 12.484C16.54 12.484 16.532 12.476 16.516 12.46C16.516 12.42 16.508 12.392 16.492 12.376C16.484 12.352 16.48 12.372 16.48 12.436V15.484C16.48 15.524 16.48 15.568 16.48 15.616C16.488 15.656 16.488 15.696 16.48 15.736C16.48 15.72 16.476 15.728 16.468 15.76C16.46 15.784 16.46 15.792 16.468 15.784C16.46 15.816 16.44 15.848 16.408 15.88L16.336 15.952C16.328 15.984 16.32 16.016 16.312 16.048C16.312 16.088 16.304 16.128 16.288 16.168C16.272 16.272 16.252 16.372 16.228 16.468C16.212 16.572 16.188 16.676 16.156 16.78C16.148 16.804 16.136 16.844 16.12 16.9C16.104 16.956 16.088 16.996 16.072 17.02C16.024 17.068 15.988 17.052 15.964 16.972C15.94 16.9 15.924 16.86 15.916 16.852C15.9 16.788 15.884 16.72 15.868 16.648C15.852 16.584 15.836 16.516 15.82 16.444C15.812 16.404 15.808 16.364 15.808 16.324C15.808 16.284 15.8 16.248 15.784 16.216C15.768 16.232 15.748 16.248 15.724 16.264C15.7 16.288 15.676 16.308 15.652 16.324C15.636 16.476 15.624 16.632 15.616 16.792C15.616 16.96 15.608 17.124 15.592 17.284C15.592 17.292 15.584 17.288 15.568 17.272C15.552 17.256 15.544 17.244 15.544 17.236C15.472 17.116 15.448 17.004 15.472 16.9C15.496 16.804 15.52 16.704 15.544 16.6C15.576 16.496 15.556 16.388 15.484 16.276C15.476 16.26 15.468 16.244 15.46 16.228C15.452 16.212 15.44 16.196 15.424 16.18C15.408 16.18 15.4 16.18 15.4 16.18C15.384 16.308 15.376 16.432 15.376 16.552C15.376 16.68 15.368 16.804 15.352 16.924C15.352 16.924 15.336 16.924 15.304 16.924C15.272 16.924 15.256 16.92 15.256 16.912C15.248 16.792 15.24 16.668 15.232 16.54C15.232 16.42 15.224 16.296 15.208 16.168H15.148L15.136 16.156C15.12 16.156 15.112 16.156 15.112 16.156C15.104 16.26 15.1 16.36 15.1 16.456C15.1 16.56 15.092 16.664 15.076 16.768C15.076 16.776 15.06 16.764 15.028 16.732C14.996 16.716 14.98 16.704 14.98 16.696C14.964 16.608 14.956 16.524 14.956 16.444C14.956 16.364 14.952 16.284 14.944 16.204C14.936 16.212 14.928 16.224 14.92 16.24C14.912 16.256 14.912 16.256 14.92 16.24C14.912 16.264 14.896 16.288 14.872 16.312C14.864 16.32 14.852 16.328 14.836 16.336C14.82 16.352 14.804 16.368 14.788 16.384C14.764 16.432 14.748 16.48 14.74 16.528C14.732 16.584 14.716 16.64 14.692 16.696C14.684 16.704 14.676 16.716 14.668 16.732C14.668 16.748 14.66 16.764 14.644 16.78C14.628 16.796 14.612 16.796 14.596 16.78C14.564 16.748 14.544 16.692 14.536 16.612C14.528 16.532 14.516 16.48 14.5 16.456C14.46 16.416 14.424 16.364 14.392 16.3C14.368 16.244 14.336 16.176 14.296 16.096C14.288 16.112 14.284 16.124 14.284 16.132C14.284 16.148 14.28 16.164 14.272 16.18C14.264 16.188 14.244 16.184 14.212 16.168C14.188 16.16 14.176 16.156 14.176 16.156C14.144 16.14 14.12 16.124 14.104 16.108C14.112 16.124 14.116 16.152 14.116 16.192C14.116 16.232 14.1 16.296 14.068 16.384C14.06 16.416 14.052 16.444 14.044 16.468C14.036 16.492 14.028 16.52 14.02 16.552C14.012 16.64 14.008 16.776 14.008 16.96C14.008 17.152 14.008 17.352 14.008 17.56C14.008 17.776 14.008 17.976 14.008 18.16C14.008 18.352 14 18.492 13.984 18.58C13.976 18.66 13.968 18.672 13.96 18.616C13.96 18.56 13.96 18.464 13.96 18.328C13.96 18.192 13.96 18.052 13.96 17.908C13.96 17.764 13.96 17.652 13.96 17.572C13.952 17.332 13.948 17.132 13.948 16.972C13.948 16.82 13.944 16.668 13.936 16.516C13.928 16.372 13.908 16.196 13.876 15.988C13.844 15.972 13.816 15.956 13.792 15.94C13.704 15.876 13.66 15.788 13.66 15.676V7.924C13.66 7.836 13.692 7.76 13.756 7.696C13.82 7.632 13.908 7.6 14.02 7.6H15.64C15.728 7.6 15.812 7.6 15.892 7.6C15.972 7.592 16.048 7.608 16.12 7.648C16.208 7.688 16.276 7.744 16.324 7.816C16.38 7.888 16.428 7.964 16.468 8.044C16.484 8.06 16.496 8.08 16.504 8.104C16.52 8.12 16.532 8.14 16.54 8.164L16.6 8.26C16.672 8.348 16.74 8.452 16.804 8.572C16.876 8.684 16.944 8.804 17.008 8.932L17.428 9.628C17.524 9.772 17.616 9.92 17.704 10.072C17.792 10.224 17.88 10.372 17.968 10.516C17.984 10.548 18.004 10.584 18.028 10.624C18.052 10.656 18.072 10.692 18.088 10.732L18.136 10.804L18.184 10.72C18.2 10.68 18.22 10.644 18.244 10.612C18.268 10.58 18.288 10.548 18.304 10.516C18.376 10.404 18.448 10.288 18.52 10.168C18.592 10.048 18.664 9.928 18.736 9.808L18.82 9.664C18.82 9.656 18.82 9.652 18.82 9.652C18.828 9.652 18.832 9.648 18.832 9.64C18.832 9.64 18.84 9.632 18.856 9.616L19.264 8.932C19.272 8.932 19.276 8.932 19.276 8.932C19.276 8.924 19.276 8.92 19.276 8.92C19.34 8.8 19.404 8.684 19.468 8.572C19.54 8.46 19.604 8.36 19.66 8.272L19.732 8.152C19.772 8.088 19.808 8.028 19.84 7.972C19.88 7.908 19.924 7.848 19.972 7.792C19.972 7.784 19.976 7.78 19.984 7.78C20.024 7.724 20.08 7.68 20.152 7.648C20.224 7.608 20.3 7.592 20.38 7.6C20.468 7.6 20.552 7.6 20.632 7.6H22.288C22.336 7.6 22.372 7.608 22.396 7.624C22.42 7.632 22.448 7.644 22.48 7.66C22.552 7.708 22.596 7.788 22.612 7.9C22.62 7.956 22.62 8.016 22.612 8.08C22.612 8.144 22.612 8.204 22.612 8.26V15.148C22.612 15.244 22.616 15.344 22.624 15.448C22.632 15.544 22.628 15.64 22.612 15.736ZM32.2653 15.484C32.2893 15.532 32.3093 15.584 32.3253 15.64C32.3493 15.688 32.3533 15.74 32.3373 15.796C32.3293 15.828 32.3173 15.856 32.3013 15.88C32.2853 15.896 32.2693 15.912 32.2533 15.928L32.2173 15.964C32.2093 15.98 32.2013 16 32.1933 16.024C32.1933 16.048 32.1853 16.068 32.1693 16.084C32.1613 16.108 32.1533 16.132 32.1453 16.156C32.1453 16.18 32.1373 16.204 32.1213 16.228C32.1133 16.252 32.1053 16.284 32.0973 16.324C32.0973 16.372 32.0893 16.388 32.0733 16.372C32.0493 16.348 32.0373 16.316 32.0373 16.276C32.0373 16.244 32.0373 16.212 32.0373 16.18C32.0053 16.22 31.9693 16.26 31.9293 16.3C31.8973 16.348 31.8653 16.392 31.8333 16.432C31.7773 16.52 31.7213 16.612 31.6653 16.708C31.6093 16.812 31.5573 16.912 31.5093 17.008C31.4773 17.072 31.4453 17.14 31.4133 17.212C31.3813 17.284 31.3453 17.352 31.3053 17.416C31.2573 17.496 31.2293 17.54 31.2213 17.548C31.2133 17.556 31.1853 17.584 31.1373 17.632H31.1253C31.1173 17.64 31.1013 17.652 31.0773 17.668C31.0693 17.74 31.0613 17.812 31.0533 17.884C31.0533 17.964 31.0453 18.04 31.0293 18.112C31.0213 18.128 31.0133 18.12 31.0053 18.088C30.9973 18.056 30.9893 18.032 30.9813 18.016C30.9733 17.952 30.9693 17.884 30.9693 17.812C30.9693 17.748 30.9613 17.684 30.9453 17.62C30.9213 17.596 30.8973 17.56 30.8733 17.512C30.8733 17.504 30.8693 17.496 30.8613 17.488C30.8373 17.432 30.8133 17.376 30.7893 17.32C30.7733 17.272 30.7533 17.22 30.7293 17.164C30.6893 17.084 30.6453 17.02 30.5973 16.972C30.5893 16.964 30.5813 16.96 30.5733 16.96C30.5733 16.96 30.5693 16.956 30.5613 16.948C30.5533 16.956 30.5453 16.964 30.5373 16.972C30.5293 16.98 30.5213 16.988 30.5133 16.996C30.4413 17.044 30.4093 17.076 30.4173 17.092C30.4333 17.108 30.4573 17.12 30.4893 17.128C30.5293 17.144 30.5493 17.168 30.5493 17.2C30.5493 17.24 30.5053 17.304 30.4173 17.392C30.3933 17.424 30.3813 17.4 30.3813 17.32C30.3813 17.248 30.3773 17.196 30.3693 17.164C30.3613 17.116 30.3533 17.064 30.3453 17.008C30.3453 16.96 30.3373 16.912 30.3213 16.864C30.2733 16.816 30.2373 16.76 30.2133 16.696C30.1893 16.656 30.1653 16.612 30.1413 16.564C30.1253 16.524 30.1093 16.484 30.0933 16.444L30.0573 16.348C30.0493 16.324 30.0333 16.3 30.0093 16.276C29.9933 16.26 29.9773 16.244 29.9613 16.228C29.9613 16.22 29.9613 16.22 29.9613 16.228C29.9453 16.228 29.8933 16.256 29.8053 16.312C29.8053 16.32 29.8093 16.32 29.8173 16.312C29.8253 16.304 29.8733 16.276 29.9613 16.228L29.9493 16.216L29.9253 16.192C29.8213 16.296 29.7773 16.348 29.7933 16.348C29.8093 16.348 29.8413 16.328 29.8893 16.288C29.9373 16.256 29.9653 16.232 29.9733 16.216C29.9813 16.2 29.9253 16.232 29.8053 16.312L29.7813 16.336C29.7733 16.328 29.7653 16.312 29.7573 16.288C29.7493 16.264 29.7453 16.26 29.7453 16.276C29.7293 16.324 29.7213 16.392 29.7213 16.48C29.7213 16.576 29.7133 16.604 29.6973 16.564C29.6813 16.524 29.6733 16.46 29.6733 16.372C29.6733 16.292 29.6653 16.216 29.6493 16.144C29.6253 16.104 29.6013 16.06 29.5773 16.012C29.5613 15.972 29.5413 15.932 29.5173 15.892C29.5013 15.892 29.4933 15.884 29.4933 15.868C29.4773 15.852 29.4573 15.832 29.4333 15.808C29.4173 15.784 29.4133 15.776 29.4213 15.784C29.4133 15.768 29.4053 15.752 29.3973 15.736C29.3893 15.72 29.3813 15.708 29.3733 15.7C29.3413 15.62 29.3133 15.54 29.2893 15.46C29.2653 15.38 29.2373 15.3 29.2053 15.22C29.1973 15.204 29.1933 15.192 29.1933 15.184C29.1933 15.176 29.1893 15.168 29.1813 15.16C29.1813 15.144 29.1733 15.12 29.1573 15.088C29.1573 15.072 29.1533 15.06 29.1453 15.052C29.1453 15.044 29.1413 15.032 29.1333 15.016C29.1333 15 29.1293 14.992 29.1213 14.992C29.1213 14.976 29.1133 14.952 29.0973 14.92C29.0973 14.912 29.0973 14.908 29.0973 14.908C29.0973 14.908 29.0813 14.908 29.0493 14.908C29.0413 14.924 29.0373 14.948 29.0373 14.98C29.0373 15.012 29.0213 15.036 28.9893 15.052C28.9733 15.092 28.9533 15.136 28.9293 15.184C28.9053 15.224 28.8813 15.264 28.8573 15.304C28.8013 15.408 28.7453 15.524 28.6893 15.652C28.6413 15.772 28.5893 15.9 28.5333 16.036C28.5013 16.132 28.4653 16.228 28.4253 16.324C28.3933 16.42 28.3573 16.508 28.3173 16.588C28.2853 16.66 28.2533 16.732 28.2213 16.804C28.1893 16.884 28.1533 16.956 28.1133 17.02C28.1053 17.036 28.0893 17.056 28.0653 17.08C28.0493 17.112 28.0253 17.128 27.9933 17.128C27.9613 17.136 27.9293 17.124 27.8973 17.092C27.8653 17.044 27.8373 16.992 27.8133 16.936C27.7973 16.88 27.7813 16.824 27.7653 16.768C27.7253 16.68 27.6893 16.576 27.6573 16.456C27.6253 16.336 27.5973 16.212 27.5733 16.084C27.5413 15.956 27.5093 15.832 27.4773 15.712C27.4533 15.592 27.4213 15.488 27.3813 15.4L27.3453 15.304C27.3373 15.288 27.3293 15.272 27.3213 15.256C27.3213 15.24 27.3173 15.22 27.3093 15.196C27.2933 15.164 27.2813 15.136 27.2733 15.112C27.2653 15.104 27.2573 15.096 27.2493 15.088C27.2413 15.072 27.2373 15.072 27.2373 15.088C27.2213 15.168 27.2133 15.256 27.2133 15.352C27.2133 15.44 27.2053 15.528 27.1893 15.616C27.1813 15.648 27.1733 15.64 27.1653 15.592C27.1573 15.536 27.1493 15.496 27.1413 15.472C27.0853 15.36 27.0693 15.292 27.0933 15.268C27.1173 15.244 27.1413 15.224 27.1653 15.208C27.1893 15.192 27.1693 15.14 27.1053 15.052C27.0973 15.052 27.0853 15.068 27.0693 15.1C27.0613 15.108 27.0573 15.116 27.0573 15.124C27.0573 15.132 27.0533 15.14 27.0453 15.148C27.0293 15.172 27.0133 15.196 26.9973 15.22C26.9813 15.236 26.9613 15.252 26.9373 15.268C26.9213 15.284 26.9093 15.292 26.9013 15.292C26.8933 15.38 26.8853 15.472 26.8773 15.568C26.8773 15.656 26.8693 15.744 26.8533 15.832C26.8533 15.84 26.8453 15.848 26.8293 15.856C26.8133 15.864 26.8053 15.864 26.8053 15.856C26.7893 15.76 26.7813 15.664 26.7813 15.568C26.7813 15.464 26.7733 15.36 26.7573 15.256C26.7173 15.216 26.6813 15.168 26.6493 15.112C26.6173 15.056 26.5893 15.012 26.5653 14.98C26.4933 14.836 26.4613 14.768 26.4693 14.776C26.4773 14.776 26.4893 14.8 26.5053 14.848C26.5213 14.904 26.5213 14.94 26.5053 14.956C26.4813 15.004 26.4693 15.032 26.4693 15.04C26.4613 15.064 26.4533 15.088 26.4453 15.112C26.4373 15.128 26.4293 15.148 26.4213 15.172C26.4053 15.22 26.3893 15.268 26.3733 15.316C26.3573 15.364 26.3413 15.408 26.3253 15.448L26.2533 15.652C26.2453 15.684 26.2333 15.716 26.2173 15.748C26.2013 15.772 26.1853 15.796 26.1693 15.82C26.1453 15.86 26.1133 15.892 26.0733 15.916C26.0573 15.932 26.0413 15.956 26.0253 15.988L25.9893 16.072C25.9733 16.136 25.9533 16.204 25.9293 16.276C25.9053 16.348 25.8813 16.416 25.8573 16.48C25.8573 16.488 25.8533 16.492 25.8453 16.492C25.8453 16.5 25.8453 16.504 25.8453 16.504C25.8373 16.56 25.8253 16.612 25.8093 16.66C25.7933 16.716 25.7773 16.772 25.7613 16.828C25.7533 16.836 25.7493 16.848 25.7493 16.864C25.7493 16.88 25.7453 16.896 25.7373 16.912C25.7133 17.008 25.6893 17.104 25.6653 17.2C25.6493 17.304 25.6253 17.4 25.5933 17.488C25.5773 17.568 25.5573 17.644 25.5333 17.716C25.5093 17.788 25.4853 17.86 25.4613 17.932C25.4533 17.964 25.4373 17.996 25.4133 18.028C25.3973 18.068 25.3813 18.108 25.3653 18.148L25.2933 18.244C25.2693 18.268 25.2373 18.288 25.1973 18.304C25.1893 18.392 25.1813 18.48 25.1733 18.568C25.1733 18.664 25.1653 18.756 25.1493 18.844C25.1413 18.86 25.1293 18.876 25.1133 18.892C25.0973 18.908 25.0893 18.912 25.0893 18.904C25.0733 18.792 25.0653 18.684 25.0653 18.58C25.0653 18.476 25.0573 18.372 25.0413 18.268C25.0253 18.252 25.0093 18.236 24.9933 18.22C24.9853 18.204 24.9733 18.192 24.9573 18.184L24.8493 18.064C24.8413 18.048 24.8293 18.032 24.8133 18.016C24.8053 18 24.7933 17.984 24.7773 17.968C24.7453 17.92 24.7093 17.872 24.6693 17.824C24.6373 17.776 24.6093 17.728 24.5853 17.68C24.4973 17.528 24.4213 17.372 24.3573 17.212C24.2933 17.06 24.2253 16.908 24.1533 16.756C24.1213 16.692 24.0893 16.624 24.0573 16.552C24.0253 16.488 23.9893 16.424 23.9493 16.36C23.9413 16.352 23.9333 16.344 23.9253 16.336C23.9253 16.328 23.9213 16.32 23.9133 16.312C23.8973 16.28 23.8773 16.252 23.8533 16.228C23.8213 16.196 23.7973 16.176 23.7813 16.168C23.7813 16.168 23.7773 16.164 23.7693 16.156C23.7693 16.156 23.7693 16.152 23.7693 16.144C23.7613 16.144 23.7573 16.14 23.7573 16.132C23.7573 16.132 23.7533 16.132 23.7453 16.132C23.7213 16.172 23.7053 16.216 23.6973 16.264C23.6973 16.312 23.6853 16.356 23.6613 16.396C23.6613 16.428 23.6493 16.444 23.6253 16.444C23.5933 16.452 23.5693 16.424 23.5533 16.36C23.5453 16.304 23.5413 16.284 23.5413 16.3C23.5093 16.468 23.4973 16.504 23.5053 16.408C23.5213 16.312 23.5133 16.176 23.4813 16C23.4733 15.992 23.4653 15.988 23.4573 15.988C23.4493 15.988 23.4413 15.984 23.4333 15.976C23.4093 15.968 23.3773 15.944 23.3373 15.904C23.3213 15.888 23.3053 15.864 23.2893 15.832C23.2733 15.8 23.2693 15.752 23.2773 15.688C23.2853 15.64 23.2973 15.592 23.3133 15.544C23.3293 15.496 23.3453 15.452 23.3613 15.412C23.3773 15.356 23.3933 15.308 23.4093 15.268C23.4333 15.22 23.4493 15.192 23.4573 15.184L23.8653 14.02C23.9053 13.86 23.9413 13.708 23.9733 13.564C24.0133 13.412 24.0573 13.288 24.1053 13.192C24.1053 13.184 24.1053 13.176 24.1053 13.168C24.1133 13.16 24.1173 13.152 24.1173 13.144C24.1333 13.112 24.1453 13.08 24.1533 13.048C24.1693 13.016 24.1853 12.984 24.2013 12.952C24.2173 12.92 24.2333 12.892 24.2493 12.868C24.2653 12.836 24.2773 12.812 24.2853 12.796L24.9093 11.008C24.9493 10.864 24.9853 10.728 25.0173 10.6C25.0573 10.464 25.0933 10.356 25.1253 10.276C25.1493 10.196 25.1693 10.12 25.1853 10.048C25.2093 9.968 25.2333 9.896 25.2573 9.832C25.2813 9.744 25.3093 9.664 25.3413 9.592C25.4293 9.328 25.5093 9.16 25.5813 9.088L25.7973 8.464L25.9653 7.996C25.9893 7.908 26.0453 7.82 26.1333 7.732C26.2213 7.644 26.3533 7.6 26.5293 7.6H29.1093C29.2053 7.6 29.2853 7.616 29.3493 7.648C29.3733 7.656 29.4093 7.676 29.4573 7.708C29.5133 7.748 29.5573 7.796 29.5893 7.852C29.6213 7.908 29.6493 7.968 29.6733 8.032C29.6733 8.048 29.6813 8.072 29.6973 8.104L29.7333 8.224C29.7413 8.24 29.7453 8.26 29.7453 8.284C29.7533 8.308 29.7613 8.328 29.7693 8.344L29.8773 8.608C29.8773 8.616 29.8773 8.624 29.8773 8.632C29.8853 8.632 29.8893 8.636 29.8893 8.644C29.9053 8.676 29.9133 8.704 29.9133 8.728C29.9373 8.784 29.9573 8.844 29.9733 8.908C29.9973 8.972 30.0173 9.036 30.0333 9.1C30.0413 9.116 30.0493 9.136 30.0573 9.16C30.0653 9.184 30.0733 9.204 30.0813 9.22L30.1053 9.304C30.1533 9.352 30.2053 9.448 30.2613 9.592C30.3253 9.728 30.3893 9.896 30.4533 10.096L30.4893 10.216C30.5453 10.344 30.5933 10.476 30.6333 10.612C30.6813 10.748 30.7213 10.884 30.7533 11.02C30.7933 11.1 30.8333 11.212 30.8733 11.356C30.9133 11.5 30.9493 11.652 30.9813 11.812L31.5693 13.48C31.6173 13.56 31.6653 13.68 31.7133 13.84C31.7693 13.992 31.8253 14.164 31.8813 14.356C31.8973 14.396 31.9093 14.436 31.9173 14.476C31.9333 14.516 31.9453 14.556 31.9533 14.596L32.2173 15.352C32.2413 15.392 32.2573 15.436 32.2653 15.484ZM27.7893 10.384C27.7893 10.392 27.7853 10.404 27.7773 10.42C27.7693 10.436 27.7653 10.452 27.7653 10.468C27.7493 10.524 27.7293 10.58 27.7053 10.636C27.6893 10.692 27.6733 10.752 27.6573 10.816L27.3813 11.752C27.3733 11.784 27.3653 11.816 27.3573 11.848C27.3493 11.872 27.3373 11.904 27.3213 11.944C27.3133 11.992 27.3013 12.044 27.2853 12.1C27.2693 12.148 27.2533 12.2 27.2373 12.256C27.2293 12.288 27.2213 12.32 27.2133 12.352C27.2053 12.384 27.1933 12.416 27.1773 12.448C27.1693 12.456 27.1653 12.468 27.1653 12.484C27.1653 12.492 27.1613 12.504 27.1533 12.52C27.1533 12.52 27.1533 12.524 27.1533 12.532C27.1533 12.532 27.1493 12.532 27.1413 12.532C27.1413 12.54 27.1373 12.548 27.1293 12.556C27.1293 12.556 27.1293 12.56 27.1293 12.568H28.1613C28.2013 12.568 28.2413 12.568 28.2813 12.568C28.3213 12.56 28.3573 12.56 28.3893 12.568H28.4853L28.4493 12.436C28.4333 12.396 28.4213 12.36 28.4133 12.328C28.4053 12.288 28.3933 12.252 28.3773 12.22L28.3413 12.112C28.3093 12.024 28.2773 11.928 28.2453 11.824C28.2213 11.712 28.1933 11.604 28.1613 11.5C28.1533 11.492 28.1493 11.476 28.1493 11.452L27.9453 10.816L27.8733 10.564C27.8733 10.564 27.8653 10.548 27.8493 10.516C27.8413 10.476 27.8333 10.44 27.8253 10.408C27.8173 10.4 27.8133 10.396 27.8133 10.396C27.8133 10.388 27.8053 10.384 27.7893 10.384ZM39.3879 9.532C39.3879 9.588 39.3919 9.652 39.3999 9.724C39.4079 9.788 39.4039 9.852 39.3879 9.916C39.3879 9.9 39.3839 9.908 39.3759 9.94C39.3679 9.964 39.3679 9.972 39.3759 9.964C39.3679 9.972 39.3639 9.98 39.3639 9.988C39.3639 9.996 39.3599 10.004 39.3519 10.012L39.2919 10.084L39.2559 10.12C39.2479 10.12 39.2359 10.128 39.2199 10.144C39.2119 10.16 39.2039 10.172 39.1959 10.18C39.1639 10.212 39.1359 10.256 39.1119 10.312C39.0879 10.36 39.0559 10.416 39.0159 10.48C38.9839 10.552 38.9519 10.624 38.9199 10.696C38.8879 10.768 38.8519 10.84 38.8119 10.912C38.7559 11.04 38.6959 11.172 38.6319 11.308C38.5759 11.436 38.5039 11.568 38.4159 11.704C38.3599 11.784 38.3079 11.84 38.2599 11.872C38.2519 11.888 38.2439 11.908 38.2359 11.932C38.2359 11.956 38.2279 11.976 38.2119 11.992C38.2119 11.992 38.1959 11.98 38.1639 11.956C38.1559 11.948 38.1479 11.936 38.1399 11.92C38.1399 11.904 38.1159 11.872 38.0679 11.824L38.0439 11.8C38.0199 11.76 37.9959 11.724 37.9719 11.692C37.9559 11.652 37.9399 11.616 37.9239 11.584L37.8879 11.512L37.8759 11.5L37.7679 11.296C37.6959 11.168 37.6199 11.044 37.5399 10.924C37.4679 10.796 37.3919 10.668 37.3119 10.54C37.2799 10.492 37.2519 10.448 37.2279 10.408L37.1439 10.288C37.1199 10.264 37.0959 10.24 37.0719 10.216V10.276V15.436C37.0799 15.5 37.0799 15.56 37.0719 15.616C37.0719 15.672 37.0719 15.712 37.0719 15.736V15.76C37.0639 15.768 37.0599 15.776 37.0599 15.784C37.0439 15.816 37.0319 15.836 37.0239 15.844C37.0239 15.852 37.0199 15.86 37.0119 15.868C36.9799 15.908 36.9399 15.94 36.8919 15.964C36.8839 15.972 36.8759 15.98 36.8679 15.988C36.8599 15.996 36.8519 16.004 36.8439 16.012C36.8359 16.028 36.8239 16.044 36.8079 16.06C36.7919 16.084 36.7759 16.104 36.7599 16.12C36.7279 16.152 36.6919 16.164 36.6519 16.156C36.6359 16.148 36.6199 16.132 36.6039 16.108C36.5879 16.092 36.5719 16.084 36.5559 16.084C36.5399 16.076 36.5239 16.08 36.5079 16.096C36.4919 16.12 36.4759 16.132 36.4599 16.132C36.3959 16.108 36.3679 16.084 36.3759 16.06C36.3919 16.036 36.3639 16.04 36.2919 16.072C36.2679 16.112 36.2399 16.164 36.2079 16.228C36.1759 16.3 36.1319 16.316 36.0759 16.276C36.0599 16.26 36.0439 16.236 36.0279 16.204C36.0199 16.18 36.0039 16.164 35.9799 16.156L35.9679 16.168C35.9679 16.176 35.9639 16.18 35.9559 16.18C35.9559 16.188 35.9559 16.192 35.9559 16.192L35.8839 16.24L35.8359 16.288C35.8359 16.296 35.8279 16.344 35.8119 16.432C35.7959 16.52 35.7799 16.608 35.7639 16.696C35.7479 16.784 35.7399 16.828 35.7399 16.828C35.7319 16.86 35.7239 16.896 35.7159 16.936C35.7159 16.976 35.7079 17.012 35.6919 17.044C35.6839 17.052 35.6719 17.056 35.6559 17.056C35.6479 17.064 35.6439 17.064 35.6439 17.056C35.6279 16.944 35.6199 16.832 35.6199 16.72C35.6199 16.608 35.6119 16.496 35.5959 16.384C35.5959 16.344 35.5839 16.3 35.5599 16.252C35.5439 16.236 35.5159 16.204 35.4759 16.156C35.4439 16.116 35.4159 16.084 35.3919 16.06H35.3559C35.3159 16.06 35.2879 16.056 35.2719 16.048C35.2639 16.064 35.2519 16.076 35.2359 16.084C35.2199 16.1 35.2119 16.112 35.2119 16.12L35.1999 16.132C35.1599 16.18 35.1199 16.228 35.0799 16.276C35.0479 16.324 35.0119 16.38 34.9719 16.444C34.9559 16.46 34.9439 16.476 34.9359 16.492C34.9279 16.5 34.9199 16.508 34.9119 16.516C34.9039 16.524 34.8919 16.536 34.8759 16.552C34.8599 16.568 34.8439 16.58 34.8279 16.588C34.8199 16.676 34.8159 16.804 34.8159 16.972C34.8159 17.148 34.8119 17.332 34.8039 17.524C34.8039 17.716 34.7999 17.896 34.7919 18.064C34.7919 18.24 34.7879 18.372 34.7799 18.46C34.7799 18.468 34.7719 18.464 34.7559 18.448C34.7399 18.432 34.7319 18.42 34.7319 18.412C34.6839 18.324 34.6639 18.196 34.6719 18.028C34.6879 17.868 34.7079 17.688 34.7319 17.488C34.7559 17.296 34.7639 17.112 34.7559 16.936C34.7559 16.768 34.7199 16.632 34.6479 16.528C34.6479 16.512 34.6399 16.5 34.6239 16.492C34.6159 16.484 34.6119 16.48 34.6119 16.48C34.5799 16.416 34.5479 16.356 34.5159 16.3C34.4839 16.244 34.4519 16.188 34.4199 16.132C34.4199 16.124 34.4159 16.116 34.4079 16.108C34.4079 16.108 34.4079 16.104 34.4079 16.096C34.3999 16.088 34.3879 16.068 34.3719 16.036C34.3479 16.012 34.3199 16 34.2879 16C34.2799 16 34.2719 16 34.2639 16C34.2639 15.992 34.2559 15.988 34.2399 15.988C34.1759 15.964 34.1239 15.924 34.0839 15.868C34.0679 15.852 34.0519 15.82 34.0359 15.772C34.0199 15.708 34.0119 15.648 34.0119 15.592C34.0119 15.552 34.0119 15.52 34.0119 15.496C34.0199 15.464 34.0239 15.432 34.0239 15.4V10.276L33.9759 10.18C33.9759 10.18 33.9679 10.196 33.9519 10.228C33.9439 10.236 33.9399 10.248 33.9399 10.264C33.9319 10.296 33.9239 10.328 33.9159 10.36C33.9079 10.392 33.8959 10.42 33.8799 10.444L33.8079 10.588C33.7919 10.62 33.7719 10.652 33.7479 10.684C33.7239 10.716 33.6959 10.748 33.6639 10.78C33.6479 10.796 33.6399 10.804 33.6399 10.804C33.6239 10.812 33.6079 10.824 33.5919 10.84C33.5679 10.872 33.5559 10.892 33.5559 10.9C33.5559 10.908 33.5239 10.94 33.4599 10.996C33.4279 10.996 33.4119 10.996 33.4119 10.996C33.3959 11.028 33.3919 11.068 33.3999 11.116C33.4079 11.164 33.3919 11.196 33.3519 11.212C33.3279 11.22 33.3159 11.204 33.3159 11.164C33.3159 11.116 33.3119 11.08 33.3039 11.056L33.2679 10.888C33.2439 10.872 33.2199 10.852 33.1959 10.828C33.1719 10.796 33.1519 10.772 33.1359 10.756C33.1439 10.764 33.1359 10.76 33.1119 10.744C33.0879 10.72 33.0719 10.704 33.0639 10.696L33.0399 10.672C33.0239 10.68 33.0119 10.696 33.0039 10.72C32.9959 10.744 32.9879 10.764 32.9799 10.78C32.9719 10.82 32.9599 10.856 32.9439 10.888C32.9359 10.92 32.9319 10.948 32.9319 10.972C32.9319 10.9 32.9159 10.812 32.8839 10.708C32.8839 10.716 32.8799 10.72 32.8719 10.72C32.8719 10.72 32.8719 10.724 32.8719 10.732C32.8639 10.732 32.8599 10.736 32.8599 10.744C32.8519 10.752 32.8439 10.76 32.8359 10.768C32.8279 10.776 32.8119 10.8 32.7879 10.84C32.7719 10.872 32.7559 10.896 32.7399 10.912C32.7399 10.912 32.7359 10.916 32.7279 10.924C32.7279 10.924 32.7239 10.924 32.7159 10.924C32.7159 10.924 32.7119 10.928 32.7039 10.936C32.7039 10.936 32.6999 10.936 32.6919 10.936C32.6839 11.016 32.6799 11.092 32.6799 11.164C32.6879 11.236 32.6959 11.312 32.7039 11.392C32.6879 11.288 32.6519 11.24 32.5959 11.248C32.5479 11.264 32.5199 11.288 32.5119 11.32C32.5119 11.248 32.5119 11.176 32.5119 11.104C32.5199 11.024 32.5199 10.948 32.5119 10.876C32.4879 10.86 32.4639 10.84 32.4399 10.816C32.4159 10.784 32.3919 10.756 32.3679 10.732L32.2719 10.636C32.2079 10.564 32.1759 10.528 32.1759 10.528C32.1759 10.528 32.1679 10.52 32.1519 10.504C32.1359 10.488 32.0679 10.416 31.9479 10.288C31.9479 10.304 31.9399 10.312 31.9239 10.312C31.9159 10.312 31.9079 10.3 31.8999 10.276C31.8999 10.252 31.8959 10.232 31.8879 10.216C31.8959 10.224 31.8879 10.212 31.8639 10.18C31.8479 10.14 31.8359 10.116 31.8279 10.108C31.7479 10.044 31.7079 9.96 31.7079 9.856V8.308C31.7079 8.268 31.7039 8.2 31.6959 8.104C31.6959 8 31.7039 7.912 31.7199 7.84C31.7279 7.824 31.7319 7.812 31.7319 7.804C31.7319 7.788 31.7359 7.776 31.7439 7.768C31.7679 7.72 31.7999 7.684 31.8399 7.66C31.8479 7.66 31.8519 7.66 31.8519 7.66C31.8519 7.652 31.8559 7.648 31.8639 7.648L31.8759 7.636C31.9239 7.612 31.9679 7.6 32.0079 7.6C32.0719 7.592 32.1319 7.592 32.1879 7.6C32.2519 7.6 32.3119 7.6 32.3679 7.6H38.6319C38.7199 7.6 38.8119 7.596 38.9079 7.588C39.0039 7.58 39.0919 7.588 39.1719 7.612C39.1959 7.62 39.2159 7.632 39.2319 7.648C39.2559 7.656 39.2719 7.668 39.2799 7.684C39.3359 7.724 39.3679 7.768 39.3759 7.816C39.3839 7.864 39.3879 7.916 39.3879 7.972C39.3959 8.1 39.3959 8.236 39.3879 8.38C39.3879 8.516 39.3879 8.652 39.3879 8.788V9.532ZM32.5479 12.04C32.5639 12.112 32.5599 12.104 32.5359 12.016C32.5119 11.928 32.4919 11.812 32.4759 11.668C32.4679 11.516 32.4799 11.4 32.5119 11.32C32.5039 11.448 32.4999 11.572 32.4999 11.692C32.5079 11.812 32.5239 11.928 32.5479 12.04ZM32.6439 12.028C32.6279 12.076 32.6239 12.076 32.6319 12.028C32.6479 11.972 32.6639 11.892 32.6799 11.788C32.6959 11.684 32.7039 11.588 32.7039 11.5C32.7039 11.588 32.6999 11.676 32.6919 11.764C32.6919 11.852 32.6759 11.94 32.6439 12.028ZM47.1498 14.404C47.1498 14.564 47.1538 14.752 47.1618 14.968C47.1698 15.176 47.1698 15.368 47.1618 15.544C47.1618 15.584 47.1618 15.624 47.1618 15.664C47.1618 15.704 47.1538 15.744 47.1378 15.784C47.1378 15.792 47.1338 15.8 47.1258 15.808C47.1178 15.84 47.1018 15.868 47.0778 15.892C47.0538 15.908 47.0298 15.924 47.0058 15.94C46.9978 15.956 46.9818 15.972 46.9578 15.988C46.9418 16.004 46.9258 16.024 46.9098 16.048C46.9018 16.064 46.8898 16.084 46.8738 16.108C46.8578 16.132 46.8418 16.156 46.8258 16.18C46.8178 16.188 46.8098 16.196 46.8018 16.204C46.7938 16.212 46.7858 16.224 46.7778 16.24C46.7378 16.288 46.6938 16.336 46.6458 16.384C46.6058 16.432 46.5658 16.484 46.5258 16.54L46.4418 16.66C46.4098 16.7 46.3818 16.74 46.3578 16.78C46.3338 16.82 46.3058 16.86 46.2738 16.9C46.2578 16.916 46.2498 16.924 46.2498 16.924C46.2258 16.956 46.1818 16.992 46.1178 17.032C46.1098 17.04 46.1018 17.044 46.0938 17.044C46.0858 17.052 46.0738 17.06 46.0578 17.068C46.0418 17.076 46.0218 17.092 45.9978 17.116C45.9738 17.14 45.9498 17.156 45.9258 17.164C45.8938 17.172 45.8578 17.164 45.8178 17.14C45.7858 17.124 45.7578 17.108 45.7338 17.092C45.7178 17.076 45.7058 17.068 45.6978 17.068C45.7138 17.052 45.7018 17.06 45.6618 17.092C45.6298 17.124 45.6058 17.148 45.5898 17.164C45.5738 17.332 45.5658 17.5 45.5658 17.668C45.5658 17.844 45.5578 18.02 45.5418 18.196C45.5338 18.268 45.5418 18.356 45.5658 18.46C45.5898 18.564 45.5658 18.624 45.4938 18.64C45.4218 18.648 45.3938 18.596 45.4098 18.484C45.4338 18.372 45.4458 18.28 45.4458 18.208C45.4378 18.024 45.4298 17.844 45.4218 17.668C45.4218 17.492 45.4138 17.316 45.3978 17.14C45.3898 17.132 45.3858 17.124 45.3858 17.116C45.3778 17.116 45.3698 17.112 45.3618 17.104L45.3018 17.008C45.2698 16.944 45.2338 16.876 45.1938 16.804C45.1618 16.732 45.1258 16.664 45.0858 16.6L44.9058 16.288C44.8978 16.256 44.8858 16.224 44.8698 16.192C44.8538 16.168 44.8378 16.136 44.8218 16.096L44.8098 16.084C44.8018 16.132 44.7978 16.18 44.7978 16.228C44.7978 16.284 44.7898 16.336 44.7738 16.384C44.7658 16.392 44.7578 16.408 44.7498 16.432C44.7418 16.456 44.7338 16.464 44.7258 16.456C44.7178 16.416 44.7098 16.372 44.7018 16.324C44.7018 16.284 44.7018 16.248 44.7018 16.216C44.6698 16.28 44.6498 16.324 44.6418 16.348C44.6178 16.404 44.5938 16.46 44.5698 16.516C44.5458 16.58 44.5178 16.644 44.4858 16.708C44.4618 16.764 44.4218 16.836 44.3658 16.924C44.3658 16.932 44.3618 16.936 44.3538 16.936C44.3458 16.952 44.3258 16.976 44.2938 17.008C44.2778 17.024 44.2658 17.032 44.2578 17.032C44.2418 17.088 44.2298 17.144 44.2218 17.2C44.2218 17.264 44.2178 17.328 44.2098 17.392C44.2018 17.432 44.1938 17.468 44.1858 17.5C44.1778 17.54 44.1698 17.58 44.1618 17.62C44.1538 17.636 44.1418 17.66 44.1258 17.692C44.1178 17.732 44.1098 17.744 44.1018 17.728C44.0858 17.64 44.0898 17.54 44.1138 17.428C44.1378 17.324 44.1178 17.244 44.0538 17.188C44.0298 17.164 44.0178 17.176 44.0178 17.224C44.0178 17.272 44.0218 17.332 44.0298 17.404C44.0458 17.476 44.0538 17.536 44.0538 17.584C44.0538 17.64 44.0378 17.656 44.0058 17.632C43.9418 17.576 43.9258 17.492 43.9578 17.38C43.9898 17.276 43.9898 17.184 43.9578 17.104C43.9498 17.064 43.9458 17.088 43.9458 17.176C43.9538 17.264 43.9418 17.324 43.9098 17.356C43.9018 17.372 43.8938 17.356 43.8858 17.308C43.8858 17.268 43.8778 17.236 43.8618 17.212C43.8538 17.196 43.8378 17.16 43.8138 17.104C43.7978 17.048 43.7698 17.032 43.7298 17.056C43.7298 17.056 43.7258 17.056 43.7178 17.056C43.7178 17.056 43.7178 17.06 43.7178 17.068C43.7018 17.084 43.6738 17.116 43.6338 17.164C43.5938 17.22 43.5458 17.272 43.4898 17.32C43.4898 17.32 43.4738 17.328 43.4418 17.344C43.4338 17.432 43.4418 17.552 43.4658 17.704C43.4898 17.856 43.5138 18.004 43.5378 18.148C43.5618 18.3 43.5658 18.424 43.5498 18.52C43.5338 18.616 43.4818 18.656 43.3938 18.64C43.3058 18.624 43.2538 18.564 43.2378 18.46C43.2218 18.356 43.2218 18.232 43.2378 18.088C43.2618 17.952 43.2858 17.812 43.3098 17.668C43.3418 17.532 43.3538 17.416 43.3458 17.32C43.3378 17.32 43.3338 17.316 43.3338 17.308C43.3338 17.308 43.3298 17.308 43.3218 17.308C43.3138 17.308 43.3098 17.304 43.3098 17.296C43.2938 17.28 43.2778 17.256 43.2618 17.224C43.2458 17.208 43.2298 17.184 43.2138 17.152C43.1738 17.056 43.1338 16.952 43.0938 16.84L42.9138 16.48C42.9058 16.464 42.8978 16.448 42.8898 16.432C42.8898 16.416 42.8818 16.4 42.8658 16.384C42.8258 16.368 42.7818 16.352 42.7338 16.336C42.6938 16.32 42.6538 16.304 42.6138 16.288C42.6298 16.272 42.6298 16.256 42.6138 16.24C42.6058 16.248 42.6018 16.256 42.6018 16.264C42.6018 16.272 42.6018 16.276 42.6018 16.276C42.5858 16.276 42.5618 16.268 42.5298 16.252C42.5298 16.252 42.5258 16.252 42.5178 16.252C42.5178 16.252 42.5178 16.248 42.5178 16.24C42.5098 16.248 42.5018 16.256 42.4938 16.264C42.4858 16.28 42.4778 16.292 42.4698 16.3C42.4218 16.364 42.3738 16.42 42.3258 16.468L42.3018 16.492C42.3018 16.492 42.2978 16.492 42.2898 16.492C42.2898 16.492 42.2898 16.496 42.2898 16.504C42.2818 16.504 42.2738 16.504 42.2658 16.504C42.2658 16.512 42.2618 16.516 42.2538 16.516C42.2458 16.636 42.2378 16.804 42.2298 17.02C42.2298 17.244 42.2258 17.464 42.2178 17.68C42.2178 17.904 42.2098 18.076 42.1938 18.196C42.1938 18.204 42.1858 18.212 42.1698 18.22C42.1538 18.236 42.1458 18.24 42.1458 18.232C42.0978 18.144 42.0818 18.016 42.0978 17.848C42.1138 17.688 42.1338 17.516 42.1578 17.332C42.1898 17.156 42.2018 16.984 42.1938 16.816C42.1858 16.656 42.1378 16.532 42.0498 16.444L41.8818 16.228C41.8738 16.212 41.8618 16.196 41.8458 16.18C41.8378 16.164 41.8258 16.152 41.8098 16.144C41.7938 16.112 41.7658 16.076 41.7258 16.036C41.7258 16.044 41.7218 16.048 41.7138 16.048C41.6898 16.08 41.6578 16.108 41.6178 16.132L41.5338 16.168C41.5258 16.168 41.5218 16.168 41.5218 16.168C41.5218 16.176 41.5178 16.18 41.5098 16.18C41.5098 16.196 41.5098 16.22 41.5098 16.252C41.5098 16.292 41.5018 16.344 41.4858 16.408L41.3898 17.02C41.3818 17.076 41.3738 17.128 41.3658 17.176C41.3578 17.224 41.3458 17.272 41.3298 17.32C41.3218 17.368 41.3138 17.436 41.3058 17.524C41.2978 17.612 41.2898 17.636 41.2818 17.596C41.2258 17.508 41.2018 17.396 41.2098 17.26C41.2178 17.124 41.2338 16.992 41.2578 16.864C41.2898 16.744 41.3018 16.648 41.2938 16.576C41.2858 16.504 41.2378 16.484 41.1498 16.516C41.0378 16.54 40.9418 16.524 40.8618 16.468C40.8458 16.452 40.8298 16.436 40.8138 16.42C40.7978 16.404 40.7818 16.392 40.7658 16.384C40.7578 16.368 40.7458 16.348 40.7298 16.324C40.7218 16.308 40.7178 16.308 40.7178 16.324C40.7098 16.404 40.7098 16.508 40.7178 16.636C40.7338 16.772 40.7458 16.9 40.7538 17.02C40.7618 17.148 40.7618 17.24 40.7538 17.296C40.7458 17.36 40.7178 17.36 40.6698 17.296C40.5978 17.2 40.5618 17.088 40.5618 16.96C40.5698 16.84 40.5858 16.712 40.6098 16.576C40.6418 16.448 40.6458 16.324 40.6218 16.204C40.6138 16.148 40.6098 16.152 40.6098 16.216C40.6178 16.288 40.6178 16.372 40.6098 16.468C40.6098 16.564 40.5978 16.636 40.5738 16.684C40.5498 16.74 40.5378 16.712 40.5378 16.6C40.5458 16.488 40.5498 16.404 40.5498 16.348L40.4658 15.988C40.4338 15.972 40.4058 15.956 40.3818 15.94C40.2938 15.876 40.2498 15.788 40.2498 15.676V8.116C40.2498 8.052 40.2498 7.988 40.2498 7.924C40.2498 7.852 40.2698 7.788 40.3098 7.732C40.3338 7.684 40.3818 7.648 40.4538 7.624C40.4698 7.616 40.4858 7.612 40.5018 7.612C40.5258 7.604 40.5538 7.6 40.5858 7.6H46.4418C46.5218 7.6 46.6058 7.6 46.6938 7.6C46.7818 7.592 46.8578 7.612 46.9218 7.66L46.9938 7.732C47.0338 7.788 47.0538 7.848 47.0538 7.912V9.328C47.0618 9.36 47.0658 9.4 47.0658 9.448C47.0658 9.488 47.0658 9.528 47.0658 9.568C47.0658 9.608 47.0578 9.66 47.0418 9.724C47.0418 9.732 47.0378 9.74 47.0298 9.748C47.0298 9.748 47.0298 9.752 47.0298 9.76C47.0218 9.76 47.0178 9.764 47.0178 9.772C47.0018 9.788 46.9938 9.796 46.9938 9.796C46.9858 9.812 46.9578 9.84 46.9098 9.88C46.8618 9.92 46.8338 9.944 46.8258 9.952C46.8098 9.968 46.7938 9.98 46.7778 9.988C46.7458 10.004 46.7298 10.012 46.7298 10.012C46.7298 10.004 46.7298 9.996 46.7298 9.988C46.7298 9.988 46.7218 9.984 46.7058 9.976C46.6898 9.96 46.6538 9.956 46.5978 9.964C46.5498 9.98 46.5098 9.988 46.4778 9.988C46.4218 9.996 46.3658 10 46.3098 10C46.2618 10 46.2098 10.008 46.1538 10.024C46.0978 10.04 46.0458 10.064 45.9978 10.096C45.9578 10.12 45.9138 10.14 45.8658 10.156C45.8258 10.164 45.7858 10.176 45.7458 10.192C45.7058 10.2 45.6658 10.212 45.6258 10.228C45.5858 10.236 45.5458 10.256 45.5058 10.288C45.4658 10.312 45.4258 10.328 45.3858 10.336C45.3298 10.344 45.2658 10.328 45.1938 10.288C45.1698 10.264 45.1498 10.252 45.1338 10.252C45.1258 10.252 45.1218 10.252 45.1218 10.252C45.1138 10.276 45.0978 10.292 45.0738 10.3C45.0418 10.332 45.0018 10.364 44.9538 10.396C44.9138 10.42 44.8698 10.44 44.8218 10.456C44.7658 10.48 44.7138 10.488 44.6658 10.48C44.6258 10.464 44.5778 10.452 44.5218 10.444C44.4898 10.436 44.4538 10.436 44.4138 10.444C44.3738 10.444 44.3338 10.44 44.2938 10.432C44.2138 10.416 44.1378 10.388 44.0658 10.348C43.9938 10.308 43.9218 10.268 43.8498 10.228C43.7858 10.188 43.7138 10.156 43.6338 10.132C43.5618 10.1 43.4898 10.072 43.4178 10.048L43.1298 9.94V10.552L43.1778 10.696H45.9858C46.0738 10.696 46.1778 10.692 46.2978 10.684C46.4178 10.676 46.5218 10.692 46.6098 10.732C46.6178 10.732 46.6258 10.736 46.6338 10.744C46.6818 10.776 46.7138 10.804 46.7298 10.828C46.7538 10.86 46.7698 10.896 46.7778 10.936C46.7858 10.976 46.7938 11.016 46.8018 11.056C46.8018 11.104 46.7978 11.156 46.7898 11.212C46.7898 11.26 46.7898 11.308 46.7898 11.356V12.472C46.7898 12.504 46.7898 12.536 46.7898 12.568C46.7978 12.592 46.7978 12.616 46.7898 12.64C46.7898 12.656 46.7818 12.68 46.7658 12.712C46.7658 12.72 46.7618 12.724 46.7538 12.724C46.7538 12.724 46.7538 12.728 46.7538 12.736C46.7218 12.8 46.6658 12.852 46.5858 12.892C46.5778 12.892 46.5738 12.896 46.5738 12.904C46.5738 12.904 46.5698 12.904 46.5618 12.904C46.5138 12.936 46.4618 12.96 46.4058 12.976C46.3578 12.984 46.3138 12.996 46.2738 13.012C46.2098 13.044 46.1458 13.084 46.0818 13.132C46.0178 13.172 45.9498 13.2 45.8778 13.216C45.8378 13.224 45.7938 13.232 45.7458 13.24C45.6978 13.24 45.6538 13.248 45.6138 13.264C45.5738 13.272 45.5338 13.284 45.4938 13.3C45.4538 13.316 45.4138 13.332 45.3738 13.348C45.3018 13.372 45.2298 13.384 45.1578 13.384C45.0858 13.384 45.0178 13.388 44.9538 13.396H44.8938C44.8778 13.396 44.8618 13.4 44.8458 13.408C44.8298 13.408 44.8138 13.404 44.7978 13.396C44.7498 13.388 44.7058 13.376 44.6658 13.36C44.6338 13.336 44.5978 13.32 44.5578 13.312C44.4858 13.296 44.4138 13.304 44.3418 13.336C44.2698 13.36 44.1978 13.364 44.1258 13.348C44.0698 13.332 44.0138 13.304 43.9578 13.264C43.9098 13.216 43.8538 13.172 43.7898 13.132C43.7258 13.1 43.6578 13.068 43.5858 13.036C43.5138 13.004 43.4418 12.976 43.3698 12.952C43.3858 12.952 43.3538 12.944 43.2738 12.928C43.1938 12.912 43.1458 12.904 43.1298 12.904V13.516L43.1778 13.66H46.8258C46.8738 13.66 46.9218 13.672 46.9698 13.696C46.9858 13.696 47.0058 13.708 47.0298 13.732C47.0458 13.74 47.0578 13.748 47.0658 13.756C47.0738 13.764 47.0818 13.776 47.0898 13.792C47.1058 13.808 47.1218 13.84 47.1378 13.888C47.1458 13.912 47.1498 13.948 47.1498 13.996V14.404ZM56.0178 15.736C56.0178 15.76 56.0098 15.796 55.9938 15.844C55.9858 15.868 55.9698 15.892 55.9458 15.916C55.9298 15.932 55.9138 15.948 55.8978 15.964C55.8818 15.996 55.8658 16.028 55.8498 16.06C55.8338 16.1 55.8178 16.14 55.8018 16.18L55.6098 16.516C55.5778 16.572 55.5458 16.628 55.5138 16.684C55.4898 16.74 55.4578 16.792 55.4178 16.84C55.4098 16.856 55.3938 16.876 55.3698 16.9C55.3458 16.924 55.3338 16.936 55.3338 16.936C55.3178 16.808 55.3098 16.68 55.3098 16.552C55.3098 16.432 55.3018 16.312 55.2858 16.192C55.2778 16.184 55.2698 16.18 55.2618 16.18C55.2538 16.188 55.2458 16.192 55.2378 16.192C55.2458 16.192 55.2298 16.204 55.1898 16.228C55.1498 16.26 55.1218 16.28 55.1058 16.288C55.0978 16.296 55.0898 16.308 55.0818 16.324C55.0738 16.348 55.0618 16.36 55.0458 16.36C55.0378 16.368 55.0298 16.364 55.0218 16.348C55.0138 16.332 55.0058 16.32 54.9978 16.312C54.9738 16.272 54.9458 16.236 54.9138 16.204C54.8898 16.172 54.8698 16.14 54.8538 16.108C54.8378 16.164 54.8298 16.224 54.8298 16.288C54.8378 16.352 54.8298 16.416 54.8058 16.48C54.7978 16.496 54.7898 16.488 54.7818 16.456C54.7738 16.424 54.7658 16.4 54.7578 16.384L54.7338 16.144C54.7258 16.152 54.7178 16.16 54.7098 16.168C54.7098 16.176 54.7058 16.188 54.6978 16.204C54.6818 16.228 54.6578 16.256 54.6258 16.288C54.6338 16.288 54.6258 16.292 54.6018 16.3C54.5778 16.308 54.5658 16.312 54.5658 16.312C54.5578 16.392 54.5498 16.472 54.5418 16.552C54.5418 16.64 54.5338 16.728 54.5178 16.816C54.5178 16.84 54.5138 16.868 54.5058 16.9C54.4978 16.94 54.4858 16.956 54.4698 16.948C54.4458 16.924 54.4338 16.892 54.4338 16.852C54.4338 16.812 54.4298 16.776 54.4218 16.744C54.4138 16.696 54.4058 16.648 54.3978 16.6C54.3978 16.552 54.3898 16.504 54.3737 16.456C54.3737 16.408 54.3618 16.372 54.3378 16.348C54.3218 16.356 54.3018 16.372 54.2778 16.396C54.2618 16.42 54.2458 16.444 54.2298 16.468C54.2138 16.5 54.1938 16.528 54.1698 16.552C54.1538 16.584 54.1298 16.612 54.0978 16.636C54.0898 16.644 54.0778 16.648 54.0618 16.648C54.0618 16.656 54.0578 16.66 54.0498 16.66C54.0418 16.788 54.0338 16.916 54.0258 17.044C54.0258 17.172 54.0178 17.304 54.0018 17.44C53.9938 17.504 53.9938 17.576 54.0018 17.656C54.0178 17.736 53.9978 17.796 53.9418 17.836C53.9098 17.868 53.8938 17.836 53.8938 17.74C53.9018 17.652 53.9018 17.584 53.8938 17.536C53.8858 17.376 53.8818 17.22 53.8818 17.068C53.8818 16.916 53.8738 16.764 53.8578 16.612C53.8498 16.604 53.8378 16.592 53.8218 16.576C53.8138 16.56 53.8018 16.548 53.7858 16.54C53.7698 16.516 53.7458 16.488 53.7138 16.456C53.6898 16.432 53.6658 16.404 53.6418 16.372C53.6178 16.348 53.5898 16.324 53.5578 16.3C53.5338 16.268 53.5018 16.248 53.4618 16.24C53.4858 16.248 53.4858 16.248 53.4618 16.24C53.4378 16.232 53.4098 16.22 53.3778 16.204H53.3418C53.3258 16.308 53.3178 16.416 53.3178 16.528C53.3178 16.64 53.3098 16.752 53.2938 16.864C53.2858 16.888 53.2778 16.88 53.2698 16.84C53.2618 16.8 53.2498 16.772 53.2338 16.756C53.2258 16.692 53.2138 16.652 53.1978 16.636C53.1898 16.628 53.1778 16.616 53.1618 16.6C53.1538 16.608 53.1418 16.604 53.1258 16.588C53.0618 16.532 53.0378 16.456 53.0538 16.36C53.0778 16.264 53.0858 16.176 53.0778 16.096C53.0778 16.128 53.0738 16.156 53.0658 16.18C53.0658 16.212 53.0578 16.236 53.0418 16.252C53.0338 16.26 53.0258 16.244 53.0178 16.204C53.0178 16.172 53.0138 16.144 53.0058 16.12C52.9898 16.088 52.9818 16.06 52.9818 16.036C52.9738 16.068 52.9658 16.08 52.9578 16.072C52.9258 16.016 52.9178 15.992 52.9338 16C52.9498 16.008 52.9618 16.008 52.9698 16C52.9778 15.992 52.9498 15.936 52.8858 15.832L52.8498 15.796C52.8418 15.78 52.8298 15.764 52.8138 15.748C52.7978 15.724 52.7818 15.7 52.7658 15.676C52.7658 15.66 52.7578 15.644 52.7418 15.628C52.7258 15.596 52.7098 15.564 52.6938 15.532C52.6858 15.5 52.6738 15.468 52.6578 15.436C52.6338 15.372 52.6058 15.312 52.5738 15.256C52.5498 15.192 52.5258 15.132 52.5018 15.076C52.4618 14.996 52.4218 14.912 52.3818 14.824C52.3418 14.728 52.3018 14.632 52.2618 14.536C52.2458 14.488 52.2298 14.456 52.2138 14.44C52.1818 14.344 52.1418 14.252 52.0938 14.164C52.0858 14.148 52.0778 14.132 52.0698 14.116C52.0618 14.092 52.0538 14.072 52.0458 14.056L51.9618 13.876C51.9618 13.86 51.9578 13.848 51.9498 13.84C51.9498 13.84 51.9458 13.84 51.9378 13.84C51.9378 13.832 51.9378 13.824 51.9378 13.816C51.9298 13.8 51.9218 13.78 51.9138 13.756C51.9058 13.732 51.8938 13.712 51.8778 13.696C51.8698 13.672 51.8618 13.648 51.8538 13.624C51.8458 13.6 51.8338 13.576 51.8178 13.552L51.7818 13.468L51.6978 13.384C51.6978 13.4 51.6898 13.416 51.6738 13.432C51.6578 13.464 51.6498 13.488 51.6498 13.504L51.6138 13.6C51.5978 13.632 51.5818 13.656 51.5658 13.672C51.5418 13.704 51.5098 13.72 51.4698 13.72C51.4298 13.704 51.3978 13.668 51.3738 13.612C51.3498 13.556 51.3298 13.512 51.3138 13.48C51.3058 13.48 51.3018 13.48 51.3018 13.48C51.3018 13.472 51.3018 13.468 51.3018 13.468C51.2698 13.38 51.2538 13.356 51.2538 13.396C51.2618 13.436 51.2618 13.464 51.2538 13.48V15.244C51.2538 15.324 51.2578 15.412 51.2658 15.508C51.2738 15.604 51.2658 15.696 51.2418 15.784C51.2098 15.848 51.1938 15.876 51.1938 15.868L51.1698 15.892C51.1618 15.9 51.1538 15.908 51.1458 15.916C51.1458 15.924 51.1378 15.932 51.1217 15.94C51.1058 15.948 51.0858 15.964 51.0618 15.988C51.0458 16.012 51.0338 16.028 51.0258 16.036C51.0098 16.068 50.9938 16.088 50.9778 16.096C50.9538 16.144 50.9378 16.164 50.9298 16.156C50.9298 16.156 50.9258 16.156 50.9178 16.156C50.9178 16.156 50.9178 16.152 50.9178 16.144C50.9018 16.224 50.8898 16.304 50.8818 16.384C50.8738 16.472 50.8578 16.56 50.8338 16.648C50.8258 16.664 50.8178 16.684 50.8098 16.708C50.8098 16.732 50.8018 16.752 50.7858 16.768C50.7778 16.776 50.7658 16.776 50.7498 16.768C50.7418 16.76 50.7378 16.752 50.7378 16.744C50.7298 16.728 50.7218 16.708 50.7138 16.684C50.7058 16.66 50.6978 16.64 50.6898 16.624C50.6818 16.592 50.6738 16.56 50.6658 16.528C50.6578 16.504 50.6498 16.476 50.6418 16.444C50.6338 16.42 50.6258 16.392 50.6178 16.36C50.6178 16.336 50.6098 16.312 50.5938 16.288L50.5218 16.36C50.5138 16.368 50.5058 16.372 50.4978 16.372C50.4738 16.396 50.4538 16.412 50.4378 16.42C50.4298 16.596 50.4258 16.788 50.4258 16.996C50.4258 17.212 50.4178 17.412 50.4018 17.596C50.4018 17.644 50.4058 17.708 50.4138 17.788C50.4218 17.876 50.4218 17.944 50.4138 17.992C50.4138 18.048 50.3938 18.064 50.3538 18.04C50.2818 17.992 50.2578 17.916 50.2818 17.812C50.3058 17.708 50.3138 17.616 50.3058 17.536C50.2978 17.352 50.2898 17.164 50.2818 16.972C50.2818 16.788 50.2738 16.608 50.2578 16.432C50.2498 16.424 50.2378 16.412 50.2218 16.396C50.2138 16.388 50.2018 16.376 50.1858 16.36C50.1778 16.336 50.1658 16.312 50.1498 16.288C50.1418 16.272 50.1298 16.252 50.1138 16.228C50.0978 16.196 50.0898 16.18 50.0898 16.18C50.0898 16.18 50.0818 16.164 50.0658 16.132C50.0658 16.132 50.0578 16.116 50.0418 16.084C50.0258 16.116 50.0178 16.132 50.0178 16.132C50.0098 16.14 49.9858 16.148 49.9458 16.156C49.9138 16.164 49.8898 16.168 49.8738 16.168C49.8018 16.176 49.7418 16.156 49.6938 16.108C49.6538 16.068 49.6018 16.036 49.5378 16.012C49.4898 16.02 49.4458 16.036 49.4058 16.06C49.3738 16.092 49.3378 16.116 49.2978 16.132C49.2418 16.148 49.1738 16.144 49.0938 16.12L49.0098 16.084H48.9978C48.9818 16.092 48.9578 16.104 48.9258 16.12C48.9018 16.136 48.8778 16.148 48.8538 16.156C48.7978 16.172 48.7378 16.16 48.6738 16.12C48.6098 16.08 48.5418 16.036 48.4698 15.988C48.4378 15.972 48.4098 15.956 48.3857 15.94C48.2978 15.876 48.2538 15.788 48.2538 15.676V8.116C48.2538 8.052 48.2538 7.988 48.2538 7.924C48.2538 7.852 48.2738 7.788 48.3138 7.732C48.3458 7.684 48.3898 7.648 48.4458 7.624C48.4938 7.608 48.5338 7.6 48.5658 7.6C48.6058 7.592 48.6458 7.592 48.6858 7.6C48.7338 7.6 48.7778 7.6 48.8178 7.6H51.7698C51.9298 7.6 52.0898 7.6 52.2498 7.6C52.4098 7.592 52.5658 7.6 52.7178 7.624C53.1258 7.656 53.4978 7.732 53.8338 7.852C54.1778 7.964 54.4738 8.112 54.7218 8.296C54.7698 8.32 54.8138 8.352 54.8538 8.392C54.8538 8.392 54.8538 8.396 54.8538 8.404C54.8618 8.404 54.8658 8.408 54.8658 8.416C54.8738 8.416 54.8818 8.42 54.8898 8.428C55.1858 8.676 55.4098 8.976 55.5618 9.328C55.7218 9.68 55.8018 10.076 55.8018 10.516C55.8018 10.78 55.7698 11.032 55.7058 11.272C55.6898 11.424 55.6578 11.524 55.6098 11.572C55.5938 11.604 55.5858 11.624 55.5858 11.632C55.5458 11.728 55.4978 11.82 55.4418 11.908C55.3938 11.996 55.3378 12.084 55.2738 12.172C55.2658 12.18 55.2578 12.192 55.2498 12.208C55.2418 12.216 55.2338 12.224 55.2258 12.232C55.2178 12.24 55.2098 12.248 55.2018 12.256C55.1938 12.264 55.1858 12.276 55.1778 12.292L55.0818 12.4C55.0738 12.408 55.0618 12.416 55.0458 12.424C55.0378 12.432 55.0298 12.444 55.0218 12.46C54.9978 12.476 54.9738 12.496 54.9498 12.52C54.9338 12.544 54.9138 12.564 54.8898 12.58C54.8818 12.692 54.8978 12.86 54.9378 13.084C54.9778 13.308 55.0018 13.528 55.0098 13.744C55.0258 13.768 55.0418 13.792 55.0578 13.816C55.0738 13.84 55.0858 13.868 55.0938 13.9C55.1738 14.036 55.2538 14.204 55.3338 14.404L55.6218 14.932C55.6618 15.012 55.7018 15.088 55.7418 15.16C55.7898 15.232 55.8338 15.304 55.8738 15.376C55.8898 15.408 55.9058 15.436 55.9218 15.46C55.9378 15.484 55.9498 15.512 55.9578 15.544C55.9658 15.552 55.9738 15.568 55.9818 15.592C55.9898 15.608 55.9938 15.624 55.9938 15.64C56.0098 15.672 56.0178 15.704 56.0178 15.736ZM51.3498 11.104H52.1298C52.1698 11.104 52.2218 11.096 52.2858 11.08C52.3658 11.056 52.4298 11.008 52.4778 10.936C52.5338 10.864 52.5778 10.78 52.6098 10.684C52.6258 10.644 52.6378 10.604 52.6458 10.564C52.6538 10.516 52.6578 10.468 52.6578 10.42C52.6578 10.332 52.6418 10.244 52.6098 10.156C52.5778 10.068 52.5258 9.996 52.4538 9.94C52.4218 9.908 52.3778 9.892 52.3218 9.892C52.2658 9.884 52.2138 9.884 52.1658 9.892C52.0778 9.9 51.9858 9.912 51.8898 9.928C51.8018 9.936 51.7098 9.932 51.6138 9.916C51.5658 9.908 51.5178 9.9 51.4698 9.892C51.4298 9.876 51.3898 9.864 51.3498 9.856C51.3338 9.848 51.3218 9.844 51.3138 9.844C51.3138 9.836 51.2938 9.832 51.2538 9.832V10.852C51.2538 10.996 51.2618 11.064 51.2778 11.056C51.2938 11.048 51.3178 11.064 51.3498 11.104ZM54.7458 13.312C54.7858 13.008 54.8058 12.788 54.8058 12.652C54.8058 12.652 54.7978 12.66 54.7818 12.676C54.7818 12.684 54.7778 12.692 54.7698 12.7C54.7698 12.7 54.7698 12.704 54.7698 12.712C54.7698 12.72 54.7698 12.736 54.7698 12.76C54.7698 12.784 54.7618 12.82 54.7458 12.868C54.7298 12.9 54.7138 12.92 54.6978 12.928C54.6738 12.936 54.6578 12.92 54.6497 12.88C54.6418 12.84 54.6218 12.828 54.5898 12.844C54.5898 12.868 54.5738 12.884 54.5418 12.892C54.5338 12.9 54.5258 12.9 54.5178 12.892C54.5178 12.876 54.5138 12.868 54.5058 12.868L54.5418 12.94C54.5578 12.948 54.5698 12.964 54.5778 12.988C54.5858 13.004 54.5938 13.02 54.6018 13.036L54.7458 13.312ZM53.1618 16.312C53.1778 16.296 53.1898 16.276 53.1978 16.252C53.2138 16.228 53.2058 16.192 53.1738 16.144C53.1738 16.144 53.1698 16.144 53.1618 16.144C53.1618 16.144 53.1618 16.148 53.1618 16.156C53.1538 16.172 53.1498 16.192 53.1498 16.216C53.1578 16.248 53.1618 16.28 53.1618 16.312ZM60.0099 15.1C60.0099 15.204 60.0139 15.312 60.0219 15.424C60.0299 15.528 60.0259 15.632 60.0099 15.736C60.0099 15.744 60.0059 15.752 59.9979 15.76C59.9979 15.76 59.9979 15.768 59.9979 15.784C59.9739 15.848 59.9219 15.908 59.8419 15.964C59.8179 16.004 59.7979 16.044 59.7819 16.084C59.7659 16.132 59.7459 16.176 59.7219 16.216C59.7219 16.224 59.7139 16.244 59.6979 16.276C59.6819 16.316 59.6619 16.332 59.6379 16.324C59.6059 16.308 59.5859 16.276 59.5779 16.228C59.5699 16.18 59.5619 16.152 59.5539 16.144L59.5179 16.18C59.5019 16.196 59.4819 16.216 59.4579 16.24C59.4419 16.264 59.4259 16.284 59.4099 16.3L59.3019 16.456C59.2859 16.488 59.2659 16.524 59.2419 16.564C59.2179 16.604 59.1899 16.632 59.1579 16.648C59.1499 16.672 59.1419 16.696 59.1339 16.72C59.1339 16.744 59.1259 16.772 59.1099 16.804C59.1019 16.82 59.0939 16.84 59.0859 16.864C59.0779 16.888 59.0659 16.908 59.0499 16.924C59.0499 16.932 59.0419 16.936 59.0259 16.936C59.0179 16.944 59.0099 16.944 59.0019 16.936C58.9939 16.896 58.9859 16.852 58.9779 16.804C58.9779 16.756 58.9739 16.708 58.9659 16.66C58.9579 16.644 58.9499 16.628 58.9419 16.612C58.9419 16.596 58.9339 16.584 58.9179 16.576C58.9019 16.56 58.8859 16.544 58.8699 16.528C58.8539 16.512 58.8379 16.496 58.8219 16.48C58.7979 16.456 58.7779 16.44 58.7619 16.432C58.7219 16.432 58.6899 16.428 58.6659 16.42L58.6299 16.564C58.6219 16.572 58.6139 16.588 58.6059 16.612C58.5979 16.636 58.5899 16.644 58.5819 16.636C58.5659 16.604 58.5579 16.568 58.5579 16.528C58.5659 16.488 58.5619 16.452 58.5459 16.42C58.5379 16.42 58.5339 16.42 58.5339 16.42C58.5339 16.428 58.5299 16.432 58.5219 16.432C58.5219 16.44 58.5059 16.46 58.4739 16.492C58.4739 16.492 58.4699 16.492 58.4619 16.492C58.4619 16.492 58.4619 16.496 58.4619 16.504C58.4619 16.504 58.4579 16.508 58.4499 16.516C58.4499 16.524 58.4299 16.54 58.3899 16.564C58.3819 16.66 58.3739 16.756 58.3659 16.852C58.3659 16.948 58.3619 17.044 58.3539 17.14C58.3379 17.316 58.3179 17.544 58.2939 17.824C58.2779 18.112 58.2499 18.348 58.2099 18.532C58.2019 18.572 58.1939 18.608 58.1859 18.64C58.1859 18.68 58.1779 18.72 58.1619 18.76C58.1379 18.808 58.1219 18.828 58.1139 18.82C58.0899 18.804 58.0739 18.78 58.0659 18.748C58.0659 18.724 58.0619 18.704 58.0539 18.688C58.0459 18.624 58.0379 18.564 58.0299 18.508C58.0219 18.46 58.0139 18.408 58.0059 18.352C57.9979 18.232 57.9899 18.08 57.9819 17.896C57.9819 17.712 57.9819 17.528 57.9819 17.344C57.9819 17.16 57.9739 17.008 57.9579 16.888C57.9579 16.848 57.9539 16.864 57.9459 16.936C57.9459 17.016 57.9419 17.092 57.9339 17.164C57.9339 17.244 57.9259 17.268 57.9099 17.236C57.8779 17.1 57.8659 16.996 57.8739 16.924C57.8819 16.852 57.8659 16.724 57.8259 16.54C57.8099 16.524 57.7899 16.504 57.7659 16.48C57.7499 16.464 57.7339 16.444 57.7179 16.42L57.5499 16.24C57.5339 16.224 57.5139 16.208 57.4899 16.192C57.4739 16.176 57.4579 16.16 57.4419 16.144C57.4099 16.12 57.3819 16.108 57.3579 16.108C57.3339 16.108 57.3219 16.108 57.3219 16.108C57.3139 16.164 57.3179 16.232 57.3339 16.312C57.3499 16.4 57.3339 16.436 57.2859 16.42C57.2299 16.404 57.2139 16.356 57.2379 16.276C57.2619 16.196 57.2619 16.132 57.2379 16.084C57.2139 16.028 57.2019 16.008 57.2019 16.024C57.2019 16.04 57.2059 16.064 57.2139 16.096C57.2219 16.128 57.2259 16.14 57.2259 16.132C57.2259 16.132 57.2099 16.088 57.1779 16C57.1699 15.992 57.1579 15.988 57.1419 15.988C57.1339 15.988 57.1219 15.984 57.1059 15.976C56.9779 15.92 56.9139 15.816 56.9139 15.664C56.9059 15.584 56.9019 15.504 56.9019 15.424C56.9099 15.336 56.9139 15.256 56.9139 15.184V8.164C56.9139 8.124 56.9099 8.084 56.9019 8.044C56.9019 7.996 56.9059 7.952 56.9139 7.912C56.9139 7.88 56.9219 7.84 56.9379 7.792C56.9539 7.76 56.9659 7.74 56.9739 7.732C56.9899 7.708 57.0059 7.688 57.0219 7.672C57.0459 7.656 57.0659 7.644 57.0819 7.636C57.0979 7.628 57.1139 7.624 57.1299 7.624C57.1459 7.616 57.1619 7.612 57.1779 7.612C57.2099 7.596 57.2419 7.588 57.2739 7.588C57.3059 7.588 57.3379 7.588 57.3699 7.588C57.4179 7.588 57.4699 7.592 57.5259 7.6C57.5819 7.6 57.6299 7.6 57.6699 7.6H59.5419C59.5819 7.6 59.6219 7.6 59.6619 7.6C59.7099 7.592 59.7539 7.596 59.7939 7.612C59.8019 7.62 59.8099 7.624 59.8179 7.624C59.8259 7.624 59.8339 7.628 59.8419 7.636C59.8899 7.652 59.9299 7.692 59.9619 7.756C59.9779 7.78 59.9939 7.824 60.0099 7.888C60.0259 7.968 60.0299 8.052 60.0219 8.14C60.0139 8.22 60.0099 8.292 60.0099 8.356V15.1ZM69.6599 15.484C69.6839 15.532 69.7039 15.584 69.7199 15.64C69.7439 15.688 69.7479 15.74 69.7319 15.796C69.7239 15.828 69.7119 15.856 69.6959 15.88C69.6799 15.896 69.6639 15.912 69.6479 15.928L69.6119 15.964C69.6039 15.98 69.5959 16 69.5879 16.024C69.5879 16.048 69.5799 16.068 69.5639 16.084C69.5559 16.108 69.5479 16.132 69.5399 16.156C69.5399 16.18 69.5319 16.204 69.5159 16.228C69.5079 16.252 69.4999 16.284 69.4919 16.324C69.4919 16.372 69.4839 16.388 69.4679 16.372C69.4439 16.348 69.4319 16.316 69.4319 16.276C69.4319 16.244 69.4319 16.212 69.4319 16.18C69.3999 16.22 69.3639 16.26 69.3239 16.3C69.2919 16.348 69.2599 16.392 69.2279 16.432C69.1719 16.52 69.1159 16.612 69.0599 16.708C69.0039 16.812 68.9519 16.912 68.9039 17.008C68.8719 17.072 68.8399 17.14 68.8079 17.212C68.7759 17.284 68.7399 17.352 68.6999 17.416C68.6519 17.496 68.6239 17.54 68.6159 17.548C68.6079 17.556 68.5799 17.584 68.5319 17.632H68.5199C68.5119 17.64 68.4959 17.652 68.4719 17.668C68.4639 17.74 68.4559 17.812 68.4479 17.884C68.4479 17.964 68.4399 18.04 68.4239 18.112C68.4159 18.128 68.4079 18.12 68.3999 18.088C68.3919 18.056 68.3839 18.032 68.3759 18.016C68.3679 17.952 68.3639 17.884 68.3639 17.812C68.3639 17.748 68.3559 17.684 68.3399 17.62C68.3159 17.596 68.2919 17.56 68.2679 17.512C68.2679 17.504 68.2639 17.496 68.2559 17.488C68.2319 17.432 68.2079 17.376 68.1839 17.32C68.1679 17.272 68.1479 17.22 68.1239 17.164C68.0839 17.084 68.0399 17.02 67.9919 16.972C67.9839 16.964 67.9759 16.96 67.9679 16.96C67.9679 16.96 67.9639 16.956 67.9559 16.948C67.9479 16.956 67.9399 16.964 67.9319 16.972C67.9239 16.98 67.9159 16.988 67.9079 16.996C67.8359 17.044 67.8039 17.076 67.8119 17.092C67.8279 17.108 67.8519 17.12 67.8839 17.128C67.9239 17.144 67.9439 17.168 67.9439 17.2C67.9439 17.24 67.8999 17.304 67.8119 17.392C67.7879 17.424 67.7759 17.4 67.7759 17.32C67.7759 17.248 67.7719 17.196 67.7639 17.164C67.7559 17.116 67.7479 17.064 67.7399 17.008C67.7399 16.96 67.7319 16.912 67.7159 16.864C67.6679 16.816 67.6319 16.76 67.6079 16.696C67.5839 16.656 67.5599 16.612 67.5359 16.564C67.5199 16.524 67.5039 16.484 67.4879 16.444L67.4519 16.348C67.4439 16.324 67.4279 16.3 67.4039 16.276C67.3879 16.26 67.3719 16.244 67.3559 16.228C67.3559 16.22 67.3559 16.22 67.3559 16.228C67.3399 16.228 67.2879 16.256 67.1999 16.312C67.1999 16.32 67.2039 16.32 67.2119 16.312C67.2199 16.304 67.2679 16.276 67.3559 16.228L67.3439 16.216L67.3199 16.192C67.2159 16.296 67.1719 16.348 67.1879 16.348C67.2039 16.348 67.2359 16.328 67.2839 16.288C67.3319 16.256 67.3599 16.232 67.3679 16.216C67.3759 16.2 67.3199 16.232 67.1999 16.312L67.1759 16.336C67.1679 16.328 67.1599 16.312 67.1519 16.288C67.1439 16.264 67.1399 16.26 67.1399 16.276C67.1239 16.324 67.1159 16.392 67.1159 16.48C67.1159 16.576 67.1079 16.604 67.0919 16.564C67.0759 16.524 67.0679 16.46 67.0679 16.372C67.0679 16.292 67.0599 16.216 67.0439 16.144C67.0199 16.104 66.9959 16.06 66.9719 16.012C66.9559 15.972 66.9359 15.932 66.9119 15.892C66.8959 15.892 66.8879 15.884 66.8879 15.868C66.8719 15.852 66.8519 15.832 66.8279 15.808C66.8119 15.784 66.8079 15.776 66.8159 15.784C66.8079 15.768 66.7999 15.752 66.7919 15.736C66.7839 15.72 66.7759 15.708 66.7679 15.7C66.7359 15.62 66.7079 15.54 66.6839 15.46C66.6599 15.38 66.6319 15.3 66.5999 15.22C66.5919 15.204 66.5879 15.192 66.5879 15.184C66.5879 15.176 66.5839 15.168 66.5759 15.16C66.5759 15.144 66.5679 15.12 66.5519 15.088C66.5519 15.072 66.5479 15.06 66.5399 15.052C66.5399 15.044 66.5359 15.032 66.5279 15.016C66.5279 15 66.5239 14.992 66.5159 14.992C66.5159 14.976 66.5079 14.952 66.4919 14.92C66.4919 14.912 66.4919 14.908 66.4919 14.908C66.4919 14.908 66.4759 14.908 66.4439 14.908C66.4359 14.924 66.4319 14.948 66.4319 14.98C66.4319 15.012 66.4159 15.036 66.3839 15.052C66.3679 15.092 66.3479 15.136 66.3239 15.184C66.2999 15.224 66.2759 15.264 66.2519 15.304C66.1959 15.408 66.1399 15.524 66.0839 15.652C66.0359 15.772 65.9839 15.9 65.9279 16.036C65.8959 16.132 65.8599 16.228 65.8199 16.324C65.7879 16.42 65.7519 16.508 65.7119 16.588C65.6799 16.66 65.6479 16.732 65.6159 16.804C65.5839 16.884 65.5479 16.956 65.5079 17.02C65.4999 17.036 65.4839 17.056 65.4599 17.08C65.4439 17.112 65.4199 17.128 65.3879 17.128C65.3559 17.136 65.3239 17.124 65.2919 17.092C65.2599 17.044 65.2319 16.992 65.2079 16.936C65.1919 16.88 65.1759 16.824 65.1599 16.768C65.1199 16.68 65.0839 16.576 65.0519 16.456C65.0199 16.336 64.9919 16.212 64.9679 16.084C64.9359 15.956 64.9039 15.832 64.8719 15.712C64.8479 15.592 64.8159 15.488 64.7759 15.4L64.7399 15.304C64.7319 15.288 64.7239 15.272 64.7159 15.256C64.7159 15.24 64.7119 15.22 64.7039 15.196C64.6879 15.164 64.6759 15.136 64.6679 15.112C64.6599 15.104 64.6519 15.096 64.6439 15.088C64.6359 15.072 64.6319 15.072 64.6319 15.088C64.6159 15.168 64.6079 15.256 64.6079 15.352C64.6079 15.44 64.5999 15.528 64.5839 15.616C64.5759 15.648 64.5679 15.64 64.5599 15.592C64.5519 15.536 64.5439 15.496 64.5359 15.472C64.4799 15.36 64.4639 15.292 64.4879 15.268C64.5119 15.244 64.5359 15.224 64.5599 15.208C64.5839 15.192 64.5639 15.14 64.4999 15.052C64.4919 15.052 64.4799 15.068 64.4639 15.1C64.4559 15.108 64.4519 15.116 64.4519 15.124C64.4519 15.132 64.4479 15.14 64.4399 15.148C64.4239 15.172 64.4079 15.196 64.3919 15.22C64.3759 15.236 64.3559 15.252 64.3319 15.268C64.3159 15.284 64.3039 15.292 64.2959 15.292C64.2879 15.38 64.2799 15.472 64.2719 15.568C64.2719 15.656 64.2639 15.744 64.2479 15.832C64.2479 15.84 64.2399 15.848 64.2239 15.856C64.2079 15.864 64.1999 15.864 64.1999 15.856C64.1839 15.76 64.1759 15.664 64.1759 15.568C64.1759 15.464 64.1679 15.36 64.1519 15.256C64.1119 15.216 64.0759 15.168 64.0439 15.112C64.0119 15.056 63.9839 15.012 63.9599 14.98C63.8879 14.836 63.8559 14.768 63.8639 14.776C63.8719 14.776 63.8839 14.8 63.8999 14.848C63.9159 14.904 63.9159 14.94 63.8999 14.956C63.8759 15.004 63.8639 15.032 63.8639 15.04C63.8559 15.064 63.8479 15.088 63.8399 15.112C63.8319 15.128 63.8239 15.148 63.8159 15.172C63.7999 15.22 63.7839 15.268 63.7679 15.316C63.7519 15.364 63.7359 15.408 63.7199 15.448L63.6479 15.652C63.6399 15.684 63.6279 15.716 63.6119 15.748C63.5959 15.772 63.5799 15.796 63.5639 15.82C63.5399 15.86 63.5079 15.892 63.4679 15.916C63.4519 15.932 63.4359 15.956 63.4199 15.988L63.3839 16.072C63.3679 16.136 63.3479 16.204 63.3239 16.276C63.2999 16.348 63.2759 16.416 63.2519 16.48C63.2519 16.488 63.2479 16.492 63.2399 16.492C63.2399 16.5 63.2399 16.504 63.2399 16.504C63.2319 16.56 63.2199 16.612 63.2039 16.66C63.1879 16.716 63.1719 16.772 63.1559 16.828C63.1479 16.836 63.1439 16.848 63.1439 16.864C63.1439 16.88 63.1399 16.896 63.1319 16.912C63.1079 17.008 63.0839 17.104 63.0599 17.2C63.0439 17.304 63.0199 17.4 62.9879 17.488C62.9719 17.568 62.9519 17.644 62.9279 17.716C62.9039 17.788 62.8799 17.86 62.8559 17.932C62.8479 17.964 62.8319 17.996 62.8079 18.028C62.7919 18.068 62.7759 18.108 62.7599 18.148L62.6879 18.244C62.6639 18.268 62.6319 18.288 62.5919 18.304C62.5839 18.392 62.5759 18.48 62.5679 18.568C62.5679 18.664 62.5599 18.756 62.5439 18.844C62.5359 18.86 62.5239 18.876 62.5079 18.892C62.4919 18.908 62.4839 18.912 62.4839 18.904C62.4679 18.792 62.4599 18.684 62.4599 18.58C62.4599 18.476 62.4519 18.372 62.4359 18.268C62.4199 18.252 62.4039 18.236 62.3879 18.22C62.3799 18.204 62.3679 18.192 62.3519 18.184L62.2439 18.064C62.2359 18.048 62.2239 18.032 62.2079 18.016C62.1999 18 62.1879 17.984 62.1719 17.968C62.1399 17.92 62.1039 17.872 62.0639 17.824C62.0319 17.776 62.0039 17.728 61.9799 17.68C61.8919 17.528 61.8159 17.372 61.7519 17.212C61.6879 17.06 61.6199 16.908 61.5479 16.756C61.5159 16.692 61.4839 16.624 61.4519 16.552C61.4199 16.488 61.3839 16.424 61.3439 16.36C61.3359 16.352 61.3279 16.344 61.3199 16.336C61.3199 16.328 61.3159 16.32 61.3079 16.312C61.2919 16.28 61.2719 16.252 61.2479 16.228C61.2159 16.196 61.1919 16.176 61.1759 16.168C61.1759 16.168 61.1719 16.164 61.1639 16.156C61.1639 16.156 61.1639 16.152 61.1639 16.144C61.1559 16.144 61.1519 16.14 61.1519 16.132C61.1519 16.132 61.1479 16.132 61.1399 16.132C61.1159 16.172 61.0999 16.216 61.0919 16.264C61.0919 16.312 61.0799 16.356 61.0559 16.396C61.0559 16.428 61.0439 16.444 61.0199 16.444C60.9879 16.452 60.9639 16.424 60.9479 16.36C60.9399 16.304 60.9359 16.284 60.9359 16.3C60.9039 16.468 60.8919 16.504 60.8999 16.408C60.9159 16.312 60.9079 16.176 60.8759 16C60.8679 15.992 60.8599 15.988 60.8519 15.988C60.8439 15.988 60.8359 15.984 60.8279 15.976C60.8039 15.968 60.7719 15.944 60.7319 15.904C60.7159 15.888 60.6999 15.864 60.6839 15.832C60.6679 15.8 60.6639 15.752 60.6719 15.688C60.6799 15.64 60.6919 15.592 60.7079 15.544C60.7239 15.496 60.7399 15.452 60.7559 15.412C60.7719 15.356 60.7879 15.308 60.8039 15.268C60.8279 15.22 60.8439 15.192 60.8519 15.184L61.2599 14.02C61.2999 13.86 61.3359 13.708 61.3679 13.564C61.4079 13.412 61.4519 13.288 61.4999 13.192C61.4999 13.184 61.4999 13.176 61.4999 13.168C61.5079 13.16 61.5119 13.152 61.5119 13.144C61.5279 13.112 61.5399 13.08 61.5479 13.048C61.5639 13.016 61.5799 12.984 61.5959 12.952C61.6119 12.92 61.6279 12.892 61.6439 12.868C61.6599 12.836 61.6719 12.812 61.6799 12.796L62.3039 11.008C62.3439 10.864 62.3799 10.728 62.4119 10.6C62.4519 10.464 62.4879 10.356 62.5199 10.276C62.5439 10.196 62.5639 10.12 62.5799 10.048C62.6039 9.968 62.6279 9.896 62.6519 9.832C62.6759 9.744 62.7039 9.664 62.7359 9.592C62.8239 9.328 62.9039 9.16 62.9759 9.088L63.1919 8.464L63.3599 7.996C63.3839 7.908 63.4399 7.82 63.5279 7.732C63.6159 7.644 63.7479 7.6 63.9239 7.6H66.5039C66.5999 7.6 66.6799 7.616 66.7439 7.648C66.7679 7.656 66.8039 7.676 66.8519 7.708C66.9079 7.748 66.9519 7.796 66.9839 7.852C67.0159 7.908 67.0439 7.968 67.0679 8.032C67.0679 8.048 67.0759 8.072 67.0919 8.104L67.1279 8.224C67.1359 8.24 67.1399 8.26 67.1399 8.284C67.1479 8.308 67.1559 8.328 67.1639 8.344L67.2719 8.608C67.2719 8.616 67.2719 8.624 67.2719 8.632C67.2799 8.632 67.2839 8.636 67.2839 8.644C67.2999 8.676 67.3079 8.704 67.3079 8.728C67.3319 8.784 67.3519 8.844 67.3679 8.908C67.3919 8.972 67.4119 9.036 67.4279 9.1C67.4359 9.116 67.4439 9.136 67.4519 9.16C67.4599 9.184 67.4679 9.204 67.4759 9.22L67.4999 9.304C67.5479 9.352 67.5999 9.448 67.6559 9.592C67.7199 9.728 67.7839 9.896 67.8479 10.096L67.8839 10.216C67.9399 10.344 67.9879 10.476 68.0279 10.612C68.0759 10.748 68.1159 10.884 68.1479 11.02C68.1879 11.1 68.2279 11.212 68.2679 11.356C68.3079 11.5 68.3439 11.652 68.3759 11.812L68.9639 13.48C69.0119 13.56 69.0599 13.68 69.1079 13.84C69.1639 13.992 69.2199 14.164 69.2759 14.356C69.2919 14.396 69.3039 14.436 69.3119 14.476C69.3279 14.516 69.3399 14.556 69.3479 14.596L69.6119 15.352C69.6359 15.392 69.6519 15.436 69.6599 15.484ZM65.1839 10.384C65.1839 10.392 65.1799 10.404 65.1719 10.42C65.1639 10.436 65.1599 10.452 65.1599 10.468C65.1439 10.524 65.1239 10.58 65.0999 10.636C65.0839 10.692 65.0679 10.752 65.0519 10.816L64.7759 11.752C64.7679 11.784 64.7599 11.816 64.7519 11.848C64.7439 11.872 64.7319 11.904 64.7159 11.944C64.7079 11.992 64.6959 12.044 64.6799 12.1C64.6639 12.148 64.6479 12.2 64.6319 12.256C64.6239 12.288 64.6159 12.32 64.6079 12.352C64.5999 12.384 64.5879 12.416 64.5719 12.448C64.5639 12.456 64.5599 12.468 64.5599 12.484C64.5599 12.492 64.5559 12.504 64.5479 12.52C64.5479 12.52 64.5479 12.524 64.5479 12.532C64.5479 12.532 64.5439 12.532 64.5359 12.532C64.5359 12.54 64.5319 12.548 64.5239 12.556C64.5239 12.556 64.5239 12.56 64.5239 12.568H65.5559C65.5959 12.568 65.6359 12.568 65.6759 12.568C65.7159 12.56 65.7519 12.56 65.7839 12.568H65.8799L65.8439 12.436C65.8279 12.396 65.8159 12.36 65.8079 12.328C65.7999 12.288 65.7879 12.252 65.7719 12.22L65.7359 12.112C65.7039 12.024 65.6719 11.928 65.6399 11.824C65.6159 11.712 65.5879 11.604 65.5559 11.5C65.5479 11.492 65.5439 11.476 65.5439 11.452L65.3399 10.816L65.2679 10.564C65.2679 10.564 65.2599 10.548 65.2439 10.516C65.2359 10.476 65.2279 10.44 65.2199 10.408C65.2119 10.4 65.2079 10.396 65.2079 10.396C65.2079 10.388 65.1999 10.384 65.1839 10.384ZM77.0865 15.46C77.0865 15.484 77.0865 15.508 77.0865 15.532C77.0945 15.556 77.0985 15.58 77.0985 15.604C77.0985 15.636 77.0945 15.668 77.0865 15.7C77.0865 15.724 77.0825 15.752 77.0745 15.784L77.0385 15.844C77.0385 15.852 77.0305 15.864 77.0145 15.88C77.0065 15.888 77.0025 15.892 77.0025 15.892C76.9705 15.924 76.9425 15.948 76.9185 15.964C76.9105 15.972 76.9025 15.976 76.8945 15.976C76.8945 15.976 76.8905 15.98 76.8825 15.988C76.8585 16.012 76.8345 16.036 76.8105 16.06C76.7945 16.084 76.7705 16.104 76.7385 16.12C76.7225 16.136 76.7065 16.148 76.6905 16.156C76.6825 16.172 76.6585 16.188 76.6185 16.204C76.5865 16.212 76.5505 16.224 76.5105 16.24C76.4785 16.256 76.4465 16.26 76.4145 16.252C76.3825 16.236 76.3625 16.22 76.3545 16.204C76.3465 16.188 76.3345 16.168 76.3185 16.144L76.2705 16.096C76.2385 16.112 76.2345 16.144 76.2585 16.192C76.2825 16.24 76.2745 16.34 76.2345 16.492L76.1385 16.624C76.1305 16.632 76.1185 16.648 76.1025 16.672C76.0945 16.696 76.0905 16.7 76.0905 16.684C76.0745 16.604 76.0665 16.52 76.0665 16.432C76.0745 16.344 76.0705 16.26 76.0545 16.18C76.0465 16.18 76.0425 16.18 76.0425 16.18C76.0425 16.188 76.0425 16.192 76.0425 16.192C76.0265 16.216 76.0065 16.24 75.9825 16.264C75.9585 16.288 75.9385 16.308 75.9225 16.324L75.8625 16.384C75.8545 16.384 75.8505 16.384 75.8505 16.384C75.8505 16.392 75.8465 16.396 75.8385 16.396C75.8065 16.436 75.7665 16.476 75.7185 16.516C75.6785 16.556 75.6385 16.596 75.5985 16.636C75.5825 16.652 75.5585 16.668 75.5265 16.684C75.5105 16.86 75.4985 17.056 75.4905 17.272C75.4905 17.488 75.4825 17.688 75.4665 17.872C75.4665 17.88 75.4585 17.872 75.4425 17.848C75.4265 17.832 75.4185 17.82 75.4185 17.812C75.4025 17.628 75.3945 17.432 75.3945 17.224C75.3945 17.024 75.3865 16.836 75.3705 16.66C75.3305 16.62 75.2985 16.576 75.2745 16.528C75.2585 16.496 75.2425 16.464 75.2265 16.432C75.2185 16.408 75.2065 16.38 75.1905 16.348L75.1545 16.276H75.1305C75.1225 16.284 75.1105 16.284 75.0945 16.276C75.0865 16.268 75.0825 16.272 75.0825 16.288C75.0665 16.464 75.0585 16.656 75.0585 16.864C75.0585 17.072 75.0505 17.268 75.0345 17.452L74.9385 17.476C74.9305 17.476 74.9225 17.476 74.9145 17.476C74.9065 17.484 74.8985 17.488 74.8905 17.488C74.8585 17.488 74.8425 17.492 74.8425 17.5C74.8265 17.316 74.8185 17.112 74.8185 16.888C74.8185 16.672 74.8105 16.476 74.7945 16.3C74.7945 16.3 74.7625 16.3 74.6985 16.3L74.6625 16.336C74.6625 16.336 74.6585 16.336 74.6505 16.336C74.6505 16.344 74.6465 16.348 74.6385 16.348L74.5545 16.432C74.5385 16.448 74.5225 16.48 74.5065 16.528C74.4985 16.544 74.4865 16.56 74.4705 16.576C74.4625 16.6 74.4585 16.62 74.4585 16.636C74.4505 16.796 74.4425 16.956 74.4345 17.116C74.4345 17.284 74.4265 17.448 74.4105 17.608C74.4105 17.688 74.3945 17.756 74.3625 17.812C74.3545 17.82 74.3425 17.816 74.3265 17.8C74.3105 17.792 74.3025 17.784 74.3025 17.776C74.2865 17.592 74.2785 17.408 74.2785 17.224C74.2865 17.048 74.2785 16.872 74.2545 16.696C74.2545 16.656 74.2505 16.672 74.2425 16.744C74.2425 16.824 74.2385 16.9 74.2305 16.972C74.2305 17.044 74.2225 17.064 74.2065 17.032C74.1745 16.936 74.1625 16.836 74.1705 16.732C74.1865 16.636 74.1865 16.54 74.1705 16.444C74.1625 16.436 74.1545 16.428 74.1465 16.42C74.1385 16.412 74.1305 16.404 74.1225 16.396C74.1065 16.38 74.0905 16.36 74.0745 16.336C74.0585 16.32 74.0425 16.304 74.0265 16.288C74.0105 16.264 73.9945 16.24 73.9785 16.216C73.9625 16.2 73.9465 16.184 73.9305 16.168L73.8705 16.096C73.8625 16.136 73.8585 16.176 73.8585 16.216C73.8585 16.264 73.8505 16.308 73.8345 16.348C73.8345 16.356 73.8265 16.36 73.8105 16.36C73.8025 16.368 73.7945 16.376 73.7865 16.384C73.7785 16.392 73.7705 16.396 73.7625 16.396C73.7545 16.404 73.7465 16.416 73.7385 16.432C73.7065 16.464 73.6905 16.476 73.6905 16.468C73.6745 16.412 73.6665 16.356 73.6665 16.3C73.6745 16.252 73.6705 16.204 73.6545 16.156C73.6305 16.188 73.6065 16.216 73.5825 16.24C73.5585 16.272 73.5305 16.3 73.4985 16.324C73.4505 16.372 73.4145 16.4 73.3905 16.408C73.3825 16.448 73.3745 16.488 73.3665 16.528C73.3665 16.576 73.3625 16.62 73.3545 16.66C73.3465 16.684 73.3385 16.708 73.3305 16.732C73.3305 16.764 73.3225 16.792 73.3065 16.816C73.2745 16.848 73.2545 16.852 73.2465 16.828C73.2225 16.788 73.2025 16.708 73.1865 16.588C73.1785 16.476 73.1705 16.412 73.1625 16.396C73.1545 16.396 73.1425 16.392 73.1265 16.384C73.1185 16.376 73.1185 16.372 73.1265 16.372L73.1025 16.348C73.0705 16.316 73.0425 16.276 73.0185 16.228C73.0025 16.188 72.9865 16.152 72.9705 16.12C72.9705 16.112 72.9665 16.108 72.9585 16.108C72.9585 16.108 72.9585 16.104 72.9585 16.096C72.9505 16.136 72.9465 16.176 72.9465 16.216C72.9465 16.256 72.9385 16.296 72.9225 16.336C72.9145 16.344 72.9065 16.348 72.8985 16.348C72.8905 16.356 72.8825 16.368 72.8745 16.384C72.8665 16.392 72.8585 16.408 72.8505 16.432C72.8425 16.456 72.8345 16.464 72.8265 16.456C72.8185 16.408 72.8105 16.36 72.8025 16.312C72.8025 16.264 72.7985 16.22 72.7905 16.18C72.7745 16.212 72.7585 16.24 72.7425 16.264C72.7265 16.296 72.7065 16.328 72.6825 16.36C72.5945 16.488 72.5105 16.616 72.4305 16.744C72.3505 16.872 72.2745 17.004 72.2025 17.14C72.2105 17.124 72.2025 17.14 72.1785 17.188C72.1545 17.236 72.1265 17.28 72.0945 17.32L72.0825 17.332C72.0665 17.348 72.0425 17.364 72.0105 17.38C72.0025 17.404 71.9945 17.428 71.9865 17.452C71.9865 17.484 71.9785 17.516 71.9625 17.548C71.9545 17.564 71.9465 17.584 71.9385 17.608C71.9385 17.632 71.9305 17.652 71.9145 17.668C71.8985 17.692 71.8825 17.696 71.8665 17.68C71.8425 17.648 71.8225 17.584 71.8065 17.488C71.7985 17.392 71.7905 17.34 71.7825 17.332L71.7105 17.26C71.7105 17.244 71.7025 17.236 71.6865 17.236C71.6785 17.204 71.6665 17.18 71.6505 17.164C71.6345 17.148 71.6265 17.14 71.6265 17.14C71.5945 17.092 71.5625 17.04 71.5305 16.984C71.4985 16.936 71.4665 16.888 71.4345 16.84C71.3865 16.768 71.3345 16.696 71.2785 16.624C71.2305 16.552 71.1785 16.48 71.1225 16.408C71.0905 16.368 71.0585 16.328 71.0265 16.288C71.0025 16.256 70.9705 16.224 70.9305 16.192C70.9065 16.168 70.8785 16.144 70.8465 16.12C70.8225 16.096 70.8105 16.084 70.8105 16.084C70.8105 16.084 70.8025 16.076 70.7865 16.06C70.7785 16.052 70.7665 16.044 70.7505 16.036C70.7425 16.156 70.7385 16.336 70.7385 16.576C70.7385 16.816 70.7345 17.056 70.7265 17.296C70.7265 17.536 70.7225 17.716 70.7145 17.836C70.7145 17.844 70.7105 17.836 70.7025 17.812C70.6945 17.788 70.6905 17.772 70.6905 17.764C70.6665 17.428 70.6585 17.132 70.6665 16.876C70.6825 16.62 70.6625 16.324 70.6065 15.988C70.5585 15.964 70.5225 15.94 70.4985 15.916C70.4425 15.868 70.4065 15.8 70.3905 15.712C70.3745 15.624 70.3705 15.536 70.3785 15.448C70.3865 15.352 70.3905 15.264 70.3905 15.184V8.164C70.3905 8.124 70.3865 8.084 70.3785 8.044C70.3785 7.996 70.3825 7.952 70.3905 7.912C70.3905 7.88 70.3985 7.84 70.4145 7.792C70.4305 7.76 70.4425 7.74 70.4505 7.732C70.4665 7.708 70.4825 7.688 70.4985 7.672C70.5225 7.656 70.5425 7.644 70.5585 7.636C70.5745 7.628 70.5905 7.624 70.6065 7.624C70.6225 7.616 70.6385 7.612 70.6545 7.612C70.6865 7.596 70.7185 7.588 70.7505 7.588C70.7825 7.588 70.8145 7.588 70.8465 7.588C70.8945 7.588 70.9465 7.592 71.0025 7.6C71.0585 7.6 71.1065 7.6 71.1465 7.6H72.9705C73.0105 7.6 73.0505 7.6 73.0905 7.6C73.1385 7.592 73.1825 7.596 73.2225 7.612C73.2625 7.62 73.2905 7.636 73.3065 7.66C73.3225 7.676 73.3345 7.688 73.3425 7.696C73.3905 7.728 73.4185 7.772 73.4265 7.828C73.4345 7.876 73.4385 7.924 73.4385 7.972C73.4465 8.14 73.4465 8.308 73.4385 8.476C73.4385 8.644 73.4385 8.812 73.4385 8.98V13.444L73.4865 13.54H76.7625C76.8265 13.54 76.8905 13.56 76.9545 13.6L77.0265 13.672L77.0625 13.744C77.0785 13.776 77.0865 13.808 77.0865 13.84C77.0945 13.896 77.0945 13.956 77.0865 14.02C77.0865 14.084 77.0865 14.144 77.0865 14.2V15.46ZM82.2604 13.084C82.2604 13.132 82.2564 13.18 82.2484 13.228C82.2484 13.268 82.2484 13.296 82.2484 13.312C82.2484 13.328 82.2404 13.352 82.2244 13.384C82.2404 13.368 82.2364 13.376 82.2124 13.408C82.1884 13.44 82.1724 13.46 82.1644 13.468L82.1164 13.516C82.1004 13.532 82.0844 13.54 82.0684 13.54C82.0684 13.548 82.0604 13.56 82.0444 13.576C82.0364 13.592 82.0244 13.616 82.0084 13.648C82.0004 13.672 81.9884 13.692 81.9724 13.708L81.9004 13.816C81.8444 13.896 81.7844 13.98 81.7204 14.068C81.6564 14.148 81.5924 14.232 81.5284 14.32L81.4564 14.428L81.3964 14.488C81.3884 14.496 81.3724 14.508 81.3484 14.524C81.3324 14.54 81.3284 14.544 81.3364 14.536C81.3364 14.536 81.3324 14.536 81.3244 14.536C81.3244 14.536 81.3204 14.54 81.3124 14.548C81.3044 14.612 81.2924 14.736 81.2764 14.92C81.2604 15.096 81.2404 15.228 81.2164 15.316C81.1924 15.34 81.1724 15.348 81.1564 15.34C81.1484 15.316 81.1404 15.288 81.1324 15.256C81.1244 15.224 81.1164 15.192 81.1084 15.16C81.0924 15.072 81.0804 14.984 81.0724 14.896C81.0724 14.8 81.0564 14.708 81.0244 14.62C80.9844 14.652 80.9484 14.692 80.9164 14.74C80.8844 14.788 80.8524 14.84 80.8204 14.896C80.8124 14.928 80.8004 14.952 80.7844 14.968C80.7684 14.984 80.7524 15 80.7364 15.016C80.7364 15.016 80.7324 15.016 80.7244 15.016C80.7244 15.016 80.7244 15.02 80.7244 15.028C80.7164 15.028 80.7084 15.032 80.7004 15.04C80.7004 15.04 80.6964 15.04 80.6884 15.04C80.6804 15.128 80.6884 15.264 80.7124 15.448C80.7364 15.632 80.7564 15.816 80.7724 16C80.7964 16.184 80.8004 16.332 80.7844 16.444C80.7684 16.556 80.7164 16.588 80.6284 16.54C80.5404 16.492 80.4884 16.404 80.4724 16.276C80.4644 16.148 80.4684 16.004 80.4844 15.844C80.5084 15.676 80.5324 15.516 80.5564 15.364C80.5804 15.212 80.5844 15.084 80.5684 14.98L80.5564 14.968L80.4364 14.788C80.4204 14.772 80.4124 14.76 80.4124 14.752C80.4044 14.752 80.4004 14.752 80.4004 14.752C80.4004 14.744 80.4004 14.74 80.4004 14.74C80.3844 14.724 80.3604 14.708 80.3284 14.692C80.3044 14.684 80.2964 14.712 80.3044 14.776C80.3124 14.84 80.3204 14.916 80.3284 15.004C80.3364 15.084 80.3204 15.148 80.2804 15.196C80.2484 15.228 80.2324 15.22 80.2324 15.172C80.2324 15.124 80.2324 15.06 80.2324 14.98C80.2404 14.9 80.2404 14.836 80.2324 14.788C80.2004 14.756 80.1844 14.744 80.1844 14.752C80.1684 14.784 80.1604 14.832 80.1604 14.896C80.1604 14.96 80.1524 14.976 80.1364 14.944C80.1124 14.888 80.1004 14.848 80.1004 14.824C80.1084 14.8 80.1124 14.768 80.1124 14.728C80.1204 14.688 80.1044 14.62 80.0644 14.524C80.0084 14.436 79.9564 14.328 79.9084 14.2C79.8604 14.064 79.8204 13.968 79.7884 13.912C79.7804 13.896 79.7684 13.88 79.7524 13.864C79.7364 13.848 79.7124 13.816 79.6804 13.768C79.6724 13.768 79.6644 13.768 79.6564 13.768C79.6564 13.76 79.6524 13.756 79.6444 13.756C79.6124 13.756 79.5964 13.756 79.5964 13.756C79.5804 13.868 79.5724 13.984 79.5724 14.104C79.5724 14.224 79.5644 14.34 79.5484 14.452C79.5164 14.444 79.4844 14.44 79.4524 14.44C79.4044 14.456 79.3724 14.472 79.3564 14.488C79.3244 14.52 79.2884 14.56 79.2484 14.608C79.2164 14.656 79.1724 14.684 79.1164 14.692C79.1084 14.692 79.0884 14.688 79.0564 14.68C79.0324 14.672 79.0204 14.664 79.0204 14.656C79.0124 14.512 79.0044 14.368 78.9964 14.224C78.9964 14.08 78.9884 13.932 78.9724 13.78C78.9724 13.772 78.9684 13.768 78.9604 13.768C78.9604 13.768 78.9604 13.772 78.9604 13.78C78.9444 13.82 78.9364 13.864 78.9364 13.912C78.9364 13.96 78.9284 14.008 78.9124 14.056C78.9044 14.064 78.8924 14.076 78.8764 14.092C78.8684 14.108 78.8604 14.112 78.8524 14.104C78.8444 14.064 78.8364 14.024 78.8284 13.984C78.8284 13.936 78.8244 13.892 78.8164 13.852C78.8084 13.948 78.8044 14.044 78.8044 14.14C78.8044 14.236 78.7964 14.332 78.7804 14.428C78.7804 14.444 78.7764 14.44 78.7684 14.416C78.7604 14.392 78.7484 14.376 78.7324 14.368C78.7244 14.328 78.7084 14.3 78.6844 14.284C78.6604 14.244 78.6364 14.2 78.6124 14.152C78.5964 14.104 78.5764 14.06 78.5524 14.02C78.5364 13.996 78.5164 13.972 78.4924 13.948C78.4764 13.924 78.4644 13.896 78.4564 13.864C78.4484 13.848 78.4444 13.832 78.4444 13.816C78.4444 13.792 78.4404 13.772 78.4324 13.756C78.4164 13.78 78.4084 13.808 78.4084 13.84C78.4084 13.872 78.3964 13.896 78.3724 13.912C78.3644 13.928 78.3484 13.912 78.3244 13.864L78.2644 13.828C78.2484 13.812 78.2284 13.796 78.2044 13.78C78.1884 13.764 78.1724 13.748 78.1564 13.732C78.1244 13.692 78.0964 13.656 78.0724 13.624C78.0484 13.592 77.9964 13.572 77.9164 13.564C77.8844 13.548 77.8564 13.532 77.8324 13.516C77.7444 13.452 77.7004 13.364 77.7004 13.252V11.884C77.7004 11.844 77.6964 11.804 77.6884 11.764C77.6884 11.724 77.6884 11.684 77.6884 11.644C77.6884 11.62 77.6924 11.6 77.7004 11.584V11.512C77.7244 11.32 77.8444 11.224 78.0604 11.224H81.2644C81.3444 11.224 81.4444 11.224 81.5644 11.224C81.6924 11.216 81.8124 11.216 81.9244 11.224C82.1164 11.224 82.2244 11.32 82.2484 11.512C82.2644 11.568 82.2684 11.632 82.2604 11.704C82.2524 11.776 82.2484 11.84 82.2484 11.896V11.968C82.2484 12.12 82.2484 12.3 82.2484 12.508C82.2564 12.716 82.2604 12.908 82.2604 13.084ZM88.3409 17.008C88.3329 17.016 88.3249 17.032 88.3169 17.056C88.3169 17.08 88.3089 17.092 88.2929 17.092C88.2769 17.084 88.2649 17.068 88.2569 17.044C88.2569 17.02 88.2489 16.996 88.2329 16.972C88.2249 16.972 88.2169 16.968 88.2089 16.96C88.2009 16.96 88.1969 16.956 88.1969 16.948C88.1969 16.948 88.1929 16.948 88.1849 16.948C88.1049 16.868 88.0289 16.784 87.9569 16.696C87.8849 16.608 87.8049 16.524 87.7169 16.444C87.7089 16.428 87.6929 16.408 87.6689 16.384C87.6529 16.368 87.6329 16.348 87.6089 16.324C87.5849 16.308 87.5609 16.292 87.5369 16.276C87.5289 16.276 87.5209 16.28 87.5129 16.288C87.5129 16.304 87.5089 16.316 87.5009 16.324C87.4689 16.372 87.4409 16.4 87.4169 16.408C87.3929 16.416 87.3649 16.404 87.3329 16.372C87.3249 16.364 87.3129 16.348 87.2969 16.324C87.2889 16.308 87.2849 16.308 87.2849 16.324C87.2769 16.404 87.2769 16.484 87.2849 16.564C87.3009 16.652 87.2889 16.732 87.2489 16.804C87.2329 16.836 87.2209 16.828 87.2129 16.78C87.2129 16.74 87.2129 16.684 87.2129 16.612C87.2209 16.54 87.2209 16.484 87.2129 16.444C87.2049 16.388 87.1969 16.332 87.1889 16.276C87.1889 16.228 87.1889 16.176 87.1889 16.12H87.0929C86.8289 16.112 86.5689 16.088 86.3129 16.048C86.2569 16.04 86.1969 16.032 86.1329 16.024C86.0769 16.016 86.0209 16.008 85.9649 16C85.8449 15.976 85.7529 15.952 85.6889 15.928C85.5849 15.896 85.4809 15.86 85.3769 15.82C85.2729 15.78 85.1689 15.736 85.0649 15.688C84.9769 15.648 84.8929 15.608 84.8129 15.568C84.7329 15.52 84.6569 15.468 84.5849 15.412L84.4049 15.268C84.3729 15.244 84.3409 15.22 84.3089 15.196C84.2849 15.172 84.2609 15.148 84.2369 15.124C84.2289 15.116 84.2209 15.108 84.2129 15.1C84.2129 15.092 84.2049 15.084 84.1889 15.076C83.9729 14.844 83.7969 14.58 83.6609 14.284C83.5329 13.98 83.4489 13.632 83.4089 13.24C83.3929 13.104 83.3849 12.964 83.3849 12.82C83.3849 12.676 83.3849 12.532 83.3849 12.388V8.404C83.3849 8.332 83.3809 8.252 83.3729 8.164C83.3729 8.068 83.3769 7.98 83.3849 7.9C83.4009 7.724 83.4969 7.624 83.6729 7.6H85.7729C85.8529 7.6 85.9369 7.6 86.0249 7.6C86.1129 7.592 86.1889 7.612 86.2529 7.66C86.2849 7.684 86.3129 7.712 86.3369 7.744C86.3529 7.768 86.3649 7.796 86.3729 7.828C86.3809 7.852 86.3849 7.884 86.3849 7.924V12.292C86.3849 12.412 86.3889 12.56 86.3969 12.736C86.4129 12.904 86.4449 13.068 86.4929 13.228C86.5489 13.38 86.6369 13.5 86.7569 13.588C86.7809 13.596 86.8049 13.608 86.8289 13.624C86.8529 13.632 86.8769 13.64 86.9009 13.648C86.9329 13.664 86.9609 13.672 86.9849 13.672C87.0809 13.696 87.1769 13.708 87.2729 13.708C87.3769 13.708 87.4769 13.696 87.5729 13.672L87.6809 13.636C87.7289 13.62 87.7649 13.604 87.7889 13.588C87.8529 13.54 87.9049 13.48 87.9449 13.408C87.9929 13.336 88.0329 13.26 88.0649 13.18L88.1009 13.036C88.1329 12.908 88.1489 12.784 88.1489 12.664C88.1569 12.536 88.1609 12.412 88.1609 12.292V7.924C88.1609 7.876 88.1649 7.84 88.1729 7.816C88.1889 7.792 88.2049 7.764 88.2209 7.732C88.2609 7.668 88.3049 7.632 88.3529 7.624C88.4089 7.608 88.4609 7.6 88.5089 7.6H90.8849C90.9649 7.608 91.0289 7.644 91.0769 7.708C91.1329 7.764 91.1609 7.836 91.1609 7.924C91.1769 7.996 91.1809 8.072 91.1729 8.152C91.1649 8.224 91.1609 8.292 91.1609 8.356V12.808C91.1609 12.88 91.1609 12.964 91.1609 13.06C91.1609 13.156 91.1529 13.248 91.1369 13.336C91.1289 13.424 91.1129 13.512 91.0889 13.6C91.0729 13.68 91.0569 13.76 91.0409 13.84C91.0089 13.984 90.9729 14.116 90.9329 14.236C90.8929 14.348 90.8409 14.436 90.7769 14.5C90.7529 14.556 90.7209 14.612 90.6809 14.668C90.6249 14.772 90.5569 14.864 90.4769 14.944C90.4769 14.944 90.4729 14.948 90.4649 14.956C90.4649 14.956 90.4649 14.96 90.4649 14.968C90.4409 14.976 90.4169 14.996 90.3929 15.028C90.3689 15.06 90.3529 15.08 90.3449 15.088L90.2489 15.184C90.2169 15.216 90.1929 15.236 90.1769 15.244L90.1049 15.304C90.1049 15.304 90.1009 15.308 90.0929 15.316C90.0929 15.316 90.0929 15.32 90.0929 15.328C90.0689 15.376 90.0489 15.428 90.0329 15.484C90.0169 15.532 90.0009 15.584 89.9849 15.64C89.9529 15.72 89.9169 15.796 89.8769 15.868C89.8449 15.94 89.8009 16.008 89.7449 16.072L89.6129 16.216C89.5889 16.264 89.5769 16.28 89.5769 16.264C89.5689 16.216 89.5609 16.164 89.5529 16.108C89.5529 16.06 89.5529 16.012 89.5529 15.964L89.4449 16.168C89.4449 16.176 89.4409 16.18 89.4329 16.18C89.4329 16.18 89.4329 16.184 89.4329 16.192C89.4169 16.208 89.3969 16.224 89.3729 16.24C89.3569 16.264 89.3369 16.284 89.3129 16.3C89.2969 16.348 89.2849 16.396 89.2769 16.444C89.2769 16.5 89.2689 16.556 89.2529 16.612C89.2449 16.644 89.2409 16.676 89.2409 16.708C89.2489 16.748 89.2369 16.776 89.2049 16.792C89.1889 16.8 89.1769 16.788 89.1689 16.756C89.1689 16.724 89.1689 16.696 89.1689 16.672C89.1609 16.6 89.1529 16.528 89.1449 16.456C89.1449 16.392 89.1369 16.32 89.1209 16.24C89.1129 16.232 89.1049 16.224 89.0969 16.216C89.0889 16.208 89.0809 16.2 89.0729 16.192C89.0649 16.192 89.0569 16.184 89.0489 16.168C89.0409 16.152 89.0409 16.152 89.0489 16.168C89.0409 16.152 89.0329 16.136 89.0249 16.12C89.0169 16.112 89.0049 16.104 88.9889 16.096C88.9809 16.088 88.9729 16.08 88.9649 16.072C88.9649 16.064 88.9569 16.056 88.9409 16.048C88.9169 16.032 88.8889 16.032 88.8569 16.048C88.8249 16.072 88.7969 16.104 88.7729 16.144C88.7489 16.192 88.7289 16.236 88.7129 16.276C88.6809 16.372 88.6449 16.468 88.6049 16.564C88.5729 16.66 88.5329 16.752 88.4849 16.84V16.852C88.4689 16.884 88.4489 16.916 88.4249 16.948C88.4009 16.98 88.3729 17 88.3409 17.008ZM95.506 15.1C95.506 15.204 95.51 15.312 95.518 15.424C95.526 15.528 95.522 15.632 95.506 15.736C95.506 15.744 95.502 15.752 95.494 15.76C95.494 15.76 95.494 15.768 95.494 15.784C95.47 15.848 95.418 15.908 95.338 15.964C95.314 16.004 95.294 16.044 95.278 16.084C95.262 16.132 95.242 16.176 95.218 16.216C95.218 16.224 95.21 16.244 95.194 16.276C95.178 16.316 95.158 16.332 95.134 16.324C95.102 16.308 95.082 16.276 95.074 16.228C95.066 16.18 95.058 16.152 95.05 16.144L95.014 16.18C94.998 16.196 94.978 16.216 94.954 16.24C94.938 16.264 94.922 16.284 94.906 16.3L94.798 16.456C94.782 16.488 94.762 16.524 94.738 16.564C94.714 16.604 94.686 16.632 94.654 16.648C94.646 16.672 94.638 16.696 94.63 16.72C94.63 16.744 94.622 16.772 94.606 16.804C94.598 16.82 94.59 16.84 94.582 16.864C94.574 16.888 94.562 16.908 94.546 16.924C94.546 16.932 94.538 16.936 94.522 16.936C94.514 16.944 94.506 16.944 94.498 16.936C94.49 16.896 94.482 16.852 94.474 16.804C94.474 16.756 94.47 16.708 94.462 16.66C94.454 16.644 94.446 16.628 94.438 16.612C94.438 16.596 94.43 16.584 94.414 16.576C94.398 16.56 94.382 16.544 94.366 16.528C94.35 16.512 94.334 16.496 94.318 16.48C94.294 16.456 94.274 16.44 94.258 16.432C94.218 16.432 94.186 16.428 94.162 16.42L94.126 16.564C94.118 16.572 94.11 16.588 94.102 16.612C94.094 16.636 94.086 16.644 94.078 16.636C94.062 16.604 94.054 16.568 94.054 16.528C94.062 16.488 94.058 16.452 94.042 16.42C94.034 16.42 94.03 16.42 94.03 16.42C94.03 16.428 94.026 16.432 94.018 16.432C94.018 16.44 94.002 16.46 93.97 16.492C93.97 16.492 93.966 16.492 93.958 16.492C93.958 16.492 93.958 16.496 93.958 16.504C93.958 16.504 93.954 16.508 93.946 16.516C93.946 16.524 93.926 16.54 93.886 16.564C93.878 16.66 93.87 16.756 93.862 16.852C93.862 16.948 93.858 17.044 93.85 17.14C93.834 17.316 93.814 17.544 93.79 17.824C93.774 18.112 93.746 18.348 93.706 18.532C93.698 18.572 93.69 18.608 93.682 18.64C93.682 18.68 93.674 18.72 93.658 18.76C93.634 18.808 93.618 18.828 93.61 18.82C93.586 18.804 93.57 18.78 93.562 18.748C93.562 18.724 93.558 18.704 93.55 18.688C93.542 18.624 93.534 18.564 93.526 18.508C93.518 18.46 93.51 18.408 93.502 18.352C93.494 18.232 93.486 18.08 93.478 17.896C93.478 17.712 93.478 17.528 93.478 17.344C93.478 17.16 93.47 17.008 93.454 16.888C93.454 16.848 93.45 16.864 93.442 16.936C93.442 17.016 93.438 17.092 93.43 17.164C93.43 17.244 93.422 17.268 93.406 17.236C93.374 17.1 93.362 16.996 93.37 16.924C93.378 16.852 93.362 16.724 93.322 16.54C93.306 16.524 93.286 16.504 93.262 16.48C93.246 16.464 93.23 16.444 93.214 16.42L93.046 16.24C93.03 16.224 93.01 16.208 92.986 16.192C92.97 16.176 92.954 16.16 92.938 16.144C92.906 16.12 92.878 16.108 92.854 16.108C92.83 16.108 92.818 16.108 92.818 16.108C92.81 16.164 92.814 16.232 92.83 16.312C92.846 16.4 92.83 16.436 92.782 16.42C92.726 16.404 92.71 16.356 92.734 16.276C92.758 16.196 92.758 16.132 92.734 16.084C92.71 16.028 92.698 16.008 92.698 16.024C92.698 16.04 92.702 16.064 92.71 16.096C92.718 16.128 92.722 16.14 92.722 16.132C92.722 16.132 92.706 16.088 92.674 16C92.666 15.992 92.654 15.988 92.638 15.988C92.63 15.988 92.618 15.984 92.602 15.976C92.474 15.92 92.41 15.816 92.41 15.664C92.402 15.584 92.398 15.504 92.398 15.424C92.406 15.336 92.41 15.256 92.41 15.184V8.164C92.41 8.124 92.406 8.084 92.398 8.044C92.398 7.996 92.402 7.952 92.41 7.912C92.41 7.88 92.418 7.84 92.434 7.792C92.45 7.76 92.462 7.74 92.47 7.732C92.486 7.708 92.502 7.688 92.518 7.672C92.542 7.656 92.562 7.644 92.578 7.636C92.594 7.628 92.61 7.624 92.626 7.624C92.642 7.616 92.658 7.612 92.674 7.612C92.706 7.596 92.738 7.588 92.77 7.588C92.802 7.588 92.834 7.588 92.866 7.588C92.914 7.588 92.966 7.592 93.022 7.6C93.078 7.6 93.126 7.6 93.166 7.6H95.038C95.078 7.6 95.118 7.6 95.158 7.6C95.206 7.592 95.25 7.596 95.29 7.612C95.298 7.62 95.306 7.624 95.314 7.624C95.322 7.624 95.33 7.628 95.338 7.636C95.386 7.652 95.426 7.692 95.458 7.756C95.474 7.78 95.49 7.824 95.506 7.888C95.522 7.968 95.526 8.052 95.518 8.14C95.51 8.22 95.506 8.292 95.506 8.356V15.1Z" fill="white"/>
</g>
<defs>
<filter id="filter0_d_201_71" x="0.900024" y="0.899902" width="108.2" height="30.1934" filterUnits="userSpaceOnUse" color-interpolation-filters="sRGB">
<feFlood flood-opacity="0" result="BackgroundImageFix"/>
<feColorMatrix in="SourceAlpha" type="matrix" values="0 0 0 0 0 0 0 0 0 0 0 0 0 0 0 0 0 0 127 0" result="hardAlpha"/>
<feOffset dy="4"/>
<feGaussianBlur stdDeviation="2"/>
<feComposite in2="hardAlpha" operator="out"/>
<feColorMatrix type="matrix" values="0 0 0 0 0 0 0 0 0 0 0 0 0 0 0 0 0 0 0.25 0"/>
<feBlend mode="normal" in2="BackgroundImageFix" result="effect1_dropShadow_201_71"/>
<feBlend mode="normal" in="SourceGraphic" in2="effect1_dropShadow_201_71" result="shape"/>
</filter>
<linearGradient id="paint0_linear_201_71" x1="56.1365" y1="1" x2="56.1365" y2="21.7676" gradientUnits="userSpaceOnUse">
<stop stop-color="#D9F049"/>
<stop offset="0.416667" stop-color="#D7F67F" stop-opacity="0.583333"/>
<stop offset="1" stop-color="#7EFF7B"/>
</linearGradient>
</defs>
</svg>
