<svg width="170" height="40" viewBox="0 0 170 40" fill="none" xmlns="http://www.w3.org/2000/svg">
<rect width="170" height="40" fill="black"/>
<path d="M5.85547 12.4883H9.84961L15.3379 20.0859L20.5527 12.4883H24.4395V27H18.8047V19.5879L13.3945 27.1855L8.00391 19.5879V27H5.85547V12.4883ZM32.1738 16.1504L30.4941 12.4883H36.4414L43.5508 27.0098H37.1738L36.0996 24.6855H30.377L29.3125 27.0098H26.8418L32.1738 16.1504ZM35.0742 22.4492L33.2383 18.4648L31.4121 22.4492H35.0742ZM48.0918 14.7148H43.9512V12.4785H57.877V14.7148H53.7363V27H48.0918V14.7148ZM59.9961 12.4883H72.2617V14.7246H65.6504L65.6406 18.6406H70.6992V20.877H65.6406V24.7637H72.2617V27H59.9961V12.4883ZM75.1719 12.4883H83.541C84.6217 12.4883 85.5658 12.6022 86.373 12.8301C87.1868 13.0579 87.8639 13.377 88.4043 13.7871C88.9512 14.1973 89.3613 14.6888 89.6348 15.2617C89.9082 15.8346 90.0449 16.4661 90.0449 17.1562C90.0449 18.0091 89.8431 18.7676 89.4395 19.4316C89.0358 20.0892 88.4368 20.6133 87.6426 21.0039L90.6895 27.0098H84.3125L82.0078 21.7363H80.8164V27H75.1719V12.4883ZM81.1582 19.9688C81.6204 19.9688 82.0339 19.9036 82.3984 19.7734C82.763 19.6432 83.0723 19.4609 83.3262 19.2266C83.5801 18.9857 83.7754 18.7025 83.9121 18.377C84.0488 18.0449 84.1172 17.6836 84.1172 17.293C84.1172 16.9023 84.0488 16.5443 83.9121 16.2188C83.7754 15.8867 83.5801 15.6035 83.3262 15.3691C83.0723 15.1283 82.763 14.9427 82.3984 14.8125C82.0339 14.6823 81.6204 14.6172 81.1582 14.6172H80.8262L80.8164 19.9688H81.1582ZM93.3945 12.4883H99.0488L99.0391 27H93.3945V12.4883ZM106.783 16.1504L105.104 12.4883H111.051L118.16 27.0098H111.783L110.709 24.6855H104.986L103.922 27.0098H101.451L106.783 16.1504ZM109.684 22.4492L107.848 18.4648L106.021 22.4492H109.684ZM120.152 12.4883H125.807L125.797 24.7637H131.344V27H120.152V12.4883ZM133.375 20.3398H140.084V22.1758H133.375V20.3398ZM143.453 12.4883H149.098V21.707C149.098 22.2279 149.166 22.6803 149.303 23.0645C149.446 23.4421 149.641 23.7578 149.889 24.0117C150.143 24.2591 150.439 24.4447 150.777 24.5684C151.116 24.6921 151.48 24.7539 151.871 24.7539C152.301 24.7539 152.685 24.6921 153.023 24.5684C153.368 24.4447 153.661 24.2559 153.902 24.002C154.143 23.748 154.329 23.429 154.459 23.0449C154.589 22.6608 154.654 22.2083 154.654 21.6875V12.4883H156.803V21.3555C156.803 22.2539 156.656 23.0645 156.363 23.7871C156.077 24.5098 155.667 25.1283 155.133 25.6426C154.599 26.1504 153.954 26.541 153.199 26.8145C152.444 27.0879 151.601 27.2246 150.67 27.2246C149.4 27.2246 148.31 27.0911 147.398 26.8242C146.487 26.5508 145.738 26.1634 145.152 25.6621C144.566 25.1543 144.137 24.5423 143.863 23.8262C143.59 23.11 143.453 22.3027 143.453 21.4043V12.4883ZM159.781 12.4883H165.436L165.426 27H159.781V12.4883Z" fill="white"/>
</svg>
