<svg width="178" height="40" viewBox="0 0 178 40" fill="none" xmlns="http://www.w3.org/2000/svg">
<rect width="177.684" height="40" fill="black"/>
<path d="M17.8555 12.4883H21.8496L27.3379 20.0859L32.5527 12.4883H36.4395V27H30.8047V19.5879L25.3945 27.1855L20.0039 19.5879V27H17.8555V12.4883ZM39.3105 19.7148C39.3105 18.6146 39.4863 17.6087 39.8379 16.6973C40.1895 15.7793 40.7135 14.9915 41.4102 14.334C42.1068 13.6764 42.9759 13.1654 44.0176 12.8008C45.0592 12.4362 46.2702 12.2539 47.6504 12.2539C49.0306 12.2539 50.2415 12.4362 51.2832 12.8008C52.3249 13.1654 53.194 13.6764 53.8906 14.334C54.5872 14.9915 55.1113 15.7793 55.4629 16.6973C55.8145 17.6087 55.9902 18.6146 55.9902 19.7148C55.9902 20.8281 55.8145 21.847 55.4629 22.7715C55.1113 23.696 54.5872 24.487 53.8906 25.1445C53.194 25.8021 52.3249 26.3132 51.2832 26.6777C50.2415 27.0423 49.0306 27.2246 47.6504 27.2246C46.2702 27.2246 45.0592 27.0423 44.0176 26.6777C42.9759 26.3132 42.1068 25.8021 41.4102 25.1445C40.7135 24.487 40.1895 23.696 39.8379 22.7715C39.4863 21.847 39.3105 20.8281 39.3105 19.7148ZM47.6504 25.2031C48.041 25.2031 48.3861 25.1348 48.6855 24.998C48.985 24.8613 49.2357 24.5944 49.4375 24.1973C49.6393 23.8001 49.7923 23.2435 49.8965 22.5273C50.0007 21.8112 50.0527 20.8737 50.0527 19.7148C50.0527 18.569 50.0007 17.6413 49.8965 16.9316C49.7923 16.222 49.6393 15.6719 49.4375 15.2812C49.2357 14.8906 48.985 14.627 48.6855 14.4902C48.3861 14.3535 48.041 14.2852 47.6504 14.2852C47.2598 14.2852 46.9115 14.3535 46.6055 14.4902C46.306 14.627 46.0553 14.8906 45.8535 15.2812C45.6517 15.6719 45.4987 16.222 45.3945 16.9316C45.2904 17.6413 45.2383 18.569 45.2383 19.7148C45.2383 20.8737 45.2904 21.8112 45.3945 22.5273C45.4987 23.2435 45.6517 23.8001 45.8535 24.1973C46.0553 24.5944 46.306 24.8613 46.6055 24.998C46.9115 25.1348 47.2598 25.2031 47.6504 25.2031ZM58.8516 12.4883H62.3867L71.5957 20.2227L71.6055 12.4883H73.7539V27H70.2188L61 19.2949V27H58.8516V12.4883ZM76.6152 19.7539C76.6152 19.0638 76.7031 18.3997 76.8789 17.7617C77.0612 17.1172 77.3249 16.5182 77.6699 15.9648C78.015 15.4115 78.4382 14.9069 78.9395 14.4512C79.4408 13.9954 80.0104 13.6048 80.6484 13.2793C81.293 12.9538 82.0026 12.7031 82.7773 12.5273C83.5521 12.3451 84.3854 12.2539 85.2773 12.2539C85.8503 12.2539 86.3971 12.2897 86.918 12.3613C87.4453 12.4329 87.9401 12.5339 88.4023 12.6641C88.8646 12.7878 89.291 12.9342 89.6816 13.1035C90.0788 13.2663 90.4368 13.4388 90.7559 13.6211L89.916 15.2617C89.5514 15.0859 89.1348 14.9395 88.666 14.8223C88.2038 14.6986 87.722 14.6367 87.2207 14.6367C86.5501 14.6367 85.9284 14.7572 85.3555 14.998C84.7826 15.2389 84.2878 15.5807 83.8711 16.0234C83.4544 16.4661 83.1257 17.0033 82.8848 17.6348C82.6504 18.2598 82.5332 18.9629 82.5332 19.7441C82.5332 20.5189 82.6504 21.222 82.8848 21.8535C83.1191 22.4785 83.4414 23.0156 83.8516 23.4648C84.2682 23.9076 84.7598 24.2526 85.3262 24.5C85.8991 24.7409 86.5176 24.8613 87.1816 24.8613V19.9492H92.875L91.8594 21.7949V25.7402L91.8691 25.7598C91.5501 25.9486 91.1562 26.1309 90.6875 26.3066C90.2188 26.4824 89.6947 26.6419 89.1152 26.7852C88.5423 26.9219 87.9303 27.0326 87.2793 27.1172C86.6283 27.2018 85.9609 27.2441 85.2773 27.2441C83.9427 27.2441 82.7383 27.0488 81.6641 26.6582C80.5964 26.2611 79.6882 25.724 78.9395 25.0469C78.1908 24.3633 77.6146 23.569 77.2109 22.6641C76.8138 21.7526 76.6152 20.7826 76.6152 19.7539ZM94.2129 19.7148C94.2129 18.6146 94.3887 17.6087 94.7402 16.6973C95.0918 15.7793 95.6159 14.9915 96.3125 14.334C97.0091 13.6764 97.8783 13.1654 98.9199 12.8008C99.9616 12.4362 101.173 12.2539 102.553 12.2539C103.933 12.2539 105.144 12.4362 106.186 12.8008C107.227 13.1654 108.096 13.6764 108.793 14.334C109.49 14.9915 110.014 15.7793 110.365 16.6973C110.717 17.6087 110.893 18.6146 110.893 19.7148C110.893 20.8281 110.717 21.847 110.365 22.7715C110.014 23.696 109.49 24.487 108.793 25.1445C108.096 25.8021 107.227 26.3132 106.186 26.6777C105.144 27.0423 103.933 27.2246 102.553 27.2246C101.173 27.2246 99.9616 27.0423 98.9199 26.6777C97.8783 26.3132 97.0091 25.8021 96.3125 25.1445C95.6159 24.487 95.0918 23.696 94.7402 22.7715C94.3887 21.847 94.2129 20.8281 94.2129 19.7148ZM102.553 25.2031C102.943 25.2031 103.288 25.1348 103.588 24.998C103.887 24.8613 104.138 24.5944 104.34 24.1973C104.542 23.8001 104.695 23.2435 104.799 22.5273C104.903 21.8112 104.955 20.8737 104.955 19.7148C104.955 18.569 104.903 17.6413 104.799 16.9316C104.695 16.222 104.542 15.6719 104.34 15.2812C104.138 14.8906 103.887 14.627 103.588 14.4902C103.288 14.3535 102.943 14.2852 102.553 14.2852C102.162 14.2852 101.814 14.3535 101.508 14.4902C101.208 14.627 100.958 14.8906 100.756 15.2812C100.554 15.6719 100.401 16.222 100.297 16.9316C100.193 17.6413 100.141 18.569 100.141 19.7148C100.141 20.8737 100.193 21.8112 100.297 22.5273C100.401 23.2435 100.554 23.8001 100.756 24.1973C100.958 24.5944 101.208 24.8613 101.508 24.998C101.814 25.1348 102.162 25.2031 102.553 25.2031ZM113.461 20.3398H120.17V22.1758H113.461V20.3398ZM123.598 12.4883H129.564C131.244 12.4883 132.699 12.6478 133.93 12.9668C135.16 13.2793 136.179 13.7415 136.986 14.3535C137.794 14.9655 138.393 15.7174 138.783 16.6094C139.174 17.5013 139.369 18.5234 139.369 19.6758C139.369 20.7044 139.174 21.6647 138.783 22.5566C138.393 23.4421 137.794 24.2168 136.986 24.8809C136.179 25.5384 135.16 26.056 133.93 26.4336C132.699 26.8112 131.244 27 129.564 27H123.598V12.4883ZM129.242 24.8711C129.893 24.8711 130.479 24.7702 131 24.5684C131.521 24.3665 131.96 24.054 132.318 23.6309C132.683 23.2077 132.96 22.6706 133.148 22.0195C133.344 21.362 133.441 20.5775 133.441 19.666C133.441 18.7611 133.344 17.9896 133.148 17.3516C132.953 16.7135 132.673 16.1927 132.309 15.7891C131.944 15.3789 131.501 15.0827 130.98 14.9004C130.466 14.7116 129.89 14.6172 129.252 14.6172L129.242 24.8711ZM142.23 12.4883H149.906C150.987 12.4883 151.931 12.5794 152.738 12.7617C153.552 12.944 154.229 13.2044 154.77 13.543C155.316 13.875 155.727 14.2786 156 14.7539C156.273 15.2227 156.41 15.7467 156.41 16.3262C156.41 16.9056 156.247 17.4525 155.922 17.9668C155.603 18.4746 155.134 18.9141 154.516 19.2852C155.531 19.5781 156.29 20.0078 156.791 20.5742C157.292 21.1406 157.543 21.834 157.543 22.6543C157.543 23.2142 157.406 23.7546 157.133 24.2754C156.866 24.7962 156.462 25.2585 155.922 25.6621C155.388 26.0658 154.717 26.3913 153.91 26.6387C153.103 26.8796 152.159 27 151.078 27H142.23V12.4883ZM148.48 18.3867C149.014 18.3867 149.464 18.3379 149.828 18.2402C150.193 18.1361 150.482 17.9961 150.697 17.8203C150.919 17.6445 151.075 17.4427 151.166 17.2148C151.264 16.987 151.312 16.7493 151.312 16.502C151.312 16.2546 151.264 16.0169 151.166 15.7891C151.075 15.5612 150.919 15.3626 150.697 15.1934C150.482 15.0176 150.193 14.8776 149.828 14.7734C149.464 14.6693 149.014 14.6172 148.48 14.6172H147.885L147.875 18.3867H148.48ZM148.48 24.8711C149.06 24.8711 149.548 24.8092 149.945 24.6855C150.342 24.5618 150.665 24.3926 150.912 24.1777C151.16 23.9629 151.339 23.7122 151.449 23.4258C151.56 23.1328 151.615 22.8203 151.615 22.4883C151.615 22.1953 151.557 21.9089 151.439 21.6289C151.322 21.349 151.146 21.1016 150.912 20.8867C150.684 20.6654 150.401 20.4896 150.062 20.3594C149.724 20.2227 149.333 20.1543 148.891 20.1543H147.875V24.8711H148.48Z" fill="white"/>
</svg>
