<svg width="120" height="40" viewBox="0 0 120 40" fill="none" xmlns="http://www.w3.org/2000/svg">
<rect width="120" height="40" fill="black"/>
<path d="M28.8555 12.4883H32.3906L41.5996 20.2227L41.6094 12.4883H43.7578V27H40.2227L31.0039 19.2949V27H28.8555V12.4883ZM47.4688 12.4883H59.7344V14.7246H53.123L53.1133 18.6406H58.1719V20.877H53.1133V24.7637H59.7344V27H47.4688V12.4883ZM65.7891 20.0273L61.082 12.4883H67.459L70.291 17.0195L73.1816 12.4883H75.7305L71.4922 18.9531L76.5312 27L70.1543 27.0098L66.9707 21.9316L63.6797 27.0098H61.1211L65.7891 20.0273ZM81.0918 14.7148H76.9512V12.4785H90.877V14.7148H86.7363V27H81.0918V14.7148Z" fill="white"/>
</svg>
