<svg width="110" height="32" viewBox="0 0 110 32" fill="none" xmlns="http://www.w3.org/2000/svg">
<g filter="url(#filter0_d_195_32)">
<path d="M5.00601 1.86583L4.98731 1.96383L9.15792 3.05825H5L4.99138 3.15751L11.2422 4.25104H5H4.95V4.30104V21V21.0342L4.98186 21.0466L10.1183 23.0466L10.1634 22.9578L7.38661 21.1872L10.5829 22.2975L10.6301 22.2109L9.20963 21.1004L11.1251 21.5487L11.3082 21.5915L11.1705 21.4634L10.7264 21.05H62.9545L62.9642 20.9509L53.8733 19.1618L53.856 19.1584L53.8404 19.1665L51.8366 20.2182L52.7635 19.2453L52.8298 19.1756L52.7347 19.1614L46.2121 18.1833L56.1324 18.9767L56.1492 18.8785L51.0669 17.5322L60.604 18.4706L62.944 18.9757L62.944 18.9758L62.947 18.9763L76.5834 21.0494L76.5833 21.05H76.5909H103.864L103.887 20.9557L98.4549 18.1049L104.993 18.9764L105.02 18.8811L101.828 17.4716H105H105.05V17.4216V2V1.93117L104.985 1.95245L101.858 2.9689L104.406 1.03987L104.525 0.95H104.376H5L4.991 1.04918L18.1397 3.45642L5.00601 1.86583Z" fill="black" stroke="url(#paint0_linear_195_32)" stroke-width="0.1"/>
<path d="M34.22 15.736C34.212 15.768 34.2 15.796 34.184 15.82C34.176 15.844 34.16 15.872 34.136 15.904C34.152 15.896 34.14 15.908 34.1 15.94C34.068 15.964 34.056 15.972 34.064 15.964C34.056 15.964 34.048 15.968 34.04 15.976C34.024 16.056 34.012 16.132 34.004 16.204C34.004 16.276 34 16.352 33.992 16.432C33.984 16.56 33.968 16.7 33.944 16.852C33.928 17.012 33.912 17.156 33.896 17.284C33.888 17.364 33.872 17.46 33.848 17.572C33.832 17.692 33.816 17.792 33.8 17.872C33.792 17.896 33.784 17.92 33.776 17.944C33.776 17.968 33.768 17.988 33.752 18.004C33.752 18.012 33.744 18.016 33.728 18.016C33.72 18.016 33.716 18.012 33.716 18.004C33.7 17.988 33.688 17.968 33.68 17.944C33.68 17.928 33.676 17.912 33.668 17.896C33.644 17.824 33.624 17.732 33.608 17.62C33.592 17.516 33.576 17.432 33.56 17.368C33.528 17.184 33.504 16.972 33.488 16.732C33.48 16.5 33.456 16.296 33.416 16.12C33.408 16.16 33.404 16.2 33.404 16.24C33.404 16.288 33.396 16.332 33.38 16.372C33.372 16.388 33.356 16.396 33.332 16.396C33.316 16.404 33.3 16.416 33.284 16.432C33.276 16.432 33.264 16.436 33.248 16.444C33.24 16.46 33.236 16.464 33.236 16.456C33.228 16.416 33.22 16.376 33.212 16.336C33.212 16.296 33.208 16.256 33.2 16.216C33.2 16.224 33.196 16.232 33.188 16.24C33.18 16.256 33.172 16.272 33.164 16.288C33.156 16.304 33.148 16.32 33.14 16.336C33.14 16.336 33.136 16.336 33.128 16.336C33.128 16.344 33.128 16.352 33.128 16.36C33.128 16.36 33.116 16.372 33.092 16.396C33.068 16.428 33.052 16.444 33.044 16.444C33.028 16.46 33.012 16.468 32.996 16.468C32.988 16.596 32.98 16.72 32.972 16.84C32.972 16.968 32.964 17.092 32.948 17.212C32.948 17.22 32.94 17.224 32.924 17.224C32.908 17.224 32.896 17.22 32.888 17.212C32.88 17.076 32.876 16.98 32.876 16.924C32.876 16.876 32.876 16.836 32.876 16.804C32.876 16.78 32.872 16.74 32.864 16.684C32.856 16.628 32.836 16.532 32.804 16.396C32.764 16.348 32.724 16.296 32.684 16.24C32.676 16.232 32.672 16.224 32.672 16.216C32.672 16.208 32.668 16.2 32.66 16.192L32.612 16.12C32.604 16.104 32.6 16.088 32.6 16.072C32.6 16.064 32.596 16.056 32.588 16.048C32.588 16.072 32.58 16.084 32.564 16.084C32.564 16.084 32.548 16.076 32.516 16.06C32.508 16.084 32.496 16.108 32.48 16.132C32.464 16.156 32.444 16.176 32.42 16.192C32.404 16.208 32.392 16.216 32.384 16.216C32.368 16.232 32.36 16.26 32.36 16.3C32.36 16.34 32.348 16.356 32.324 16.348C32.3 16.34 32.288 16.316 32.288 16.276C32.296 16.244 32.292 16.216 32.276 16.192L32.228 16.144L32.156 16.06C32.156 16.068 32.152 16.072 32.144 16.072C32.152 16.072 32.136 16.06 32.096 16.036C32.064 16.02 32.048 16.012 32.048 16.012C32.048 16.012 32.028 16.02 31.988 16.036C31.956 16.06 31.924 16.08 31.892 16.096C31.86 16.12 31.828 16.12 31.796 16.096C31.764 16.08 31.744 16.06 31.736 16.036C31.736 16.012 31.728 15.984 31.712 15.952C31.672 15.92 31.632 15.884 31.592 15.844C31.56 15.804 31.528 15.76 31.496 15.712C31.464 15.656 31.432 15.608 31.4 15.568L31.34 15.472C31.324 15.448 31.304 15.424 31.28 15.4C31.264 15.368 31.248 15.34 31.232 15.316C31.216 15.292 31.2 15.268 31.184 15.244C31.168 15.22 31.152 15.192 31.136 15.16L31.064 15.052C30.992 14.98 30.92 14.892 30.848 14.788C30.784 14.684 30.716 14.572 30.644 14.452C30.58 14.364 30.512 14.264 30.44 14.152C30.368 14.032 30.3 13.912 30.236 13.792L29.756 13.072C29.692 12.992 29.636 12.912 29.588 12.832C29.58 12.816 29.572 12.8 29.564 12.784C29.556 12.768 29.544 12.756 29.528 12.748C29.512 12.716 29.504 12.7 29.504 12.7C29.488 12.676 29.48 12.664 29.48 12.664C29.48 12.656 29.48 12.672 29.48 12.712V15.436C29.48 15.484 29.48 15.536 29.48 15.592C29.488 15.64 29.488 15.688 29.48 15.736C29.48 15.72 29.476 15.728 29.468 15.76C29.46 15.784 29.46 15.792 29.468 15.784C29.468 15.792 29.464 15.8 29.456 15.808C29.456 15.816 29.452 15.82 29.444 15.82C29.444 15.82 29.444 15.824 29.444 15.832C29.444 15.84 29.44 15.844 29.432 15.844C29.432 15.844 29.432 15.848 29.432 15.856C29.392 15.904 29.352 15.94 29.312 15.964C29.296 15.98 29.284 15.996 29.276 16.012C29.26 16.028 29.252 16.044 29.252 16.06L29.204 16.144C29.196 16.168 29.184 16.188 29.168 16.204C29.16 16.228 29.148 16.252 29.132 16.276C29.06 16.436 28.98 16.596 28.892 16.756L28.784 16.996C28.784 17.004 28.78 17.008 28.772 17.008C28.772 17.008 28.772 17.012 28.772 17.02L28.724 17.092L28.688 17.128C28.688 17.128 28.684 17.128 28.676 17.128C28.676 17.128 28.676 17.132 28.676 17.14C28.668 17.14 28.656 17.148 28.64 17.164C28.632 17.316 28.624 17.468 28.616 17.62C28.616 17.772 28.608 17.928 28.592 18.088C28.584 18.112 28.572 18.1 28.556 18.052C28.548 18.012 28.544 17.98 28.544 17.956C28.528 17.82 28.52 17.68 28.52 17.536C28.52 17.4 28.512 17.264 28.496 17.128C28.48 17.12 28.464 17.1 28.448 17.068C28.44 17.068 28.432 17.064 28.424 17.056L28.34 16.912C28.332 16.888 28.32 16.864 28.304 16.84C28.296 16.816 28.288 16.788 28.28 16.756C28.272 16.732 28.264 16.708 28.256 16.684C28.248 16.66 28.236 16.632 28.22 16.6L28.112 16.276C28.104 16.26 28.096 16.24 28.088 16.216C28.088 16.192 28.084 16.172 28.076 16.156C28.06 16.236 28.052 16.316 28.052 16.396C28.052 16.476 28.044 16.56 28.028 16.648C28.02 16.656 28.012 16.648 28.004 16.624C27.996 16.608 27.988 16.596 27.98 16.588C27.964 16.572 27.948 16.548 27.932 16.516C27.9 16.46 27.868 16.404 27.836 16.348C27.812 16.292 27.78 16.244 27.74 16.204C27.724 16.188 27.712 16.18 27.704 16.18C27.696 16.204 27.676 16.232 27.644 16.264C27.628 16.28 27.604 16.292 27.572 16.3C27.548 16.316 27.524 16.332 27.5 16.348C27.476 16.372 27.456 16.396 27.44 16.42C27.424 16.452 27.4 16.476 27.368 16.492C27.336 16.516 27.3 16.52 27.26 16.504C27.228 16.472 27.212 16.464 27.212 16.48C27.204 16.568 27.212 16.708 27.236 16.9C27.26 17.092 27.28 17.284 27.296 17.476C27.32 17.668 27.324 17.812 27.308 17.908C27.3 18.012 27.252 18.02 27.164 17.932C27.052 17.812 26.996 17.652 26.996 17.452C27.004 17.252 27.028 17.052 27.068 16.852C27.116 16.652 27.136 16.492 27.128 16.372L27.08 16.3C27.072 16.284 27.06 16.26 27.044 16.228C27.036 16.204 27.032 16.2 27.032 16.216C27.016 16.296 27.012 16.376 27.02 16.456C27.036 16.536 27.024 16.608 26.984 16.672C26.96 16.704 26.948 16.696 26.948 16.648C26.948 16.608 26.952 16.552 26.96 16.48C26.968 16.416 26.968 16.364 26.96 16.324L26.876 15.988C26.844 15.972 26.816 15.956 26.792 15.94C26.704 15.876 26.66 15.788 26.66 15.676V7.924C26.66 7.892 26.668 7.852 26.684 7.804C26.708 7.732 26.744 7.684 26.792 7.66C26.808 7.644 26.84 7.628 26.888 7.612C26.912 7.604 26.948 7.6 26.996 7.6H28.88C28.984 7.6 29.068 7.616 29.132 7.648C29.196 7.68 29.244 7.716 29.276 7.756C29.34 7.812 29.392 7.88 29.432 7.96C29.48 8.04 29.524 8.116 29.564 8.188L29.6 8.248L29.648 8.32C29.736 8.408 29.816 8.52 29.888 8.656C29.96 8.792 30.032 8.928 30.104 9.064L30.128 9.124L30.548 9.808C30.556 9.808 30.56 9.812 30.56 9.82C30.672 9.988 30.78 10.164 30.884 10.348C30.996 10.524 31.104 10.7 31.208 10.876L31.352 11.116L31.364 11.128L31.4 11.104V8.248C31.4 8.192 31.396 8.132 31.388 8.068C31.388 8.004 31.392 7.944 31.4 7.888C31.4 7.848 31.408 7.816 31.424 7.792C31.44 7.76 31.452 7.74 31.46 7.732C31.468 7.708 31.484 7.692 31.508 7.684C31.508 7.684 31.516 7.676 31.532 7.66C31.588 7.62 31.644 7.6 31.7 7.6C31.732 7.592 31.764 7.588 31.796 7.588C31.828 7.588 31.856 7.588 31.88 7.588C31.92 7.596 31.956 7.6 31.988 7.6C32.028 7.6 32.064 7.6 32.096 7.6H33.752C33.792 7.6 33.832 7.6 33.872 7.6C33.92 7.592 33.964 7.596 34.004 7.612C34.06 7.636 34.108 7.668 34.148 7.708C34.172 7.74 34.188 7.772 34.196 7.804C34.212 7.852 34.22 7.892 34.22 7.924C34.228 7.98 34.228 8.04 34.22 8.104C34.22 8.168 34.22 8.224 34.22 8.272V15.268C34.228 15.348 34.232 15.428 34.232 15.508C34.24 15.588 34.236 15.664 34.22 15.736ZM42.4428 14.404C42.4428 14.564 42.4468 14.752 42.4548 14.968C42.4628 15.176 42.4628 15.368 42.4548 15.544C42.4548 15.584 42.4548 15.624 42.4548 15.664C42.4548 15.704 42.4468 15.744 42.4308 15.784C42.4308 15.792 42.4268 15.8 42.4188 15.808C42.4108 15.84 42.3948 15.868 42.3708 15.892C42.3468 15.908 42.3228 15.924 42.2988 15.94C42.2908 15.956 42.2748 15.972 42.2508 15.988C42.2348 16.004 42.2188 16.024 42.2028 16.048C42.1948 16.064 42.1828 16.084 42.1668 16.108C42.1508 16.132 42.1348 16.156 42.1188 16.18C42.1108 16.188 42.1028 16.196 42.0948 16.204C42.0868 16.212 42.0788 16.224 42.0708 16.24C42.0308 16.288 41.9868 16.336 41.9388 16.384C41.8988 16.432 41.8588 16.484 41.8188 16.54L41.7348 16.66C41.7028 16.7 41.6748 16.74 41.6508 16.78C41.6268 16.82 41.5988 16.86 41.5668 16.9C41.5508 16.916 41.5428 16.924 41.5428 16.924C41.5188 16.956 41.4748 16.992 41.4108 17.032C41.4028 17.04 41.3948 17.044 41.3868 17.044C41.3788 17.052 41.3668 17.06 41.3508 17.068C41.3348 17.076 41.3148 17.092 41.2908 17.116C41.2668 17.14 41.2428 17.156 41.2188 17.164C41.1868 17.172 41.1508 17.164 41.1108 17.14C41.0788 17.124 41.0508 17.108 41.0268 17.092C41.0108 17.076 40.9988 17.068 40.9908 17.068C41.0068 17.052 40.9948 17.06 40.9548 17.092C40.9228 17.124 40.8988 17.148 40.8828 17.164C40.8668 17.332 40.8588 17.5 40.8588 17.668C40.8588 17.844 40.8508 18.02 40.8348 18.196C40.8268 18.268 40.8348 18.356 40.8588 18.46C40.8828 18.564 40.8588 18.624 40.7868 18.64C40.7148 18.648 40.6868 18.596 40.7028 18.484C40.7268 18.372 40.7388 18.28 40.7388 18.208C40.7308 18.024 40.7228 17.844 40.7148 17.668C40.7148 17.492 40.7068 17.316 40.6908 17.14C40.6828 17.132 40.6788 17.124 40.6788 17.116C40.6708 17.116 40.6628 17.112 40.6548 17.104L40.5948 17.008C40.5628 16.944 40.5268 16.876 40.4868 16.804C40.4548 16.732 40.4188 16.664 40.3788 16.6L40.1988 16.288C40.1908 16.256 40.1788 16.224 40.1628 16.192C40.1468 16.168 40.1308 16.136 40.1148 16.096L40.1028 16.084C40.0948 16.132 40.0908 16.18 40.0908 16.228C40.0908 16.284 40.0828 16.336 40.0668 16.384C40.0588 16.392 40.0508 16.408 40.0428 16.432C40.0348 16.456 40.0268 16.464 40.0188 16.456C40.0108 16.416 40.0028 16.372 39.9948 16.324C39.9948 16.284 39.9948 16.248 39.9948 16.216C39.9628 16.28 39.9428 16.324 39.9348 16.348C39.9108 16.404 39.8868 16.46 39.8628 16.516C39.8388 16.58 39.8108 16.644 39.7788 16.708C39.7548 16.764 39.7148 16.836 39.6588 16.924C39.6588 16.932 39.6548 16.936 39.6468 16.936C39.6388 16.952 39.6188 16.976 39.5868 17.008C39.5708 17.024 39.5588 17.032 39.5508 17.032C39.5348 17.088 39.5228 17.144 39.5148 17.2C39.5148 17.264 39.5108 17.328 39.5028 17.392C39.4948 17.432 39.4868 17.468 39.4788 17.5C39.4708 17.54 39.4628 17.58 39.4548 17.62C39.4468 17.636 39.4348 17.66 39.4188 17.692C39.4108 17.732 39.4028 17.744 39.3948 17.728C39.3788 17.64 39.3828 17.54 39.4068 17.428C39.4308 17.324 39.4108 17.244 39.3468 17.188C39.3228 17.164 39.3108 17.176 39.3108 17.224C39.3108 17.272 39.3148 17.332 39.3228 17.404C39.3388 17.476 39.3468 17.536 39.3468 17.584C39.3468 17.64 39.3308 17.656 39.2988 17.632C39.2348 17.576 39.2188 17.492 39.2508 17.38C39.2828 17.276 39.2828 17.184 39.2508 17.104C39.2428 17.064 39.2388 17.088 39.2388 17.176C39.2468 17.264 39.2348 17.324 39.2028 17.356C39.1948 17.372 39.1868 17.356 39.1788 17.308C39.1788 17.268 39.1708 17.236 39.1548 17.212C39.1468 17.196 39.1308 17.16 39.1068 17.104C39.0908 17.048 39.0628 17.032 39.0228 17.056C39.0228 17.056 39.0188 17.056 39.0108 17.056C39.0108 17.056 39.0108 17.06 39.0108 17.068C38.9948 17.084 38.9668 17.116 38.9268 17.164C38.8868 17.22 38.8388 17.272 38.7828 17.32C38.7828 17.32 38.7668 17.328 38.7348 17.344C38.7268 17.432 38.7348 17.552 38.7588 17.704C38.7828 17.856 38.8068 18.004 38.8308 18.148C38.8548 18.3 38.8588 18.424 38.8428 18.52C38.8268 18.616 38.7748 18.656 38.6868 18.64C38.5988 18.624 38.5468 18.564 38.5308 18.46C38.5148 18.356 38.5148 18.232 38.5308 18.088C38.5548 17.952 38.5788 17.812 38.6028 17.668C38.6348 17.532 38.6468 17.416 38.6388 17.32C38.6308 17.32 38.6268 17.316 38.6268 17.308C38.6268 17.308 38.6228 17.308 38.6148 17.308C38.6068 17.308 38.6028 17.304 38.6028 17.296C38.5868 17.28 38.5708 17.256 38.5548 17.224C38.5388 17.208 38.5228 17.184 38.5068 17.152C38.4668 17.056 38.4268 16.952 38.3868 16.84L38.2068 16.48C38.1988 16.464 38.1908 16.448 38.1828 16.432C38.1828 16.416 38.1748 16.4 38.1588 16.384C38.1188 16.368 38.0748 16.352 38.0268 16.336C37.9868 16.32 37.9468 16.304 37.9068 16.288C37.9228 16.272 37.9228 16.256 37.9068 16.24C37.8988 16.248 37.8948 16.256 37.8948 16.264C37.8948 16.272 37.8948 16.276 37.8948 16.276C37.8788 16.276 37.8548 16.268 37.8228 16.252C37.8228 16.252 37.8188 16.252 37.8108 16.252C37.8108 16.252 37.8108 16.248 37.8108 16.24C37.8028 16.248 37.7948 16.256 37.7868 16.264C37.7788 16.28 37.7708 16.292 37.7628 16.3C37.7148 16.364 37.6668 16.42 37.6188 16.468L37.5948 16.492C37.5948 16.492 37.5908 16.492 37.5828 16.492C37.5828 16.492 37.5828 16.496 37.5828 16.504C37.5748 16.504 37.5668 16.504 37.5588 16.504C37.5588 16.512 37.5548 16.516 37.5468 16.516C37.5388 16.636 37.5308 16.804 37.5228 17.02C37.5228 17.244 37.5188 17.464 37.5108 17.68C37.5108 17.904 37.5028 18.076 37.4868 18.196C37.4868 18.204 37.4788 18.212 37.4628 18.22C37.4468 18.236 37.4388 18.24 37.4388 18.232C37.3908 18.144 37.3748 18.016 37.3908 17.848C37.4068 17.688 37.4268 17.516 37.4508 17.332C37.4828 17.156 37.4948 16.984 37.4868 16.816C37.4788 16.656 37.4308 16.532 37.3428 16.444L37.1748 16.228C37.1668 16.212 37.1548 16.196 37.1388 16.18C37.1308 16.164 37.1188 16.152 37.1028 16.144C37.0868 16.112 37.0588 16.076 37.0188 16.036C37.0188 16.044 37.0148 16.048 37.0068 16.048C36.9828 16.08 36.9508 16.108 36.9108 16.132L36.8268 16.168C36.8188 16.168 36.8148 16.168 36.8148 16.168C36.8148 16.176 36.8108 16.18 36.8028 16.18C36.8028 16.196 36.8028 16.22 36.8028 16.252C36.8028 16.292 36.7948 16.344 36.7788 16.408L36.6828 17.02C36.6748 17.076 36.6668 17.128 36.6588 17.176C36.6508 17.224 36.6388 17.272 36.6228 17.32C36.6148 17.368 36.6068 17.436 36.5988 17.524C36.5908 17.612 36.5828 17.636 36.5748 17.596C36.5188 17.508 36.4948 17.396 36.5028 17.26C36.5108 17.124 36.5268 16.992 36.5508 16.864C36.5828 16.744 36.5948 16.648 36.5868 16.576C36.5788 16.504 36.5308 16.484 36.4428 16.516C36.3308 16.54 36.2348 16.524 36.1548 16.468C36.1388 16.452 36.1228 16.436 36.1068 16.42C36.0908 16.404 36.0748 16.392 36.0588 16.384C36.0508 16.368 36.0388 16.348 36.0228 16.324C36.0148 16.308 36.0108 16.308 36.0108 16.324C36.0028 16.404 36.0028 16.508 36.0108 16.636C36.0268 16.772 36.0388 16.9 36.0468 17.02C36.0548 17.148 36.0548 17.24 36.0468 17.296C36.0388 17.36 36.0108 17.36 35.9628 17.296C35.8908 17.2 35.8548 17.088 35.8548 16.96C35.8628 16.84 35.8788 16.712 35.9028 16.576C35.9348 16.448 35.9388 16.324 35.9148 16.204C35.9068 16.148 35.9028 16.152 35.9028 16.216C35.9108 16.288 35.9108 16.372 35.9028 16.468C35.9028 16.564 35.8908 16.636 35.8668 16.684C35.8428 16.74 35.8308 16.712 35.8308 16.6C35.8388 16.488 35.8428 16.404 35.8428 16.348L35.7588 15.988C35.7268 15.972 35.6988 15.956 35.6748 15.94C35.5868 15.876 35.5428 15.788 35.5428 15.676V8.116C35.5428 8.052 35.5428 7.988 35.5428 7.924C35.5428 7.852 35.5628 7.788 35.6028 7.732C35.6268 7.684 35.6748 7.648 35.7468 7.624C35.7628 7.616 35.7788 7.612 35.7948 7.612C35.8188 7.604 35.8468 7.6 35.8788 7.6H41.7348C41.8148 7.6 41.8988 7.6 41.9868 7.6C42.0748 7.592 42.1508 7.612 42.2148 7.66L42.2868 7.732C42.3268 7.788 42.3468 7.848 42.3468 7.912V9.328C42.3548 9.36 42.3588 9.4 42.3588 9.448C42.3588 9.488 42.3588 9.528 42.3588 9.568C42.3588 9.608 42.3508 9.66 42.3348 9.724C42.3348 9.732 42.3308 9.74 42.3228 9.748C42.3228 9.748 42.3228 9.752 42.3228 9.76C42.3148 9.76 42.3108 9.764 42.3108 9.772C42.2948 9.788 42.2868 9.796 42.2868 9.796C42.2788 9.812 42.2508 9.84 42.2028 9.88C42.1548 9.92 42.1268 9.944 42.1188 9.952C42.1028 9.968 42.0868 9.98 42.0708 9.988C42.0388 10.004 42.0228 10.012 42.0228 10.012C42.0228 10.004 42.0228 9.996 42.0228 9.988C42.0228 9.988 42.0148 9.984 41.9988 9.976C41.9828 9.96 41.9468 9.956 41.8908 9.964C41.8428 9.98 41.8028 9.988 41.7708 9.988C41.7148 9.996 41.6588 10 41.6028 10C41.5548 10 41.5028 10.008 41.4468 10.024C41.3908 10.04 41.3388 10.064 41.2908 10.096C41.2508 10.12 41.2068 10.14 41.1588 10.156C41.1188 10.164 41.0788 10.176 41.0388 10.192C40.9988 10.2 40.9588 10.212 40.9188 10.228C40.8788 10.236 40.8388 10.256 40.7988 10.288C40.7588 10.312 40.7188 10.328 40.6788 10.336C40.6228 10.344 40.5588 10.328 40.4868 10.288C40.4628 10.264 40.4428 10.252 40.4268 10.252C40.4188 10.252 40.4148 10.252 40.4148 10.252C40.4068 10.276 40.3908 10.292 40.3668 10.3C40.3348 10.332 40.2948 10.364 40.2468 10.396C40.2068 10.42 40.1628 10.44 40.1148 10.456C40.0588 10.48 40.0068 10.488 39.9588 10.48C39.9188 10.464 39.8708 10.452 39.8148 10.444C39.7828 10.436 39.7468 10.436 39.7068 10.444C39.6668 10.444 39.6268 10.44 39.5868 10.432C39.5068 10.416 39.4308 10.388 39.3588 10.348C39.2868 10.308 39.2148 10.268 39.1428 10.228C39.0788 10.188 39.0068 10.156 38.9268 10.132C38.8548 10.1 38.7828 10.072 38.7108 10.048L38.4228 9.94V10.552L38.4708 10.696H41.2788C41.3668 10.696 41.4708 10.692 41.5908 10.684C41.7108 10.676 41.8148 10.692 41.9028 10.732C41.9108 10.732 41.9188 10.736 41.9268 10.744C41.9748 10.776 42.0068 10.804 42.0228 10.828C42.0468 10.86 42.0628 10.896 42.0708 10.936C42.0788 10.976 42.0868 11.016 42.0948 11.056C42.0948 11.104 42.0908 11.156 42.0828 11.212C42.0828 11.26 42.0828 11.308 42.0828 11.356V12.472C42.0828 12.504 42.0828 12.536 42.0828 12.568C42.0908 12.592 42.0908 12.616 42.0828 12.64C42.0828 12.656 42.0748 12.68 42.0588 12.712C42.0588 12.72 42.0548 12.724 42.0468 12.724C42.0468 12.724 42.0468 12.728 42.0468 12.736C42.0148 12.8 41.9588 12.852 41.8788 12.892C41.8708 12.892 41.8668 12.896 41.8668 12.904C41.8668 12.904 41.8628 12.904 41.8548 12.904C41.8068 12.936 41.7548 12.96 41.6988 12.976C41.6508 12.984 41.6068 12.996 41.5668 13.012C41.5028 13.044 41.4388 13.084 41.3748 13.132C41.3108 13.172 41.2428 13.2 41.1708 13.216C41.1308 13.224 41.0868 13.232 41.0388 13.24C40.9908 13.24 40.9468 13.248 40.9068 13.264C40.8668 13.272 40.8268 13.284 40.7868 13.3C40.7468 13.316 40.7068 13.332 40.6668 13.348C40.5948 13.372 40.5228 13.384 40.4508 13.384C40.3788 13.384 40.3108 13.388 40.2468 13.396H40.1868C40.1708 13.396 40.1548 13.4 40.1388 13.408C40.1228 13.408 40.1068 13.404 40.0908 13.396C40.0428 13.388 39.9988 13.376 39.9588 13.36C39.9268 13.336 39.8908 13.32 39.8508 13.312C39.7788 13.296 39.7068 13.304 39.6348 13.336C39.5628 13.36 39.4908 13.364 39.4188 13.348C39.3628 13.332 39.3068 13.304 39.2508 13.264C39.2028 13.216 39.1468 13.172 39.0828 13.132C39.0188 13.1 38.9508 13.068 38.8788 13.036C38.8068 13.004 38.7348 12.976 38.6628 12.952C38.6788 12.952 38.6468 12.944 38.5668 12.928C38.4868 12.912 38.4388 12.904 38.4228 12.904V13.516L38.4708 13.66H42.1188C42.1668 13.66 42.2148 13.672 42.2628 13.696C42.2788 13.696 42.2988 13.708 42.3228 13.732C42.3388 13.74 42.3508 13.748 42.3588 13.756C42.3668 13.764 42.3748 13.776 42.3828 13.792C42.3988 13.808 42.4148 13.84 42.4308 13.888C42.4388 13.912 42.4428 13.948 42.4428 13.996V14.404ZM51.7307 15.856C51.7227 15.872 51.7067 15.892 51.6827 15.916L51.6587 15.94C51.6427 15.956 51.6307 15.964 51.6227 15.964C51.6147 15.98 51.6027 15.996 51.5867 16.012C51.5787 16.06 51.5707 16.108 51.5627 16.156C51.5627 16.212 51.5547 16.264 51.5387 16.312C51.5307 16.392 51.5147 16.476 51.4907 16.564C51.4747 16.66 51.4587 16.752 51.4427 16.84C51.4267 16.904 51.4067 16.976 51.3827 17.056C51.3667 17.136 51.3387 17.208 51.2987 17.272C51.2667 17.32 51.2347 17.324 51.2027 17.284C51.1787 17.26 51.1587 17.216 51.1427 17.152C51.1267 17.096 51.1107 17.056 51.0947 17.032C51.0547 16.872 51.0227 16.704 50.9987 16.528C50.9907 16.464 50.9867 16.404 50.9867 16.348C50.9867 16.3 50.9787 16.248 50.9627 16.192L50.9267 16.228C50.8947 16.276 50.8667 16.32 50.8427 16.36L50.8067 16.444C50.8067 16.444 50.7947 16.468 50.7707 16.516C50.7627 16.524 50.7587 16.532 50.7587 16.54C50.7587 16.556 50.7547 16.568 50.7467 16.576C50.7467 16.584 50.7427 16.592 50.7347 16.6C50.7347 16.608 50.7347 16.616 50.7347 16.624C50.7347 16.632 50.7267 16.652 50.7107 16.684C50.7027 16.692 50.6987 16.7 50.6987 16.708C50.6987 16.724 50.6947 16.736 50.6867 16.744C50.6867 16.752 50.6827 16.76 50.6747 16.768L50.6387 16.852V16.864C50.6387 16.872 50.6347 16.876 50.6267 16.876C50.6187 16.908 50.6067 16.936 50.5907 16.96C50.5747 16.992 50.5587 17.02 50.5427 17.044L50.4467 17.152L50.4227 17.176C50.4147 17.176 50.4107 17.176 50.4107 17.176C50.4107 17.184 50.4067 17.188 50.3987 17.188C50.3907 17.236 50.3827 17.284 50.3747 17.332C50.3747 17.38 50.3707 17.428 50.3627 17.476C50.3547 17.532 50.3387 17.604 50.3147 17.692C50.2987 17.788 50.2827 17.864 50.2667 17.92C50.2587 17.928 50.2507 17.94 50.2427 17.956C50.2427 17.98 50.2347 17.992 50.2187 17.992C50.2027 17.992 50.1827 17.972 50.1587 17.932C50.1507 17.828 50.1467 17.724 50.1467 17.62C50.1467 17.516 50.1347 17.416 50.1107 17.32C50.1107 17.296 50.1067 17.304 50.0987 17.344C50.0987 17.384 50.0947 17.42 50.0867 17.452C50.0867 17.492 50.0827 17.504 50.0747 17.488C50.0427 17.432 50.0307 17.372 50.0387 17.308C50.0467 17.252 50.0427 17.196 50.0267 17.14C50.0027 17.124 49.9787 17.1 49.9547 17.068C49.9307 17.044 49.9187 17.032 49.9187 17.032L49.7867 16.9C49.7707 16.884 49.7547 16.864 49.7387 16.84C49.7227 16.824 49.7067 16.804 49.6907 16.78C49.6747 16.756 49.6587 16.732 49.6427 16.708C49.6347 16.684 49.6227 16.66 49.6067 16.636C49.5747 16.564 49.5427 16.488 49.5107 16.408C49.4867 16.336 49.4587 16.26 49.4267 16.18C49.4267 16.164 49.4227 16.156 49.4147 16.156C49.4147 16.14 49.4107 16.128 49.4027 16.12C49.3947 16.176 49.3867 16.236 49.3787 16.3C49.3787 16.372 49.3707 16.44 49.3547 16.504C49.3547 16.512 49.3467 16.508 49.3307 16.492C49.3227 16.476 49.3147 16.464 49.3067 16.456C49.2987 16.408 49.2947 16.36 49.2947 16.312C49.2947 16.272 49.2907 16.228 49.2827 16.18C49.2667 16.196 49.2587 16.204 49.2587 16.204C49.2427 16.236 49.2347 16.252 49.2347 16.252L49.1987 16.288C49.1907 16.288 49.1867 16.288 49.1867 16.288C49.1867 16.296 49.1827 16.3 49.1747 16.3C49.1587 16.332 49.1427 16.372 49.1267 16.42C49.1187 16.444 49.1107 16.468 49.1027 16.492C49.0947 16.516 49.0827 16.54 49.0667 16.564C49.0587 16.596 49.0507 16.636 49.0427 16.684C49.0427 16.732 49.0347 16.744 49.0187 16.72C48.9947 16.68 48.9867 16.632 48.9947 16.576C49.0027 16.52 48.9987 16.464 48.9827 16.408C48.9747 16.4 48.9667 16.4 48.9587 16.408C48.9507 16.416 48.9427 16.42 48.9347 16.42C48.9027 16.42 48.8867 16.42 48.8867 16.42C48.8787 16.484 48.8827 16.572 48.8987 16.684C48.9147 16.796 48.9227 16.892 48.9227 16.972C48.9307 17.052 48.9027 17.076 48.8387 17.044C48.7827 16.98 48.7467 16.916 48.7307 16.852C48.7227 16.796 48.7227 16.748 48.7307 16.708C48.6987 16.74 48.6867 16.712 48.6947 16.624C48.7027 16.544 48.6987 16.484 48.6827 16.444C48.6747 16.388 48.6707 16.336 48.6707 16.288C48.6707 16.24 48.6627 16.192 48.6467 16.144C48.6387 16.136 48.6267 16.124 48.6107 16.108C48.6027 16.1 48.5907 16.088 48.5747 16.072C48.5507 16.04 48.5267 16.012 48.5027 15.988C48.4867 15.964 48.4667 15.936 48.4427 15.904C48.4347 15.888 48.4227 15.872 48.4067 15.856C48.3907 15.84 48.3747 15.824 48.3587 15.808C48.3027 15.744 48.2507 15.672 48.2027 15.592C48.1547 15.512 48.1067 15.436 48.0587 15.364L47.5907 14.644C47.5587 14.596 47.5387 14.56 47.5307 14.536C47.4987 14.488 47.4707 14.444 47.4467 14.404C47.3987 14.34 47.3507 14.268 47.3027 14.188L47.2547 14.116L47.1827 14.236C47.1427 14.308 47.0987 14.38 47.0507 14.452C47.0107 14.516 46.9707 14.58 46.9307 14.644C46.8267 14.796 46.7267 14.96 46.6307 15.136C46.5347 15.304 46.4307 15.468 46.3187 15.628L46.2587 15.724C46.2347 15.756 46.2107 15.784 46.1867 15.808C46.1707 15.832 46.1547 15.852 46.1387 15.868C46.1307 15.876 46.1187 15.888 46.1027 15.904C46.0947 15.92 46.0827 15.936 46.0667 15.952C46.0347 16.008 46.0107 16.06 45.9947 16.108C45.9787 16.164 45.9507 16.216 45.9107 16.264C45.8707 16.328 45.8227 16.372 45.7667 16.396C45.7347 16.412 45.6947 16.416 45.6467 16.408C45.6067 16.408 45.5667 16.416 45.5267 16.432C45.4787 16.456 45.4347 16.484 45.3947 16.516C45.3627 16.548 45.3267 16.576 45.2867 16.6C45.2787 16.608 45.2547 16.612 45.2147 16.612C45.1747 16.62 45.1507 16.608 45.1427 16.576C45.1347 16.504 45.1307 16.432 45.1307 16.36C45.1307 16.288 45.1227 16.216 45.1067 16.144C45.0987 16.176 45.0867 16.208 45.0707 16.24C45.0547 16.272 45.0347 16.304 45.0107 16.336C45.0027 16.344 44.9867 16.356 44.9627 16.372C44.9467 16.388 44.9307 16.396 44.9147 16.396C44.8987 16.42 44.8867 16.444 44.8787 16.468C44.8787 16.492 44.8707 16.516 44.8547 16.54C44.8467 16.556 44.8387 16.58 44.8307 16.612C44.8307 16.652 44.8267 16.664 44.8187 16.648C44.7947 16.608 44.7827 16.564 44.7827 16.516C44.7907 16.476 44.7867 16.436 44.7707 16.396C44.7707 16.388 44.7627 16.38 44.7467 16.372C44.7307 16.372 44.7227 16.376 44.7227 16.384C44.7067 16.432 44.6947 16.484 44.6867 16.54C44.6867 16.596 44.6787 16.648 44.6627 16.696C44.6627 16.688 44.6467 16.676 44.6147 16.66C44.6067 16.644 44.5947 16.628 44.5787 16.612C44.5627 16.596 44.5467 16.584 44.5307 16.576C44.4907 16.536 44.4547 16.492 44.4227 16.444C44.3987 16.404 44.3707 16.36 44.3387 16.312C44.3227 16.28 44.3067 16.24 44.2907 16.192C44.2827 16.184 44.2747 16.172 44.2667 16.156C44.2587 16.148 44.2467 16.128 44.2307 16.096C44.2227 16.08 44.2107 16.064 44.1947 16.048C44.1867 16.04 44.1707 16.036 44.1467 16.036L44.0867 16.108C44.0707 16.124 44.0427 16.132 44.0027 16.132C43.9787 16.124 43.9587 16.112 43.9427 16.096C43.9347 16.08 43.9227 16.064 43.9067 16.048C43.8907 16.056 43.8667 16.052 43.8347 16.036C43.8267 16.044 43.8187 16.06 43.8107 16.084C43.8027 16.108 43.7907 16.128 43.7747 16.144L43.7627 16.156C43.6667 16.236 43.5747 16.268 43.4867 16.252C43.4467 16.244 43.4107 16.224 43.3787 16.192C43.3547 16.16 43.3187 16.124 43.2707 16.084C43.2707 16.116 43.2627 16.132 43.2467 16.132C43.2387 16.14 43.2267 16.128 43.2107 16.096C43.2267 16.08 43.2347 16.068 43.2347 16.06L43.2107 16.084C43.2107 16.084 43.2067 16.08 43.1987 16.072C43.1987 16 43.2027 15.972 43.2107 15.988C43.2187 15.996 43.2147 16.012 43.1987 16.036C43.1907 16.052 43.1747 16.064 43.1507 16.072C43.1347 16.08 43.1267 16.112 43.1267 16.168C43.1187 16.176 43.1187 16.18 43.1267 16.18C43.1267 16.212 43.1307 16.236 43.1387 16.252C43.1467 16.276 43.1427 16.28 43.1267 16.264C43.0947 16.224 43.0827 16.18 43.0907 16.132C43.0987 16.084 43.0987 16.04 43.0907 16L43.0187 15.964C42.9707 15.94 42.9347 15.904 42.9107 15.856C42.8947 15.832 42.8867 15.788 42.8867 15.724C42.8867 15.692 42.8947 15.664 42.9107 15.64C42.9267 15.6 42.9467 15.56 42.9707 15.52C43.0027 15.48 43.0347 15.432 43.0667 15.376C43.1147 15.296 43.1627 15.216 43.2107 15.136C43.2667 15.048 43.3227 14.968 43.3787 14.896L43.9427 14.032C44.0067 13.904 44.0707 13.788 44.1347 13.684C44.1987 13.572 44.2627 13.476 44.3267 13.396C44.4067 13.26 44.4867 13.128 44.5667 13C44.6467 12.864 44.7347 12.736 44.8307 12.616L45.0227 12.352L45.2867 11.944C45.2867 11.936 45.2907 11.932 45.2987 11.932L45.4187 11.668C45.4107 11.652 45.4027 11.636 45.3947 11.62C45.3867 11.604 45.3787 11.592 45.3707 11.584C45.3547 11.568 45.3387 11.548 45.3227 11.524C45.3067 11.492 45.2987 11.476 45.2987 11.476C45.2987 11.468 45.2947 11.464 45.2867 11.464C45.2867 11.464 45.2867 11.46 45.2867 11.452C45.2787 11.436 45.2667 11.416 45.2507 11.392C45.2427 11.368 45.2307 11.344 45.2147 11.32L45.1307 11.2C45.0987 11.152 45.0667 11.104 45.0347 11.056C45.0107 11 44.9787 10.944 44.9387 10.888C44.9147 10.864 44.8907 10.84 44.8667 10.816C44.8507 10.784 44.8267 10.752 44.7947 10.72C44.6987 10.584 44.6067 10.424 44.5187 10.24C44.4707 10.16 44.4227 10.08 44.3747 10C44.3347 9.912 44.2947 9.828 44.2547 9.748L43.6427 8.776C43.6187 8.736 43.5947 8.696 43.5707 8.656C43.5467 8.616 43.5227 8.576 43.4987 8.536C43.4667 8.472 43.4267 8.408 43.3787 8.344C43.3387 8.272 43.3027 8.212 43.2707 8.164C43.2627 8.148 43.2547 8.136 43.2467 8.128C43.2467 8.12 43.2427 8.112 43.2347 8.104L43.1987 8.032C43.1507 7.968 43.1307 7.892 43.1387 7.804C43.1627 7.692 43.2387 7.624 43.3667 7.6C43.4067 7.584 43.4467 7.58 43.4867 7.588C43.5267 7.588 43.5667 7.588 43.6067 7.588C43.6547 7.588 43.6987 7.592 43.7387 7.6C43.7867 7.6 43.8307 7.6 43.8707 7.6H45.5387C45.5787 7.6 45.6227 7.6 45.6707 7.6C45.7267 7.592 45.7787 7.588 45.8267 7.588C45.8987 7.588 45.9707 7.592 46.0427 7.6C46.1147 7.6 46.1827 7.616 46.2467 7.648C46.3187 7.68 46.3747 7.724 46.4147 7.78C46.4627 7.828 46.4947 7.868 46.5107 7.9C46.5507 7.948 46.5827 8 46.6067 8.056C46.6387 8.112 46.6707 8.168 46.7027 8.224L46.7867 8.38C46.8427 8.468 46.8947 8.56 46.9427 8.656C46.9907 8.744 47.0427 8.832 47.0987 8.92L47.1707 9.052C47.2187 9.124 47.2627 9.2 47.3027 9.28L47.3507 9.364L47.3987 9.28C47.4147 9.248 47.4307 9.22 47.4467 9.196C47.4627 9.172 47.4787 9.148 47.4947 9.124L47.6027 8.956C47.6667 8.844 47.7347 8.732 47.8067 8.62C47.8787 8.508 47.9507 8.4 48.0227 8.296L48.0587 8.224C48.0667 8.208 48.0747 8.196 48.0827 8.188C48.0907 8.172 48.0987 8.156 48.1067 8.14C48.1227 8.116 48.1387 8.092 48.1547 8.068C48.1787 8.036 48.1987 8.004 48.2147 7.972L48.2867 7.852C48.3027 7.828 48.3267 7.8 48.3587 7.768C48.3987 7.728 48.4507 7.692 48.5147 7.66C48.5867 7.62 48.6827 7.6 48.8027 7.6H51.2627C51.3267 7.6 51.3867 7.628 51.4427 7.684C51.5147 7.756 51.5387 7.84 51.5147 7.936C51.4987 7.968 51.4907 7.988 51.4907 7.996C51.4667 8.044 51.4387 8.088 51.4067 8.128C51.3747 8.168 51.3467 8.208 51.3227 8.248L51.0227 8.728L51.0107 8.74L50.3867 9.736C50.2747 9.936 50.1627 10.136 50.0507 10.336C49.9467 10.528 49.8387 10.684 49.7267 10.804C49.6707 10.884 49.6027 10.988 49.5227 11.116C49.4427 11.236 49.3707 11.344 49.3067 11.44C49.3067 11.448 49.3027 11.452 49.2947 11.452C49.2947 11.452 49.2947 11.456 49.2947 11.464L49.1867 11.632L49.1627 11.668L49.2587 11.812C49.2747 11.836 49.2907 11.86 49.3067 11.884C49.3227 11.908 49.3347 11.928 49.3427 11.944C49.3507 11.96 49.3627 11.976 49.3787 11.992C49.3947 12.024 49.4107 12.052 49.4267 12.076C49.4507 12.1 49.4667 12.128 49.4747 12.16C49.5147 12.216 49.5547 12.276 49.5947 12.34C49.6347 12.396 49.6747 12.452 49.7147 12.508C49.7547 12.54 49.7947 12.592 49.8347 12.664C49.8827 12.728 49.9347 12.8 49.9907 12.88C50.0787 12.968 50.1627 13.088 50.2427 13.24C50.3227 13.384 50.4027 13.536 50.4827 13.696L51.1427 14.716C51.2147 14.812 51.2827 14.912 51.3467 15.016C51.4107 15.12 51.4747 15.22 51.5387 15.316C51.5787 15.364 51.6187 15.416 51.6587 15.472C51.6987 15.528 51.7227 15.584 51.7307 15.64C51.7467 15.672 51.7547 15.704 51.7547 15.736C51.7547 15.768 51.7467 15.808 51.7307 15.856ZM43.1267 16.168L43.2107 16.084V16.096L43.1267 16.18V16.168ZM59.6418 9.532C59.6418 9.588 59.6458 9.652 59.6538 9.724C59.6618 9.788 59.6578 9.852 59.6418 9.916C59.6418 9.9 59.6378 9.908 59.6298 9.94C59.6218 9.964 59.6218 9.972 59.6298 9.964C59.6218 9.972 59.6178 9.98 59.6178 9.988C59.6178 9.996 59.6138 10.004 59.6058 10.012L59.5458 10.084L59.5098 10.12C59.5018 10.12 59.4898 10.128 59.4738 10.144C59.4658 10.16 59.4578 10.172 59.4498 10.18C59.4178 10.212 59.3898 10.256 59.3658 10.312C59.3418 10.36 59.3098 10.416 59.2698 10.48C59.2378 10.552 59.2058 10.624 59.1738 10.696C59.1418 10.768 59.1058 10.84 59.0658 10.912C59.0098 11.04 58.9498 11.172 58.8858 11.308C58.8298 11.436 58.7578 11.568 58.6698 11.704C58.6138 11.784 58.5618 11.84 58.5138 11.872C58.5058 11.888 58.4978 11.908 58.4898 11.932C58.4898 11.956 58.4818 11.976 58.4658 11.992C58.4658 11.992 58.4498 11.98 58.4178 11.956C58.4098 11.948 58.4018 11.936 58.3938 11.92C58.3938 11.904 58.3698 11.872 58.3218 11.824L58.2978 11.8C58.2738 11.76 58.2498 11.724 58.2258 11.692C58.2098 11.652 58.1938 11.616 58.1778 11.584L58.1418 11.512L58.1298 11.5L58.0218 11.296C57.9498 11.168 57.8738 11.044 57.7938 10.924C57.7218 10.796 57.6458 10.668 57.5658 10.54C57.5338 10.492 57.5058 10.448 57.4818 10.408L57.3978 10.288C57.3738 10.264 57.3498 10.24 57.3258 10.216V10.276V15.436C57.3338 15.5 57.3338 15.56 57.3258 15.616C57.3258 15.672 57.3258 15.712 57.3258 15.736V15.76C57.3178 15.768 57.3138 15.776 57.3138 15.784C57.2978 15.816 57.2858 15.836 57.2778 15.844C57.2778 15.852 57.2738 15.86 57.2658 15.868C57.2338 15.908 57.1938 15.94 57.1458 15.964C57.1378 15.972 57.1298 15.98 57.1218 15.988C57.1138 15.996 57.1058 16.004 57.0978 16.012C57.0898 16.028 57.0778 16.044 57.0618 16.06C57.0458 16.084 57.0298 16.104 57.0138 16.12C56.9818 16.152 56.9458 16.164 56.9058 16.156C56.8898 16.148 56.8738 16.132 56.8578 16.108C56.8418 16.092 56.8258 16.084 56.8098 16.084C56.7938 16.076 56.7778 16.08 56.7618 16.096C56.7458 16.12 56.7298 16.132 56.7138 16.132C56.6498 16.108 56.6218 16.084 56.6298 16.06C56.6458 16.036 56.6178 16.04 56.5458 16.072C56.5218 16.112 56.4938 16.164 56.4618 16.228C56.4298 16.3 56.3858 16.316 56.3298 16.276C56.3138 16.26 56.2978 16.236 56.2818 16.204C56.2738 16.18 56.2578 16.164 56.2338 16.156L56.2218 16.168C56.2218 16.176 56.2178 16.18 56.2098 16.18C56.2098 16.188 56.2098 16.192 56.2098 16.192L56.1378 16.24L56.0898 16.288C56.0898 16.296 56.0818 16.344 56.0658 16.432C56.0498 16.52 56.0338 16.608 56.0178 16.696C56.0018 16.784 55.9938 16.828 55.9938 16.828C55.9858 16.86 55.9778 16.896 55.9698 16.936C55.9698 16.976 55.9618 17.012 55.9458 17.044C55.9378 17.052 55.9258 17.056 55.9098 17.056C55.9018 17.064 55.8978 17.064 55.8978 17.056C55.8818 16.944 55.8738 16.832 55.8738 16.72C55.8738 16.608 55.8658 16.496 55.8498 16.384C55.8498 16.344 55.8378 16.3 55.8138 16.252C55.7978 16.236 55.7698 16.204 55.7298 16.156C55.6978 16.116 55.6698 16.084 55.6458 16.06H55.6098C55.5698 16.06 55.5418 16.056 55.5258 16.048C55.5178 16.064 55.5058 16.076 55.4898 16.084C55.4738 16.1 55.4658 16.112 55.4658 16.12L55.4538 16.132C55.4138 16.18 55.3738 16.228 55.3338 16.276C55.3018 16.324 55.2658 16.38 55.2258 16.444C55.2098 16.46 55.1978 16.476 55.1898 16.492C55.1818 16.5 55.1738 16.508 55.1658 16.516C55.1578 16.524 55.1458 16.536 55.1298 16.552C55.1138 16.568 55.0978 16.58 55.0818 16.588C55.0738 16.676 55.0698 16.804 55.0698 16.972C55.0698 17.148 55.0658 17.332 55.0578 17.524C55.0578 17.716 55.0538 17.896 55.0458 18.064C55.0458 18.24 55.0418 18.372 55.0338 18.46C55.0338 18.468 55.0258 18.464 55.0098 18.448C54.9938 18.432 54.9858 18.42 54.9858 18.412C54.9378 18.324 54.9178 18.196 54.9258 18.028C54.9418 17.868 54.9618 17.688 54.9858 17.488C55.0098 17.296 55.0178 17.112 55.0098 16.936C55.0098 16.768 54.9738 16.632 54.9018 16.528C54.9018 16.512 54.8938 16.5 54.8778 16.492C54.8698 16.484 54.8658 16.48 54.8658 16.48C54.8338 16.416 54.8018 16.356 54.7698 16.3C54.7378 16.244 54.7058 16.188 54.6738 16.132C54.6738 16.124 54.6698 16.116 54.6618 16.108C54.6618 16.108 54.6618 16.104 54.6618 16.096C54.6538 16.088 54.6418 16.068 54.6258 16.036C54.6018 16.012 54.5738 16 54.5418 16C54.5338 16 54.5258 16 54.5178 16C54.5178 15.992 54.5098 15.988 54.4938 15.988C54.4298 15.964 54.3778 15.924 54.3378 15.868C54.3218 15.852 54.3058 15.82 54.2898 15.772C54.2738 15.708 54.2658 15.648 54.2658 15.592C54.2658 15.552 54.2658 15.52 54.2658 15.496C54.2738 15.464 54.2778 15.432 54.2778 15.4V10.276L54.2298 10.18C54.2298 10.18 54.2218 10.196 54.2058 10.228C54.1978 10.236 54.1938 10.248 54.1938 10.264C54.1858 10.296 54.1778 10.328 54.1698 10.36C54.1618 10.392 54.1498 10.42 54.1338 10.444L54.0618 10.588C54.0458 10.62 54.0258 10.652 54.0018 10.684C53.9778 10.716 53.9498 10.748 53.9178 10.78C53.9018 10.796 53.8938 10.804 53.8938 10.804C53.8778 10.812 53.8618 10.824 53.8458 10.84C53.8218 10.872 53.8098 10.892 53.8098 10.9C53.8098 10.908 53.7778 10.94 53.7138 10.996C53.6818 10.996 53.6658 10.996 53.6658 10.996C53.6498 11.028 53.6458 11.068 53.6538 11.116C53.6618 11.164 53.6458 11.196 53.6058 11.212C53.5818 11.22 53.5698 11.204 53.5698 11.164C53.5698 11.116 53.5658 11.08 53.5578 11.056L53.5218 10.888C53.4978 10.872 53.4738 10.852 53.4498 10.828C53.4258 10.796 53.4058 10.772 53.3898 10.756C53.3978 10.764 53.3898 10.76 53.3658 10.744C53.3418 10.72 53.3258 10.704 53.3178 10.696L53.2938 10.672C53.2778 10.68 53.2658 10.696 53.2578 10.72C53.2498 10.744 53.2418 10.764 53.2338 10.78C53.2258 10.82 53.2138 10.856 53.1978 10.888C53.1898 10.92 53.1858 10.948 53.1858 10.972C53.1858 10.9 53.1698 10.812 53.1378 10.708C53.1378 10.716 53.1338 10.72 53.1258 10.72C53.1258 10.72 53.1258 10.724 53.1258 10.732C53.1178 10.732 53.1138 10.736 53.1138 10.744C53.1058 10.752 53.0978 10.76 53.0898 10.768C53.0818 10.776 53.0658 10.8 53.0418 10.84C53.0258 10.872 53.0098 10.896 52.9938 10.912C52.9938 10.912 52.9898 10.916 52.9818 10.924C52.9818 10.924 52.9778 10.924 52.9698 10.924C52.9698 10.924 52.9658 10.928 52.9578 10.936C52.9578 10.936 52.9538 10.936 52.9458 10.936C52.9378 11.016 52.9338 11.092 52.9338 11.164C52.9418 11.236 52.9498 11.312 52.9578 11.392C52.9418 11.288 52.9058 11.24 52.8498 11.248C52.8018 11.264 52.7738 11.288 52.7658 11.32C52.7658 11.248 52.7658 11.176 52.7658 11.104C52.7738 11.024 52.7738 10.948 52.7658 10.876C52.7418 10.86 52.7178 10.84 52.6938 10.816C52.6698 10.784 52.6458 10.756 52.6218 10.732L52.5258 10.636C52.4618 10.564 52.4298 10.528 52.4298 10.528C52.4298 10.528 52.4218 10.52 52.4058 10.504C52.3898 10.488 52.3218 10.416 52.2018 10.288C52.2018 10.304 52.1938 10.312 52.1778 10.312C52.1698 10.312 52.1618 10.3 52.1538 10.276C52.1538 10.252 52.1498 10.232 52.1418 10.216C52.1498 10.224 52.1418 10.212 52.1178 10.18C52.1018 10.14 52.0898 10.116 52.0818 10.108C52.0018 10.044 51.9618 9.96 51.9618 9.856V8.308C51.9618 8.268 51.9578 8.2 51.9498 8.104C51.9498 8 51.9578 7.912 51.9738 7.84C51.9818 7.824 51.9858 7.812 51.9858 7.804C51.9858 7.788 51.9898 7.776 51.9978 7.768C52.0218 7.72 52.0538 7.684 52.0938 7.66C52.1018 7.66 52.1058 7.66 52.1058 7.66C52.1058 7.652 52.1098 7.648 52.1178 7.648L52.1298 7.636C52.1778 7.612 52.2218 7.6 52.2618 7.6C52.3258 7.592 52.3858 7.592 52.4418 7.6C52.5058 7.6 52.5658 7.6 52.6218 7.6H58.8858C58.9738 7.6 59.0658 7.596 59.1618 7.588C59.2578 7.58 59.3458 7.588 59.4258 7.612C59.4498 7.62 59.4698 7.632 59.4858 7.648C59.5098 7.656 59.5258 7.668 59.5338 7.684C59.5898 7.724 59.6218 7.768 59.6298 7.816C59.6378 7.864 59.6418 7.916 59.6418 7.972C59.6498 8.1 59.6498 8.236 59.6418 8.38C59.6418 8.516 59.6418 8.652 59.6418 8.788V9.532ZM52.8018 12.04C52.8178 12.112 52.8138 12.104 52.7898 12.016C52.7658 11.928 52.7458 11.812 52.7298 11.668C52.7218 11.516 52.7338 11.4 52.7658 11.32C52.7578 11.448 52.7538 11.572 52.7538 11.692C52.7618 11.812 52.7778 11.928 52.8018 12.04ZM52.8978 12.028C52.8818 12.076 52.8778 12.076 52.8858 12.028C52.9018 11.972 52.9178 11.892 52.9338 11.788C52.9498 11.684 52.9578 11.588 52.9578 11.5C52.9578 11.588 52.9538 11.676 52.9458 11.764C52.9458 11.852 52.9298 11.94 52.8978 12.028ZM62.3923 13.6C62.4003 13.656 62.4003 13.716 62.3923 13.78C62.3923 13.836 62.3923 13.892 62.3923 13.948V15.736C62.3923 15.736 62.3883 15.752 62.3803 15.784C62.3723 15.808 62.3643 15.82 62.3563 15.82C62.3563 15.828 62.3523 15.836 62.3443 15.844C62.3443 15.852 62.3363 15.864 62.3203 15.88C62.3123 15.888 62.3043 15.896 62.2963 15.904C62.2883 15.912 62.2803 15.92 62.2723 15.928C62.2083 15.992 62.1763 16.02 62.1763 16.012C62.1843 16.004 62.2043 15.984 62.2363 15.952C62.2283 15.96 62.2123 15.976 62.1883 16C62.1643 16.016 62.1563 16.02 62.1643 16.012C62.1563 16.02 62.1563 16.02 62.1643 16.012C62.1803 16.012 62.1643 16.032 62.1163 16.072C62.1083 16.08 62.1003 16.088 62.0923 16.096C62.0923 16.112 62.0843 16.116 62.0683 16.108C62.0363 16.14 62.0083 16.168 61.9843 16.192C61.9603 16.224 61.9363 16.256 61.9123 16.288C61.9043 16.296 61.8923 16.308 61.8763 16.324C61.8603 16.34 61.8443 16.352 61.8283 16.36C61.8123 16.368 61.7963 16.38 61.7803 16.396C61.7723 16.5 61.7723 16.608 61.7803 16.72C61.7883 16.832 61.7723 16.936 61.7323 17.032C61.7163 17.072 61.7043 17.064 61.6963 17.008C61.6963 16.96 61.6963 16.892 61.6963 16.804C61.7043 16.716 61.7003 16.652 61.6843 16.612C61.6843 16.596 61.6803 16.596 61.6723 16.612C61.6643 16.628 61.6523 16.636 61.6363 16.636C61.6283 16.636 61.6163 16.628 61.6003 16.612C61.5843 16.596 61.5683 16.572 61.5523 16.54C61.5443 16.524 61.5363 16.5 61.5283 16.468C61.5203 16.444 61.5123 16.44 61.5043 16.456C61.4803 16.488 61.4683 16.516 61.4683 16.54C61.4603 16.516 61.4523 16.484 61.4443 16.444C61.4363 16.412 61.4243 16.372 61.4083 16.324L61.3483 16.396L61.3123 16.432C61.2963 16.44 61.2803 16.452 61.2643 16.468C61.2563 16.484 61.2483 16.504 61.2403 16.528C61.2403 16.552 61.2323 16.56 61.2163 16.552C61.1923 16.536 61.1803 16.512 61.1803 16.48C61.1883 16.456 61.1843 16.432 61.1683 16.408C61.1363 16.368 61.1123 16.324 61.0963 16.276C61.0803 16.228 61.0643 16.184 61.0483 16.144C61.0323 16.144 61.0243 16.148 61.0243 16.156C61.0083 16.268 61.0003 16.38 61.0003 16.492C61.0003 16.604 60.9923 16.716 60.9763 16.828C60.9763 16.836 60.9683 16.84 60.9523 16.84C60.9363 16.848 60.9283 16.848 60.9283 16.84C60.9123 16.736 60.9043 16.632 60.9043 16.528C60.9123 16.424 60.9083 16.32 60.8923 16.216C60.8603 16.248 60.8403 16.264 60.8323 16.264C60.8323 16.264 60.8243 16.264 60.8083 16.264C60.7843 16.288 60.7563 16.3 60.7243 16.3C60.6923 16.308 60.6723 16.3 60.6643 16.276C60.6643 16.252 60.6563 16.224 60.6403 16.192L60.5563 16.12H60.5323C60.5323 16.176 60.5203 16.212 60.4963 16.228C60.4963 16.228 60.4843 16.208 60.4603 16.168C60.4523 16.224 60.4563 16.296 60.4723 16.384C60.4963 16.472 60.4763 16.52 60.4123 16.528C60.3723 16.528 60.3563 16.496 60.3643 16.432C60.3803 16.376 60.3923 16.316 60.4003 16.252C60.4163 16.188 60.4043 16.152 60.3643 16.144C60.3243 16.136 60.3083 16.164 60.3163 16.228C60.3323 16.292 60.3443 16.356 60.3523 16.42C60.3683 16.484 60.3563 16.508 60.3163 16.492C60.2603 16.468 60.2443 16.412 60.2683 16.324C60.3003 16.236 60.3003 16.164 60.2683 16.108C60.2523 16.068 60.2443 16.084 60.2443 16.156C60.2443 16.236 60.2363 16.292 60.2203 16.324C60.2123 16.332 60.2043 16.32 60.1963 16.288C60.1883 16.264 60.1803 16.244 60.1723 16.228C60.1243 16.164 60.0723 16.116 60.0163 16.084C59.9683 16.052 59.9203 16.02 59.8723 15.988C59.8563 15.98 59.8403 15.972 59.8243 15.964C59.8083 15.948 59.7923 15.936 59.7763 15.928C59.6963 15.864 59.6563 15.78 59.6563 15.676V13.792C59.6563 13.728 59.6563 13.66 59.6563 13.588C59.6563 13.516 59.6763 13.452 59.7163 13.396L59.7883 13.324C59.8443 13.284 59.9083 13.264 59.9803 13.264H61.3843C61.4483 13.264 61.5083 13.264 61.5643 13.264C61.6203 13.256 61.6683 13.252 61.7083 13.252C61.7323 13.252 61.7883 13.252 61.8763 13.252C61.9723 13.244 62.0563 13.248 62.1283 13.264C62.2563 13.296 62.3403 13.372 62.3803 13.492C62.3883 13.516 62.3923 13.552 62.3923 13.6ZM68.6146 17.752C68.5586 17.784 68.5066 17.772 68.4586 17.716C68.4106 17.66 68.3706 17.612 68.3386 17.572C68.3306 17.556 68.3186 17.54 68.3026 17.524C68.2946 17.516 68.2906 17.504 68.2906 17.488C68.2826 17.304 68.2746 17.096 68.2666 16.864C68.2666 16.632 68.2586 16.428 68.2426 16.252C68.2266 16.3 68.2066 16.344 68.1826 16.384C68.1666 16.432 68.1506 16.476 68.1346 16.516C68.1186 16.548 68.1106 16.564 68.1106 16.564C68.1026 16.572 68.0986 16.58 68.0986 16.588C68.0986 16.596 68.0946 16.604 68.0866 16.612C68.0706 16.644 68.0626 16.66 68.0626 16.66C68.0386 16.716 68.0066 16.756 67.9666 16.78C67.9346 16.796 67.9186 16.804 67.9186 16.804C67.9026 16.956 67.9106 17.112 67.9426 17.272C67.9746 17.432 67.9506 17.58 67.8706 17.716C67.8306 17.788 67.8066 17.776 67.7986 17.68C67.7986 17.584 67.8026 17.46 67.8106 17.308C67.8266 17.156 67.8306 17.04 67.8226 16.96C67.8226 16.872 67.8106 16.8 67.7866 16.744C67.7866 16.744 67.7866 16.74 67.7866 16.732C67.7866 16.732 67.7826 16.732 67.7746 16.732L67.6786 16.636C67.6706 16.644 67.6626 16.652 67.6546 16.66C67.6466 16.676 67.6386 16.688 67.6306 16.696C67.6226 16.704 67.6106 16.712 67.5946 16.72C67.5866 16.728 67.5826 16.74 67.5826 16.756C67.5746 16.852 67.5826 16.956 67.6066 17.068C67.6306 17.188 67.6426 17.3 67.6426 17.404C67.6506 17.508 67.6146 17.596 67.5346 17.668C67.4706 17.724 67.4386 17.7 67.4386 17.596C67.4386 17.492 67.4506 17.36 67.4746 17.2C67.4986 17.048 67.5026 16.928 67.4866 16.84C67.4866 16.832 67.4786 16.832 67.4626 16.84C67.4546 16.848 67.4466 16.856 67.4386 16.864C67.3826 16.872 67.3346 16.856 67.2946 16.816C67.2546 16.776 67.2226 16.732 67.1986 16.684C67.1906 16.668 67.1826 16.644 67.1746 16.612C67.1746 16.58 67.1666 16.572 67.1506 16.588C67.1346 16.628 67.1266 16.692 67.1266 16.78C67.1346 16.876 67.1306 16.904 67.1146 16.864C67.0906 16.784 67.0786 16.724 67.0786 16.684C67.0866 16.644 67.0906 16.6 67.0906 16.552C67.0906 16.504 67.0746 16.424 67.0426 16.312L67.0066 16.276C66.9586 16.228 66.9226 16.196 66.8986 16.18C66.8906 16.18 66.8826 16.184 66.8746 16.192C66.8746 16.208 66.8666 16.22 66.8506 16.228C66.8346 16.236 66.8106 16.22 66.7786 16.18C66.7466 16.148 66.7226 16.128 66.7066 16.12C65.9946 16.104 65.3346 15.956 64.7266 15.676C64.1186 15.388 63.6626 14.984 63.3586 14.464C63.3346 14.44 63.3146 14.412 63.2986 14.38C63.2826 14.34 63.2666 14.3 63.2506 14.26C63.1706 14.084 63.1106 13.896 63.0706 13.696C63.0626 13.648 63.0546 13.6 63.0466 13.552C63.0386 13.504 63.0306 13.46 63.0226 13.42C63.0226 13.396 63.0186 13.372 63.0106 13.348C63.0106 13.316 63.0106 13.288 63.0106 13.264V13.12C63.0346 13.008 63.1066 12.94 63.2266 12.916C63.2826 12.908 63.3386 12.908 63.3946 12.916C63.4506 12.916 63.5066 12.916 63.5626 12.916H65.2906C65.3786 12.916 65.4626 12.912 65.5426 12.904C65.6306 12.896 65.7146 12.9 65.7946 12.916C65.8586 12.924 65.9186 12.944 65.9746 12.976C66.0546 13.024 66.1106 13.084 66.1426 13.156C66.1746 13.212 66.2026 13.268 66.2266 13.324C66.2506 13.372 66.2786 13.42 66.3106 13.468L66.3466 13.528C66.4826 13.696 66.6626 13.78 66.8866 13.78C66.9266 13.78 66.9666 13.78 67.0066 13.78C67.0466 13.772 67.0826 13.764 67.1146 13.756C67.1466 13.74 67.1626 13.732 67.1626 13.732C67.2026 13.716 67.2386 13.692 67.2706 13.66C67.3586 13.58 67.4306 13.468 67.4866 13.324C67.5426 13.172 67.5786 13.028 67.5946 12.892C67.6026 12.828 67.6066 12.768 67.6066 12.712C67.6146 12.656 67.6186 12.6 67.6186 12.544V10.228C67.6186 10.148 67.6186 10.12 67.6186 10.144C67.6266 10.16 67.6106 10.124 67.5706 10.036C67.5546 10.044 67.5346 10.064 67.5106 10.096C67.4946 10.128 67.4826 10.148 67.4746 10.156C67.4186 10.236 67.3626 10.32 67.3066 10.408C67.2586 10.496 67.2026 10.584 67.1386 10.672C67.0986 10.744 67.0546 10.796 67.0066 10.828C66.9746 10.844 66.9586 10.852 66.9586 10.852C66.9266 10.852 66.9106 10.852 66.9106 10.852C66.8946 10.74 66.8866 10.632 66.8866 10.528C66.8866 10.416 66.8786 10.304 66.8626 10.192C66.8306 10.224 66.7986 10.264 66.7666 10.312C66.6626 10.456 66.5746 10.604 66.5026 10.756C66.4386 10.908 66.3666 11.064 66.2866 11.224C66.2146 11.368 66.1386 11.508 66.0586 11.644C65.9786 11.78 65.8826 11.908 65.7706 12.028C65.7546 12.06 65.7346 12.088 65.7106 12.112C65.6866 12.136 65.6546 12.168 65.6146 12.208C65.5986 12.216 65.5826 12.224 65.5666 12.232C65.5586 12.24 65.5466 12.252 65.5306 12.268C65.5066 12.316 65.4866 12.368 65.4706 12.424C65.4626 12.48 65.4506 12.532 65.4346 12.58C65.4266 12.596 65.4106 12.628 65.3866 12.676C65.3626 12.724 65.3306 12.744 65.2906 12.736C65.2346 12.72 65.1946 12.672 65.1706 12.592C65.1466 12.512 65.1186 12.444 65.0866 12.388C65.0786 12.388 65.0746 12.384 65.0746 12.376C65.0426 12.344 65.0106 12.308 64.9786 12.268C64.9546 12.228 64.9306 12.188 64.9066 12.148L64.8346 12.004C64.8026 11.948 64.7746 11.896 64.7506 11.848C64.7266 11.792 64.7026 11.736 64.6786 11.68C64.6706 11.672 64.6666 11.66 64.6666 11.644C64.6266 11.556 64.5866 11.476 64.5466 11.404C64.5066 11.324 64.4666 11.244 64.4266 11.164C64.3786 11.052 64.3306 10.936 64.2826 10.816C64.2346 10.696 64.1826 10.58 64.1266 10.468L64.0546 10.324C64.0226 10.268 63.9906 10.212 63.9586 10.156C63.9346 10.092 63.9026 10.032 63.8626 9.976L63.7906 9.904C63.7746 9.872 63.7626 9.852 63.7546 9.844C63.7546 9.836 63.7506 9.832 63.7426 9.832C63.7426 9.824 63.7426 9.816 63.7426 9.808C63.7186 9.744 63.7106 9.676 63.7186 9.604C63.7266 9.524 63.7306 9.452 63.7306 9.388V8.116C63.7306 8.068 63.7306 8.02 63.7306 7.972C63.7306 7.916 63.7346 7.864 63.7426 7.816C63.7666 7.744 63.8026 7.696 63.8506 7.672C63.8506 7.664 63.8506 7.66 63.8506 7.66C63.8586 7.66 63.8626 7.66 63.8626 7.66C63.9266 7.612 64.0026 7.592 64.0906 7.6C64.1786 7.6 64.2626 7.6 64.3426 7.6H70.0666C70.1066 7.6 70.1466 7.6 70.1866 7.6C70.2346 7.592 70.2786 7.588 70.3186 7.588C70.3586 7.588 70.4106 7.596 70.4746 7.612C70.5626 7.628 70.6226 7.668 70.6546 7.732C70.6946 7.796 70.7186 7.872 70.7266 7.96C70.7346 7.992 70.7386 8.028 70.7386 8.068C70.7386 8.1 70.7386 8.132 70.7386 8.164C70.7386 8.204 70.7346 8.252 70.7266 8.308C70.7266 8.356 70.7266 8.408 70.7266 8.464V13C70.7266 13.064 70.7226 13.128 70.7146 13.192C70.7146 13.256 70.7106 13.32 70.7026 13.384C70.7026 13.392 70.6986 13.4 70.6906 13.408C70.6906 13.408 70.6906 13.416 70.6906 13.432C70.6826 13.56 70.6666 13.68 70.6426 13.792C70.6186 13.896 70.5866 13.98 70.5466 14.044C70.5306 14.1 70.5106 14.152 70.4866 14.2C70.4626 14.248 70.4386 14.3 70.4146 14.356C70.3266 14.524 70.2266 14.684 70.1146 14.836C70.0666 14.892 70.0146 14.948 69.9586 15.004C69.9106 15.06 69.8546 15.12 69.7906 15.184C69.7586 15.2 69.7306 15.22 69.7066 15.244C69.6826 15.268 69.6666 15.284 69.6586 15.292C69.6266 15.348 69.5986 15.408 69.5746 15.472C69.5586 15.536 69.5386 15.6 69.5146 15.664C69.4506 15.784 69.3866 15.944 69.3226 16.144C69.2586 16.352 69.1946 16.556 69.1306 16.756C69.0666 16.964 68.9986 17.128 68.9266 17.248C68.8946 17.328 68.8546 17.42 68.8066 17.524C68.7666 17.636 68.7026 17.712 68.6146 17.752ZM79.0324 14.68C78.9764 14.76 78.9204 14.832 78.8644 14.896C78.8084 14.952 78.7604 15 78.7204 15.04L78.6364 15.124C78.6204 15.132 78.6004 15.144 78.5764 15.16C78.5604 15.176 78.5444 15.192 78.5284 15.208C78.5124 15.24 78.4964 15.272 78.4804 15.304C78.4724 15.328 78.4604 15.356 78.4444 15.388C78.4044 15.484 78.3524 15.568 78.2884 15.64C78.2804 15.648 78.2724 15.66 78.2644 15.676C78.2644 15.692 78.2604 15.696 78.2524 15.688C78.2444 15.68 78.2404 15.668 78.2404 15.652L78.1684 15.76C78.1604 15.776 78.1484 15.792 78.1324 15.808C78.1324 15.808 78.1284 15.812 78.1204 15.82C78.1204 15.82 78.1164 15.82 78.1084 15.82C78.1004 15.82 78.0964 15.824 78.0964 15.832C78.0964 15.832 78.0924 15.832 78.0844 15.832C78.0764 15.92 78.0724 16.056 78.0724 16.24C78.0724 16.424 78.0684 16.624 78.0604 16.84C78.0604 17.056 78.0564 17.256 78.0484 17.44C78.0484 17.624 78.0444 17.76 78.0364 17.848C78.0364 17.856 78.0284 17.864 78.0124 17.872C77.9964 17.88 77.9884 17.88 77.9884 17.872C77.9804 17.784 77.9724 17.644 77.9644 17.452C77.9644 17.26 77.9644 17.052 77.9644 16.828C77.9644 16.612 77.9604 16.408 77.9524 16.216C77.9524 16.032 77.9484 15.892 77.9404 15.796C77.9244 15.78 77.9084 15.768 77.8924 15.76C77.8924 15.76 77.8844 15.752 77.8684 15.736C77.8684 15.736 77.8644 15.736 77.8564 15.736C77.8564 15.728 77.8564 15.72 77.8564 15.712C77.8484 15.712 77.8444 15.712 77.8444 15.712C77.8444 15.704 77.8404 15.7 77.8324 15.7L77.8204 15.712C77.8124 15.736 77.8084 15.76 77.8084 15.784C77.8084 15.808 77.8004 15.84 77.7844 15.88C77.7764 15.912 77.7604 15.94 77.7364 15.964C77.7204 15.988 77.7004 16.016 77.6764 16.048C77.6764 16.056 77.6684 16.076 77.6524 16.108C77.6364 16.124 77.6244 16.132 77.6164 16.132C77.6084 16.132 77.6044 16.132 77.6044 16.132C77.6044 16.14 77.6044 16.144 77.6044 16.144C77.5324 16.272 77.4724 16.416 77.4244 16.576L77.3404 16.852C77.3324 16.876 77.3204 16.908 77.3044 16.948C77.2964 16.996 77.2924 17.008 77.2924 16.984C77.2764 16.856 77.2684 16.728 77.2684 16.6C77.2764 16.472 77.2724 16.344 77.2564 16.216C77.2564 16.224 77.2524 16.228 77.2444 16.228C77.2444 16.228 77.2444 16.232 77.2444 16.24C77.2284 16.296 77.2084 16.348 77.1844 16.396C77.1604 16.452 77.1364 16.508 77.1124 16.564C77.0724 16.652 77.0244 16.74 76.9684 16.828C76.9124 16.916 76.8484 16.996 76.7764 17.068C76.7684 17.076 76.7524 17.088 76.7284 17.104C76.7124 17.128 76.6924 17.148 76.6684 17.164C76.6364 17.196 76.6044 17.228 76.5724 17.26C76.5484 17.3 76.5044 17.312 76.4404 17.296C76.3924 17.272 76.3484 17.24 76.3084 17.2C76.2764 17.176 76.2404 17.144 76.2004 17.104C76.1684 17.064 76.1364 17.028 76.1044 16.996C76.0404 16.916 75.9804 16.828 75.9244 16.732C75.8764 16.644 75.8244 16.552 75.7684 16.456C75.7524 16.424 75.7324 16.384 75.7084 16.336C75.6844 16.296 75.6604 16.26 75.6364 16.228L75.6004 16.192C75.6004 16.184 75.5924 16.18 75.5764 16.18C75.5764 16.18 75.5604 16.168 75.5284 16.144C75.5124 16.152 75.5044 16.168 75.5044 16.192C75.5044 16.224 75.4964 16.248 75.4804 16.264C75.4644 16.296 75.4524 16.312 75.4444 16.312C75.4364 16.304 75.4284 16.292 75.4204 16.276C75.4204 16.26 75.4164 16.248 75.4084 16.24L75.3724 16.12H75.3604C74.4964 16.104 73.7804 15.972 73.2124 15.724C72.6524 15.468 72.2324 15.152 71.9524 14.776C71.8964 14.704 71.8484 14.632 71.8084 14.56C71.7684 14.496 71.7364 14.432 71.7124 14.368L71.6644 14.248C71.6404 14.184 71.6204 14.12 71.6044 14.056C71.5884 13.984 71.5724 13.916 71.5564 13.852C71.5484 13.788 71.5364 13.724 71.5204 13.66C71.5124 13.588 71.5244 13.52 71.5564 13.456C71.5564 13.448 71.5564 13.444 71.5564 13.444C71.5644 13.436 71.5684 13.432 71.5684 13.432C71.5844 13.4 71.6164 13.368 71.6644 13.336C71.6964 13.32 71.7284 13.312 71.7604 13.312C71.7924 13.304 71.8204 13.3 71.8444 13.3C71.9564 13.292 72.0684 13.292 72.1804 13.3C72.2924 13.3 72.4004 13.3 72.5044 13.3H73.6444C73.6844 13.3 73.7364 13.3 73.8004 13.3C73.8724 13.292 73.9364 13.288 73.9924 13.288C74.0404 13.288 74.0844 13.292 74.1244 13.3C74.1724 13.3 74.2124 13.304 74.2444 13.312C74.3084 13.32 74.3604 13.34 74.4004 13.372C74.4484 13.396 74.4964 13.428 74.5444 13.468L74.7244 13.588C74.7804 13.62 74.8364 13.648 74.8924 13.672C74.9484 13.696 75.0044 13.716 75.0604 13.732C75.1644 13.764 75.3044 13.78 75.4804 13.78C75.5764 13.78 75.6684 13.776 75.7564 13.768C75.8444 13.76 75.9244 13.748 75.9964 13.732L76.1164 13.696C76.1324 13.688 76.1444 13.684 76.1524 13.684C76.1684 13.684 76.1804 13.68 76.1884 13.672C76.3164 13.608 76.3804 13.532 76.3804 13.444V13.432C76.3804 13.384 76.3604 13.332 76.3204 13.276L76.2484 13.204H76.2364C76.2044 13.188 76.1604 13.188 76.1044 13.204C76.0484 13.212 76.0004 13.22 75.9604 13.228C75.9284 13.228 75.8924 13.232 75.8524 13.24C75.8204 13.24 75.7844 13.24 75.7444 13.24C75.7284 13.24 75.7124 13.236 75.6964 13.228C75.6804 13.22 75.6644 13.216 75.6484 13.216C75.6244 13.224 75.6004 13.232 75.5764 13.24C75.5604 13.248 75.5444 13.256 75.5284 13.264C75.4884 13.28 75.4444 13.296 75.3964 13.312C75.3484 13.328 75.3004 13.348 75.2524 13.372C75.1804 13.404 75.1044 13.432 75.0244 13.456C74.9524 13.472 74.8764 13.464 74.7964 13.432C74.7484 13.416 74.7044 13.396 74.6644 13.372C74.6244 13.348 74.5844 13.324 74.5444 13.3C74.4644 13.26 74.3884 13.216 74.3164 13.168C74.2524 13.12 74.1884 13.068 74.1244 13.012L73.8484 12.736L73.7524 12.664H73.6684C73.6604 12.672 73.6484 12.684 73.6324 12.7C73.6244 12.708 73.6124 12.72 73.5964 12.736C73.5644 12.768 73.5284 12.804 73.4884 12.844C73.4484 12.884 73.4084 12.92 73.3684 12.952C73.3524 12.96 73.3284 12.972 73.2964 12.988C73.2724 13.004 73.2484 13.008 73.2244 13C73.1924 12.984 73.1644 12.96 73.1404 12.928C73.1164 12.896 73.0964 12.864 73.0804 12.832C73.0564 12.768 73.0364 12.7 73.0204 12.628C73.0124 12.556 72.9924 12.492 72.9604 12.436C72.9284 12.412 72.8924 12.384 72.8524 12.352C72.8204 12.32 72.7884 12.288 72.7564 12.256C72.7484 12.248 72.7404 12.24 72.7324 12.232C72.7324 12.224 72.7244 12.216 72.7084 12.208C72.6524 12.152 72.6204 12.124 72.6124 12.124C72.6124 12.124 72.5964 12.116 72.5644 12.1C72.5484 12.084 72.5404 12.068 72.5404 12.052C72.4684 11.988 72.4004 11.92 72.3364 11.848C72.3124 11.816 72.2844 11.788 72.2524 11.764C72.2284 11.732 72.2084 11.7 72.1924 11.668C72.1604 11.636 72.1324 11.6 72.1084 11.56C72.0844 11.52 72.0604 11.484 72.0364 11.452C72.0204 11.42 72.0044 11.392 71.9884 11.368C71.9724 11.336 71.9564 11.304 71.9404 11.272C71.8684 11.152 71.8124 10.984 71.7724 10.768C71.7404 10.552 71.7284 10.34 71.7364 10.132C71.7444 9.916 71.7684 9.748 71.8084 9.628C71.8244 9.58 71.8404 9.532 71.8564 9.484C71.8724 9.436 71.8884 9.388 71.9044 9.34C71.9204 9.292 71.9364 9.256 71.9524 9.232C71.9684 9.184 71.9844 9.148 72.0004 9.124C72.2564 8.628 72.6684 8.236 73.2364 7.948C73.8044 7.652 74.4924 7.496 75.3004 7.48H75.3964C76.0604 7.48 76.6364 7.576 77.1244 7.768C77.6204 7.952 78.0284 8.192 78.3484 8.488C78.6684 8.776 78.8964 9.076 79.0324 9.388C79.0484 9.436 79.0644 9.484 79.0804 9.532C79.1044 9.58 79.1204 9.628 79.1284 9.676C79.1444 9.724 79.1564 9.776 79.1644 9.832C79.1804 9.888 79.1804 9.944 79.1644 10C79.1484 10.072 79.1164 10.128 79.0684 10.168C79.0364 10.2 79.0084 10.22 78.9844 10.228C78.9844 10.228 78.9764 10.236 78.9604 10.252C78.9524 10.252 78.9444 10.248 78.9364 10.24C78.9284 10.248 78.9204 10.252 78.9124 10.252C78.9044 10.244 78.8924 10.244 78.8764 10.252C78.8604 10.252 78.8404 10.26 78.8164 10.276C78.8004 10.284 78.7844 10.292 78.7684 10.3C78.7124 10.324 78.6564 10.352 78.6004 10.384C78.5524 10.416 78.4964 10.436 78.4324 10.444C78.3684 10.444 78.3044 10.436 78.2404 10.42C78.1764 10.396 78.1124 10.384 78.0484 10.384C78.0004 10.384 77.9524 10.396 77.9044 10.42C77.8564 10.436 77.8084 10.44 77.7604 10.432C77.7284 10.424 77.6964 10.412 77.6644 10.396C77.6324 10.372 77.6004 10.352 77.5684 10.336C77.5444 10.328 77.5204 10.32 77.4964 10.312C77.4724 10.304 77.4484 10.3 77.4244 10.3L77.3284 10.324C77.2484 10.34 77.1684 10.356 77.0884 10.372C77.0084 10.388 76.9244 10.4 76.8364 10.408C76.8044 10.416 76.7724 10.428 76.7404 10.444C76.7164 10.46 76.6884 10.472 76.6564 10.48C76.6084 10.496 76.5564 10.508 76.5004 10.516C76.4524 10.524 76.4004 10.52 76.3444 10.504C76.2724 10.472 76.2124 10.424 76.1644 10.36C76.1244 10.288 76.0804 10.224 76.0324 10.168C76.0164 10.144 75.9964 10.12 75.9724 10.096C75.9484 10.072 75.9244 10.048 75.9004 10.024C75.8924 10.032 75.8804 10.036 75.8644 10.036C75.7284 10.076 75.6044 10.06 75.4924 9.988C75.4684 9.972 75.4444 9.956 75.4204 9.94C75.3964 9.916 75.3684 9.9 75.3364 9.892C75.3364 9.884 75.3204 9.872 75.2884 9.856C75.2564 9.864 75.2244 9.876 75.1924 9.892C75.1604 9.9 75.1284 9.912 75.0964 9.928C75.0884 9.928 75.0764 9.932 75.0604 9.94C75.0524 9.94 75.0404 9.94 75.0244 9.94H74.9524C74.9204 9.94 74.9004 9.944 74.8924 9.952C74.8924 9.96 74.8844 9.972 74.8684 9.988C74.8684 9.996 74.8644 10 74.8564 10C74.8564 10 74.8564 10.004 74.8564 10.012C74.8404 10.044 74.8324 10.068 74.8324 10.084C74.8244 10.1 74.8204 10.124 74.8204 10.156C74.8204 10.268 74.8844 10.352 75.0124 10.408C75.0284 10.424 75.0604 10.44 75.1084 10.456C75.1804 10.488 75.2564 10.512 75.3364 10.528C75.4884 10.568 75.6604 10.604 75.8524 10.636L76.1524 10.672C76.1684 10.672 76.1844 10.676 76.2004 10.684C76.2244 10.684 76.2404 10.684 76.2484 10.684L76.4764 10.72H76.5484C76.5564 10.728 76.5644 10.732 76.5724 10.732C76.5964 10.732 76.6204 10.736 76.6444 10.744C76.6764 10.744 76.7084 10.748 76.7404 10.756C77.9884 10.98 78.7964 11.404 79.1644 12.028C79.1724 12.028 79.1764 12.032 79.1764 12.04C79.2244 12.096 79.2604 12.172 79.2844 12.268C79.2924 12.284 79.3004 12.304 79.3084 12.328C79.3164 12.344 79.3244 12.36 79.3324 12.376L79.4044 12.592C79.4044 12.6 79.4044 12.612 79.4044 12.628C79.4124 12.636 79.4164 12.644 79.4164 12.652C79.4404 12.724 79.4524 12.796 79.4524 12.868C79.4604 12.916 79.4644 12.964 79.4644 13.012C79.4644 13.052 79.4644 13.092 79.4644 13.132V13.288C79.4644 13.576 79.4164 13.852 79.3204 14.116C79.2644 14.316 79.1964 14.468 79.1164 14.572L79.0324 14.68Z" fill="white"/>
</g>
<defs>
<filter id="filter0_d_195_32" x="0.900024" y="0.899902" width="108.2" height="30.1934" filterUnits="userSpaceOnUse" color-interpolation-filters="sRGB">
<feFlood flood-opacity="0" result="BackgroundImageFix"/>
<feColorMatrix in="SourceAlpha" type="matrix" values="0 0 0 0 0 0 0 0 0 0 0 0 0 0 0 0 0 0 127 0" result="hardAlpha"/>
<feOffset dy="4"/>
<feGaussianBlur stdDeviation="2"/>
<feComposite in2="hardAlpha" operator="out"/>
<feColorMatrix type="matrix" values="0 0 0 0 0 0 0 0 0 0 0 0 0 0 0 0 0 0 0.25 0"/>
<feBlend mode="normal" in2="BackgroundImageFix" result="effect1_dropShadow_195_32"/>
<feBlend mode="normal" in="SourceGraphic" in2="effect1_dropShadow_195_32" result="shape"/>
</filter>
<linearGradient id="paint0_linear_195_32" x1="56.1365" y1="1" x2="56.1365" y2="21.7676" gradientUnits="userSpaceOnUse">
<stop stop-color="#D9F049"/>
<stop offset="0.416667" stop-color="#D7F67F" stop-opacity="0.583333"/>
<stop offset="1" stop-color="#7EFF7B"/>
</linearGradient>
</defs>
</svg>
