<svg width="110" height="32" viewBox="0 0 110 32" fill="none" xmlns="http://www.w3.org/2000/svg">
<g filter="url(#filter0_d_247_13)">
<path d="M5.00601 1.86583L4.98731 1.96383L9.15792 3.05825H5L4.99138 3.15751L11.2422 4.25104H5H4.95V4.30104V21V21.0342L4.98186 21.0466L10.1183 23.0466L10.1634 22.9578L7.38661 21.1872L10.5829 22.2975L10.6301 22.2109L9.20963 21.1004L11.1251 21.5487L11.3082 21.5915L11.1705 21.4634L10.7264 21.05H62.9545L62.9642 20.9509L53.8733 19.1618L53.856 19.1584L53.8404 19.1665L51.8366 20.2182L52.7635 19.2453L52.8298 19.1756L52.7347 19.1614L46.2121 18.1833L56.1324 18.9767L56.1492 18.8785L51.0669 17.5322L60.604 18.4706L62.944 18.9757L62.944 18.9758L62.947 18.9763L76.5834 21.0494L76.5833 21.05H76.5909H103.864L103.887 20.9557L98.4549 18.1049L104.993 18.9764L105.02 18.8811L101.828 17.4716H105H105.05V17.4216V2V1.93117L104.985 1.95245L101.858 2.9689L104.406 1.03987L104.525 0.95H104.376H5L4.991 1.04918L18.1397 3.45642L5.00601 1.86583Z" fill="black" stroke="url(#paint0_linear_247_13)" stroke-width="0.1"/>
<path d="M39.22 15.736C39.212 15.768 39.2 15.796 39.184 15.82C39.176 15.844 39.16 15.872 39.136 15.904C39.152 15.896 39.14 15.908 39.1 15.94C39.068 15.964 39.056 15.972 39.064 15.964C39.056 15.964 39.048 15.968 39.04 15.976C39.024 16.056 39.012 16.132 39.004 16.204C39.004 16.276 39 16.352 38.992 16.432C38.984 16.56 38.968 16.7 38.944 16.852C38.928 17.012 38.912 17.156 38.896 17.284C38.888 17.364 38.872 17.46 38.848 17.572C38.832 17.692 38.816 17.792 38.8 17.872C38.792 17.896 38.784 17.92 38.776 17.944C38.776 17.968 38.768 17.988 38.752 18.004C38.752 18.012 38.744 18.016 38.728 18.016C38.72 18.016 38.716 18.012 38.716 18.004C38.7 17.988 38.688 17.968 38.68 17.944C38.68 17.928 38.676 17.912 38.668 17.896C38.644 17.824 38.624 17.732 38.608 17.62C38.592 17.516 38.576 17.432 38.56 17.368C38.528 17.184 38.504 16.972 38.488 16.732C38.48 16.5 38.456 16.296 38.416 16.12C38.408 16.16 38.404 16.2 38.404 16.24C38.404 16.288 38.396 16.332 38.38 16.372C38.372 16.388 38.356 16.396 38.332 16.396C38.316 16.404 38.3 16.416 38.284 16.432C38.276 16.432 38.264 16.436 38.248 16.444C38.24 16.46 38.236 16.464 38.236 16.456C38.228 16.416 38.22 16.376 38.212 16.336C38.212 16.296 38.208 16.256 38.2 16.216C38.2 16.224 38.196 16.232 38.188 16.24C38.18 16.256 38.172 16.272 38.164 16.288C38.156 16.304 38.148 16.32 38.14 16.336C38.14 16.336 38.136 16.336 38.128 16.336C38.128 16.344 38.128 16.352 38.128 16.36C38.128 16.36 38.116 16.372 38.092 16.396C38.068 16.428 38.052 16.444 38.044 16.444C38.028 16.46 38.012 16.468 37.996 16.468C37.988 16.596 37.98 16.72 37.972 16.84C37.972 16.968 37.964 17.092 37.948 17.212C37.948 17.22 37.94 17.224 37.924 17.224C37.908 17.224 37.896 17.22 37.888 17.212C37.88 17.076 37.876 16.98 37.876 16.924C37.876 16.876 37.876 16.836 37.876 16.804C37.876 16.78 37.872 16.74 37.864 16.684C37.856 16.628 37.836 16.532 37.804 16.396C37.764 16.348 37.724 16.296 37.684 16.24C37.676 16.232 37.672 16.224 37.672 16.216C37.672 16.208 37.668 16.2 37.66 16.192L37.612 16.12C37.604 16.104 37.6 16.088 37.6 16.072C37.6 16.064 37.596 16.056 37.588 16.048C37.588 16.072 37.58 16.084 37.564 16.084C37.564 16.084 37.548 16.076 37.516 16.06C37.508 16.084 37.496 16.108 37.48 16.132C37.464 16.156 37.444 16.176 37.42 16.192C37.404 16.208 37.392 16.216 37.384 16.216C37.368 16.232 37.36 16.26 37.36 16.3C37.36 16.34 37.348 16.356 37.324 16.348C37.3 16.34 37.288 16.316 37.288 16.276C37.296 16.244 37.292 16.216 37.276 16.192L37.228 16.144L37.156 16.06C37.156 16.068 37.152 16.072 37.144 16.072C37.152 16.072 37.136 16.06 37.096 16.036C37.064 16.02 37.048 16.012 37.048 16.012C37.048 16.012 37.028 16.02 36.988 16.036C36.956 16.06 36.924 16.08 36.892 16.096C36.86 16.12 36.828 16.12 36.796 16.096C36.764 16.08 36.744 16.06 36.736 16.036C36.736 16.012 36.728 15.984 36.712 15.952C36.672 15.92 36.632 15.884 36.592 15.844C36.56 15.804 36.528 15.76 36.496 15.712C36.464 15.656 36.432 15.608 36.4 15.568L36.34 15.472C36.324 15.448 36.304 15.424 36.28 15.4C36.264 15.368 36.248 15.34 36.232 15.316C36.216 15.292 36.2 15.268 36.184 15.244C36.168 15.22 36.152 15.192 36.136 15.16L36.064 15.052C35.992 14.98 35.92 14.892 35.848 14.788C35.784 14.684 35.716 14.572 35.644 14.452C35.58 14.364 35.512 14.264 35.44 14.152C35.368 14.032 35.3 13.912 35.236 13.792L34.756 13.072C34.692 12.992 34.636 12.912 34.588 12.832C34.58 12.816 34.572 12.8 34.564 12.784C34.556 12.768 34.544 12.756 34.528 12.748C34.512 12.716 34.504 12.7 34.504 12.7C34.488 12.676 34.48 12.664 34.48 12.664C34.48 12.656 34.48 12.672 34.48 12.712V15.436C34.48 15.484 34.48 15.536 34.48 15.592C34.488 15.64 34.488 15.688 34.48 15.736C34.48 15.72 34.476 15.728 34.468 15.76C34.46 15.784 34.46 15.792 34.468 15.784C34.468 15.792 34.464 15.8 34.456 15.808C34.456 15.816 34.452 15.82 34.444 15.82C34.444 15.82 34.444 15.824 34.444 15.832C34.444 15.84 34.44 15.844 34.432 15.844C34.432 15.844 34.432 15.848 34.432 15.856C34.392 15.904 34.352 15.94 34.312 15.964C34.296 15.98 34.284 15.996 34.276 16.012C34.26 16.028 34.252 16.044 34.252 16.06L34.204 16.144C34.196 16.168 34.184 16.188 34.168 16.204C34.16 16.228 34.148 16.252 34.132 16.276C34.06 16.436 33.98 16.596 33.892 16.756L33.784 16.996C33.784 17.004 33.78 17.008 33.772 17.008C33.772 17.008 33.772 17.012 33.772 17.02L33.724 17.092L33.688 17.128C33.688 17.128 33.684 17.128 33.676 17.128C33.676 17.128 33.676 17.132 33.676 17.14C33.668 17.14 33.656 17.148 33.64 17.164C33.632 17.316 33.624 17.468 33.616 17.62C33.616 17.772 33.608 17.928 33.592 18.088C33.584 18.112 33.572 18.1 33.556 18.052C33.548 18.012 33.544 17.98 33.544 17.956C33.528 17.82 33.52 17.68 33.52 17.536C33.52 17.4 33.512 17.264 33.496 17.128C33.48 17.12 33.464 17.1 33.448 17.068C33.44 17.068 33.432 17.064 33.424 17.056L33.34 16.912C33.332 16.888 33.32 16.864 33.304 16.84C33.296 16.816 33.288 16.788 33.28 16.756C33.272 16.732 33.264 16.708 33.256 16.684C33.248 16.66 33.236 16.632 33.22 16.6L33.112 16.276C33.104 16.26 33.096 16.24 33.088 16.216C33.088 16.192 33.084 16.172 33.076 16.156C33.06 16.236 33.052 16.316 33.052 16.396C33.052 16.476 33.044 16.56 33.028 16.648C33.02 16.656 33.012 16.648 33.004 16.624C32.996 16.608 32.988 16.596 32.98 16.588C32.964 16.572 32.948 16.548 32.932 16.516C32.9 16.46 32.868 16.404 32.836 16.348C32.812 16.292 32.78 16.244 32.74 16.204C32.724 16.188 32.712 16.18 32.704 16.18C32.696 16.204 32.676 16.232 32.644 16.264C32.628 16.28 32.604 16.292 32.572 16.3C32.548 16.316 32.524 16.332 32.5 16.348C32.476 16.372 32.456 16.396 32.44 16.42C32.424 16.452 32.4 16.476 32.368 16.492C32.336 16.516 32.3 16.52 32.26 16.504C32.228 16.472 32.212 16.464 32.212 16.48C32.204 16.568 32.212 16.708 32.236 16.9C32.26 17.092 32.28 17.284 32.296 17.476C32.32 17.668 32.324 17.812 32.308 17.908C32.3 18.012 32.252 18.02 32.164 17.932C32.052 17.812 31.996 17.652 31.996 17.452C32.004 17.252 32.028 17.052 32.068 16.852C32.116 16.652 32.136 16.492 32.128 16.372L32.08 16.3C32.072 16.284 32.06 16.26 32.044 16.228C32.036 16.204 32.032 16.2 32.032 16.216C32.016 16.296 32.012 16.376 32.02 16.456C32.036 16.536 32.024 16.608 31.984 16.672C31.96 16.704 31.948 16.696 31.948 16.648C31.948 16.608 31.952 16.552 31.96 16.48C31.968 16.416 31.968 16.364 31.96 16.324L31.876 15.988C31.844 15.972 31.816 15.956 31.792 15.94C31.704 15.876 31.66 15.788 31.66 15.676V7.924C31.66 7.892 31.668 7.852 31.684 7.804C31.708 7.732 31.744 7.684 31.792 7.66C31.808 7.644 31.84 7.628 31.888 7.612C31.912 7.604 31.948 7.6 31.996 7.6H33.88C33.984 7.6 34.068 7.616 34.132 7.648C34.196 7.68 34.244 7.716 34.276 7.756C34.34 7.812 34.392 7.88 34.432 7.96C34.48 8.04 34.524 8.116 34.564 8.188L34.6 8.248L34.648 8.32C34.736 8.408 34.816 8.52 34.888 8.656C34.96 8.792 35.032 8.928 35.104 9.064L35.128 9.124L35.548 9.808C35.556 9.808 35.56 9.812 35.56 9.82C35.672 9.988 35.78 10.164 35.884 10.348C35.996 10.524 36.104 10.7 36.208 10.876L36.352 11.116L36.364 11.128L36.4 11.104V8.248C36.4 8.192 36.396 8.132 36.388 8.068C36.388 8.004 36.392 7.944 36.4 7.888C36.4 7.848 36.408 7.816 36.424 7.792C36.44 7.76 36.452 7.74 36.46 7.732C36.468 7.708 36.484 7.692 36.508 7.684C36.508 7.684 36.516 7.676 36.532 7.66C36.588 7.62 36.644 7.6 36.7 7.6C36.732 7.592 36.764 7.588 36.796 7.588C36.828 7.588 36.856 7.588 36.88 7.588C36.92 7.596 36.956 7.6 36.988 7.6C37.028 7.6 37.064 7.6 37.096 7.6H38.752C38.792 7.6 38.832 7.6 38.872 7.6C38.92 7.592 38.964 7.596 39.004 7.612C39.06 7.636 39.108 7.668 39.148 7.708C39.172 7.74 39.188 7.772 39.196 7.804C39.212 7.852 39.22 7.892 39.22 7.924C39.228 7.98 39.228 8.04 39.22 8.104C39.22 8.168 39.22 8.224 39.22 8.272V15.268C39.228 15.348 39.232 15.428 39.232 15.508C39.24 15.588 39.236 15.664 39.22 15.736ZM47.2268 12.688C47.2348 12.816 47.2348 12.944 47.2268 13.072C47.2268 13.2 47.2228 13.324 47.2148 13.444C47.1988 13.692 47.1628 13.924 47.1068 14.14C47.0508 14.348 46.9708 14.54 46.8668 14.716C46.8348 14.772 46.8028 14.828 46.7708 14.884C46.7388 14.94 46.7028 14.996 46.6628 15.052C46.6228 15.1 46.5788 15.144 46.5308 15.184C46.5308 15.192 46.5268 15.2 46.5188 15.208C46.4868 15.256 46.4468 15.296 46.3988 15.328C46.3908 15.336 46.3828 15.344 46.3748 15.352C46.3668 15.36 46.3548 15.372 46.3388 15.388C46.3308 15.396 46.3228 15.404 46.3148 15.412C46.3068 15.42 46.2988 15.428 46.2908 15.436L46.2188 15.592C46.2188 15.624 46.2188 15.656 46.2188 15.688C46.2188 15.712 46.2148 15.74 46.2068 15.772C46.1988 15.828 46.1988 15.904 46.2068 16C46.2148 16.088 46.1988 16.116 46.1588 16.084C46.1348 16.06 46.1188 16.032 46.1108 16C46.1108 15.96 46.1108 15.924 46.1108 15.892C46.1108 15.908 46.1028 15.924 46.0868 15.94C46.0788 15.964 46.0628 15.988 46.0388 16.012C46.0228 16.044 45.9988 16.064 45.9668 16.072C45.9108 16.096 45.8628 16.076 45.8228 16.012C45.7908 15.956 45.7668 15.912 45.7508 15.88C45.7508 15.872 45.7468 15.864 45.7388 15.856C45.6828 15.96 45.6588 16.076 45.6668 16.204C45.6748 16.34 45.6708 16.472 45.6548 16.6C45.6548 16.632 45.6508 16.668 45.6428 16.708C45.6348 16.756 45.6268 16.8 45.6188 16.84C45.6108 16.888 45.5908 16.932 45.5588 16.972C45.5588 16.996 45.5428 17.008 45.5108 17.008C45.4788 16.992 45.4628 16.972 45.4628 16.948C45.4468 16.812 45.4388 16.672 45.4388 16.528C45.4388 16.384 45.4308 16.244 45.4148 16.108C45.4148 16.108 45.4108 16.104 45.4028 16.096C45.4028 16.096 45.3988 16.096 45.3908 16.096C45.3668 16.104 45.3428 16.116 45.3188 16.132C45.2948 16.148 45.2748 16.164 45.2588 16.18C45.2028 16.236 45.1548 16.304 45.1148 16.384C45.0908 16.432 45.0668 16.48 45.0428 16.528C45.0268 16.576 45.0068 16.62 44.9828 16.66C44.9748 16.668 44.9628 16.684 44.9468 16.708C44.9388 16.74 44.9348 16.752 44.9348 16.744C44.9188 16.656 44.9108 16.568 44.9108 16.48C44.9108 16.392 44.9028 16.308 44.8868 16.228C44.9028 16.228 44.8788 16.224 44.8148 16.216C44.7588 16.216 44.7348 16.22 44.7428 16.228C44.7268 16.356 44.7188 16.484 44.7188 16.612C44.7188 16.74 44.7108 16.868 44.6948 16.996C44.6948 17.004 44.6788 17.02 44.6468 17.044C44.6228 17.068 44.6068 17.084 44.5988 17.092C44.5908 17.1 44.5788 17.104 44.5628 17.104C44.5548 17.112 44.5508 17.112 44.5508 17.104C44.5348 16.968 44.5268 16.828 44.5268 16.684C44.5268 16.548 44.5148 16.412 44.4908 16.276C44.4668 16.284 44.4468 16.296 44.4308 16.312C44.4148 16.328 44.4068 16.336 44.4068 16.336C44.3988 16.344 44.3908 16.356 44.3828 16.372C44.3828 16.396 44.3748 16.416 44.3588 16.432C44.3508 16.432 44.3308 16.416 44.2988 16.384C44.2908 16.368 44.2828 16.352 44.2748 16.336C44.2748 16.32 44.2668 16.308 44.2508 16.3C44.2508 16.292 44.2468 16.288 44.2388 16.288C44.2308 16.28 44.2268 16.276 44.2268 16.276C44.2268 16.284 44.2228 16.284 44.2148 16.276H44.1428C44.1428 16.308 44.1428 16.34 44.1428 16.372C44.1428 16.404 44.1348 16.44 44.1188 16.48C44.1188 16.48 44.0868 16.444 44.0228 16.372C43.9828 16.332 43.9628 16.312 43.9628 16.312C43.9628 16.32 43.9508 16.32 43.9268 16.312C43.8948 16.312 43.8788 16.308 43.8788 16.3C43.8708 16.412 43.8628 16.52 43.8548 16.624C43.8548 16.736 43.8468 16.848 43.8308 16.96C43.8308 16.976 43.8228 16.968 43.8068 16.936C43.7988 16.904 43.7908 16.88 43.7828 16.864C43.7748 16.84 43.7668 16.816 43.7588 16.792C43.7508 16.776 43.7428 16.756 43.7348 16.732C43.7108 16.628 43.6908 16.524 43.6748 16.42C43.6668 16.324 43.6548 16.224 43.6388 16.12H43.5668C42.4788 16.096 41.6588 15.844 41.1068 15.364L41.0348 15.292C40.5628 14.844 40.3028 14.228 40.2548 13.444C40.2308 13.068 40.2308 12.692 40.2548 12.316C40.3188 11.428 40.6548 10.76 41.2628 10.312C41.8788 9.864 42.7188 9.64 43.7828 9.64H43.8908C44.0028 9.64 44.1148 9.644 44.2268 9.652C44.3388 9.66 44.4468 9.672 44.5508 9.688C44.5668 9.688 44.5788 9.692 44.5868 9.7C45.4108 9.82 46.0708 10.132 46.5668 10.636C46.5828 10.652 46.6028 10.68 46.6268 10.72C46.6588 10.752 46.6788 10.776 46.6868 10.792C46.9108 11.088 47.0628 11.42 47.1428 11.788C47.1428 11.796 47.1428 11.804 47.1428 11.812C47.1508 11.82 47.1548 11.828 47.1548 11.836C47.1868 11.972 47.2068 12.116 47.2148 12.268C47.2228 12.412 47.2268 12.552 47.2268 12.688ZM43.4108 14.116C43.4348 14.132 43.4628 14.148 43.4948 14.164C43.5828 14.188 43.6508 14.2 43.6988 14.2C43.7468 14.2 43.7948 14.196 43.8428 14.188H43.9148C43.9468 14.172 43.9748 14.16 43.9988 14.152C44.0308 14.136 44.0588 14.12 44.0828 14.104C44.1468 14.04 44.1868 13.964 44.2028 13.876C44.2268 13.788 44.2428 13.704 44.2508 13.624C44.2588 13.576 44.2628 13.524 44.2628 13.468C44.2708 13.412 44.2748 13.356 44.2748 13.3C44.2828 13.188 44.2868 13.056 44.2868 12.904C44.2868 12.752 44.2828 12.616 44.2748 12.496C44.2748 12.456 44.2748 12.416 44.2748 12.376C44.2748 12.336 44.2708 12.3 44.2628 12.268C44.2628 12.236 44.2588 12.208 44.2508 12.184C44.2508 12.152 44.2508 12.12 44.2508 12.088C44.2268 11.88 44.1708 11.74 44.0828 11.668C44.0508 11.636 44.0268 11.62 44.0108 11.62C44.0028 11.612 43.9908 11.608 43.9748 11.608C43.9668 11.608 43.9588 11.608 43.9508 11.608C43.9428 11.6 43.9348 11.6 43.9268 11.608C43.9188 11.616 43.9108 11.636 43.9028 11.668C43.9028 11.692 43.8948 11.712 43.8788 11.728C43.8708 11.744 43.8468 11.756 43.8068 11.764C43.7748 11.764 43.7508 11.76 43.7348 11.752C43.6868 11.744 43.6428 11.72 43.6028 11.68H43.5308C43.5228 11.672 43.5148 11.664 43.5068 11.656C43.4988 11.64 43.4868 11.628 43.4708 11.62C43.4468 11.62 43.4228 11.632 43.3988 11.656C43.3428 11.704 43.3028 11.772 43.2788 11.86C43.2548 11.94 43.2348 12.036 43.2188 12.148C43.2108 12.172 43.2068 12.204 43.2068 12.244C43.2068 12.268 43.2028 12.296 43.1948 12.328C43.1948 12.352 43.1948 12.38 43.1948 12.412C43.1868 12.476 43.1828 12.552 43.1828 12.64C43.1828 12.728 43.1828 12.816 43.1828 12.904C43.1828 12.96 43.1828 13.016 43.1828 13.072C43.1908 13.12 43.1948 13.172 43.1948 13.228C43.1948 13.284 43.1948 13.34 43.1948 13.396C43.1948 13.452 43.1988 13.5 43.2068 13.54C43.2228 13.684 43.2388 13.796 43.2548 13.876C43.2788 13.956 43.3308 14.036 43.4108 14.116ZM54.986 15.64C54.986 15.664 54.982 15.688 54.974 15.712C54.974 15.736 54.97 15.76 54.962 15.784C54.946 15.816 54.934 15.836 54.926 15.844C54.894 15.892 54.866 15.924 54.842 15.94C54.826 15.948 54.802 15.968 54.77 16C54.754 16.016 54.742 16.032 54.734 16.048C54.702 16.08 54.674 16.116 54.65 16.156C54.626 16.196 54.594 16.232 54.554 16.264L54.518 16.3C54.486 16.396 54.466 16.5 54.458 16.612C54.458 16.732 54.43 16.836 54.374 16.924C54.35 16.972 54.318 16.96 54.278 16.888C54.262 16.848 54.246 16.792 54.23 16.72C54.214 16.656 54.198 16.608 54.182 16.576C54.174 16.544 54.17 16.508 54.17 16.468C54.17 16.436 54.154 16.412 54.122 16.396C54.114 16.388 54.102 16.384 54.086 16.384C54.062 16.384 54.034 16.376 54.002 16.36C54.002 16.368 54.014 16.392 54.038 16.432C54.062 16.472 54.078 16.504 54.086 16.528C54.102 16.56 54.082 16.564 54.026 16.54C54.002 16.524 53.982 16.488 53.966 16.432C53.958 16.376 53.954 16.34 53.954 16.324C53.922 16.292 53.898 16.264 53.882 16.24C53.874 16.224 53.862 16.204 53.846 16.18C53.83 16.164 53.814 16.144 53.798 16.12C53.782 16.208 53.774 16.296 53.774 16.384C53.774 16.472 53.766 16.56 53.75 16.648C53.75 16.656 53.734 16.66 53.702 16.66C53.67 16.668 53.638 16.672 53.606 16.672C53.574 16.672 53.542 16.668 53.51 16.66C53.406 16.636 53.298 16.604 53.186 16.564C53.082 16.532 52.986 16.48 52.898 16.408C52.778 16.328 52.662 16.236 52.55 16.132L52.478 16.024C52.47 16.016 52.462 16.008 52.454 16C52.446 15.992 52.434 15.972 52.418 15.94V15.928C52.362 15.888 52.326 15.848 52.31 15.808C52.302 15.768 52.294 15.728 52.286 15.688V15.4C52.278 15.408 52.27 15.416 52.262 15.424C52.254 15.432 52.242 15.444 52.226 15.46C52.226 15.468 52.222 15.476 52.214 15.484C52.206 15.492 52.202 15.496 52.202 15.496C52.194 15.504 52.186 15.512 52.178 15.52C52.17 15.52 52.162 15.524 52.154 15.532C52.138 15.556 52.118 15.58 52.094 15.604C52.07 15.62 52.046 15.636 52.022 15.652L51.986 15.784C51.986 15.792 51.982 15.8 51.974 15.808C51.974 15.808 51.974 15.816 51.974 15.832V15.844L51.902 16.036C51.878 16.092 51.854 16.148 51.83 16.204C51.806 16.26 51.778 16.308 51.746 16.348C51.722 16.388 51.694 16.412 51.662 16.42C51.654 16.436 51.642 16.464 51.626 16.504C51.618 16.544 51.594 16.56 51.554 16.552C51.522 16.536 51.494 16.508 51.47 16.468C51.454 16.428 51.426 16.408 51.386 16.408C51.378 16.416 51.362 16.428 51.338 16.444C51.322 16.46 51.31 16.472 51.302 16.48C51.294 16.488 51.274 16.512 51.242 16.552C51.21 16.592 51.182 16.628 51.158 16.66C51.15 16.668 51.142 16.672 51.134 16.672C51.126 16.68 51.114 16.688 51.098 16.696C51.09 16.8 51.102 16.928 51.134 17.08C51.166 17.24 51.182 17.376 51.182 17.488C51.19 17.608 51.142 17.66 51.038 17.644C50.934 17.62 50.882 17.552 50.882 17.44C50.89 17.328 50.91 17.2 50.942 17.056C50.982 16.912 50.998 16.788 50.99 16.684L50.954 16.648C50.954 16.648 50.95 16.648 50.942 16.648C50.942 16.648 50.942 16.644 50.942 16.636C50.934 16.636 50.918 16.624 50.894 16.6C50.878 16.584 50.866 16.572 50.858 16.564L50.606 16.24C50.598 16.232 50.594 16.224 50.594 16.216C50.594 16.216 50.59 16.212 50.582 16.204C50.558 16.244 50.55 16.276 50.558 16.3C50.566 16.324 50.55 16.264 50.51 16.12H50.378C50.338 16.12 50.31 16.116 50.294 16.108C49.894 16.084 49.542 15.996 49.238 15.844C49.206 15.828 49.174 15.812 49.142 15.796C49.118 15.78 49.094 15.76 49.07 15.736C48.75 15.528 48.49 15.232 48.29 14.848C48.098 14.456 47.99 13.956 47.966 13.348C47.958 13.228 47.954 13.12 47.954 13.024C47.954 12.928 47.954 12.828 47.954 12.724V12.652C47.954 12.628 47.958 12.608 47.966 12.592V12.4C47.982 11.88 48.074 11.436 48.242 11.068C48.41 10.692 48.63 10.392 48.902 10.168C48.942 10.128 48.986 10.096 49.034 10.072C49.442 9.784 49.934 9.64 50.51 9.64C50.558 9.64 50.606 9.64 50.654 9.64C50.71 9.64 50.758 9.644 50.798 9.652C50.862 9.652 50.922 9.656 50.978 9.664C51.042 9.672 51.102 9.684 51.158 9.7C51.174 9.708 51.194 9.716 51.218 9.724C51.242 9.724 51.266 9.732 51.29 9.748C51.49 9.804 51.674 9.888 51.842 10L51.914 10.048C51.946 10.064 51.97 10.084 51.986 10.108C52.01 10.124 52.034 10.14 52.058 10.156C52.058 10.164 52.058 10.168 52.058 10.168C52.066 10.168 52.07 10.168 52.07 10.168C52.07 10.168 52.07 10.172 52.07 10.18C52.07 10.18 52.074 10.18 52.082 10.18C52.082 10.26 52.082 10.296 52.082 10.288C52.09 10.28 52.094 10.256 52.094 10.216C52.102 10.176 52.106 10.156 52.106 10.156V8.224C52.098 8.144 52.09 8.06 52.082 7.972C52.082 7.884 52.09 7.804 52.106 7.732C52.13 7.644 52.174 7.584 52.238 7.552C52.286 7.504 52.35 7.48 52.43 7.48H54.038C54.102 7.48 54.194 7.48 54.314 7.48C54.434 7.472 54.546 7.472 54.65 7.48C54.722 7.48 54.774 7.496 54.806 7.528C54.838 7.544 54.858 7.556 54.866 7.564C54.938 7.62 54.974 7.704 54.974 7.816V15.088C54.974 15.168 54.978 15.26 54.986 15.364C54.994 15.46 54.994 15.552 54.986 15.64ZM51.806 13.912C51.878 13.872 51.934 13.824 51.974 13.768C52.014 13.704 52.046 13.632 52.07 13.552C52.094 13.44 52.106 13.328 52.106 13.216C52.106 13.2 52.106 13.184 52.106 13.168C52.114 13.144 52.118 13.124 52.118 13.108V12.856C52.126 12.792 52.126 12.724 52.118 12.652C52.118 12.572 52.114 12.468 52.106 12.34C52.098 12.324 52.094 12.304 52.094 12.28L52.058 12.124C52.05 12.108 52.042 12.092 52.034 12.076C52.026 12.052 52.018 12.032 52.01 12.016L51.95 11.944L51.926 11.92C51.91 11.912 51.894 11.9 51.878 11.884C51.854 11.876 51.822 11.872 51.782 11.872H51.71C51.654 11.872 51.594 11.876 51.53 11.884C51.474 11.884 51.414 11.884 51.35 11.884C51.326 11.884 51.298 11.884 51.266 11.884C51.234 11.876 51.202 11.876 51.17 11.884C51.106 11.924 51.058 11.976 51.026 12.04C51.018 12.04 51.014 12.044 51.014 12.052C51.014 12.052 51.006 12.068 50.99 12.1C50.982 12.124 50.974 12.148 50.966 12.172C50.958 12.196 50.95 12.22 50.942 12.244C50.942 12.26 50.938 12.28 50.93 12.304C50.93 12.32 50.93 12.336 50.93 12.352C50.922 12.384 50.914 12.416 50.906 12.448C50.906 12.48 50.906 12.512 50.906 12.544C50.906 12.568 50.902 12.592 50.894 12.616C50.894 12.64 50.894 12.664 50.894 12.688C50.886 12.784 50.882 12.884 50.882 12.988C50.89 13.092 50.898 13.192 50.906 13.288C50.906 13.304 50.906 13.32 50.906 13.336C50.914 13.352 50.918 13.368 50.918 13.384L50.942 13.48C50.958 13.552 50.978 13.624 51.002 13.696C51.034 13.76 51.078 13.816 51.134 13.864L51.194 13.9C51.274 13.948 51.354 13.972 51.434 13.972C51.514 13.972 51.574 13.968 51.614 13.96C51.654 13.96 51.686 13.956 51.71 13.948C51.742 13.932 51.774 13.92 51.806 13.912ZM60.3396 17.644C60.3316 17.684 60.3276 17.748 60.3276 17.836C60.3276 17.924 60.3156 17.948 60.2916 17.908C60.2596 17.844 60.2516 17.768 60.2676 17.68C60.2916 17.6 60.2836 17.528 60.2436 17.464C60.2276 17.432 60.2196 17.448 60.2196 17.512C60.2196 17.584 60.2196 17.652 60.2196 17.716C60.2196 17.78 60.2116 17.8 60.1956 17.776C60.1636 17.696 60.1516 17.612 60.1596 17.524C60.1756 17.444 60.1756 17.364 60.1596 17.284C60.1196 17.252 60.0796 17.216 60.0396 17.176C60.0076 17.136 59.9796 17.1 59.9556 17.068C59.9236 17.028 59.8956 16.988 59.8716 16.948C59.8476 16.916 59.8236 16.884 59.7996 16.852C59.7356 16.788 59.6756 16.708 59.6196 16.612L59.4756 16.36C59.4756 16.352 59.4636 16.324 59.4396 16.276C59.4156 16.236 59.3956 16.208 59.3796 16.192C59.3636 16.176 59.3476 16.164 59.3316 16.156C59.2996 16.156 59.2836 16.168 59.2836 16.192C59.2756 16.272 59.2716 16.348 59.2716 16.42C59.2716 16.5 59.2636 16.58 59.2476 16.66C59.2476 16.676 59.2436 16.664 59.2356 16.624C59.2276 16.584 59.2236 16.552 59.2236 16.528C59.2156 16.464 59.2076 16.396 59.1996 16.324C59.1996 16.252 59.1956 16.184 59.1876 16.12H59.1156C58.6356 16.104 58.1996 16.036 57.8076 15.916C57.4156 15.796 57.0796 15.612 56.7996 15.364L56.7276 15.304L56.6436 15.22C56.4356 14.996 56.2636 14.732 56.1276 14.428C55.9996 14.124 55.9156 13.764 55.8756 13.348C55.8676 13.348 55.8636 13.34 55.8636 13.324C55.8556 13.308 55.8516 13.268 55.8516 13.204C55.8516 13.196 55.8516 13.188 55.8516 13.18C55.8596 13.172 55.8636 13.164 55.8636 13.156C55.8556 13.116 55.8516 13.076 55.8516 13.036C55.8516 12.988 55.8516 12.94 55.8516 12.892V12.808C55.8596 12.328 55.9356 11.9 56.0796 11.524C56.2236 11.148 56.4236 10.828 56.6796 10.564C56.6956 10.556 56.7036 10.548 56.7036 10.54C56.7116 10.532 56.7196 10.524 56.7276 10.516C56.7356 10.508 56.7516 10.496 56.7756 10.48C56.7996 10.456 56.8116 10.444 56.8116 10.444C56.8356 10.42 56.8556 10.404 56.8716 10.396C57.4636 9.892 58.2636 9.64 59.2716 9.64H59.5236C59.5556 9.64 59.5756 9.644 59.5836 9.652C59.6556 9.652 59.7076 9.656 59.7396 9.664C59.8516 9.656 59.9356 9.664 59.9916 9.688C60.0316 9.696 60.0716 9.704 60.1116 9.712C60.1516 9.712 60.1916 9.72 60.2316 9.736C60.6476 9.816 61.0076 9.956 61.3116 10.156C61.6156 10.348 61.8676 10.58 62.0676 10.852C62.1076 10.884 62.1396 10.924 62.1636 10.972C62.1876 11.02 62.2116 11.064 62.2356 11.104L62.3316 11.272C62.3396 11.296 62.3476 11.32 62.3556 11.344C62.3716 11.36 62.3836 11.38 62.3916 11.404C62.4076 11.428 62.4196 11.452 62.4276 11.476C62.4356 11.5 62.4436 11.524 62.4516 11.548C62.4916 11.66 62.5276 11.776 62.5596 11.896C62.5996 12.016 62.6276 12.136 62.6436 12.256C62.6436 12.288 62.6476 12.312 62.6556 12.328C62.6716 12.392 62.6796 12.456 62.6796 12.52C62.6796 12.584 62.6836 12.648 62.6916 12.712V13.264C62.6916 13.376 62.6436 13.468 62.5476 13.54C62.5236 13.556 62.4956 13.58 62.4636 13.612C62.4476 13.652 62.4316 13.672 62.4156 13.672C62.4156 13.672 62.3996 13.656 62.3676 13.624C62.3516 13.624 62.3276 13.628 62.2956 13.636C62.2636 13.644 62.2396 13.652 62.2236 13.66C62.1916 13.668 62.1636 13.676 62.1396 13.684C62.1156 13.684 62.0876 13.684 62.0556 13.684C61.9916 13.692 61.9316 13.708 61.8756 13.732C61.8196 13.756 61.7596 13.776 61.6956 13.792C61.6476 13.8 61.5956 13.804 61.5396 13.804C61.4836 13.804 61.4276 13.804 61.3716 13.804C61.2996 13.812 61.2316 13.828 61.1676 13.852C61.1116 13.876 61.0516 13.884 60.9876 13.876C60.9396 13.868 60.8916 13.86 60.8436 13.852C60.7956 13.836 60.7436 13.824 60.6876 13.816C60.6556 13.824 60.6236 13.832 60.5916 13.84C60.5676 13.848 60.5396 13.856 60.5076 13.864C60.4836 13.872 60.4596 13.876 60.4356 13.876C60.4116 13.876 60.3876 13.884 60.3636 13.9C60.3396 13.916 60.3036 13.948 60.2556 13.996H61.8996C61.9316 13.996 61.9636 13.996 61.9956 13.996C62.0356 13.988 62.0756 13.984 62.1156 13.984H62.1756C62.2236 13.984 62.2796 13.992 62.3436 14.008C62.3596 14.008 62.3716 14.012 62.3796 14.02C62.3876 14.02 62.3956 14.02 62.4036 14.02C62.4596 14.044 62.4996 14.088 62.5236 14.152C62.5396 14.2 62.5436 14.24 62.5356 14.272C62.5356 14.328 62.5236 14.392 62.4996 14.464L62.4636 14.56C62.4156 14.688 62.3516 14.796 62.2716 14.884C62.2396 14.924 62.2076 14.964 62.1756 15.004C62.1436 15.044 62.1076 15.084 62.0676 15.124C62.0356 15.156 62.0036 15.188 61.9716 15.22C61.9396 15.252 61.9036 15.284 61.8636 15.316L61.7916 15.388C61.7516 15.428 61.7156 15.476 61.6836 15.532C61.6596 15.58 61.6316 15.628 61.5996 15.676C61.5756 15.7 61.5596 15.72 61.5516 15.736C61.5676 15.72 61.5676 15.728 61.5516 15.76C61.5356 15.792 61.5196 15.8 61.5036 15.784C61.4876 15.824 61.4676 15.86 61.4436 15.892C61.4276 15.924 61.4036 15.972 61.3716 16.036C61.3556 16.076 61.3356 16.112 61.3116 16.144C61.2956 16.184 61.2796 16.224 61.2636 16.264C61.2156 16.352 61.1716 16.424 61.1316 16.48C61.1236 16.504 61.1116 16.524 61.0956 16.54C61.0876 16.564 61.0756 16.584 61.0596 16.6L61.0116 16.672C61.0036 16.68 60.9956 16.692 60.9876 16.708C60.9796 16.724 60.9676 16.74 60.9516 16.756C60.9036 16.812 60.8556 16.864 60.8076 16.912C60.7596 16.968 60.7116 17.024 60.6636 17.08L60.5796 17.164C60.5636 17.188 60.5436 17.212 60.5196 17.236C60.5036 17.26 60.4836 17.28 60.4596 17.296C60.4276 17.328 60.4036 17.344 60.3876 17.344C60.3796 17.392 60.3716 17.44 60.3636 17.488C60.3636 17.544 60.3556 17.596 60.3396 17.644ZM58.8396 12.088H58.8996C59.0036 12.088 59.1076 12.088 59.2116 12.088C59.3156 12.08 59.4196 12.08 59.5236 12.088L59.7516 12.076V11.932C59.7436 11.924 59.7396 11.916 59.7396 11.908C59.7396 11.876 59.7356 11.84 59.7276 11.8C59.7276 11.76 59.7236 11.724 59.7156 11.692L59.6436 11.524C59.6356 11.516 59.6316 11.512 59.6316 11.512C59.6316 11.504 59.6276 11.496 59.6196 11.488C59.5796 11.432 59.5356 11.396 59.4876 11.38C59.4876 11.372 59.4756 11.368 59.4516 11.368H59.4396C59.3836 11.368 59.3276 11.372 59.2716 11.38C59.2156 11.38 59.1596 11.384 59.1036 11.392C59.0876 11.4 59.0636 11.408 59.0316 11.416C59.0076 11.416 58.9836 11.424 58.9596 11.44C58.9516 11.448 58.9476 11.456 58.9476 11.464C58.9476 11.464 58.9436 11.468 58.9356 11.476C58.9196 11.492 58.9076 11.512 58.8996 11.536C58.8916 11.56 58.8796 11.58 58.8636 11.596C58.8156 11.724 58.7916 11.816 58.7916 11.872C58.7996 11.928 58.8156 12 58.8396 12.088ZM59.1636 14.368C59.1796 14.376 59.2276 14.38 59.3076 14.38C59.3556 14.364 59.3996 14.34 59.4396 14.308C59.4876 14.276 59.5276 14.244 59.5596 14.212L59.6676 14.104C59.7316 14.056 59.7796 14.028 59.8116 14.02C59.8436 14.012 59.8796 14.004 59.9196 13.996C59.8636 13.98 59.8076 13.964 59.7516 13.948C59.7036 13.932 59.6516 13.916 59.5956 13.9C59.5076 13.868 59.4196 13.832 59.3316 13.792C59.2516 13.752 59.1676 13.716 59.0796 13.684L58.8396 13.612C58.8236 13.596 58.8076 13.588 58.7916 13.588V13.648C58.7916 13.656 58.7916 13.692 58.7916 13.756C58.7996 13.812 58.8036 13.848 58.8036 13.864C58.8116 13.952 58.8316 14.04 58.8636 14.128C58.9036 14.208 58.9556 14.272 59.0196 14.32L59.1156 14.356C59.1236 14.364 59.1396 14.368 59.1636 14.368ZM66.2322 13.6C66.2402 13.656 66.2402 13.716 66.2322 13.78C66.2322 13.836 66.2322 13.892 66.2322 13.948V15.736C66.2322 15.736 66.2282 15.752 66.2202 15.784C66.2122 15.808 66.2042 15.82 66.1962 15.82C66.1962 15.828 66.1922 15.836 66.1842 15.844C66.1842 15.852 66.1762 15.864 66.1602 15.88C66.1522 15.888 66.1442 15.896 66.1362 15.904C66.1282 15.912 66.1202 15.92 66.1122 15.928C66.0482 15.992 66.0162 16.02 66.0162 16.012C66.0242 16.004 66.0442 15.984 66.0762 15.952C66.0682 15.96 66.0522 15.976 66.0282 16C66.0042 16.016 65.9962 16.02 66.0042 16.012C65.9962 16.02 65.9962 16.02 66.0042 16.012C66.0202 16.012 66.0042 16.032 65.9562 16.072C65.9482 16.08 65.9402 16.088 65.9322 16.096C65.9322 16.112 65.9242 16.116 65.9082 16.108C65.8762 16.14 65.8482 16.168 65.8242 16.192C65.8002 16.224 65.7762 16.256 65.7522 16.288C65.7442 16.296 65.7322 16.308 65.7162 16.324C65.7002 16.34 65.6842 16.352 65.6682 16.36C65.6522 16.368 65.6362 16.38 65.6202 16.396C65.6122 16.5 65.6122 16.608 65.6202 16.72C65.6282 16.832 65.6122 16.936 65.5722 17.032C65.5562 17.072 65.5442 17.064 65.5362 17.008C65.5362 16.96 65.5362 16.892 65.5362 16.804C65.5442 16.716 65.5402 16.652 65.5242 16.612C65.5242 16.596 65.5202 16.596 65.5122 16.612C65.5042 16.628 65.4922 16.636 65.4762 16.636C65.4682 16.636 65.4562 16.628 65.4402 16.612C65.4242 16.596 65.4082 16.572 65.3922 16.54C65.3842 16.524 65.3762 16.5 65.3682 16.468C65.3602 16.444 65.3522 16.44 65.3442 16.456C65.3202 16.488 65.3082 16.516 65.3082 16.54C65.3002 16.516 65.2922 16.484 65.2842 16.444C65.2762 16.412 65.2642 16.372 65.2482 16.324L65.1882 16.396L65.1522 16.432C65.1362 16.44 65.1202 16.452 65.1042 16.468C65.0962 16.484 65.0882 16.504 65.0802 16.528C65.0802 16.552 65.0722 16.56 65.0562 16.552C65.0322 16.536 65.0202 16.512 65.0202 16.48C65.0282 16.456 65.0242 16.432 65.0082 16.408C64.9762 16.368 64.9522 16.324 64.9362 16.276C64.9202 16.228 64.9042 16.184 64.8882 16.144C64.8722 16.144 64.8642 16.148 64.8642 16.156C64.8482 16.268 64.8402 16.38 64.8402 16.492C64.8402 16.604 64.8322 16.716 64.8162 16.828C64.8162 16.836 64.8082 16.84 64.7922 16.84C64.7762 16.848 64.7682 16.848 64.7682 16.84C64.7522 16.736 64.7442 16.632 64.7442 16.528C64.7522 16.424 64.7482 16.32 64.7322 16.216C64.7002 16.248 64.6802 16.264 64.6722 16.264C64.6722 16.264 64.6642 16.264 64.6482 16.264C64.6242 16.288 64.5962 16.3 64.5642 16.3C64.5322 16.308 64.5122 16.3 64.5042 16.276C64.5042 16.252 64.4962 16.224 64.4802 16.192L64.3962 16.12H64.3722C64.3722 16.176 64.3602 16.212 64.3362 16.228C64.3362 16.228 64.3242 16.208 64.3002 16.168C64.2922 16.224 64.2962 16.296 64.3122 16.384C64.3362 16.472 64.3162 16.52 64.2522 16.528C64.2122 16.528 64.1962 16.496 64.2042 16.432C64.2202 16.376 64.2322 16.316 64.2402 16.252C64.2562 16.188 64.2442 16.152 64.2042 16.144C64.1642 16.136 64.1482 16.164 64.1562 16.228C64.1722 16.292 64.1842 16.356 64.1922 16.42C64.2082 16.484 64.1962 16.508 64.1562 16.492C64.1002 16.468 64.0842 16.412 64.1082 16.324C64.1402 16.236 64.1402 16.164 64.1082 16.108C64.0922 16.068 64.0842 16.084 64.0842 16.156C64.0842 16.236 64.0762 16.292 64.0602 16.324C64.0522 16.332 64.0442 16.32 64.0362 16.288C64.0282 16.264 64.0202 16.244 64.0122 16.228C63.9642 16.164 63.9122 16.116 63.8562 16.084C63.8082 16.052 63.7602 16.02 63.7122 15.988C63.6962 15.98 63.6802 15.972 63.6642 15.964C63.6482 15.948 63.6322 15.936 63.6162 15.928C63.5362 15.864 63.4962 15.78 63.4962 15.676V13.792C63.4962 13.728 63.4962 13.66 63.4962 13.588C63.4962 13.516 63.5162 13.452 63.5562 13.396L63.6282 13.324C63.6842 13.284 63.7482 13.264 63.8202 13.264H65.2242C65.2882 13.264 65.3482 13.264 65.4042 13.264C65.4602 13.256 65.5082 13.252 65.5482 13.252C65.5722 13.252 65.6282 13.252 65.7162 13.252C65.8122 13.244 65.8962 13.248 65.9682 13.264C66.0962 13.296 66.1802 13.372 66.2202 13.492C66.2282 13.516 66.2322 13.552 66.2322 13.6ZM67.4865 8.824V7.6C67.4865 7.56 67.4825 7.516 67.4745 7.468C67.4745 7.412 67.4785 7.364 67.4865 7.324C67.4865 7.172 67.5585 7.068 67.7025 7.012C67.7745 6.988 67.8505 6.98 67.9305 6.988C68.0105 6.988 68.0865 6.992 68.1585 7H69.4185C69.5225 7 69.6305 6.996 69.7425 6.988C69.8545 6.972 69.9585 6.98 70.0545 7.012C70.0625 7.012 70.0705 7.016 70.0785 7.024C70.1425 7.048 70.1865 7.088 70.2105 7.144C70.2425 7.2 70.2625 7.256 70.2705 7.312C70.2785 7.328 70.2825 7.348 70.2825 7.372C70.2825 7.396 70.2825 7.416 70.2825 7.432C70.2825 7.584 70.2825 7.8 70.2825 8.08C70.2905 8.352 70.2865 8.584 70.2705 8.776C70.2705 8.816 70.2665 8.848 70.2585 8.872C70.2505 8.912 70.2305 8.948 70.1985 8.98L70.1385 9.04C70.1225 9.064 70.1065 9.1 70.0905 9.148C70.0825 9.164 70.0745 9.184 70.0665 9.208C70.0665 9.232 70.0585 9.244 70.0425 9.244C70.0265 9.244 70.0185 9.228 70.0185 9.196C70.0185 9.164 70.0105 9.144 69.9945 9.136C69.9865 9.136 69.9785 9.14 69.9705 9.148C69.9705 9.156 69.9665 9.16 69.9585 9.16C69.9345 9.168 69.9105 9.176 69.8865 9.184C69.8625 9.184 69.8345 9.188 69.8025 9.196L69.2865 9.268C69.2065 9.276 69.1265 9.284 69.0465 9.292C68.9665 9.3 68.8825 9.296 68.7945 9.28C68.7865 9.28 68.7745 9.284 68.7585 9.292C68.7425 9.292 68.7265 9.292 68.7105 9.292C68.5665 9.316 68.4225 9.308 68.2785 9.268C68.1345 9.228 67.9945 9.18 67.8585 9.124C67.8425 9.116 67.8225 9.112 67.7985 9.112C67.7825 9.112 67.7665 9.108 67.7505 9.1L67.6545 9.064C67.6465 9.048 67.6345 9.036 67.6185 9.028C67.6105 9.02 67.5985 9.012 67.5825 9.004C67.5265 8.948 67.4945 8.888 67.4865 8.824ZM67.8465 19.504C67.8465 19.512 67.8385 19.504 67.8225 19.48C67.8065 19.464 67.7985 19.452 67.7985 19.444C67.7905 19.284 67.7825 19.124 67.7745 18.964C67.7745 18.804 67.7665 18.644 67.7505 18.484C67.7265 18.532 67.7025 18.584 67.6785 18.64C67.6625 18.696 67.6385 18.748 67.6065 18.796C67.5905 18.82 67.5745 18.84 67.5585 18.856C67.5425 18.88 67.5225 18.9 67.4985 18.916C67.4825 18.932 67.4705 18.94 67.4625 18.94C67.4545 18.956 67.4425 19 67.4265 19.072C67.4185 19.144 67.3945 19.188 67.3545 19.204C67.3465 19.212 67.3305 19.204 67.3065 19.18C67.2905 19.164 67.2745 19.132 67.2585 19.084C67.2505 19.052 67.2385 19.02 67.2225 18.988C67.2065 18.956 67.1865 18.924 67.1625 18.892C67.1305 18.868 67.0985 18.84 67.0665 18.808C67.0345 18.776 67.0065 18.748 66.9825 18.724C66.9505 18.692 66.9185 18.66 66.8865 18.628C66.8625 18.604 66.8305 18.576 66.7905 18.544L66.7185 18.628C66.7185 18.62 66.6905 18.636 66.6345 18.676C66.5785 18.724 66.5505 18.752 66.5505 18.76C66.5425 18.768 66.5185 18.744 66.4785 18.688C66.4545 18.672 66.4345 18.652 66.4185 18.628C66.3945 18.612 66.3705 18.596 66.3465 18.58C66.3385 18.572 66.3265 18.556 66.3105 18.532C66.2945 18.508 66.2825 18.504 66.2745 18.52C66.2505 18.616 66.2465 18.716 66.2625 18.82C66.2785 18.924 66.2625 19.02 66.2145 19.108C66.1985 19.148 66.1905 19.14 66.1905 19.084C66.1825 19.036 66.1825 18.968 66.1905 18.88C66.1905 18.8 66.1905 18.736 66.1905 18.688L66.1545 18.28C66.1065 18.264 66.0745 18.252 66.0585 18.244L65.9865 18.184C65.9305 18.128 65.8985 18.068 65.8905 18.004V16.78C65.8905 16.708 65.8905 16.628 65.8905 16.54C65.8825 16.452 65.9025 16.376 65.9505 16.312C65.9585 16.296 65.9705 16.284 65.9865 16.276C65.9945 16.268 66.0025 16.26 66.0105 16.252C66.0585 16.204 66.1265 16.18 66.2145 16.18H66.9825C67.1665 16.156 67.2945 16.068 67.3665 15.916C67.3825 15.868 67.3985 15.804 67.4145 15.724L67.4265 15.604V10.372C67.4265 10.292 67.4225 10.208 67.4145 10.12C67.4145 10.032 67.4385 9.956 67.4865 9.892C67.4945 9.876 67.5025 9.864 67.5105 9.856C67.5265 9.848 67.5385 9.84 67.5465 9.832C67.5785 9.8 67.6305 9.776 67.7025 9.76C67.7425 9.752 67.7785 9.748 67.8105 9.748C67.8425 9.748 67.8745 9.748 67.9065 9.748C67.9465 9.748 67.9865 9.752 68.0265 9.76C68.0665 9.76 68.1025 9.76 68.1345 9.76H69.9945C70.0505 9.76 70.0905 9.764 70.1145 9.772C70.1465 9.788 70.1665 9.8 70.1745 9.808C70.2145 9.824 70.2465 9.852 70.2705 9.892L70.3065 9.952C70.3065 9.96 70.3065 9.968 70.3065 9.976C70.3145 9.976 70.3185 9.98 70.3185 9.988C70.3345 10.028 70.3385 10.076 70.3305 10.132C70.3305 10.18 70.3305 10.228 70.3305 10.276V15.652C70.3305 15.748 70.3265 15.844 70.3185 15.94C70.3105 16.028 70.2985 16.116 70.2825 16.204L70.2465 16.444C70.2305 16.524 70.2065 16.6 70.1745 16.672C70.1505 16.744 70.1225 16.808 70.0905 16.864C70.0265 16.976 69.9625 17.076 69.8985 17.164C69.8665 17.22 69.8305 17.268 69.7905 17.308C69.7585 17.348 69.7305 17.384 69.7065 17.416L69.6705 17.452C69.6545 17.468 69.6465 17.476 69.6465 17.476L69.5745 17.548C69.5665 17.556 69.5545 17.564 69.5385 17.572C69.5305 17.58 69.5185 17.588 69.5025 17.596C69.5025 17.604 69.4985 17.608 69.4905 17.608C69.4905 17.608 69.4905 17.612 69.4905 17.62C69.4585 17.676 69.4345 17.732 69.4185 17.788C69.4025 17.852 69.3865 17.912 69.3705 17.968L69.2505 18.34C69.2425 18.364 69.2345 18.384 69.2265 18.4C69.2265 18.424 69.2225 18.448 69.2145 18.472C69.2065 18.496 69.1985 18.532 69.1905 18.58C69.1825 18.628 69.1745 18.64 69.1665 18.616C69.1505 18.52 69.1425 18.424 69.1425 18.328C69.1505 18.24 69.1465 18.148 69.1305 18.052C69.1145 18.076 69.0865 18.108 69.0465 18.148L69.0105 18.184C68.9865 18.216 68.9785 18.244 68.9865 18.268C68.9945 18.3 68.9825 18.36 68.9505 18.448C68.9345 18.48 68.9185 18.5 68.9025 18.508C68.8865 18.508 68.8705 18.5 68.8545 18.484C68.8465 18.468 68.8385 18.452 68.8305 18.436C68.8305 18.42 68.8265 18.404 68.8185 18.388C68.7865 18.42 68.7505 18.448 68.7105 18.472C68.6785 18.496 68.6385 18.516 68.5905 18.532C68.5905 18.54 68.5865 18.544 68.5785 18.544C68.5785 18.544 68.5785 18.548 68.5785 18.556C68.5705 18.572 68.5545 18.592 68.5305 18.616C68.4985 18.664 68.4585 18.704 68.4105 18.736C68.4025 18.752 68.3865 18.8 68.3625 18.88C68.3465 18.96 68.3345 19.008 68.3265 19.024C68.3105 19.072 68.2945 19.104 68.2785 19.12C68.2625 19.136 68.2465 19.136 68.2305 19.12C68.2065 19.08 68.1865 19.036 68.1705 18.988C68.1625 18.948 68.1585 18.904 68.1585 18.856C68.1585 18.816 68.1505 18.78 68.1345 18.748C68.1105 18.732 68.0865 18.708 68.0625 18.676C68.0385 18.644 68.0185 18.612 68.0025 18.58C67.9705 18.516 67.9585 18.484 67.9665 18.484C67.9825 18.484 67.9945 18.492 68.0025 18.508C68.0105 18.524 68.0025 18.528 67.9785 18.52L67.9425 18.508C67.9105 18.508 67.8945 18.508 67.8945 18.508C67.8785 18.668 67.8705 18.832 67.8705 19C67.8705 19.168 67.8625 19.336 67.8465 19.504ZM78.0585 14.188C78.0345 14.524 77.9265 14.824 77.7345 15.088C77.7265 15.104 77.7145 15.12 77.6985 15.136C77.6825 15.152 77.6665 15.168 77.6505 15.184C77.6185 15.216 77.5825 15.252 77.5425 15.292C77.5025 15.332 77.4585 15.372 77.4105 15.412C77.3705 15.468 77.3305 15.528 77.2905 15.592C77.2585 15.656 77.2185 15.716 77.1705 15.772C77.1385 15.804 77.1145 15.812 77.0985 15.796C77.0345 15.94 76.9705 16.064 76.9065 16.168C76.8905 16.2 76.8705 16.228 76.8465 16.252C76.8225 16.284 76.7985 16.316 76.7745 16.348C76.7425 16.38 76.7265 16.392 76.7265 16.384C76.7185 16.32 76.7145 16.252 76.7145 16.18C76.7145 16.116 76.7105 16.052 76.7025 15.988C76.6785 16.004 76.6585 16.024 76.6425 16.048C76.6345 16.056 76.6265 16.06 76.6185 16.06C76.6105 16.068 76.6025 16.08 76.5945 16.096C76.5865 16.176 76.5785 16.26 76.5705 16.348C76.5625 16.436 76.5505 16.524 76.5345 16.612C76.5265 16.652 76.5185 16.712 76.5105 16.792C76.5025 16.872 76.4905 16.892 76.4745 16.852C76.4345 16.724 76.4265 16.628 76.4505 16.564C76.4745 16.508 76.4545 16.408 76.3905 16.264C76.3825 16.32 76.3785 16.376 76.3785 16.432C76.3785 16.488 76.3745 16.544 76.3665 16.6C76.3665 16.608 76.3585 16.612 76.3425 16.612C76.3345 16.612 76.3265 16.616 76.3185 16.624C76.3105 16.624 76.3025 16.624 76.2945 16.624C76.2945 16.632 76.2865 16.636 76.2705 16.636C76.2225 16.676 76.1785 16.72 76.1385 16.768C76.0825 16.832 76.0345 16.912 75.9945 17.008C75.9865 17.016 75.9785 17.028 75.9705 17.044C75.9625 17.06 75.9545 17.076 75.9465 17.092C75.9385 17.108 75.9265 17.128 75.9105 17.152C75.9025 17.184 75.8985 17.196 75.8985 17.188C75.8825 17.044 75.8745 16.9 75.8745 16.756C75.8745 16.612 75.8665 16.468 75.8505 16.324C75.8345 16.308 75.8185 16.3 75.8025 16.3C75.7865 16.308 75.7705 16.312 75.7545 16.312C75.7385 16.32 75.7225 16.328 75.7065 16.336C75.6585 16.352 75.6145 16.36 75.5745 16.36C75.5745 16.368 75.5705 16.372 75.5625 16.372C75.5625 16.372 75.5625 16.376 75.5625 16.384C75.4825 16.472 75.4425 16.516 75.4425 16.516C75.4425 16.516 75.4585 16.5 75.4905 16.468C75.5225 16.436 75.5425 16.416 75.5505 16.408C75.5665 16.408 75.5385 16.452 75.4665 16.54C75.4505 16.556 75.4345 16.58 75.4185 16.612C75.4105 16.62 75.4025 16.636 75.3945 16.66C75.3865 16.684 75.3785 16.692 75.3705 16.684C75.3465 16.644 75.3345 16.58 75.3345 16.492C75.3425 16.412 75.3385 16.392 75.3225 16.432C75.2985 16.472 75.2945 16.524 75.3105 16.588C75.3265 16.66 75.3345 16.72 75.3345 16.768C75.3425 16.824 75.3225 16.852 75.2745 16.852C75.2025 16.852 75.1785 16.8 75.2025 16.696C75.2345 16.592 75.2425 16.504 75.2265 16.432C75.2265 16.424 75.2105 16.42 75.1785 16.42C75.1545 16.42 75.1385 16.416 75.1305 16.408C75.1065 16.408 75.0865 16.4 75.0705 16.384C75.0625 16.456 75.0585 16.528 75.0585 16.6C75.0585 16.672 75.0505 16.744 75.0345 16.816C75.0265 16.84 75.0185 16.832 75.0105 16.792C75.0025 16.752 74.9945 16.724 74.9865 16.708C74.9785 16.684 74.9705 16.66 74.9625 16.636C74.9545 16.62 74.9465 16.604 74.9385 16.588L74.8305 16.312C74.8305 16.344 74.8265 16.38 74.8185 16.42C74.8185 16.468 74.8105 16.508 74.7945 16.54C74.7865 16.556 74.7785 16.544 74.7705 16.504C74.7705 16.472 74.7625 16.448 74.7465 16.432L74.6025 16.12H74.5305C73.8185 16.104 73.2425 16 72.8025 15.808C72.3625 15.608 72.0385 15.384 71.8305 15.136C71.7985 15.096 71.7625 15.052 71.7225 15.004C71.6905 14.956 71.6625 14.908 71.6385 14.86C71.6065 14.804 71.5825 14.752 71.5665 14.704C71.5505 14.648 71.5345 14.596 71.5185 14.548C71.4945 14.452 71.4905 14.368 71.5065 14.296C71.5065 14.28 71.5105 14.264 71.5185 14.248C71.5265 14.232 71.5345 14.22 71.5425 14.212C71.5505 14.196 71.5665 14.176 71.5905 14.152C71.6385 14.104 71.6985 14.08 71.7705 14.08C71.8345 14.064 71.9185 14.06 72.0225 14.068C72.1265 14.076 72.2185 14.08 72.2985 14.08H73.3905C73.4785 14.08 73.5705 14.076 73.6665 14.068C73.7625 14.06 73.8545 14.064 73.9425 14.08C73.9585 14.088 73.9705 14.092 73.9785 14.092C73.9945 14.092 74.0105 14.096 74.0265 14.104C74.0825 14.12 74.1345 14.144 74.1825 14.176C74.2305 14.2 74.2785 14.232 74.3265 14.272L74.4105 14.32C74.4425 14.336 74.4745 14.352 74.5065 14.368C74.5385 14.384 74.5705 14.4 74.6025 14.416C74.6425 14.424 74.6745 14.432 74.6985 14.44C74.7225 14.44 74.7505 14.44 74.7825 14.44C74.8465 14.44 74.9025 14.428 74.9505 14.404C75.0145 14.38 75.0505 14.332 75.0585 14.26V14.176C75.0505 14.168 75.0465 14.16 75.0465 14.152C75.0145 14.088 74.9505 14.036 74.8545 13.996L74.7585 13.96C74.7425 13.952 74.7265 13.948 74.7105 13.948C74.6945 13.94 74.6785 13.936 74.6625 13.936C74.6225 13.928 74.5745 13.928 74.5185 13.936C74.4705 13.936 74.4265 13.932 74.3865 13.924C74.3305 13.916 74.2745 13.904 74.2185 13.888C74.1705 13.872 74.1145 13.868 74.0505 13.876C74.0105 13.884 73.9665 13.896 73.9185 13.912C73.8785 13.92 73.8385 13.928 73.7985 13.936C73.7585 13.944 73.7185 13.944 73.6785 13.936C73.6385 13.928 73.5985 13.924 73.5585 13.924C73.5265 13.916 73.4905 13.912 73.4505 13.912C73.4185 13.912 73.3825 13.908 73.3425 13.9C73.2545 13.884 73.1625 13.852 73.0665 13.804C72.9705 13.748 72.8825 13.692 72.8025 13.636C72.7465 13.588 72.6825 13.524 72.6105 13.444C72.5465 13.364 72.4745 13.284 72.3945 13.204C72.3705 13.18 72.3585 13.168 72.3585 13.168C72.3505 13.168 72.3425 13.176 72.3345 13.192C72.3345 13.208 72.3265 13.212 72.3105 13.204C72.3025 13.196 72.2945 13.184 72.2865 13.168C72.2865 13.152 72.2825 13.136 72.2745 13.12C72.2505 13.072 72.2145 13.028 72.1665 12.988C72.1505 12.972 72.1345 12.956 72.1185 12.94C72.1105 12.924 72.0985 12.912 72.0825 12.904C72.0985 12.912 72.0865 12.9 72.0465 12.868C72.0065 12.828 71.9865 12.804 71.9865 12.796C71.9385 12.732 71.8985 12.676 71.8665 12.628C71.8105 12.532 71.7705 12.46 71.7465 12.412C71.7305 12.356 71.7105 12.288 71.6865 12.208C71.6305 12.016 71.6065 11.816 71.6145 11.608C71.6145 11.584 71.6185 11.564 71.6265 11.548C71.6665 11.124 71.8785 10.736 72.2625 10.384C72.6545 10.024 73.2065 9.792 73.9185 9.688C73.9585 9.68 73.9985 9.676 74.0385 9.676C74.0785 9.668 74.1185 9.664 74.1585 9.664C74.1985 9.656 74.2385 9.652 74.2785 9.652C74.3265 9.644 74.3705 9.64 74.4105 9.64H74.4945C74.5985 9.632 74.6985 9.628 74.7945 9.628C74.8985 9.628 74.9945 9.636 75.0825 9.652C75.0985 9.652 75.1105 9.656 75.1185 9.664C75.6545 9.704 76.1105 9.812 76.4865 9.988C76.8625 10.164 77.1665 10.368 77.3985 10.6C77.4305 10.632 77.4585 10.664 77.4825 10.696C77.5065 10.72 77.5345 10.752 77.5665 10.792C77.6625 10.912 77.7265 11.036 77.7585 11.164C77.7745 11.22 77.7865 11.28 77.7945 11.344C77.8025 11.4 77.7945 11.456 77.7705 11.512C77.7625 11.52 77.7585 11.532 77.7585 11.548C77.7505 11.548 77.7465 11.552 77.7465 11.56L77.6625 11.644C77.6545 11.644 77.6465 11.648 77.6385 11.656C77.6385 11.656 77.6345 11.656 77.6265 11.656C77.6265 11.664 77.6225 11.684 77.6145 11.716C77.6065 11.74 77.5945 11.752 77.5785 11.752C77.5785 11.752 77.5745 11.752 77.5665 11.752C77.5665 11.752 77.5625 11.748 77.5545 11.74C77.5545 11.74 77.5465 11.732 77.5305 11.716H77.4945C77.4945 11.724 77.4905 11.732 77.4825 11.74C77.4825 11.74 77.4825 11.744 77.4825 11.752C77.4745 11.8 77.4745 11.852 77.4825 11.908C77.4905 11.964 77.4745 12.012 77.4345 12.052C77.4105 12.084 77.3985 12.068 77.3985 12.004C77.4065 11.932 77.4025 11.88 77.3865 11.848C77.3785 11.84 77.3705 11.844 77.3625 11.86C77.3545 11.876 77.3465 11.888 77.3385 11.896L77.1945 12.04C77.0825 12.136 76.9505 12.204 76.7985 12.244C76.7345 12.26 76.6785 12.268 76.6305 12.268C76.9505 12.396 77.2105 12.548 77.4105 12.724C77.6105 12.892 77.7625 13.08 77.8665 13.288C77.8985 13.336 77.9185 13.372 77.9265 13.396C77.9585 13.476 77.9865 13.556 78.0105 13.636C78.0345 13.708 78.0505 13.788 78.0585 13.876V14.188ZM75.7185 12.04C75.7985 12.048 75.8745 12.06 75.9465 12.076C76.0185 12.092 76.0905 12.108 76.1625 12.124C76.1305 12.092 76.0945 12.064 76.0545 12.04C76.0145 12.008 75.9745 11.98 75.9345 11.956C75.8545 11.972 75.7665 11.988 75.6705 12.004C75.5825 12.012 75.4945 12 75.4065 11.968C75.3025 11.928 75.2145 11.868 75.1425 11.788C75.0705 11.708 74.9945 11.632 74.9145 11.56C74.8745 11.576 74.8305 11.576 74.7825 11.56C74.7505 11.544 74.7185 11.528 74.6865 11.512C74.6545 11.488 74.6185 11.464 74.5785 11.44C74.5625 11.424 74.5465 11.408 74.5305 11.392C74.5145 11.376 74.4985 11.372 74.4825 11.38C74.4425 11.404 74.4185 11.432 74.4105 11.464V11.476C74.4025 11.484 74.3985 11.496 74.3985 11.512V11.584C74.4065 11.592 74.4105 11.6 74.4105 11.608C74.4265 11.64 74.4505 11.672 74.4825 11.704C74.5145 11.736 74.5465 11.76 74.5785 11.776C74.6105 11.792 74.6305 11.8 74.6385 11.8C74.7105 11.832 74.8065 11.864 74.9265 11.896C75.0465 11.92 75.1985 11.952 75.3825 11.992L75.6705 12.028C75.6625 12.028 75.6705 12.032 75.6945 12.04C75.7265 12.048 75.7345 12.048 75.7185 12.04Z" fill="white"/>
</g>
<defs>
<filter id="filter0_d_247_13" x="0.900024" y="0.899902" width="108.2" height="30.1934" filterUnits="userSpaceOnUse" color-interpolation-filters="sRGB">
<feFlood flood-opacity="0" result="BackgroundImageFix"/>
<feColorMatrix in="SourceAlpha" type="matrix" values="0 0 0 0 0 0 0 0 0 0 0 0 0 0 0 0 0 0 127 0" result="hardAlpha"/>
<feOffset dy="4"/>
<feGaussianBlur stdDeviation="2"/>
<feComposite in2="hardAlpha" operator="out"/>
<feColorMatrix type="matrix" values="0 0 0 0 0 0 0 0 0 0 0 0 0 0 0 0 0 0 0.25 0"/>
<feBlend mode="normal" in2="BackgroundImageFix" result="effect1_dropShadow_247_13"/>
<feBlend mode="normal" in="SourceGraphic" in2="effect1_dropShadow_247_13" result="shape"/>
</filter>
<linearGradient id="paint0_linear_247_13" x1="56.1365" y1="1" x2="56.1365" y2="21.7676" gradientUnits="userSpaceOnUse">
<stop stop-color="#D9F049"/>
<stop offset="0.416667" stop-color="#D7F67F" stop-opacity="0.583333"/>
<stop offset="1" stop-color="#7EFF7B"/>
</linearGradient>
</defs>
</svg>
