<svg width="120" height="40" viewBox="0 0 120 40" fill="none" xmlns="http://www.w3.org/2000/svg">
<rect width="120" height="40" fill="black"/>
<path d="M10.8555 12.4883H14.3906L23.5996 20.2227L23.6094 12.4883H25.7578V27H22.2227L13.0039 19.2949V27H10.8555V12.4883ZM28.6191 19.7148C28.6191 18.6146 28.7949 17.6087 29.1465 16.6973C29.498 15.7793 30.0221 14.9915 30.7188 14.334C31.4154 13.6764 32.2845 13.1654 33.3262 12.8008C34.3678 12.4362 35.5788 12.2539 36.959 12.2539C38.3392 12.2539 39.5501 12.4362 40.5918 12.8008C41.6335 13.1654 42.5026 13.6764 43.1992 14.334C43.8958 14.9915 44.4199 15.7793 44.7715 16.6973C45.123 17.6087 45.2988 18.6146 45.2988 19.7148C45.2988 20.8281 45.123 21.847 44.7715 22.7715C44.4199 23.696 43.8958 24.487 43.1992 25.1445C42.5026 25.8021 41.6335 26.3132 40.5918 26.6777C39.5501 27.0423 38.3392 27.2246 36.959 27.2246C35.5788 27.2246 34.3678 27.0423 33.3262 26.6777C32.2845 26.3132 31.4154 25.8021 30.7188 25.1445C30.0221 24.487 29.498 23.696 29.1465 22.7715C28.7949 21.847 28.6191 20.8281 28.6191 19.7148ZM36.959 25.2031C37.3496 25.2031 37.6947 25.1348 37.9941 24.998C38.2936 24.8613 38.5443 24.5944 38.7461 24.1973C38.9479 23.8001 39.1009 23.2435 39.2051 22.5273C39.3092 21.8112 39.3613 20.8737 39.3613 19.7148C39.3613 18.569 39.3092 17.6413 39.2051 16.9316C39.1009 16.222 38.9479 15.6719 38.7461 15.2812C38.5443 14.8906 38.2936 14.627 37.9941 14.4902C37.6947 14.3535 37.3496 14.2852 36.959 14.2852C36.5684 14.2852 36.2201 14.3535 35.9141 14.4902C35.6146 14.627 35.3639 14.8906 35.1621 15.2812C34.9603 15.6719 34.8073 16.222 34.7031 16.9316C34.599 17.6413 34.5469 18.569 34.5469 19.7148C34.5469 20.8737 34.599 21.8112 34.7031 22.5273C34.8073 23.2435 34.9603 23.8001 35.1621 24.1973C35.3639 24.5944 35.6146 24.8613 35.9141 24.998C36.2201 25.1348 36.5684 25.2031 36.959 25.2031ZM48.1602 12.4883H54.127C55.8066 12.4883 57.2617 12.6478 58.4922 12.9668C59.7227 13.2793 60.7415 13.7415 61.5488 14.3535C62.3561 14.9655 62.9551 15.7174 63.3457 16.6094C63.7363 17.5013 63.9316 18.5234 63.9316 19.6758C63.9316 20.7044 63.7363 21.6647 63.3457 22.5566C62.9551 23.4421 62.3561 24.2168 61.5488 24.8809C60.7415 25.5384 59.7227 26.056 58.4922 26.4336C57.2617 26.8112 55.8066 27 54.127 27H48.1602V12.4883ZM53.8047 24.8711C54.4557 24.8711 55.0417 24.7702 55.5625 24.5684C56.0833 24.3665 56.5228 24.054 56.8809 23.6309C57.2454 23.2077 57.5221 22.6706 57.7109 22.0195C57.9062 21.362 58.0039 20.5775 58.0039 19.666C58.0039 18.7611 57.9062 17.9896 57.7109 17.3516C57.5156 16.7135 57.2357 16.1927 56.8711 15.7891C56.5065 15.3789 56.0638 15.0827 55.543 14.9004C55.0286 14.7116 54.4525 14.6172 53.8145 14.6172L53.8047 24.8711ZM66.793 12.4883H79.0586V14.7246H72.4473L72.4375 18.6406H77.4961V20.877H72.4375V24.7637H79.0586V27H66.793V12.4883ZM81.8711 24.9492C81.8711 24.6432 81.9264 24.3568 82.0371 24.0898C82.1543 23.8164 82.3333 23.582 82.5742 23.3867C82.8216 23.1849 83.1341 23.0254 83.5117 22.9082C83.8893 22.791 84.3451 22.7324 84.8789 22.7324C85.4062 22.7324 85.8587 22.791 86.2363 22.9082C86.6204 23.0254 86.9329 23.1849 87.1738 23.3867C87.4147 23.582 87.5905 23.8164 87.7012 24.0898C87.8184 24.3568 87.877 24.6432 87.877 24.9492C87.877 25.2617 87.8184 25.5547 87.7012 25.8281C87.5905 26.0951 87.4147 26.3294 87.1738 26.5312C86.9329 26.7266 86.6204 26.8828 86.2363 27C85.8587 27.1172 85.4062 27.1758 84.8789 27.1758C84.3451 27.1758 83.8893 27.1172 83.5117 27C83.1341 26.8828 82.8216 26.7266 82.5742 26.5312C82.3333 26.3294 82.1543 26.0951 82.0371 25.8281C81.9264 25.5547 81.8711 25.2617 81.8711 24.9492ZM93.7656 15.7109C93.2839 15.7109 92.8672 15.6589 92.5156 15.5547C92.1706 15.4505 91.8841 15.3073 91.6562 15.125C91.4349 14.9362 91.2721 14.7214 91.168 14.4805C91.0638 14.2331 91.0117 13.9661 91.0117 13.6797C91.0117 13.3997 91.0638 13.1361 91.168 12.8887C91.2721 12.6413 91.4349 12.4264 91.6562 12.2441C91.8841 12.0553 92.1706 11.9089 92.5156 11.8047C92.8672 11.7005 93.2839 11.6484 93.7656 11.6484C94.2539 11.6484 94.6706 11.7005 95.0156 11.8047C95.3607 11.9089 95.6439 12.0553 95.8652 12.2441C96.0931 12.4264 96.2591 12.6413 96.3633 12.8887C96.4674 13.1361 96.5195 13.3997 96.5195 13.6797C96.5195 13.9661 96.4674 14.2331 96.3633 14.4805C96.2591 14.7214 96.0931 14.9362 95.8652 15.125C95.6439 15.3073 95.3607 15.4505 95.0156 15.5547C94.6706 15.6589 94.2539 15.7109 93.7656 15.7109ZM91.1191 17.3223H96.4219V25.3887C96.4219 26.2871 96.2917 27.1009 96.0312 27.8301C95.7708 28.5658 95.39 29.207 94.8887 29.7539C94.3874 30.3008 93.7656 30.75 93.0234 31.1016C92.2812 31.4531 91.4316 31.6973 90.4746 31.834L90.0547 30.916C90.2565 30.7012 90.4258 30.4863 90.5625 30.2715C90.6992 30.0632 90.8066 29.8385 90.8848 29.5977C90.9694 29.3633 91.028 29.1029 91.0605 28.8164C91.0996 28.5299 91.1191 28.2044 91.1191 27.8398V17.3223ZM99.4395 24.5C99.7064 24.6432 99.9635 24.7734 100.211 24.8906C100.458 25.0078 100.706 25.1087 100.953 25.1934C101.201 25.2715 101.448 25.3333 101.695 25.3789C101.949 25.4245 102.213 25.4473 102.486 25.4473C102.916 25.4473 103.225 25.3952 103.414 25.291C103.603 25.1868 103.697 25.0501 103.697 24.8809C103.697 24.7767 103.665 24.6888 103.6 24.6172C103.541 24.5456 103.456 24.4837 103.346 24.4316C103.235 24.373 103.105 24.321 102.955 24.2754C102.805 24.2233 102.639 24.1712 102.457 24.1191L101.9 23.9531C101.354 23.7904 100.882 23.6016 100.484 23.3867C100.087 23.1654 99.7617 22.918 99.5078 22.6445C99.2539 22.3711 99.0651 22.0781 98.9414 21.7656C98.8177 21.4466 98.7559 21.1081 98.7559 20.75C98.7559 20.2878 98.86 19.8418 99.0684 19.4121C99.2767 18.9759 99.599 18.5885 100.035 18.25C100.471 17.9115 101.028 17.6413 101.705 17.4395C102.389 17.2376 103.199 17.1367 104.137 17.1367C104.488 17.1367 104.853 17.1595 105.23 17.2051C105.615 17.2441 105.986 17.2962 106.344 17.3613C106.702 17.4264 107.037 17.5013 107.35 17.5859C107.662 17.6641 107.926 17.7454 108.141 17.8301L107.281 19.4023C107.138 19.3242 106.969 19.2559 106.773 19.1973C106.585 19.1322 106.389 19.0768 106.188 19.0312C105.986 18.9792 105.79 18.9401 105.602 18.9141C105.419 18.888 105.263 18.875 105.133 18.875C104.755 18.875 104.485 18.9271 104.322 19.0312C104.16 19.1354 104.078 19.2624 104.078 19.4121C104.078 19.4707 104.094 19.5326 104.127 19.5977C104.16 19.6628 104.225 19.7311 104.322 19.8027C104.42 19.8743 104.557 19.9492 104.732 20.0273C104.908 20.1055 105.139 20.1868 105.426 20.2715L105.973 20.4375C106.578 20.6198 107.079 20.8249 107.477 21.0527C107.88 21.2806 108.202 21.528 108.443 21.7949C108.691 22.0553 108.863 22.332 108.961 22.625C109.065 22.918 109.117 23.2174 109.117 23.5234C109.117 23.9922 109.003 24.4479 108.775 24.8906C108.548 25.3333 108.183 25.724 107.682 26.0625C107.187 26.401 106.546 26.6745 105.758 26.8828C104.97 27.0846 104.016 27.1855 102.896 27.1855C102.415 27.1855 101.972 27.166 101.568 27.127C101.165 27.0879 100.784 27.0293 100.426 26.9512C100.068 26.873 99.7227 26.7786 99.3906 26.668C99.0651 26.5508 98.7428 26.4206 98.4238 26.2773L99.4395 24.5Z" fill="white"/>
</svg>
