<svg width="183" height="40" viewBox="0 0 183 40" fill="none" xmlns="http://www.w3.org/2000/svg">
<rect width="177.684" height="40" fill="black"/>
<path d="M3.85547 12.4883H10.8379C12.127 12.4818 13.237 12.5957 14.168 12.8301C15.1055 13.0579 15.877 13.3867 16.4824 13.8164C17.0879 14.2461 17.5339 14.7637 17.8203 15.3691C18.1133 15.9681 18.2598 16.6354 18.2598 17.3711C18.2598 18.0156 18.123 18.6341 17.8496 19.2266C17.5827 19.8125 17.166 20.3301 16.5996 20.7793C16.0397 21.2285 15.3236 21.5866 14.4512 21.8535C13.5853 22.1204 12.5534 22.2539 11.3555 22.2539H9.5V27H3.85547V12.4883ZM9.5 20.125C9.94922 20.1185 10.3496 20.0501 10.7012 19.9199C11.0527 19.7832 11.349 19.5977 11.5898 19.3633C11.8307 19.1224 12.013 18.8359 12.1367 18.5039C12.2669 18.1654 12.332 17.7878 12.332 17.3711C12.332 16.9609 12.2669 16.5898 12.1367 16.2578C12.0065 15.9258 11.8177 15.6426 11.5703 15.4082C11.3294 15.1673 11.0332 14.9785 10.6816 14.8418C10.3366 14.7051 9.94271 14.6302 9.5 14.6172V20.125ZM20.5938 12.4883H28.9629C30.0436 12.4883 30.9876 12.6022 31.7949 12.8301C32.6087 13.0579 33.2858 13.377 33.8262 13.7871C34.373 14.1973 34.7832 14.6888 35.0566 15.2617C35.3301 15.8346 35.4668 16.4661 35.4668 17.1562C35.4668 18.0091 35.265 18.7676 34.8613 19.4316C34.4577 20.0892 33.8587 20.6133 33.0645 21.0039L36.1113 27.0098H29.7344L27.4297 21.7363H26.2383V27H20.5938V12.4883ZM26.5801 19.9688C27.0423 19.9688 27.4557 19.9036 27.8203 19.7734C28.1849 19.6432 28.4941 19.4609 28.748 19.2266C29.002 18.9857 29.1973 18.7025 29.334 18.377C29.4707 18.0449 29.5391 17.6836 29.5391 17.293C29.5391 16.9023 29.4707 16.5443 29.334 16.2188C29.1973 15.8867 29.002 15.6035 28.748 15.3691C28.4941 15.1283 28.1849 14.9427 27.8203 14.8125C27.4557 14.6823 27.0423 14.6172 26.5801 14.6172H26.248L26.2383 19.9688H26.5801ZM38.8164 12.4883H44.4707L44.4609 27H38.8164V12.4883ZM48.1914 12.4883H52.1855L57.6738 20.0859L62.8887 12.4883H66.7754V27H61.1406V19.5879L55.7305 27.1855L50.3398 19.5879V27H48.1914V12.4883ZM70.4961 12.4883H82.7617V14.7246H76.1504L76.1406 18.6406H81.1992V20.877H76.1406V24.7637H82.7617V27H70.4961V12.4883ZM85.3789 20.3398H92.0879V22.1758H85.3789V20.3398ZM95.5156 12.4883H103.885C104.965 12.4883 105.91 12.6022 106.717 12.8301C107.531 13.0579 108.208 13.377 108.748 13.7871C109.295 14.1973 109.705 14.6888 109.979 15.2617C110.252 15.8346 110.389 16.4661 110.389 17.1562C110.389 18.0091 110.187 18.7676 109.783 19.4316C109.38 20.0892 108.781 20.6133 107.986 21.0039L111.033 27.0098H104.656L102.352 21.7363H101.16V27H95.5156V12.4883ZM101.502 19.9688C101.964 19.9688 102.378 19.9036 102.742 19.7734C103.107 19.6432 103.416 19.4609 103.67 19.2266C103.924 18.9857 104.119 18.7025 104.256 18.377C104.393 18.0449 104.461 17.6836 104.461 17.293C104.461 16.9023 104.393 16.5443 104.256 16.2188C104.119 15.8867 103.924 15.6035 103.67 15.3691C103.416 15.1283 103.107 14.9427 102.742 14.8125C102.378 14.6823 101.964 14.6172 101.502 14.6172H101.17L101.16 19.9688H101.502ZM113.738 12.4883H126.004V14.7246H119.393L119.383 18.6406H124.441V20.877H119.383V24.7637H126.004V27H113.738V12.4883ZM132.928 16.1504L131.248 12.4883H137.195L144.305 27.0098H137.928L136.854 24.6855H131.131L130.066 27.0098H127.596L132.928 16.1504ZM135.828 22.4492L133.992 18.4648L132.166 22.4492H135.828ZM145.447 19.7539C145.447 19.0638 145.535 18.3997 145.711 17.7617C145.893 17.1172 146.157 16.5182 146.502 15.9648C146.847 15.4115 147.27 14.9069 147.771 14.4512C148.273 13.9954 148.842 13.6048 149.48 13.2793C150.125 12.9538 150.835 12.7031 151.609 12.5273C152.384 12.3451 153.217 12.2539 154.109 12.2539C154.682 12.2539 155.229 12.2897 155.75 12.3613C156.277 12.4329 156.772 12.5339 157.234 12.6641C157.697 12.7878 158.123 12.9342 158.514 13.1035C158.911 13.2663 159.269 13.4388 159.588 13.6211L158.748 15.2617C158.383 15.0859 157.967 14.9395 157.498 14.8223C157.036 14.6986 156.554 14.6367 156.053 14.6367C155.382 14.6367 154.76 14.7572 154.188 14.998C153.615 15.2389 153.12 15.5807 152.703 16.0234C152.286 16.4661 151.958 17.0033 151.717 17.6348C151.482 18.2598 151.365 18.9629 151.365 19.7441C151.365 20.5189 151.482 21.222 151.717 21.8535C151.951 22.4785 152.273 23.0156 152.684 23.4648C153.1 23.9076 153.592 24.2526 154.158 24.5C154.731 24.7409 155.35 24.8613 156.014 24.8613C156.482 24.8613 156.951 24.806 157.42 24.6953C157.889 24.5781 158.318 24.4251 158.709 24.2363L159.549 25.877C159.23 26.0658 158.875 26.2415 158.484 26.4043C158.094 26.5671 157.671 26.7135 157.215 26.8438C156.759 26.9674 156.271 27.0651 155.75 27.1367C155.229 27.2083 154.682 27.2441 154.109 27.2441C152.775 27.2441 151.57 27.0488 150.496 26.6582C149.428 26.2611 148.52 25.724 147.771 25.0469C147.023 24.3633 146.447 23.569 146.043 22.6641C145.646 21.7526 145.447 20.7826 145.447 19.7539ZM164.393 14.7148H160.252V12.4785H174.178V14.7148H170.037V27H164.393V14.7148Z" fill="white"/>
</svg>
