<svg width="250" height="40" viewBox="0 0 250 40" fill="none" xmlns="http://www.w3.org/2000/svg">
<rect width="250" height="40" fill="black"/>
<path d="M4.85547 12.4883H13.2246C14.3053 12.4883 15.2493 12.6022 16.0566 12.8301C16.8704 13.0579 17.5475 13.377 18.0879 13.7871C18.6348 14.1973 19.0449 14.6888 19.3184 15.2617C19.5918 15.8346 19.7285 16.4661 19.7285 17.1562C19.7285 18.0091 19.5267 18.7676 19.123 19.4316C18.7194 20.0892 18.1204 20.6133 17.3262 21.0039L20.373 27.0098H13.9961L11.6914 21.7363H10.5V27H4.85547V12.4883ZM10.8418 19.9688C11.304 19.9688 11.7174 19.9036 12.082 19.7734C12.4466 19.6432 12.7559 19.4609 13.0098 19.2266C13.2637 18.9857 13.459 18.7025 13.5957 18.377C13.7324 18.0449 13.8008 17.6836 13.8008 17.293C13.8008 16.9023 13.7324 16.5443 13.5957 16.2188C13.459 15.8867 13.2637 15.6035 13.0098 15.3691C12.7559 15.1283 12.4466 14.9427 12.082 14.8125C11.7174 14.6823 11.304 14.6172 10.8418 14.6172H10.5098L10.5 19.9688H10.8418ZM23.0781 12.4883H35.3438V14.7246H28.7324L28.7227 18.6406H33.7812V20.877H28.7227V24.7637H35.3438V27H23.0781V12.4883ZM42.2676 16.1504L40.5879 12.4883H46.5352L53.6445 27.0098H47.2676L46.1934 24.6855H40.4707L39.4062 27.0098H36.9355L42.2676 16.1504ZM45.168 22.4492L43.332 18.4648L41.5059 22.4492H45.168ZM54.7871 19.7539C54.7871 19.0638 54.875 18.3997 55.0508 17.7617C55.2331 17.1172 55.4967 16.5182 55.8418 15.9648C56.1868 15.4115 56.61 14.9069 57.1113 14.4512C57.6126 13.9954 58.1823 13.6048 58.8203 13.2793C59.4648 12.9538 60.1745 12.7031 60.9492 12.5273C61.724 12.3451 62.5573 12.2539 63.4492 12.2539C64.0221 12.2539 64.569 12.2897 65.0898 12.3613C65.6172 12.4329 66.112 12.5339 66.5742 12.6641C67.0365 12.7878 67.4629 12.9342 67.8535 13.1035C68.2507 13.2663 68.6087 13.4388 68.9277 13.6211L68.0879 15.2617C67.7233 15.0859 67.3066 14.9395 66.8379 14.8223C66.3757 14.6986 65.8939 14.6367 65.3926 14.6367C64.722 14.6367 64.1003 14.7572 63.5273 14.998C62.9544 15.2389 62.4596 15.5807 62.043 16.0234C61.6263 16.4661 61.2975 17.0033 61.0566 17.6348C60.8223 18.2598 60.7051 18.9629 60.7051 19.7441C60.7051 20.5189 60.8223 21.222 61.0566 21.8535C61.291 22.4785 61.6133 23.0156 62.0234 23.4648C62.4401 23.9076 62.9316 24.2526 63.498 24.5C64.071 24.7409 64.6895 24.8613 65.3535 24.8613C65.8223 24.8613 66.291 24.806 66.7598 24.6953C67.2285 24.5781 67.6582 24.4251 68.0488 24.2363L68.8887 25.877C68.5697 26.0658 68.2148 26.2415 67.8242 26.4043C67.4336 26.5671 67.0104 26.7135 66.5547 26.8438C66.099 26.9674 65.6107 27.0651 65.0898 27.1367C64.569 27.2083 64.0221 27.2441 63.4492 27.2441C62.1146 27.2441 60.9102 27.0488 59.8359 26.6582C58.7682 26.2611 57.86 25.724 57.1113 25.0469C56.3626 24.3633 55.7865 23.569 55.3828 22.6641C54.9857 21.7526 54.7871 20.7826 54.7871 19.7539ZM73.7324 14.7148H69.5918V12.4785H83.5176V14.7148H79.377V27H73.7324V14.7148ZM85.3438 20.3398H92.0527V22.1758H85.3438V20.3398ZM95.4805 12.4883H103.156C104.237 12.4883 105.181 12.5794 105.988 12.7617C106.802 12.944 107.479 13.2044 108.02 13.543C108.566 13.875 108.977 14.2786 109.25 14.7539C109.523 15.2227 109.66 15.7467 109.66 16.3262C109.66 16.9056 109.497 17.4525 109.172 17.9668C108.853 18.4746 108.384 18.9141 107.766 19.2852C108.781 19.5781 109.54 20.0078 110.041 20.5742C110.542 21.1406 110.793 21.834 110.793 22.6543C110.793 23.2142 110.656 23.7546 110.383 24.2754C110.116 24.7962 109.712 25.2585 109.172 25.6621C108.638 26.0658 107.967 26.3913 107.16 26.6387C106.353 26.8796 105.409 27 104.328 27H95.4805V12.4883ZM101.73 18.3867C102.264 18.3867 102.714 18.3379 103.078 18.2402C103.443 18.1361 103.732 17.9961 103.947 17.8203C104.169 17.6445 104.325 17.4427 104.416 17.2148C104.514 16.987 104.562 16.7493 104.562 16.502C104.562 16.2546 104.514 16.0169 104.416 15.7891C104.325 15.5612 104.169 15.3626 103.947 15.1934C103.732 15.0176 103.443 14.8776 103.078 14.7734C102.714 14.6693 102.264 14.6172 101.73 14.6172H101.135L101.125 18.3867H101.73ZM101.73 24.8711C102.31 24.8711 102.798 24.8092 103.195 24.6855C103.592 24.5618 103.915 24.3926 104.162 24.1777C104.41 23.9629 104.589 23.7122 104.699 23.4258C104.81 23.1328 104.865 22.8203 104.865 22.4883C104.865 22.1953 104.807 21.9089 104.689 21.6289C104.572 21.349 104.396 21.1016 104.162 20.8867C103.934 20.6654 103.651 20.4896 103.312 20.3594C102.974 20.2227 102.583 20.1543 102.141 20.1543H101.125V24.8711H101.73ZM112.639 19.7148C112.639 18.6146 112.814 17.6087 113.166 16.6973C113.518 15.7793 114.042 14.9915 114.738 14.334C115.435 13.6764 116.304 13.1654 117.346 12.8008C118.387 12.4362 119.598 12.2539 120.979 12.2539C122.359 12.2539 123.57 12.4362 124.611 12.8008C125.653 13.1654 126.522 13.6764 127.219 14.334C127.915 14.9915 128.439 15.7793 128.791 16.6973C129.143 17.6087 129.318 18.6146 129.318 19.7148C129.318 20.8281 129.143 21.847 128.791 22.7715C128.439 23.696 127.915 24.487 127.219 25.1445C126.522 25.8021 125.653 26.3132 124.611 26.6777C123.57 27.0423 122.359 27.2246 120.979 27.2246C119.598 27.2246 118.387 27.0423 117.346 26.6777C116.304 26.3132 115.435 25.8021 114.738 25.1445C114.042 24.487 113.518 23.696 113.166 22.7715C112.814 21.847 112.639 20.8281 112.639 19.7148ZM120.979 25.2031C121.369 25.2031 121.714 25.1348 122.014 24.998C122.313 24.8613 122.564 24.5944 122.766 24.1973C122.967 23.8001 123.12 23.2435 123.225 22.5273C123.329 21.8112 123.381 20.8737 123.381 19.7148C123.381 18.569 123.329 17.6413 123.225 16.9316C123.12 16.222 122.967 15.6719 122.766 15.2812C122.564 14.8906 122.313 14.627 122.014 14.4902C121.714 14.3535 121.369 14.2852 120.979 14.2852C120.588 14.2852 120.24 14.3535 119.934 14.4902C119.634 14.627 119.383 14.8906 119.182 15.2812C118.98 15.6719 118.827 16.222 118.723 16.9316C118.618 17.6413 118.566 18.569 118.566 19.7148C118.566 20.8737 118.618 21.8112 118.723 22.5273C118.827 23.2435 118.98 23.8001 119.182 24.1973C119.383 24.5944 119.634 24.8613 119.934 24.998C120.24 25.1348 120.588 25.2031 120.979 25.2031ZM131.33 19.7148C131.33 18.6146 131.506 17.6087 131.857 16.6973C132.209 15.7793 132.733 14.9915 133.43 14.334C134.126 13.6764 134.995 13.1654 136.037 12.8008C137.079 12.4362 138.29 12.2539 139.67 12.2539C141.05 12.2539 142.261 12.4362 143.303 12.8008C144.344 13.1654 145.214 13.6764 145.91 14.334C146.607 14.9915 147.131 15.7793 147.482 16.6973C147.834 17.6087 148.01 18.6146 148.01 19.7148C148.01 20.8281 147.834 21.847 147.482 22.7715C147.131 23.696 146.607 24.487 145.91 25.1445C145.214 25.8021 144.344 26.3132 143.303 26.6777C142.261 27.0423 141.05 27.2246 139.67 27.2246C138.29 27.2246 137.079 27.0423 136.037 26.6777C134.995 26.3132 134.126 25.8021 133.43 25.1445C132.733 24.487 132.209 23.696 131.857 22.7715C131.506 21.847 131.33 20.8281 131.33 19.7148ZM139.67 25.2031C140.061 25.2031 140.406 25.1348 140.705 24.998C141.005 24.8613 141.255 24.5944 141.457 24.1973C141.659 23.8001 141.812 23.2435 141.916 22.5273C142.02 21.8112 142.072 20.8737 142.072 19.7148C142.072 18.569 142.02 17.6413 141.916 16.9316C141.812 16.222 141.659 15.6719 141.457 15.2812C141.255 14.8906 141.005 14.627 140.705 14.4902C140.406 14.3535 140.061 14.2852 139.67 14.2852C139.279 14.2852 138.931 14.3535 138.625 14.4902C138.326 14.627 138.075 14.8906 137.873 15.2812C137.671 15.6719 137.518 16.222 137.414 16.9316C137.31 17.6413 137.258 18.569 137.258 19.7148C137.258 20.8737 137.31 21.8112 137.414 22.5273C137.518 23.2435 137.671 23.8001 137.873 24.1973C138.075 24.5944 138.326 24.8613 138.625 24.998C138.931 25.1348 139.279 25.2031 139.67 25.2031ZM153.42 14.7148H149.279V12.4785H163.205V14.7148H159.064V27H153.42V14.7148ZM165.52 23.7773C166.21 24.1289 166.932 24.3926 167.688 24.5684C168.443 24.7441 169.146 24.832 169.797 24.832C170.546 24.832 171.092 24.7246 171.438 24.5098C171.789 24.2949 171.965 24.002 171.965 23.6309C171.965 23.5137 171.942 23.3932 171.896 23.2695C171.857 23.1458 171.776 23.0254 171.652 22.9082C171.535 22.7845 171.369 22.6641 171.154 22.5469C170.946 22.4232 170.673 22.3027 170.334 22.1855L168.586 21.5898C167.336 21.1602 166.395 20.5807 165.764 19.8516C165.132 19.1159 164.816 18.2435 164.816 17.2344C164.816 16.5833 164.953 15.9583 165.227 15.3594C165.5 14.7539 165.913 14.2233 166.467 13.7676C167.02 13.3053 167.717 12.9375 168.557 12.6641C169.403 12.3906 170.393 12.2539 171.525 12.2539C172.085 12.2539 172.622 12.2865 173.137 12.3516C173.651 12.4167 174.133 12.5013 174.582 12.6055C175.038 12.7096 175.454 12.8301 175.832 12.9668C176.21 13.097 176.542 13.2272 176.828 13.3574L175.773 15.2617C175.565 15.1315 175.344 15.0176 175.109 14.9199C174.882 14.8223 174.65 14.7409 174.416 14.6758C174.188 14.6107 173.964 14.5618 173.742 14.5293C173.521 14.4967 173.319 14.4805 173.137 14.4805C172.824 14.4805 172.551 14.5228 172.316 14.6074C172.082 14.6855 171.883 14.793 171.721 14.9297C171.564 15.0599 171.444 15.2096 171.359 15.3789C171.281 15.5417 171.242 15.7044 171.242 15.8672C171.242 16.0104 171.275 16.1504 171.34 16.2871C171.411 16.4173 171.529 16.5475 171.691 16.6777C171.861 16.8014 172.079 16.9284 172.346 17.0586C172.619 17.1823 172.958 17.3125 173.361 17.4492L174.533 17.8398C175.803 18.263 176.773 18.8457 177.443 19.5879C178.114 20.3301 178.449 21.2285 178.449 22.2832C178.449 22.9993 178.286 23.6602 177.961 24.2656C177.642 24.8711 177.163 25.3952 176.525 25.8379C175.887 26.2741 175.093 26.6159 174.143 26.8633C173.199 27.1042 172.102 27.2246 170.852 27.2246C170.253 27.2246 169.673 27.1921 169.113 27.127C168.56 27.0684 168.016 26.9772 167.482 26.8535C166.955 26.7298 166.434 26.5736 165.92 26.3848C165.406 26.196 164.891 25.9746 164.377 25.7207L165.52 23.7773ZM183.713 14.7148H179.572V12.4785H193.498V14.7148H189.357V27H183.713V14.7148ZM195.617 12.4883H203.986C205.067 12.4883 206.011 12.6022 206.818 12.8301C207.632 13.0579 208.309 13.377 208.85 13.7871C209.396 14.1973 209.807 14.6888 210.08 15.2617C210.354 15.8346 210.49 16.4661 210.49 17.1562C210.49 18.0091 210.288 18.7676 209.885 19.4316C209.481 20.0892 208.882 20.6133 208.088 21.0039L211.135 27.0098H204.758L202.453 21.7363H201.262V27H195.617V12.4883ZM201.604 19.9688C202.066 19.9688 202.479 19.9036 202.844 19.7734C203.208 19.6432 203.518 19.4609 203.771 19.2266C204.025 18.9857 204.221 18.7025 204.357 18.377C204.494 18.0449 204.562 17.6836 204.562 17.293C204.562 16.9023 204.494 16.5443 204.357 16.2188C204.221 15.8867 204.025 15.6035 203.771 15.3691C203.518 15.1283 203.208 14.9427 202.844 14.8125C202.479 14.6823 202.066 14.6172 201.604 14.6172H201.271L201.262 19.9688H201.604ZM217.854 16.1504L216.174 12.4883H222.121L229.23 27.0098H222.854L221.779 24.6855H216.057L214.992 27.0098H212.521L217.854 16.1504ZM220.754 22.4492L218.918 18.4648L217.092 22.4492H220.754ZM231.223 12.4883H238.205C239.494 12.4818 240.604 12.5957 241.535 12.8301C242.473 13.0579 243.244 13.3867 243.85 13.8164C244.455 14.2461 244.901 14.7637 245.188 15.3691C245.48 15.9681 245.627 16.6354 245.627 17.3711C245.627 18.0156 245.49 18.6341 245.217 19.2266C244.95 19.8125 244.533 20.3301 243.967 20.7793C243.407 21.2285 242.691 21.5866 241.818 21.8535C240.952 22.1204 239.921 22.2539 238.723 22.2539H236.867V27H231.223V12.4883ZM236.867 20.125C237.316 20.1185 237.717 20.0501 238.068 19.9199C238.42 19.7832 238.716 19.5977 238.957 19.3633C239.198 19.1224 239.38 18.8359 239.504 18.5039C239.634 18.1654 239.699 17.7878 239.699 17.3711C239.699 16.9609 239.634 16.5898 239.504 16.2578C239.374 15.9258 239.185 15.6426 238.938 15.4082C238.697 15.1673 238.4 14.9785 238.049 14.8418C237.704 14.7051 237.31 14.6302 236.867 14.6172V20.125Z" fill="white"/>
</svg>
