<svg width="110" height="32" viewBox="0 0 110 32" fill="none" xmlns="http://www.w3.org/2000/svg">
<g filter="url(#filter0_d_201_43)">
<path d="M5.00601 1.86583L4.98731 1.96383L9.15792 3.05825H5L4.99138 3.15751L11.2422 4.25104H5H4.95V4.30104V21V21.0342L4.98186 21.0466L10.1183 23.0466L10.1634 22.9578L7.38661 21.1872L10.5829 22.2975L10.6301 22.2109L9.20963 21.1004L11.1251 21.5487L11.3082 21.5915L11.1705 21.4634L10.7264 21.05H62.9545L62.9642 20.9509L53.8733 19.1618L53.856 19.1584L53.8404 19.1665L51.8366 20.2182L52.7635 19.2453L52.8298 19.1756L52.7347 19.1614L46.2121 18.1833L56.1324 18.9767L56.1492 18.8785L51.0669 17.5322L60.604 18.4706L62.944 18.9757L62.944 18.9758L62.947 18.9763L76.5834 21.0494L76.5833 21.05H76.5909H103.864L103.887 20.9557L98.4549 18.1049L104.993 18.9764L105.02 18.8811L101.828 17.4716H105H105.05V17.4216V2V1.93117L104.985 1.95245L101.858 2.9689L104.406 1.03987L104.525 0.95H104.376H5L4.991 1.04918L18.1397 3.45642L5.00601 1.86583Z" fill="black" stroke="url(#paint0_linear_201_43)" stroke-width="0.1"/>
<path d="M17.424 15.736C17.424 15.76 17.416 15.796 17.4 15.844C17.392 15.868 17.376 15.892 17.352 15.916C17.336 15.932 17.32 15.948 17.304 15.964C17.288 15.996 17.272 16.028 17.256 16.06C17.24 16.1 17.224 16.14 17.208 16.18L17.016 16.516C16.984 16.572 16.952 16.628 16.92 16.684C16.896 16.74 16.864 16.792 16.824 16.84C16.816 16.856 16.8 16.876 16.776 16.9C16.752 16.924 16.74 16.936 16.74 16.936C16.724 16.808 16.716 16.68 16.716 16.552C16.716 16.432 16.708 16.312 16.692 16.192C16.684 16.184 16.676 16.18 16.668 16.18C16.66 16.188 16.652 16.192 16.644 16.192C16.652 16.192 16.636 16.204 16.596 16.228C16.556 16.26 16.528 16.28 16.512 16.288C16.504 16.296 16.496 16.308 16.488 16.324C16.48 16.348 16.468 16.36 16.452 16.36C16.444 16.368 16.436 16.364 16.428 16.348C16.42 16.332 16.412 16.32 16.404 16.312C16.38 16.272 16.352 16.236 16.32 16.204C16.296 16.172 16.276 16.14 16.26 16.108C16.244 16.164 16.236 16.224 16.236 16.288C16.244 16.352 16.236 16.416 16.212 16.48C16.204 16.496 16.196 16.488 16.188 16.456C16.18 16.424 16.172 16.4 16.164 16.384L16.14 16.144C16.132 16.152 16.124 16.16 16.116 16.168C16.116 16.176 16.112 16.188 16.104 16.204C16.088 16.228 16.064 16.256 16.032 16.288C16.04 16.288 16.032 16.292 16.008 16.3C15.984 16.308 15.972 16.312 15.972 16.312C15.964 16.392 15.956 16.472 15.948 16.552C15.948 16.64 15.94 16.728 15.924 16.816C15.924 16.84 15.92 16.868 15.912 16.9C15.904 16.94 15.892 16.956 15.876 16.948C15.852 16.924 15.84 16.892 15.84 16.852C15.84 16.812 15.836 16.776 15.828 16.744C15.82 16.696 15.812 16.648 15.804 16.6C15.804 16.552 15.796 16.504 15.78 16.456C15.78 16.408 15.768 16.372 15.744 16.348C15.728 16.356 15.708 16.372 15.684 16.396C15.668 16.42 15.652 16.444 15.636 16.468C15.62 16.5 15.6 16.528 15.576 16.552C15.56 16.584 15.536 16.612 15.504 16.636C15.496 16.644 15.484 16.648 15.468 16.648C15.468 16.656 15.464 16.66 15.456 16.66C15.448 16.788 15.44 16.916 15.432 17.044C15.432 17.172 15.424 17.304 15.408 17.44C15.4 17.504 15.4 17.576 15.408 17.656C15.424 17.736 15.404 17.796 15.348 17.836C15.316 17.868 15.3 17.836 15.3 17.74C15.308 17.652 15.308 17.584 15.3 17.536C15.292 17.376 15.288 17.22 15.288 17.068C15.288 16.916 15.28 16.764 15.264 16.612C15.256 16.604 15.244 16.592 15.228 16.576C15.22 16.56 15.208 16.548 15.192 16.54C15.176 16.516 15.152 16.488 15.12 16.456C15.096 16.432 15.072 16.404 15.048 16.372C15.024 16.348 14.996 16.324 14.964 16.3C14.94 16.268 14.908 16.248 14.868 16.24C14.892 16.248 14.892 16.248 14.868 16.24C14.844 16.232 14.816 16.22 14.784 16.204H14.748C14.732 16.308 14.724 16.416 14.724 16.528C14.724 16.64 14.716 16.752 14.7 16.864C14.692 16.888 14.684 16.88 14.676 16.84C14.668 16.8 14.656 16.772 14.64 16.756C14.632 16.692 14.62 16.652 14.604 16.636C14.596 16.628 14.584 16.616 14.568 16.6C14.56 16.608 14.548 16.604 14.532 16.588C14.468 16.532 14.444 16.456 14.46 16.36C14.484 16.264 14.492 16.176 14.484 16.096C14.484 16.128 14.48 16.156 14.472 16.18C14.472 16.212 14.464 16.236 14.448 16.252C14.44 16.26 14.432 16.244 14.424 16.204C14.424 16.172 14.42 16.144 14.412 16.12C14.396 16.088 14.388 16.06 14.388 16.036C14.38 16.068 14.372 16.08 14.364 16.072C14.332 16.016 14.324 15.992 14.34 16C14.356 16.008 14.368 16.008 14.376 16C14.384 15.992 14.356 15.936 14.292 15.832L14.256 15.796C14.248 15.78 14.236 15.764 14.22 15.748C14.204 15.724 14.188 15.7 14.172 15.676C14.172 15.66 14.164 15.644 14.148 15.628C14.132 15.596 14.116 15.564 14.1 15.532C14.092 15.5 14.08 15.468 14.064 15.436C14.04 15.372 14.012 15.312 13.98 15.256C13.956 15.192 13.932 15.132 13.908 15.076C13.868 14.996 13.828 14.912 13.788 14.824C13.748 14.728 13.708 14.632 13.668 14.536C13.652 14.488 13.636 14.456 13.62 14.44C13.588 14.344 13.548 14.252 13.5 14.164C13.492 14.148 13.484 14.132 13.476 14.116C13.468 14.092 13.46 14.072 13.452 14.056L13.368 13.876C13.368 13.86 13.364 13.848 13.356 13.84C13.356 13.84 13.352 13.84 13.344 13.84C13.344 13.832 13.344 13.824 13.344 13.816C13.336 13.8 13.328 13.78 13.32 13.756C13.312 13.732 13.3 13.712 13.284 13.696C13.276 13.672 13.268 13.648 13.26 13.624C13.252 13.6 13.24 13.576 13.224 13.552L13.188 13.468L13.104 13.384C13.104 13.4 13.096 13.416 13.08 13.432C13.064 13.464 13.056 13.488 13.056 13.504L13.02 13.6C13.004 13.632 12.988 13.656 12.972 13.672C12.948 13.704 12.916 13.72 12.876 13.72C12.836 13.704 12.804 13.668 12.78 13.612C12.756 13.556 12.736 13.512 12.72 13.48C12.712 13.48 12.708 13.48 12.708 13.48C12.708 13.472 12.708 13.468 12.708 13.468C12.676 13.38 12.66 13.356 12.66 13.396C12.668 13.436 12.668 13.464 12.66 13.48V15.244C12.66 15.324 12.664 15.412 12.672 15.508C12.68 15.604 12.672 15.696 12.648 15.784C12.616 15.848 12.6 15.876 12.6 15.868L12.576 15.892C12.568 15.9 12.56 15.908 12.552 15.916C12.552 15.924 12.544 15.932 12.528 15.94C12.512 15.948 12.492 15.964 12.468 15.988C12.452 16.012 12.44 16.028 12.432 16.036C12.416 16.068 12.4 16.088 12.384 16.096C12.36 16.144 12.344 16.164 12.336 16.156C12.336 16.156 12.332 16.156 12.324 16.156C12.324 16.156 12.324 16.152 12.324 16.144C12.308 16.224 12.296 16.304 12.288 16.384C12.28 16.472 12.264 16.56 12.24 16.648C12.232 16.664 12.224 16.684 12.216 16.708C12.216 16.732 12.208 16.752 12.192 16.768C12.184 16.776 12.172 16.776 12.156 16.768C12.148 16.76 12.144 16.752 12.144 16.744C12.136 16.728 12.128 16.708 12.12 16.684C12.112 16.66 12.104 16.64 12.096 16.624C12.088 16.592 12.08 16.56 12.072 16.528C12.064 16.504 12.056 16.476 12.048 16.444C12.04 16.42 12.032 16.392 12.024 16.36C12.024 16.336 12.016 16.312 12 16.288L11.928 16.36C11.92 16.368 11.912 16.372 11.904 16.372C11.88 16.396 11.86 16.412 11.844 16.42C11.836 16.596 11.832 16.788 11.832 16.996C11.832 17.212 11.824 17.412 11.808 17.596C11.808 17.644 11.812 17.708 11.82 17.788C11.828 17.876 11.828 17.944 11.82 17.992C11.82 18.048 11.8 18.064 11.76 18.04C11.688 17.992 11.664 17.916 11.688 17.812C11.712 17.708 11.72 17.616 11.712 17.536C11.704 17.352 11.696 17.164 11.688 16.972C11.688 16.788 11.68 16.608 11.664 16.432C11.656 16.424 11.644 16.412 11.628 16.396C11.62 16.388 11.608 16.376 11.592 16.36C11.584 16.336 11.572 16.312 11.556 16.288C11.548 16.272 11.536 16.252 11.52 16.228C11.504 16.196 11.496 16.18 11.496 16.18C11.496 16.18 11.488 16.164 11.472 16.132C11.472 16.132 11.464 16.116 11.448 16.084C11.432 16.116 11.424 16.132 11.424 16.132C11.416 16.14 11.392 16.148 11.352 16.156C11.32 16.164 11.296 16.168 11.28 16.168C11.208 16.176 11.148 16.156 11.1 16.108C11.06 16.068 11.008 16.036 10.944 16.012C10.896 16.02 10.852 16.036 10.812 16.06C10.78 16.092 10.744 16.116 10.704 16.132C10.648 16.148 10.58 16.144 10.5 16.12L10.416 16.084H10.404C10.388 16.092 10.364 16.104 10.332 16.12C10.308 16.136 10.284 16.148 10.26 16.156C10.204 16.172 10.144 16.16 10.08 16.12C10.016 16.08 9.948 16.036 9.876 15.988C9.844 15.972 9.816 15.956 9.792 15.94C9.704 15.876 9.66 15.788 9.66 15.676V8.116C9.66 8.052 9.66 7.988 9.66 7.924C9.66 7.852 9.68 7.788 9.72 7.732C9.752 7.684 9.796 7.648 9.852 7.624C9.9 7.608 9.94 7.6 9.972 7.6C10.012 7.592 10.052 7.592 10.092 7.6C10.14 7.6 10.184 7.6 10.224 7.6H13.176C13.336 7.6 13.496 7.6 13.656 7.6C13.816 7.592 13.972 7.6 14.124 7.624C14.532 7.656 14.904 7.732 15.24 7.852C15.584 7.964 15.88 8.112 16.128 8.296C16.176 8.32 16.22 8.352 16.26 8.392C16.26 8.392 16.26 8.396 16.26 8.404C16.268 8.404 16.272 8.408 16.272 8.416C16.28 8.416 16.288 8.42 16.296 8.428C16.592 8.676 16.816 8.976 16.968 9.328C17.128 9.68 17.208 10.076 17.208 10.516C17.208 10.78 17.176 11.032 17.112 11.272C17.096 11.424 17.064 11.524 17.016 11.572C17 11.604 16.992 11.624 16.992 11.632C16.952 11.728 16.904 11.82 16.848 11.908C16.8 11.996 16.744 12.084 16.68 12.172C16.672 12.18 16.664 12.192 16.656 12.208C16.648 12.216 16.64 12.224 16.632 12.232C16.624 12.24 16.616 12.248 16.608 12.256C16.6 12.264 16.592 12.276 16.584 12.292L16.488 12.4C16.48 12.408 16.468 12.416 16.452 12.424C16.444 12.432 16.436 12.444 16.428 12.46C16.404 12.476 16.38 12.496 16.356 12.52C16.34 12.544 16.32 12.564 16.296 12.58C16.288 12.692 16.304 12.86 16.344 13.084C16.384 13.308 16.408 13.528 16.416 13.744C16.432 13.768 16.448 13.792 16.464 13.816C16.48 13.84 16.492 13.868 16.5 13.9C16.58 14.036 16.66 14.204 16.74 14.404L17.028 14.932C17.068 15.012 17.108 15.088 17.148 15.16C17.196 15.232 17.24 15.304 17.28 15.376C17.296 15.408 17.312 15.436 17.328 15.46C17.344 15.484 17.356 15.512 17.364 15.544C17.372 15.552 17.38 15.568 17.388 15.592C17.396 15.608 17.4 15.624 17.4 15.64C17.416 15.672 17.424 15.704 17.424 15.736ZM12.756 11.104H13.536C13.576 11.104 13.628 11.096 13.692 11.08C13.772 11.056 13.836 11.008 13.884 10.936C13.94 10.864 13.984 10.78 14.016 10.684C14.032 10.644 14.044 10.604 14.052 10.564C14.06 10.516 14.064 10.468 14.064 10.42C14.064 10.332 14.048 10.244 14.016 10.156C13.984 10.068 13.932 9.996 13.86 9.94C13.828 9.908 13.784 9.892 13.728 9.892C13.672 9.884 13.62 9.884 13.572 9.892C13.484 9.9 13.392 9.912 13.296 9.928C13.208 9.936 13.116 9.932 13.02 9.916C12.972 9.908 12.924 9.9 12.876 9.892C12.836 9.876 12.796 9.864 12.756 9.856C12.74 9.848 12.728 9.844 12.72 9.844C12.72 9.836 12.7 9.832 12.66 9.832V10.852C12.66 10.996 12.668 11.064 12.684 11.056C12.7 11.048 12.724 11.064 12.756 11.104ZM16.152 13.312C16.192 13.008 16.212 12.788 16.212 12.652C16.212 12.652 16.204 12.66 16.188 12.676C16.188 12.684 16.184 12.692 16.176 12.7C16.176 12.7 16.176 12.704 16.176 12.712C16.176 12.72 16.176 12.736 16.176 12.76C16.176 12.784 16.168 12.82 16.152 12.868C16.136 12.9 16.12 12.92 16.104 12.928C16.08 12.936 16.064 12.92 16.056 12.88C16.048 12.84 16.028 12.828 15.996 12.844C15.996 12.868 15.98 12.884 15.948 12.892C15.94 12.9 15.932 12.9 15.924 12.892C15.924 12.876 15.92 12.868 15.912 12.868L15.948 12.94C15.964 12.948 15.976 12.964 15.984 12.988C15.992 13.004 16 13.02 16.008 13.036L16.152 13.312ZM14.568 16.312C14.584 16.296 14.596 16.276 14.604 16.252C14.62 16.228 14.612 16.192 14.58 16.144C14.58 16.144 14.576 16.144 14.568 16.144C14.568 16.144 14.568 16.148 14.568 16.156C14.56 16.172 14.556 16.192 14.556 16.216C14.564 16.248 14.568 16.28 14.568 16.312ZM20.9002 13.6C20.9082 13.656 20.9082 13.716 20.9002 13.78C20.9002 13.836 20.9002 13.892 20.9002 13.948V15.736C20.9002 15.736 20.8962 15.752 20.8882 15.784C20.8802 15.808 20.8722 15.82 20.8642 15.82C20.8642 15.828 20.8602 15.836 20.8522 15.844C20.8522 15.852 20.8442 15.864 20.8282 15.88C20.8202 15.888 20.8122 15.896 20.8042 15.904C20.7962 15.912 20.7882 15.92 20.7802 15.928C20.7162 15.992 20.6842 16.02 20.6842 16.012C20.6922 16.004 20.7122 15.984 20.7442 15.952C20.7362 15.96 20.7202 15.976 20.6962 16C20.6722 16.016 20.6642 16.02 20.6722 16.012C20.6642 16.02 20.6642 16.02 20.6722 16.012C20.6882 16.012 20.6722 16.032 20.6242 16.072C20.6162 16.08 20.6082 16.088 20.6002 16.096C20.6002 16.112 20.5922 16.116 20.5762 16.108C20.5442 16.14 20.5162 16.168 20.4922 16.192C20.4682 16.224 20.4442 16.256 20.4202 16.288C20.4122 16.296 20.4002 16.308 20.3842 16.324C20.3682 16.34 20.3522 16.352 20.3362 16.36C20.3202 16.368 20.3042 16.38 20.2882 16.396C20.2802 16.5 20.2802 16.608 20.2882 16.72C20.2962 16.832 20.2802 16.936 20.2402 17.032C20.2242 17.072 20.2122 17.064 20.2042 17.008C20.2042 16.96 20.2042 16.892 20.2042 16.804C20.2122 16.716 20.2082 16.652 20.1922 16.612C20.1922 16.596 20.1882 16.596 20.1802 16.612C20.1722 16.628 20.1602 16.636 20.1442 16.636C20.1362 16.636 20.1242 16.628 20.1082 16.612C20.0922 16.596 20.0762 16.572 20.0602 16.54C20.0522 16.524 20.0442 16.5 20.0362 16.468C20.0282 16.444 20.0202 16.44 20.0122 16.456C19.9882 16.488 19.9762 16.516 19.9762 16.54C19.9682 16.516 19.9602 16.484 19.9522 16.444C19.9442 16.412 19.9322 16.372 19.9162 16.324L19.8562 16.396L19.8202 16.432C19.8042 16.44 19.7882 16.452 19.7722 16.468C19.7642 16.484 19.7562 16.504 19.7482 16.528C19.7482 16.552 19.7402 16.56 19.7242 16.552C19.7002 16.536 19.6882 16.512 19.6882 16.48C19.6962 16.456 19.6922 16.432 19.6762 16.408C19.6442 16.368 19.6202 16.324 19.6042 16.276C19.5882 16.228 19.5722 16.184 19.5562 16.144C19.5402 16.144 19.5322 16.148 19.5322 16.156C19.5162 16.268 19.5082 16.38 19.5082 16.492C19.5082 16.604 19.5002 16.716 19.4842 16.828C19.4842 16.836 19.4762 16.84 19.4602 16.84C19.4442 16.848 19.4362 16.848 19.4362 16.84C19.4202 16.736 19.4122 16.632 19.4122 16.528C19.4202 16.424 19.4162 16.32 19.4002 16.216C19.3682 16.248 19.3482 16.264 19.3402 16.264C19.3402 16.264 19.3322 16.264 19.3162 16.264C19.2922 16.288 19.2642 16.3 19.2322 16.3C19.2002 16.308 19.1802 16.3 19.1722 16.276C19.1722 16.252 19.1642 16.224 19.1482 16.192L19.0642 16.12H19.0402C19.0402 16.176 19.0282 16.212 19.0042 16.228C19.0042 16.228 18.9922 16.208 18.9682 16.168C18.9602 16.224 18.9642 16.296 18.9802 16.384C19.0042 16.472 18.9842 16.52 18.9202 16.528C18.8802 16.528 18.8642 16.496 18.8722 16.432C18.8882 16.376 18.9002 16.316 18.9082 16.252C18.9242 16.188 18.9122 16.152 18.8722 16.144C18.8322 16.136 18.8162 16.164 18.8242 16.228C18.8402 16.292 18.8522 16.356 18.8602 16.42C18.8762 16.484 18.8642 16.508 18.8242 16.492C18.7682 16.468 18.7522 16.412 18.7762 16.324C18.8082 16.236 18.8082 16.164 18.7762 16.108C18.7602 16.068 18.7522 16.084 18.7522 16.156C18.7522 16.236 18.7442 16.292 18.7282 16.324C18.7202 16.332 18.7122 16.32 18.7042 16.288C18.6962 16.264 18.6882 16.244 18.6802 16.228C18.6322 16.164 18.5802 16.116 18.5242 16.084C18.4762 16.052 18.4282 16.02 18.3802 15.988C18.3642 15.98 18.3482 15.972 18.3322 15.964C18.3162 15.948 18.3002 15.936 18.2842 15.928C18.2042 15.864 18.1642 15.78 18.1642 15.676V13.792C18.1642 13.728 18.1642 13.66 18.1642 13.588C18.1642 13.516 18.1842 13.452 18.2242 13.396L18.2962 13.324C18.3522 13.284 18.4162 13.264 18.4882 13.264H19.8922C19.9562 13.264 20.0162 13.264 20.0722 13.264C20.1282 13.256 20.1762 13.252 20.2162 13.252C20.2402 13.252 20.2962 13.252 20.3842 13.252C20.4802 13.244 20.5642 13.248 20.6362 13.264C20.7642 13.296 20.8482 13.372 20.8882 13.492C20.8962 13.516 20.9002 13.552 20.9002 13.6ZM29.8704 13.54C29.8704 13.7 29.8464 13.884 29.7984 14.092C29.6784 14.58 29.4384 14.98 29.0784 15.292C29.0704 15.3 29.0624 15.308 29.0544 15.316C29.0464 15.324 29.0384 15.332 29.0304 15.34C29.0304 15.436 29.0424 15.544 29.0664 15.664C29.0904 15.776 29.1024 15.884 29.1024 15.988C29.1104 16.092 29.0744 16.176 28.9944 16.24C28.9304 16.296 28.8944 16.28 28.8864 16.192C28.8864 16.104 28.8984 15.988 28.9224 15.844C28.9464 15.7 28.9584 15.576 28.9584 15.472C28.8944 15.616 28.8144 15.744 28.7184 15.856C28.7104 15.864 28.6984 15.876 28.6824 15.892C28.6664 15.908 28.6504 15.924 28.6344 15.94C28.6104 15.964 28.5984 15.976 28.5984 15.976C28.5904 15.944 28.5824 15.916 28.5744 15.892C28.5744 15.86 28.5744 15.828 28.5744 15.796C28.5104 15.876 28.4464 15.956 28.3824 16.036C28.3264 16.124 28.2664 16.212 28.2024 16.3C28.0984 16.46 28.0064 16.624 27.9264 16.792C27.8464 16.968 27.7464 17.132 27.6264 17.284C27.5704 17.348 27.5104 17.412 27.4464 17.476C27.3904 17.548 27.3344 17.616 27.2784 17.68C27.2544 17.712 27.2264 17.744 27.1944 17.776C27.1704 17.808 27.1424 17.832 27.1104 17.848C27.0944 17.888 27.0784 17.956 27.0624 18.052C27.0464 18.156 27.0264 18.232 27.0024 18.28C27.0024 18.288 26.9944 18.296 26.9784 18.304C26.9704 18.32 26.9624 18.324 26.9544 18.316C26.9384 18.292 26.9264 18.264 26.9184 18.232C26.9184 18.2 26.9144 18.168 26.9064 18.136C26.8984 18.08 26.8944 18.024 26.8944 17.968C26.8944 17.92 26.8864 17.868 26.8704 17.812C26.8624 17.804 26.8424 17.788 26.8104 17.764C26.7864 17.74 26.7704 17.72 26.7624 17.704C26.7544 17.696 26.7504 17.688 26.7504 17.68C26.7504 17.68 26.7464 17.676 26.7384 17.668L26.6784 17.572C26.6624 17.548 26.6464 17.52 26.6304 17.488C26.6144 17.464 26.5984 17.44 26.5824 17.416C26.5824 17.416 26.5744 17.408 26.5584 17.392C26.5424 17.384 26.5184 17.368 26.4864 17.344C26.4544 17.312 26.4264 17.272 26.4024 17.224C26.3864 17.184 26.3664 17.148 26.3424 17.116C26.2784 17.02 26.2184 16.92 26.1624 16.816C26.1064 16.72 26.0544 16.62 26.0064 16.516C25.9904 16.468 25.9744 16.432 25.9584 16.408C25.9504 16.368 25.9344 16.332 25.9104 16.3C25.8944 16.268 25.8784 16.232 25.8624 16.192L25.8144 16.216C25.8064 16.376 25.7984 16.536 25.7904 16.696C25.7904 16.864 25.7824 17.028 25.7664 17.188C25.7664 17.212 25.7584 17.24 25.7424 17.272C25.7344 17.312 25.7264 17.324 25.7184 17.308C25.7024 17.132 25.6944 16.96 25.6944 16.792C25.6944 16.624 25.6864 16.456 25.6704 16.288C25.6704 16.272 25.6664 16.268 25.6584 16.276C25.6504 16.292 25.6384 16.3 25.6224 16.3C25.6064 16.316 25.5904 16.324 25.5744 16.324L25.5024 16.42L25.3944 16.6C25.3464 16.688 25.3064 16.78 25.2744 16.876C25.2424 16.972 25.2064 17.064 25.1664 17.152L25.1304 17.236C25.1304 17.244 25.1264 17.248 25.1184 17.248C25.1184 17.256 25.1184 17.264 25.1184 17.272C25.1024 17.296 25.0864 17.32 25.0704 17.344C25.0544 17.368 25.0344 17.388 25.0104 17.404C24.9944 17.42 24.9784 17.428 24.9624 17.428C24.9384 17.524 24.9224 17.62 24.9144 17.716C24.9064 17.812 24.8904 17.904 24.8664 17.992C24.8584 18.008 24.8504 18.028 24.8424 18.052C24.8424 18.084 24.8344 18.1 24.8184 18.1C24.8024 18.1 24.7904 18.084 24.7824 18.052C24.7824 18.028 24.7784 18.008 24.7704 17.992C24.7464 17.904 24.7304 17.816 24.7224 17.728C24.7224 17.64 24.7064 17.552 24.6744 17.464C24.6504 17.488 24.6264 17.512 24.6024 17.536C24.5784 17.56 24.5544 17.58 24.5304 17.596C24.5224 17.62 24.5104 17.656 24.4944 17.704C24.4864 17.752 24.4624 17.748 24.4224 17.692C24.4144 17.676 24.4064 17.656 24.3984 17.632C24.3984 17.616 24.3944 17.6 24.3864 17.584C24.3704 17.568 24.3544 17.548 24.3384 17.524C24.3304 17.5 24.3184 17.48 24.3024 17.464C24.3024 17.456 24.2984 17.452 24.2904 17.452C24.2904 17.452 24.2904 17.448 24.2904 17.44C24.2344 17.344 24.1824 17.244 24.1344 17.14C24.0944 17.044 24.0344 16.956 23.9544 16.876C23.9464 16.86 23.9384 16.848 23.9304 16.84C23.9224 16.832 23.9144 16.824 23.9064 16.816L23.8224 16.744C23.8064 16.728 23.7864 16.712 23.7624 16.696C23.7464 16.68 23.7304 16.664 23.7144 16.648C23.6824 16.608 23.6464 16.564 23.6064 16.516C23.5664 16.476 23.5224 16.44 23.4744 16.408C23.4264 16.392 23.4064 16.388 23.4144 16.396C23.4304 16.404 23.4424 16.412 23.4504 16.42C23.4664 16.428 23.4464 16.42 23.3904 16.396C23.3584 16.38 23.3304 16.356 23.3064 16.324C23.2904 16.3 23.2624 16.284 23.2224 16.276C23.1664 16.268 23.1144 16.272 23.0664 16.288C23.0184 16.304 22.9664 16.32 22.9104 16.336C22.8464 16.352 22.7984 16.356 22.7664 16.348C22.7344 16.348 22.7184 16.344 22.7184 16.336C22.7024 16.512 22.6944 16.728 22.6944 16.984C22.6944 17.24 22.6864 17.46 22.6704 17.644C22.6704 17.66 22.6624 17.652 22.6464 17.62C22.6384 17.588 22.6304 17.568 22.6224 17.56C22.5984 17.496 22.5744 17.432 22.5504 17.368C22.5344 17.312 22.5184 17.256 22.5024 17.2C22.4944 17.032 22.4904 16.864 22.4904 16.696C22.4984 16.528 22.4824 16.36 22.4424 16.192C22.4344 16.144 22.4304 16.152 22.4304 16.216C22.4384 16.28 22.4384 16.352 22.4304 16.432C22.4304 16.52 22.4144 16.584 22.3824 16.624C22.3504 16.664 22.3384 16.636 22.3464 16.54C22.3544 16.444 22.3584 16.368 22.3584 16.312L22.2744 15.988C22.2424 15.972 22.2144 15.956 22.1904 15.94C22.1024 15.876 22.0584 15.788 22.0584 15.676V8.26C22.0584 8.204 22.0544 8.148 22.0464 8.092C22.0464 8.036 22.0504 7.98 22.0584 7.924C22.0584 7.868 22.0664 7.824 22.0824 7.792C22.0984 7.76 22.1224 7.724 22.1544 7.684C22.2264 7.628 22.3024 7.6 22.3824 7.6H23.8344C23.9144 7.6 24.0584 7.6 24.2664 7.6C24.4744 7.6 24.7104 7.6 24.9744 7.6C25.2384 7.6 25.4944 7.6 25.7424 7.6C25.9904 7.6 26.1984 7.6 26.3664 7.6C26.4784 7.6 26.5864 7.604 26.6904 7.612C26.7944 7.612 26.8944 7.616 26.9904 7.624C27.0224 7.624 27.0504 7.628 27.0744 7.636C27.1064 7.636 27.1384 7.636 27.1704 7.636C27.2504 7.644 27.3264 7.652 27.3984 7.66C27.4704 7.66 27.5424 7.668 27.6144 7.684C27.6544 7.692 27.6904 7.7 27.7224 7.708C27.7624 7.716 27.7984 7.724 27.8304 7.732C27.8464 7.732 27.8584 7.736 27.8664 7.744C27.9064 7.752 27.9384 7.76 27.9624 7.768C27.9864 7.776 28.0104 7.788 28.0344 7.804C28.0584 7.812 28.0784 7.82 28.0944 7.828C28.1184 7.836 28.1424 7.844 28.1664 7.852C28.4624 7.956 28.7224 8.1 28.9464 8.284C28.9704 8.3 28.9944 8.32 29.0184 8.344C29.0424 8.36 29.0624 8.376 29.0784 8.392C29.1184 8.432 29.1504 8.468 29.1744 8.5C29.2224 8.548 29.2744 8.62 29.3304 8.716C29.3784 8.772 29.4184 8.836 29.4504 8.908C29.4824 8.972 29.5104 9.04 29.5344 9.112C29.6064 9.328 29.6544 9.568 29.6784 9.832C29.6944 9.992 29.6944 10.152 29.6784 10.312C29.6704 10.464 29.6384 10.588 29.5824 10.684C29.5744 10.708 29.5664 10.732 29.5584 10.756C29.5504 10.772 29.5384 10.792 29.5224 10.816C29.4984 10.872 29.4704 10.924 29.4384 10.972C29.4064 11.02 29.3704 11.068 29.3304 11.116C29.3144 11.132 29.2984 11.152 29.2824 11.176C29.2664 11.2 29.2504 11.22 29.2344 11.236L29.1264 11.344C29.1024 11.36 29.0664 11.392 29.0184 11.44C29.0104 11.496 29.0064 11.552 29.0064 11.608C29.0064 11.656 29.0024 11.708 28.9944 11.764C29.0424 11.788 29.0864 11.82 29.1264 11.86C29.1744 11.892 29.2064 11.916 29.2224 11.932L29.4024 12.112C29.4664 12.176 29.5344 12.272 29.6064 12.4C29.7824 12.704 29.8704 13.024 29.8704 13.36V13.54ZM25.1544 9.676L25.0584 9.664V10.756H26.0784C26.1184 10.756 26.1544 10.752 26.1864 10.744C26.2744 10.712 26.3504 10.652 26.4144 10.564C26.4784 10.468 26.5184 10.368 26.5344 10.264C26.5424 10.2 26.5424 10.136 26.5344 10.072C26.5264 10.008 26.5064 9.948 26.4744 9.892C26.4504 9.844 26.4104 9.8 26.3544 9.76C26.3544 9.752 26.3504 9.748 26.3424 9.748C26.2864 9.708 26.2264 9.692 26.1624 9.7C26.0984 9.7 26.0344 9.704 25.9704 9.712C25.8904 9.72 25.8104 9.724 25.7304 9.724C25.6504 9.724 25.5704 9.72 25.4904 9.712C25.4344 9.712 25.3784 9.708 25.3224 9.7C25.2664 9.692 25.2104 9.684 25.1544 9.676ZM25.0584 13.936H26.1624C26.2024 13.936 26.2544 13.928 26.3184 13.912C26.4704 13.872 26.5784 13.76 26.6424 13.576C26.7144 13.384 26.7184 13.212 26.6544 13.06L26.6304 13C26.6144 12.976 26.5904 12.948 26.5584 12.916C26.4784 12.836 26.3744 12.808 26.2464 12.832C26.1184 12.848 26.0024 12.86 25.8984 12.868C25.8184 12.876 25.7384 12.876 25.6584 12.868C25.5864 12.852 25.5104 12.84 25.4304 12.832C25.3824 12.816 25.3344 12.808 25.2864 12.808C25.2384 12.8 25.1944 12.792 25.1544 12.784L25.0584 12.856V13.936ZM38.2989 14.368C38.2589 14.464 38.2189 14.532 38.1789 14.572L38.0349 14.788C37.9629 14.884 37.8829 14.976 37.7949 15.064L37.5789 15.256C37.5709 15.4 37.5629 15.544 37.5549 15.688C37.5549 15.832 37.5509 15.98 37.5429 16.132C37.5349 16.204 37.5349 16.276 37.5429 16.348C37.5509 16.428 37.5349 16.5 37.4949 16.564C37.4629 16.604 37.4469 16.576 37.4469 16.48C37.4549 16.384 37.4589 16.308 37.4589 16.252C37.4509 16.116 37.4429 15.976 37.4349 15.832C37.4349 15.68 37.4269 15.536 37.4109 15.4C37.3549 15.464 37.3069 15.544 37.2669 15.64C37.2269 15.736 37.1949 15.824 37.1709 15.904C37.1229 16.04 37.0749 16.18 37.0269 16.324C36.9789 16.468 36.9269 16.608 36.8709 16.744C36.8469 16.808 36.8229 16.872 36.7989 16.936C36.7749 17.008 36.7429 17.072 36.7029 17.128C36.6949 17.136 36.6789 17.148 36.6549 17.164C36.6389 17.18 36.6229 17.192 36.6069 17.2C36.5509 17.208 36.5029 17.172 36.4629 17.092C36.4229 17.02 36.3949 16.968 36.3789 16.936C36.3709 16.92 36.3589 16.904 36.3429 16.888C36.3349 16.872 36.3309 16.856 36.3309 16.84C36.3229 16.72 36.3149 16.596 36.3069 16.468C36.3069 16.348 36.2989 16.224 36.2829 16.096C36.2509 16.144 36.2149 16.192 36.1749 16.24C36.1429 16.288 36.1069 16.336 36.0669 16.384C36.0509 16.4 36.0429 16.408 36.0429 16.408C36.0349 16.424 36.0229 16.436 36.0069 16.444C35.9909 16.46 35.9749 16.476 35.9589 16.492C35.9509 16.508 35.9349 16.536 35.9109 16.576C35.8949 16.624 35.8789 16.656 35.8629 16.672C35.8469 16.688 35.8309 16.688 35.8149 16.672C35.7909 16.656 35.7709 16.62 35.7549 16.564C35.7469 16.516 35.7349 16.48 35.7189 16.456C35.6869 16.432 35.6589 16.4 35.6349 16.36C35.6109 16.32 35.5909 16.284 35.5749 16.252C35.5589 16.228 35.5429 16.2 35.5269 16.168C35.5189 16.208 35.5109 16.252 35.5029 16.3C35.5029 16.356 35.4949 16.404 35.4789 16.444C35.4789 16.444 35.4629 16.444 35.4309 16.444C35.4069 16.444 35.3829 16.44 35.3589 16.432C35.3349 16.432 35.3109 16.432 35.2869 16.432C35.2309 16.424 35.1909 16.416 35.1669 16.408H35.0949C35.0549 16.432 34.9909 16.432 34.9029 16.408C34.8949 16.4 34.8829 16.392 34.8669 16.384C34.8589 16.376 34.8549 16.376 34.8549 16.384C34.8389 16.528 34.8309 16.668 34.8309 16.804C34.8309 16.948 34.8229 17.088 34.8069 17.224C34.7989 17.256 34.7909 17.24 34.7829 17.176C34.7749 17.12 34.7669 17.076 34.7589 17.044C34.7509 16.916 34.7469 16.788 34.7469 16.66C34.7549 16.532 34.7429 16.404 34.7109 16.276C34.7029 16.228 34.6949 16.232 34.6869 16.288C34.6869 16.344 34.6869 16.412 34.6869 16.492C34.6869 16.572 34.6789 16.632 34.6629 16.672C34.6549 16.704 34.6469 16.688 34.6389 16.624C34.6389 16.568 34.6349 16.524 34.6269 16.492L34.5549 16.12H34.5429C33.7509 16.104 33.0629 15.964 32.4789 15.7C31.8949 15.436 31.4429 15.048 31.1229 14.536C31.0669 14.472 31.0189 14.396 30.9789 14.308C30.9469 14.22 30.9189 14.136 30.8949 14.056L30.8229 13.888V13.876C30.8069 13.828 30.7909 13.78 30.7749 13.732C30.7589 13.684 30.7429 13.636 30.7269 13.588C30.6949 13.468 30.6709 13.312 30.6549 13.12C30.6389 12.928 30.6309 12.74 30.6309 12.556C30.6309 12.364 30.6309 12.208 30.6309 12.088C30.6309 11.928 30.6309 11.768 30.6309 11.608C30.6309 11.44 30.6349 11.28 30.6429 11.128V11.032C30.6429 10.92 30.6429 10.804 30.6429 10.684C30.6509 10.564 30.6669 10.448 30.6909 10.336C30.6909 10.32 30.6909 10.308 30.6909 10.3C30.6989 10.292 30.7029 10.284 30.7029 10.276C30.7749 9.836 30.9189 9.444 31.1349 9.1C31.2069 8.956 31.3029 8.824 31.4229 8.704C32.1429 7.888 33.2229 7.48 34.6629 7.48H34.9149C34.9309 7.48 34.9429 7.484 34.9509 7.492C34.9909 7.492 35.0269 7.492 35.0589 7.492C35.0989 7.492 35.1349 7.496 35.1669 7.504C35.1909 7.496 35.2109 7.496 35.2269 7.504C35.2509 7.504 35.2749 7.504 35.2989 7.504L35.5029 7.54C35.5829 7.548 35.6589 7.56 35.7309 7.576C35.8109 7.592 35.8909 7.608 35.9709 7.624C36.0589 7.632 36.1589 7.656 36.2709 7.696C36.2789 7.696 36.2829 7.7 36.2829 7.708C36.2909 7.708 36.2989 7.708 36.3069 7.708C36.3709 7.716 36.4309 7.732 36.4869 7.756C36.5509 7.772 36.6029 7.796 36.6429 7.828C37.1549 8.036 37.5949 8.348 37.9629 8.764C38.0749 8.876 38.1749 9.028 38.2629 9.22C38.4069 9.492 38.5149 9.776 38.5869 10.072C38.6109 10.128 38.6229 10.196 38.6229 10.276L38.6589 10.504C38.6669 10.592 38.6709 10.68 38.6709 10.768C38.6789 10.856 38.6829 10.944 38.6829 11.032C38.6909 11.152 38.6949 11.3 38.6949 11.476C38.6949 11.652 38.6949 11.828 38.6949 12.004C38.6949 12.18 38.6949 12.328 38.6949 12.448C38.6869 12.6 38.6829 12.756 38.6829 12.916C38.6829 13.068 38.6629 13.216 38.6229 13.36C38.5669 13.728 38.4589 14.064 38.2989 14.368ZM34.1589 13.564C34.2069 13.628 34.2589 13.684 34.3149 13.732C34.3949 13.748 34.4909 13.764 34.6029 13.78H34.7469C34.7709 13.772 34.7949 13.768 34.8189 13.768C34.8509 13.768 34.8789 13.764 34.9029 13.756C35.0549 13.716 35.1789 13.644 35.2749 13.54C35.3149 13.5 35.3509 13.452 35.3829 13.396C35.4149 13.34 35.4389 13.284 35.4549 13.228L35.4909 13.096C35.5229 12.96 35.5389 12.828 35.5389 12.7C35.5469 12.564 35.5549 12.448 35.5629 12.352V11.524C35.5629 11.428 35.5629 11.332 35.5629 11.236C35.5629 11.132 35.5589 11.032 35.5509 10.936C35.5509 10.88 35.5509 10.828 35.5509 10.78C35.5509 10.724 35.5469 10.672 35.5389 10.624C35.5309 10.608 35.5269 10.592 35.5269 10.576C35.5269 10.552 35.5229 10.536 35.5149 10.528C35.5149 10.504 35.5069 10.468 35.4909 10.42C35.4669 10.324 35.4309 10.244 35.3829 10.18C35.3349 10.108 35.2789 10.044 35.2149 9.988L35.2029 9.976C35.1709 9.96 35.1509 9.952 35.1429 9.952C35.1269 9.944 35.0989 9.94 35.0589 9.94C35.0509 9.94 35.0429 9.944 35.0349 9.952C35.0269 9.96 35.0109 9.968 34.9869 9.976C34.9789 9.976 34.9709 9.976 34.9629 9.976C34.9629 9.968 34.9549 9.964 34.9389 9.964C34.9069 9.972 34.8709 9.992 34.8309 10.024C34.7909 10.056 34.7589 10.084 34.7349 10.108C34.7189 10.116 34.6949 10.128 34.6629 10.144C34.6309 10.16 34.6109 10.176 34.6029 10.192C34.5709 10.232 34.5549 10.268 34.5549 10.3C34.5549 10.332 34.5229 10.344 34.4589 10.336C34.4029 10.336 34.3789 10.328 34.3869 10.312C34.4029 10.296 34.3909 10.26 34.3509 10.204C34.3429 10.188 34.3309 10.176 34.3149 10.168C34.2989 10.16 34.2829 10.152 34.2669 10.144C34.2749 10.144 34.2629 10.136 34.2309 10.12C34.2069 10.096 34.1909 10.08 34.1829 10.072C34.1829 10.072 34.1789 10.072 34.1709 10.072C34.1709 10.064 34.1549 10.044 34.1229 10.012C34.1069 9.988 34.1029 9.984 34.1109 10C34.1269 10.008 34.1229 10.008 34.0989 10C34.0989 10 34.0949 10 34.0869 10C34.0869 10 34.0869 10.004 34.0869 10.012C34.0709 10.028 34.0509 10.048 34.0269 10.072C34.0029 10.088 33.9709 10.128 33.9309 10.192C33.8749 10.296 33.8389 10.4 33.8229 10.504C33.8069 10.6 33.7909 10.696 33.7749 10.792C33.7749 10.832 33.7709 10.888 33.7629 10.96C33.7629 11.032 33.7629 11.1 33.7629 11.164V12.088C33.7629 12.152 33.7629 12.216 33.7629 12.28C33.7709 12.336 33.7789 12.396 33.7869 12.46C33.8109 12.628 33.8549 12.824 33.9189 13.048L33.9549 13.144C33.9869 13.224 34.0189 13.3 34.0509 13.372C34.0829 13.436 34.1189 13.5 34.1589 13.564ZM47.2052 14.368C47.1652 14.464 47.1252 14.532 47.0852 14.572L46.9412 14.788C46.8692 14.884 46.7892 14.976 46.7012 15.064L46.4852 15.256C46.4772 15.4 46.4692 15.544 46.4612 15.688C46.4612 15.832 46.4572 15.98 46.4492 16.132C46.4412 16.204 46.4412 16.276 46.4492 16.348C46.4572 16.428 46.4412 16.5 46.4012 16.564C46.3692 16.604 46.3532 16.576 46.3532 16.48C46.3612 16.384 46.3652 16.308 46.3652 16.252C46.3572 16.116 46.3492 15.976 46.3412 15.832C46.3412 15.68 46.3332 15.536 46.3172 15.4C46.2612 15.464 46.2132 15.544 46.1732 15.64C46.1332 15.736 46.1012 15.824 46.0772 15.904C46.0292 16.04 45.9812 16.18 45.9332 16.324C45.8852 16.468 45.8332 16.608 45.7772 16.744C45.7532 16.808 45.7292 16.872 45.7052 16.936C45.6812 17.008 45.6492 17.072 45.6092 17.128C45.6012 17.136 45.5852 17.148 45.5612 17.164C45.5452 17.18 45.5292 17.192 45.5132 17.2C45.4572 17.208 45.4092 17.172 45.3692 17.092C45.3292 17.02 45.3012 16.968 45.2852 16.936C45.2772 16.92 45.2652 16.904 45.2492 16.888C45.2412 16.872 45.2372 16.856 45.2372 16.84C45.2292 16.72 45.2212 16.596 45.2132 16.468C45.2132 16.348 45.2052 16.224 45.1892 16.096C45.1572 16.144 45.1212 16.192 45.0812 16.24C45.0492 16.288 45.0132 16.336 44.9732 16.384C44.9572 16.4 44.9492 16.408 44.9492 16.408C44.9412 16.424 44.9292 16.436 44.9132 16.444C44.8972 16.46 44.8812 16.476 44.8652 16.492C44.8572 16.508 44.8412 16.536 44.8172 16.576C44.8012 16.624 44.7852 16.656 44.7692 16.672C44.7532 16.688 44.7372 16.688 44.7212 16.672C44.6972 16.656 44.6772 16.62 44.6612 16.564C44.6532 16.516 44.6412 16.48 44.6252 16.456C44.5932 16.432 44.5652 16.4 44.5412 16.36C44.5172 16.32 44.4972 16.284 44.4812 16.252C44.4652 16.228 44.4492 16.2 44.4332 16.168C44.4252 16.208 44.4172 16.252 44.4092 16.3C44.4092 16.356 44.4012 16.404 44.3852 16.444C44.3852 16.444 44.3692 16.444 44.3372 16.444C44.3132 16.444 44.2892 16.44 44.2652 16.432C44.2412 16.432 44.2172 16.432 44.1932 16.432C44.1372 16.424 44.0972 16.416 44.0732 16.408H44.0012C43.9612 16.432 43.8972 16.432 43.8092 16.408C43.8012 16.4 43.7892 16.392 43.7732 16.384C43.7652 16.376 43.7612 16.376 43.7612 16.384C43.7452 16.528 43.7372 16.668 43.7372 16.804C43.7372 16.948 43.7292 17.088 43.7132 17.224C43.7052 17.256 43.6972 17.24 43.6892 17.176C43.6812 17.12 43.6732 17.076 43.6652 17.044C43.6572 16.916 43.6532 16.788 43.6532 16.66C43.6612 16.532 43.6492 16.404 43.6172 16.276C43.6092 16.228 43.6012 16.232 43.5932 16.288C43.5932 16.344 43.5932 16.412 43.5932 16.492C43.5932 16.572 43.5852 16.632 43.5692 16.672C43.5612 16.704 43.5532 16.688 43.5452 16.624C43.5452 16.568 43.5412 16.524 43.5332 16.492L43.4612 16.12H43.4492C42.6572 16.104 41.9692 15.964 41.3852 15.7C40.8012 15.436 40.3492 15.048 40.0292 14.536C39.9732 14.472 39.9252 14.396 39.8852 14.308C39.8532 14.22 39.8252 14.136 39.8012 14.056L39.7292 13.888V13.876C39.7132 13.828 39.6972 13.78 39.6812 13.732C39.6652 13.684 39.6492 13.636 39.6332 13.588C39.6012 13.468 39.5772 13.312 39.5612 13.12C39.5452 12.928 39.5372 12.74 39.5372 12.556C39.5372 12.364 39.5372 12.208 39.5372 12.088C39.5372 11.928 39.5372 11.768 39.5372 11.608C39.5372 11.44 39.5412 11.28 39.5492 11.128V11.032C39.5492 10.92 39.5492 10.804 39.5492 10.684C39.5572 10.564 39.5732 10.448 39.5972 10.336C39.5972 10.32 39.5972 10.308 39.5972 10.3C39.6052 10.292 39.6092 10.284 39.6092 10.276C39.6812 9.836 39.8252 9.444 40.0412 9.1C40.1132 8.956 40.2092 8.824 40.3292 8.704C41.0492 7.888 42.1292 7.48 43.5692 7.48H43.8212C43.8372 7.48 43.8492 7.484 43.8572 7.492C43.8972 7.492 43.9332 7.492 43.9652 7.492C44.0052 7.492 44.0412 7.496 44.0732 7.504C44.0972 7.496 44.1172 7.496 44.1332 7.504C44.1572 7.504 44.1812 7.504 44.2052 7.504L44.4092 7.54C44.4892 7.548 44.5652 7.56 44.6372 7.576C44.7172 7.592 44.7972 7.608 44.8772 7.624C44.9652 7.632 45.0652 7.656 45.1772 7.696C45.1852 7.696 45.1892 7.7 45.1892 7.708C45.1972 7.708 45.2052 7.708 45.2132 7.708C45.2772 7.716 45.3372 7.732 45.3932 7.756C45.4572 7.772 45.5092 7.796 45.5492 7.828C46.0612 8.036 46.5012 8.348 46.8692 8.764C46.9812 8.876 47.0812 9.028 47.1692 9.22C47.3132 9.492 47.4212 9.776 47.4932 10.072C47.5172 10.128 47.5292 10.196 47.5292 10.276L47.5652 10.504C47.5732 10.592 47.5772 10.68 47.5772 10.768C47.5852 10.856 47.5892 10.944 47.5892 11.032C47.5972 11.152 47.6012 11.3 47.6012 11.476C47.6012 11.652 47.6012 11.828 47.6012 12.004C47.6012 12.18 47.6012 12.328 47.6012 12.448C47.5932 12.6 47.5892 12.756 47.5892 12.916C47.5892 13.068 47.5692 13.216 47.5292 13.36C47.4732 13.728 47.3652 14.064 47.2052 14.368ZM43.0652 13.564C43.1132 13.628 43.1652 13.684 43.2212 13.732C43.3012 13.748 43.3972 13.764 43.5092 13.78H43.6532C43.6772 13.772 43.7012 13.768 43.7252 13.768C43.7572 13.768 43.7852 13.764 43.8092 13.756C43.9612 13.716 44.0852 13.644 44.1812 13.54C44.2212 13.5 44.2572 13.452 44.2892 13.396C44.3212 13.34 44.3452 13.284 44.3612 13.228L44.3972 13.096C44.4292 12.96 44.4452 12.828 44.4452 12.7C44.4532 12.564 44.4612 12.448 44.4692 12.352V11.524C44.4692 11.428 44.4692 11.332 44.4692 11.236C44.4692 11.132 44.4652 11.032 44.4572 10.936C44.4572 10.88 44.4572 10.828 44.4572 10.78C44.4572 10.724 44.4532 10.672 44.4452 10.624C44.4372 10.608 44.4332 10.592 44.4332 10.576C44.4332 10.552 44.4292 10.536 44.4212 10.528C44.4212 10.504 44.4132 10.468 44.3972 10.42C44.3732 10.324 44.3372 10.244 44.2892 10.18C44.2412 10.108 44.1852 10.044 44.1212 9.988L44.1092 9.976C44.0772 9.96 44.0572 9.952 44.0492 9.952C44.0332 9.944 44.0052 9.94 43.9652 9.94C43.9572 9.94 43.9492 9.944 43.9412 9.952C43.9332 9.96 43.9172 9.968 43.8932 9.976C43.8852 9.976 43.8772 9.976 43.8692 9.976C43.8692 9.968 43.8612 9.964 43.8452 9.964C43.8132 9.972 43.7772 9.992 43.7372 10.024C43.6972 10.056 43.6652 10.084 43.6412 10.108C43.6252 10.116 43.6012 10.128 43.5692 10.144C43.5372 10.16 43.5172 10.176 43.5092 10.192C43.4772 10.232 43.4612 10.268 43.4612 10.3C43.4612 10.332 43.4292 10.344 43.3652 10.336C43.3092 10.336 43.2852 10.328 43.2932 10.312C43.3092 10.296 43.2972 10.26 43.2572 10.204C43.2492 10.188 43.2372 10.176 43.2212 10.168C43.2052 10.16 43.1892 10.152 43.1732 10.144C43.1812 10.144 43.1692 10.136 43.1372 10.12C43.1132 10.096 43.0972 10.08 43.0892 10.072C43.0892 10.072 43.0852 10.072 43.0772 10.072C43.0772 10.064 43.0612 10.044 43.0292 10.012C43.0132 9.988 43.0092 9.984 43.0172 10C43.0332 10.008 43.0292 10.008 43.0052 10C43.0052 10 43.0012 10 42.9932 10C42.9932 10 42.9932 10.004 42.9932 10.012C42.9772 10.028 42.9572 10.048 42.9332 10.072C42.9092 10.088 42.8772 10.128 42.8372 10.192C42.7812 10.296 42.7452 10.4 42.7292 10.504C42.7132 10.6 42.6972 10.696 42.6812 10.792C42.6812 10.832 42.6772 10.888 42.6692 10.96C42.6692 11.032 42.6692 11.1 42.6692 11.164V12.088C42.6692 12.152 42.6692 12.216 42.6692 12.28C42.6772 12.336 42.6852 12.396 42.6932 12.46C42.7172 12.628 42.7612 12.824 42.8252 13.048L42.8612 13.144C42.8932 13.224 42.9252 13.3 42.9572 13.372C42.9892 13.436 43.0252 13.5 43.0652 13.564ZM55.8254 9.532C55.8254 9.588 55.8294 9.652 55.8374 9.724C55.8454 9.788 55.8414 9.852 55.8254 9.916C55.8254 9.9 55.8214 9.908 55.8134 9.94C55.8054 9.964 55.8054 9.972 55.8134 9.964C55.8054 9.972 55.8014 9.98 55.8014 9.988C55.8014 9.996 55.7974 10.004 55.7894 10.012L55.7294 10.084L55.6934 10.12C55.6854 10.12 55.6734 10.128 55.6574 10.144C55.6494 10.16 55.6414 10.172 55.6334 10.18C55.6014 10.212 55.5734 10.256 55.5494 10.312C55.5254 10.36 55.4934 10.416 55.4534 10.48C55.4214 10.552 55.3894 10.624 55.3574 10.696C55.3254 10.768 55.2894 10.84 55.2494 10.912C55.1934 11.04 55.1334 11.172 55.0694 11.308C55.0134 11.436 54.9414 11.568 54.8534 11.704C54.7974 11.784 54.7454 11.84 54.6974 11.872C54.6894 11.888 54.6814 11.908 54.6734 11.932C54.6734 11.956 54.6654 11.976 54.6494 11.992C54.6494 11.992 54.6334 11.98 54.6014 11.956C54.5934 11.948 54.5854 11.936 54.5774 11.92C54.5774 11.904 54.5534 11.872 54.5054 11.824L54.4814 11.8C54.4574 11.76 54.4334 11.724 54.4094 11.692C54.3934 11.652 54.3774 11.616 54.3614 11.584L54.3254 11.512L54.3134 11.5L54.2054 11.296C54.1334 11.168 54.0574 11.044 53.9774 10.924C53.9054 10.796 53.8294 10.668 53.7494 10.54C53.7174 10.492 53.6894 10.448 53.6654 10.408L53.5814 10.288C53.5574 10.264 53.5334 10.24 53.5094 10.216V10.276V15.436C53.5174 15.5 53.5174 15.56 53.5094 15.616C53.5094 15.672 53.5094 15.712 53.5094 15.736V15.76C53.5014 15.768 53.4974 15.776 53.4974 15.784C53.4814 15.816 53.4694 15.836 53.4614 15.844C53.4614 15.852 53.4574 15.86 53.4494 15.868C53.4174 15.908 53.3774 15.94 53.3294 15.964C53.3214 15.972 53.3134 15.98 53.3054 15.988C53.2974 15.996 53.2894 16.004 53.2814 16.012C53.2734 16.028 53.2614 16.044 53.2454 16.06C53.2294 16.084 53.2134 16.104 53.1974 16.12C53.1654 16.152 53.1294 16.164 53.0894 16.156C53.0734 16.148 53.0574 16.132 53.0414 16.108C53.0254 16.092 53.0094 16.084 52.9934 16.084C52.9774 16.076 52.9614 16.08 52.9454 16.096C52.9294 16.12 52.9134 16.132 52.8974 16.132C52.8334 16.108 52.8054 16.084 52.8134 16.06C52.8294 16.036 52.8014 16.04 52.7294 16.072C52.7054 16.112 52.6774 16.164 52.6454 16.228C52.6134 16.3 52.5694 16.316 52.5134 16.276C52.4974 16.26 52.4814 16.236 52.4654 16.204C52.4574 16.18 52.4414 16.164 52.4174 16.156L52.4054 16.168C52.4054 16.176 52.4014 16.18 52.3934 16.18C52.3934 16.188 52.3934 16.192 52.3934 16.192L52.3214 16.24L52.2734 16.288C52.2734 16.296 52.2654 16.344 52.2494 16.432C52.2334 16.52 52.2174 16.608 52.2014 16.696C52.1854 16.784 52.1774 16.828 52.1774 16.828C52.1694 16.86 52.1614 16.896 52.1534 16.936C52.1534 16.976 52.1454 17.012 52.1294 17.044C52.1214 17.052 52.1094 17.056 52.0934 17.056C52.0854 17.064 52.0814 17.064 52.0814 17.056C52.0654 16.944 52.0574 16.832 52.0574 16.72C52.0574 16.608 52.0494 16.496 52.0334 16.384C52.0334 16.344 52.0214 16.3 51.9974 16.252C51.9814 16.236 51.9534 16.204 51.9134 16.156C51.8814 16.116 51.8534 16.084 51.8294 16.06H51.7934C51.7534 16.06 51.7254 16.056 51.7094 16.048C51.7014 16.064 51.6894 16.076 51.6734 16.084C51.6574 16.1 51.6494 16.112 51.6494 16.12L51.6374 16.132C51.5974 16.18 51.5574 16.228 51.5174 16.276C51.4854 16.324 51.4494 16.38 51.4094 16.444C51.3934 16.46 51.3814 16.476 51.3734 16.492C51.3654 16.5 51.3574 16.508 51.3494 16.516C51.3414 16.524 51.3294 16.536 51.3134 16.552C51.2974 16.568 51.2814 16.58 51.2654 16.588C51.2574 16.676 51.2534 16.804 51.2534 16.972C51.2534 17.148 51.2494 17.332 51.2414 17.524C51.2414 17.716 51.2374 17.896 51.2294 18.064C51.2294 18.24 51.2254 18.372 51.2174 18.46C51.2174 18.468 51.2094 18.464 51.1934 18.448C51.1774 18.432 51.1694 18.42 51.1694 18.412C51.1214 18.324 51.1014 18.196 51.1094 18.028C51.1254 17.868 51.1454 17.688 51.1694 17.488C51.1934 17.296 51.2014 17.112 51.1934 16.936C51.1934 16.768 51.1574 16.632 51.0854 16.528C51.0854 16.512 51.0774 16.5 51.0614 16.492C51.0534 16.484 51.0494 16.48 51.0494 16.48C51.0174 16.416 50.9854 16.356 50.9534 16.3C50.9214 16.244 50.8894 16.188 50.8574 16.132C50.8574 16.124 50.8534 16.116 50.8454 16.108C50.8454 16.108 50.8454 16.104 50.8454 16.096C50.8374 16.088 50.8254 16.068 50.8094 16.036C50.7854 16.012 50.7574 16 50.7254 16C50.7174 16 50.7094 16 50.7014 16C50.7014 15.992 50.6934 15.988 50.6774 15.988C50.6134 15.964 50.5614 15.924 50.5214 15.868C50.5054 15.852 50.4894 15.82 50.4734 15.772C50.4574 15.708 50.4494 15.648 50.4494 15.592C50.4494 15.552 50.4494 15.52 50.4494 15.496C50.4574 15.464 50.4614 15.432 50.4614 15.4V10.276L50.4134 10.18C50.4134 10.18 50.4054 10.196 50.3894 10.228C50.3814 10.236 50.3774 10.248 50.3774 10.264C50.3694 10.296 50.3614 10.328 50.3534 10.36C50.3454 10.392 50.3334 10.42 50.3174 10.444L50.2454 10.588C50.2294 10.62 50.2094 10.652 50.1854 10.684C50.1614 10.716 50.1334 10.748 50.1014 10.78C50.0854 10.796 50.0774 10.804 50.0774 10.804C50.0614 10.812 50.0454 10.824 50.0294 10.84C50.0054 10.872 49.9934 10.892 49.9934 10.9C49.9934 10.908 49.9614 10.94 49.8974 10.996C49.8654 10.996 49.8494 10.996 49.8494 10.996C49.8334 11.028 49.8294 11.068 49.8374 11.116C49.8454 11.164 49.8294 11.196 49.7894 11.212C49.7654 11.22 49.7534 11.204 49.7534 11.164C49.7534 11.116 49.7494 11.08 49.7414 11.056L49.7054 10.888C49.6814 10.872 49.6574 10.852 49.6334 10.828C49.6094 10.796 49.5894 10.772 49.5734 10.756C49.5814 10.764 49.5734 10.76 49.5494 10.744C49.5254 10.72 49.5094 10.704 49.5014 10.696L49.4774 10.672C49.4614 10.68 49.4494 10.696 49.4414 10.72C49.4334 10.744 49.4254 10.764 49.4174 10.78C49.4094 10.82 49.3974 10.856 49.3814 10.888C49.3734 10.92 49.3694 10.948 49.3694 10.972C49.3694 10.9 49.3534 10.812 49.3214 10.708C49.3214 10.716 49.3174 10.72 49.3094 10.72C49.3094 10.72 49.3094 10.724 49.3094 10.732C49.3014 10.732 49.2974 10.736 49.2974 10.744C49.2894 10.752 49.2814 10.76 49.2734 10.768C49.2654 10.776 49.2494 10.8 49.2254 10.84C49.2094 10.872 49.1934 10.896 49.1774 10.912C49.1774 10.912 49.1734 10.916 49.1654 10.924C49.1654 10.924 49.1614 10.924 49.1534 10.924C49.1534 10.924 49.1494 10.928 49.1414 10.936C49.1414 10.936 49.1374 10.936 49.1294 10.936C49.1214 11.016 49.1174 11.092 49.1174 11.164C49.1254 11.236 49.1334 11.312 49.1414 11.392C49.1254 11.288 49.0894 11.24 49.0334 11.248C48.9854 11.264 48.9574 11.288 48.9494 11.32C48.9494 11.248 48.9494 11.176 48.9494 11.104C48.9574 11.024 48.9574 10.948 48.9494 10.876C48.9254 10.86 48.9014 10.84 48.8774 10.816C48.8534 10.784 48.8294 10.756 48.8054 10.732L48.7094 10.636C48.6454 10.564 48.6134 10.528 48.6134 10.528C48.6134 10.528 48.6054 10.52 48.5894 10.504C48.5734 10.488 48.5054 10.416 48.3854 10.288C48.3854 10.304 48.3774 10.312 48.3614 10.312C48.3534 10.312 48.3454 10.3 48.3374 10.276C48.3374 10.252 48.3334 10.232 48.3254 10.216C48.3334 10.224 48.3254 10.212 48.3014 10.18C48.2854 10.14 48.2734 10.116 48.2654 10.108C48.1854 10.044 48.1454 9.96 48.1454 9.856V8.308C48.1454 8.268 48.1414 8.2 48.1334 8.104C48.1334 8 48.1414 7.912 48.1574 7.84C48.1654 7.824 48.1694 7.812 48.1694 7.804C48.1694 7.788 48.1734 7.776 48.1814 7.768C48.2054 7.72 48.2374 7.684 48.2774 7.66C48.2854 7.66 48.2894 7.66 48.2894 7.66C48.2894 7.652 48.2934 7.648 48.3014 7.648L48.3134 7.636C48.3614 7.612 48.4054 7.6 48.4454 7.6C48.5094 7.592 48.5694 7.592 48.6254 7.6C48.6894 7.6 48.7494 7.6 48.8054 7.6H55.0694C55.1574 7.6 55.2494 7.596 55.3454 7.588C55.4414 7.58 55.5294 7.588 55.6094 7.612C55.6334 7.62 55.6534 7.632 55.6694 7.648C55.6934 7.656 55.7094 7.668 55.7174 7.684C55.7734 7.724 55.8054 7.768 55.8134 7.816C55.8214 7.864 55.8254 7.916 55.8254 7.972C55.8334 8.1 55.8334 8.236 55.8254 8.38C55.8254 8.516 55.8254 8.652 55.8254 8.788V9.532ZM48.9854 12.04C49.0014 12.112 48.9974 12.104 48.9734 12.016C48.9494 11.928 48.9294 11.812 48.9134 11.668C48.9054 11.516 48.9174 11.4 48.9494 11.32C48.9414 11.448 48.9374 11.572 48.9374 11.692C48.9454 11.812 48.9614 11.928 48.9854 12.04ZM49.0814 12.028C49.0654 12.076 49.0614 12.076 49.0694 12.028C49.0854 11.972 49.1014 11.892 49.1174 11.788C49.1334 11.684 49.1414 11.588 49.1414 11.5C49.1414 11.588 49.1374 11.676 49.1294 11.764C49.1294 11.852 49.1134 11.94 49.0814 12.028ZM63.7433 14.68C63.6873 14.76 63.6313 14.832 63.5753 14.896C63.5193 14.952 63.4713 15 63.4313 15.04L63.3473 15.124C63.3313 15.132 63.3113 15.144 63.2873 15.16C63.2713 15.176 63.2553 15.192 63.2393 15.208C63.2233 15.24 63.2073 15.272 63.1913 15.304C63.1833 15.328 63.1713 15.356 63.1553 15.388C63.1153 15.484 63.0633 15.568 62.9993 15.64C62.9913 15.648 62.9833 15.66 62.9753 15.676C62.9753 15.692 62.9713 15.696 62.9633 15.688C62.9553 15.68 62.9513 15.668 62.9513 15.652L62.8793 15.76C62.8713 15.776 62.8593 15.792 62.8433 15.808C62.8433 15.808 62.8393 15.812 62.8313 15.82C62.8313 15.82 62.8273 15.82 62.8193 15.82C62.8113 15.82 62.8073 15.824 62.8073 15.832C62.8073 15.832 62.8033 15.832 62.7953 15.832C62.7873 15.92 62.7833 16.056 62.7833 16.24C62.7833 16.424 62.7793 16.624 62.7713 16.84C62.7713 17.056 62.7673 17.256 62.7593 17.44C62.7593 17.624 62.7553 17.76 62.7473 17.848C62.7473 17.856 62.7393 17.864 62.7233 17.872C62.7073 17.88 62.6993 17.88 62.6993 17.872C62.6913 17.784 62.6833 17.644 62.6753 17.452C62.6753 17.26 62.6753 17.052 62.6753 16.828C62.6753 16.612 62.6713 16.408 62.6633 16.216C62.6633 16.032 62.6593 15.892 62.6513 15.796C62.6353 15.78 62.6193 15.768 62.6033 15.76C62.6033 15.76 62.5953 15.752 62.5793 15.736C62.5793 15.736 62.5753 15.736 62.5673 15.736C62.5673 15.728 62.5673 15.72 62.5673 15.712C62.5593 15.712 62.5553 15.712 62.5553 15.712C62.5553 15.704 62.5513 15.7 62.5433 15.7L62.5313 15.712C62.5233 15.736 62.5193 15.76 62.5193 15.784C62.5193 15.808 62.5113 15.84 62.4953 15.88C62.4873 15.912 62.4713 15.94 62.4473 15.964C62.4313 15.988 62.4113 16.016 62.3873 16.048C62.3873 16.056 62.3793 16.076 62.3633 16.108C62.3473 16.124 62.3353 16.132 62.3273 16.132C62.3193 16.132 62.3153 16.132 62.3153 16.132C62.3153 16.14 62.3153 16.144 62.3153 16.144C62.2433 16.272 62.1833 16.416 62.1353 16.576L62.0513 16.852C62.0433 16.876 62.0313 16.908 62.0153 16.948C62.0073 16.996 62.0033 17.008 62.0033 16.984C61.9873 16.856 61.9793 16.728 61.9793 16.6C61.9873 16.472 61.9833 16.344 61.9673 16.216C61.9673 16.224 61.9633 16.228 61.9553 16.228C61.9553 16.228 61.9553 16.232 61.9553 16.24C61.9393 16.296 61.9193 16.348 61.8953 16.396C61.8713 16.452 61.8473 16.508 61.8233 16.564C61.7833 16.652 61.7353 16.74 61.6793 16.828C61.6233 16.916 61.5593 16.996 61.4873 17.068C61.4793 17.076 61.4633 17.088 61.4393 17.104C61.4233 17.128 61.4033 17.148 61.3793 17.164C61.3473 17.196 61.3153 17.228 61.2833 17.26C61.2593 17.3 61.2153 17.312 61.1513 17.296C61.1033 17.272 61.0593 17.24 61.0193 17.2C60.9873 17.176 60.9513 17.144 60.9113 17.104C60.8793 17.064 60.8473 17.028 60.8153 16.996C60.7513 16.916 60.6913 16.828 60.6353 16.732C60.5873 16.644 60.5353 16.552 60.4793 16.456C60.4633 16.424 60.4433 16.384 60.4193 16.336C60.3953 16.296 60.3713 16.26 60.3473 16.228L60.3113 16.192C60.3113 16.184 60.3033 16.18 60.2873 16.18C60.2873 16.18 60.2713 16.168 60.2393 16.144C60.2233 16.152 60.2153 16.168 60.2153 16.192C60.2153 16.224 60.2073 16.248 60.1913 16.264C60.1753 16.296 60.1633 16.312 60.1553 16.312C60.1473 16.304 60.1393 16.292 60.1313 16.276C60.1313 16.26 60.1273 16.248 60.1193 16.24L60.0833 16.12H60.0713C59.2073 16.104 58.4913 15.972 57.9233 15.724C57.3633 15.468 56.9433 15.152 56.6633 14.776C56.6073 14.704 56.5593 14.632 56.5193 14.56C56.4793 14.496 56.4473 14.432 56.4233 14.368L56.3753 14.248C56.3513 14.184 56.3313 14.12 56.3153 14.056C56.2993 13.984 56.2833 13.916 56.2673 13.852C56.2593 13.788 56.2473 13.724 56.2313 13.66C56.2233 13.588 56.2353 13.52 56.2673 13.456C56.2673 13.448 56.2673 13.444 56.2673 13.444C56.2753 13.436 56.2793 13.432 56.2793 13.432C56.2953 13.4 56.3273 13.368 56.3753 13.336C56.4073 13.32 56.4393 13.312 56.4713 13.312C56.5033 13.304 56.5313 13.3 56.5553 13.3C56.6673 13.292 56.7793 13.292 56.8913 13.3C57.0033 13.3 57.1113 13.3 57.2153 13.3H58.3553C58.3953 13.3 58.4473 13.3 58.5113 13.3C58.5833 13.292 58.6473 13.288 58.7033 13.288C58.7513 13.288 58.7953 13.292 58.8353 13.3C58.8833 13.3 58.9233 13.304 58.9553 13.312C59.0193 13.32 59.0713 13.34 59.1113 13.372C59.1593 13.396 59.2073 13.428 59.2553 13.468L59.4353 13.588C59.4913 13.62 59.5473 13.648 59.6033 13.672C59.6593 13.696 59.7153 13.716 59.7713 13.732C59.8753 13.764 60.0153 13.78 60.1913 13.78C60.2873 13.78 60.3793 13.776 60.4673 13.768C60.5553 13.76 60.6353 13.748 60.7073 13.732L60.8273 13.696C60.8433 13.688 60.8553 13.684 60.8633 13.684C60.8793 13.684 60.8913 13.68 60.8993 13.672C61.0273 13.608 61.0913 13.532 61.0913 13.444V13.432C61.0913 13.384 61.0713 13.332 61.0313 13.276L60.9593 13.204H60.9473C60.9153 13.188 60.8713 13.188 60.8153 13.204C60.7593 13.212 60.7113 13.22 60.6713 13.228C60.6393 13.228 60.6033 13.232 60.5633 13.24C60.5313 13.24 60.4953 13.24 60.4553 13.24C60.4393 13.24 60.4233 13.236 60.4073 13.228C60.3913 13.22 60.3753 13.216 60.3593 13.216C60.3353 13.224 60.3113 13.232 60.2873 13.24C60.2713 13.248 60.2553 13.256 60.2393 13.264C60.1993 13.28 60.1553 13.296 60.1073 13.312C60.0593 13.328 60.0113 13.348 59.9633 13.372C59.8913 13.404 59.8153 13.432 59.7353 13.456C59.6633 13.472 59.5873 13.464 59.5073 13.432C59.4593 13.416 59.4153 13.396 59.3753 13.372C59.3353 13.348 59.2953 13.324 59.2553 13.3C59.1753 13.26 59.0993 13.216 59.0273 13.168C58.9633 13.12 58.8993 13.068 58.8353 13.012L58.5593 12.736L58.4633 12.664H58.3793C58.3713 12.672 58.3593 12.684 58.3433 12.7C58.3353 12.708 58.3233 12.72 58.3073 12.736C58.2753 12.768 58.2393 12.804 58.1993 12.844C58.1593 12.884 58.1193 12.92 58.0793 12.952C58.0633 12.96 58.0393 12.972 58.0073 12.988C57.9833 13.004 57.9593 13.008 57.9353 13C57.9033 12.984 57.8753 12.96 57.8513 12.928C57.8273 12.896 57.8073 12.864 57.7913 12.832C57.7673 12.768 57.7473 12.7 57.7313 12.628C57.7233 12.556 57.7033 12.492 57.6713 12.436C57.6393 12.412 57.6033 12.384 57.5633 12.352C57.5313 12.32 57.4993 12.288 57.4673 12.256C57.4593 12.248 57.4513 12.24 57.4433 12.232C57.4433 12.224 57.4353 12.216 57.4193 12.208C57.3633 12.152 57.3313 12.124 57.3233 12.124C57.3233 12.124 57.3073 12.116 57.2753 12.1C57.2593 12.084 57.2513 12.068 57.2513 12.052C57.1793 11.988 57.1113 11.92 57.0473 11.848C57.0233 11.816 56.9953 11.788 56.9633 11.764C56.9393 11.732 56.9193 11.7 56.9033 11.668C56.8713 11.636 56.8433 11.6 56.8193 11.56C56.7953 11.52 56.7713 11.484 56.7473 11.452C56.7313 11.42 56.7153 11.392 56.6993 11.368C56.6833 11.336 56.6673 11.304 56.6513 11.272C56.5793 11.152 56.5233 10.984 56.4833 10.768C56.4513 10.552 56.4393 10.34 56.4473 10.132C56.4553 9.916 56.4793 9.748 56.5193 9.628C56.5353 9.58 56.5513 9.532 56.5673 9.484C56.5833 9.436 56.5993 9.388 56.6153 9.34C56.6313 9.292 56.6473 9.256 56.6633 9.232C56.6793 9.184 56.6953 9.148 56.7113 9.124C56.9673 8.628 57.3793 8.236 57.9473 7.948C58.5153 7.652 59.2033 7.496 60.0113 7.48H60.1073C60.7713 7.48 61.3473 7.576 61.8353 7.768C62.3313 7.952 62.7393 8.192 63.0593 8.488C63.3793 8.776 63.6073 9.076 63.7433 9.388C63.7593 9.436 63.7753 9.484 63.7913 9.532C63.8153 9.58 63.8313 9.628 63.8393 9.676C63.8553 9.724 63.8673 9.776 63.8753 9.832C63.8913 9.888 63.8913 9.944 63.8753 10C63.8593 10.072 63.8273 10.128 63.7793 10.168C63.7473 10.2 63.7193 10.22 63.6953 10.228C63.6953 10.228 63.6873 10.236 63.6713 10.252C63.6633 10.252 63.6553 10.248 63.6473 10.24C63.6393 10.248 63.6313 10.252 63.6233 10.252C63.6153 10.244 63.6033 10.244 63.5873 10.252C63.5713 10.252 63.5513 10.26 63.5273 10.276C63.5113 10.284 63.4953 10.292 63.4793 10.3C63.4233 10.324 63.3673 10.352 63.3113 10.384C63.2633 10.416 63.2073 10.436 63.1433 10.444C63.0793 10.444 63.0153 10.436 62.9513 10.42C62.8873 10.396 62.8233 10.384 62.7593 10.384C62.7113 10.384 62.6633 10.396 62.6153 10.42C62.5673 10.436 62.5193 10.44 62.4713 10.432C62.4393 10.424 62.4073 10.412 62.3753 10.396C62.3433 10.372 62.3113 10.352 62.2793 10.336C62.2553 10.328 62.2313 10.32 62.2073 10.312C62.1833 10.304 62.1593 10.3 62.1353 10.3L62.0393 10.324C61.9593 10.34 61.8793 10.356 61.7993 10.372C61.7193 10.388 61.6353 10.4 61.5473 10.408C61.5153 10.416 61.4833 10.428 61.4513 10.444C61.4273 10.46 61.3993 10.472 61.3673 10.48C61.3193 10.496 61.2673 10.508 61.2113 10.516C61.1633 10.524 61.1113 10.52 61.0553 10.504C60.9833 10.472 60.9233 10.424 60.8753 10.36C60.8353 10.288 60.7913 10.224 60.7433 10.168C60.7273 10.144 60.7073 10.12 60.6833 10.096C60.6593 10.072 60.6353 10.048 60.6113 10.024C60.6033 10.032 60.5913 10.036 60.5753 10.036C60.4393 10.076 60.3153 10.06 60.2033 9.988C60.1793 9.972 60.1553 9.956 60.1313 9.94C60.1073 9.916 60.0793 9.9 60.0473 9.892C60.0473 9.884 60.0313 9.872 59.9993 9.856C59.9673 9.864 59.9353 9.876 59.9033 9.892C59.8713 9.9 59.8393 9.912 59.8073 9.928C59.7993 9.928 59.7873 9.932 59.7713 9.94C59.7633 9.94 59.7513 9.94 59.7353 9.94H59.6633C59.6313 9.94 59.6113 9.944 59.6033 9.952C59.6033 9.96 59.5953 9.972 59.5793 9.988C59.5793 9.996 59.5753 10 59.5673 10C59.5673 10 59.5673 10.004 59.5673 10.012C59.5513 10.044 59.5433 10.068 59.5433 10.084C59.5353 10.1 59.5313 10.124 59.5313 10.156C59.5313 10.268 59.5953 10.352 59.7233 10.408C59.7393 10.424 59.7713 10.44 59.8193 10.456C59.8913 10.488 59.9673 10.512 60.0473 10.528C60.1993 10.568 60.3713 10.604 60.5633 10.636L60.8633 10.672C60.8793 10.672 60.8953 10.676 60.9113 10.684C60.9353 10.684 60.9513 10.684 60.9593 10.684L61.1873 10.72H61.2593C61.2673 10.728 61.2753 10.732 61.2833 10.732C61.3073 10.732 61.3313 10.736 61.3553 10.744C61.3873 10.744 61.4193 10.748 61.4513 10.756C62.6993 10.98 63.5073 11.404 63.8753 12.028C63.8833 12.028 63.8873 12.032 63.8873 12.04C63.9353 12.096 63.9713 12.172 63.9953 12.268C64.0033 12.284 64.0113 12.304 64.0193 12.328C64.0273 12.344 64.0353 12.36 64.0433 12.376L64.1153 12.592C64.1153 12.6 64.1153 12.612 64.1153 12.628C64.1233 12.636 64.1273 12.644 64.1273 12.652C64.1513 12.724 64.1633 12.796 64.1633 12.868C64.1713 12.916 64.1753 12.964 64.1753 13.012C64.1753 13.052 64.1753 13.092 64.1753 13.132V13.288C64.1753 13.576 64.1273 13.852 64.0313 14.116C63.9753 14.316 63.9073 14.468 63.8273 14.572L63.7433 14.68ZM72.1965 9.532C72.1965 9.588 72.2005 9.652 72.2085 9.724C72.2165 9.788 72.2125 9.852 72.1965 9.916C72.1965 9.9 72.1925 9.908 72.1845 9.94C72.1765 9.964 72.1765 9.972 72.1845 9.964C72.1765 9.972 72.1725 9.98 72.1725 9.988C72.1725 9.996 72.1685 10.004 72.1605 10.012L72.1005 10.084L72.0645 10.12C72.0565 10.12 72.0445 10.128 72.0285 10.144C72.0205 10.16 72.0125 10.172 72.0045 10.18C71.9725 10.212 71.9445 10.256 71.9205 10.312C71.8965 10.36 71.8645 10.416 71.8245 10.48C71.7925 10.552 71.7605 10.624 71.7285 10.696C71.6965 10.768 71.6605 10.84 71.6205 10.912C71.5645 11.04 71.5045 11.172 71.4405 11.308C71.3845 11.436 71.3125 11.568 71.2245 11.704C71.1685 11.784 71.1165 11.84 71.0685 11.872C71.0605 11.888 71.0525 11.908 71.0445 11.932C71.0445 11.956 71.0365 11.976 71.0205 11.992C71.0205 11.992 71.0045 11.98 70.9725 11.956C70.9645 11.948 70.9565 11.936 70.9485 11.92C70.9485 11.904 70.9245 11.872 70.8765 11.824L70.8525 11.8C70.8285 11.76 70.8045 11.724 70.7805 11.692C70.7645 11.652 70.7485 11.616 70.7325 11.584L70.6965 11.512L70.6845 11.5L70.5765 11.296C70.5045 11.168 70.4285 11.044 70.3485 10.924C70.2765 10.796 70.2005 10.668 70.1205 10.54C70.0885 10.492 70.0605 10.448 70.0365 10.408L69.9525 10.288C69.9285 10.264 69.9045 10.24 69.8805 10.216V10.276V15.436C69.8885 15.5 69.8885 15.56 69.8805 15.616C69.8805 15.672 69.8805 15.712 69.8805 15.736V15.76C69.8725 15.768 69.8685 15.776 69.8685 15.784C69.8525 15.816 69.8405 15.836 69.8325 15.844C69.8325 15.852 69.8285 15.86 69.8205 15.868C69.7885 15.908 69.7485 15.94 69.7005 15.964C69.6925 15.972 69.6845 15.98 69.6765 15.988C69.6685 15.996 69.6605 16.004 69.6525 16.012C69.6445 16.028 69.6325 16.044 69.6165 16.06C69.6005 16.084 69.5845 16.104 69.5685 16.12C69.5365 16.152 69.5005 16.164 69.4605 16.156C69.4445 16.148 69.4285 16.132 69.4125 16.108C69.3965 16.092 69.3805 16.084 69.3645 16.084C69.3485 16.076 69.3325 16.08 69.3165 16.096C69.3005 16.12 69.2845 16.132 69.2685 16.132C69.2045 16.108 69.1765 16.084 69.1845 16.06C69.2005 16.036 69.1725 16.04 69.1005 16.072C69.0765 16.112 69.0485 16.164 69.0165 16.228C68.9845 16.3 68.9405 16.316 68.8845 16.276C68.8685 16.26 68.8525 16.236 68.8365 16.204C68.8285 16.18 68.8125 16.164 68.7885 16.156L68.7765 16.168C68.7765 16.176 68.7725 16.18 68.7645 16.18C68.7645 16.188 68.7645 16.192 68.7645 16.192L68.6925 16.24L68.6445 16.288C68.6445 16.296 68.6365 16.344 68.6205 16.432C68.6045 16.52 68.5885 16.608 68.5725 16.696C68.5565 16.784 68.5485 16.828 68.5485 16.828C68.5405 16.86 68.5325 16.896 68.5245 16.936C68.5245 16.976 68.5165 17.012 68.5005 17.044C68.4925 17.052 68.4805 17.056 68.4645 17.056C68.4565 17.064 68.4525 17.064 68.4525 17.056C68.4365 16.944 68.4285 16.832 68.4285 16.72C68.4285 16.608 68.4205 16.496 68.4045 16.384C68.4045 16.344 68.3925 16.3 68.3685 16.252C68.3525 16.236 68.3245 16.204 68.2845 16.156C68.2525 16.116 68.2245 16.084 68.2005 16.06H68.1645C68.1245 16.06 68.0965 16.056 68.0805 16.048C68.0725 16.064 68.0605 16.076 68.0445 16.084C68.0285 16.1 68.0205 16.112 68.0205 16.12L68.0085 16.132C67.9685 16.18 67.9285 16.228 67.8885 16.276C67.8565 16.324 67.8205 16.38 67.7805 16.444C67.7645 16.46 67.7525 16.476 67.7445 16.492C67.7365 16.5 67.7285 16.508 67.7205 16.516C67.7125 16.524 67.7005 16.536 67.6845 16.552C67.6685 16.568 67.6525 16.58 67.6365 16.588C67.6285 16.676 67.6245 16.804 67.6245 16.972C67.6245 17.148 67.6205 17.332 67.6125 17.524C67.6125 17.716 67.6085 17.896 67.6005 18.064C67.6005 18.24 67.5965 18.372 67.5885 18.46C67.5885 18.468 67.5805 18.464 67.5645 18.448C67.5485 18.432 67.5405 18.42 67.5405 18.412C67.4925 18.324 67.4725 18.196 67.4805 18.028C67.4965 17.868 67.5165 17.688 67.5405 17.488C67.5645 17.296 67.5725 17.112 67.5645 16.936C67.5645 16.768 67.5285 16.632 67.4565 16.528C67.4565 16.512 67.4485 16.5 67.4325 16.492C67.4245 16.484 67.4205 16.48 67.4205 16.48C67.3885 16.416 67.3565 16.356 67.3245 16.3C67.2925 16.244 67.2605 16.188 67.2285 16.132C67.2285 16.124 67.2245 16.116 67.2165 16.108C67.2165 16.108 67.2165 16.104 67.2165 16.096C67.2085 16.088 67.1965 16.068 67.1805 16.036C67.1565 16.012 67.1285 16 67.0965 16C67.0885 16 67.0805 16 67.0725 16C67.0725 15.992 67.0645 15.988 67.0485 15.988C66.9845 15.964 66.9325 15.924 66.8925 15.868C66.8765 15.852 66.8605 15.82 66.8445 15.772C66.8285 15.708 66.8205 15.648 66.8205 15.592C66.8205 15.552 66.8205 15.52 66.8205 15.496C66.8285 15.464 66.8325 15.432 66.8325 15.4V10.276L66.7845 10.18C66.7845 10.18 66.7765 10.196 66.7605 10.228C66.7525 10.236 66.7485 10.248 66.7485 10.264C66.7405 10.296 66.7325 10.328 66.7245 10.36C66.7165 10.392 66.7045 10.42 66.6885 10.444L66.6165 10.588C66.6005 10.62 66.5805 10.652 66.5565 10.684C66.5325 10.716 66.5045 10.748 66.4725 10.78C66.4565 10.796 66.4485 10.804 66.4485 10.804C66.4325 10.812 66.4165 10.824 66.4005 10.84C66.3765 10.872 66.3645 10.892 66.3645 10.9C66.3645 10.908 66.3325 10.94 66.2685 10.996C66.2365 10.996 66.2205 10.996 66.2205 10.996C66.2045 11.028 66.2005 11.068 66.2085 11.116C66.2165 11.164 66.2005 11.196 66.1605 11.212C66.1365 11.22 66.1245 11.204 66.1245 11.164C66.1245 11.116 66.1205 11.08 66.1125 11.056L66.0765 10.888C66.0525 10.872 66.0285 10.852 66.0045 10.828C65.9805 10.796 65.9605 10.772 65.9445 10.756C65.9525 10.764 65.9445 10.76 65.9205 10.744C65.8965 10.72 65.8805 10.704 65.8725 10.696L65.8485 10.672C65.8325 10.68 65.8205 10.696 65.8125 10.72C65.8045 10.744 65.7965 10.764 65.7885 10.78C65.7805 10.82 65.7685 10.856 65.7525 10.888C65.7445 10.92 65.7405 10.948 65.7405 10.972C65.7405 10.9 65.7245 10.812 65.6925 10.708C65.6925 10.716 65.6885 10.72 65.6805 10.72C65.6805 10.72 65.6805 10.724 65.6805 10.732C65.6725 10.732 65.6685 10.736 65.6685 10.744C65.6605 10.752 65.6525 10.76 65.6445 10.768C65.6365 10.776 65.6205 10.8 65.5965 10.84C65.5805 10.872 65.5645 10.896 65.5485 10.912C65.5485 10.912 65.5445 10.916 65.5365 10.924C65.5365 10.924 65.5325 10.924 65.5245 10.924C65.5245 10.924 65.5205 10.928 65.5125 10.936C65.5125 10.936 65.5085 10.936 65.5005 10.936C65.4925 11.016 65.4885 11.092 65.4885 11.164C65.4965 11.236 65.5045 11.312 65.5125 11.392C65.4965 11.288 65.4605 11.24 65.4045 11.248C65.3565 11.264 65.3285 11.288 65.3205 11.32C65.3205 11.248 65.3205 11.176 65.3205 11.104C65.3285 11.024 65.3285 10.948 65.3205 10.876C65.2965 10.86 65.2725 10.84 65.2485 10.816C65.2245 10.784 65.2005 10.756 65.1765 10.732L65.0805 10.636C65.0165 10.564 64.9845 10.528 64.9845 10.528C64.9845 10.528 64.9765 10.52 64.9605 10.504C64.9445 10.488 64.8765 10.416 64.7565 10.288C64.7565 10.304 64.7485 10.312 64.7325 10.312C64.7245 10.312 64.7165 10.3 64.7085 10.276C64.7085 10.252 64.7045 10.232 64.6965 10.216C64.7045 10.224 64.6965 10.212 64.6725 10.18C64.6565 10.14 64.6445 10.116 64.6365 10.108C64.5565 10.044 64.5165 9.96 64.5165 9.856V8.308C64.5165 8.268 64.5125 8.2 64.5045 8.104C64.5045 8 64.5125 7.912 64.5285 7.84C64.5365 7.824 64.5405 7.812 64.5405 7.804C64.5405 7.788 64.5445 7.776 64.5525 7.768C64.5765 7.72 64.6085 7.684 64.6485 7.66C64.6565 7.66 64.6605 7.66 64.6605 7.66C64.6605 7.652 64.6645 7.648 64.6725 7.648L64.6845 7.636C64.7325 7.612 64.7765 7.6 64.8165 7.6C64.8805 7.592 64.9405 7.592 64.9965 7.6C65.0605 7.6 65.1205 7.6 65.1765 7.6H71.4405C71.5285 7.6 71.6205 7.596 71.7165 7.588C71.8125 7.58 71.9005 7.588 71.9805 7.612C72.0045 7.62 72.0245 7.632 72.0405 7.648C72.0645 7.656 72.0805 7.668 72.0885 7.684C72.1445 7.724 72.1765 7.768 72.1845 7.816C72.1925 7.864 72.1965 7.916 72.1965 7.972C72.2045 8.1 72.2045 8.236 72.1965 8.38C72.1965 8.516 72.1965 8.652 72.1965 8.788V9.532ZM65.3565 12.04C65.3725 12.112 65.3685 12.104 65.3445 12.016C65.3205 11.928 65.3005 11.812 65.2845 11.668C65.2765 11.516 65.2885 11.4 65.3205 11.32C65.3125 11.448 65.3085 11.572 65.3085 11.692C65.3165 11.812 65.3325 11.928 65.3565 12.04ZM65.4525 12.028C65.4365 12.076 65.4325 12.076 65.4405 12.028C65.4565 11.972 65.4725 11.892 65.4885 11.788C65.5045 11.684 65.5125 11.588 65.5125 11.5C65.5125 11.588 65.5085 11.676 65.5005 11.764C65.5005 11.852 65.4845 11.94 65.4525 12.028ZM80.8224 15.736C80.8224 15.76 80.8144 15.796 80.7984 15.844C80.7904 15.868 80.7744 15.892 80.7504 15.916C80.7344 15.932 80.7184 15.948 80.7024 15.964C80.6864 15.996 80.6704 16.028 80.6544 16.06C80.6384 16.1 80.6224 16.14 80.6064 16.18L80.4144 16.516C80.3824 16.572 80.3504 16.628 80.3184 16.684C80.2944 16.74 80.2624 16.792 80.2224 16.84C80.2144 16.856 80.1984 16.876 80.1744 16.9C80.1504 16.924 80.1384 16.936 80.1384 16.936C80.1224 16.808 80.1144 16.68 80.1144 16.552C80.1144 16.432 80.1064 16.312 80.0904 16.192C80.0824 16.184 80.0744 16.18 80.0664 16.18C80.0584 16.188 80.0504 16.192 80.0424 16.192C80.0504 16.192 80.0344 16.204 79.9944 16.228C79.9544 16.26 79.9264 16.28 79.9104 16.288C79.9024 16.296 79.8944 16.308 79.8864 16.324C79.8784 16.348 79.8664 16.36 79.8504 16.36C79.8424 16.368 79.8344 16.364 79.8264 16.348C79.8184 16.332 79.8104 16.32 79.8024 16.312C79.7784 16.272 79.7504 16.236 79.7184 16.204C79.6944 16.172 79.6744 16.14 79.6584 16.108C79.6424 16.164 79.6344 16.224 79.6344 16.288C79.6424 16.352 79.6344 16.416 79.6104 16.48C79.6024 16.496 79.5944 16.488 79.5864 16.456C79.5784 16.424 79.5704 16.4 79.5624 16.384L79.5384 16.144C79.5304 16.152 79.5224 16.16 79.5144 16.168C79.5144 16.176 79.5104 16.188 79.5024 16.204C79.4864 16.228 79.4624 16.256 79.4304 16.288C79.4384 16.288 79.4304 16.292 79.4064 16.3C79.3824 16.308 79.3704 16.312 79.3704 16.312C79.3624 16.392 79.3544 16.472 79.3464 16.552C79.3464 16.64 79.3384 16.728 79.3224 16.816C79.3224 16.84 79.3184 16.868 79.3104 16.9C79.3024 16.94 79.2904 16.956 79.2744 16.948C79.2504 16.924 79.2384 16.892 79.2384 16.852C79.2384 16.812 79.2344 16.776 79.2264 16.744C79.2184 16.696 79.2104 16.648 79.2024 16.6C79.2024 16.552 79.1944 16.504 79.1784 16.456C79.1784 16.408 79.1664 16.372 79.1424 16.348C79.1264 16.356 79.1064 16.372 79.0824 16.396C79.0664 16.42 79.0504 16.444 79.0344 16.468C79.0184 16.5 78.9984 16.528 78.9744 16.552C78.9584 16.584 78.9344 16.612 78.9024 16.636C78.8944 16.644 78.8824 16.648 78.8664 16.648C78.8664 16.656 78.8624 16.66 78.8544 16.66C78.8464 16.788 78.8384 16.916 78.8304 17.044C78.8304 17.172 78.8224 17.304 78.8064 17.44C78.7984 17.504 78.7984 17.576 78.8064 17.656C78.8224 17.736 78.8024 17.796 78.7464 17.836C78.7144 17.868 78.6984 17.836 78.6984 17.74C78.7064 17.652 78.7064 17.584 78.6984 17.536C78.6904 17.376 78.6864 17.22 78.6864 17.068C78.6864 16.916 78.6784 16.764 78.6624 16.612C78.6544 16.604 78.6424 16.592 78.6264 16.576C78.6184 16.56 78.6064 16.548 78.5904 16.54C78.5744 16.516 78.5504 16.488 78.5184 16.456C78.4944 16.432 78.4704 16.404 78.4464 16.372C78.4224 16.348 78.3944 16.324 78.3624 16.3C78.3384 16.268 78.3064 16.248 78.2664 16.24C78.2904 16.248 78.2904 16.248 78.2664 16.24C78.2424 16.232 78.2144 16.22 78.1824 16.204H78.1464C78.1304 16.308 78.1224 16.416 78.1224 16.528C78.1224 16.64 78.1144 16.752 78.0984 16.864C78.0904 16.888 78.0824 16.88 78.0744 16.84C78.0664 16.8 78.0544 16.772 78.0384 16.756C78.0304 16.692 78.0184 16.652 78.0024 16.636C77.9944 16.628 77.9824 16.616 77.9664 16.6C77.9584 16.608 77.9464 16.604 77.9304 16.588C77.8664 16.532 77.8424 16.456 77.8584 16.36C77.8824 16.264 77.8904 16.176 77.8824 16.096C77.8824 16.128 77.8784 16.156 77.8704 16.18C77.8704 16.212 77.8624 16.236 77.8464 16.252C77.8384 16.26 77.8304 16.244 77.8224 16.204C77.8224 16.172 77.8184 16.144 77.8104 16.12C77.7944 16.088 77.7864 16.06 77.7864 16.036C77.7784 16.068 77.7704 16.08 77.7624 16.072C77.7304 16.016 77.7224 15.992 77.7384 16C77.7544 16.008 77.7664 16.008 77.7744 16C77.7824 15.992 77.7544 15.936 77.6904 15.832L77.6544 15.796C77.6464 15.78 77.6344 15.764 77.6184 15.748C77.6024 15.724 77.5864 15.7 77.5704 15.676C77.5704 15.66 77.5624 15.644 77.5464 15.628C77.5304 15.596 77.5144 15.564 77.4984 15.532C77.4904 15.5 77.4784 15.468 77.4624 15.436C77.4384 15.372 77.4104 15.312 77.3784 15.256C77.3544 15.192 77.3304 15.132 77.3064 15.076C77.2664 14.996 77.2264 14.912 77.1864 14.824C77.1464 14.728 77.1064 14.632 77.0664 14.536C77.0504 14.488 77.0344 14.456 77.0184 14.44C76.9864 14.344 76.9464 14.252 76.8984 14.164C76.8904 14.148 76.8824 14.132 76.8744 14.116C76.8664 14.092 76.8584 14.072 76.8504 14.056L76.7664 13.876C76.7664 13.86 76.7624 13.848 76.7544 13.84C76.7544 13.84 76.7504 13.84 76.7424 13.84C76.7424 13.832 76.7424 13.824 76.7424 13.816C76.7344 13.8 76.7264 13.78 76.7184 13.756C76.7104 13.732 76.6984 13.712 76.6824 13.696C76.6744 13.672 76.6664 13.648 76.6584 13.624C76.6504 13.6 76.6384 13.576 76.6224 13.552L76.5864 13.468L76.5024 13.384C76.5024 13.4 76.4944 13.416 76.4784 13.432C76.4624 13.464 76.4544 13.488 76.4544 13.504L76.4184 13.6C76.4024 13.632 76.3864 13.656 76.3704 13.672C76.3464 13.704 76.3144 13.72 76.2744 13.72C76.2344 13.704 76.2024 13.668 76.1784 13.612C76.1544 13.556 76.1344 13.512 76.1184 13.48C76.1104 13.48 76.1064 13.48 76.1064 13.48C76.1064 13.472 76.1064 13.468 76.1064 13.468C76.0744 13.38 76.0584 13.356 76.0584 13.396C76.0664 13.436 76.0664 13.464 76.0584 13.48V15.244C76.0584 15.324 76.0624 15.412 76.0704 15.508C76.0784 15.604 76.0704 15.696 76.0464 15.784C76.0144 15.848 75.9984 15.876 75.9984 15.868L75.9744 15.892C75.9664 15.9 75.9584 15.908 75.9504 15.916C75.9504 15.924 75.9424 15.932 75.9264 15.94C75.9104 15.948 75.8904 15.964 75.8664 15.988C75.8504 16.012 75.8384 16.028 75.8304 16.036C75.8144 16.068 75.7984 16.088 75.7824 16.096C75.7584 16.144 75.7424 16.164 75.7344 16.156C75.7344 16.156 75.7304 16.156 75.7224 16.156C75.7224 16.156 75.7224 16.152 75.7224 16.144C75.7064 16.224 75.6944 16.304 75.6864 16.384C75.6784 16.472 75.6624 16.56 75.6384 16.648C75.6304 16.664 75.6224 16.684 75.6144 16.708C75.6144 16.732 75.6064 16.752 75.5904 16.768C75.5824 16.776 75.5704 16.776 75.5544 16.768C75.5464 16.76 75.5424 16.752 75.5424 16.744C75.5344 16.728 75.5264 16.708 75.5184 16.684C75.5104 16.66 75.5024 16.64 75.4944 16.624C75.4864 16.592 75.4784 16.56 75.4704 16.528C75.4624 16.504 75.4544 16.476 75.4464 16.444C75.4384 16.42 75.4304 16.392 75.4224 16.36C75.4224 16.336 75.4144 16.312 75.3984 16.288L75.3264 16.36C75.3184 16.368 75.3104 16.372 75.3024 16.372C75.2784 16.396 75.2584 16.412 75.2424 16.42C75.2344 16.596 75.2304 16.788 75.2304 16.996C75.2304 17.212 75.2224 17.412 75.2064 17.596C75.2064 17.644 75.2104 17.708 75.2184 17.788C75.2264 17.876 75.2264 17.944 75.2184 17.992C75.2184 18.048 75.1984 18.064 75.1584 18.04C75.0864 17.992 75.0624 17.916 75.0864 17.812C75.1104 17.708 75.1184 17.616 75.1104 17.536C75.1024 17.352 75.0944 17.164 75.0864 16.972C75.0864 16.788 75.0784 16.608 75.0624 16.432C75.0544 16.424 75.0424 16.412 75.0264 16.396C75.0184 16.388 75.0064 16.376 74.9904 16.36C74.9824 16.336 74.9704 16.312 74.9544 16.288C74.9464 16.272 74.9344 16.252 74.9184 16.228C74.9024 16.196 74.8944 16.18 74.8944 16.18C74.8944 16.18 74.8864 16.164 74.8704 16.132C74.8704 16.132 74.8624 16.116 74.8464 16.084C74.8304 16.116 74.8224 16.132 74.8224 16.132C74.8144 16.14 74.7904 16.148 74.7504 16.156C74.7184 16.164 74.6944 16.168 74.6784 16.168C74.6064 16.176 74.5464 16.156 74.4984 16.108C74.4584 16.068 74.4064 16.036 74.3424 16.012C74.2944 16.02 74.2504 16.036 74.2104 16.06C74.1784 16.092 74.1424 16.116 74.1024 16.132C74.0464 16.148 73.9784 16.144 73.8984 16.12L73.8144 16.084H73.8024C73.7864 16.092 73.7624 16.104 73.7304 16.12C73.7064 16.136 73.6824 16.148 73.6584 16.156C73.6024 16.172 73.5424 16.16 73.4784 16.12C73.4144 16.08 73.3464 16.036 73.2744 15.988C73.2424 15.972 73.2144 15.956 73.1904 15.94C73.1024 15.876 73.0584 15.788 73.0584 15.676V8.116C73.0584 8.052 73.0584 7.988 73.0584 7.924C73.0584 7.852 73.0784 7.788 73.1184 7.732C73.1504 7.684 73.1944 7.648 73.2504 7.624C73.2984 7.608 73.3384 7.6 73.3704 7.6C73.4104 7.592 73.4504 7.592 73.4904 7.6C73.5384 7.6 73.5824 7.6 73.6224 7.6H76.5744C76.7344 7.6 76.8944 7.6 77.0544 7.6C77.2144 7.592 77.3704 7.6 77.5224 7.624C77.9304 7.656 78.3024 7.732 78.6384 7.852C78.9824 7.964 79.2784 8.112 79.5264 8.296C79.5744 8.32 79.6184 8.352 79.6584 8.392C79.6584 8.392 79.6584 8.396 79.6584 8.404C79.6664 8.404 79.6704 8.408 79.6704 8.416C79.6784 8.416 79.6864 8.42 79.6944 8.428C79.9904 8.676 80.2144 8.976 80.3664 9.328C80.5264 9.68 80.6064 10.076 80.6064 10.516C80.6064 10.78 80.5744 11.032 80.5104 11.272C80.4944 11.424 80.4624 11.524 80.4144 11.572C80.3984 11.604 80.3904 11.624 80.3904 11.632C80.3504 11.728 80.3024 11.82 80.2464 11.908C80.1984 11.996 80.1424 12.084 80.0784 12.172C80.0704 12.18 80.0624 12.192 80.0544 12.208C80.0464 12.216 80.0384 12.224 80.0304 12.232C80.0224 12.24 80.0144 12.248 80.0064 12.256C79.9984 12.264 79.9904 12.276 79.9824 12.292L79.8864 12.4C79.8784 12.408 79.8664 12.416 79.8504 12.424C79.8424 12.432 79.8344 12.444 79.8264 12.46C79.8024 12.476 79.7784 12.496 79.7544 12.52C79.7384 12.544 79.7184 12.564 79.6944 12.58C79.6864 12.692 79.7024 12.86 79.7424 13.084C79.7824 13.308 79.8064 13.528 79.8144 13.744C79.8304 13.768 79.8464 13.792 79.8624 13.816C79.8784 13.84 79.8904 13.868 79.8984 13.9C79.9784 14.036 80.0584 14.204 80.1384 14.404L80.4264 14.932C80.4664 15.012 80.5064 15.088 80.5464 15.16C80.5944 15.232 80.6384 15.304 80.6784 15.376C80.6944 15.408 80.7104 15.436 80.7264 15.46C80.7424 15.484 80.7544 15.512 80.7624 15.544C80.7704 15.552 80.7784 15.568 80.7864 15.592C80.7944 15.608 80.7984 15.624 80.7984 15.64C80.8144 15.672 80.8224 15.704 80.8224 15.736ZM76.1544 11.104H76.9344C76.9744 11.104 77.0264 11.096 77.0904 11.08C77.1704 11.056 77.2344 11.008 77.2824 10.936C77.3384 10.864 77.3824 10.78 77.4144 10.684C77.4304 10.644 77.4424 10.604 77.4504 10.564C77.4584 10.516 77.4624 10.468 77.4624 10.42C77.4624 10.332 77.4464 10.244 77.4144 10.156C77.3824 10.068 77.3304 9.996 77.2584 9.94C77.2264 9.908 77.1824 9.892 77.1264 9.892C77.0704 9.884 77.0184 9.884 76.9704 9.892C76.8824 9.9 76.7904 9.912 76.6944 9.928C76.6064 9.936 76.5144 9.932 76.4184 9.916C76.3704 9.908 76.3224 9.9 76.2744 9.892C76.2344 9.876 76.1944 9.864 76.1544 9.856C76.1384 9.848 76.1264 9.844 76.1184 9.844C76.1184 9.836 76.0984 9.832 76.0584 9.832V10.852C76.0584 10.996 76.0664 11.064 76.0824 11.056C76.0984 11.048 76.1224 11.064 76.1544 11.104ZM79.5504 13.312C79.5904 13.008 79.6104 12.788 79.6104 12.652C79.6104 12.652 79.6024 12.66 79.5864 12.676C79.5864 12.684 79.5824 12.692 79.5744 12.7C79.5744 12.7 79.5744 12.704 79.5744 12.712C79.5744 12.72 79.5744 12.736 79.5744 12.76C79.5744 12.784 79.5664 12.82 79.5504 12.868C79.5344 12.9 79.5184 12.92 79.5024 12.928C79.4784 12.936 79.4624 12.92 79.4544 12.88C79.4464 12.84 79.4264 12.828 79.3944 12.844C79.3944 12.868 79.3784 12.884 79.3464 12.892C79.3384 12.9 79.3304 12.9 79.3224 12.892C79.3224 12.876 79.3184 12.868 79.3104 12.868L79.3464 12.94C79.3624 12.948 79.3744 12.964 79.3824 12.988C79.3904 13.004 79.3984 13.02 79.4064 13.036L79.5504 13.312ZM77.9664 16.312C77.9824 16.296 77.9944 16.276 78.0024 16.252C78.0184 16.228 78.0104 16.192 77.9784 16.144C77.9784 16.144 77.9744 16.144 77.9664 16.144C77.9664 16.144 77.9664 16.148 77.9664 16.156C77.9584 16.172 77.9544 16.192 77.9544 16.216C77.9624 16.248 77.9664 16.28 77.9664 16.312ZM90.0466 15.484C90.0706 15.532 90.0906 15.584 90.1066 15.64C90.1306 15.688 90.1346 15.74 90.1186 15.796C90.1106 15.828 90.0986 15.856 90.0826 15.88C90.0666 15.896 90.0506 15.912 90.0346 15.928L89.9986 15.964C89.9906 15.98 89.9826 16 89.9746 16.024C89.9746 16.048 89.9666 16.068 89.9506 16.084C89.9426 16.108 89.9346 16.132 89.9266 16.156C89.9266 16.18 89.9186 16.204 89.9026 16.228C89.8946 16.252 89.8866 16.284 89.8786 16.324C89.8786 16.372 89.8706 16.388 89.8546 16.372C89.8306 16.348 89.8186 16.316 89.8186 16.276C89.8186 16.244 89.8186 16.212 89.8186 16.18C89.7866 16.22 89.7506 16.26 89.7106 16.3C89.6786 16.348 89.6466 16.392 89.6146 16.432C89.5586 16.52 89.5026 16.612 89.4466 16.708C89.3906 16.812 89.3386 16.912 89.2906 17.008C89.2586 17.072 89.2266 17.14 89.1946 17.212C89.1626 17.284 89.1266 17.352 89.0866 17.416C89.0386 17.496 89.0106 17.54 89.0026 17.548C88.9946 17.556 88.9666 17.584 88.9186 17.632H88.9066C88.8986 17.64 88.8826 17.652 88.8586 17.668C88.8506 17.74 88.8426 17.812 88.8346 17.884C88.8346 17.964 88.8266 18.04 88.8106 18.112C88.8026 18.128 88.7946 18.12 88.7866 18.088C88.7786 18.056 88.7706 18.032 88.7626 18.016C88.7546 17.952 88.7506 17.884 88.7506 17.812C88.7506 17.748 88.7426 17.684 88.7266 17.62C88.7026 17.596 88.6786 17.56 88.6546 17.512C88.6546 17.504 88.6506 17.496 88.6426 17.488C88.6186 17.432 88.5946 17.376 88.5706 17.32C88.5546 17.272 88.5346 17.22 88.5106 17.164C88.4706 17.084 88.4266 17.02 88.3786 16.972C88.3706 16.964 88.3626 16.96 88.3546 16.96C88.3546 16.96 88.3506 16.956 88.3426 16.948C88.3346 16.956 88.3266 16.964 88.3186 16.972C88.3106 16.98 88.3026 16.988 88.2946 16.996C88.2226 17.044 88.1906 17.076 88.1986 17.092C88.2146 17.108 88.2386 17.12 88.2706 17.128C88.3106 17.144 88.3306 17.168 88.3306 17.2C88.3306 17.24 88.2866 17.304 88.1986 17.392C88.1746 17.424 88.1626 17.4 88.1626 17.32C88.1626 17.248 88.1586 17.196 88.1506 17.164C88.1426 17.116 88.1346 17.064 88.1266 17.008C88.1266 16.96 88.1186 16.912 88.1026 16.864C88.0546 16.816 88.0186 16.76 87.9946 16.696C87.9706 16.656 87.9466 16.612 87.9226 16.564C87.9066 16.524 87.8906 16.484 87.8746 16.444L87.8386 16.348C87.8306 16.324 87.8146 16.3 87.7906 16.276C87.7746 16.26 87.7586 16.244 87.7426 16.228C87.7426 16.22 87.7426 16.22 87.7426 16.228C87.7266 16.228 87.6746 16.256 87.5866 16.312C87.5866 16.32 87.5906 16.32 87.5986 16.312C87.6066 16.304 87.6546 16.276 87.7426 16.228L87.7306 16.216L87.7066 16.192C87.6026 16.296 87.5586 16.348 87.5746 16.348C87.5906 16.348 87.6226 16.328 87.6706 16.288C87.7186 16.256 87.7466 16.232 87.7546 16.216C87.7626 16.2 87.7066 16.232 87.5866 16.312L87.5626 16.336C87.5546 16.328 87.5466 16.312 87.5386 16.288C87.5306 16.264 87.5266 16.26 87.5266 16.276C87.5106 16.324 87.5026 16.392 87.5026 16.48C87.5026 16.576 87.4946 16.604 87.4786 16.564C87.4626 16.524 87.4546 16.46 87.4546 16.372C87.4546 16.292 87.4466 16.216 87.4306 16.144C87.4066 16.104 87.3826 16.06 87.3586 16.012C87.3426 15.972 87.3226 15.932 87.2986 15.892C87.2826 15.892 87.2746 15.884 87.2746 15.868C87.2586 15.852 87.2386 15.832 87.2146 15.808C87.1986 15.784 87.1946 15.776 87.2026 15.784C87.1946 15.768 87.1866 15.752 87.1786 15.736C87.1706 15.72 87.1626 15.708 87.1546 15.7C87.1226 15.62 87.0946 15.54 87.0706 15.46C87.0466 15.38 87.0186 15.3 86.9866 15.22C86.9786 15.204 86.9746 15.192 86.9746 15.184C86.9746 15.176 86.9706 15.168 86.9626 15.16C86.9626 15.144 86.9546 15.12 86.9386 15.088C86.9386 15.072 86.9346 15.06 86.9266 15.052C86.9266 15.044 86.9226 15.032 86.9146 15.016C86.9146 15 86.9106 14.992 86.9026 14.992C86.9026 14.976 86.8946 14.952 86.8786 14.92C86.8786 14.912 86.8786 14.908 86.8786 14.908C86.8786 14.908 86.8626 14.908 86.8306 14.908C86.8226 14.924 86.8186 14.948 86.8186 14.98C86.8186 15.012 86.8026 15.036 86.7706 15.052C86.7546 15.092 86.7346 15.136 86.7106 15.184C86.6866 15.224 86.6626 15.264 86.6386 15.304C86.5826 15.408 86.5266 15.524 86.4706 15.652C86.4226 15.772 86.3706 15.9 86.3146 16.036C86.2826 16.132 86.2466 16.228 86.2066 16.324C86.1746 16.42 86.1386 16.508 86.0986 16.588C86.0666 16.66 86.0346 16.732 86.0026 16.804C85.9706 16.884 85.9346 16.956 85.8946 17.02C85.8866 17.036 85.8706 17.056 85.8466 17.08C85.8306 17.112 85.8066 17.128 85.7746 17.128C85.7426 17.136 85.7106 17.124 85.6786 17.092C85.6466 17.044 85.6186 16.992 85.5946 16.936C85.5786 16.88 85.5626 16.824 85.5466 16.768C85.5066 16.68 85.4706 16.576 85.4386 16.456C85.4066 16.336 85.3786 16.212 85.3546 16.084C85.3226 15.956 85.2906 15.832 85.2586 15.712C85.2346 15.592 85.2026 15.488 85.1626 15.4L85.1266 15.304C85.1186 15.288 85.1106 15.272 85.1026 15.256C85.1026 15.24 85.0986 15.22 85.0906 15.196C85.0746 15.164 85.0626 15.136 85.0546 15.112C85.0466 15.104 85.0386 15.096 85.0306 15.088C85.0226 15.072 85.0186 15.072 85.0186 15.088C85.0026 15.168 84.9946 15.256 84.9946 15.352C84.9946 15.44 84.9866 15.528 84.9706 15.616C84.9626 15.648 84.9546 15.64 84.9466 15.592C84.9386 15.536 84.9306 15.496 84.9226 15.472C84.8666 15.36 84.8506 15.292 84.8746 15.268C84.8986 15.244 84.9226 15.224 84.9466 15.208C84.9706 15.192 84.9506 15.14 84.8866 15.052C84.8786 15.052 84.8666 15.068 84.8506 15.1C84.8426 15.108 84.8386 15.116 84.8386 15.124C84.8386 15.132 84.8346 15.14 84.8266 15.148C84.8106 15.172 84.7946 15.196 84.7786 15.22C84.7626 15.236 84.7426 15.252 84.7186 15.268C84.7026 15.284 84.6906 15.292 84.6826 15.292C84.6746 15.38 84.6666 15.472 84.6586 15.568C84.6586 15.656 84.6506 15.744 84.6346 15.832C84.6346 15.84 84.6266 15.848 84.6106 15.856C84.5946 15.864 84.5866 15.864 84.5866 15.856C84.5706 15.76 84.5626 15.664 84.5626 15.568C84.5626 15.464 84.5546 15.36 84.5386 15.256C84.4986 15.216 84.4626 15.168 84.4306 15.112C84.3986 15.056 84.3706 15.012 84.3466 14.98C84.2746 14.836 84.2426 14.768 84.2506 14.776C84.2586 14.776 84.2706 14.8 84.2866 14.848C84.3026 14.904 84.3026 14.94 84.2866 14.956C84.2626 15.004 84.2506 15.032 84.2506 15.04C84.2426 15.064 84.2346 15.088 84.2266 15.112C84.2186 15.128 84.2106 15.148 84.2026 15.172C84.1866 15.22 84.1706 15.268 84.1546 15.316C84.1386 15.364 84.1226 15.408 84.1066 15.448L84.0346 15.652C84.0266 15.684 84.0146 15.716 83.9986 15.748C83.9826 15.772 83.9666 15.796 83.9506 15.82C83.9266 15.86 83.8946 15.892 83.8546 15.916C83.8386 15.932 83.8226 15.956 83.8066 15.988L83.7706 16.072C83.7546 16.136 83.7346 16.204 83.7106 16.276C83.6866 16.348 83.6626 16.416 83.6386 16.48C83.6386 16.488 83.6346 16.492 83.6266 16.492C83.6266 16.5 83.6266 16.504 83.6266 16.504C83.6186 16.56 83.6066 16.612 83.5906 16.66C83.5746 16.716 83.5586 16.772 83.5426 16.828C83.5346 16.836 83.5306 16.848 83.5306 16.864C83.5306 16.88 83.5266 16.896 83.5186 16.912C83.4946 17.008 83.4706 17.104 83.4466 17.2C83.4306 17.304 83.4066 17.4 83.3746 17.488C83.3586 17.568 83.3386 17.644 83.3146 17.716C83.2906 17.788 83.2666 17.86 83.2426 17.932C83.2346 17.964 83.2186 17.996 83.1946 18.028C83.1786 18.068 83.1626 18.108 83.1466 18.148L83.0746 18.244C83.0506 18.268 83.0186 18.288 82.9786 18.304C82.9706 18.392 82.9626 18.48 82.9546 18.568C82.9546 18.664 82.9466 18.756 82.9306 18.844C82.9226 18.86 82.9106 18.876 82.8946 18.892C82.8786 18.908 82.8706 18.912 82.8706 18.904C82.8546 18.792 82.8466 18.684 82.8466 18.58C82.8466 18.476 82.8386 18.372 82.8226 18.268C82.8066 18.252 82.7906 18.236 82.7746 18.22C82.7666 18.204 82.7546 18.192 82.7386 18.184L82.6306 18.064C82.6226 18.048 82.6106 18.032 82.5946 18.016C82.5866 18 82.5746 17.984 82.5586 17.968C82.5266 17.92 82.4906 17.872 82.4506 17.824C82.4186 17.776 82.3906 17.728 82.3666 17.68C82.2786 17.528 82.2026 17.372 82.1386 17.212C82.0746 17.06 82.0066 16.908 81.9346 16.756C81.9026 16.692 81.8706 16.624 81.8386 16.552C81.8066 16.488 81.7706 16.424 81.7306 16.36C81.7226 16.352 81.7146 16.344 81.7066 16.336C81.7066 16.328 81.7026 16.32 81.6946 16.312C81.6786 16.28 81.6586 16.252 81.6346 16.228C81.6026 16.196 81.5786 16.176 81.5626 16.168C81.5626 16.168 81.5586 16.164 81.5506 16.156C81.5506 16.156 81.5506 16.152 81.5506 16.144C81.5426 16.144 81.5386 16.14 81.5386 16.132C81.5386 16.132 81.5346 16.132 81.5266 16.132C81.5026 16.172 81.4866 16.216 81.4786 16.264C81.4786 16.312 81.4666 16.356 81.4426 16.396C81.4426 16.428 81.4306 16.444 81.4066 16.444C81.3746 16.452 81.3506 16.424 81.3346 16.36C81.3266 16.304 81.3226 16.284 81.3226 16.3C81.2906 16.468 81.2786 16.504 81.2866 16.408C81.3026 16.312 81.2946 16.176 81.2626 16C81.2546 15.992 81.2466 15.988 81.2386 15.988C81.2306 15.988 81.2226 15.984 81.2146 15.976C81.1906 15.968 81.1586 15.944 81.1186 15.904C81.1026 15.888 81.0866 15.864 81.0706 15.832C81.0546 15.8 81.0506 15.752 81.0586 15.688C81.0666 15.64 81.0786 15.592 81.0946 15.544C81.1106 15.496 81.1266 15.452 81.1426 15.412C81.1586 15.356 81.1746 15.308 81.1906 15.268C81.2146 15.22 81.2306 15.192 81.2386 15.184L81.6466 14.02C81.6866 13.86 81.7226 13.708 81.7546 13.564C81.7946 13.412 81.8386 13.288 81.8866 13.192C81.8866 13.184 81.8866 13.176 81.8866 13.168C81.8946 13.16 81.8986 13.152 81.8986 13.144C81.9146 13.112 81.9266 13.08 81.9346 13.048C81.9506 13.016 81.9666 12.984 81.9826 12.952C81.9986 12.92 82.0146 12.892 82.0306 12.868C82.0466 12.836 82.0586 12.812 82.0666 12.796L82.6906 11.008C82.7306 10.864 82.7666 10.728 82.7986 10.6C82.8386 10.464 82.8746 10.356 82.9066 10.276C82.9306 10.196 82.9506 10.12 82.9666 10.048C82.9906 9.968 83.0146 9.896 83.0386 9.832C83.0626 9.744 83.0906 9.664 83.1226 9.592C83.2106 9.328 83.2906 9.16 83.3626 9.088L83.5786 8.464L83.7466 7.996C83.7706 7.908 83.8266 7.82 83.9146 7.732C84.0026 7.644 84.1346 7.6 84.3106 7.6H86.8906C86.9866 7.6 87.0666 7.616 87.1306 7.648C87.1546 7.656 87.1906 7.676 87.2386 7.708C87.2946 7.748 87.3386 7.796 87.3706 7.852C87.4026 7.908 87.4306 7.968 87.4546 8.032C87.4546 8.048 87.4626 8.072 87.4786 8.104L87.5146 8.224C87.5226 8.24 87.5266 8.26 87.5266 8.284C87.5346 8.308 87.5426 8.328 87.5506 8.344L87.6586 8.608C87.6586 8.616 87.6586 8.624 87.6586 8.632C87.6666 8.632 87.6706 8.636 87.6706 8.644C87.6866 8.676 87.6946 8.704 87.6946 8.728C87.7186 8.784 87.7386 8.844 87.7546 8.908C87.7786 8.972 87.7986 9.036 87.8146 9.1C87.8226 9.116 87.8306 9.136 87.8386 9.16C87.8466 9.184 87.8546 9.204 87.8626 9.22L87.8866 9.304C87.9346 9.352 87.9866 9.448 88.0426 9.592C88.1066 9.728 88.1706 9.896 88.2346 10.096L88.2706 10.216C88.3266 10.344 88.3746 10.476 88.4146 10.612C88.4626 10.748 88.5026 10.884 88.5346 11.02C88.5746 11.1 88.6146 11.212 88.6546 11.356C88.6946 11.5 88.7306 11.652 88.7626 11.812L89.3506 13.48C89.3986 13.56 89.4466 13.68 89.4946 13.84C89.5506 13.992 89.6066 14.164 89.6626 14.356C89.6786 14.396 89.6906 14.436 89.6986 14.476C89.7146 14.516 89.7266 14.556 89.7346 14.596L89.9986 15.352C90.0226 15.392 90.0386 15.436 90.0466 15.484ZM85.5706 10.384C85.5706 10.392 85.5666 10.404 85.5586 10.42C85.5506 10.436 85.5466 10.452 85.5466 10.468C85.5306 10.524 85.5106 10.58 85.4866 10.636C85.4706 10.692 85.4546 10.752 85.4386 10.816L85.1626 11.752C85.1546 11.784 85.1466 11.816 85.1386 11.848C85.1306 11.872 85.1186 11.904 85.1026 11.944C85.0946 11.992 85.0826 12.044 85.0666 12.1C85.0506 12.148 85.0346 12.2 85.0186 12.256C85.0106 12.288 85.0026 12.32 84.9946 12.352C84.9866 12.384 84.9746 12.416 84.9586 12.448C84.9506 12.456 84.9466 12.468 84.9466 12.484C84.9466 12.492 84.9426 12.504 84.9346 12.52C84.9346 12.52 84.9346 12.524 84.9346 12.532C84.9346 12.532 84.9306 12.532 84.9226 12.532C84.9226 12.54 84.9186 12.548 84.9106 12.556C84.9106 12.556 84.9106 12.56 84.9106 12.568H85.9426C85.9826 12.568 86.0226 12.568 86.0626 12.568C86.1026 12.56 86.1386 12.56 86.1706 12.568H86.2666L86.2306 12.436C86.2146 12.396 86.2026 12.36 86.1946 12.328C86.1866 12.288 86.1746 12.252 86.1586 12.22L86.1226 12.112C86.0906 12.024 86.0586 11.928 86.0266 11.824C86.0026 11.712 85.9746 11.604 85.9426 11.5C85.9346 11.492 85.9306 11.476 85.9306 11.452L85.7266 10.816L85.6546 10.564C85.6546 10.564 85.6466 10.548 85.6306 10.516C85.6226 10.476 85.6146 10.44 85.6066 10.408C85.5986 10.4 85.5946 10.396 85.5946 10.396C85.5946 10.388 85.5866 10.384 85.5706 10.384ZM98.3492 10.648C98.3492 10.792 98.3372 10.936 98.3132 11.08C98.2972 11.232 98.2732 11.372 98.2412 11.5C98.2092 11.628 98.1652 11.728 98.1092 11.8C98.1012 11.824 98.0892 11.848 98.0732 11.872C98.0652 11.896 98.0532 11.916 98.0372 11.932C97.9972 12.004 97.9532 12.076 97.9052 12.148C97.8652 12.22 97.8172 12.288 97.7612 12.352C97.7532 12.36 97.7412 12.372 97.7252 12.388C97.7172 12.396 97.7052 12.408 97.6892 12.424L97.6052 12.508C97.5732 12.532 97.5292 12.572 97.4732 12.628C97.4572 12.644 97.4452 12.66 97.4372 12.676C97.4212 12.708 97.4132 12.728 97.4132 12.736L97.3412 12.916C97.3092 12.996 97.2772 13.076 97.2452 13.156C97.2212 13.236 97.1892 13.316 97.1492 13.396L97.1132 13.48C97.0892 13.528 97.0652 13.564 97.0412 13.588C97.0332 13.612 97.0132 13.64 96.9812 13.672C96.9492 13.688 96.9292 13.696 96.9212 13.696C96.9132 13.752 96.9052 13.812 96.8972 13.876C96.8972 13.932 96.8892 13.992 96.8732 14.056C96.8652 14.072 96.8572 14.092 96.8492 14.116C96.8412 14.14 96.8292 14.152 96.8132 14.152C96.7972 14.16 96.7852 14.152 96.7772 14.128C96.7772 14.096 96.7732 14.076 96.7652 14.068C96.7492 14.02 96.7372 13.968 96.7292 13.912C96.7292 13.856 96.7132 13.812 96.6812 13.78L96.6452 13.816C96.6292 13.832 96.6052 13.864 96.5732 13.912C96.5412 13.96 96.5012 14.004 96.4532 14.044C96.4372 14.196 96.4412 14.352 96.4652 14.512C96.4892 14.664 96.4692 14.808 96.4052 14.944C96.3732 15.008 96.3532 14.996 96.3452 14.908C96.3452 14.812 96.3492 14.696 96.3572 14.56C96.3652 14.416 96.3652 14.308 96.3572 14.236C96.3492 14.124 96.3372 14.06 96.3212 14.044C96.3132 14.028 96.2932 13.992 96.2612 13.936C96.2292 13.896 96.1972 13.852 96.1652 13.804C96.1412 13.756 96.1092 13.716 96.0692 13.684C96.0612 13.716 96.0492 13.748 96.0332 13.78C96.0252 13.812 96.0212 13.848 96.0212 13.888C96.0132 13.976 96.0052 14.108 95.9972 14.284C95.9972 14.46 95.9972 14.648 95.9972 14.848C95.9972 15.04 95.9932 15.224 95.9852 15.4C95.9852 15.576 95.9812 15.708 95.9732 15.796C95.9732 15.796 95.9692 15.848 95.9612 15.952C95.9612 16.048 95.9532 16.164 95.9372 16.3C95.9292 16.436 95.9212 16.564 95.9132 16.684C95.9052 16.804 95.8932 16.888 95.8772 16.936C95.8772 16.944 95.8692 16.944 95.8532 16.936C95.8452 16.928 95.8412 16.92 95.8412 16.912C95.8252 16.848 95.8132 16.78 95.8052 16.708C95.8052 16.636 95.8012 16.564 95.7932 16.492C95.7852 16.364 95.7772 16.236 95.7692 16.108C95.7612 15.98 95.7532 15.852 95.7452 15.724C95.7372 15.564 95.7292 15.404 95.7212 15.244C95.7132 15.076 95.7052 14.912 95.6972 14.752C95.6892 14.576 95.6812 14.404 95.6732 14.236C95.6732 14.06 95.6652 13.884 95.6492 13.708C95.6572 13.716 95.6492 13.708 95.6252 13.684C95.6092 13.652 95.5932 13.632 95.5772 13.624C95.5612 13.592 95.5412 13.564 95.5172 13.54C95.5012 13.508 95.4812 13.476 95.4572 13.444L95.4332 13.42C95.4332 13.428 95.4252 13.448 95.4092 13.48C95.3932 13.52 95.3292 13.576 95.2172 13.648C95.2092 13.648 95.2012 13.656 95.1932 13.672C95.1852 13.68 95.1772 13.68 95.1692 13.672C95.1612 13.656 95.1532 13.636 95.1452 13.612C95.1452 13.588 95.1452 13.568 95.1452 13.552C95.1292 13.552 95.1212 13.56 95.1212 13.576C95.1132 13.632 95.1052 13.692 95.0972 13.756C95.0972 13.82 95.0892 13.884 95.0732 13.948C95.0652 13.996 95.0492 14.044 95.0252 14.092C95.0092 14.14 94.9932 14.192 94.9772 14.248L94.8332 14.776C94.8252 14.824 94.8092 14.876 94.7852 14.932C94.7692 14.988 94.7532 15.036 94.7372 15.076C94.7292 15.092 94.7172 15.116 94.7012 15.148C94.6852 15.18 94.6652 15.204 94.6412 15.22C94.6012 15.244 94.5652 15.224 94.5332 15.16C94.5012 15.096 94.4772 15.052 94.4612 15.028C94.4532 15.012 94.4412 14.996 94.4252 14.98C94.4172 14.964 94.4092 14.948 94.4012 14.932C94.3932 14.764 94.3852 14.596 94.3772 14.428C94.3772 14.26 94.3692 14.088 94.3532 13.912C94.3532 13.904 94.3492 13.9 94.3412 13.9C94.3332 13.9 94.3252 13.896 94.3172 13.888L94.2332 13.816C94.1852 13.776 94.1412 13.732 94.1012 13.684C94.0692 13.628 94.0332 13.572 93.9932 13.516C93.9692 13.484 93.9452 13.452 93.9212 13.42L93.8972 13.432V15.304C93.9052 15.376 93.9092 15.448 93.9092 15.52C93.9172 15.592 93.9132 15.664 93.8972 15.736V15.76C93.8892 15.768 93.8852 15.776 93.8852 15.784C93.8772 15.816 93.8612 15.844 93.8372 15.868C93.8052 15.908 93.7572 15.948 93.6932 15.988L93.5972 16.132C93.5892 16.14 93.5692 16.156 93.5372 16.18C93.5132 16.212 93.4972 16.228 93.4892 16.228C93.4812 16.332 93.4732 16.436 93.4652 16.54C93.4652 16.652 93.4572 16.76 93.4412 16.864C93.4332 16.936 93.4292 17.008 93.4292 17.08C93.4292 17.16 93.4212 17.236 93.4052 17.308C93.3972 17.332 93.3932 17.364 93.3932 17.404C93.4012 17.444 93.3892 17.46 93.3572 17.452C93.3332 17.452 93.3212 17.432 93.3212 17.392C93.3292 17.36 93.3292 17.328 93.3212 17.296C93.2972 17.152 93.2852 17.04 93.2852 16.96C93.2852 16.888 93.2812 16.812 93.2732 16.732C93.2732 16.66 93.2532 16.556 93.2132 16.42L93.0932 16.54H93.0812C93.0652 16.556 93.0532 16.564 93.0452 16.564C93.0372 16.58 93.0332 16.596 93.0332 16.612C93.0332 16.628 93.0252 16.64 93.0092 16.648C93.0012 16.648 92.9932 16.64 92.9852 16.624C92.9852 16.608 92.9772 16.596 92.9612 16.588C92.9452 16.604 92.9332 16.624 92.9252 16.648C92.9252 16.672 92.9172 16.692 92.9012 16.708C92.8932 16.716 92.8892 16.728 92.8892 16.744C92.8892 16.76 92.8812 16.772 92.8652 16.78C92.8332 16.78 92.8172 16.76 92.8172 16.72C92.8092 16.68 92.8012 16.64 92.7932 16.6C92.7932 16.568 92.7852 16.536 92.7692 16.504C92.7692 16.496 92.7652 16.492 92.7572 16.492C92.7572 16.492 92.7572 16.488 92.7572 16.48C92.7252 16.456 92.6972 16.428 92.6732 16.396C92.6492 16.364 92.6252 16.332 92.6012 16.3L92.5052 16.168L92.4812 16.144C92.4732 16.128 92.4652 16.116 92.4572 16.108C92.4492 16.1 92.4372 16.092 92.4212 16.084L92.3852 16.156C92.3452 16.22 92.2932 16.292 92.2292 16.372C92.1652 16.46 92.0892 16.512 92.0012 16.528C91.9052 16.552 91.8612 16.52 91.8692 16.432C91.8772 16.344 91.8772 16.256 91.8692 16.168L91.7972 16.24C91.7972 16.248 91.7852 16.26 91.7612 16.276C91.7532 16.284 91.7452 16.288 91.7372 16.288C91.7372 16.288 91.7332 16.292 91.7252 16.3C91.7172 16.316 91.7092 16.336 91.7012 16.36C91.7012 16.384 91.6932 16.404 91.6772 16.42C91.6452 16.452 91.6252 16.456 91.6172 16.432C91.6012 16.408 91.5932 16.38 91.5932 16.348C91.5932 16.324 91.5852 16.296 91.5692 16.264C91.5612 16.256 91.5492 16.244 91.5332 16.228C91.5252 16.22 91.5132 16.208 91.4972 16.192L91.4252 16.084C91.4172 16.108 91.4132 16.132 91.4132 16.156C91.4132 16.188 91.4052 16.212 91.3892 16.228C91.3812 16.236 91.3652 16.228 91.3412 16.204C91.3252 16.196 91.3092 16.184 91.2932 16.168L91.1612 16.06C91.1132 16.076 91.0852 16.076 91.0772 16.06C91.0532 16.012 91.0372 15.992 91.0292 16C91.0212 16 91.0092 15.996 90.9932 15.988C90.9612 15.972 90.9332 15.956 90.9092 15.94C90.8212 15.876 90.7772 15.788 90.7772 15.676V7.972C90.7772 7.932 90.7772 7.892 90.7772 7.852C90.7852 7.804 90.8052 7.764 90.8372 7.732C90.8612 7.684 90.9092 7.648 90.9812 7.624C91.0292 7.608 91.0652 7.6 91.0892 7.6C91.1052 7.592 91.1412 7.592 91.1972 7.6C91.2532 7.6 91.3052 7.6 91.3532 7.6H92.5532C92.6492 7.6 92.8172 7.6 93.0572 7.6C93.2972 7.6 93.5612 7.6 93.8492 7.6C94.1372 7.592 94.3972 7.592 94.6292 7.6H94.7372C94.8892 7.6 95.0372 7.608 95.1812 7.624C95.3252 7.632 95.4652 7.644 95.6012 7.66C95.7612 7.668 95.9212 7.688 96.0812 7.72C96.2492 7.744 96.3892 7.78 96.5012 7.828C96.6052 7.868 96.6772 7.908 96.7172 7.948C96.7172 7.948 96.7332 7.956 96.7652 7.972C96.7732 7.972 96.7772 7.976 96.7772 7.984C96.9932 8.08 97.1892 8.192 97.3652 8.32C97.3892 8.328 97.4052 8.34 97.4132 8.356C97.4292 8.372 97.4492 8.392 97.4732 8.416C97.5772 8.512 97.6772 8.612 97.7732 8.716C97.7972 8.748 97.8212 8.78 97.8452 8.812C97.8692 8.836 97.8932 8.868 97.9172 8.908C97.9412 8.94 97.9612 8.976 97.9772 9.016C98.0012 9.048 98.0212 9.084 98.0372 9.124C98.1492 9.34 98.2292 9.568 98.2772 9.808C98.3252 10.04 98.3492 10.292 98.3492 10.564V10.648ZM93.8372 9.832V10.936C94.0212 10.792 94.2332 10.684 94.4732 10.612C94.7132 10.54 94.9532 10.5 95.1932 10.492C95.2172 10.324 95.1852 10.172 95.0972 10.036C95.0892 10.02 95.0732 10 95.0492 9.976C95.0252 9.952 95.0052 9.936 94.9892 9.928L94.9292 9.892C94.8812 9.876 94.8292 9.872 94.7732 9.88C94.7252 9.888 94.6772 9.896 94.6292 9.904C94.5732 9.912 94.5172 9.92 94.4612 9.928C94.4132 9.928 94.3612 9.924 94.3052 9.916C94.2492 9.908 94.1932 9.9 94.1372 9.892C94.0892 9.876 94.0372 9.864 93.9812 9.856C93.9812 9.856 93.9652 9.856 93.9332 9.856C93.9092 9.848 93.8772 9.84 93.8372 9.832Z" fill="white"/>
</g>
<defs>
<filter id="filter0_d_201_43" x="0.900024" y="0.899902" width="108.2" height="30.1934" filterUnits="userSpaceOnUse" color-interpolation-filters="sRGB">
<feFlood flood-opacity="0" result="BackgroundImageFix"/>
<feColorMatrix in="SourceAlpha" type="matrix" values="0 0 0 0 0 0 0 0 0 0 0 0 0 0 0 0 0 0 127 0" result="hardAlpha"/>
<feOffset dy="4"/>
<feGaussianBlur stdDeviation="2"/>
<feComposite in2="hardAlpha" operator="out"/>
<feColorMatrix type="matrix" values="0 0 0 0 0 0 0 0 0 0 0 0 0 0 0 0 0 0 0.25 0"/>
<feBlend mode="normal" in2="BackgroundImageFix" result="effect1_dropShadow_201_43"/>
<feBlend mode="normal" in="SourceGraphic" in2="effect1_dropShadow_201_43" result="shape"/>
</filter>
<linearGradient id="paint0_linear_201_43" x1="56.1365" y1="1" x2="56.1365" y2="21.7676" gradientUnits="userSpaceOnUse">
<stop stop-color="#D9F049"/>
<stop offset="0.416667" stop-color="#D7F67F" stop-opacity="0.583333"/>
<stop offset="1" stop-color="#7EFF7B"/>
</linearGradient>
</defs>
</svg>
