<svg width="120" height="40" viewBox="0 0 120 40" fill="none" xmlns="http://www.w3.org/2000/svg">
<rect width="120" height="40" fill="black"/>
<path d="M20.8555 12.4883H29.2246C30.3053 12.4883 31.2493 12.6022 32.0566 12.8301C32.8704 13.0579 33.5475 13.377 34.0879 13.7871C34.6348 14.1973 35.0449 14.6888 35.3184 15.2617C35.5918 15.8346 35.7285 16.4661 35.7285 17.1562C35.7285 18.0091 35.5267 18.7676 35.123 19.4316C34.7194 20.0892 34.1204 20.6133 33.3262 21.0039L36.373 27.0098H29.9961L27.6914 21.7363H26.5V27H20.8555V12.4883ZM26.8418 19.9688C27.304 19.9688 27.7174 19.9036 28.082 19.7734C28.4466 19.6432 28.7559 19.4609 29.0098 19.2266C29.2637 18.9857 29.459 18.7025 29.5957 18.377C29.7324 18.0449 29.8008 17.6836 29.8008 17.293C29.8008 16.9023 29.7324 16.5443 29.5957 16.2188C29.459 15.8867 29.2637 15.6035 29.0098 15.3691C28.7559 15.1283 28.4466 14.9427 28.082 14.8125C27.7174 14.6823 27.304 14.6172 26.8418 14.6172H26.5098L26.5 19.9688H26.8418ZM39.0781 12.4883H51.3438V14.7246H44.7324L44.7227 18.6406H49.7812V20.877H44.7227V24.7637H51.3438V27H39.0781V12.4883ZM58.2676 16.1504L56.5879 12.4883H62.5352L69.6445 27.0098H63.2676L62.1934 24.6855H56.4707L55.4062 27.0098H52.9355L58.2676 16.1504ZM61.168 22.4492L59.332 18.4648L57.5059 22.4492H61.168ZM70.7871 19.7539C70.7871 19.0638 70.875 18.3997 71.0508 17.7617C71.2331 17.1172 71.4967 16.5182 71.8418 15.9648C72.1868 15.4115 72.61 14.9069 73.1113 14.4512C73.6126 13.9954 74.1823 13.6048 74.8203 13.2793C75.4648 12.9538 76.1745 12.7031 76.9492 12.5273C77.724 12.3451 78.5573 12.2539 79.4492 12.2539C80.0221 12.2539 80.569 12.2897 81.0898 12.3613C81.6172 12.4329 82.112 12.5339 82.5742 12.6641C83.0365 12.7878 83.4629 12.9342 83.8535 13.1035C84.2507 13.2663 84.6087 13.4388 84.9277 13.6211L84.0879 15.2617C83.7233 15.0859 83.3066 14.9395 82.8379 14.8223C82.3757 14.6986 81.8939 14.6367 81.3926 14.6367C80.722 14.6367 80.1003 14.7572 79.5273 14.998C78.9544 15.2389 78.4596 15.5807 78.043 16.0234C77.6263 16.4661 77.2975 17.0033 77.0566 17.6348C76.8223 18.2598 76.7051 18.9629 76.7051 19.7441C76.7051 20.5189 76.8223 21.222 77.0566 21.8535C77.291 22.4785 77.6133 23.0156 78.0234 23.4648C78.4401 23.9076 78.9316 24.2526 79.498 24.5C80.071 24.7409 80.6895 24.8613 81.3535 24.8613C81.8223 24.8613 82.291 24.806 82.7598 24.6953C83.2285 24.5781 83.6582 24.4251 84.0488 24.2363L84.8887 25.877C84.5697 26.0658 84.2148 26.2415 83.8242 26.4043C83.4336 26.5671 83.0104 26.7135 82.5547 26.8438C82.099 26.9674 81.6107 27.0651 81.0898 27.1367C80.569 27.2083 80.0221 27.2441 79.4492 27.2441C78.1146 27.2441 76.9102 27.0488 75.8359 26.6582C74.7682 26.2611 73.86 25.724 73.1113 25.0469C72.3626 24.3633 71.7865 23.569 71.3828 22.6641C70.9857 21.7526 70.7871 20.7826 70.7871 19.7539ZM89.7324 14.7148H85.5918V12.4785H99.5176V14.7148H95.377V27H89.7324V14.7148Z" fill="white"/>
</svg>
