<svg width="110" height="32" viewBox="0 0 110 32" fill="none" xmlns="http://www.w3.org/2000/svg">
<g filter="url(#filter0_d_193_29)">
<path d="M5.00601 1.86583L4.98731 1.96383L9.15792 3.05825H5L4.99138 3.15751L11.2422 4.25104H5H4.95V4.30104V21V21.0342L4.98186 21.0466L10.1183 23.0466L10.1634 22.9578L7.38661 21.1872L10.5829 22.2975L10.6301 22.2109L9.20963 21.1004L11.1251 21.5487L11.3082 21.5915L11.1705 21.4634L10.7264 21.05H62.9545L62.9642 20.9509L53.8733 19.1618L53.856 19.1584L53.8404 19.1665L51.8366 20.2182L52.7635 19.2453L52.8298 19.1756L52.7347 19.1614L46.2121 18.1833L56.1324 18.9767L56.1492 18.8785L51.0669 17.5322L60.604 18.4706L62.944 18.9757L62.944 18.9758L62.947 18.9763L76.5834 21.0494L76.5833 21.05H76.5909H103.864L103.887 20.9557L98.4549 18.1049L104.993 18.9764L105.02 18.8811L101.828 17.4716H105H105.05V17.4216V2V1.93117L104.985 1.95245L101.858 2.9689L104.406 1.03987L104.525 0.95H104.376H5L4.991 1.04918L18.1397 3.45642L5.00601 1.86583Z" fill="black" stroke="url(#paint0_linear_193_29)" stroke-width="0.1"/>
<path d="M31.424 15.736C31.424 15.76 31.416 15.796 31.4 15.844C31.392 15.868 31.376 15.892 31.352 15.916C31.336 15.932 31.32 15.948 31.304 15.964C31.288 15.996 31.272 16.028 31.256 16.06C31.24 16.1 31.224 16.14 31.208 16.18L31.016 16.516C30.984 16.572 30.952 16.628 30.92 16.684C30.896 16.74 30.864 16.792 30.824 16.84C30.816 16.856 30.8 16.876 30.776 16.9C30.752 16.924 30.74 16.936 30.74 16.936C30.724 16.808 30.716 16.68 30.716 16.552C30.716 16.432 30.708 16.312 30.692 16.192C30.684 16.184 30.676 16.18 30.668 16.18C30.66 16.188 30.652 16.192 30.644 16.192C30.652 16.192 30.636 16.204 30.596 16.228C30.556 16.26 30.528 16.28 30.512 16.288C30.504 16.296 30.496 16.308 30.488 16.324C30.48 16.348 30.468 16.36 30.452 16.36C30.444 16.368 30.436 16.364 30.428 16.348C30.42 16.332 30.412 16.32 30.404 16.312C30.38 16.272 30.352 16.236 30.32 16.204C30.296 16.172 30.276 16.14 30.26 16.108C30.244 16.164 30.236 16.224 30.236 16.288C30.244 16.352 30.236 16.416 30.212 16.48C30.204 16.496 30.196 16.488 30.188 16.456C30.18 16.424 30.172 16.4 30.164 16.384L30.14 16.144C30.132 16.152 30.124 16.16 30.116 16.168C30.116 16.176 30.112 16.188 30.104 16.204C30.088 16.228 30.064 16.256 30.032 16.288C30.04 16.288 30.032 16.292 30.008 16.3C29.984 16.308 29.972 16.312 29.972 16.312C29.964 16.392 29.956 16.472 29.948 16.552C29.948 16.64 29.94 16.728 29.924 16.816C29.924 16.84 29.92 16.868 29.912 16.9C29.904 16.94 29.892 16.956 29.876 16.948C29.852 16.924 29.84 16.892 29.84 16.852C29.84 16.812 29.836 16.776 29.828 16.744C29.82 16.696 29.812 16.648 29.804 16.6C29.804 16.552 29.796 16.504 29.78 16.456C29.78 16.408 29.768 16.372 29.744 16.348C29.728 16.356 29.708 16.372 29.684 16.396C29.668 16.42 29.652 16.444 29.636 16.468C29.62 16.5 29.6 16.528 29.576 16.552C29.56 16.584 29.536 16.612 29.504 16.636C29.496 16.644 29.484 16.648 29.468 16.648C29.468 16.656 29.464 16.66 29.456 16.66C29.448 16.788 29.44 16.916 29.432 17.044C29.432 17.172 29.424 17.304 29.408 17.44C29.4 17.504 29.4 17.576 29.408 17.656C29.424 17.736 29.404 17.796 29.348 17.836C29.316 17.868 29.3 17.836 29.3 17.74C29.308 17.652 29.308 17.584 29.3 17.536C29.292 17.376 29.288 17.22 29.288 17.068C29.288 16.916 29.28 16.764 29.264 16.612C29.256 16.604 29.244 16.592 29.228 16.576C29.22 16.56 29.208 16.548 29.192 16.54C29.176 16.516 29.152 16.488 29.12 16.456C29.096 16.432 29.072 16.404 29.048 16.372C29.024 16.348 28.996 16.324 28.964 16.3C28.94 16.268 28.908 16.248 28.868 16.24C28.892 16.248 28.892 16.248 28.868 16.24C28.844 16.232 28.816 16.22 28.784 16.204H28.748C28.732 16.308 28.724 16.416 28.724 16.528C28.724 16.64 28.716 16.752 28.7 16.864C28.692 16.888 28.684 16.88 28.676 16.84C28.668 16.8 28.656 16.772 28.64 16.756C28.632 16.692 28.62 16.652 28.604 16.636C28.596 16.628 28.584 16.616 28.568 16.6C28.56 16.608 28.548 16.604 28.532 16.588C28.468 16.532 28.444 16.456 28.46 16.36C28.484 16.264 28.492 16.176 28.484 16.096C28.484 16.128 28.48 16.156 28.472 16.18C28.472 16.212 28.464 16.236 28.448 16.252C28.44 16.26 28.432 16.244 28.424 16.204C28.424 16.172 28.42 16.144 28.412 16.12C28.396 16.088 28.388 16.06 28.388 16.036C28.38 16.068 28.372 16.08 28.364 16.072C28.332 16.016 28.324 15.992 28.34 16C28.356 16.008 28.368 16.008 28.376 16C28.384 15.992 28.356 15.936 28.292 15.832L28.256 15.796C28.248 15.78 28.236 15.764 28.22 15.748C28.204 15.724 28.188 15.7 28.172 15.676C28.172 15.66 28.164 15.644 28.148 15.628C28.132 15.596 28.116 15.564 28.1 15.532C28.092 15.5 28.08 15.468 28.064 15.436C28.04 15.372 28.012 15.312 27.98 15.256C27.956 15.192 27.932 15.132 27.908 15.076C27.868 14.996 27.828 14.912 27.788 14.824C27.748 14.728 27.708 14.632 27.668 14.536C27.652 14.488 27.636 14.456 27.62 14.44C27.588 14.344 27.548 14.252 27.5 14.164C27.492 14.148 27.484 14.132 27.476 14.116C27.468 14.092 27.46 14.072 27.452 14.056L27.368 13.876C27.368 13.86 27.364 13.848 27.356 13.84C27.356 13.84 27.352 13.84 27.344 13.84C27.344 13.832 27.344 13.824 27.344 13.816C27.336 13.8 27.328 13.78 27.32 13.756C27.312 13.732 27.3 13.712 27.284 13.696C27.276 13.672 27.268 13.648 27.26 13.624C27.252 13.6 27.24 13.576 27.224 13.552L27.188 13.468L27.104 13.384C27.104 13.4 27.096 13.416 27.08 13.432C27.064 13.464 27.056 13.488 27.056 13.504L27.02 13.6C27.004 13.632 26.988 13.656 26.972 13.672C26.948 13.704 26.916 13.72 26.876 13.72C26.836 13.704 26.804 13.668 26.78 13.612C26.756 13.556 26.736 13.512 26.72 13.48C26.712 13.48 26.708 13.48 26.708 13.48C26.708 13.472 26.708 13.468 26.708 13.468C26.676 13.38 26.66 13.356 26.66 13.396C26.668 13.436 26.668 13.464 26.66 13.48V15.244C26.66 15.324 26.664 15.412 26.672 15.508C26.68 15.604 26.672 15.696 26.648 15.784C26.616 15.848 26.6 15.876 26.6 15.868L26.576 15.892C26.568 15.9 26.56 15.908 26.552 15.916C26.552 15.924 26.544 15.932 26.528 15.94C26.512 15.948 26.492 15.964 26.468 15.988C26.452 16.012 26.44 16.028 26.432 16.036C26.416 16.068 26.4 16.088 26.384 16.096C26.36 16.144 26.344 16.164 26.336 16.156C26.336 16.156 26.332 16.156 26.324 16.156C26.324 16.156 26.324 16.152 26.324 16.144C26.308 16.224 26.296 16.304 26.288 16.384C26.28 16.472 26.264 16.56 26.24 16.648C26.232 16.664 26.224 16.684 26.216 16.708C26.216 16.732 26.208 16.752 26.192 16.768C26.184 16.776 26.172 16.776 26.156 16.768C26.148 16.76 26.144 16.752 26.144 16.744C26.136 16.728 26.128 16.708 26.12 16.684C26.112 16.66 26.104 16.64 26.096 16.624C26.088 16.592 26.08 16.56 26.072 16.528C26.064 16.504 26.056 16.476 26.048 16.444C26.04 16.42 26.032 16.392 26.024 16.36C26.024 16.336 26.016 16.312 26 16.288L25.928 16.36C25.92 16.368 25.912 16.372 25.904 16.372C25.88 16.396 25.86 16.412 25.844 16.42C25.836 16.596 25.832 16.788 25.832 16.996C25.832 17.212 25.824 17.412 25.808 17.596C25.808 17.644 25.812 17.708 25.82 17.788C25.828 17.876 25.828 17.944 25.82 17.992C25.82 18.048 25.8 18.064 25.76 18.04C25.688 17.992 25.664 17.916 25.688 17.812C25.712 17.708 25.72 17.616 25.712 17.536C25.704 17.352 25.696 17.164 25.688 16.972C25.688 16.788 25.68 16.608 25.664 16.432C25.656 16.424 25.644 16.412 25.628 16.396C25.62 16.388 25.608 16.376 25.592 16.36C25.584 16.336 25.572 16.312 25.556 16.288C25.548 16.272 25.536 16.252 25.52 16.228C25.504 16.196 25.496 16.18 25.496 16.18C25.496 16.18 25.488 16.164 25.472 16.132C25.472 16.132 25.464 16.116 25.448 16.084C25.432 16.116 25.424 16.132 25.424 16.132C25.416 16.14 25.392 16.148 25.352 16.156C25.32 16.164 25.296 16.168 25.28 16.168C25.208 16.176 25.148 16.156 25.1 16.108C25.06 16.068 25.008 16.036 24.944 16.012C24.896 16.02 24.852 16.036 24.812 16.06C24.78 16.092 24.744 16.116 24.704 16.132C24.648 16.148 24.58 16.144 24.5 16.12L24.416 16.084H24.404C24.388 16.092 24.364 16.104 24.332 16.12C24.308 16.136 24.284 16.148 24.26 16.156C24.204 16.172 24.144 16.16 24.08 16.12C24.016 16.08 23.948 16.036 23.876 15.988C23.844 15.972 23.816 15.956 23.792 15.94C23.704 15.876 23.66 15.788 23.66 15.676V8.116C23.66 8.052 23.66 7.988 23.66 7.924C23.66 7.852 23.68 7.788 23.72 7.732C23.752 7.684 23.796 7.648 23.852 7.624C23.9 7.608 23.94 7.6 23.972 7.6C24.012 7.592 24.052 7.592 24.092 7.6C24.14 7.6 24.184 7.6 24.224 7.6H27.176C27.336 7.6 27.496 7.6 27.656 7.6C27.816 7.592 27.972 7.6 28.124 7.624C28.532 7.656 28.904 7.732 29.24 7.852C29.584 7.964 29.88 8.112 30.128 8.296C30.176 8.32 30.22 8.352 30.26 8.392C30.26 8.392 30.26 8.396 30.26 8.404C30.268 8.404 30.272 8.408 30.272 8.416C30.28 8.416 30.288 8.42 30.296 8.428C30.592 8.676 30.816 8.976 30.968 9.328C31.128 9.68 31.208 10.076 31.208 10.516C31.208 10.78 31.176 11.032 31.112 11.272C31.096 11.424 31.064 11.524 31.016 11.572C31 11.604 30.992 11.624 30.992 11.632C30.952 11.728 30.904 11.82 30.848 11.908C30.8 11.996 30.744 12.084 30.68 12.172C30.672 12.18 30.664 12.192 30.656 12.208C30.648 12.216 30.64 12.224 30.632 12.232C30.624 12.24 30.616 12.248 30.608 12.256C30.6 12.264 30.592 12.276 30.584 12.292L30.488 12.4C30.48 12.408 30.468 12.416 30.452 12.424C30.444 12.432 30.436 12.444 30.428 12.46C30.404 12.476 30.38 12.496 30.356 12.52C30.34 12.544 30.32 12.564 30.296 12.58C30.288 12.692 30.304 12.86 30.344 13.084C30.384 13.308 30.408 13.528 30.416 13.744C30.432 13.768 30.448 13.792 30.464 13.816C30.48 13.84 30.492 13.868 30.5 13.9C30.58 14.036 30.66 14.204 30.74 14.404L31.028 14.932C31.068 15.012 31.108 15.088 31.148 15.16C31.196 15.232 31.24 15.304 31.28 15.376C31.296 15.408 31.312 15.436 31.328 15.46C31.344 15.484 31.356 15.512 31.364 15.544C31.372 15.552 31.38 15.568 31.388 15.592C31.396 15.608 31.4 15.624 31.4 15.64C31.416 15.672 31.424 15.704 31.424 15.736ZM26.756 11.104H27.536C27.576 11.104 27.628 11.096 27.692 11.08C27.772 11.056 27.836 11.008 27.884 10.936C27.94 10.864 27.984 10.78 28.016 10.684C28.032 10.644 28.044 10.604 28.052 10.564C28.06 10.516 28.064 10.468 28.064 10.42C28.064 10.332 28.048 10.244 28.016 10.156C27.984 10.068 27.932 9.996 27.86 9.94C27.828 9.908 27.784 9.892 27.728 9.892C27.672 9.884 27.62 9.884 27.572 9.892C27.484 9.9 27.392 9.912 27.296 9.928C27.208 9.936 27.116 9.932 27.02 9.916C26.972 9.908 26.924 9.9 26.876 9.892C26.836 9.876 26.796 9.864 26.756 9.856C26.74 9.848 26.728 9.844 26.72 9.844C26.72 9.836 26.7 9.832 26.66 9.832V10.852C26.66 10.996 26.668 11.064 26.684 11.056C26.7 11.048 26.724 11.064 26.756 11.104ZM30.152 13.312C30.192 13.008 30.212 12.788 30.212 12.652C30.212 12.652 30.204 12.66 30.188 12.676C30.188 12.684 30.184 12.692 30.176 12.7C30.176 12.7 30.176 12.704 30.176 12.712C30.176 12.72 30.176 12.736 30.176 12.76C30.176 12.784 30.168 12.82 30.152 12.868C30.136 12.9 30.12 12.92 30.104 12.928C30.08 12.936 30.064 12.92 30.056 12.88C30.048 12.84 30.028 12.828 29.996 12.844C29.996 12.868 29.98 12.884 29.948 12.892C29.94 12.9 29.932 12.9 29.924 12.892C29.924 12.876 29.92 12.868 29.912 12.868L29.948 12.94C29.964 12.948 29.976 12.964 29.984 12.988C29.992 13.004 30 13.02 30.008 13.036L30.152 13.312ZM28.568 16.312C28.584 16.296 28.596 16.276 28.604 16.252C28.62 16.228 28.612 16.192 28.58 16.144C28.58 16.144 28.576 16.144 28.568 16.144C28.568 16.144 28.568 16.148 28.568 16.156C28.56 16.172 28.556 16.192 28.556 16.216C28.564 16.248 28.568 16.28 28.568 16.312ZM39.2202 14.404C39.2202 14.564 39.2242 14.752 39.2322 14.968C39.2402 15.176 39.2402 15.368 39.2322 15.544C39.2322 15.584 39.2322 15.624 39.2322 15.664C39.2322 15.704 39.2242 15.744 39.2082 15.784C39.2082 15.792 39.2042 15.8 39.1962 15.808C39.1882 15.84 39.1722 15.868 39.1482 15.892C39.1242 15.908 39.1002 15.924 39.0762 15.94C39.0682 15.956 39.0522 15.972 39.0282 15.988C39.0122 16.004 38.9962 16.024 38.9802 16.048C38.9722 16.064 38.9602 16.084 38.9442 16.108C38.9282 16.132 38.9122 16.156 38.8962 16.18C38.8882 16.188 38.8802 16.196 38.8722 16.204C38.8642 16.212 38.8562 16.224 38.8482 16.24C38.8082 16.288 38.7642 16.336 38.7162 16.384C38.6762 16.432 38.6362 16.484 38.5962 16.54L38.5122 16.66C38.4802 16.7 38.4522 16.74 38.4282 16.78C38.4042 16.82 38.3762 16.86 38.3442 16.9C38.3282 16.916 38.3202 16.924 38.3202 16.924C38.2962 16.956 38.2522 16.992 38.1882 17.032C38.1802 17.04 38.1722 17.044 38.1642 17.044C38.1562 17.052 38.1442 17.06 38.1282 17.068C38.1122 17.076 38.0922 17.092 38.0682 17.116C38.0442 17.14 38.0202 17.156 37.9962 17.164C37.9642 17.172 37.9282 17.164 37.8882 17.14C37.8562 17.124 37.8282 17.108 37.8042 17.092C37.7882 17.076 37.7762 17.068 37.7682 17.068C37.7842 17.052 37.7722 17.06 37.7322 17.092C37.7002 17.124 37.6762 17.148 37.6602 17.164C37.6442 17.332 37.6362 17.5 37.6362 17.668C37.6362 17.844 37.6282 18.02 37.6122 18.196C37.6042 18.268 37.6122 18.356 37.6362 18.46C37.6602 18.564 37.6362 18.624 37.5642 18.64C37.4922 18.648 37.4642 18.596 37.4802 18.484C37.5042 18.372 37.5162 18.28 37.5162 18.208C37.5082 18.024 37.5002 17.844 37.4922 17.668C37.4922 17.492 37.4842 17.316 37.4682 17.14C37.4602 17.132 37.4562 17.124 37.4562 17.116C37.4482 17.116 37.4402 17.112 37.4322 17.104L37.3722 17.008C37.3402 16.944 37.3042 16.876 37.2642 16.804C37.2322 16.732 37.1962 16.664 37.1562 16.6L36.9762 16.288C36.9682 16.256 36.9562 16.224 36.9402 16.192C36.9242 16.168 36.9082 16.136 36.8922 16.096L36.8802 16.084C36.8722 16.132 36.8682 16.18 36.8682 16.228C36.8682 16.284 36.8602 16.336 36.8442 16.384C36.8362 16.392 36.8282 16.408 36.8202 16.432C36.8122 16.456 36.8042 16.464 36.7962 16.456C36.7882 16.416 36.7802 16.372 36.7722 16.324C36.7722 16.284 36.7722 16.248 36.7722 16.216C36.7402 16.28 36.7202 16.324 36.7122 16.348C36.6882 16.404 36.6642 16.46 36.6402 16.516C36.6162 16.58 36.5882 16.644 36.5562 16.708C36.5322 16.764 36.4922 16.836 36.4362 16.924C36.4362 16.932 36.4322 16.936 36.4242 16.936C36.4162 16.952 36.3962 16.976 36.3642 17.008C36.3482 17.024 36.3362 17.032 36.3282 17.032C36.3122 17.088 36.3002 17.144 36.2922 17.2C36.2922 17.264 36.2882 17.328 36.2802 17.392C36.2722 17.432 36.2642 17.468 36.2562 17.5C36.2482 17.54 36.2402 17.58 36.2322 17.62C36.2242 17.636 36.2122 17.66 36.1962 17.692C36.1882 17.732 36.1802 17.744 36.1722 17.728C36.1562 17.64 36.1602 17.54 36.1842 17.428C36.2082 17.324 36.1882 17.244 36.1242 17.188C36.1002 17.164 36.0882 17.176 36.0882 17.224C36.0882 17.272 36.0922 17.332 36.1002 17.404C36.1162 17.476 36.1242 17.536 36.1242 17.584C36.1242 17.64 36.1082 17.656 36.0762 17.632C36.0122 17.576 35.9962 17.492 36.0282 17.38C36.0602 17.276 36.0602 17.184 36.0282 17.104C36.0202 17.064 36.0162 17.088 36.0162 17.176C36.0242 17.264 36.0122 17.324 35.9802 17.356C35.9722 17.372 35.9642 17.356 35.9562 17.308C35.9562 17.268 35.9482 17.236 35.9322 17.212C35.9242 17.196 35.9082 17.16 35.8842 17.104C35.8682 17.048 35.8402 17.032 35.8002 17.056C35.8002 17.056 35.7962 17.056 35.7882 17.056C35.7882 17.056 35.7882 17.06 35.7882 17.068C35.7722 17.084 35.7442 17.116 35.7042 17.164C35.6642 17.22 35.6162 17.272 35.5602 17.32C35.5602 17.32 35.5442 17.328 35.5122 17.344C35.5042 17.432 35.5122 17.552 35.5362 17.704C35.5602 17.856 35.5842 18.004 35.6082 18.148C35.6322 18.3 35.6362 18.424 35.6202 18.52C35.6042 18.616 35.5522 18.656 35.4642 18.64C35.3762 18.624 35.3242 18.564 35.3082 18.46C35.2922 18.356 35.2922 18.232 35.3082 18.088C35.3322 17.952 35.3562 17.812 35.3802 17.668C35.4122 17.532 35.4242 17.416 35.4162 17.32C35.4082 17.32 35.4042 17.316 35.4042 17.308C35.4042 17.308 35.4002 17.308 35.3922 17.308C35.3842 17.308 35.3802 17.304 35.3802 17.296C35.3642 17.28 35.3482 17.256 35.3322 17.224C35.3162 17.208 35.3002 17.184 35.2842 17.152C35.2442 17.056 35.2042 16.952 35.1642 16.84L34.9842 16.48C34.9762 16.464 34.9682 16.448 34.9602 16.432C34.9602 16.416 34.9522 16.4 34.9362 16.384C34.8962 16.368 34.8522 16.352 34.8042 16.336C34.7642 16.32 34.7242 16.304 34.6842 16.288C34.7002 16.272 34.7002 16.256 34.6842 16.24C34.6762 16.248 34.6722 16.256 34.6722 16.264C34.6722 16.272 34.6722 16.276 34.6722 16.276C34.6562 16.276 34.6322 16.268 34.6002 16.252C34.6002 16.252 34.5962 16.252 34.5882 16.252C34.5882 16.252 34.5882 16.248 34.5882 16.24C34.5802 16.248 34.5722 16.256 34.5642 16.264C34.5562 16.28 34.5482 16.292 34.5402 16.3C34.4922 16.364 34.4442 16.42 34.3962 16.468L34.3722 16.492C34.3722 16.492 34.3682 16.492 34.3602 16.492C34.3602 16.492 34.3602 16.496 34.3602 16.504C34.3522 16.504 34.3442 16.504 34.3362 16.504C34.3362 16.512 34.3322 16.516 34.3242 16.516C34.3162 16.636 34.3082 16.804 34.3002 17.02C34.3002 17.244 34.2962 17.464 34.2882 17.68C34.2882 17.904 34.2802 18.076 34.2642 18.196C34.2642 18.204 34.2562 18.212 34.2402 18.22C34.2242 18.236 34.2162 18.24 34.2162 18.232C34.1682 18.144 34.1522 18.016 34.1682 17.848C34.1842 17.688 34.2042 17.516 34.2282 17.332C34.2602 17.156 34.2722 16.984 34.2642 16.816C34.2562 16.656 34.2082 16.532 34.1202 16.444L33.9522 16.228C33.9442 16.212 33.9322 16.196 33.9162 16.18C33.9082 16.164 33.8962 16.152 33.8802 16.144C33.8642 16.112 33.8362 16.076 33.7962 16.036C33.7962 16.044 33.7922 16.048 33.7842 16.048C33.7602 16.08 33.7282 16.108 33.6882 16.132L33.6042 16.168C33.5962 16.168 33.5922 16.168 33.5922 16.168C33.5922 16.176 33.5882 16.18 33.5802 16.18C33.5802 16.196 33.5802 16.22 33.5802 16.252C33.5802 16.292 33.5722 16.344 33.5562 16.408L33.4602 17.02C33.4522 17.076 33.4442 17.128 33.4362 17.176C33.4282 17.224 33.4162 17.272 33.4002 17.32C33.3922 17.368 33.3842 17.436 33.3762 17.524C33.3682 17.612 33.3602 17.636 33.3522 17.596C33.2962 17.508 33.2722 17.396 33.2802 17.26C33.2882 17.124 33.3042 16.992 33.3282 16.864C33.3602 16.744 33.3722 16.648 33.3642 16.576C33.3562 16.504 33.3082 16.484 33.2202 16.516C33.1082 16.54 33.0122 16.524 32.9322 16.468C32.9162 16.452 32.9002 16.436 32.8842 16.42C32.8682 16.404 32.8522 16.392 32.8362 16.384C32.8282 16.368 32.8162 16.348 32.8002 16.324C32.7922 16.308 32.7882 16.308 32.7882 16.324C32.7802 16.404 32.7802 16.508 32.7882 16.636C32.8042 16.772 32.8162 16.9 32.8242 17.02C32.8322 17.148 32.8322 17.24 32.8242 17.296C32.8162 17.36 32.7882 17.36 32.7402 17.296C32.6682 17.2 32.6322 17.088 32.6322 16.96C32.6402 16.84 32.6562 16.712 32.6802 16.576C32.7122 16.448 32.7162 16.324 32.6922 16.204C32.6842 16.148 32.6802 16.152 32.6802 16.216C32.6882 16.288 32.6882 16.372 32.6802 16.468C32.6802 16.564 32.6682 16.636 32.6442 16.684C32.6202 16.74 32.6082 16.712 32.6082 16.6C32.6162 16.488 32.6202 16.404 32.6202 16.348L32.5362 15.988C32.5042 15.972 32.4762 15.956 32.4522 15.94C32.3642 15.876 32.3202 15.788 32.3202 15.676V8.116C32.3202 8.052 32.3202 7.988 32.3202 7.924C32.3202 7.852 32.3402 7.788 32.3802 7.732C32.4042 7.684 32.4522 7.648 32.5242 7.624C32.5402 7.616 32.5562 7.612 32.5722 7.612C32.5962 7.604 32.6242 7.6 32.6562 7.6H38.5122C38.5922 7.6 38.6762 7.6 38.7642 7.6C38.8522 7.592 38.9282 7.612 38.9922 7.66L39.0642 7.732C39.1042 7.788 39.1242 7.848 39.1242 7.912V9.328C39.1322 9.36 39.1362 9.4 39.1362 9.448C39.1362 9.488 39.1362 9.528 39.1362 9.568C39.1362 9.608 39.1282 9.66 39.1122 9.724C39.1122 9.732 39.1082 9.74 39.1002 9.748C39.1002 9.748 39.1002 9.752 39.1002 9.76C39.0922 9.76 39.0882 9.764 39.0882 9.772C39.0722 9.788 39.0642 9.796 39.0642 9.796C39.0562 9.812 39.0282 9.84 38.9802 9.88C38.9322 9.92 38.9042 9.944 38.8962 9.952C38.8802 9.968 38.8642 9.98 38.8482 9.988C38.8162 10.004 38.8002 10.012 38.8002 10.012C38.8002 10.004 38.8002 9.996 38.8002 9.988C38.8002 9.988 38.7922 9.984 38.7762 9.976C38.7602 9.96 38.7242 9.956 38.6682 9.964C38.6202 9.98 38.5802 9.988 38.5482 9.988C38.4922 9.996 38.4362 10 38.3802 10C38.3322 10 38.2802 10.008 38.2242 10.024C38.1682 10.04 38.1162 10.064 38.0682 10.096C38.0282 10.12 37.9842 10.14 37.9362 10.156C37.8962 10.164 37.8562 10.176 37.8162 10.192C37.7762 10.2 37.7362 10.212 37.6962 10.228C37.6562 10.236 37.6162 10.256 37.5762 10.288C37.5362 10.312 37.4962 10.328 37.4562 10.336C37.4002 10.344 37.3362 10.328 37.2642 10.288C37.2402 10.264 37.2202 10.252 37.2042 10.252C37.1962 10.252 37.1922 10.252 37.1922 10.252C37.1842 10.276 37.1682 10.292 37.1442 10.3C37.1122 10.332 37.0722 10.364 37.0242 10.396C36.9842 10.42 36.9402 10.44 36.8922 10.456C36.8362 10.48 36.7842 10.488 36.7362 10.48C36.6962 10.464 36.6482 10.452 36.5922 10.444C36.5602 10.436 36.5242 10.436 36.4842 10.444C36.4442 10.444 36.4042 10.44 36.3642 10.432C36.2842 10.416 36.2082 10.388 36.1362 10.348C36.0642 10.308 35.9922 10.268 35.9202 10.228C35.8562 10.188 35.7842 10.156 35.7042 10.132C35.6322 10.1 35.5602 10.072 35.4882 10.048L35.2002 9.94V10.552L35.2482 10.696H38.0562C38.1442 10.696 38.2482 10.692 38.3682 10.684C38.4882 10.676 38.5922 10.692 38.6802 10.732C38.6882 10.732 38.6962 10.736 38.7042 10.744C38.7522 10.776 38.7842 10.804 38.8002 10.828C38.8242 10.86 38.8402 10.896 38.8482 10.936C38.8562 10.976 38.8642 11.016 38.8722 11.056C38.8722 11.104 38.8682 11.156 38.8602 11.212C38.8602 11.26 38.8602 11.308 38.8602 11.356V12.472C38.8602 12.504 38.8602 12.536 38.8602 12.568C38.8682 12.592 38.8682 12.616 38.8602 12.64C38.8602 12.656 38.8522 12.68 38.8362 12.712C38.8362 12.72 38.8322 12.724 38.8242 12.724C38.8242 12.724 38.8242 12.728 38.8242 12.736C38.7922 12.8 38.7362 12.852 38.6562 12.892C38.6482 12.892 38.6442 12.896 38.6442 12.904C38.6442 12.904 38.6402 12.904 38.6322 12.904C38.5842 12.936 38.5322 12.96 38.4762 12.976C38.4282 12.984 38.3842 12.996 38.3442 13.012C38.2802 13.044 38.2162 13.084 38.1522 13.132C38.0882 13.172 38.0202 13.2 37.9482 13.216C37.9082 13.224 37.8642 13.232 37.8162 13.24C37.7682 13.24 37.7242 13.248 37.6842 13.264C37.6442 13.272 37.6042 13.284 37.5642 13.3C37.5242 13.316 37.4842 13.332 37.4442 13.348C37.3722 13.372 37.3002 13.384 37.2282 13.384C37.1562 13.384 37.0882 13.388 37.0242 13.396H36.9642C36.9482 13.396 36.9322 13.4 36.9162 13.408C36.9002 13.408 36.8842 13.404 36.8682 13.396C36.8202 13.388 36.7762 13.376 36.7362 13.36C36.7042 13.336 36.6682 13.32 36.6282 13.312C36.5562 13.296 36.4842 13.304 36.4122 13.336C36.3402 13.36 36.2682 13.364 36.1962 13.348C36.1402 13.332 36.0842 13.304 36.0282 13.264C35.9802 13.216 35.9242 13.172 35.8602 13.132C35.7962 13.1 35.7282 13.068 35.6562 13.036C35.5842 13.004 35.5122 12.976 35.4402 12.952C35.4562 12.952 35.4242 12.944 35.3442 12.928C35.2642 12.912 35.2162 12.904 35.2002 12.904V13.516L35.2482 13.66H38.8962C38.9442 13.66 38.9922 13.672 39.0402 13.696C39.0562 13.696 39.0762 13.708 39.1002 13.732C39.1162 13.74 39.1282 13.748 39.1362 13.756C39.1442 13.764 39.1522 13.776 39.1602 13.792C39.1762 13.808 39.1922 13.84 39.2082 13.888C39.2162 13.912 39.2202 13.948 39.2202 13.996V14.404ZM48.6521 15.484C48.6761 15.532 48.6961 15.584 48.7121 15.64C48.7361 15.688 48.7401 15.74 48.7241 15.796C48.7161 15.828 48.7041 15.856 48.6881 15.88C48.6721 15.896 48.6561 15.912 48.6401 15.928L48.6041 15.964C48.5961 15.98 48.5881 16 48.5801 16.024C48.5801 16.048 48.5721 16.068 48.5561 16.084C48.5481 16.108 48.5401 16.132 48.5321 16.156C48.5321 16.18 48.5241 16.204 48.5081 16.228C48.5001 16.252 48.4921 16.284 48.4841 16.324C48.4841 16.372 48.4761 16.388 48.4601 16.372C48.4361 16.348 48.4241 16.316 48.4241 16.276C48.4241 16.244 48.4241 16.212 48.4241 16.18C48.3921 16.22 48.3561 16.26 48.3161 16.3C48.2841 16.348 48.2521 16.392 48.2201 16.432C48.1641 16.52 48.1081 16.612 48.0521 16.708C47.9961 16.812 47.9441 16.912 47.8961 17.008C47.8641 17.072 47.8321 17.14 47.8001 17.212C47.7681 17.284 47.7321 17.352 47.6921 17.416C47.6441 17.496 47.6161 17.54 47.6081 17.548C47.6001 17.556 47.5721 17.584 47.5241 17.632H47.5121C47.5041 17.64 47.4881 17.652 47.4641 17.668C47.4561 17.74 47.4481 17.812 47.4401 17.884C47.4401 17.964 47.4321 18.04 47.4161 18.112C47.4081 18.128 47.4001 18.12 47.3921 18.088C47.3841 18.056 47.3761 18.032 47.3681 18.016C47.3601 17.952 47.3561 17.884 47.3561 17.812C47.3561 17.748 47.3481 17.684 47.3321 17.62C47.3081 17.596 47.2841 17.56 47.2601 17.512C47.2601 17.504 47.2561 17.496 47.2481 17.488C47.2241 17.432 47.2001 17.376 47.1761 17.32C47.1601 17.272 47.1401 17.22 47.1161 17.164C47.0761 17.084 47.0321 17.02 46.9841 16.972C46.9761 16.964 46.9681 16.96 46.9601 16.96C46.9601 16.96 46.9561 16.956 46.9481 16.948C46.9401 16.956 46.9321 16.964 46.9241 16.972C46.9161 16.98 46.9081 16.988 46.9001 16.996C46.8281 17.044 46.7961 17.076 46.8041 17.092C46.8201 17.108 46.8441 17.12 46.8761 17.128C46.9161 17.144 46.9361 17.168 46.9361 17.2C46.9361 17.24 46.8921 17.304 46.8041 17.392C46.7801 17.424 46.7681 17.4 46.7681 17.32C46.7681 17.248 46.7641 17.196 46.7561 17.164C46.7481 17.116 46.7401 17.064 46.7321 17.008C46.7321 16.96 46.7241 16.912 46.7081 16.864C46.6601 16.816 46.6241 16.76 46.6001 16.696C46.5761 16.656 46.5521 16.612 46.5281 16.564C46.5121 16.524 46.4961 16.484 46.4801 16.444L46.4441 16.348C46.4361 16.324 46.4201 16.3 46.3961 16.276C46.3801 16.26 46.3641 16.244 46.3481 16.228C46.3481 16.22 46.3481 16.22 46.3481 16.228C46.3321 16.228 46.2801 16.256 46.1921 16.312C46.1921 16.32 46.1961 16.32 46.2041 16.312C46.2121 16.304 46.2601 16.276 46.3481 16.228L46.3361 16.216L46.3121 16.192C46.2081 16.296 46.1641 16.348 46.1801 16.348C46.1961 16.348 46.2281 16.328 46.2761 16.288C46.3241 16.256 46.3521 16.232 46.3601 16.216C46.3681 16.2 46.3121 16.232 46.1921 16.312L46.1681 16.336C46.1601 16.328 46.1521 16.312 46.1441 16.288C46.1361 16.264 46.1321 16.26 46.1321 16.276C46.1161 16.324 46.1081 16.392 46.1081 16.48C46.1081 16.576 46.1001 16.604 46.0841 16.564C46.0681 16.524 46.0601 16.46 46.0601 16.372C46.0601 16.292 46.0521 16.216 46.0361 16.144C46.0121 16.104 45.9881 16.06 45.9641 16.012C45.9481 15.972 45.9281 15.932 45.9041 15.892C45.8881 15.892 45.8801 15.884 45.8801 15.868C45.8641 15.852 45.8441 15.832 45.8201 15.808C45.8041 15.784 45.8001 15.776 45.8081 15.784C45.8001 15.768 45.7921 15.752 45.7841 15.736C45.7761 15.72 45.7681 15.708 45.7601 15.7C45.7281 15.62 45.7001 15.54 45.6761 15.46C45.6521 15.38 45.6241 15.3 45.5921 15.22C45.5841 15.204 45.5801 15.192 45.5801 15.184C45.5801 15.176 45.5761 15.168 45.5681 15.16C45.5681 15.144 45.5601 15.12 45.5441 15.088C45.5441 15.072 45.5401 15.06 45.5321 15.052C45.5321 15.044 45.5281 15.032 45.5201 15.016C45.5201 15 45.5161 14.992 45.5081 14.992C45.5081 14.976 45.5001 14.952 45.4841 14.92C45.4841 14.912 45.4841 14.908 45.4841 14.908C45.4841 14.908 45.4681 14.908 45.4361 14.908C45.4281 14.924 45.4241 14.948 45.4241 14.98C45.4241 15.012 45.4081 15.036 45.3761 15.052C45.3601 15.092 45.3401 15.136 45.3161 15.184C45.2921 15.224 45.2681 15.264 45.2441 15.304C45.1881 15.408 45.1321 15.524 45.0761 15.652C45.0281 15.772 44.9761 15.9 44.9201 16.036C44.8881 16.132 44.8521 16.228 44.8121 16.324C44.7801 16.42 44.7441 16.508 44.7041 16.588C44.6721 16.66 44.6401 16.732 44.6081 16.804C44.5761 16.884 44.5401 16.956 44.5001 17.02C44.4921 17.036 44.4761 17.056 44.4521 17.08C44.4361 17.112 44.4121 17.128 44.3801 17.128C44.3481 17.136 44.3161 17.124 44.2841 17.092C44.2521 17.044 44.2241 16.992 44.2001 16.936C44.1841 16.88 44.1681 16.824 44.1521 16.768C44.1121 16.68 44.0761 16.576 44.0441 16.456C44.0121 16.336 43.9841 16.212 43.9601 16.084C43.9281 15.956 43.8961 15.832 43.8641 15.712C43.8401 15.592 43.8081 15.488 43.7681 15.4L43.7321 15.304C43.7241 15.288 43.7161 15.272 43.7081 15.256C43.7081 15.24 43.7041 15.22 43.6961 15.196C43.6801 15.164 43.6681 15.136 43.6601 15.112C43.6521 15.104 43.6441 15.096 43.6361 15.088C43.6281 15.072 43.6241 15.072 43.6241 15.088C43.6081 15.168 43.6001 15.256 43.6001 15.352C43.6001 15.44 43.5921 15.528 43.5761 15.616C43.5681 15.648 43.5601 15.64 43.5521 15.592C43.5441 15.536 43.5361 15.496 43.5281 15.472C43.4721 15.36 43.4561 15.292 43.4801 15.268C43.5041 15.244 43.5281 15.224 43.5521 15.208C43.5761 15.192 43.5561 15.14 43.4921 15.052C43.4841 15.052 43.4721 15.068 43.4561 15.1C43.4481 15.108 43.4441 15.116 43.4441 15.124C43.4441 15.132 43.4401 15.14 43.4321 15.148C43.4161 15.172 43.4001 15.196 43.3841 15.22C43.3681 15.236 43.3481 15.252 43.3241 15.268C43.3081 15.284 43.2961 15.292 43.2881 15.292C43.2801 15.38 43.2721 15.472 43.2641 15.568C43.2641 15.656 43.2561 15.744 43.2401 15.832C43.2401 15.84 43.2321 15.848 43.2161 15.856C43.2001 15.864 43.1921 15.864 43.1921 15.856C43.1761 15.76 43.1681 15.664 43.1681 15.568C43.1681 15.464 43.1601 15.36 43.1441 15.256C43.1041 15.216 43.0681 15.168 43.0361 15.112C43.0041 15.056 42.9761 15.012 42.9521 14.98C42.8801 14.836 42.8481 14.768 42.8561 14.776C42.8641 14.776 42.8761 14.8 42.8921 14.848C42.9081 14.904 42.9081 14.94 42.8921 14.956C42.8681 15.004 42.8561 15.032 42.8561 15.04C42.8481 15.064 42.8401 15.088 42.8321 15.112C42.8241 15.128 42.8161 15.148 42.8081 15.172C42.7921 15.22 42.7761 15.268 42.7601 15.316C42.7441 15.364 42.7281 15.408 42.7121 15.448L42.6401 15.652C42.6321 15.684 42.6201 15.716 42.6041 15.748C42.5881 15.772 42.5721 15.796 42.5561 15.82C42.5321 15.86 42.5001 15.892 42.4601 15.916C42.4441 15.932 42.4281 15.956 42.4121 15.988L42.3761 16.072C42.3601 16.136 42.3401 16.204 42.3161 16.276C42.2921 16.348 42.2681 16.416 42.2441 16.48C42.2441 16.488 42.2401 16.492 42.2321 16.492C42.2321 16.5 42.2321 16.504 42.2321 16.504C42.2241 16.56 42.2121 16.612 42.1961 16.66C42.1801 16.716 42.1641 16.772 42.1481 16.828C42.1401 16.836 42.1361 16.848 42.1361 16.864C42.1361 16.88 42.1321 16.896 42.1241 16.912C42.1001 17.008 42.0761 17.104 42.0521 17.2C42.0361 17.304 42.0121 17.4 41.9801 17.488C41.9641 17.568 41.9441 17.644 41.9201 17.716C41.8961 17.788 41.8721 17.86 41.8481 17.932C41.8401 17.964 41.8241 17.996 41.8001 18.028C41.7841 18.068 41.7681 18.108 41.7521 18.148L41.6801 18.244C41.6561 18.268 41.6241 18.288 41.5841 18.304C41.5761 18.392 41.5681 18.48 41.5601 18.568C41.5601 18.664 41.5521 18.756 41.5361 18.844C41.5281 18.86 41.5161 18.876 41.5001 18.892C41.4841 18.908 41.4761 18.912 41.4761 18.904C41.4601 18.792 41.4521 18.684 41.4521 18.58C41.4521 18.476 41.4441 18.372 41.4281 18.268C41.4121 18.252 41.3961 18.236 41.3801 18.22C41.3721 18.204 41.3601 18.192 41.3441 18.184L41.2361 18.064C41.2281 18.048 41.2161 18.032 41.2001 18.016C41.1921 18 41.1801 17.984 41.1641 17.968C41.1321 17.92 41.0961 17.872 41.0561 17.824C41.0241 17.776 40.9961 17.728 40.9721 17.68C40.8841 17.528 40.8081 17.372 40.7441 17.212C40.6801 17.06 40.6121 16.908 40.5401 16.756C40.5081 16.692 40.4761 16.624 40.4441 16.552C40.4121 16.488 40.3761 16.424 40.3361 16.36C40.3281 16.352 40.3201 16.344 40.3121 16.336C40.3121 16.328 40.3081 16.32 40.3001 16.312C40.2841 16.28 40.2641 16.252 40.2401 16.228C40.2081 16.196 40.1841 16.176 40.1681 16.168C40.1681 16.168 40.1641 16.164 40.1561 16.156C40.1561 16.156 40.1561 16.152 40.1561 16.144C40.1481 16.144 40.1441 16.14 40.1441 16.132C40.1441 16.132 40.1401 16.132 40.1321 16.132C40.1081 16.172 40.0921 16.216 40.0841 16.264C40.0841 16.312 40.0721 16.356 40.0481 16.396C40.0481 16.428 40.0361 16.444 40.0121 16.444C39.9801 16.452 39.9561 16.424 39.9401 16.36C39.9321 16.304 39.9281 16.284 39.9281 16.3C39.8961 16.468 39.8841 16.504 39.8921 16.408C39.9081 16.312 39.9001 16.176 39.8681 16C39.8601 15.992 39.8521 15.988 39.8441 15.988C39.8361 15.988 39.8281 15.984 39.8201 15.976C39.7961 15.968 39.7641 15.944 39.7241 15.904C39.7081 15.888 39.6921 15.864 39.6761 15.832C39.6601 15.8 39.6561 15.752 39.6641 15.688C39.6721 15.64 39.6841 15.592 39.7001 15.544C39.7161 15.496 39.7321 15.452 39.7481 15.412C39.7641 15.356 39.7801 15.308 39.7961 15.268C39.8201 15.22 39.8361 15.192 39.8441 15.184L40.2521 14.02C40.2921 13.86 40.3281 13.708 40.3601 13.564C40.4001 13.412 40.4441 13.288 40.4921 13.192C40.4921 13.184 40.4921 13.176 40.4921 13.168C40.5001 13.16 40.5041 13.152 40.5041 13.144C40.5201 13.112 40.5321 13.08 40.5401 13.048C40.5561 13.016 40.5721 12.984 40.5881 12.952C40.6041 12.92 40.6201 12.892 40.6361 12.868C40.6521 12.836 40.6641 12.812 40.6721 12.796L41.2961 11.008C41.3361 10.864 41.3721 10.728 41.4041 10.6C41.4441 10.464 41.4801 10.356 41.5121 10.276C41.5361 10.196 41.5561 10.12 41.5721 10.048C41.5961 9.968 41.6201 9.896 41.6441 9.832C41.6681 9.744 41.6961 9.664 41.7281 9.592C41.8161 9.328 41.8961 9.16 41.9681 9.088L42.1841 8.464L42.3521 7.996C42.3761 7.908 42.4321 7.82 42.5201 7.732C42.6081 7.644 42.7401 7.6 42.9161 7.6H45.4961C45.5921 7.6 45.6721 7.616 45.7361 7.648C45.7601 7.656 45.7961 7.676 45.8441 7.708C45.9001 7.748 45.9441 7.796 45.9761 7.852C46.0081 7.908 46.0361 7.968 46.0601 8.032C46.0601 8.048 46.0681 8.072 46.0841 8.104L46.1201 8.224C46.1281 8.24 46.1321 8.26 46.1321 8.284C46.1401 8.308 46.1481 8.328 46.1561 8.344L46.2641 8.608C46.2641 8.616 46.2641 8.624 46.2641 8.632C46.2721 8.632 46.2761 8.636 46.2761 8.644C46.2921 8.676 46.3001 8.704 46.3001 8.728C46.3241 8.784 46.3441 8.844 46.3601 8.908C46.3841 8.972 46.4041 9.036 46.4201 9.1C46.4281 9.116 46.4361 9.136 46.4441 9.16C46.4521 9.184 46.4601 9.204 46.4681 9.22L46.4921 9.304C46.5401 9.352 46.5921 9.448 46.6481 9.592C46.7121 9.728 46.7761 9.896 46.8401 10.096L46.8761 10.216C46.9321 10.344 46.9801 10.476 47.0201 10.612C47.0681 10.748 47.1081 10.884 47.1401 11.02C47.1801 11.1 47.2201 11.212 47.2601 11.356C47.3001 11.5 47.3361 11.652 47.3681 11.812L47.9561 13.48C48.0041 13.56 48.0521 13.68 48.1001 13.84C48.1561 13.992 48.2121 14.164 48.2681 14.356C48.2841 14.396 48.2961 14.436 48.3041 14.476C48.3201 14.516 48.3321 14.556 48.3401 14.596L48.6041 15.352C48.6281 15.392 48.6441 15.436 48.6521 15.484ZM44.1761 10.384C44.1761 10.392 44.1721 10.404 44.1641 10.42C44.1561 10.436 44.1521 10.452 44.1521 10.468C44.1361 10.524 44.1161 10.58 44.0921 10.636C44.0761 10.692 44.0601 10.752 44.0441 10.816L43.7681 11.752C43.7601 11.784 43.7521 11.816 43.7441 11.848C43.7361 11.872 43.7241 11.904 43.7081 11.944C43.7001 11.992 43.6881 12.044 43.6721 12.1C43.6561 12.148 43.6401 12.2 43.6241 12.256C43.6161 12.288 43.6081 12.32 43.6001 12.352C43.5921 12.384 43.5801 12.416 43.5641 12.448C43.5561 12.456 43.5521 12.468 43.5521 12.484C43.5521 12.492 43.5481 12.504 43.5401 12.52C43.5401 12.52 43.5401 12.524 43.5401 12.532C43.5401 12.532 43.5361 12.532 43.5281 12.532C43.5281 12.54 43.5241 12.548 43.5161 12.556C43.5161 12.556 43.5161 12.56 43.5161 12.568H44.5481C44.5881 12.568 44.6281 12.568 44.6681 12.568C44.7081 12.56 44.7441 12.56 44.7761 12.568H44.8721L44.8361 12.436C44.8201 12.396 44.8081 12.36 44.8001 12.328C44.7921 12.288 44.7801 12.252 44.7641 12.22L44.7281 12.112C44.6961 12.024 44.6641 11.928 44.6321 11.824C44.6081 11.712 44.5801 11.604 44.5481 11.5C44.5401 11.492 44.5361 11.476 44.5361 11.452L44.3321 10.816L44.2601 10.564C44.2601 10.564 44.2521 10.548 44.2361 10.516C44.2281 10.476 44.2201 10.44 44.2121 10.408C44.2041 10.4 44.2001 10.396 44.2001 10.396C44.2001 10.388 44.1921 10.384 44.1761 10.384ZM56.4674 14.764L56.3954 14.836C56.3794 14.86 56.3594 14.884 56.3354 14.908C56.3194 14.932 56.2994 14.952 56.2754 14.968C56.2674 14.984 56.2474 15.008 56.2154 15.04C56.1994 15.056 56.1874 15.064 56.1794 15.064L56.0714 15.172C56.0394 15.204 56.0194 15.228 56.0114 15.244C55.9954 15.308 55.9794 15.376 55.9634 15.448C55.9474 15.52 55.9314 15.588 55.9154 15.652C55.8994 15.716 55.8834 15.78 55.8674 15.844C55.8514 15.908 55.8354 15.972 55.8194 16.036L55.6754 16.552C55.6674 16.584 55.6554 16.62 55.6394 16.66C55.6314 16.7 55.6194 16.74 55.6034 16.78C55.5794 16.86 55.5434 16.936 55.4954 17.008L55.4594 17.044C55.4514 17.052 55.4434 17.06 55.4354 17.068C55.4274 17.076 55.4194 17.084 55.4114 17.092C55.4034 17.116 55.3954 17.14 55.3874 17.164C55.3794 17.196 55.3674 17.224 55.3514 17.248C55.3354 17.264 55.3154 17.264 55.2914 17.248C55.2354 17.208 55.2114 17.18 55.2194 17.164C55.2274 17.148 55.2394 17.14 55.2554 17.14C55.2714 17.148 55.2634 17.16 55.2314 17.176L55.1834 17.2C55.1754 17.208 55.1674 17.216 55.1594 17.224C55.1594 17.232 55.1594 17.236 55.1594 17.236C55.1354 17.268 55.1114 17.3 55.0874 17.332C55.0714 17.372 55.0514 17.408 55.0274 17.44C55.0194 17.448 55.0074 17.46 54.9914 17.476C54.9754 17.492 54.9554 17.5 54.9314 17.5C54.9074 17.5 54.8874 17.488 54.8714 17.464L54.8474 17.44C54.8314 17.408 54.8154 17.376 54.7994 17.344C54.7914 17.312 54.7794 17.28 54.7634 17.248C54.7634 17.24 54.7594 17.232 54.7514 17.224C54.7514 17.224 54.7514 17.22 54.7514 17.212C54.6954 17.06 54.6354 16.908 54.5714 16.756C54.5154 16.612 54.4514 16.468 54.3794 16.324C54.3634 16.292 54.3514 16.272 54.3434 16.264C54.3354 16.264 54.3274 16.26 54.3194 16.252C54.3114 16.252 54.2994 16.252 54.2834 16.252C54.2514 16.252 54.2354 16.252 54.2354 16.252C54.2274 16.356 54.2394 16.484 54.2714 16.636C54.3114 16.788 54.3314 16.92 54.3314 17.032C54.3394 17.144 54.2914 17.196 54.1874 17.188C54.0914 17.18 54.0434 17.12 54.0434 17.008C54.0434 16.904 54.0594 16.78 54.0914 16.636C54.1314 16.5 54.1474 16.38 54.1394 16.276C54.1314 16.324 54.1154 16.368 54.0914 16.408C54.0674 16.448 54.0474 16.488 54.0314 16.528L53.9474 16.672C53.9394 16.68 53.9274 16.688 53.9114 16.696C53.9034 16.712 53.8914 16.728 53.8754 16.744L53.8634 16.756C53.8314 16.772 53.8154 16.78 53.8154 16.78C53.8074 16.86 53.8034 16.944 53.8034 17.032C53.8114 17.12 53.8154 17.208 53.8154 17.296C53.7994 17.168 53.7634 17.1 53.7074 17.092C53.6594 17.076 53.6274 17.1 53.6114 17.164C53.6114 17.084 53.6114 17.004 53.6114 16.924C53.6194 16.852 53.6194 16.78 53.6114 16.708C53.6034 16.708 53.5914 16.704 53.5754 16.696C53.5674 16.688 53.5674 16.684 53.5754 16.684L53.5274 16.636L53.3834 16.48C53.3354 16.44 53.2874 16.4 53.2394 16.36C53.1994 16.32 53.1474 16.272 53.0834 16.216C53.0194 16.168 52.9914 16.144 52.9994 16.144C53.0154 16.152 53.0274 16.156 53.0354 16.156C53.0434 16.164 53.0114 16.152 52.9394 16.12C52.9234 16.136 52.9154 16.164 52.9154 16.204C52.9234 16.244 52.9274 16.264 52.9274 16.264C52.9274 16.264 52.9114 16.216 52.8794 16.12C52.1034 16.104 51.4154 15.976 50.8154 15.736C50.2234 15.488 49.7634 15.1 49.4354 14.572C49.2994 14.348 49.1954 14.112 49.1234 13.864C49.0994 13.816 49.0754 13.756 49.0514 13.684C49.0514 13.668 49.0474 13.656 49.0394 13.648C49.0394 13.64 49.0394 13.632 49.0394 13.624C49.0074 13.504 48.9834 13.348 48.9674 13.156C48.9514 12.956 48.9434 12.76 48.9434 12.568C48.9434 12.368 48.9434 12.208 48.9434 12.088C48.9434 11.976 48.9394 11.824 48.9314 11.632C48.9314 11.432 48.9354 11.228 48.9434 11.02C48.9514 10.812 48.9634 10.636 48.9794 10.492C48.9874 10.452 48.9914 10.42 48.9914 10.396C48.9914 10.364 48.9954 10.332 49.0034 10.3C49.0034 10.292 49.0034 10.288 49.0034 10.288C49.0114 10.28 49.0154 10.272 49.0154 10.264C49.0554 10.008 49.1154 9.772 49.1954 9.556C49.2834 9.332 49.3914 9.128 49.5194 8.944C49.5674 8.856 49.6394 8.764 49.7354 8.668C50.0954 8.268 50.5554 7.972 51.1154 7.78C51.6754 7.58 52.2994 7.48 52.9874 7.48H53.2754C53.2994 7.48 53.3194 7.484 53.3354 7.492C53.9914 7.524 54.6074 7.66 55.1834 7.9C55.7594 8.132 56.2154 8.484 56.5514 8.956C56.6154 9.028 56.6674 9.108 56.7074 9.196C56.7554 9.284 56.7954 9.376 56.8274 9.472C56.8834 9.6 56.9274 9.736 56.9594 9.88C56.9914 10.024 57.0114 10.168 57.0194 10.312C57.0194 10.32 57.0194 10.34 57.0194 10.372C57.0274 10.396 57.0314 10.408 57.0314 10.408V10.42C57.0314 10.452 57.0314 10.484 57.0314 10.516C57.0394 10.54 57.0394 10.568 57.0314 10.6C57.0234 10.608 57.0194 10.62 57.0194 10.636C57.0194 10.644 57.0154 10.656 57.0074 10.672C56.9914 10.688 56.9794 10.704 56.9714 10.72L56.9594 10.732C56.9434 10.756 56.9194 10.784 56.8874 10.816C56.8634 10.84 56.8474 10.86 56.8394 10.876C56.8394 10.892 56.8314 10.9 56.8154 10.9C56.8074 10.9 56.7994 10.892 56.7914 10.876C56.7914 10.86 56.7834 10.848 56.7674 10.84C56.7754 10.832 56.7714 10.836 56.7554 10.852C56.7394 10.86 56.7274 10.864 56.7194 10.864C56.6554 10.88 56.6074 10.904 56.5754 10.936C56.5274 10.968 56.4874 11.008 56.4554 11.056C56.4234 11.104 56.3874 11.148 56.3474 11.188C56.3314 11.204 56.3114 11.224 56.2874 11.248C56.2714 11.272 56.2514 11.292 56.2274 11.308C56.1794 11.316 56.1554 11.296 56.1554 11.248C56.1554 11.2 56.1354 11.188 56.0954 11.212C56.0874 11.212 56.0674 11.224 56.0354 11.248C56.0114 11.272 55.9994 11.284 55.9994 11.284C55.9514 11.324 55.8994 11.368 55.8434 11.416C55.7874 11.456 55.7234 11.48 55.6514 11.488C55.6114 11.488 55.5714 11.48 55.5314 11.464C55.4994 11.448 55.4634 11.436 55.4234 11.428C55.3594 11.396 55.2954 11.364 55.2314 11.332C55.1674 11.3 55.1034 11.276 55.0394 11.26C54.9674 11.236 54.8914 11.22 54.8114 11.212C54.7394 11.196 54.6714 11.168 54.6074 11.128C54.5594 11.096 54.5114 11.064 54.4634 11.032C54.4154 10.992 54.3674 10.956 54.3194 10.924C54.3114 10.916 54.3034 10.912 54.2954 10.912C54.2874 10.904 54.2754 10.896 54.2594 10.888C54.2354 10.864 54.2194 10.852 54.2114 10.852C54.2114 10.852 54.2074 10.86 54.1994 10.876C54.1994 10.884 54.1994 10.896 54.1994 10.912C54.1914 10.92 54.1874 10.932 54.1874 10.948C54.1874 10.956 54.1794 10.964 54.1634 10.972C54.1474 10.988 54.1394 10.98 54.1394 10.948C54.1314 10.94 54.1274 10.932 54.1274 10.924C54.1274 10.916 54.1234 10.908 54.1154 10.9C54.0914 10.876 54.0794 10.852 54.0794 10.828C54.0634 10.804 54.0474 10.776 54.0314 10.744C53.9914 10.704 53.9594 10.66 53.9354 10.612C53.8874 10.516 53.8474 10.424 53.8154 10.336C53.7834 10.24 53.7274 10.152 53.6474 10.072C53.6394 10.056 53.6314 10.044 53.6234 10.036C53.6154 10.028 53.6074 10.02 53.5994 10.012C53.5914 10.012 53.5834 10.012 53.5754 10.012C53.5754 10.004 53.5754 10 53.5754 10C53.5594 9.984 53.5474 9.976 53.5394 9.976C53.5394 9.976 53.5274 9.976 53.5034 9.976C53.4714 9.976 53.4474 9.972 53.4314 9.964C53.4074 9.964 53.3874 9.968 53.3714 9.976C53.3634 9.976 53.3554 9.984 53.3474 10C53.3394 10.008 53.3274 10.008 53.3114 10C53.3034 10 53.2994 9.992 53.2994 9.976C53.2434 10.008 53.1994 10.056 53.1674 10.12C53.1354 10.184 53.1034 10.24 53.0714 10.288C53.0554 10.32 53.0354 10.36 53.0114 10.408C52.9874 10.448 52.9554 10.476 52.9154 10.492C52.9074 10.5 52.8954 10.508 52.8794 10.516C52.8714 10.524 52.8674 10.524 52.8674 10.516C52.8514 10.428 52.8434 10.344 52.8434 10.264C52.8514 10.176 52.8474 10.092 52.8314 10.012C52.8074 10.044 52.7834 10.076 52.7594 10.108C52.7434 10.14 52.7234 10.172 52.6994 10.204C52.6914 10.212 52.6714 10.228 52.6394 10.252C52.6154 10.276 52.5954 10.284 52.5794 10.276C52.5634 10.276 52.5474 10.268 52.5314 10.252C52.4994 10.236 52.4754 10.212 52.4594 10.18C52.4434 10.14 52.4274 10.108 52.4114 10.084C52.4034 10.068 52.3994 10.052 52.3994 10.036C52.3994 10.02 52.3914 10.008 52.3754 10L52.3394 10.036C52.3154 10.06 52.2874 10.096 52.2554 10.144C52.2554 10.152 52.2514 10.156 52.2434 10.156C52.2434 10.156 52.2434 10.16 52.2434 10.168C52.2434 10.176 52.2394 10.18 52.2314 10.18C52.2314 10.18 52.2314 10.184 52.2314 10.192C52.1994 10.24 52.1714 10.304 52.1474 10.384C52.1154 10.488 52.0954 10.588 52.0874 10.684V10.9C52.0794 11.012 52.0754 11.128 52.0754 11.248C52.0754 11.36 52.0754 11.472 52.0754 11.584V12.34C52.0754 12.42 52.0754 12.5 52.0754 12.58C52.0834 12.652 52.0874 12.728 52.0874 12.808C52.0874 12.84 52.0874 12.876 52.0874 12.916C52.0954 12.948 52.0994 12.984 52.0994 13.024C52.1074 13.032 52.1114 13.044 52.1114 13.06C52.1114 13.076 52.1154 13.092 52.1234 13.108C52.1234 13.132 52.1274 13.148 52.1354 13.156C52.1434 13.188 52.1514 13.22 52.1594 13.252C52.1754 13.276 52.1874 13.304 52.1954 13.336C52.2674 13.44 52.3794 13.524 52.5314 13.588C52.6914 13.644 52.8594 13.676 53.0354 13.684C53.2194 13.692 53.3794 13.664 53.5154 13.6C53.5554 13.576 53.5954 13.548 53.6354 13.516C53.6754 13.484 53.7114 13.448 53.7434 13.408C53.7754 13.368 53.8034 13.316 53.8274 13.252C53.8434 13.212 53.8554 13.176 53.8634 13.144C53.8794 13.112 53.8914 13.08 53.8994 13.048C53.9154 13.008 53.9314 12.972 53.9474 12.94C53.9714 12.908 54.0074 12.872 54.0554 12.832C54.0714 12.824 54.0834 12.82 54.0914 12.82C54.0994 12.82 54.1074 12.816 54.1154 12.808C54.1554 12.792 54.1954 12.784 54.2354 12.784C54.2834 12.776 54.3314 12.772 54.3794 12.772C54.4274 12.772 54.4754 12.776 54.5234 12.784C54.5714 12.784 54.6154 12.784 54.6554 12.784H56.4194C56.4354 12.784 56.4834 12.784 56.5634 12.784C56.6434 12.776 56.7114 12.776 56.7674 12.784C56.8394 12.784 56.8994 12.808 56.9474 12.856C56.9954 12.904 57.0234 12.952 57.0314 13C57.0394 13.024 57.0434 13.052 57.0434 13.084C57.0434 13.108 57.0434 13.136 57.0434 13.168L57.0074 13.444C56.9514 13.836 56.8274 14.192 56.6354 14.512C56.5954 14.592 56.5394 14.676 56.4674 14.764ZM53.6234 17.668C53.6154 17.58 53.6074 17.488 53.5994 17.392C53.5914 17.296 53.5954 17.22 53.6114 17.164C53.6114 17.244 53.6114 17.324 53.6114 17.404C53.6114 17.492 53.6154 17.58 53.6234 17.668ZM53.7554 17.908C53.7394 17.964 53.7354 17.968 53.7434 17.92C53.7514 17.872 53.7634 17.8 53.7794 17.704C53.8034 17.608 53.8154 17.512 53.8154 17.416C53.8154 17.496 53.8114 17.576 53.8034 17.656C53.7954 17.744 53.7794 17.828 53.7554 17.908ZM53.6234 17.668C53.6314 17.708 53.6354 17.748 53.6354 17.788C53.6434 17.828 53.6514 17.86 53.6594 17.884C53.6354 17.812 53.6234 17.74 53.6234 17.668ZM65.2082 9.532C65.2082 9.588 65.2122 9.652 65.2202 9.724C65.2282 9.788 65.2242 9.852 65.2082 9.916C65.2082 9.9 65.2042 9.908 65.1962 9.94C65.1882 9.964 65.1882 9.972 65.1962 9.964C65.1882 9.972 65.1842 9.98 65.1842 9.988C65.1842 9.996 65.1802 10.004 65.1722 10.012L65.1122 10.084L65.0762 10.12C65.0682 10.12 65.0562 10.128 65.0402 10.144C65.0322 10.16 65.0242 10.172 65.0162 10.18C64.9842 10.212 64.9562 10.256 64.9322 10.312C64.9082 10.36 64.8762 10.416 64.8362 10.48C64.8042 10.552 64.7722 10.624 64.7402 10.696C64.7082 10.768 64.6722 10.84 64.6322 10.912C64.5762 11.04 64.5162 11.172 64.4522 11.308C64.3962 11.436 64.3242 11.568 64.2362 11.704C64.1802 11.784 64.1282 11.84 64.0802 11.872C64.0722 11.888 64.0642 11.908 64.0562 11.932C64.0562 11.956 64.0482 11.976 64.0322 11.992C64.0322 11.992 64.0162 11.98 63.9842 11.956C63.9762 11.948 63.9682 11.936 63.9602 11.92C63.9602 11.904 63.9362 11.872 63.8882 11.824L63.8642 11.8C63.8402 11.76 63.8162 11.724 63.7922 11.692C63.7762 11.652 63.7602 11.616 63.7442 11.584L63.7082 11.512L63.6962 11.5L63.5882 11.296C63.5162 11.168 63.4402 11.044 63.3602 10.924C63.2882 10.796 63.2122 10.668 63.1322 10.54C63.1002 10.492 63.0722 10.448 63.0482 10.408L62.9642 10.288C62.9402 10.264 62.9162 10.24 62.8922 10.216V10.276V15.436C62.9002 15.5 62.9002 15.56 62.8922 15.616C62.8922 15.672 62.8922 15.712 62.8922 15.736V15.76C62.8842 15.768 62.8802 15.776 62.8802 15.784C62.8642 15.816 62.8522 15.836 62.8442 15.844C62.8442 15.852 62.8402 15.86 62.8322 15.868C62.8002 15.908 62.7602 15.94 62.7122 15.964C62.7042 15.972 62.6962 15.98 62.6882 15.988C62.6802 15.996 62.6722 16.004 62.6642 16.012C62.6562 16.028 62.6442 16.044 62.6282 16.06C62.6122 16.084 62.5962 16.104 62.5802 16.12C62.5482 16.152 62.5122 16.164 62.4722 16.156C62.4562 16.148 62.4402 16.132 62.4242 16.108C62.4082 16.092 62.3922 16.084 62.3762 16.084C62.3602 16.076 62.3442 16.08 62.3282 16.096C62.3122 16.12 62.2962 16.132 62.2802 16.132C62.2162 16.108 62.1882 16.084 62.1962 16.06C62.2122 16.036 62.1842 16.04 62.1122 16.072C62.0882 16.112 62.0602 16.164 62.0282 16.228C61.9962 16.3 61.9522 16.316 61.8962 16.276C61.8802 16.26 61.8642 16.236 61.8482 16.204C61.8402 16.18 61.8242 16.164 61.8002 16.156L61.7882 16.168C61.7882 16.176 61.7842 16.18 61.7762 16.18C61.7762 16.188 61.7762 16.192 61.7762 16.192L61.7042 16.24L61.6562 16.288C61.6562 16.296 61.6482 16.344 61.6322 16.432C61.6162 16.52 61.6002 16.608 61.5842 16.696C61.5682 16.784 61.5602 16.828 61.5602 16.828C61.5522 16.86 61.5442 16.896 61.5362 16.936C61.5362 16.976 61.5282 17.012 61.5122 17.044C61.5042 17.052 61.4922 17.056 61.4762 17.056C61.4682 17.064 61.4642 17.064 61.4642 17.056C61.4482 16.944 61.4402 16.832 61.4402 16.72C61.4402 16.608 61.4322 16.496 61.4162 16.384C61.4162 16.344 61.4042 16.3 61.3802 16.252C61.3642 16.236 61.3362 16.204 61.2962 16.156C61.2642 16.116 61.2362 16.084 61.2122 16.06H61.1762C61.1362 16.06 61.1082 16.056 61.0922 16.048C61.0842 16.064 61.0722 16.076 61.0562 16.084C61.0402 16.1 61.0322 16.112 61.0322 16.12L61.0202 16.132C60.9802 16.18 60.9402 16.228 60.9002 16.276C60.8682 16.324 60.8322 16.38 60.7922 16.444C60.7762 16.46 60.7642 16.476 60.7562 16.492C60.7482 16.5 60.7402 16.508 60.7322 16.516C60.7242 16.524 60.7122 16.536 60.6962 16.552C60.6802 16.568 60.6642 16.58 60.6482 16.588C60.6402 16.676 60.6362 16.804 60.6362 16.972C60.6362 17.148 60.6322 17.332 60.6242 17.524C60.6242 17.716 60.6202 17.896 60.6122 18.064C60.6122 18.24 60.6082 18.372 60.6002 18.46C60.6002 18.468 60.5922 18.464 60.5762 18.448C60.5602 18.432 60.5522 18.42 60.5522 18.412C60.5042 18.324 60.4842 18.196 60.4922 18.028C60.5082 17.868 60.5282 17.688 60.5522 17.488C60.5762 17.296 60.5842 17.112 60.5762 16.936C60.5762 16.768 60.5402 16.632 60.4682 16.528C60.4682 16.512 60.4602 16.5 60.4442 16.492C60.4362 16.484 60.4322 16.48 60.4322 16.48C60.4002 16.416 60.3682 16.356 60.3362 16.3C60.3042 16.244 60.2722 16.188 60.2402 16.132C60.2402 16.124 60.2362 16.116 60.2282 16.108C60.2282 16.108 60.2282 16.104 60.2282 16.096C60.2202 16.088 60.2082 16.068 60.1922 16.036C60.1682 16.012 60.1402 16 60.1082 16C60.1002 16 60.0922 16 60.0842 16C60.0842 15.992 60.0762 15.988 60.0602 15.988C59.9962 15.964 59.9442 15.924 59.9042 15.868C59.8882 15.852 59.8722 15.82 59.8562 15.772C59.8402 15.708 59.8322 15.648 59.8322 15.592C59.8322 15.552 59.8322 15.52 59.8322 15.496C59.8402 15.464 59.8442 15.432 59.8442 15.4V10.276L59.7962 10.18C59.7962 10.18 59.7882 10.196 59.7722 10.228C59.7642 10.236 59.7602 10.248 59.7602 10.264C59.7522 10.296 59.7442 10.328 59.7362 10.36C59.7282 10.392 59.7162 10.42 59.7002 10.444L59.6282 10.588C59.6122 10.62 59.5922 10.652 59.5682 10.684C59.5442 10.716 59.5162 10.748 59.4842 10.78C59.4682 10.796 59.4602 10.804 59.4602 10.804C59.4442 10.812 59.4282 10.824 59.4122 10.84C59.3882 10.872 59.3762 10.892 59.3762 10.9C59.3762 10.908 59.3442 10.94 59.2802 10.996C59.2482 10.996 59.2322 10.996 59.2322 10.996C59.2162 11.028 59.2122 11.068 59.2202 11.116C59.2282 11.164 59.2122 11.196 59.1722 11.212C59.1482 11.22 59.1362 11.204 59.1362 11.164C59.1362 11.116 59.1322 11.08 59.1242 11.056L59.0882 10.888C59.0642 10.872 59.0402 10.852 59.0162 10.828C58.9922 10.796 58.9722 10.772 58.9562 10.756C58.9642 10.764 58.9562 10.76 58.9322 10.744C58.9082 10.72 58.8922 10.704 58.8842 10.696L58.8602 10.672C58.8442 10.68 58.8322 10.696 58.8242 10.72C58.8162 10.744 58.8082 10.764 58.8002 10.78C58.7922 10.82 58.7802 10.856 58.7642 10.888C58.7562 10.92 58.7522 10.948 58.7522 10.972C58.7522 10.9 58.7362 10.812 58.7042 10.708C58.7042 10.716 58.7002 10.72 58.6922 10.72C58.6922 10.72 58.6922 10.724 58.6922 10.732C58.6842 10.732 58.6802 10.736 58.6802 10.744C58.6722 10.752 58.6642 10.76 58.6562 10.768C58.6482 10.776 58.6322 10.8 58.6082 10.84C58.5922 10.872 58.5762 10.896 58.5602 10.912C58.5602 10.912 58.5562 10.916 58.5482 10.924C58.5482 10.924 58.5442 10.924 58.5362 10.924C58.5362 10.924 58.5322 10.928 58.5242 10.936C58.5242 10.936 58.5202 10.936 58.5122 10.936C58.5042 11.016 58.5002 11.092 58.5002 11.164C58.5082 11.236 58.5162 11.312 58.5242 11.392C58.5082 11.288 58.4722 11.24 58.4162 11.248C58.3682 11.264 58.3402 11.288 58.3322 11.32C58.3322 11.248 58.3322 11.176 58.3322 11.104C58.3402 11.024 58.3402 10.948 58.3322 10.876C58.3082 10.86 58.2842 10.84 58.2602 10.816C58.2362 10.784 58.2122 10.756 58.1882 10.732L58.0922 10.636C58.0282 10.564 57.9962 10.528 57.9962 10.528C57.9962 10.528 57.9882 10.52 57.9722 10.504C57.9562 10.488 57.8882 10.416 57.7682 10.288C57.7682 10.304 57.7602 10.312 57.7442 10.312C57.7362 10.312 57.7282 10.3 57.7202 10.276C57.7202 10.252 57.7162 10.232 57.7082 10.216C57.7162 10.224 57.7082 10.212 57.6842 10.18C57.6682 10.14 57.6562 10.116 57.6482 10.108C57.5682 10.044 57.5282 9.96 57.5282 9.856V8.308C57.5282 8.268 57.5242 8.2 57.5162 8.104C57.5162 8 57.5242 7.912 57.5402 7.84C57.5482 7.824 57.5522 7.812 57.5522 7.804C57.5522 7.788 57.5562 7.776 57.5642 7.768C57.5882 7.72 57.6202 7.684 57.6602 7.66C57.6682 7.66 57.6722 7.66 57.6722 7.66C57.6722 7.652 57.6762 7.648 57.6842 7.648L57.6962 7.636C57.7442 7.612 57.7882 7.6 57.8282 7.6C57.8922 7.592 57.9522 7.592 58.0082 7.6C58.0722 7.6 58.1322 7.6 58.1882 7.6H64.4522C64.5402 7.6 64.6322 7.596 64.7282 7.588C64.8242 7.58 64.9122 7.588 64.9922 7.612C65.0162 7.62 65.0362 7.632 65.0522 7.648C65.0762 7.656 65.0922 7.668 65.1002 7.684C65.1562 7.724 65.1882 7.768 65.1962 7.816C65.2042 7.864 65.2082 7.916 65.2082 7.972C65.2162 8.1 65.2162 8.236 65.2082 8.38C65.2082 8.516 65.2082 8.652 65.2082 8.788V9.532ZM58.3682 12.04C58.3842 12.112 58.3802 12.104 58.3562 12.016C58.3322 11.928 58.3122 11.812 58.2962 11.668C58.2882 11.516 58.3002 11.4 58.3322 11.32C58.3242 11.448 58.3202 11.572 58.3202 11.692C58.3282 11.812 58.3442 11.928 58.3682 12.04ZM58.4642 12.028C58.4482 12.076 58.4442 12.076 58.4522 12.028C58.4682 11.972 58.4842 11.892 58.5002 11.788C58.5162 11.684 58.5242 11.588 58.5242 11.5C58.5242 11.588 58.5202 11.676 58.5122 11.764C58.5122 11.852 58.4962 11.94 58.4642 12.028ZM67.9588 13.6C67.9668 13.656 67.9668 13.716 67.9588 13.78C67.9588 13.836 67.9588 13.892 67.9588 13.948V15.736C67.9588 15.736 67.9548 15.752 67.9468 15.784C67.9388 15.808 67.9308 15.82 67.9228 15.82C67.9228 15.828 67.9188 15.836 67.9108 15.844C67.9108 15.852 67.9028 15.864 67.8867 15.88C67.8788 15.888 67.8708 15.896 67.8628 15.904C67.8548 15.912 67.8468 15.92 67.8388 15.928C67.7748 15.992 67.7428 16.02 67.7428 16.012C67.7508 16.004 67.7708 15.984 67.8027 15.952C67.7948 15.96 67.7788 15.976 67.7548 16C67.7308 16.016 67.7228 16.02 67.7308 16.012C67.7228 16.02 67.7228 16.02 67.7308 16.012C67.7468 16.012 67.7308 16.032 67.6828 16.072C67.6748 16.08 67.6668 16.088 67.6588 16.096C67.6588 16.112 67.6508 16.116 67.6348 16.108C67.6028 16.14 67.5748 16.168 67.5508 16.192C67.5268 16.224 67.5028 16.256 67.4788 16.288C67.4708 16.296 67.4588 16.308 67.4428 16.324C67.4268 16.34 67.4108 16.352 67.3948 16.36C67.3788 16.368 67.3628 16.38 67.3468 16.396C67.3388 16.5 67.3388 16.608 67.3468 16.72C67.3548 16.832 67.3388 16.936 67.2988 17.032C67.2828 17.072 67.2708 17.064 67.2628 17.008C67.2628 16.96 67.2628 16.892 67.2628 16.804C67.2708 16.716 67.2668 16.652 67.2508 16.612C67.2508 16.596 67.2468 16.596 67.2388 16.612C67.2308 16.628 67.2188 16.636 67.2028 16.636C67.1948 16.636 67.1828 16.628 67.1668 16.612C67.1508 16.596 67.1348 16.572 67.1188 16.54C67.1108 16.524 67.1028 16.5 67.0948 16.468C67.0868 16.444 67.0788 16.44 67.0708 16.456C67.0468 16.488 67.0348 16.516 67.0348 16.54C67.0268 16.516 67.0188 16.484 67.0108 16.444C67.0028 16.412 66.9908 16.372 66.9748 16.324L66.9148 16.396L66.8788 16.432C66.8628 16.44 66.8468 16.452 66.8308 16.468C66.8228 16.484 66.8148 16.504 66.8068 16.528C66.8068 16.552 66.7988 16.56 66.7828 16.552C66.7588 16.536 66.7468 16.512 66.7468 16.48C66.7548 16.456 66.7508 16.432 66.7348 16.408C66.7028 16.368 66.6788 16.324 66.6628 16.276C66.6468 16.228 66.6308 16.184 66.6148 16.144C66.5988 16.144 66.5908 16.148 66.5908 16.156C66.5748 16.268 66.5668 16.38 66.5668 16.492C66.5668 16.604 66.5588 16.716 66.5428 16.828C66.5428 16.836 66.5348 16.84 66.5188 16.84C66.5028 16.848 66.4948 16.848 66.4948 16.84C66.4788 16.736 66.4708 16.632 66.4708 16.528C66.4788 16.424 66.4748 16.32 66.4588 16.216C66.4268 16.248 66.4068 16.264 66.3988 16.264C66.3988 16.264 66.3908 16.264 66.3748 16.264C66.3508 16.288 66.3228 16.3 66.2908 16.3C66.2588 16.308 66.2388 16.3 66.2308 16.276C66.2308 16.252 66.2228 16.224 66.2068 16.192L66.1228 16.12H66.0988C66.0988 16.176 66.0868 16.212 66.0628 16.228C66.0628 16.228 66.0508 16.208 66.0268 16.168C66.0188 16.224 66.0228 16.296 66.0388 16.384C66.0628 16.472 66.0428 16.52 65.9788 16.528C65.9388 16.528 65.9228 16.496 65.9308 16.432C65.9468 16.376 65.9588 16.316 65.9668 16.252C65.9828 16.188 65.9708 16.152 65.9308 16.144C65.8908 16.136 65.8748 16.164 65.8828 16.228C65.8988 16.292 65.9108 16.356 65.9188 16.42C65.9348 16.484 65.9228 16.508 65.8828 16.492C65.8268 16.468 65.8108 16.412 65.8348 16.324C65.8668 16.236 65.8668 16.164 65.8348 16.108C65.8188 16.068 65.8108 16.084 65.8108 16.156C65.8108 16.236 65.8028 16.292 65.7868 16.324C65.7788 16.332 65.7708 16.32 65.7628 16.288C65.7548 16.264 65.7468 16.244 65.7388 16.228C65.6908 16.164 65.6388 16.116 65.5828 16.084C65.5348 16.052 65.4868 16.02 65.4388 15.988C65.4228 15.98 65.4068 15.972 65.3908 15.964C65.3748 15.948 65.3588 15.936 65.3428 15.928C65.2628 15.864 65.2228 15.78 65.2228 15.676V13.792C65.2228 13.728 65.2228 13.66 65.2228 13.588C65.2228 13.516 65.2428 13.452 65.2828 13.396L65.3548 13.324C65.4108 13.284 65.4748 13.264 65.5468 13.264H66.9508C67.0148 13.264 67.0748 13.264 67.1308 13.264C67.1868 13.256 67.2348 13.252 67.2748 13.252C67.2988 13.252 67.3548 13.252 67.4428 13.252C67.5388 13.244 67.6228 13.248 67.6948 13.264C67.8228 13.296 67.9068 13.372 67.9468 13.492C67.9548 13.516 67.9588 13.552 67.9588 13.6ZM74.181 17.752C74.125 17.784 74.073 17.772 74.025 17.716C73.977 17.66 73.937 17.612 73.905 17.572C73.897 17.556 73.885 17.54 73.869 17.524C73.861 17.516 73.857 17.504 73.857 17.488C73.849 17.304 73.841 17.096 73.833 16.864C73.833 16.632 73.825 16.428 73.809 16.252C73.793 16.3 73.773 16.344 73.749 16.384C73.733 16.432 73.717 16.476 73.701 16.516C73.685 16.548 73.677 16.564 73.677 16.564C73.669 16.572 73.665 16.58 73.665 16.588C73.665 16.596 73.661 16.604 73.653 16.612C73.637 16.644 73.629 16.66 73.629 16.66C73.605 16.716 73.573 16.756 73.533 16.78C73.501 16.796 73.485 16.804 73.485 16.804C73.469 16.956 73.477 17.112 73.509 17.272C73.541 17.432 73.517 17.58 73.437 17.716C73.397 17.788 73.373 17.776 73.365 17.68C73.365 17.584 73.369 17.46 73.377 17.308C73.393 17.156 73.397 17.04 73.389 16.96C73.389 16.872 73.377 16.8 73.353 16.744C73.353 16.744 73.353 16.74 73.353 16.732C73.353 16.732 73.349 16.732 73.341 16.732L73.245 16.636C73.237 16.644 73.229 16.652 73.221 16.66C73.213 16.676 73.205 16.688 73.197 16.696C73.189 16.704 73.177 16.712 73.161 16.72C73.153 16.728 73.149 16.74 73.149 16.756C73.141 16.852 73.149 16.956 73.173 17.068C73.197 17.188 73.209 17.3 73.209 17.404C73.217 17.508 73.181 17.596 73.101 17.668C73.037 17.724 73.005 17.7 73.005 17.596C73.005 17.492 73.017 17.36 73.041 17.2C73.065 17.048 73.069 16.928 73.053 16.84C73.053 16.832 73.045 16.832 73.029 16.84C73.021 16.848 73.013 16.856 73.005 16.864C72.949 16.872 72.901 16.856 72.861 16.816C72.821 16.776 72.789 16.732 72.765 16.684C72.757 16.668 72.749 16.644 72.741 16.612C72.741 16.58 72.733 16.572 72.717 16.588C72.701 16.628 72.693 16.692 72.693 16.78C72.701 16.876 72.697 16.904 72.681 16.864C72.657 16.784 72.645 16.724 72.645 16.684C72.653 16.644 72.657 16.6 72.657 16.552C72.657 16.504 72.641 16.424 72.609 16.312L72.573 16.276C72.525 16.228 72.489 16.196 72.465 16.18C72.457 16.18 72.449 16.184 72.441 16.192C72.441 16.208 72.433 16.22 72.417 16.228C72.401 16.236 72.377 16.22 72.345 16.18C72.313 16.148 72.289 16.128 72.273 16.12C71.561 16.104 70.901 15.956 70.293 15.676C69.685 15.388 69.229 14.984 68.925 14.464C68.901 14.44 68.881 14.412 68.865 14.38C68.849 14.34 68.833 14.3 68.817 14.26C68.737 14.084 68.677 13.896 68.637 13.696C68.629 13.648 68.621 13.6 68.613 13.552C68.605 13.504 68.597 13.46 68.589 13.42C68.589 13.396 68.585 13.372 68.577 13.348C68.577 13.316 68.577 13.288 68.577 13.264V13.12C68.601 13.008 68.673 12.94 68.793 12.916C68.849 12.908 68.905 12.908 68.961 12.916C69.017 12.916 69.073 12.916 69.129 12.916H70.857C70.945 12.916 71.029 12.912 71.109 12.904C71.197 12.896 71.281 12.9 71.361 12.916C71.425 12.924 71.485 12.944 71.541 12.976C71.621 13.024 71.677 13.084 71.709 13.156C71.741 13.212 71.769 13.268 71.793 13.324C71.817 13.372 71.845 13.42 71.877 13.468L71.913 13.528C72.049 13.696 72.229 13.78 72.453 13.78C72.493 13.78 72.533 13.78 72.573 13.78C72.613 13.772 72.649 13.764 72.681 13.756C72.713 13.74 72.729 13.732 72.729 13.732C72.769 13.716 72.805 13.692 72.837 13.66C72.925 13.58 72.997 13.468 73.053 13.324C73.109 13.172 73.145 13.028 73.161 12.892C73.169 12.828 73.173 12.768 73.173 12.712C73.181 12.656 73.185 12.6 73.185 12.544V10.228C73.185 10.148 73.185 10.12 73.185 10.144C73.193 10.16 73.177 10.124 73.137 10.036C73.121 10.044 73.101 10.064 73.077 10.096C73.061 10.128 73.049 10.148 73.041 10.156C72.985 10.236 72.929 10.32 72.873 10.408C72.825 10.496 72.769 10.584 72.705 10.672C72.665 10.744 72.621 10.796 72.573 10.828C72.541 10.844 72.525 10.852 72.525 10.852C72.493 10.852 72.477 10.852 72.477 10.852C72.461 10.74 72.453 10.632 72.453 10.528C72.453 10.416 72.445 10.304 72.429 10.192C72.397 10.224 72.365 10.264 72.333 10.312C72.229 10.456 72.141 10.604 72.069 10.756C72.005 10.908 71.933 11.064 71.853 11.224C71.781 11.368 71.705 11.508 71.625 11.644C71.545 11.78 71.449 11.908 71.337 12.028C71.321 12.06 71.301 12.088 71.277 12.112C71.253 12.136 71.221 12.168 71.181 12.208C71.165 12.216 71.149 12.224 71.133 12.232C71.125 12.24 71.113 12.252 71.097 12.268C71.073 12.316 71.053 12.368 71.037 12.424C71.029 12.48 71.017 12.532 71.001 12.58C70.993 12.596 70.977 12.628 70.953 12.676C70.929 12.724 70.897 12.744 70.857 12.736C70.801 12.72 70.761 12.672 70.737 12.592C70.713 12.512 70.685 12.444 70.653 12.388C70.645 12.388 70.641 12.384 70.641 12.376C70.609 12.344 70.577 12.308 70.545 12.268C70.521 12.228 70.497 12.188 70.473 12.148L70.401 12.004C70.369 11.948 70.341 11.896 70.317 11.848C70.293 11.792 70.269 11.736 70.245 11.68C70.237 11.672 70.233 11.66 70.233 11.644C70.193 11.556 70.153 11.476 70.113 11.404C70.073 11.324 70.033 11.244 69.993 11.164C69.945 11.052 69.897 10.936 69.849 10.816C69.801 10.696 69.749 10.58 69.693 10.468L69.621 10.324C69.589 10.268 69.557 10.212 69.525 10.156C69.501 10.092 69.469 10.032 69.429 9.976L69.357 9.904C69.341 9.872 69.329 9.852 69.321 9.844C69.321 9.836 69.317 9.832 69.309 9.832C69.309 9.824 69.309 9.816 69.309 9.808C69.285 9.744 69.277 9.676 69.285 9.604C69.293 9.524 69.297 9.452 69.297 9.388V8.116C69.297 8.068 69.297 8.02 69.297 7.972C69.297 7.916 69.301 7.864 69.309 7.816C69.333 7.744 69.369 7.696 69.417 7.672C69.417 7.664 69.417 7.66 69.417 7.66C69.425 7.66 69.429 7.66 69.429 7.66C69.493 7.612 69.569 7.592 69.657 7.6C69.745 7.6 69.829 7.6 69.909 7.6H75.633C75.673 7.6 75.713 7.6 75.753 7.6C75.801 7.592 75.845 7.588 75.885 7.588C75.925 7.588 75.977 7.596 76.041 7.612C76.129 7.628 76.189 7.668 76.221 7.732C76.261 7.796 76.285 7.872 76.293 7.96C76.301 7.992 76.305 8.028 76.305 8.068C76.305 8.1 76.305 8.132 76.305 8.164C76.305 8.204 76.301 8.252 76.293 8.308C76.293 8.356 76.293 8.408 76.293 8.464V13C76.293 13.064 76.289 13.128 76.281 13.192C76.281 13.256 76.277 13.32 76.269 13.384C76.269 13.392 76.265 13.4 76.257 13.408C76.257 13.408 76.257 13.416 76.257 13.432C76.249 13.56 76.233 13.68 76.209 13.792C76.185 13.896 76.153 13.98 76.113 14.044C76.097 14.1 76.077 14.152 76.053 14.2C76.029 14.248 76.005 14.3 75.981 14.356C75.893 14.524 75.793 14.684 75.681 14.836C75.633 14.892 75.581 14.948 75.525 15.004C75.477 15.06 75.421 15.12 75.357 15.184C75.325 15.2 75.297 15.22 75.273 15.244C75.249 15.268 75.233 15.284 75.225 15.292C75.193 15.348 75.165 15.408 75.141 15.472C75.125 15.536 75.105 15.6 75.081 15.664C75.017 15.784 74.953 15.944 74.889 16.144C74.825 16.352 74.761 16.556 74.697 16.756C74.633 16.964 74.565 17.128 74.493 17.248C74.461 17.328 74.421 17.42 74.373 17.524C74.333 17.636 74.269 17.712 74.181 17.752ZM84.5988 14.68C84.5428 14.76 84.4868 14.832 84.4308 14.896C84.3748 14.952 84.3268 15 84.2868 15.04L84.2028 15.124C84.1868 15.132 84.1668 15.144 84.1428 15.16C84.1268 15.176 84.1108 15.192 84.0948 15.208C84.0788 15.24 84.0628 15.272 84.0468 15.304C84.0388 15.328 84.0268 15.356 84.0108 15.388C83.9708 15.484 83.9188 15.568 83.8548 15.64C83.8468 15.648 83.8388 15.66 83.8308 15.676C83.8308 15.692 83.8268 15.696 83.8188 15.688C83.8108 15.68 83.8068 15.668 83.8068 15.652L83.7348 15.76C83.7268 15.776 83.7148 15.792 83.6988 15.808C83.6988 15.808 83.6948 15.812 83.6868 15.82C83.6868 15.82 83.6828 15.82 83.6748 15.82C83.6668 15.82 83.6628 15.824 83.6628 15.832C83.6628 15.832 83.6588 15.832 83.6508 15.832C83.6428 15.92 83.6388 16.056 83.6388 16.24C83.6388 16.424 83.6348 16.624 83.6268 16.84C83.6268 17.056 83.6228 17.256 83.6148 17.44C83.6148 17.624 83.6108 17.76 83.6028 17.848C83.6028 17.856 83.5948 17.864 83.5788 17.872C83.5628 17.88 83.5548 17.88 83.5548 17.872C83.5468 17.784 83.5388 17.644 83.5308 17.452C83.5308 17.26 83.5308 17.052 83.5308 16.828C83.5308 16.612 83.5268 16.408 83.5188 16.216C83.5188 16.032 83.5148 15.892 83.5068 15.796C83.4908 15.78 83.4748 15.768 83.4588 15.76C83.4588 15.76 83.4508 15.752 83.4348 15.736C83.4348 15.736 83.4308 15.736 83.4228 15.736C83.4228 15.728 83.4228 15.72 83.4228 15.712C83.4148 15.712 83.4108 15.712 83.4108 15.712C83.4108 15.704 83.4068 15.7 83.3988 15.7L83.3868 15.712C83.3788 15.736 83.3748 15.76 83.3748 15.784C83.3748 15.808 83.3668 15.84 83.3508 15.88C83.3428 15.912 83.3268 15.94 83.3028 15.964C83.2868 15.988 83.2668 16.016 83.2428 16.048C83.2428 16.056 83.2348 16.076 83.2188 16.108C83.2028 16.124 83.1908 16.132 83.1828 16.132C83.1748 16.132 83.1708 16.132 83.1708 16.132C83.1708 16.14 83.1708 16.144 83.1708 16.144C83.0988 16.272 83.0388 16.416 82.9908 16.576L82.9068 16.852C82.8988 16.876 82.8868 16.908 82.8708 16.948C82.8628 16.996 82.8588 17.008 82.8588 16.984C82.8428 16.856 82.8348 16.728 82.8348 16.6C82.8428 16.472 82.8388 16.344 82.8228 16.216C82.8228 16.224 82.8188 16.228 82.8108 16.228C82.8108 16.228 82.8108 16.232 82.8108 16.24C82.7948 16.296 82.7748 16.348 82.7508 16.396C82.7268 16.452 82.7028 16.508 82.6788 16.564C82.6388 16.652 82.5908 16.74 82.5348 16.828C82.4788 16.916 82.4148 16.996 82.3428 17.068C82.3348 17.076 82.3188 17.088 82.2948 17.104C82.2788 17.128 82.2588 17.148 82.2348 17.164C82.2028 17.196 82.1708 17.228 82.1388 17.26C82.1148 17.3 82.0708 17.312 82.0068 17.296C81.9588 17.272 81.9148 17.24 81.8748 17.2C81.8428 17.176 81.8068 17.144 81.7668 17.104C81.7348 17.064 81.7028 17.028 81.6708 16.996C81.6068 16.916 81.5468 16.828 81.4908 16.732C81.4428 16.644 81.3908 16.552 81.3348 16.456C81.3188 16.424 81.2988 16.384 81.2748 16.336C81.2508 16.296 81.2268 16.26 81.2028 16.228L81.1668 16.192C81.1668 16.184 81.1588 16.18 81.1428 16.18C81.1428 16.18 81.1268 16.168 81.0948 16.144C81.0788 16.152 81.0708 16.168 81.0708 16.192C81.0708 16.224 81.0628 16.248 81.0468 16.264C81.0308 16.296 81.0188 16.312 81.0108 16.312C81.0028 16.304 80.9948 16.292 80.9868 16.276C80.9868 16.26 80.9828 16.248 80.9748 16.24L80.9388 16.12H80.9268C80.0628 16.104 79.3468 15.972 78.7788 15.724C78.2188 15.468 77.7988 15.152 77.5188 14.776C77.4628 14.704 77.4148 14.632 77.3748 14.56C77.3348 14.496 77.3028 14.432 77.2788 14.368L77.2308 14.248C77.2068 14.184 77.1868 14.12 77.1708 14.056C77.1548 13.984 77.1388 13.916 77.1228 13.852C77.1148 13.788 77.1028 13.724 77.0868 13.66C77.0788 13.588 77.0908 13.52 77.1228 13.456C77.1228 13.448 77.1228 13.444 77.1228 13.444C77.1308 13.436 77.1348 13.432 77.1348 13.432C77.1508 13.4 77.1828 13.368 77.2308 13.336C77.2628 13.32 77.2948 13.312 77.3268 13.312C77.3588 13.304 77.3868 13.3 77.4108 13.3C77.5228 13.292 77.6348 13.292 77.7468 13.3C77.8588 13.3 77.9668 13.3 78.0708 13.3H79.2108C79.2508 13.3 79.3028 13.3 79.3668 13.3C79.4388 13.292 79.5028 13.288 79.5588 13.288C79.6068 13.288 79.6508 13.292 79.6908 13.3C79.7388 13.3 79.7788 13.304 79.8108 13.312C79.8748 13.32 79.9268 13.34 79.9668 13.372C80.0148 13.396 80.0628 13.428 80.1108 13.468L80.2908 13.588C80.3468 13.62 80.4028 13.648 80.4588 13.672C80.5148 13.696 80.5708 13.716 80.6268 13.732C80.7308 13.764 80.8708 13.78 81.0468 13.78C81.1428 13.78 81.2348 13.776 81.3228 13.768C81.4108 13.76 81.4908 13.748 81.5628 13.732L81.6828 13.696C81.6988 13.688 81.7108 13.684 81.7188 13.684C81.7348 13.684 81.7468 13.68 81.7548 13.672C81.8828 13.608 81.9468 13.532 81.9468 13.444V13.432C81.9468 13.384 81.9268 13.332 81.8868 13.276L81.8148 13.204H81.8028C81.7708 13.188 81.7268 13.188 81.6708 13.204C81.6148 13.212 81.5668 13.22 81.5268 13.228C81.4948 13.228 81.4588 13.232 81.4188 13.24C81.3868 13.24 81.3508 13.24 81.3108 13.24C81.2948 13.24 81.2788 13.236 81.2628 13.228C81.2468 13.22 81.2308 13.216 81.2148 13.216C81.1908 13.224 81.1668 13.232 81.1428 13.24C81.1268 13.248 81.1108 13.256 81.0948 13.264C81.0548 13.28 81.0108 13.296 80.9628 13.312C80.9148 13.328 80.8668 13.348 80.8188 13.372C80.7468 13.404 80.6708 13.432 80.5908 13.456C80.5188 13.472 80.4428 13.464 80.3628 13.432C80.3148 13.416 80.2708 13.396 80.2308 13.372C80.1908 13.348 80.1508 13.324 80.1108 13.3C80.0308 13.26 79.9548 13.216 79.8828 13.168C79.8188 13.12 79.7548 13.068 79.6908 13.012L79.4148 12.736L79.3188 12.664H79.2348C79.2268 12.672 79.2148 12.684 79.1988 12.7C79.1908 12.708 79.1788 12.72 79.1628 12.736C79.1308 12.768 79.0948 12.804 79.0548 12.844C79.0148 12.884 78.9748 12.92 78.9348 12.952C78.9188 12.96 78.8948 12.972 78.8628 12.988C78.8388 13.004 78.8148 13.008 78.7908 13C78.7588 12.984 78.7308 12.96 78.7068 12.928C78.6828 12.896 78.6628 12.864 78.6468 12.832C78.6228 12.768 78.6028 12.7 78.5868 12.628C78.5788 12.556 78.5588 12.492 78.5268 12.436C78.4948 12.412 78.4588 12.384 78.4188 12.352C78.3868 12.32 78.3548 12.288 78.3228 12.256C78.3148 12.248 78.3068 12.24 78.2988 12.232C78.2988 12.224 78.2908 12.216 78.2748 12.208C78.2188 12.152 78.1868 12.124 78.1788 12.124C78.1788 12.124 78.1628 12.116 78.1308 12.1C78.1148 12.084 78.1068 12.068 78.1068 12.052C78.0348 11.988 77.9668 11.92 77.9028 11.848C77.8788 11.816 77.8508 11.788 77.8188 11.764C77.7948 11.732 77.7748 11.7 77.7588 11.668C77.7268 11.636 77.6988 11.6 77.6748 11.56C77.6508 11.52 77.6268 11.484 77.6028 11.452C77.5868 11.42 77.5708 11.392 77.5548 11.368C77.5388 11.336 77.5228 11.304 77.5068 11.272C77.4348 11.152 77.3788 10.984 77.3388 10.768C77.3068 10.552 77.2948 10.34 77.3028 10.132C77.3108 9.916 77.3348 9.748 77.3748 9.628C77.3908 9.58 77.4068 9.532 77.4228 9.484C77.4388 9.436 77.4548 9.388 77.4708 9.34C77.4868 9.292 77.5028 9.256 77.5188 9.232C77.5348 9.184 77.5508 9.148 77.5668 9.124C77.8228 8.628 78.2348 8.236 78.8028 7.948C79.3708 7.652 80.0588 7.496 80.8668 7.48H80.9628C81.6268 7.48 82.2028 7.576 82.6908 7.768C83.1868 7.952 83.5948 8.192 83.9148 8.488C84.2348 8.776 84.4628 9.076 84.5988 9.388C84.6148 9.436 84.6308 9.484 84.6468 9.532C84.6708 9.58 84.6868 9.628 84.6948 9.676C84.7108 9.724 84.7228 9.776 84.7308 9.832C84.7468 9.888 84.7468 9.944 84.7308 10C84.7148 10.072 84.6828 10.128 84.6348 10.168C84.6028 10.2 84.5748 10.22 84.5508 10.228C84.5508 10.228 84.5428 10.236 84.5268 10.252C84.5188 10.252 84.5108 10.248 84.5028 10.24C84.4948 10.248 84.4868 10.252 84.4788 10.252C84.4708 10.244 84.4588 10.244 84.4428 10.252C84.4268 10.252 84.4068 10.26 84.3828 10.276C84.3668 10.284 84.3508 10.292 84.3348 10.3C84.2788 10.324 84.2228 10.352 84.1668 10.384C84.1188 10.416 84.0628 10.436 83.9988 10.444C83.9348 10.444 83.8708 10.436 83.8068 10.42C83.7428 10.396 83.6788 10.384 83.6148 10.384C83.5668 10.384 83.5188 10.396 83.4708 10.42C83.4228 10.436 83.3748 10.44 83.3268 10.432C83.2948 10.424 83.2628 10.412 83.2308 10.396C83.1988 10.372 83.1668 10.352 83.1348 10.336C83.1108 10.328 83.0868 10.32 83.0628 10.312C83.0388 10.304 83.0148 10.3 82.9908 10.3L82.8948 10.324C82.8148 10.34 82.7348 10.356 82.6548 10.372C82.5748 10.388 82.4908 10.4 82.4028 10.408C82.3708 10.416 82.3388 10.428 82.3068 10.444C82.2828 10.46 82.2548 10.472 82.2228 10.48C82.1748 10.496 82.1228 10.508 82.0668 10.516C82.0188 10.524 81.9668 10.52 81.9108 10.504C81.8388 10.472 81.7788 10.424 81.7308 10.36C81.6908 10.288 81.6468 10.224 81.5988 10.168C81.5828 10.144 81.5628 10.12 81.5388 10.096C81.5148 10.072 81.4908 10.048 81.4668 10.024C81.4588 10.032 81.4468 10.036 81.4308 10.036C81.2948 10.076 81.1708 10.06 81.0588 9.988C81.0348 9.972 81.0108 9.956 80.9868 9.94C80.9628 9.916 80.9348 9.9 80.9028 9.892C80.9028 9.884 80.8868 9.872 80.8548 9.856C80.8228 9.864 80.7908 9.876 80.7588 9.892C80.7268 9.9 80.6948 9.912 80.6628 9.928C80.6548 9.928 80.6428 9.932 80.6268 9.94C80.6188 9.94 80.6068 9.94 80.5908 9.94H80.5188C80.4868 9.94 80.4668 9.944 80.4588 9.952C80.4588 9.96 80.4508 9.972 80.4348 9.988C80.4348 9.996 80.4308 10 80.4228 10C80.4228 10 80.4228 10.004 80.4228 10.012C80.4068 10.044 80.3988 10.068 80.3988 10.084C80.3908 10.1 80.3868 10.124 80.3868 10.156C80.3868 10.268 80.4508 10.352 80.5788 10.408C80.5948 10.424 80.6268 10.44 80.6748 10.456C80.7468 10.488 80.8228 10.512 80.9028 10.528C81.0548 10.568 81.2268 10.604 81.4188 10.636L81.7188 10.672C81.7348 10.672 81.7508 10.676 81.7668 10.684C81.7908 10.684 81.8068 10.684 81.8148 10.684L82.0428 10.72H82.1148C82.1228 10.728 82.1308 10.732 82.1388 10.732C82.1628 10.732 82.1868 10.736 82.2108 10.744C82.2428 10.744 82.2748 10.748 82.3068 10.756C83.5548 10.98 84.3628 11.404 84.7308 12.028C84.7388 12.028 84.7428 12.032 84.7428 12.04C84.7908 12.096 84.8268 12.172 84.8508 12.268C84.8588 12.284 84.8668 12.304 84.8748 12.328C84.8828 12.344 84.8908 12.36 84.8988 12.376L84.9708 12.592C84.9708 12.6 84.9708 12.612 84.9708 12.628C84.9788 12.636 84.9828 12.644 84.9828 12.652C85.0068 12.724 85.0188 12.796 85.0188 12.868C85.0268 12.916 85.0308 12.964 85.0308 13.012C85.0308 13.052 85.0308 13.092 85.0308 13.132V13.288C85.0308 13.576 84.9828 13.852 84.8868 14.116C84.8308 14.316 84.7628 14.468 84.6828 14.572L84.5988 14.68Z" fill="white"/>
</g>
<defs>
<filter id="filter0_d_193_29" x="0.900024" y="0.899902" width="108.2" height="30.1934" filterUnits="userSpaceOnUse" color-interpolation-filters="sRGB">
<feFlood flood-opacity="0" result="BackgroundImageFix"/>
<feColorMatrix in="SourceAlpha" type="matrix" values="0 0 0 0 0 0 0 0 0 0 0 0 0 0 0 0 0 0 127 0" result="hardAlpha"/>
<feOffset dy="4"/>
<feGaussianBlur stdDeviation="2"/>
<feComposite in2="hardAlpha" operator="out"/>
<feColorMatrix type="matrix" values="0 0 0 0 0 0 0 0 0 0 0 0 0 0 0 0 0 0 0.25 0"/>
<feBlend mode="normal" in2="BackgroundImageFix" result="effect1_dropShadow_193_29"/>
<feBlend mode="normal" in="SourceGraphic" in2="effect1_dropShadow_193_29" result="shape"/>
</filter>
<linearGradient id="paint0_linear_193_29" x1="56.1365" y1="1" x2="56.1365" y2="21.7676" gradientUnits="userSpaceOnUse">
<stop stop-color="#D9F049"/>
<stop offset="0.416667" stop-color="#D7F67F" stop-opacity="0.583333"/>
<stop offset="1" stop-color="#7EFF7B"/>
</linearGradient>
</defs>
</svg>
