<svg width="110" height="32" viewBox="0 0 110 32" fill="none" xmlns="http://www.w3.org/2000/svg">
<g filter="url(#filter0_d_201_53)">
<path d="M5.00601 1.86583L4.98731 1.96383L9.15792 3.05825H5L4.99138 3.15751L11.2422 4.25104H5H4.95V4.30104V21V21.0342L4.98186 21.0466L10.1183 23.0466L10.1634 22.9578L7.38661 21.1872L10.5829 22.2975L10.6301 22.2109L9.20963 21.1004L11.1251 21.5487L11.3082 21.5915L11.1705 21.4634L10.7264 21.05H62.9545L62.9642 20.9509L53.8733 19.1618L53.856 19.1584L53.8404 19.1665L51.8366 20.2182L52.7635 19.2453L52.8298 19.1756L52.7347 19.1614L46.2121 18.1833L56.1324 18.9767L56.1492 18.8785L51.0669 17.5322L60.604 18.4706L62.944 18.9757L62.944 18.9758L62.947 18.9763L76.5834 21.0494L76.5833 21.05H76.5909H103.864L103.887 20.9557L98.4549 18.1049L104.993 18.9764L105.02 18.8811L101.828 17.4716H105H105.05V17.4216V2V1.93117L104.985 1.95245L101.858 2.9689L104.406 1.03987L104.525 0.95H104.376H5L4.991 1.04918L18.1397 3.45642L5.00601 1.86583Z" fill="black" stroke="url(#paint0_linear_201_53)" stroke-width="0.1"/>
<path d="M39.424 15.736C39.424 15.76 39.416 15.796 39.4 15.844C39.392 15.868 39.376 15.892 39.352 15.916C39.336 15.932 39.32 15.948 39.304 15.964C39.288 15.996 39.272 16.028 39.256 16.06C39.24 16.1 39.224 16.14 39.208 16.18L39.016 16.516C38.984 16.572 38.952 16.628 38.92 16.684C38.896 16.74 38.864 16.792 38.824 16.84C38.816 16.856 38.8 16.876 38.776 16.9C38.752 16.924 38.74 16.936 38.74 16.936C38.724 16.808 38.716 16.68 38.716 16.552C38.716 16.432 38.708 16.312 38.692 16.192C38.684 16.184 38.676 16.18 38.668 16.18C38.66 16.188 38.652 16.192 38.644 16.192C38.652 16.192 38.636 16.204 38.596 16.228C38.556 16.26 38.528 16.28 38.512 16.288C38.504 16.296 38.496 16.308 38.488 16.324C38.48 16.348 38.468 16.36 38.452 16.36C38.444 16.368 38.436 16.364 38.428 16.348C38.42 16.332 38.412 16.32 38.404 16.312C38.38 16.272 38.352 16.236 38.32 16.204C38.296 16.172 38.276 16.14 38.26 16.108C38.244 16.164 38.236 16.224 38.236 16.288C38.244 16.352 38.236 16.416 38.212 16.48C38.204 16.496 38.196 16.488 38.188 16.456C38.18 16.424 38.172 16.4 38.164 16.384L38.14 16.144C38.132 16.152 38.124 16.16 38.116 16.168C38.116 16.176 38.112 16.188 38.104 16.204C38.088 16.228 38.064 16.256 38.032 16.288C38.04 16.288 38.032 16.292 38.008 16.3C37.984 16.308 37.972 16.312 37.972 16.312C37.964 16.392 37.956 16.472 37.948 16.552C37.948 16.64 37.94 16.728 37.924 16.816C37.924 16.84 37.92 16.868 37.912 16.9C37.904 16.94 37.892 16.956 37.876 16.948C37.852 16.924 37.84 16.892 37.84 16.852C37.84 16.812 37.836 16.776 37.828 16.744C37.82 16.696 37.812 16.648 37.804 16.6C37.804 16.552 37.796 16.504 37.78 16.456C37.78 16.408 37.768 16.372 37.744 16.348C37.728 16.356 37.708 16.372 37.684 16.396C37.668 16.42 37.652 16.444 37.636 16.468C37.62 16.5 37.6 16.528 37.576 16.552C37.56 16.584 37.536 16.612 37.504 16.636C37.496 16.644 37.484 16.648 37.468 16.648C37.468 16.656 37.464 16.66 37.456 16.66C37.448 16.788 37.44 16.916 37.432 17.044C37.432 17.172 37.424 17.304 37.408 17.44C37.4 17.504 37.4 17.576 37.408 17.656C37.424 17.736 37.404 17.796 37.348 17.836C37.316 17.868 37.3 17.836 37.3 17.74C37.308 17.652 37.308 17.584 37.3 17.536C37.292 17.376 37.288 17.22 37.288 17.068C37.288 16.916 37.28 16.764 37.264 16.612C37.256 16.604 37.244 16.592 37.228 16.576C37.22 16.56 37.208 16.548 37.192 16.54C37.176 16.516 37.152 16.488 37.12 16.456C37.096 16.432 37.072 16.404 37.048 16.372C37.024 16.348 36.996 16.324 36.964 16.3C36.94 16.268 36.908 16.248 36.868 16.24C36.892 16.248 36.892 16.248 36.868 16.24C36.844 16.232 36.816 16.22 36.784 16.204H36.748C36.732 16.308 36.724 16.416 36.724 16.528C36.724 16.64 36.716 16.752 36.7 16.864C36.692 16.888 36.684 16.88 36.676 16.84C36.668 16.8 36.656 16.772 36.64 16.756C36.632 16.692 36.62 16.652 36.604 16.636C36.596 16.628 36.584 16.616 36.568 16.6C36.56 16.608 36.548 16.604 36.532 16.588C36.468 16.532 36.444 16.456 36.46 16.36C36.484 16.264 36.492 16.176 36.484 16.096C36.484 16.128 36.48 16.156 36.472 16.18C36.472 16.212 36.464 16.236 36.448 16.252C36.44 16.26 36.432 16.244 36.424 16.204C36.424 16.172 36.42 16.144 36.412 16.12C36.396 16.088 36.388 16.06 36.388 16.036C36.38 16.068 36.372 16.08 36.364 16.072C36.332 16.016 36.324 15.992 36.34 16C36.356 16.008 36.368 16.008 36.376 16C36.384 15.992 36.356 15.936 36.292 15.832L36.256 15.796C36.248 15.78 36.236 15.764 36.22 15.748C36.204 15.724 36.188 15.7 36.172 15.676C36.172 15.66 36.164 15.644 36.148 15.628C36.132 15.596 36.116 15.564 36.1 15.532C36.092 15.5 36.08 15.468 36.064 15.436C36.04 15.372 36.012 15.312 35.98 15.256C35.956 15.192 35.932 15.132 35.908 15.076C35.868 14.996 35.828 14.912 35.788 14.824C35.748 14.728 35.708 14.632 35.668 14.536C35.652 14.488 35.636 14.456 35.62 14.44C35.588 14.344 35.548 14.252 35.5 14.164C35.492 14.148 35.484 14.132 35.476 14.116C35.468 14.092 35.46 14.072 35.452 14.056L35.368 13.876C35.368 13.86 35.364 13.848 35.356 13.84C35.356 13.84 35.352 13.84 35.344 13.84C35.344 13.832 35.344 13.824 35.344 13.816C35.336 13.8 35.328 13.78 35.32 13.756C35.312 13.732 35.3 13.712 35.284 13.696C35.276 13.672 35.268 13.648 35.26 13.624C35.252 13.6 35.24 13.576 35.224 13.552L35.188 13.468L35.104 13.384C35.104 13.4 35.096 13.416 35.08 13.432C35.064 13.464 35.056 13.488 35.056 13.504L35.02 13.6C35.004 13.632 34.988 13.656 34.972 13.672C34.948 13.704 34.916 13.72 34.876 13.72C34.836 13.704 34.804 13.668 34.78 13.612C34.756 13.556 34.736 13.512 34.72 13.48C34.712 13.48 34.708 13.48 34.708 13.48C34.708 13.472 34.708 13.468 34.708 13.468C34.676 13.38 34.66 13.356 34.66 13.396C34.668 13.436 34.668 13.464 34.66 13.48V15.244C34.66 15.324 34.664 15.412 34.672 15.508C34.68 15.604 34.672 15.696 34.648 15.784C34.616 15.848 34.6 15.876 34.6 15.868L34.576 15.892C34.568 15.9 34.56 15.908 34.552 15.916C34.552 15.924 34.544 15.932 34.528 15.94C34.512 15.948 34.492 15.964 34.468 15.988C34.452 16.012 34.44 16.028 34.432 16.036C34.416 16.068 34.4 16.088 34.384 16.096C34.36 16.144 34.344 16.164 34.336 16.156C34.336 16.156 34.332 16.156 34.324 16.156C34.324 16.156 34.324 16.152 34.324 16.144C34.308 16.224 34.296 16.304 34.288 16.384C34.28 16.472 34.264 16.56 34.24 16.648C34.232 16.664 34.224 16.684 34.216 16.708C34.216 16.732 34.208 16.752 34.192 16.768C34.184 16.776 34.172 16.776 34.156 16.768C34.148 16.76 34.144 16.752 34.144 16.744C34.136 16.728 34.128 16.708 34.12 16.684C34.112 16.66 34.104 16.64 34.096 16.624C34.088 16.592 34.08 16.56 34.072 16.528C34.064 16.504 34.056 16.476 34.048 16.444C34.04 16.42 34.032 16.392 34.024 16.36C34.024 16.336 34.016 16.312 34 16.288L33.928 16.36C33.92 16.368 33.912 16.372 33.904 16.372C33.88 16.396 33.86 16.412 33.844 16.42C33.836 16.596 33.832 16.788 33.832 16.996C33.832 17.212 33.824 17.412 33.808 17.596C33.808 17.644 33.812 17.708 33.82 17.788C33.828 17.876 33.828 17.944 33.82 17.992C33.82 18.048 33.8 18.064 33.76 18.04C33.688 17.992 33.664 17.916 33.688 17.812C33.712 17.708 33.72 17.616 33.712 17.536C33.704 17.352 33.696 17.164 33.688 16.972C33.688 16.788 33.68 16.608 33.664 16.432C33.656 16.424 33.644 16.412 33.628 16.396C33.62 16.388 33.608 16.376 33.592 16.36C33.584 16.336 33.572 16.312 33.556 16.288C33.548 16.272 33.536 16.252 33.52 16.228C33.504 16.196 33.496 16.18 33.496 16.18C33.496 16.18 33.488 16.164 33.472 16.132C33.472 16.132 33.464 16.116 33.448 16.084C33.432 16.116 33.424 16.132 33.424 16.132C33.416 16.14 33.392 16.148 33.352 16.156C33.32 16.164 33.296 16.168 33.28 16.168C33.208 16.176 33.148 16.156 33.1 16.108C33.06 16.068 33.008 16.036 32.944 16.012C32.896 16.02 32.852 16.036 32.812 16.06C32.78 16.092 32.744 16.116 32.704 16.132C32.648 16.148 32.58 16.144 32.5 16.12L32.416 16.084H32.404C32.388 16.092 32.364 16.104 32.332 16.12C32.308 16.136 32.284 16.148 32.26 16.156C32.204 16.172 32.144 16.16 32.08 16.12C32.016 16.08 31.948 16.036 31.876 15.988C31.844 15.972 31.816 15.956 31.792 15.94C31.704 15.876 31.66 15.788 31.66 15.676V8.116C31.66 8.052 31.66 7.988 31.66 7.924C31.66 7.852 31.68 7.788 31.72 7.732C31.752 7.684 31.796 7.648 31.852 7.624C31.9 7.608 31.94 7.6 31.972 7.6C32.012 7.592 32.052 7.592 32.092 7.6C32.14 7.6 32.184 7.6 32.224 7.6H35.176C35.336 7.6 35.496 7.6 35.656 7.6C35.816 7.592 35.972 7.6 36.124 7.624C36.532 7.656 36.904 7.732 37.24 7.852C37.584 7.964 37.88 8.112 38.128 8.296C38.176 8.32 38.22 8.352 38.26 8.392C38.26 8.392 38.26 8.396 38.26 8.404C38.268 8.404 38.272 8.408 38.272 8.416C38.28 8.416 38.288 8.42 38.296 8.428C38.592 8.676 38.816 8.976 38.968 9.328C39.128 9.68 39.208 10.076 39.208 10.516C39.208 10.78 39.176 11.032 39.112 11.272C39.096 11.424 39.064 11.524 39.016 11.572C39 11.604 38.992 11.624 38.992 11.632C38.952 11.728 38.904 11.82 38.848 11.908C38.8 11.996 38.744 12.084 38.68 12.172C38.672 12.18 38.664 12.192 38.656 12.208C38.648 12.216 38.64 12.224 38.632 12.232C38.624 12.24 38.616 12.248 38.608 12.256C38.6 12.264 38.592 12.276 38.584 12.292L38.488 12.4C38.48 12.408 38.468 12.416 38.452 12.424C38.444 12.432 38.436 12.444 38.428 12.46C38.404 12.476 38.38 12.496 38.356 12.52C38.34 12.544 38.32 12.564 38.296 12.58C38.288 12.692 38.304 12.86 38.344 13.084C38.384 13.308 38.408 13.528 38.416 13.744C38.432 13.768 38.448 13.792 38.464 13.816C38.48 13.84 38.492 13.868 38.5 13.9C38.58 14.036 38.66 14.204 38.74 14.404L39.028 14.932C39.068 15.012 39.108 15.088 39.148 15.16C39.196 15.232 39.24 15.304 39.28 15.376C39.296 15.408 39.312 15.436 39.328 15.46C39.344 15.484 39.356 15.512 39.364 15.544C39.372 15.552 39.38 15.568 39.388 15.592C39.396 15.608 39.4 15.624 39.4 15.64C39.416 15.672 39.424 15.704 39.424 15.736ZM34.756 11.104H35.536C35.576 11.104 35.628 11.096 35.692 11.08C35.772 11.056 35.836 11.008 35.884 10.936C35.94 10.864 35.984 10.78 36.016 10.684C36.032 10.644 36.044 10.604 36.052 10.564C36.06 10.516 36.064 10.468 36.064 10.42C36.064 10.332 36.048 10.244 36.016 10.156C35.984 10.068 35.932 9.996 35.86 9.94C35.828 9.908 35.784 9.892 35.728 9.892C35.672 9.884 35.62 9.884 35.572 9.892C35.484 9.9 35.392 9.912 35.296 9.928C35.208 9.936 35.116 9.932 35.02 9.916C34.972 9.908 34.924 9.9 34.876 9.892C34.836 9.876 34.796 9.864 34.756 9.856C34.74 9.848 34.728 9.844 34.72 9.844C34.72 9.836 34.7 9.832 34.66 9.832V10.852C34.66 10.996 34.668 11.064 34.684 11.056C34.7 11.048 34.724 11.064 34.756 11.104ZM38.152 13.312C38.192 13.008 38.212 12.788 38.212 12.652C38.212 12.652 38.204 12.66 38.188 12.676C38.188 12.684 38.184 12.692 38.176 12.7C38.176 12.7 38.176 12.704 38.176 12.712C38.176 12.72 38.176 12.736 38.176 12.76C38.176 12.784 38.168 12.82 38.152 12.868C38.136 12.9 38.12 12.92 38.104 12.928C38.08 12.936 38.064 12.92 38.056 12.88C38.048 12.84 38.028 12.828 37.996 12.844C37.996 12.868 37.98 12.884 37.948 12.892C37.94 12.9 37.932 12.9 37.924 12.892C37.924 12.876 37.92 12.868 37.912 12.868L37.948 12.94C37.964 12.948 37.976 12.964 37.984 12.988C37.992 13.004 38 13.02 38.008 13.036L38.152 13.312ZM36.568 16.312C36.584 16.296 36.596 16.276 36.604 16.252C36.62 16.228 36.612 16.192 36.58 16.144C36.58 16.144 36.576 16.144 36.568 16.144C36.568 16.144 36.568 16.148 36.568 16.156C36.56 16.172 36.556 16.192 36.556 16.216C36.564 16.248 36.568 16.28 36.568 16.312ZM47.2202 14.404C47.2202 14.564 47.2242 14.752 47.2322 14.968C47.2402 15.176 47.2402 15.368 47.2322 15.544C47.2322 15.584 47.2322 15.624 47.2322 15.664C47.2322 15.704 47.2242 15.744 47.2082 15.784C47.2082 15.792 47.2042 15.8 47.1962 15.808C47.1882 15.84 47.1722 15.868 47.1482 15.892C47.1242 15.908 47.1002 15.924 47.0762 15.94C47.0682 15.956 47.0522 15.972 47.0282 15.988C47.0122 16.004 46.9962 16.024 46.9802 16.048C46.9722 16.064 46.9602 16.084 46.9442 16.108C46.9282 16.132 46.9122 16.156 46.8962 16.18C46.8882 16.188 46.8802 16.196 46.8722 16.204C46.8642 16.212 46.8562 16.224 46.8482 16.24C46.8082 16.288 46.7642 16.336 46.7162 16.384C46.6762 16.432 46.6362 16.484 46.5962 16.54L46.5122 16.66C46.4802 16.7 46.4522 16.74 46.4282 16.78C46.4042 16.82 46.3762 16.86 46.3442 16.9C46.3282 16.916 46.3202 16.924 46.3202 16.924C46.2962 16.956 46.2522 16.992 46.1882 17.032C46.1802 17.04 46.1722 17.044 46.1642 17.044C46.1562 17.052 46.1442 17.06 46.1282 17.068C46.1122 17.076 46.0922 17.092 46.0682 17.116C46.0442 17.14 46.0202 17.156 45.9962 17.164C45.9642 17.172 45.9282 17.164 45.8882 17.14C45.8562 17.124 45.8282 17.108 45.8042 17.092C45.7882 17.076 45.7762 17.068 45.7682 17.068C45.7842 17.052 45.7722 17.06 45.7322 17.092C45.7002 17.124 45.6762 17.148 45.6602 17.164C45.6442 17.332 45.6362 17.5 45.6362 17.668C45.6362 17.844 45.6282 18.02 45.6122 18.196C45.6042 18.268 45.6122 18.356 45.6362 18.46C45.6602 18.564 45.6362 18.624 45.5642 18.64C45.4922 18.648 45.4642 18.596 45.4802 18.484C45.5042 18.372 45.5162 18.28 45.5162 18.208C45.5082 18.024 45.5002 17.844 45.4922 17.668C45.4922 17.492 45.4842 17.316 45.4682 17.14C45.4602 17.132 45.4562 17.124 45.4562 17.116C45.4482 17.116 45.4402 17.112 45.4322 17.104L45.3722 17.008C45.3402 16.944 45.3042 16.876 45.2642 16.804C45.2322 16.732 45.1962 16.664 45.1562 16.6L44.9762 16.288C44.9682 16.256 44.9562 16.224 44.9402 16.192C44.9242 16.168 44.9082 16.136 44.8922 16.096L44.8802 16.084C44.8722 16.132 44.8682 16.18 44.8682 16.228C44.8682 16.284 44.8602 16.336 44.8442 16.384C44.8362 16.392 44.8282 16.408 44.8202 16.432C44.8122 16.456 44.8042 16.464 44.7962 16.456C44.7882 16.416 44.7802 16.372 44.7722 16.324C44.7722 16.284 44.7722 16.248 44.7722 16.216C44.7402 16.28 44.7202 16.324 44.7122 16.348C44.6882 16.404 44.6642 16.46 44.6402 16.516C44.6162 16.58 44.5882 16.644 44.5562 16.708C44.5322 16.764 44.4922 16.836 44.4362 16.924C44.4362 16.932 44.4322 16.936 44.4242 16.936C44.4162 16.952 44.3962 16.976 44.3642 17.008C44.3482 17.024 44.3362 17.032 44.3282 17.032C44.3122 17.088 44.3002 17.144 44.2922 17.2C44.2922 17.264 44.2882 17.328 44.2802 17.392C44.2722 17.432 44.2642 17.468 44.2562 17.5C44.2482 17.54 44.2402 17.58 44.2322 17.62C44.2242 17.636 44.2122 17.66 44.1962 17.692C44.1882 17.732 44.1802 17.744 44.1722 17.728C44.1562 17.64 44.1602 17.54 44.1842 17.428C44.2082 17.324 44.1882 17.244 44.1242 17.188C44.1002 17.164 44.0882 17.176 44.0882 17.224C44.0882 17.272 44.0922 17.332 44.1002 17.404C44.1162 17.476 44.1242 17.536 44.1242 17.584C44.1242 17.64 44.1082 17.656 44.0762 17.632C44.0122 17.576 43.9962 17.492 44.0282 17.38C44.0602 17.276 44.0602 17.184 44.0282 17.104C44.0202 17.064 44.0162 17.088 44.0162 17.176C44.0242 17.264 44.0122 17.324 43.9802 17.356C43.9722 17.372 43.9642 17.356 43.9562 17.308C43.9562 17.268 43.9482 17.236 43.9322 17.212C43.9242 17.196 43.9082 17.16 43.8842 17.104C43.8682 17.048 43.8402 17.032 43.8002 17.056C43.8002 17.056 43.7962 17.056 43.7882 17.056C43.7882 17.056 43.7882 17.06 43.7882 17.068C43.7722 17.084 43.7442 17.116 43.7042 17.164C43.6642 17.22 43.6162 17.272 43.5602 17.32C43.5602 17.32 43.5442 17.328 43.5122 17.344C43.5042 17.432 43.5122 17.552 43.5362 17.704C43.5602 17.856 43.5842 18.004 43.6082 18.148C43.6322 18.3 43.6362 18.424 43.6202 18.52C43.6042 18.616 43.5522 18.656 43.4642 18.64C43.3762 18.624 43.3242 18.564 43.3082 18.46C43.2922 18.356 43.2922 18.232 43.3082 18.088C43.3322 17.952 43.3562 17.812 43.3802 17.668C43.4122 17.532 43.4242 17.416 43.4162 17.32C43.4082 17.32 43.4042 17.316 43.4042 17.308C43.4042 17.308 43.4002 17.308 43.3922 17.308C43.3842 17.308 43.3802 17.304 43.3802 17.296C43.3642 17.28 43.3482 17.256 43.3322 17.224C43.3162 17.208 43.3002 17.184 43.2842 17.152C43.2442 17.056 43.2042 16.952 43.1642 16.84L42.9842 16.48C42.9762 16.464 42.9682 16.448 42.9602 16.432C42.9602 16.416 42.9522 16.4 42.9362 16.384C42.8962 16.368 42.8522 16.352 42.8042 16.336C42.7642 16.32 42.7242 16.304 42.6842 16.288C42.7002 16.272 42.7002 16.256 42.6842 16.24C42.6762 16.248 42.6722 16.256 42.6722 16.264C42.6722 16.272 42.6722 16.276 42.6722 16.276C42.6562 16.276 42.6322 16.268 42.6002 16.252C42.6002 16.252 42.5962 16.252 42.5882 16.252C42.5882 16.252 42.5882 16.248 42.5882 16.24C42.5802 16.248 42.5722 16.256 42.5642 16.264C42.5562 16.28 42.5482 16.292 42.5402 16.3C42.4922 16.364 42.4442 16.42 42.3962 16.468L42.3722 16.492C42.3722 16.492 42.3682 16.492 42.3602 16.492C42.3602 16.492 42.3602 16.496 42.3602 16.504C42.3522 16.504 42.3442 16.504 42.3362 16.504C42.3362 16.512 42.3322 16.516 42.3242 16.516C42.3162 16.636 42.3082 16.804 42.3002 17.02C42.3002 17.244 42.2962 17.464 42.2882 17.68C42.2882 17.904 42.2802 18.076 42.2642 18.196C42.2642 18.204 42.2562 18.212 42.2402 18.22C42.2242 18.236 42.2162 18.24 42.2162 18.232C42.1682 18.144 42.1522 18.016 42.1682 17.848C42.1842 17.688 42.2042 17.516 42.2282 17.332C42.2602 17.156 42.2722 16.984 42.2642 16.816C42.2562 16.656 42.2082 16.532 42.1202 16.444L41.9522 16.228C41.9442 16.212 41.9322 16.196 41.9162 16.18C41.9082 16.164 41.8962 16.152 41.8802 16.144C41.8642 16.112 41.8362 16.076 41.7962 16.036C41.7962 16.044 41.7922 16.048 41.7842 16.048C41.7602 16.08 41.7282 16.108 41.6882 16.132L41.6042 16.168C41.5962 16.168 41.5922 16.168 41.5922 16.168C41.5922 16.176 41.5882 16.18 41.5802 16.18C41.5802 16.196 41.5802 16.22 41.5802 16.252C41.5802 16.292 41.5722 16.344 41.5562 16.408L41.4602 17.02C41.4522 17.076 41.4442 17.128 41.4362 17.176C41.4282 17.224 41.4162 17.272 41.4002 17.32C41.3922 17.368 41.3842 17.436 41.3762 17.524C41.3682 17.612 41.3602 17.636 41.3522 17.596C41.2962 17.508 41.2722 17.396 41.2802 17.26C41.2882 17.124 41.3042 16.992 41.3282 16.864C41.3602 16.744 41.3722 16.648 41.3642 16.576C41.3562 16.504 41.3082 16.484 41.2202 16.516C41.1082 16.54 41.0122 16.524 40.9322 16.468C40.9162 16.452 40.9002 16.436 40.8842 16.42C40.8682 16.404 40.8522 16.392 40.8362 16.384C40.8282 16.368 40.8162 16.348 40.8002 16.324C40.7922 16.308 40.7882 16.308 40.7882 16.324C40.7802 16.404 40.7802 16.508 40.7882 16.636C40.8042 16.772 40.8162 16.9 40.8242 17.02C40.8322 17.148 40.8322 17.24 40.8242 17.296C40.8162 17.36 40.7882 17.36 40.7402 17.296C40.6682 17.2 40.6322 17.088 40.6322 16.96C40.6402 16.84 40.6562 16.712 40.6802 16.576C40.7122 16.448 40.7162 16.324 40.6922 16.204C40.6842 16.148 40.6802 16.152 40.6802 16.216C40.6882 16.288 40.6882 16.372 40.6802 16.468C40.6802 16.564 40.6682 16.636 40.6442 16.684C40.6202 16.74 40.6082 16.712 40.6082 16.6C40.6162 16.488 40.6202 16.404 40.6202 16.348L40.5362 15.988C40.5042 15.972 40.4762 15.956 40.4522 15.94C40.3642 15.876 40.3202 15.788 40.3202 15.676V8.116C40.3202 8.052 40.3202 7.988 40.3202 7.924C40.3202 7.852 40.3402 7.788 40.3802 7.732C40.4042 7.684 40.4522 7.648 40.5242 7.624C40.5402 7.616 40.5562 7.612 40.5722 7.612C40.5962 7.604 40.6242 7.6 40.6562 7.6H46.5122C46.5922 7.6 46.6762 7.6 46.7642 7.6C46.8522 7.592 46.9282 7.612 46.9922 7.66L47.0642 7.732C47.1042 7.788 47.1242 7.848 47.1242 7.912V9.328C47.1322 9.36 47.1362 9.4 47.1362 9.448C47.1362 9.488 47.1362 9.528 47.1362 9.568C47.1362 9.608 47.1282 9.66 47.1122 9.724C47.1122 9.732 47.1082 9.74 47.1002 9.748C47.1002 9.748 47.1002 9.752 47.1002 9.76C47.0922 9.76 47.0882 9.764 47.0882 9.772C47.0722 9.788 47.0642 9.796 47.0642 9.796C47.0562 9.812 47.0282 9.84 46.9802 9.88C46.9322 9.92 46.9042 9.944 46.8962 9.952C46.8802 9.968 46.8642 9.98 46.8482 9.988C46.8162 10.004 46.8002 10.012 46.8002 10.012C46.8002 10.004 46.8002 9.996 46.8002 9.988C46.8002 9.988 46.7922 9.984 46.7762 9.976C46.7602 9.96 46.7242 9.956 46.6682 9.964C46.6202 9.98 46.5802 9.988 46.5482 9.988C46.4922 9.996 46.4362 10 46.3802 10C46.3322 10 46.2802 10.008 46.2242 10.024C46.1682 10.04 46.1162 10.064 46.0682 10.096C46.0282 10.12 45.9842 10.14 45.9362 10.156C45.8962 10.164 45.8562 10.176 45.8162 10.192C45.7762 10.2 45.7362 10.212 45.6962 10.228C45.6562 10.236 45.6162 10.256 45.5762 10.288C45.5362 10.312 45.4962 10.328 45.4562 10.336C45.4002 10.344 45.3362 10.328 45.2642 10.288C45.2402 10.264 45.2202 10.252 45.2042 10.252C45.1962 10.252 45.1922 10.252 45.1922 10.252C45.1842 10.276 45.1682 10.292 45.1442 10.3C45.1122 10.332 45.0722 10.364 45.0242 10.396C44.9842 10.42 44.9402 10.44 44.8922 10.456C44.8362 10.48 44.7842 10.488 44.7362 10.48C44.6962 10.464 44.6482 10.452 44.5922 10.444C44.5602 10.436 44.5242 10.436 44.4842 10.444C44.4442 10.444 44.4042 10.44 44.3642 10.432C44.2842 10.416 44.2082 10.388 44.1362 10.348C44.0642 10.308 43.9922 10.268 43.9202 10.228C43.8562 10.188 43.7842 10.156 43.7042 10.132C43.6322 10.1 43.5602 10.072 43.4882 10.048L43.2002 9.94V10.552L43.2482 10.696H46.0562C46.1442 10.696 46.2482 10.692 46.3682 10.684C46.4882 10.676 46.5922 10.692 46.6802 10.732C46.6882 10.732 46.6962 10.736 46.7042 10.744C46.7522 10.776 46.7842 10.804 46.8002 10.828C46.8242 10.86 46.8402 10.896 46.8482 10.936C46.8562 10.976 46.8642 11.016 46.8722 11.056C46.8722 11.104 46.8682 11.156 46.8602 11.212C46.8602 11.26 46.8602 11.308 46.8602 11.356V12.472C46.8602 12.504 46.8602 12.536 46.8602 12.568C46.8682 12.592 46.8682 12.616 46.8602 12.64C46.8602 12.656 46.8522 12.68 46.8362 12.712C46.8362 12.72 46.8322 12.724 46.8242 12.724C46.8242 12.724 46.8242 12.728 46.8242 12.736C46.7922 12.8 46.7362 12.852 46.6562 12.892C46.6482 12.892 46.6442 12.896 46.6442 12.904C46.6442 12.904 46.6402 12.904 46.6322 12.904C46.5842 12.936 46.5322 12.96 46.4762 12.976C46.4282 12.984 46.3842 12.996 46.3442 13.012C46.2802 13.044 46.2162 13.084 46.1522 13.132C46.0882 13.172 46.0202 13.2 45.9482 13.216C45.9082 13.224 45.8642 13.232 45.8162 13.24C45.7682 13.24 45.7242 13.248 45.6842 13.264C45.6442 13.272 45.6042 13.284 45.5642 13.3C45.5242 13.316 45.4842 13.332 45.4442 13.348C45.3722 13.372 45.3002 13.384 45.2282 13.384C45.1562 13.384 45.0882 13.388 45.0242 13.396H44.9642C44.9482 13.396 44.9322 13.4 44.9162 13.408C44.9002 13.408 44.8842 13.404 44.8682 13.396C44.8202 13.388 44.7762 13.376 44.7362 13.36C44.7042 13.336 44.6682 13.32 44.6282 13.312C44.5562 13.296 44.4842 13.304 44.4122 13.336C44.3402 13.36 44.2682 13.364 44.1962 13.348C44.1402 13.332 44.0842 13.304 44.0282 13.264C43.9802 13.216 43.9242 13.172 43.8602 13.132C43.7962 13.1 43.7282 13.068 43.6562 13.036C43.5842 13.004 43.5122 12.976 43.4402 12.952C43.4562 12.952 43.4242 12.944 43.3442 12.928C43.2642 12.912 43.2162 12.904 43.2002 12.904V13.516L43.2482 13.66H46.8962C46.9442 13.66 46.9922 13.672 47.0402 13.696C47.0562 13.696 47.0762 13.708 47.1002 13.732C47.1162 13.74 47.1282 13.748 47.1362 13.756C47.1442 13.764 47.1522 13.776 47.1602 13.792C47.1762 13.808 47.1922 13.84 47.2082 13.888C47.2162 13.912 47.2202 13.948 47.2202 13.996V14.404ZM56.1241 11.896V12.268C56.1241 12.396 56.1201 12.54 56.1121 12.7C56.1121 12.86 56.1001 13.008 56.0761 13.144C56.0521 13.288 56.0241 13.428 55.9921 13.564C55.9601 13.692 55.9201 13.82 55.8721 13.948C55.8401 14.036 55.8121 14.116 55.7881 14.188C55.7641 14.252 55.7321 14.304 55.6921 14.344C55.6921 14.352 55.6881 14.356 55.6801 14.356C55.6801 14.356 55.6801 14.36 55.6801 14.368C55.6241 14.472 55.5721 14.556 55.5241 14.62C55.4921 14.676 55.4521 14.732 55.4041 14.788C55.3561 14.836 55.3081 14.884 55.2601 14.932C55.2201 14.972 55.1761 15.012 55.1281 15.052C55.0881 15.092 55.0481 15.132 55.0081 15.172C55.0081 15.172 55.0041 15.172 54.9961 15.172C54.9961 15.172 54.9961 15.176 54.9961 15.184C54.9561 15.224 54.9161 15.284 54.8761 15.364C54.8681 15.372 54.8641 15.38 54.8641 15.388C54.8641 15.396 54.8601 15.404 54.8521 15.412L54.8161 15.472C54.8081 15.48 54.8001 15.492 54.7921 15.508C54.7921 15.516 54.7881 15.52 54.7801 15.52C54.7481 15.576 54.7081 15.628 54.6601 15.676C54.6201 15.708 54.5721 15.748 54.5161 15.796C54.4681 15.836 54.4161 15.864 54.3601 15.88H54.3001C54.2921 15.912 54.2801 15.948 54.2641 15.988C54.2561 16.02 54.2441 16.052 54.2281 16.084C54.2201 16.092 54.2121 16.104 54.2041 16.12C54.2041 16.136 54.1961 16.152 54.1801 16.168C54.1721 16.176 54.1641 16.184 54.1561 16.192C54.1481 16.2 54.1441 16.212 54.1441 16.228C54.1361 16.316 54.1281 16.448 54.1201 16.624C54.1201 16.8 54.1161 16.984 54.1081 17.176C54.1081 17.376 54.1081 17.564 54.1081 17.74C54.1081 17.916 54.1041 18.048 54.0961 18.136C54.0961 18.144 54.0801 18.132 54.0481 18.1C54.0401 18.076 54.0321 18.052 54.0241 18.028C54.0241 18.004 54.0161 17.98 54.0001 17.956L53.8801 17.416C53.8401 17.296 53.8201 17.148 53.8201 16.972C53.8201 16.796 53.8201 16.62 53.8201 16.444C53.8281 16.276 53.8161 16.132 53.7841 16.012C53.7841 16.012 53.7801 16.012 53.7721 16.012C53.7721 16.02 53.7721 16.028 53.7721 16.036C53.7721 16.044 53.7681 16.044 53.7601 16.036C53.7521 16.028 53.7441 16.024 53.7361 16.024C53.7201 16.016 53.7041 16.004 53.6881 15.988C53.6801 15.98 53.6681 15.972 53.6521 15.964C53.6441 15.956 53.6321 15.948 53.6161 15.94C53.5841 15.972 53.5601 16.004 53.5441 16.036C53.5281 16.052 53.5201 16.064 53.5201 16.072L53.4481 16.156C53.3601 16.268 53.2921 16.392 53.2441 16.528L53.1721 16.744C53.1401 16.84 53.1041 16.94 53.0641 17.044C53.0241 17.156 52.9641 17.256 52.8841 17.344C52.8361 17.392 52.8161 17.408 52.8241 17.392C52.8401 17.384 52.8481 17.376 52.8481 17.368L52.8001 17.416C52.7681 17.432 52.7521 17.444 52.7521 17.452C52.7521 17.468 52.7321 17.48 52.6921 17.488C52.6841 17.488 52.6681 17.484 52.6441 17.476C52.6281 17.468 52.6121 17.468 52.5961 17.476C52.5881 17.476 52.5801 17.476 52.5721 17.476C52.5641 17.484 52.5521 17.488 52.5361 17.488L52.4521 17.548C52.4361 17.556 52.4121 17.572 52.3801 17.596C52.3561 17.62 52.3321 17.62 52.3081 17.596C52.3001 17.588 52.2921 17.576 52.2841 17.56C52.2841 17.544 52.2761 17.532 52.2601 17.524C52.2521 17.516 52.2441 17.516 52.2361 17.524C52.2281 17.54 52.2201 17.544 52.2121 17.536C52.2041 17.528 52.1961 17.52 52.1881 17.512C52.1801 17.504 52.1721 17.496 52.1641 17.488C52.1321 17.472 52.1001 17.448 52.0681 17.416C52.0361 17.384 52.0041 17.356 51.9721 17.332C51.9401 17.3 51.9121 17.276 51.8881 17.26C51.8721 17.3 51.8641 17.34 51.8641 17.38C51.8641 17.428 51.8561 17.472 51.8401 17.512C51.8321 17.544 51.8201 17.572 51.8041 17.596C51.7961 17.62 51.7921 17.644 51.7921 17.668C51.7841 17.756 51.7801 17.884 51.7801 18.052C51.7801 18.228 51.7801 18.412 51.7801 18.604C51.7801 18.796 51.7761 18.976 51.7681 19.144C51.7601 19.32 51.7481 19.452 51.7321 19.54C51.7241 19.612 51.7161 19.624 51.7081 19.576C51.7081 19.528 51.7041 19.448 51.6961 19.336C51.6961 19.224 51.6921 19.108 51.6841 18.988C51.6841 18.876 51.6841 18.784 51.6841 18.712C51.6761 18.592 51.6681 18.44 51.6601 18.256C51.6601 18.072 51.6561 17.888 51.6481 17.704C51.6481 17.528 51.6441 17.38 51.6361 17.26C51.6041 17.284 51.5761 17.312 51.5521 17.344C51.5041 17.4 51.4601 17.456 51.4201 17.512C51.3801 17.568 51.3281 17.616 51.2641 17.656C51.2561 17.72 51.2481 17.784 51.2401 17.848C51.2321 17.912 51.2241 17.976 51.2161 18.04C51.2081 18.16 51.1921 18.276 51.1681 18.388C51.1521 18.5 51.1361 18.612 51.1201 18.724C51.1121 18.772 51.1041 18.816 51.0961 18.856C51.0961 18.904 51.0881 18.948 51.0721 18.988C51.0641 19.02 51.0561 19.068 51.0481 19.132C51.0401 19.204 51.0321 19.224 51.0241 19.192C51.0081 19.008 51.0001 18.808 51.0001 18.592C51.0001 18.384 50.9921 18.192 50.9761 18.016C50.9761 18.008 50.9681 18.004 50.9521 18.004C50.9361 18.004 50.9281 18.008 50.9281 18.016C50.9121 18.192 50.9041 18.392 50.9041 18.616C50.9041 18.84 50.8961 19.044 50.8801 19.228C50.8801 19.26 50.8721 19.248 50.8561 19.192C50.8481 19.136 50.8401 19.096 50.8321 19.072C50.8081 18.984 50.7881 18.884 50.7721 18.772C50.7561 18.66 50.7401 18.568 50.7241 18.496C50.7081 18.352 50.6921 18.208 50.6761 18.064C50.6681 17.928 50.6521 17.792 50.6281 17.656L50.5561 17.584C50.5321 17.544 50.5081 17.504 50.4841 17.464C50.4681 17.432 50.4521 17.4 50.4361 17.368C50.3721 17.224 50.3121 17.08 50.2561 16.936C50.2081 16.792 50.1521 16.652 50.0881 16.516L49.9081 16.144C49.9001 16.128 49.8961 16.116 49.8961 16.108C49.8961 16.1 49.8921 16.092 49.8841 16.084C49.8681 16.116 49.8601 16.152 49.8601 16.192C49.8681 16.24 49.8601 16.284 49.8361 16.324C49.8281 16.332 49.8201 16.32 49.8121 16.288C49.8041 16.264 49.7961 16.248 49.7881 16.24C49.7801 16.192 49.7681 16.156 49.7521 16.132C49.7521 16.148 49.7441 16.164 49.7281 16.18C49.7201 16.196 49.7041 16.216 49.6801 16.24C49.6561 16.264 49.6321 16.288 49.6081 16.312C49.5921 16.336 49.5721 16.356 49.5481 16.372C49.5081 16.428 49.4761 16.492 49.4521 16.564C49.4361 16.644 49.4201 16.716 49.4041 16.78C49.3961 16.812 49.3881 16.844 49.3801 16.876C49.3801 16.908 49.3721 16.94 49.3561 16.972C49.3481 17.004 49.3401 17.052 49.3321 17.116C49.3241 17.18 49.3161 17.196 49.3081 17.164C49.2201 17.076 49.1801 17.04 49.1881 17.056C49.1961 17.08 49.2201 17.12 49.2601 17.176C49.3001 17.24 49.3241 17.292 49.3321 17.332C49.3401 17.38 49.3001 17.384 49.2121 17.344C49.1321 17.32 49.0921 17.264 49.0921 17.176C49.1001 17.088 49.1161 16.988 49.1401 16.876C49.1721 16.764 49.1801 16.668 49.1641 16.588C49.1641 16.572 49.1561 16.556 49.1401 16.54C49.1321 16.524 49.1281 16.524 49.1281 16.54C49.1201 16.58 49.1161 16.64 49.1161 16.72C49.1161 16.8 49.1161 16.864 49.1161 16.912C49.1161 16.968 49.1041 16.976 49.0801 16.936C49.0401 16.848 49.0281 16.756 49.0441 16.66C49.0601 16.564 49.0601 16.472 49.0441 16.384C49.0361 16.336 49.0161 16.296 48.9841 16.264C48.9681 16.256 48.9521 16.244 48.9361 16.228C48.9201 16.212 48.9041 16.2 48.8881 16.192C48.8801 16.192 48.8721 16.196 48.8641 16.204C48.8641 16.22 48.8601 16.232 48.8521 16.24C48.8281 16.24 48.8161 16.244 48.8161 16.252C48.8081 16.316 48.8081 16.4 48.8161 16.504C48.8321 16.616 48.8401 16.708 48.8401 16.78C48.8481 16.852 48.8241 16.872 48.7681 16.84C48.6881 16.776 48.6641 16.68 48.6961 16.552C48.7361 16.424 48.7481 16.308 48.7321 16.204C48.7321 16.188 48.7281 16.168 48.7201 16.144C48.7121 16.12 48.7001 16.116 48.6841 16.132C48.6681 16.156 48.6641 16.192 48.6721 16.24C48.6801 16.288 48.6721 16.308 48.6481 16.3C48.6161 16.284 48.6041 16.256 48.6121 16.216C48.6281 16.176 48.6321 16.14 48.6241 16.108L48.5401 15.988C48.5081 15.972 48.4801 15.956 48.4561 15.94C48.3681 15.876 48.3241 15.788 48.3241 15.676V13.42C48.1721 13.172 48.0601 12.94 47.9881 12.724C47.9241 12.5 47.9121 12.32 47.9521 12.184C48.0001 12.048 48.1241 11.98 48.3241 11.98V8.26C48.3241 8.212 48.3201 8.16 48.3121 8.104C48.3121 8.04 48.3161 7.98 48.3241 7.924C48.3241 7.844 48.3441 7.78 48.3841 7.732C48.4161 7.684 48.4601 7.648 48.5161 7.624C48.5641 7.608 48.6041 7.6 48.6361 7.6C48.6761 7.592 48.7161 7.592 48.7561 7.6C48.8041 7.6 48.8481 7.6 48.8881 7.6H51.8881C52.0161 7.6 52.1441 7.6 52.2721 7.6C52.4001 7.6 52.5281 7.608 52.6561 7.624C53.5361 7.696 54.2761 7.96 54.8761 8.416C54.9241 8.448 54.9601 8.476 54.9841 8.5C55.0081 8.516 55.0281 8.532 55.0441 8.548C55.1881 8.668 55.3281 8.816 55.4641 8.992C55.5601 9.096 55.6401 9.216 55.7041 9.352C55.8561 9.632 55.9681 9.948 56.0401 10.3C56.0401 10.308 56.0401 10.312 56.0401 10.312C56.0481 10.312 56.0521 10.316 56.0521 10.324C56.0601 10.356 56.0681 10.392 56.0761 10.432C56.0841 10.464 56.0881 10.5 56.0881 10.54C56.1121 10.644 56.1241 10.756 56.1241 10.876C56.1401 11.252 56.1401 11.592 56.1241 11.896ZM51.3721 9.976L51.3001 9.904C51.2121 9.816 51.1761 9.776 51.1921 9.784C51.2081 9.792 51.2361 9.82 51.2761 9.868C51.3241 9.916 51.3401 9.956 51.3241 9.988V13.516C51.3241 14.1 51.2561 14.528 51.1201 14.8C50.9921 15.072 50.8161 15.22 50.5921 15.244C50.3761 15.268 50.1401 15.208 49.8841 15.064C49.6281 14.912 49.3761 14.708 49.1281 14.452C48.8801 14.196 48.6561 13.924 48.4561 13.636C48.2641 13.348 48.1201 13.076 48.0241 12.82C47.9281 12.556 47.9041 12.348 47.9521 12.196C48.0081 12.036 48.1561 11.964 48.3961 11.98C48.6361 11.988 48.9921 12.12 49.4641 12.376C49.9441 12.624 50.5641 13.028 51.3241 13.588L51.4201 13.66H51.9241C52.0281 13.66 52.1281 13.656 52.2241 13.648C52.3281 13.632 52.4321 13.608 52.5361 13.576C52.6001 13.552 52.6601 13.516 52.7161 13.468C52.7241 13.468 52.7281 13.468 52.7281 13.468C52.7281 13.46 52.7321 13.456 52.7401 13.456C52.7561 13.44 52.7721 13.42 52.7881 13.396C52.8041 13.372 52.8201 13.348 52.8361 13.324C52.8841 13.244 52.9201 13.16 52.9441 13.072C52.9761 12.976 53.0001 12.888 53.0161 12.808C53.0161 12.8 53.0161 12.792 53.0161 12.784C53.0241 12.768 53.0281 12.756 53.0281 12.748C53.0441 12.7 53.0521 12.652 53.0521 12.604C53.0601 12.548 53.0681 12.496 53.0761 12.448C53.0761 12.36 53.0761 12.264 53.0761 12.16C53.0841 12.048 53.0881 11.936 53.0881 11.824V11.644C53.0881 11.564 53.0841 11.488 53.0761 11.416C53.0761 11.336 53.0761 11.256 53.0761 11.176C53.0761 11.152 53.0721 11.112 53.0641 11.056C53.0641 10.992 53.0641 10.932 53.0641 10.876C53.0561 10.788 53.0401 10.708 53.0161 10.636C53.0001 10.556 52.9721 10.48 52.9321 10.408C52.9321 10.408 52.9241 10.392 52.9081 10.36C52.9001 10.344 52.8841 10.324 52.8601 10.3C52.8601 10.292 52.8521 10.28 52.8361 10.264L52.7641 10.192C52.7081 10.144 52.6521 10.12 52.5961 10.12C52.5401 10.12 52.4801 10.128 52.4161 10.144C52.3521 10.152 52.2841 10.168 52.2121 10.192C52.1401 10.208 52.0681 10.22 51.9961 10.228C51.9641 10.236 51.9281 10.244 51.8881 10.252C51.8561 10.252 51.8241 10.248 51.7921 10.24C51.7361 10.224 51.6801 10.2 51.6241 10.168C51.5681 10.128 51.5161 10.092 51.4681 10.06C51.4281 10.02 51.3961 9.992 51.3721 9.976ZM62.0909 17.008C62.0829 17.016 62.0749 17.032 62.0669 17.056C62.0669 17.08 62.0589 17.092 62.0429 17.092C62.0269 17.084 62.0149 17.068 62.0069 17.044C62.0069 17.02 61.9989 16.996 61.9829 16.972C61.9749 16.972 61.9669 16.968 61.9589 16.96C61.9509 16.96 61.9469 16.956 61.9469 16.948C61.9469 16.948 61.9429 16.948 61.9349 16.948C61.8549 16.868 61.7789 16.784 61.7069 16.696C61.6349 16.608 61.5549 16.524 61.4669 16.444C61.4589 16.428 61.4429 16.408 61.4189 16.384C61.4029 16.368 61.3829 16.348 61.3589 16.324C61.3349 16.308 61.3109 16.292 61.2869 16.276C61.2789 16.276 61.2709 16.28 61.2629 16.288C61.2629 16.304 61.2589 16.316 61.2509 16.324C61.2189 16.372 61.1909 16.4 61.1669 16.408C61.1429 16.416 61.1149 16.404 61.0829 16.372C61.0749 16.364 61.0629 16.348 61.0469 16.324C61.0389 16.308 61.0349 16.308 61.0349 16.324C61.0269 16.404 61.0269 16.484 61.0349 16.564C61.0509 16.652 61.0389 16.732 60.9989 16.804C60.9829 16.836 60.9709 16.828 60.9629 16.78C60.9629 16.74 60.9629 16.684 60.9629 16.612C60.9709 16.54 60.9709 16.484 60.9629 16.444C60.9549 16.388 60.9469 16.332 60.9389 16.276C60.9389 16.228 60.9389 16.176 60.9389 16.12H60.8429C60.5789 16.112 60.3189 16.088 60.0629 16.048C60.0069 16.04 59.9469 16.032 59.8829 16.024C59.8269 16.016 59.7709 16.008 59.7149 16C59.5949 15.976 59.5029 15.952 59.4389 15.928C59.3349 15.896 59.2309 15.86 59.1269 15.82C59.0229 15.78 58.9189 15.736 58.8149 15.688C58.7269 15.648 58.6429 15.608 58.5629 15.568C58.4829 15.52 58.4069 15.468 58.3349 15.412L58.1549 15.268C58.1229 15.244 58.0909 15.22 58.0589 15.196C58.0349 15.172 58.0109 15.148 57.9869 15.124C57.9789 15.116 57.9709 15.108 57.9629 15.1C57.9629 15.092 57.9549 15.084 57.9389 15.076C57.7229 14.844 57.5469 14.58 57.4109 14.284C57.2829 13.98 57.1989 13.632 57.1589 13.24C57.1429 13.104 57.1349 12.964 57.1349 12.82C57.1349 12.676 57.1349 12.532 57.1349 12.388V8.404C57.1349 8.332 57.1309 8.252 57.1229 8.164C57.1229 8.068 57.1269 7.98 57.1349 7.9C57.1509 7.724 57.2469 7.624 57.4229 7.6H59.5229C59.6029 7.6 59.6869 7.6 59.7749 7.6C59.8629 7.592 59.9389 7.612 60.0029 7.66C60.0349 7.684 60.0629 7.712 60.0869 7.744C60.1029 7.768 60.1149 7.796 60.1229 7.828C60.1309 7.852 60.1349 7.884 60.1349 7.924V12.292C60.1349 12.412 60.1389 12.56 60.1469 12.736C60.1629 12.904 60.1949 13.068 60.2429 13.228C60.2989 13.38 60.3869 13.5 60.5069 13.588C60.5309 13.596 60.5549 13.608 60.5789 13.624C60.6029 13.632 60.6269 13.64 60.6509 13.648C60.6829 13.664 60.7109 13.672 60.7349 13.672C60.8309 13.696 60.9269 13.708 61.0229 13.708C61.1269 13.708 61.2269 13.696 61.3229 13.672L61.4309 13.636C61.4789 13.62 61.5149 13.604 61.5389 13.588C61.6029 13.54 61.6549 13.48 61.6949 13.408C61.7429 13.336 61.7829 13.26 61.8149 13.18L61.8509 13.036C61.8829 12.908 61.8989 12.784 61.8989 12.664C61.9069 12.536 61.9109 12.412 61.9109 12.292V7.924C61.9109 7.876 61.9149 7.84 61.9229 7.816C61.9389 7.792 61.9549 7.764 61.9709 7.732C62.0109 7.668 62.0549 7.632 62.1029 7.624C62.1589 7.608 62.2109 7.6 62.2589 7.6H64.6349C64.7149 7.608 64.7789 7.644 64.8269 7.708C64.8829 7.764 64.9109 7.836 64.9109 7.924C64.9269 7.996 64.9309 8.072 64.9229 8.152C64.9149 8.224 64.9109 8.292 64.9109 8.356V12.808C64.9109 12.88 64.9109 12.964 64.9109 13.06C64.9109 13.156 64.9029 13.248 64.8869 13.336C64.8789 13.424 64.8629 13.512 64.8389 13.6C64.8229 13.68 64.8069 13.76 64.7909 13.84C64.7589 13.984 64.7229 14.116 64.6829 14.236C64.6429 14.348 64.5909 14.436 64.5269 14.5C64.5029 14.556 64.4709 14.612 64.4309 14.668C64.3749 14.772 64.3069 14.864 64.2269 14.944C64.2269 14.944 64.2229 14.948 64.2149 14.956C64.2149 14.956 64.2149 14.96 64.2149 14.968C64.1909 14.976 64.1669 14.996 64.1429 15.028C64.1189 15.06 64.1029 15.08 64.0949 15.088L63.9989 15.184C63.9669 15.216 63.9429 15.236 63.9269 15.244L63.8549 15.304C63.8549 15.304 63.8509 15.308 63.8429 15.316C63.8429 15.316 63.8429 15.32 63.8429 15.328C63.8189 15.376 63.7989 15.428 63.7829 15.484C63.7669 15.532 63.7509 15.584 63.7349 15.64C63.7029 15.72 63.6669 15.796 63.6269 15.868C63.5949 15.94 63.5509 16.008 63.4949 16.072L63.3629 16.216C63.3389 16.264 63.3269 16.28 63.3269 16.264C63.3189 16.216 63.3109 16.164 63.3029 16.108C63.3029 16.06 63.3029 16.012 63.3029 15.964L63.1949 16.168C63.1949 16.176 63.1909 16.18 63.1829 16.18C63.1829 16.18 63.1829 16.184 63.1829 16.192C63.1669 16.208 63.1469 16.224 63.1229 16.24C63.1069 16.264 63.0869 16.284 63.0629 16.3C63.0469 16.348 63.0349 16.396 63.0269 16.444C63.0269 16.5 63.0189 16.556 63.0029 16.612C62.9949 16.644 62.9909 16.676 62.9909 16.708C62.9989 16.748 62.9869 16.776 62.9549 16.792C62.9389 16.8 62.9269 16.788 62.9189 16.756C62.9189 16.724 62.9189 16.696 62.9189 16.672C62.9109 16.6 62.9029 16.528 62.8949 16.456C62.8949 16.392 62.8869 16.32 62.8709 16.24C62.8629 16.232 62.8549 16.224 62.8469 16.216C62.8389 16.208 62.8309 16.2 62.8229 16.192C62.8149 16.192 62.8069 16.184 62.7989 16.168C62.7909 16.152 62.7909 16.152 62.7989 16.168C62.7909 16.152 62.7829 16.136 62.7749 16.12C62.7669 16.112 62.7549 16.104 62.7389 16.096C62.7309 16.088 62.7229 16.08 62.7149 16.072C62.7149 16.064 62.7069 16.056 62.6909 16.048C62.6669 16.032 62.6389 16.032 62.6069 16.048C62.5749 16.072 62.5469 16.104 62.5229 16.144C62.4989 16.192 62.4789 16.236 62.4629 16.276C62.4309 16.372 62.3949 16.468 62.3549 16.564C62.3229 16.66 62.2829 16.752 62.2349 16.84V16.852C62.2189 16.884 62.1989 16.916 62.1749 16.948C62.1509 16.98 62.1229 17 62.0909 17.008ZM74.262 15.856C74.254 15.872 74.238 15.892 74.214 15.916L74.19 15.94C74.174 15.956 74.162 15.964 74.154 15.964C74.146 15.98 74.134 15.996 74.118 16.012C74.11 16.06 74.102 16.108 74.094 16.156C74.094 16.212 74.086 16.264 74.07 16.312C74.062 16.392 74.046 16.476 74.022 16.564C74.006 16.66 73.99 16.752 73.974 16.84C73.958 16.904 73.938 16.976 73.914 17.056C73.898 17.136 73.87 17.208 73.83 17.272C73.798 17.32 73.766 17.324 73.734 17.284C73.71 17.26 73.69 17.216 73.674 17.152C73.658 17.096 73.642 17.056 73.626 17.032C73.586 16.872 73.554 16.704 73.53 16.528C73.522 16.464 73.518 16.404 73.518 16.348C73.518 16.3 73.51 16.248 73.494 16.192L73.458 16.228C73.426 16.276 73.398 16.32 73.374 16.36L73.338 16.444C73.338 16.444 73.326 16.468 73.302 16.516C73.294 16.524 73.29 16.532 73.29 16.54C73.29 16.556 73.286 16.568 73.278 16.576C73.278 16.584 73.274 16.592 73.266 16.6C73.266 16.608 73.266 16.616 73.266 16.624C73.266 16.632 73.258 16.652 73.242 16.684C73.234 16.692 73.23 16.7 73.23 16.708C73.23 16.724 73.226 16.736 73.218 16.744C73.218 16.752 73.214 16.76 73.206 16.768L73.17 16.852V16.864C73.17 16.872 73.166 16.876 73.158 16.876C73.15 16.908 73.138 16.936 73.122 16.96C73.106 16.992 73.09 17.02 73.074 17.044L72.978 17.152L72.954 17.176C72.946 17.176 72.942 17.176 72.942 17.176C72.942 17.184 72.938 17.188 72.93 17.188C72.922 17.236 72.914 17.284 72.906 17.332C72.906 17.38 72.902 17.428 72.894 17.476C72.886 17.532 72.87 17.604 72.846 17.692C72.83 17.788 72.814 17.864 72.798 17.92C72.79 17.928 72.782 17.94 72.774 17.956C72.774 17.98 72.766 17.992 72.75 17.992C72.734 17.992 72.714 17.972 72.69 17.932C72.682 17.828 72.678 17.724 72.678 17.62C72.678 17.516 72.666 17.416 72.642 17.32C72.642 17.296 72.638 17.304 72.63 17.344C72.63 17.384 72.626 17.42 72.618 17.452C72.618 17.492 72.614 17.504 72.606 17.488C72.574 17.432 72.562 17.372 72.57 17.308C72.578 17.252 72.574 17.196 72.558 17.14C72.534 17.124 72.51 17.1 72.486 17.068C72.462 17.044 72.45 17.032 72.45 17.032L72.318 16.9C72.302 16.884 72.286 16.864 72.27 16.84C72.254 16.824 72.238 16.804 72.222 16.78C72.206 16.756 72.19 16.732 72.174 16.708C72.166 16.684 72.154 16.66 72.138 16.636C72.106 16.564 72.074 16.488 72.042 16.408C72.018 16.336 71.99 16.26 71.958 16.18C71.958 16.164 71.954 16.156 71.946 16.156C71.946 16.14 71.942 16.128 71.934 16.12C71.926 16.176 71.918 16.236 71.91 16.3C71.91 16.372 71.902 16.44 71.886 16.504C71.886 16.512 71.878 16.508 71.862 16.492C71.854 16.476 71.846 16.464 71.838 16.456C71.83 16.408 71.826 16.36 71.826 16.312C71.826 16.272 71.822 16.228 71.814 16.18C71.798 16.196 71.79 16.204 71.79 16.204C71.774 16.236 71.766 16.252 71.766 16.252L71.73 16.288C71.722 16.288 71.718 16.288 71.718 16.288C71.718 16.296 71.714 16.3 71.706 16.3C71.69 16.332 71.674 16.372 71.658 16.42C71.65 16.444 71.642 16.468 71.634 16.492C71.626 16.516 71.614 16.54 71.598 16.564C71.59 16.596 71.582 16.636 71.574 16.684C71.574 16.732 71.566 16.744 71.55 16.72C71.526 16.68 71.518 16.632 71.526 16.576C71.534 16.52 71.53 16.464 71.514 16.408C71.506 16.4 71.498 16.4 71.49 16.408C71.482 16.416 71.474 16.42 71.466 16.42C71.434 16.42 71.418 16.42 71.418 16.42C71.41 16.484 71.414 16.572 71.43 16.684C71.446 16.796 71.454 16.892 71.454 16.972C71.462 17.052 71.434 17.076 71.37 17.044C71.314 16.98 71.278 16.916 71.262 16.852C71.254 16.796 71.254 16.748 71.262 16.708C71.23 16.74 71.218 16.712 71.226 16.624C71.234 16.544 71.23 16.484 71.214 16.444C71.206 16.388 71.202 16.336 71.202 16.288C71.202 16.24 71.194 16.192 71.178 16.144C71.17 16.136 71.158 16.124 71.142 16.108C71.134 16.1 71.122 16.088 71.106 16.072C71.082 16.04 71.058 16.012 71.034 15.988C71.018 15.964 70.998 15.936 70.974 15.904C70.966 15.888 70.954 15.872 70.938 15.856C70.922 15.84 70.906 15.824 70.89 15.808C70.834 15.744 70.782 15.672 70.734 15.592C70.686 15.512 70.638 15.436 70.59 15.364L70.122 14.644C70.09 14.596 70.07 14.56 70.062 14.536C70.03 14.488 70.002 14.444 69.978 14.404C69.93 14.34 69.882 14.268 69.834 14.188L69.786 14.116L69.714 14.236C69.674 14.308 69.63 14.38 69.582 14.452C69.542 14.516 69.502 14.58 69.462 14.644C69.358 14.796 69.258 14.96 69.162 15.136C69.066 15.304 68.962 15.468 68.85 15.628L68.79 15.724C68.766 15.756 68.742 15.784 68.718 15.808C68.702 15.832 68.686 15.852 68.67 15.868C68.662 15.876 68.65 15.888 68.634 15.904C68.626 15.92 68.614 15.936 68.598 15.952C68.566 16.008 68.542 16.06 68.526 16.108C68.51 16.164 68.482 16.216 68.442 16.264C68.402 16.328 68.354 16.372 68.298 16.396C68.266 16.412 68.226 16.416 68.178 16.408C68.138 16.408 68.098 16.416 68.058 16.432C68.01 16.456 67.966 16.484 67.926 16.516C67.894 16.548 67.858 16.576 67.818 16.6C67.81 16.608 67.786 16.612 67.746 16.612C67.706 16.62 67.682 16.608 67.674 16.576C67.666 16.504 67.662 16.432 67.662 16.36C67.662 16.288 67.654 16.216 67.638 16.144C67.63 16.176 67.618 16.208 67.602 16.24C67.586 16.272 67.566 16.304 67.542 16.336C67.534 16.344 67.518 16.356 67.494 16.372C67.478 16.388 67.462 16.396 67.446 16.396C67.43 16.42 67.418 16.444 67.41 16.468C67.41 16.492 67.402 16.516 67.386 16.54C67.378 16.556 67.37 16.58 67.362 16.612C67.362 16.652 67.358 16.664 67.35 16.648C67.326 16.608 67.314 16.564 67.314 16.516C67.322 16.476 67.318 16.436 67.302 16.396C67.302 16.388 67.294 16.38 67.278 16.372C67.262 16.372 67.254 16.376 67.254 16.384C67.238 16.432 67.226 16.484 67.218 16.54C67.218 16.596 67.21 16.648 67.194 16.696C67.194 16.688 67.178 16.676 67.146 16.66C67.138 16.644 67.126 16.628 67.11 16.612C67.094 16.596 67.078 16.584 67.062 16.576C67.022 16.536 66.986 16.492 66.954 16.444C66.93 16.404 66.902 16.36 66.87 16.312C66.854 16.28 66.838 16.24 66.822 16.192C66.814 16.184 66.806 16.172 66.798 16.156C66.79 16.148 66.778 16.128 66.762 16.096C66.754 16.08 66.742 16.064 66.726 16.048C66.718 16.04 66.702 16.036 66.678 16.036L66.618 16.108C66.602 16.124 66.574 16.132 66.534 16.132C66.51 16.124 66.49 16.112 66.474 16.096C66.466 16.08 66.454 16.064 66.438 16.048C66.422 16.056 66.398 16.052 66.366 16.036C66.358 16.044 66.35 16.06 66.342 16.084C66.334 16.108 66.322 16.128 66.306 16.144L66.294 16.156C66.198 16.236 66.106 16.268 66.018 16.252C65.978 16.244 65.942 16.224 65.91 16.192C65.886 16.16 65.85 16.124 65.802 16.084C65.802 16.116 65.794 16.132 65.778 16.132C65.77 16.14 65.758 16.128 65.742 16.096C65.758 16.08 65.766 16.068 65.766 16.06L65.742 16.084C65.742 16.084 65.738 16.08 65.73 16.072C65.73 16 65.734 15.972 65.742 15.988C65.75 15.996 65.746 16.012 65.73 16.036C65.722 16.052 65.706 16.064 65.682 16.072C65.666 16.08 65.658 16.112 65.658 16.168C65.65 16.176 65.65 16.18 65.658 16.18C65.658 16.212 65.662 16.236 65.67 16.252C65.678 16.276 65.674 16.28 65.658 16.264C65.626 16.224 65.614 16.18 65.622 16.132C65.63 16.084 65.63 16.04 65.622 16L65.55 15.964C65.502 15.94 65.466 15.904 65.442 15.856C65.426 15.832 65.418 15.788 65.418 15.724C65.418 15.692 65.426 15.664 65.442 15.64C65.458 15.6 65.478 15.56 65.502 15.52C65.534 15.48 65.566 15.432 65.598 15.376C65.646 15.296 65.694 15.216 65.742 15.136C65.798 15.048 65.854 14.968 65.91 14.896L66.474 14.032C66.538 13.904 66.602 13.788 66.666 13.684C66.73 13.572 66.794 13.476 66.858 13.396C66.938 13.26 67.018 13.128 67.098 13C67.178 12.864 67.266 12.736 67.362 12.616L67.554 12.352L67.818 11.944C67.818 11.936 67.822 11.932 67.83 11.932L67.95 11.668C67.942 11.652 67.934 11.636 67.926 11.62C67.918 11.604 67.91 11.592 67.902 11.584C67.886 11.568 67.87 11.548 67.854 11.524C67.838 11.492 67.83 11.476 67.83 11.476C67.83 11.468 67.826 11.464 67.818 11.464C67.818 11.464 67.818 11.46 67.818 11.452C67.81 11.436 67.798 11.416 67.782 11.392C67.774 11.368 67.762 11.344 67.746 11.32L67.662 11.2C67.63 11.152 67.598 11.104 67.566 11.056C67.542 11 67.51 10.944 67.47 10.888C67.446 10.864 67.422 10.84 67.398 10.816C67.382 10.784 67.358 10.752 67.326 10.72C67.23 10.584 67.138 10.424 67.05 10.24C67.002 10.16 66.954 10.08 66.906 10C66.866 9.912 66.826 9.828 66.786 9.748L66.174 8.776C66.15 8.736 66.126 8.696 66.102 8.656C66.078 8.616 66.054 8.576 66.03 8.536C65.998 8.472 65.958 8.408 65.91 8.344C65.87 8.272 65.834 8.212 65.802 8.164C65.794 8.148 65.786 8.136 65.778 8.128C65.778 8.12 65.774 8.112 65.766 8.104L65.73 8.032C65.682 7.968 65.662 7.892 65.67 7.804C65.694 7.692 65.77 7.624 65.898 7.6C65.938 7.584 65.978 7.58 66.018 7.588C66.058 7.588 66.098 7.588 66.138 7.588C66.186 7.588 66.23 7.592 66.27 7.6C66.318 7.6 66.362 7.6 66.402 7.6H68.07C68.11 7.6 68.154 7.6 68.202 7.6C68.258 7.592 68.31 7.588 68.358 7.588C68.43 7.588 68.502 7.592 68.574 7.6C68.646 7.6 68.714 7.616 68.778 7.648C68.85 7.68 68.906 7.724 68.946 7.78C68.994 7.828 69.026 7.868 69.042 7.9C69.082 7.948 69.114 8 69.138 8.056C69.17 8.112 69.202 8.168 69.234 8.224L69.318 8.38C69.374 8.468 69.426 8.56 69.474 8.656C69.522 8.744 69.574 8.832 69.63 8.92L69.702 9.052C69.75 9.124 69.794 9.2 69.834 9.28L69.882 9.364L69.93 9.28C69.946 9.248 69.962 9.22 69.978 9.196C69.994 9.172 70.01 9.148 70.026 9.124L70.134 8.956C70.198 8.844 70.266 8.732 70.338 8.62C70.41 8.508 70.482 8.4 70.554 8.296L70.59 8.224C70.598 8.208 70.606 8.196 70.614 8.188C70.622 8.172 70.63 8.156 70.638 8.14C70.654 8.116 70.67 8.092 70.686 8.068C70.71 8.036 70.73 8.004 70.746 7.972L70.818 7.852C70.834 7.828 70.858 7.8 70.89 7.768C70.93 7.728 70.982 7.692 71.046 7.66C71.118 7.62 71.214 7.6 71.334 7.6H73.794C73.858 7.6 73.918 7.628 73.974 7.684C74.046 7.756 74.07 7.84 74.046 7.936C74.03 7.968 74.022 7.988 74.022 7.996C73.998 8.044 73.97 8.088 73.938 8.128C73.906 8.168 73.878 8.208 73.854 8.248L73.554 8.728L73.542 8.74L72.918 9.736C72.806 9.936 72.694 10.136 72.582 10.336C72.478 10.528 72.37 10.684 72.258 10.804C72.202 10.884 72.134 10.988 72.054 11.116C71.974 11.236 71.902 11.344 71.838 11.44C71.838 11.448 71.834 11.452 71.826 11.452C71.826 11.452 71.826 11.456 71.826 11.464L71.718 11.632L71.694 11.668L71.79 11.812C71.806 11.836 71.822 11.86 71.838 11.884C71.854 11.908 71.866 11.928 71.874 11.944C71.882 11.96 71.894 11.976 71.91 11.992C71.926 12.024 71.942 12.052 71.958 12.076C71.982 12.1 71.998 12.128 72.006 12.16C72.046 12.216 72.086 12.276 72.126 12.34C72.166 12.396 72.206 12.452 72.246 12.508C72.286 12.54 72.326 12.592 72.366 12.664C72.414 12.728 72.466 12.8 72.522 12.88C72.61 12.968 72.694 13.088 72.774 13.24C72.854 13.384 72.934 13.536 73.014 13.696L73.674 14.716C73.746 14.812 73.814 14.912 73.878 15.016C73.942 15.12 74.006 15.22 74.07 15.316C74.11 15.364 74.15 15.416 74.19 15.472C74.23 15.528 74.254 15.584 74.262 15.64C74.278 15.672 74.286 15.704 74.286 15.736C74.286 15.768 74.278 15.808 74.262 15.856ZM65.658 16.168L65.742 16.084V16.096L65.658 16.18V16.168Z" fill="white"/>
</g>
<defs>
<filter id="filter0_d_201_53" x="0.900024" y="0.899902" width="108.2" height="30.1934" filterUnits="userSpaceOnUse" color-interpolation-filters="sRGB">
<feFlood flood-opacity="0" result="BackgroundImageFix"/>
<feColorMatrix in="SourceAlpha" type="matrix" values="0 0 0 0 0 0 0 0 0 0 0 0 0 0 0 0 0 0 127 0" result="hardAlpha"/>
<feOffset dy="4"/>
<feGaussianBlur stdDeviation="2"/>
<feComposite in2="hardAlpha" operator="out"/>
<feColorMatrix type="matrix" values="0 0 0 0 0 0 0 0 0 0 0 0 0 0 0 0 0 0 0.25 0"/>
<feBlend mode="normal" in2="BackgroundImageFix" result="effect1_dropShadow_201_53"/>
<feBlend mode="normal" in="SourceGraphic" in2="effect1_dropShadow_201_53" result="shape"/>
</filter>
<linearGradient id="paint0_linear_201_53" x1="56.1365" y1="1" x2="56.1365" y2="21.7676" gradientUnits="userSpaceOnUse">
<stop stop-color="#D9F049"/>
<stop offset="0.416667" stop-color="#D7F67F" stop-opacity="0.583333"/>
<stop offset="1" stop-color="#7EFF7B"/>
</linearGradient>
</defs>
</svg>
