<svg width="110" height="32" viewBox="0 0 110 32" fill="none" xmlns="http://www.w3.org/2000/svg">
<g filter="url(#filter0_d_201_68)">
<path d="M5 1.91547L19.7727 3.70455L5 1H104.376L101.591 3.10825L105 2V17.4216H101.591L105 18.9268L98.1818 18.018L103.864 21H76.5909L62.9545 18.9268L50.4545 16.2289L68.6364 19.2108L50.4545 17.4216L56.1364 18.9268L44.7727 18.018L52.7273 19.2108L51.5909 20.4036L53.8636 19.2108L62.9545 21H10.5993L11.1365 21.5L9 21L10.5993 22.2503L7 21L10.1365 23L5 21V4.30104H11.8182L5 3.10825H9.54545L5 1.91547Z" fill="black" shape-rendering="crispEdges"/>
<path d="M5.00601 1.86583L4.98731 1.96383L9.15792 3.05825H5L4.99138 3.15751L11.2422 4.25104H5H4.95V4.30104V21V21.0342L4.98186 21.0466L10.1183 23.0466L10.1634 22.9578L7.38661 21.1872L10.5829 22.2975L10.6301 22.2109L9.20963 21.1004L11.1251 21.5487L11.3082 21.5915L11.1705 21.4634L10.7264 21.05H62.9545L62.9642 20.9509L53.8733 19.1618L53.856 19.1584L53.8404 19.1665L51.8366 20.2182L52.7635 19.2453L52.8298 19.1756L52.7347 19.1614L46.2121 18.1833L56.1324 18.9767L56.1492 18.8785L51.0669 17.5322L60.604 18.4706L62.944 18.9757L62.944 18.9758L62.947 18.9763L76.5834 21.0494L76.5833 21.05H76.5909H103.864L103.887 20.9557L98.4549 18.1049L104.993 18.9764L105.02 18.8811L101.828 17.4716H105H105.05V17.4216V2V1.93117L104.985 1.95245L101.858 2.9689L104.406 1.03987L104.525 0.95H104.376H5L4.991 1.04918L18.1397 3.45642L5.00601 1.86583Z" stroke="url(#paint0_linear_201_68)" stroke-width="0.1" shape-rendering="crispEdges"/>
</g>
<path d="M42.716 14.68C42.66 14.76 42.604 14.832 42.548 14.896C42.492 14.952 42.444 15 42.404 15.04L42.32 15.124C42.304 15.132 42.284 15.144 42.26 15.16C42.244 15.176 42.228 15.192 42.212 15.208C42.196 15.24 42.18 15.272 42.164 15.304C42.156 15.328 42.144 15.356 42.128 15.388C42.088 15.484 42.036 15.568 41.972 15.64C41.964 15.648 41.956 15.66 41.948 15.676C41.948 15.692 41.944 15.696 41.936 15.688C41.928 15.68 41.924 15.668 41.924 15.652L41.852 15.76C41.844 15.776 41.832 15.792 41.816 15.808C41.816 15.808 41.812 15.812 41.804 15.82C41.804 15.82 41.8 15.82 41.792 15.82C41.784 15.82 41.78 15.824 41.78 15.832C41.78 15.832 41.776 15.832 41.768 15.832C41.76 15.92 41.756 16.056 41.756 16.24C41.756 16.424 41.752 16.624 41.744 16.84C41.744 17.056 41.74 17.256 41.732 17.44C41.732 17.624 41.728 17.76 41.72 17.848C41.72 17.856 41.712 17.864 41.696 17.872C41.68 17.88 41.672 17.88 41.672 17.872C41.664 17.784 41.656 17.644 41.648 17.452C41.648 17.26 41.648 17.052 41.648 16.828C41.648 16.612 41.644 16.408 41.636 16.216C41.636 16.032 41.632 15.892 41.624 15.796C41.608 15.78 41.592 15.768 41.576 15.76C41.576 15.76 41.568 15.752 41.552 15.736C41.552 15.736 41.548 15.736 41.54 15.736C41.54 15.728 41.54 15.72 41.54 15.712C41.532 15.712 41.528 15.712 41.528 15.712C41.528 15.704 41.524 15.7 41.516 15.7L41.504 15.712C41.496 15.736 41.492 15.76 41.492 15.784C41.492 15.808 41.484 15.84 41.468 15.88C41.46 15.912 41.444 15.94 41.42 15.964C41.404 15.988 41.384 16.016 41.36 16.048C41.36 16.056 41.352 16.076 41.336 16.108C41.32 16.124 41.308 16.132 41.3 16.132C41.292 16.132 41.288 16.132 41.288 16.132C41.288 16.14 41.288 16.144 41.288 16.144C41.216 16.272 41.156 16.416 41.108 16.576L41.024 16.852C41.016 16.876 41.004 16.908 40.988 16.948C40.98 16.996 40.976 17.008 40.976 16.984C40.96 16.856 40.952 16.728 40.952 16.6C40.96 16.472 40.956 16.344 40.94 16.216C40.94 16.224 40.936 16.228 40.928 16.228C40.928 16.228 40.928 16.232 40.928 16.24C40.912 16.296 40.892 16.348 40.868 16.396C40.844 16.452 40.82 16.508 40.796 16.564C40.756 16.652 40.708 16.74 40.652 16.828C40.596 16.916 40.532 16.996 40.46 17.068C40.452 17.076 40.436 17.088 40.412 17.104C40.396 17.128 40.376 17.148 40.352 17.164C40.32 17.196 40.288 17.228 40.256 17.26C40.232 17.3 40.188 17.312 40.124 17.296C40.076 17.272 40.032 17.24 39.992 17.2C39.96 17.176 39.924 17.144 39.884 17.104C39.852 17.064 39.82 17.028 39.788 16.996C39.724 16.916 39.664 16.828 39.608 16.732C39.56 16.644 39.508 16.552 39.452 16.456C39.436 16.424 39.416 16.384 39.392 16.336C39.368 16.296 39.344 16.26 39.32 16.228L39.284 16.192C39.284 16.184 39.276 16.18 39.26 16.18C39.26 16.18 39.244 16.168 39.212 16.144C39.196 16.152 39.188 16.168 39.188 16.192C39.188 16.224 39.18 16.248 39.164 16.264C39.148 16.296 39.136 16.312 39.128 16.312C39.12 16.304 39.112 16.292 39.104 16.276C39.104 16.26 39.1 16.248 39.092 16.24L39.056 16.12H39.044C38.18 16.104 37.464 15.972 36.896 15.724C36.336 15.468 35.916 15.152 35.636 14.776C35.58 14.704 35.532 14.632 35.492 14.56C35.452 14.496 35.42 14.432 35.396 14.368L35.348 14.248C35.324 14.184 35.304 14.12 35.288 14.056C35.272 13.984 35.256 13.916 35.24 13.852C35.232 13.788 35.22 13.724 35.204 13.66C35.196 13.588 35.208 13.52 35.24 13.456C35.24 13.448 35.24 13.444 35.24 13.444C35.248 13.436 35.252 13.432 35.252 13.432C35.268 13.4 35.3 13.368 35.348 13.336C35.38 13.32 35.412 13.312 35.444 13.312C35.476 13.304 35.504 13.3 35.528 13.3C35.64 13.292 35.752 13.292 35.864 13.3C35.976 13.3 36.084 13.3 36.188 13.3H37.328C37.368 13.3 37.42 13.3 37.484 13.3C37.556 13.292 37.62 13.288 37.676 13.288C37.724 13.288 37.768 13.292 37.808 13.3C37.856 13.3 37.896 13.304 37.928 13.312C37.992 13.32 38.044 13.34 38.084 13.372C38.132 13.396 38.18 13.428 38.228 13.468L38.408 13.588C38.464 13.62 38.52 13.648 38.576 13.672C38.632 13.696 38.688 13.716 38.744 13.732C38.848 13.764 38.988 13.78 39.164 13.78C39.26 13.78 39.352 13.776 39.44 13.768C39.528 13.76 39.608 13.748 39.68 13.732L39.8 13.696C39.816 13.688 39.828 13.684 39.836 13.684C39.852 13.684 39.864 13.68 39.872 13.672C40 13.608 40.064 13.532 40.064 13.444V13.432C40.064 13.384 40.044 13.332 40.004 13.276L39.932 13.204H39.92C39.888 13.188 39.844 13.188 39.788 13.204C39.732 13.212 39.684 13.22 39.644 13.228C39.612 13.228 39.576 13.232 39.536 13.24C39.504 13.24 39.468 13.24 39.428 13.24C39.412 13.24 39.396 13.236 39.38 13.228C39.364 13.22 39.348 13.216 39.332 13.216C39.308 13.224 39.284 13.232 39.26 13.24C39.244 13.248 39.228 13.256 39.212 13.264C39.172 13.28 39.128 13.296 39.08 13.312C39.032 13.328 38.984 13.348 38.936 13.372C38.864 13.404 38.788 13.432 38.708 13.456C38.636 13.472 38.56 13.464 38.48 13.432C38.432 13.416 38.388 13.396 38.348 13.372C38.308 13.348 38.268 13.324 38.228 13.3C38.148 13.26 38.072 13.216 38 13.168C37.936 13.12 37.872 13.068 37.808 13.012L37.532 12.736L37.436 12.664H37.352C37.344 12.672 37.332 12.684 37.316 12.7C37.308 12.708 37.296 12.72 37.28 12.736C37.248 12.768 37.212 12.804 37.172 12.844C37.132 12.884 37.092 12.92 37.052 12.952C37.036 12.96 37.012 12.972 36.98 12.988C36.956 13.004 36.932 13.008 36.908 13C36.876 12.984 36.848 12.96 36.824 12.928C36.8 12.896 36.78 12.864 36.764 12.832C36.74 12.768 36.72 12.7 36.704 12.628C36.696 12.556 36.676 12.492 36.644 12.436C36.612 12.412 36.576 12.384 36.536 12.352C36.504 12.32 36.472 12.288 36.44 12.256C36.432 12.248 36.424 12.24 36.416 12.232C36.416 12.224 36.408 12.216 36.392 12.208C36.336 12.152 36.304 12.124 36.296 12.124C36.296 12.124 36.28 12.116 36.248 12.1C36.232 12.084 36.224 12.068 36.224 12.052C36.152 11.988 36.084 11.92 36.02 11.848C35.996 11.816 35.968 11.788 35.936 11.764C35.912 11.732 35.892 11.7 35.876 11.668C35.844 11.636 35.816 11.6 35.792 11.56C35.768 11.52 35.744 11.484 35.72 11.452C35.704 11.42 35.688 11.392 35.672 11.368C35.656 11.336 35.64 11.304 35.624 11.272C35.552 11.152 35.496 10.984 35.456 10.768C35.424 10.552 35.412 10.34 35.42 10.132C35.428 9.916 35.452 9.748 35.492 9.628C35.508 9.58 35.524 9.532 35.54 9.484C35.556 9.436 35.572 9.388 35.588 9.34C35.604 9.292 35.62 9.256 35.636 9.232C35.652 9.184 35.668 9.148 35.684 9.124C35.94 8.628 36.352 8.236 36.92 7.948C37.488 7.652 38.176 7.496 38.984 7.48H39.08C39.744 7.48 40.32 7.576 40.808 7.768C41.304 7.952 41.712 8.192 42.032 8.488C42.352 8.776 42.58 9.076 42.716 9.388C42.732 9.436 42.748 9.484 42.764 9.532C42.788 9.58 42.804 9.628 42.812 9.676C42.828 9.724 42.84 9.776 42.848 9.832C42.864 9.888 42.864 9.944 42.848 10C42.832 10.072 42.8 10.128 42.752 10.168C42.72 10.2 42.692 10.22 42.668 10.228C42.668 10.228 42.66 10.236 42.644 10.252C42.636 10.252 42.628 10.248 42.62 10.24C42.612 10.248 42.604 10.252 42.596 10.252C42.588 10.244 42.576 10.244 42.56 10.252C42.544 10.252 42.524 10.26 42.5 10.276C42.484 10.284 42.468 10.292 42.452 10.3C42.396 10.324 42.34 10.352 42.284 10.384C42.236 10.416 42.18 10.436 42.116 10.444C42.052 10.444 41.988 10.436 41.924 10.42C41.86 10.396 41.796 10.384 41.732 10.384C41.684 10.384 41.636 10.396 41.588 10.42C41.54 10.436 41.492 10.44 41.444 10.432C41.412 10.424 41.38 10.412 41.348 10.396C41.316 10.372 41.284 10.352 41.252 10.336C41.228 10.328 41.204 10.32 41.18 10.312C41.156 10.304 41.132 10.3 41.108 10.3L41.012 10.324C40.932 10.34 40.852 10.356 40.772 10.372C40.692 10.388 40.608 10.4 40.52 10.408C40.488 10.416 40.456 10.428 40.424 10.444C40.4 10.46 40.372 10.472 40.34 10.48C40.292 10.496 40.24 10.508 40.184 10.516C40.136 10.524 40.084 10.52 40.028 10.504C39.956 10.472 39.896 10.424 39.848 10.36C39.808 10.288 39.764 10.224 39.716 10.168C39.7 10.144 39.68 10.12 39.656 10.096C39.632 10.072 39.608 10.048 39.584 10.024C39.576 10.032 39.564 10.036 39.548 10.036C39.412 10.076 39.288 10.06 39.176 9.988C39.152 9.972 39.128 9.956 39.104 9.94C39.08 9.916 39.052 9.9 39.02 9.892C39.02 9.884 39.004 9.872 38.972 9.856C38.94 9.864 38.908 9.876 38.876 9.892C38.844 9.9 38.812 9.912 38.78 9.928C38.772 9.928 38.76 9.932 38.744 9.94C38.736 9.94 38.724 9.94 38.708 9.94H38.636C38.604 9.94 38.584 9.944 38.576 9.952C38.576 9.96 38.568 9.972 38.552 9.988C38.552 9.996 38.548 10 38.54 10C38.54 10 38.54 10.004 38.54 10.012C38.524 10.044 38.516 10.068 38.516 10.084C38.508 10.1 38.504 10.124 38.504 10.156C38.504 10.268 38.568 10.352 38.696 10.408C38.712 10.424 38.744 10.44 38.792 10.456C38.864 10.488 38.94 10.512 39.02 10.528C39.172 10.568 39.344 10.604 39.536 10.636L39.836 10.672C39.852 10.672 39.868 10.676 39.884 10.684C39.908 10.684 39.924 10.684 39.932 10.684L40.16 10.72H40.232C40.24 10.728 40.248 10.732 40.256 10.732C40.28 10.732 40.304 10.736 40.328 10.744C40.36 10.744 40.392 10.748 40.424 10.756C41.672 10.98 42.48 11.404 42.848 12.028C42.856 12.028 42.86 12.032 42.86 12.04C42.908 12.096 42.944 12.172 42.968 12.268C42.976 12.284 42.984 12.304 42.992 12.328C43 12.344 43.008 12.36 43.016 12.376L43.088 12.592C43.088 12.6 43.088 12.612 43.088 12.628C43.096 12.636 43.1 12.644 43.1 12.652C43.124 12.724 43.136 12.796 43.136 12.868C43.144 12.916 43.148 12.964 43.148 13.012C43.148 13.052 43.148 13.092 43.148 13.132V13.288C43.148 13.576 43.1 13.852 43.004 14.116C42.948 14.316 42.88 14.468 42.8 14.572L42.716 14.68ZM52.2146 15.484C52.2386 15.532 52.2586 15.584 52.2746 15.64C52.2986 15.688 52.3026 15.74 52.2866 15.796C52.2786 15.828 52.2666 15.856 52.2506 15.88C52.2346 15.896 52.2186 15.912 52.2026 15.928L52.1666 15.964C52.1586 15.98 52.1506 16 52.1426 16.024C52.1426 16.048 52.1346 16.068 52.1186 16.084C52.1106 16.108 52.1026 16.132 52.0946 16.156C52.0946 16.18 52.0866 16.204 52.0706 16.228C52.0626 16.252 52.0546 16.284 52.0466 16.324C52.0466 16.372 52.0386 16.388 52.0226 16.372C51.9986 16.348 51.9866 16.316 51.9866 16.276C51.9866 16.244 51.9866 16.212 51.9866 16.18C51.9546 16.22 51.9186 16.26 51.8786 16.3C51.8466 16.348 51.8146 16.392 51.7826 16.432C51.7266 16.52 51.6706 16.612 51.6146 16.708C51.5586 16.812 51.5066 16.912 51.4586 17.008C51.4266 17.072 51.3946 17.14 51.3626 17.212C51.3306 17.284 51.2946 17.352 51.2546 17.416C51.2066 17.496 51.1786 17.54 51.1706 17.548C51.1626 17.556 51.1346 17.584 51.0866 17.632H51.0746C51.0666 17.64 51.0506 17.652 51.0266 17.668C51.0186 17.74 51.0106 17.812 51.0026 17.884C51.0026 17.964 50.9946 18.04 50.9786 18.112C50.9706 18.128 50.9626 18.12 50.9546 18.088C50.9466 18.056 50.9386 18.032 50.9306 18.016C50.9226 17.952 50.9186 17.884 50.9186 17.812C50.9186 17.748 50.9106 17.684 50.8946 17.62C50.8706 17.596 50.8466 17.56 50.8226 17.512C50.8226 17.504 50.8186 17.496 50.8106 17.488C50.7866 17.432 50.7626 17.376 50.7386 17.32C50.7226 17.272 50.7026 17.22 50.6786 17.164C50.6386 17.084 50.5946 17.02 50.5466 16.972C50.5386 16.964 50.5306 16.96 50.5226 16.96C50.5226 16.96 50.5186 16.956 50.5106 16.948C50.5026 16.956 50.4946 16.964 50.4866 16.972C50.4786 16.98 50.4706 16.988 50.4626 16.996C50.3906 17.044 50.3586 17.076 50.3666 17.092C50.3826 17.108 50.4066 17.12 50.4386 17.128C50.4786 17.144 50.4986 17.168 50.4986 17.2C50.4986 17.24 50.4546 17.304 50.3666 17.392C50.3426 17.424 50.3306 17.4 50.3306 17.32C50.3306 17.248 50.3266 17.196 50.3186 17.164C50.3106 17.116 50.3026 17.064 50.2946 17.008C50.2946 16.96 50.2866 16.912 50.2706 16.864C50.2226 16.816 50.1866 16.76 50.1626 16.696C50.1386 16.656 50.1146 16.612 50.0906 16.564C50.0746 16.524 50.0586 16.484 50.0426 16.444L50.0066 16.348C49.9986 16.324 49.9826 16.3 49.9586 16.276C49.9426 16.26 49.9266 16.244 49.9106 16.228C49.9106 16.22 49.9106 16.22 49.9106 16.228C49.8946 16.228 49.8426 16.256 49.7546 16.312C49.7546 16.32 49.7586 16.32 49.7666 16.312C49.7746 16.304 49.8226 16.276 49.9106 16.228L49.8986 16.216L49.8746 16.192C49.7706 16.296 49.7266 16.348 49.7426 16.348C49.7586 16.348 49.7906 16.328 49.8386 16.288C49.8866 16.256 49.9146 16.232 49.9226 16.216C49.9306 16.2 49.8746 16.232 49.7546 16.312L49.7306 16.336C49.7226 16.328 49.7146 16.312 49.7066 16.288C49.6986 16.264 49.6946 16.26 49.6946 16.276C49.6786 16.324 49.6706 16.392 49.6706 16.48C49.6706 16.576 49.6626 16.604 49.6466 16.564C49.6306 16.524 49.6226 16.46 49.6226 16.372C49.6226 16.292 49.6146 16.216 49.5986 16.144C49.5746 16.104 49.5506 16.06 49.5266 16.012C49.5106 15.972 49.4906 15.932 49.4666 15.892C49.4506 15.892 49.4426 15.884 49.4426 15.868C49.4266 15.852 49.4066 15.832 49.3826 15.808C49.3666 15.784 49.3626 15.776 49.3706 15.784C49.3626 15.768 49.3546 15.752 49.3466 15.736C49.3386 15.72 49.3306 15.708 49.3226 15.7C49.2906 15.62 49.2626 15.54 49.2386 15.46C49.2146 15.38 49.1866 15.3 49.1546 15.22C49.1466 15.204 49.1426 15.192 49.1426 15.184C49.1426 15.176 49.1386 15.168 49.1306 15.16C49.1306 15.144 49.1226 15.12 49.1066 15.088C49.1066 15.072 49.1026 15.06 49.0946 15.052C49.0946 15.044 49.0906 15.032 49.0826 15.016C49.0826 15 49.0786 14.992 49.0706 14.992C49.0706 14.976 49.0626 14.952 49.0466 14.92C49.0466 14.912 49.0466 14.908 49.0466 14.908C49.0466 14.908 49.0306 14.908 48.9986 14.908C48.9906 14.924 48.9866 14.948 48.9866 14.98C48.9866 15.012 48.9706 15.036 48.9386 15.052C48.9226 15.092 48.9026 15.136 48.8786 15.184C48.8546 15.224 48.8306 15.264 48.8066 15.304C48.7506 15.408 48.6946 15.524 48.6386 15.652C48.5906 15.772 48.5386 15.9 48.4826 16.036C48.4506 16.132 48.4146 16.228 48.3746 16.324C48.3426 16.42 48.3066 16.508 48.2666 16.588C48.2346 16.66 48.2026 16.732 48.1706 16.804C48.1386 16.884 48.1026 16.956 48.0626 17.02C48.0546 17.036 48.0386 17.056 48.0146 17.08C47.9986 17.112 47.9746 17.128 47.9426 17.128C47.9106 17.136 47.8786 17.124 47.8466 17.092C47.8146 17.044 47.7866 16.992 47.7626 16.936C47.7466 16.88 47.7306 16.824 47.7146 16.768C47.6746 16.68 47.6386 16.576 47.6066 16.456C47.5746 16.336 47.5466 16.212 47.5226 16.084C47.4906 15.956 47.4586 15.832 47.4266 15.712C47.4026 15.592 47.3706 15.488 47.3306 15.4L47.2946 15.304C47.2866 15.288 47.2786 15.272 47.2706 15.256C47.2706 15.24 47.2666 15.22 47.2586 15.196C47.2426 15.164 47.2306 15.136 47.2226 15.112C47.2146 15.104 47.2066 15.096 47.1986 15.088C47.1906 15.072 47.1866 15.072 47.1866 15.088C47.1706 15.168 47.1626 15.256 47.1626 15.352C47.1626 15.44 47.1546 15.528 47.1386 15.616C47.1306 15.648 47.1226 15.64 47.1146 15.592C47.1066 15.536 47.0986 15.496 47.0906 15.472C47.0346 15.36 47.0186 15.292 47.0426 15.268C47.0666 15.244 47.0906 15.224 47.1146 15.208C47.1386 15.192 47.1186 15.14 47.0546 15.052C47.0466 15.052 47.0346 15.068 47.0186 15.1C47.0106 15.108 47.0066 15.116 47.0066 15.124C47.0066 15.132 47.0026 15.14 46.9946 15.148C46.9786 15.172 46.9626 15.196 46.9466 15.22C46.9306 15.236 46.9106 15.252 46.8866 15.268C46.8706 15.284 46.8586 15.292 46.8506 15.292C46.8426 15.38 46.8346 15.472 46.8266 15.568C46.8266 15.656 46.8186 15.744 46.8026 15.832C46.8026 15.84 46.7946 15.848 46.7786 15.856C46.7626 15.864 46.7546 15.864 46.7546 15.856C46.7386 15.76 46.7306 15.664 46.7306 15.568C46.7306 15.464 46.7226 15.36 46.7066 15.256C46.6666 15.216 46.6306 15.168 46.5986 15.112C46.5666 15.056 46.5386 15.012 46.5146 14.98C46.4426 14.836 46.4106 14.768 46.4186 14.776C46.4266 14.776 46.4386 14.8 46.4546 14.848C46.4706 14.904 46.4706 14.94 46.4546 14.956C46.4306 15.004 46.4186 15.032 46.4186 15.04C46.4106 15.064 46.4026 15.088 46.3946 15.112C46.3866 15.128 46.3786 15.148 46.3706 15.172C46.3546 15.22 46.3386 15.268 46.3226 15.316C46.3066 15.364 46.2906 15.408 46.2746 15.448L46.2026 15.652C46.1946 15.684 46.1826 15.716 46.1666 15.748C46.1506 15.772 46.1346 15.796 46.1186 15.82C46.0946 15.86 46.0626 15.892 46.0226 15.916C46.0066 15.932 45.9906 15.956 45.9746 15.988L45.9386 16.072C45.9226 16.136 45.9026 16.204 45.8786 16.276C45.8546 16.348 45.8306 16.416 45.8066 16.48C45.8066 16.488 45.8026 16.492 45.7946 16.492C45.7946 16.5 45.7946 16.504 45.7946 16.504C45.7866 16.56 45.7746 16.612 45.7586 16.66C45.7426 16.716 45.7266 16.772 45.7106 16.828C45.7026 16.836 45.6986 16.848 45.6986 16.864C45.6986 16.88 45.6946 16.896 45.6866 16.912C45.6626 17.008 45.6386 17.104 45.6146 17.2C45.5986 17.304 45.5746 17.4 45.5426 17.488C45.5266 17.568 45.5066 17.644 45.4826 17.716C45.4586 17.788 45.4346 17.86 45.4106 17.932C45.4026 17.964 45.3866 17.996 45.3626 18.028C45.3466 18.068 45.3306 18.108 45.3146 18.148L45.2426 18.244C45.2186 18.268 45.1866 18.288 45.1466 18.304C45.1386 18.392 45.1306 18.48 45.1226 18.568C45.1226 18.664 45.1146 18.756 45.0986 18.844C45.0906 18.86 45.0786 18.876 45.0626 18.892C45.0466 18.908 45.0386 18.912 45.0386 18.904C45.0226 18.792 45.0146 18.684 45.0146 18.58C45.0146 18.476 45.0066 18.372 44.9906 18.268C44.9746 18.252 44.9586 18.236 44.9426 18.22C44.9346 18.204 44.9226 18.192 44.9066 18.184L44.7986 18.064C44.7906 18.048 44.7786 18.032 44.7626 18.016C44.7546 18 44.7426 17.984 44.7266 17.968C44.6946 17.92 44.6586 17.872 44.6186 17.824C44.5866 17.776 44.5586 17.728 44.5346 17.68C44.4466 17.528 44.3706 17.372 44.3066 17.212C44.2426 17.06 44.1746 16.908 44.1026 16.756C44.0706 16.692 44.0386 16.624 44.0066 16.552C43.9746 16.488 43.9386 16.424 43.8986 16.36C43.8906 16.352 43.8826 16.344 43.8746 16.336C43.8746 16.328 43.8706 16.32 43.8626 16.312C43.8466 16.28 43.8266 16.252 43.8026 16.228C43.7706 16.196 43.7466 16.176 43.7306 16.168C43.7306 16.168 43.7266 16.164 43.7186 16.156C43.7186 16.156 43.7186 16.152 43.7186 16.144C43.7106 16.144 43.7066 16.14 43.7066 16.132C43.7066 16.132 43.7026 16.132 43.6946 16.132C43.6706 16.172 43.6546 16.216 43.6466 16.264C43.6466 16.312 43.6346 16.356 43.6106 16.396C43.6106 16.428 43.5986 16.444 43.5746 16.444C43.5426 16.452 43.5186 16.424 43.5026 16.36C43.4946 16.304 43.4906 16.284 43.4906 16.3C43.4586 16.468 43.4466 16.504 43.4546 16.408C43.4706 16.312 43.4626 16.176 43.4306 16C43.4226 15.992 43.4146 15.988 43.4066 15.988C43.3986 15.988 43.3906 15.984 43.3826 15.976C43.3586 15.968 43.3266 15.944 43.2866 15.904C43.2706 15.888 43.2546 15.864 43.2386 15.832C43.2226 15.8 43.2186 15.752 43.2266 15.688C43.2346 15.64 43.2466 15.592 43.2626 15.544C43.2786 15.496 43.2946 15.452 43.3106 15.412C43.3266 15.356 43.3426 15.308 43.3586 15.268C43.3826 15.22 43.3986 15.192 43.4066 15.184L43.8146 14.02C43.8546 13.86 43.8906 13.708 43.9226 13.564C43.9626 13.412 44.0066 13.288 44.0546 13.192C44.0546 13.184 44.0546 13.176 44.0546 13.168C44.0626 13.16 44.0666 13.152 44.0666 13.144C44.0826 13.112 44.0946 13.08 44.1026 13.048C44.1186 13.016 44.1346 12.984 44.1506 12.952C44.1666 12.92 44.1826 12.892 44.1986 12.868C44.2146 12.836 44.2266 12.812 44.2346 12.796L44.8586 11.008C44.8986 10.864 44.9346 10.728 44.9666 10.6C45.0066 10.464 45.0426 10.356 45.0746 10.276C45.0986 10.196 45.1186 10.12 45.1346 10.048C45.1586 9.968 45.1826 9.896 45.2066 9.832C45.2306 9.744 45.2586 9.664 45.2906 9.592C45.3786 9.328 45.4586 9.16 45.5306 9.088L45.7466 8.464L45.9146 7.996C45.9386 7.908 45.9946 7.82 46.0826 7.732C46.1706 7.644 46.3026 7.6 46.4786 7.6H49.0586C49.1546 7.6 49.2346 7.616 49.2986 7.648C49.3226 7.656 49.3586 7.676 49.4066 7.708C49.4626 7.748 49.5066 7.796 49.5386 7.852C49.5706 7.908 49.5986 7.968 49.6226 8.032C49.6226 8.048 49.6306 8.072 49.6466 8.104L49.6826 8.224C49.6906 8.24 49.6946 8.26 49.6946 8.284C49.7026 8.308 49.7106 8.328 49.7186 8.344L49.8266 8.608C49.8266 8.616 49.8266 8.624 49.8266 8.632C49.8346 8.632 49.8386 8.636 49.8386 8.644C49.8546 8.676 49.8626 8.704 49.8626 8.728C49.8866 8.784 49.9066 8.844 49.9226 8.908C49.9466 8.972 49.9666 9.036 49.9826 9.1C49.9906 9.116 49.9986 9.136 50.0066 9.16C50.0146 9.184 50.0226 9.204 50.0306 9.22L50.0546 9.304C50.1026 9.352 50.1546 9.448 50.2106 9.592C50.2746 9.728 50.3386 9.896 50.4026 10.096L50.4386 10.216C50.4946 10.344 50.5426 10.476 50.5826 10.612C50.6306 10.748 50.6706 10.884 50.7026 11.02C50.7426 11.1 50.7826 11.212 50.8226 11.356C50.8626 11.5 50.8986 11.652 50.9306 11.812L51.5186 13.48C51.5666 13.56 51.6146 13.68 51.6626 13.84C51.7186 13.992 51.7746 14.164 51.8306 14.356C51.8466 14.396 51.8586 14.436 51.8666 14.476C51.8826 14.516 51.8946 14.556 51.9026 14.596L52.1666 15.352C52.1906 15.392 52.2066 15.436 52.2146 15.484ZM47.7386 10.384C47.7386 10.392 47.7346 10.404 47.7266 10.42C47.7186 10.436 47.7146 10.452 47.7146 10.468C47.6986 10.524 47.6786 10.58 47.6546 10.636C47.6386 10.692 47.6226 10.752 47.6066 10.816L47.3306 11.752C47.3226 11.784 47.3146 11.816 47.3066 11.848C47.2986 11.872 47.2866 11.904 47.2706 11.944C47.2626 11.992 47.2506 12.044 47.2346 12.1C47.2186 12.148 47.2026 12.2 47.1866 12.256C47.1786 12.288 47.1706 12.32 47.1626 12.352C47.1546 12.384 47.1426 12.416 47.1266 12.448C47.1186 12.456 47.1146 12.468 47.1146 12.484C47.1146 12.492 47.1106 12.504 47.1026 12.52C47.1026 12.52 47.1026 12.524 47.1026 12.532C47.1026 12.532 47.0986 12.532 47.0906 12.532C47.0906 12.54 47.0866 12.548 47.0786 12.556C47.0786 12.556 47.0786 12.56 47.0786 12.568H48.1106C48.1506 12.568 48.1906 12.568 48.2306 12.568C48.2706 12.56 48.3066 12.56 48.3386 12.568H48.4346L48.3986 12.436C48.3826 12.396 48.3706 12.36 48.3626 12.328C48.3546 12.288 48.3426 12.252 48.3266 12.22L48.2906 12.112C48.2586 12.024 48.2266 11.928 48.1946 11.824C48.1706 11.712 48.1426 11.604 48.1106 11.5C48.1026 11.492 48.0986 11.476 48.0986 11.452L47.8946 10.816L47.8226 10.564C47.8226 10.564 47.8146 10.548 47.7986 10.516C47.7906 10.476 47.7826 10.44 47.7746 10.408C47.7666 10.4 47.7626 10.396 47.7626 10.396C47.7626 10.388 47.7546 10.384 47.7386 10.384ZM59.8723 14.68C59.8163 14.76 59.7603 14.832 59.7043 14.896C59.6483 14.952 59.6003 15 59.5603 15.04L59.4763 15.124C59.4603 15.132 59.4403 15.144 59.4163 15.16C59.4003 15.176 59.3843 15.192 59.3683 15.208C59.3523 15.24 59.3363 15.272 59.3203 15.304C59.3123 15.328 59.3003 15.356 59.2843 15.388C59.2443 15.484 59.1923 15.568 59.1283 15.64C59.1203 15.648 59.1123 15.66 59.1043 15.676C59.1043 15.692 59.1003 15.696 59.0923 15.688C59.0843 15.68 59.0803 15.668 59.0803 15.652L59.0083 15.76C59.0003 15.776 58.9883 15.792 58.9723 15.808C58.9723 15.808 58.9683 15.812 58.9603 15.82C58.9603 15.82 58.9563 15.82 58.9483 15.82C58.9403 15.82 58.9362 15.824 58.9362 15.832C58.9362 15.832 58.9323 15.832 58.9243 15.832C58.9163 15.92 58.9123 16.056 58.9123 16.24C58.9123 16.424 58.9083 16.624 58.9003 16.84C58.9003 17.056 58.8963 17.256 58.8883 17.44C58.8883 17.624 58.8843 17.76 58.8763 17.848C58.8763 17.856 58.8683 17.864 58.8523 17.872C58.8363 17.88 58.8283 17.88 58.8283 17.872C58.8203 17.784 58.8123 17.644 58.8043 17.452C58.8043 17.26 58.8043 17.052 58.8043 16.828C58.8043 16.612 58.8003 16.408 58.7923 16.216C58.7923 16.032 58.7883 15.892 58.7803 15.796C58.7643 15.78 58.7483 15.768 58.7323 15.76C58.7323 15.76 58.7243 15.752 58.7083 15.736C58.7083 15.736 58.7043 15.736 58.6963 15.736C58.6963 15.728 58.6963 15.72 58.6963 15.712C58.6883 15.712 58.6843 15.712 58.6843 15.712C58.6843 15.704 58.6803 15.7 58.6723 15.7L58.6603 15.712C58.6523 15.736 58.6483 15.76 58.6483 15.784C58.6483 15.808 58.6403 15.84 58.6243 15.88C58.6163 15.912 58.6003 15.94 58.5763 15.964C58.5603 15.988 58.5403 16.016 58.5163 16.048C58.5163 16.056 58.5083 16.076 58.4922 16.108C58.4763 16.124 58.4643 16.132 58.4563 16.132C58.4483 16.132 58.4443 16.132 58.4443 16.132C58.4443 16.14 58.4443 16.144 58.4443 16.144C58.3723 16.272 58.3123 16.416 58.2643 16.576L58.1803 16.852C58.1723 16.876 58.1603 16.908 58.1443 16.948C58.1363 16.996 58.1323 17.008 58.1323 16.984C58.1163 16.856 58.1083 16.728 58.1083 16.6C58.1163 16.472 58.1123 16.344 58.0963 16.216C58.0963 16.224 58.0923 16.228 58.0843 16.228C58.0843 16.228 58.0843 16.232 58.0843 16.24C58.0683 16.296 58.0483 16.348 58.0243 16.396C58.0003 16.452 57.9763 16.508 57.9523 16.564C57.9123 16.652 57.8643 16.74 57.8083 16.828C57.7523 16.916 57.6883 16.996 57.6163 17.068C57.6083 17.076 57.5923 17.088 57.5683 17.104C57.5523 17.128 57.5323 17.148 57.5083 17.164C57.4763 17.196 57.4443 17.228 57.4123 17.26C57.3883 17.3 57.3443 17.312 57.2803 17.296C57.2323 17.272 57.1883 17.24 57.1483 17.2C57.1163 17.176 57.0803 17.144 57.0403 17.104C57.0083 17.064 56.9763 17.028 56.9443 16.996C56.8803 16.916 56.8203 16.828 56.7643 16.732C56.7163 16.644 56.6643 16.552 56.6083 16.456C56.5923 16.424 56.5723 16.384 56.5483 16.336C56.5243 16.296 56.5003 16.26 56.4763 16.228L56.4403 16.192C56.4403 16.184 56.4323 16.18 56.4163 16.18C56.4163 16.18 56.4003 16.168 56.3683 16.144C56.3523 16.152 56.3443 16.168 56.3443 16.192C56.3443 16.224 56.3363 16.248 56.3203 16.264C56.3043 16.296 56.2923 16.312 56.2843 16.312C56.2763 16.304 56.2683 16.292 56.2603 16.276C56.2603 16.26 56.2563 16.248 56.2483 16.24L56.2123 16.12H56.2003C55.3363 16.104 54.6203 15.972 54.0523 15.724C53.4923 15.468 53.0723 15.152 52.7923 14.776C52.7363 14.704 52.6883 14.632 52.6483 14.56C52.6083 14.496 52.5763 14.432 52.5522 14.368L52.5043 14.248C52.4803 14.184 52.4603 14.12 52.4443 14.056C52.4283 13.984 52.4123 13.916 52.3963 13.852C52.3883 13.788 52.3763 13.724 52.3603 13.66C52.3523 13.588 52.3643 13.52 52.3963 13.456C52.3963 13.448 52.3963 13.444 52.3963 13.444C52.4043 13.436 52.4083 13.432 52.4083 13.432C52.4243 13.4 52.4563 13.368 52.5043 13.336C52.5363 13.32 52.5683 13.312 52.6003 13.312C52.6323 13.304 52.6603 13.3 52.6843 13.3C52.7963 13.292 52.9083 13.292 53.0203 13.3C53.1323 13.3 53.2403 13.3 53.3443 13.3H54.4843C54.5243 13.3 54.5763 13.3 54.6403 13.3C54.7123 13.292 54.7763 13.288 54.8323 13.288C54.8803 13.288 54.9243 13.292 54.9643 13.3C55.0123 13.3 55.0523 13.304 55.0843 13.312C55.1483 13.32 55.2003 13.34 55.2402 13.372C55.2883 13.396 55.3363 13.428 55.3843 13.468L55.5643 13.588C55.6203 13.62 55.6763 13.648 55.7323 13.672C55.7883 13.696 55.8443 13.716 55.9003 13.732C56.0043 13.764 56.1443 13.78 56.3203 13.78C56.4163 13.78 56.5083 13.776 56.5963 13.768C56.6843 13.76 56.7643 13.748 56.8363 13.732L56.9563 13.696C56.9723 13.688 56.9843 13.684 56.9923 13.684C57.0083 13.684 57.0203 13.68 57.0283 13.672C57.1563 13.608 57.2203 13.532 57.2203 13.444V13.432C57.2203 13.384 57.2003 13.332 57.1603 13.276L57.0883 13.204H57.0763C57.0443 13.188 57.0003 13.188 56.9443 13.204C56.8883 13.212 56.8403 13.22 56.8003 13.228C56.7683 13.228 56.7323 13.232 56.6923 13.24C56.6603 13.24 56.6243 13.24 56.5843 13.24C56.5683 13.24 56.5523 13.236 56.5363 13.228C56.5203 13.22 56.5043 13.216 56.4883 13.216C56.4643 13.224 56.4403 13.232 56.4163 13.24C56.4003 13.248 56.3843 13.256 56.3683 13.264C56.3283 13.28 56.2843 13.296 56.2363 13.312C56.1883 13.328 56.1403 13.348 56.0923 13.372C56.0203 13.404 55.9443 13.432 55.8643 13.456C55.7923 13.472 55.7163 13.464 55.6363 13.432C55.5883 13.416 55.5443 13.396 55.5043 13.372C55.4643 13.348 55.4243 13.324 55.3843 13.3C55.3043 13.26 55.2283 13.216 55.1562 13.168C55.0923 13.12 55.0283 13.068 54.9643 13.012L54.6883 12.736L54.5923 12.664H54.5083C54.5003 12.672 54.4883 12.684 54.4723 12.7C54.4643 12.708 54.4523 12.72 54.4363 12.736C54.4043 12.768 54.3683 12.804 54.3283 12.844C54.2883 12.884 54.2483 12.92 54.2083 12.952C54.1923 12.96 54.1683 12.972 54.1363 12.988C54.1123 13.004 54.0883 13.008 54.0643 13C54.0323 12.984 54.0043 12.96 53.9803 12.928C53.9563 12.896 53.9363 12.864 53.9202 12.832C53.8963 12.768 53.8763 12.7 53.8603 12.628C53.8523 12.556 53.8323 12.492 53.8003 12.436C53.7683 12.412 53.7323 12.384 53.6923 12.352C53.6603 12.32 53.6283 12.288 53.5963 12.256C53.5883 12.248 53.5803 12.24 53.5723 12.232C53.5723 12.224 53.5643 12.216 53.5483 12.208C53.4923 12.152 53.4603 12.124 53.4523 12.124C53.4523 12.124 53.4363 12.116 53.4043 12.1C53.3883 12.084 53.3803 12.068 53.3803 12.052C53.3083 11.988 53.2403 11.92 53.1763 11.848C53.1523 11.816 53.1243 11.788 53.0923 11.764C53.0683 11.732 53.0483 11.7 53.0323 11.668C53.0003 11.636 52.9723 11.6 52.9482 11.56C52.9243 11.52 52.9003 11.484 52.8763 11.452C52.8603 11.42 52.8443 11.392 52.8283 11.368C52.8123 11.336 52.7963 11.304 52.7803 11.272C52.7083 11.152 52.6523 10.984 52.6123 10.768C52.5803 10.552 52.5683 10.34 52.5763 10.132C52.5843 9.916 52.6083 9.748 52.6483 9.628C52.6643 9.58 52.6803 9.532 52.6963 9.484C52.7123 9.436 52.7283 9.388 52.7443 9.34C52.7603 9.292 52.7763 9.256 52.7923 9.232C52.8083 9.184 52.8243 9.148 52.8403 9.124C53.0963 8.628 53.5083 8.236 54.0763 7.948C54.6443 7.652 55.3323 7.496 56.1403 7.48H56.2363C56.9003 7.48 57.4763 7.576 57.9643 7.768C58.4603 7.952 58.8683 8.192 59.1883 8.488C59.5083 8.776 59.7363 9.076 59.8723 9.388C59.8883 9.436 59.9043 9.484 59.9203 9.532C59.9443 9.58 59.9603 9.628 59.9683 9.676C59.9843 9.724 59.9963 9.776 60.0043 9.832C60.0203 9.888 60.0203 9.944 60.0043 10C59.9883 10.072 59.9563 10.128 59.9083 10.168C59.8763 10.2 59.8483 10.22 59.8243 10.228C59.8243 10.228 59.8163 10.236 59.8003 10.252C59.7923 10.252 59.7843 10.248 59.7763 10.24C59.7683 10.248 59.7603 10.252 59.7523 10.252C59.7443 10.244 59.7323 10.244 59.7163 10.252C59.7003 10.252 59.6803 10.26 59.6562 10.276C59.6403 10.284 59.6243 10.292 59.6083 10.3C59.5523 10.324 59.4963 10.352 59.4403 10.384C59.3923 10.416 59.3363 10.436 59.2723 10.444C59.2083 10.444 59.1443 10.436 59.0803 10.42C59.0163 10.396 58.9523 10.384 58.8883 10.384C58.8403 10.384 58.7923 10.396 58.7443 10.42C58.6963 10.436 58.6483 10.44 58.6003 10.432C58.5683 10.424 58.5363 10.412 58.5043 10.396C58.4723 10.372 58.4403 10.352 58.4083 10.336C58.3843 10.328 58.3603 10.32 58.3363 10.312C58.3123 10.304 58.2883 10.3 58.2643 10.3L58.1683 10.324C58.0883 10.34 58.0083 10.356 57.9283 10.372C57.8483 10.388 57.7643 10.4 57.6763 10.408C57.6443 10.416 57.6123 10.428 57.5803 10.444C57.5563 10.46 57.5283 10.472 57.4963 10.48C57.4483 10.496 57.3963 10.508 57.3403 10.516C57.2923 10.524 57.2403 10.52 57.1843 10.504C57.1123 10.472 57.0523 10.424 57.0043 10.36C56.9643 10.288 56.9203 10.224 56.8723 10.168C56.8563 10.144 56.8363 10.12 56.8123 10.096C56.7883 10.072 56.7643 10.048 56.7403 10.024C56.7323 10.032 56.7203 10.036 56.7043 10.036C56.5683 10.076 56.4443 10.06 56.3323 9.988C56.3083 9.972 56.2843 9.956 56.2603 9.94C56.2363 9.916 56.2083 9.9 56.1763 9.892C56.1763 9.884 56.1603 9.872 56.1283 9.856C56.0963 9.864 56.0643 9.876 56.0323 9.892C56.0003 9.9 55.9683 9.912 55.9363 9.928C55.9283 9.928 55.9163 9.932 55.9003 9.94C55.8923 9.94 55.8803 9.94 55.8643 9.94H55.7923C55.7603 9.94 55.7403 9.944 55.7323 9.952C55.7323 9.96 55.7243 9.972 55.7083 9.988C55.7083 9.996 55.7043 10 55.6963 10C55.6963 10 55.6963 10.004 55.6963 10.012C55.6803 10.044 55.6723 10.068 55.6723 10.084C55.6643 10.1 55.6603 10.124 55.6603 10.156C55.6603 10.268 55.7243 10.352 55.8523 10.408C55.8683 10.424 55.9003 10.44 55.9483 10.456C56.0203 10.488 56.0963 10.512 56.1763 10.528C56.3283 10.568 56.5003 10.604 56.6923 10.636L56.9923 10.672C57.0083 10.672 57.0243 10.676 57.0403 10.684C57.0643 10.684 57.0803 10.684 57.0883 10.684L57.3163 10.72H57.3883C57.3963 10.728 57.4043 10.732 57.4123 10.732C57.4363 10.732 57.4603 10.736 57.4843 10.744C57.5163 10.744 57.5483 10.748 57.5803 10.756C58.8283 10.98 59.6363 11.404 60.0043 12.028C60.0123 12.028 60.0163 12.032 60.0163 12.04C60.0643 12.096 60.1003 12.172 60.1243 12.268C60.1323 12.284 60.1403 12.304 60.1483 12.328C60.1563 12.344 60.1643 12.36 60.1723 12.376L60.2443 12.592C60.2443 12.6 60.2443 12.612 60.2443 12.628C60.2523 12.636 60.2563 12.644 60.2563 12.652C60.2803 12.724 60.2923 12.796 60.2923 12.868C60.3003 12.916 60.3043 12.964 60.3043 13.012C60.3043 13.052 60.3043 13.092 60.3043 13.132V13.288C60.3043 13.576 60.2563 13.852 60.1603 14.116C60.1043 14.316 60.0363 14.468 59.9563 14.572L59.8723 14.68ZM68.2394 14.68C68.1834 14.76 68.1274 14.832 68.0714 14.896C68.0154 14.952 67.9674 15 67.9274 15.04L67.8434 15.124C67.8274 15.132 67.8074 15.144 67.7834 15.16C67.7674 15.176 67.7514 15.192 67.7354 15.208C67.7194 15.24 67.7034 15.272 67.6874 15.304C67.6794 15.328 67.6674 15.356 67.6514 15.388C67.6114 15.484 67.5594 15.568 67.4954 15.64C67.4874 15.648 67.4794 15.66 67.4714 15.676C67.4714 15.692 67.4674 15.696 67.4594 15.688C67.4514 15.68 67.4474 15.668 67.4474 15.652L67.3754 15.76C67.3674 15.776 67.3554 15.792 67.3394 15.808C67.3394 15.808 67.3354 15.812 67.3274 15.82C67.3274 15.82 67.3234 15.82 67.3154 15.82C67.3074 15.82 67.3034 15.824 67.3034 15.832C67.3034 15.832 67.2994 15.832 67.2914 15.832C67.2834 15.92 67.2794 16.056 67.2794 16.24C67.2794 16.424 67.2754 16.624 67.2674 16.84C67.2674 17.056 67.2634 17.256 67.2554 17.44C67.2554 17.624 67.2514 17.76 67.2434 17.848C67.2434 17.856 67.2354 17.864 67.2194 17.872C67.2034 17.88 67.1954 17.88 67.1954 17.872C67.1874 17.784 67.1794 17.644 67.1714 17.452C67.1714 17.26 67.1714 17.052 67.1714 16.828C67.1714 16.612 67.1674 16.408 67.1594 16.216C67.1594 16.032 67.1554 15.892 67.1474 15.796C67.1314 15.78 67.1154 15.768 67.0994 15.76C67.0994 15.76 67.0914 15.752 67.0754 15.736C67.0754 15.736 67.0714 15.736 67.0634 15.736C67.0634 15.728 67.0634 15.72 67.0634 15.712C67.0554 15.712 67.0514 15.712 67.0514 15.712C67.0514 15.704 67.0474 15.7 67.0394 15.7L67.0274 15.712C67.0194 15.736 67.0154 15.76 67.0154 15.784C67.0154 15.808 67.0074 15.84 66.9914 15.88C66.9834 15.912 66.9674 15.94 66.9434 15.964C66.9274 15.988 66.9074 16.016 66.8834 16.048C66.8834 16.056 66.8754 16.076 66.8594 16.108C66.8434 16.124 66.8314 16.132 66.8234 16.132C66.8154 16.132 66.8114 16.132 66.8114 16.132C66.8114 16.14 66.8114 16.144 66.8114 16.144C66.7394 16.272 66.6794 16.416 66.6314 16.576L66.5474 16.852C66.5394 16.876 66.5274 16.908 66.5114 16.948C66.5034 16.996 66.4994 17.008 66.4994 16.984C66.4834 16.856 66.4754 16.728 66.4754 16.6C66.4834 16.472 66.4794 16.344 66.4634 16.216C66.4634 16.224 66.4594 16.228 66.4514 16.228C66.4514 16.228 66.4514 16.232 66.4514 16.24C66.4354 16.296 66.4154 16.348 66.3914 16.396C66.3674 16.452 66.3434 16.508 66.3194 16.564C66.2794 16.652 66.2314 16.74 66.1754 16.828C66.1194 16.916 66.0554 16.996 65.9834 17.068C65.9754 17.076 65.9594 17.088 65.9354 17.104C65.9194 17.128 65.8994 17.148 65.8754 17.164C65.8434 17.196 65.8114 17.228 65.7794 17.26C65.7554 17.3 65.7114 17.312 65.6474 17.296C65.5994 17.272 65.5554 17.24 65.5154 17.2C65.4834 17.176 65.4474 17.144 65.4074 17.104C65.3754 17.064 65.3434 17.028 65.3114 16.996C65.2474 16.916 65.1874 16.828 65.1314 16.732C65.0834 16.644 65.0314 16.552 64.9754 16.456C64.9594 16.424 64.9394 16.384 64.9154 16.336C64.8914 16.296 64.8674 16.26 64.8434 16.228L64.8074 16.192C64.8074 16.184 64.7994 16.18 64.7834 16.18C64.7834 16.18 64.7674 16.168 64.7354 16.144C64.7194 16.152 64.7114 16.168 64.7114 16.192C64.7114 16.224 64.7034 16.248 64.6874 16.264C64.6714 16.296 64.6594 16.312 64.6514 16.312C64.6434 16.304 64.6354 16.292 64.6274 16.276C64.6274 16.26 64.6234 16.248 64.6154 16.24L64.5794 16.12H64.5674C63.7034 16.104 62.9874 15.972 62.4194 15.724C61.8594 15.468 61.4394 15.152 61.1594 14.776C61.1034 14.704 61.0554 14.632 61.0154 14.56C60.9754 14.496 60.9434 14.432 60.9194 14.368L60.8714 14.248C60.8474 14.184 60.8274 14.12 60.8114 14.056C60.7954 13.984 60.7794 13.916 60.7634 13.852C60.7554 13.788 60.7434 13.724 60.7274 13.66C60.7194 13.588 60.7314 13.52 60.7634 13.456C60.7634 13.448 60.7634 13.444 60.7634 13.444C60.7714 13.436 60.7754 13.432 60.7754 13.432C60.7914 13.4 60.8234 13.368 60.8714 13.336C60.9034 13.32 60.9354 13.312 60.9674 13.312C60.9994 13.304 61.0274 13.3 61.0514 13.3C61.1634 13.292 61.2754 13.292 61.3874 13.3C61.4994 13.3 61.6074 13.3 61.7114 13.3H62.8514C62.8914 13.3 62.9434 13.3 63.0074 13.3C63.0794 13.292 63.1434 13.288 63.1994 13.288C63.2474 13.288 63.2914 13.292 63.3314 13.3C63.3794 13.3 63.4194 13.304 63.4514 13.312C63.5154 13.32 63.5674 13.34 63.6074 13.372C63.6554 13.396 63.7034 13.428 63.7514 13.468L63.9314 13.588C63.9874 13.62 64.0434 13.648 64.0994 13.672C64.1554 13.696 64.2114 13.716 64.2674 13.732C64.3714 13.764 64.5114 13.78 64.6874 13.78C64.7834 13.78 64.8754 13.776 64.9634 13.768C65.0514 13.76 65.1314 13.748 65.2034 13.732L65.3234 13.696C65.3394 13.688 65.3514 13.684 65.3594 13.684C65.3754 13.684 65.3874 13.68 65.3954 13.672C65.5234 13.608 65.5874 13.532 65.5874 13.444V13.432C65.5874 13.384 65.5674 13.332 65.5274 13.276L65.4554 13.204H65.4434C65.4114 13.188 65.3674 13.188 65.3114 13.204C65.2554 13.212 65.2074 13.22 65.1674 13.228C65.1354 13.228 65.0994 13.232 65.0594 13.24C65.0274 13.24 64.9914 13.24 64.9514 13.24C64.9354 13.24 64.9194 13.236 64.9034 13.228C64.8874 13.22 64.8714 13.216 64.8554 13.216C64.8314 13.224 64.8074 13.232 64.7834 13.24C64.7674 13.248 64.7514 13.256 64.7354 13.264C64.6954 13.28 64.6514 13.296 64.6034 13.312C64.5554 13.328 64.5074 13.348 64.4594 13.372C64.3874 13.404 64.3114 13.432 64.2314 13.456C64.1594 13.472 64.0834 13.464 64.0034 13.432C63.9554 13.416 63.9114 13.396 63.8714 13.372C63.8314 13.348 63.7914 13.324 63.7514 13.3C63.6714 13.26 63.5954 13.216 63.5234 13.168C63.4594 13.12 63.3954 13.068 63.3314 13.012L63.0554 12.736L62.9594 12.664H62.8754C62.8674 12.672 62.8554 12.684 62.8394 12.7C62.8314 12.708 62.8194 12.72 62.8034 12.736C62.7714 12.768 62.7354 12.804 62.6954 12.844C62.6554 12.884 62.6154 12.92 62.5754 12.952C62.5594 12.96 62.5354 12.972 62.5034 12.988C62.4794 13.004 62.4554 13.008 62.4314 13C62.3994 12.984 62.3714 12.96 62.3474 12.928C62.3234 12.896 62.3034 12.864 62.2874 12.832C62.2634 12.768 62.2434 12.7 62.2274 12.628C62.2194 12.556 62.1994 12.492 62.1674 12.436C62.1354 12.412 62.0994 12.384 62.0594 12.352C62.0274 12.32 61.9954 12.288 61.9634 12.256C61.9554 12.248 61.9474 12.24 61.9394 12.232C61.9394 12.224 61.9314 12.216 61.9154 12.208C61.8594 12.152 61.8274 12.124 61.8194 12.124C61.8194 12.124 61.8034 12.116 61.7714 12.1C61.7554 12.084 61.7474 12.068 61.7474 12.052C61.6754 11.988 61.6074 11.92 61.5434 11.848C61.5194 11.816 61.4914 11.788 61.4594 11.764C61.4354 11.732 61.4154 11.7 61.3994 11.668C61.3674 11.636 61.3394 11.6 61.3154 11.56C61.2914 11.52 61.2674 11.484 61.2434 11.452C61.2274 11.42 61.2114 11.392 61.1954 11.368C61.1794 11.336 61.1634 11.304 61.1474 11.272C61.0754 11.152 61.0194 10.984 60.9794 10.768C60.9474 10.552 60.9354 10.34 60.9434 10.132C60.9514 9.916 60.9754 9.748 61.0154 9.628C61.0314 9.58 61.0474 9.532 61.0634 9.484C61.0794 9.436 61.0954 9.388 61.1114 9.34C61.1274 9.292 61.1434 9.256 61.1594 9.232C61.1754 9.184 61.1914 9.148 61.2074 9.124C61.4634 8.628 61.8754 8.236 62.4434 7.948C63.0114 7.652 63.6994 7.496 64.5074 7.48H64.6034C65.2674 7.48 65.8434 7.576 66.3314 7.768C66.8274 7.952 67.2354 8.192 67.5554 8.488C67.8754 8.776 68.1034 9.076 68.2394 9.388C68.2554 9.436 68.2714 9.484 68.2874 9.532C68.3114 9.58 68.3274 9.628 68.3354 9.676C68.3514 9.724 68.3634 9.776 68.3714 9.832C68.3874 9.888 68.3874 9.944 68.3714 10C68.3554 10.072 68.3234 10.128 68.2754 10.168C68.2434 10.2 68.2154 10.22 68.1914 10.228C68.1914 10.228 68.1834 10.236 68.1674 10.252C68.1594 10.252 68.1514 10.248 68.1434 10.24C68.1354 10.248 68.1274 10.252 68.1194 10.252C68.1114 10.244 68.0994 10.244 68.0834 10.252C68.0674 10.252 68.0474 10.26 68.0234 10.276C68.0074 10.284 67.9914 10.292 67.9754 10.3C67.9194 10.324 67.8634 10.352 67.8074 10.384C67.7594 10.416 67.7034 10.436 67.6394 10.444C67.5754 10.444 67.5114 10.436 67.4474 10.42C67.3834 10.396 67.3194 10.384 67.2554 10.384C67.2074 10.384 67.1594 10.396 67.1114 10.42C67.0634 10.436 67.0154 10.44 66.9674 10.432C66.9354 10.424 66.9034 10.412 66.8714 10.396C66.8394 10.372 66.8074 10.352 66.7754 10.336C66.7514 10.328 66.7274 10.32 66.7034 10.312C66.6794 10.304 66.6554 10.3 66.6314 10.3L66.5354 10.324C66.4554 10.34 66.3754 10.356 66.2954 10.372C66.2154 10.388 66.1314 10.4 66.0434 10.408C66.0114 10.416 65.9794 10.428 65.9474 10.444C65.9234 10.46 65.8954 10.472 65.8634 10.48C65.8154 10.496 65.7634 10.508 65.7074 10.516C65.6594 10.524 65.6074 10.52 65.5514 10.504C65.4794 10.472 65.4194 10.424 65.3714 10.36C65.3314 10.288 65.2874 10.224 65.2394 10.168C65.2234 10.144 65.2034 10.12 65.1794 10.096C65.1554 10.072 65.1314 10.048 65.1074 10.024C65.0994 10.032 65.0874 10.036 65.0714 10.036C64.9354 10.076 64.8114 10.06 64.6994 9.988C64.6754 9.972 64.6514 9.956 64.6274 9.94C64.6034 9.916 64.5754 9.9 64.5434 9.892C64.5434 9.884 64.5274 9.872 64.4954 9.856C64.4634 9.864 64.4314 9.876 64.3994 9.892C64.3674 9.9 64.3354 9.912 64.3034 9.928C64.2954 9.928 64.2834 9.932 64.2674 9.94C64.2594 9.94 64.2474 9.94 64.2314 9.94H64.1594C64.1274 9.94 64.1074 9.944 64.0994 9.952C64.0994 9.96 64.0914 9.972 64.0754 9.988C64.0754 9.996 64.0714 10 64.0634 10C64.0634 10 64.0634 10.004 64.0634 10.012C64.0474 10.044 64.0394 10.068 64.0394 10.084C64.0314 10.1 64.0274 10.124 64.0274 10.156C64.0274 10.268 64.0914 10.352 64.2194 10.408C64.2354 10.424 64.2674 10.44 64.3154 10.456C64.3874 10.488 64.4634 10.512 64.5434 10.528C64.6954 10.568 64.8674 10.604 65.0594 10.636L65.3594 10.672C65.3754 10.672 65.3914 10.676 65.4074 10.684C65.4314 10.684 65.4474 10.684 65.4554 10.684L65.6834 10.72H65.7554C65.7634 10.728 65.7714 10.732 65.7794 10.732C65.8034 10.732 65.8274 10.736 65.8514 10.744C65.8834 10.744 65.9154 10.748 65.9474 10.756C67.1954 10.98 68.0034 11.404 68.3714 12.028C68.3794 12.028 68.3834 12.032 68.3834 12.04C68.4314 12.096 68.4674 12.172 68.4914 12.268C68.4994 12.284 68.5074 12.304 68.5154 12.328C68.5234 12.344 68.5314 12.36 68.5394 12.376L68.6114 12.592C68.6114 12.6 68.6114 12.612 68.6114 12.628C68.6194 12.636 68.6234 12.644 68.6234 12.652C68.6474 12.724 68.6594 12.796 68.6594 12.868C68.6674 12.916 68.6714 12.964 68.6714 13.012C68.6714 13.052 68.6714 13.092 68.6714 13.132V13.288C68.6714 13.576 68.6234 13.852 68.5274 14.116C68.4714 14.316 68.4034 14.468 68.3234 14.572L68.2394 14.68Z" fill="white"/>
<defs>
<filter id="filter0_d_201_68" x="0.900024" y="0.899902" width="108.2" height="30.1934" filterUnits="userSpaceOnUse" color-interpolation-filters="sRGB">
<feFlood flood-opacity="0" result="BackgroundImageFix"/>
<feColorMatrix in="SourceAlpha" type="matrix" values="0 0 0 0 0 0 0 0 0 0 0 0 0 0 0 0 0 0 127 0" result="hardAlpha"/>
<feOffset dy="4"/>
<feGaussianBlur stdDeviation="2"/>
<feComposite in2="hardAlpha" operator="out"/>
<feColorMatrix type="matrix" values="0 0 0 0 0 0 0 0 0 0 0 0 0 0 0 0 0 0 0.25 0"/>
<feBlend mode="normal" in2="BackgroundImageFix" result="effect1_dropShadow_201_68"/>
<feBlend mode="normal" in="SourceGraphic" in2="effect1_dropShadow_201_68" result="shape"/>
</filter>
<linearGradient id="paint0_linear_201_68" x1="56.1365" y1="1" x2="56.1365" y2="21.7676" gradientUnits="userSpaceOnUse">
<stop stop-color="#D9F049"/>
<stop offset="0.416667" stop-color="#D7F67F" stop-opacity="0.583333"/>
<stop offset="1" stop-color="#7EFF7B"/>
</linearGradient>
</defs>
</svg>
