<svg width="110" height="32" viewBox="0 0 110 32" fill="none" xmlns="http://www.w3.org/2000/svg">
<g filter="url(#filter0_d_201_43)">
<path d="M5.00601 1.86583L4.98731 1.96383L9.15792 3.05825H5L4.99138 3.15751L11.2422 4.25104H5H4.95V4.30104V21V21.0342L4.98186 21.0466L10.1183 23.0466L10.1634 22.9578L7.38661 21.1872L10.5829 22.2975L10.6301 22.2109L9.20963 21.1004L11.1251 21.5487L11.3082 21.5915L11.1705 21.4634L10.7264 21.05H62.9545L62.9642 20.9509L53.8733 19.1618L53.856 19.1584L53.8404 19.1665L51.8366 20.2182L52.7635 19.2453L52.8298 19.1756L52.7347 19.1614L46.2121 18.1833L56.1324 18.9767L56.1492 18.8785L51.0669 17.5322L60.604 18.4706L62.944 18.9757L62.944 18.9758L62.947 18.9763L76.5834 21.0494L76.5833 21.05H76.5909H103.864L103.887 20.9557L98.4549 18.1049L104.993 18.9764L105.02 18.8811L101.828 17.4716H105H105.05V17.4216V2V1.93117L104.985 1.95245L101.858 2.9689L104.406 1.03987L104.525 0.95H104.376H5L4.991 1.04918L18.1397 3.45642L5.00601 1.86583Z" fill="black" stroke="url(#paint0_linear_201_43)" stroke-width="0.1"/>
<path d="M22.884 9.532C22.884 9.588 22.888 9.652 22.896 9.724C22.904 9.788 22.9 9.852 22.884 9.916C22.884 9.9 22.88 9.908 22.872 9.94C22.864 9.964 22.864 9.972 22.872 9.964C22.864 9.972 22.86 9.98 22.86 9.988C22.86 9.996 22.856 10.004 22.848 10.012L22.788 10.084L22.752 10.12C22.744 10.12 22.732 10.128 22.716 10.144C22.708 10.16 22.7 10.172 22.692 10.18C22.66 10.212 22.632 10.256 22.608 10.312C22.584 10.36 22.552 10.416 22.512 10.48C22.48 10.552 22.448 10.624 22.416 10.696C22.384 10.768 22.348 10.84 22.308 10.912C22.252 11.04 22.192 11.172 22.128 11.308C22.072 11.436 22 11.568 21.912 11.704C21.856 11.784 21.804 11.84 21.756 11.872C21.748 11.888 21.74 11.908 21.732 11.932C21.732 11.956 21.724 11.976 21.708 11.992C21.708 11.992 21.692 11.98 21.66 11.956C21.652 11.948 21.644 11.936 21.636 11.92C21.636 11.904 21.612 11.872 21.564 11.824L21.54 11.8C21.516 11.76 21.492 11.724 21.468 11.692C21.452 11.652 21.436 11.616 21.42 11.584L21.384 11.512L21.372 11.5L21.264 11.296C21.192 11.168 21.116 11.044 21.036 10.924C20.964 10.796 20.888 10.668 20.808 10.54C20.776 10.492 20.748 10.448 20.724 10.408L20.64 10.288C20.616 10.264 20.592 10.24 20.568 10.216V10.276V15.436C20.576 15.5 20.576 15.56 20.568 15.616C20.568 15.672 20.568 15.712 20.568 15.736V15.76C20.56 15.768 20.556 15.776 20.556 15.784C20.54 15.816 20.528 15.836 20.52 15.844C20.52 15.852 20.516 15.86 20.508 15.868C20.476 15.908 20.436 15.94 20.388 15.964C20.38 15.972 20.372 15.98 20.364 15.988C20.356 15.996 20.348 16.004 20.34 16.012C20.332 16.028 20.32 16.044 20.304 16.06C20.288 16.084 20.272 16.104 20.256 16.12C20.224 16.152 20.188 16.164 20.148 16.156C20.132 16.148 20.116 16.132 20.1 16.108C20.084 16.092 20.068 16.084 20.052 16.084C20.036 16.076 20.02 16.08 20.004 16.096C19.988 16.12 19.972 16.132 19.956 16.132C19.892 16.108 19.864 16.084 19.872 16.06C19.888 16.036 19.86 16.04 19.788 16.072C19.764 16.112 19.736 16.164 19.704 16.228C19.672 16.3 19.628 16.316 19.572 16.276C19.556 16.26 19.54 16.236 19.524 16.204C19.516 16.18 19.5 16.164 19.476 16.156L19.464 16.168C19.464 16.176 19.46 16.18 19.452 16.18C19.452 16.188 19.452 16.192 19.452 16.192L19.38 16.24L19.332 16.288C19.332 16.296 19.324 16.344 19.308 16.432C19.292 16.52 19.276 16.608 19.26 16.696C19.244 16.784 19.236 16.828 19.236 16.828C19.228 16.86 19.22 16.896 19.212 16.936C19.212 16.976 19.204 17.012 19.188 17.044C19.18 17.052 19.168 17.056 19.152 17.056C19.144 17.064 19.14 17.064 19.14 17.056C19.124 16.944 19.116 16.832 19.116 16.72C19.116 16.608 19.108 16.496 19.092 16.384C19.092 16.344 19.08 16.3 19.056 16.252C19.04 16.236 19.012 16.204 18.972 16.156C18.94 16.116 18.912 16.084 18.888 16.06H18.852C18.812 16.06 18.784 16.056 18.768 16.048C18.76 16.064 18.748 16.076 18.732 16.084C18.716 16.1 18.708 16.112 18.708 16.12L18.696 16.132C18.656 16.18 18.616 16.228 18.576 16.276C18.544 16.324 18.508 16.38 18.468 16.444C18.452 16.46 18.44 16.476 18.432 16.492C18.424 16.5 18.416 16.508 18.408 16.516C18.4 16.524 18.388 16.536 18.372 16.552C18.356 16.568 18.34 16.58 18.324 16.588C18.316 16.676 18.312 16.804 18.312 16.972C18.312 17.148 18.308 17.332 18.3 17.524C18.3 17.716 18.296 17.896 18.288 18.064C18.288 18.24 18.284 18.372 18.276 18.46C18.276 18.468 18.268 18.464 18.252 18.448C18.236 18.432 18.228 18.42 18.228 18.412C18.18 18.324 18.16 18.196 18.168 18.028C18.184 17.868 18.204 17.688 18.228 17.488C18.252 17.296 18.26 17.112 18.252 16.936C18.252 16.768 18.216 16.632 18.144 16.528C18.144 16.512 18.136 16.5 18.12 16.492C18.112 16.484 18.108 16.48 18.108 16.48C18.076 16.416 18.044 16.356 18.012 16.3C17.98 16.244 17.948 16.188 17.916 16.132C17.916 16.124 17.912 16.116 17.904 16.108C17.904 16.108 17.904 16.104 17.904 16.096C17.896 16.088 17.884 16.068 17.868 16.036C17.844 16.012 17.816 16 17.784 16C17.776 16 17.768 16 17.76 16C17.76 15.992 17.752 15.988 17.736 15.988C17.672 15.964 17.62 15.924 17.58 15.868C17.564 15.852 17.548 15.82 17.532 15.772C17.516 15.708 17.508 15.648 17.508 15.592C17.508 15.552 17.508 15.52 17.508 15.496C17.516 15.464 17.52 15.432 17.52 15.4V10.276L17.472 10.18C17.472 10.18 17.464 10.196 17.448 10.228C17.44 10.236 17.436 10.248 17.436 10.264C17.428 10.296 17.42 10.328 17.412 10.36C17.404 10.392 17.392 10.42 17.376 10.444L17.304 10.588C17.288 10.62 17.268 10.652 17.244 10.684C17.22 10.716 17.192 10.748 17.16 10.78C17.144 10.796 17.136 10.804 17.136 10.804C17.12 10.812 17.104 10.824 17.088 10.84C17.064 10.872 17.052 10.892 17.052 10.9C17.052 10.908 17.02 10.94 16.956 10.996C16.924 10.996 16.908 10.996 16.908 10.996C16.892 11.028 16.888 11.068 16.896 11.116C16.904 11.164 16.888 11.196 16.848 11.212C16.824 11.22 16.812 11.204 16.812 11.164C16.812 11.116 16.808 11.08 16.8 11.056L16.764 10.888C16.74 10.872 16.716 10.852 16.692 10.828C16.668 10.796 16.648 10.772 16.632 10.756C16.64 10.764 16.632 10.76 16.608 10.744C16.584 10.72 16.568 10.704 16.56 10.696L16.536 10.672C16.52 10.68 16.508 10.696 16.5 10.72C16.492 10.744 16.484 10.764 16.476 10.78C16.468 10.82 16.456 10.856 16.44 10.888C16.432 10.92 16.428 10.948 16.428 10.972C16.428 10.9 16.412 10.812 16.38 10.708C16.38 10.716 16.376 10.72 16.368 10.72C16.368 10.72 16.368 10.724 16.368 10.732C16.36 10.732 16.356 10.736 16.356 10.744C16.348 10.752 16.34 10.76 16.332 10.768C16.324 10.776 16.308 10.8 16.284 10.84C16.268 10.872 16.252 10.896 16.236 10.912C16.236 10.912 16.232 10.916 16.224 10.924C16.224 10.924 16.22 10.924 16.212 10.924C16.212 10.924 16.208 10.928 16.2 10.936C16.2 10.936 16.196 10.936 16.188 10.936C16.18 11.016 16.176 11.092 16.176 11.164C16.184 11.236 16.192 11.312 16.2 11.392C16.184 11.288 16.148 11.24 16.092 11.248C16.044 11.264 16.016 11.288 16.008 11.32C16.008 11.248 16.008 11.176 16.008 11.104C16.016 11.024 16.016 10.948 16.008 10.876C15.984 10.86 15.96 10.84 15.936 10.816C15.912 10.784 15.888 10.756 15.864 10.732L15.768 10.636C15.704 10.564 15.672 10.528 15.672 10.528C15.672 10.528 15.664 10.52 15.648 10.504C15.632 10.488 15.564 10.416 15.444 10.288C15.444 10.304 15.436 10.312 15.42 10.312C15.412 10.312 15.404 10.3 15.396 10.276C15.396 10.252 15.392 10.232 15.384 10.216C15.392 10.224 15.384 10.212 15.36 10.18C15.344 10.14 15.332 10.116 15.324 10.108C15.244 10.044 15.204 9.96 15.204 9.856V8.308C15.204 8.268 15.2 8.2 15.192 8.104C15.192 8 15.2 7.912 15.216 7.84C15.224 7.824 15.228 7.812 15.228 7.804C15.228 7.788 15.232 7.776 15.24 7.768C15.264 7.72 15.296 7.684 15.336 7.66C15.344 7.66 15.348 7.66 15.348 7.66C15.348 7.652 15.352 7.648 15.36 7.648L15.372 7.636C15.42 7.612 15.464 7.6 15.504 7.6C15.568 7.592 15.628 7.592 15.684 7.6C15.748 7.6 15.808 7.6 15.864 7.6H22.128C22.216 7.6 22.308 7.596 22.404 7.588C22.5 7.58 22.588 7.588 22.668 7.612C22.692 7.62 22.712 7.632 22.728 7.648C22.752 7.656 22.768 7.668 22.776 7.684C22.832 7.724 22.864 7.768 22.872 7.816C22.88 7.864 22.884 7.916 22.884 7.972C22.892 8.1 22.892 8.236 22.884 8.38C22.884 8.516 22.884 8.652 22.884 8.788V9.532ZM16.044 12.04C16.06 12.112 16.056 12.104 16.032 12.016C16.008 11.928 15.988 11.812 15.972 11.668C15.964 11.516 15.976 11.4 16.008 11.32C16 11.448 15.996 11.572 15.996 11.692C16.004 11.812 16.02 11.928 16.044 12.04ZM16.14 12.028C16.124 12.076 16.12 12.076 16.128 12.028C16.144 11.972 16.16 11.892 16.176 11.788C16.192 11.684 16.2 11.588 16.2 11.5C16.2 11.588 16.196 11.676 16.188 11.764C16.188 11.852 16.172 11.94 16.14 12.028ZM29.0624 15.568C29.0624 15.6 29.0584 15.624 29.0504 15.64C29.0504 15.744 29.0304 15.82 28.9904 15.868C28.9824 15.884 28.9664 15.904 28.9424 15.928C28.9184 15.944 28.8944 15.96 28.8704 15.976C28.7824 16.064 28.7424 16.136 28.7504 16.192C28.7584 16.248 28.7824 16.296 28.8224 16.336C28.8624 16.376 28.8864 16.424 28.8944 16.48C28.9024 16.536 28.8624 16.608 28.7744 16.696C28.7664 16.72 28.7584 16.744 28.7504 16.768C28.7504 16.8 28.7424 16.824 28.7264 16.84C28.7184 16.848 28.7024 16.828 28.6784 16.78C28.6704 16.74 28.6624 16.696 28.6544 16.648C28.6464 16.6 28.6384 16.552 28.6304 16.504C28.6224 16.368 28.6184 16.288 28.6184 16.264C28.6264 16.248 28.6104 16.196 28.5704 16.108L28.5224 16.156C28.4984 16.18 28.4744 16.2 28.4504 16.216C28.4344 16.232 28.4144 16.256 28.3904 16.288C28.3584 16.336 28.3264 16.384 28.2944 16.432C28.2624 16.48 28.2304 16.528 28.1984 16.576C28.1904 16.584 28.1784 16.604 28.1624 16.636C28.1464 16.668 28.1304 16.688 28.1144 16.696C28.0744 16.712 28.0424 16.692 28.0184 16.636C27.9944 16.58 27.9744 16.544 27.9584 16.528C27.9504 16.504 27.9424 16.48 27.9344 16.456C27.9344 16.432 27.9264 16.408 27.9104 16.384C27.8944 16.376 27.8704 16.356 27.8384 16.324C27.8224 16.308 27.8104 16.292 27.8024 16.276L27.6824 16.132L27.6224 16.072C27.6064 16.08 27.5864 16.076 27.5624 16.06C27.5384 16.044 27.5184 16.032 27.5024 16.024C27.4624 16.064 27.4424 16.088 27.4424 16.096C27.3784 16.152 27.3224 16.216 27.2744 16.288C27.2344 16.368 27.1944 16.448 27.1544 16.528C27.1464 16.544 27.1304 16.564 27.1064 16.588C27.0904 16.612 27.0704 16.632 27.0464 16.648C27.0304 16.664 27.0184 16.672 27.0104 16.672C27.0024 16.72 26.9944 16.768 26.9864 16.816C26.9864 16.872 26.9784 16.924 26.9624 16.972C26.9544 16.98 26.9424 16.976 26.9264 16.96C26.9184 16.952 26.9144 16.944 26.9144 16.936C26.8984 16.872 26.8904 16.824 26.8904 16.792C26.8984 16.768 26.8864 16.708 26.8544 16.612C26.8464 16.612 26.8384 16.608 26.8304 16.6C26.8304 16.592 26.8224 16.58 26.8064 16.564C26.8064 16.548 26.7984 16.536 26.7824 16.528C26.7744 16.52 26.7704 16.516 26.7704 16.516L26.6624 16.336L26.5184 16.108C26.5104 16.076 26.4984 16.044 26.4824 16.012C26.4664 15.988 26.4504 15.964 26.4344 15.94L26.4224 15.928C26.3904 15.904 26.3584 15.864 26.3264 15.808C26.3264 15.8 26.3224 15.796 26.3144 15.796C26.3144 15.788 26.3144 15.78 26.3144 15.772C26.3064 15.732 26.3024 15.688 26.3024 15.64C26.3024 15.584 26.3024 15.516 26.3024 15.436V15.34C26.2864 15.356 26.2744 15.372 26.2664 15.388L26.2304 15.424C26.1584 15.512 26.0784 15.592 25.9904 15.664C25.9584 15.744 25.9344 15.828 25.9184 15.916C25.9024 15.996 25.8744 16.076 25.8344 16.156C25.8264 16.188 25.8104 16.22 25.7864 16.252C25.7704 16.292 25.7464 16.324 25.7144 16.348C25.7064 16.356 25.6824 16.364 25.6424 16.372C25.6104 16.38 25.5904 16.38 25.5824 16.372C25.5744 16.348 25.5704 16.32 25.5704 16.288C25.5704 16.264 25.5704 16.24 25.5704 16.216C25.5624 16.24 25.5504 16.26 25.5344 16.276C25.5264 16.3 25.5144 16.32 25.4984 16.336C25.4904 16.352 25.4784 16.364 25.4624 16.372C25.4464 16.388 25.4304 16.404 25.4144 16.42C25.3904 16.548 25.3704 16.668 25.3544 16.78C25.3464 16.9 25.3344 17.024 25.3184 17.152C25.3104 17.184 25.3024 17.216 25.2944 17.248C25.2864 17.288 25.2744 17.328 25.2584 17.368C25.2584 17.408 25.2464 17.44 25.2224 17.464C25.2144 17.472 25.1984 17.464 25.1744 17.44C25.1664 17.424 25.1584 17.404 25.1504 17.38C25.1424 17.364 25.1344 17.348 25.1264 17.332C25.1184 17.292 25.1024 17.224 25.0784 17.128C25.0544 17.04 25.0344 16.98 25.0184 16.948C25.0104 16.916 25.0024 16.88 24.9944 16.84C24.9864 16.808 24.9784 16.776 24.9704 16.744C24.9624 16.72 24.9544 16.692 24.9464 16.66C24.9464 16.636 24.9384 16.608 24.9224 16.576L24.8864 16.54C24.8624 16.508 24.8384 16.472 24.8144 16.432C24.7904 16.4 24.7664 16.368 24.7424 16.336C24.7344 16.312 24.7224 16.288 24.7064 16.264C24.6904 16.248 24.6744 16.224 24.6584 16.192C24.6504 16.176 24.6424 16.16 24.6344 16.144C24.6264 16.136 24.6144 16.128 24.5984 16.12H24.5024C23.9824 16.104 23.5344 15.98 23.1584 15.748C22.7904 15.516 22.5344 15.22 22.3904 14.86C22.3824 14.836 22.3744 14.812 22.3664 14.788C22.3584 14.764 22.3504 14.74 22.3424 14.716C22.3424 14.708 22.3384 14.7 22.3304 14.692C22.3304 14.684 22.3304 14.676 22.3304 14.668C22.3224 14.628 22.3144 14.592 22.3064 14.56C22.2984 14.52 22.2904 14.484 22.2824 14.452C22.2744 14.404 22.2704 14.356 22.2704 14.308C22.2704 14.252 22.2704 14.2 22.2704 14.152C22.2704 14.12 22.2704 14.092 22.2704 14.068C22.2784 14.044 22.2824 14.016 22.2824 13.984L22.2944 13.9C22.3184 13.772 22.3544 13.656 22.4024 13.552C22.5144 13.296 22.6864 13.076 22.9184 12.892C22.9664 12.852 23.0144 12.816 23.0624 12.784C23.1104 12.752 23.1624 12.72 23.2184 12.688L23.3744 12.604C23.3904 12.588 23.4104 12.572 23.4344 12.556C23.4584 12.54 23.4824 12.528 23.5064 12.52C23.5224 12.504 23.5424 12.492 23.5664 12.484C23.5904 12.476 23.6144 12.468 23.6384 12.46C23.7264 12.42 23.8144 12.388 23.9024 12.364C23.9984 12.34 24.0944 12.316 24.1904 12.292C24.3024 12.26 24.4144 12.232 24.5264 12.208C24.6464 12.184 24.7704 12.16 24.8984 12.136L25.1864 12.088C25.2984 12.072 25.4064 12.056 25.5104 12.04C25.6224 12.016 25.7344 11.996 25.8464 11.98C25.8784 11.98 25.8984 11.976 25.9064 11.968L26.1704 11.92V11.728C26.1704 11.76 26.1664 11.752 26.1584 11.704C26.1584 11.656 26.1584 11.628 26.1584 11.62C26.1584 11.628 26.1544 11.62 26.1464 11.596C26.1464 11.564 26.1464 11.552 26.1464 11.56C26.1464 11.552 26.1424 11.544 26.1344 11.536C26.1344 11.528 26.1344 11.52 26.1344 11.512C26.1184 11.464 26.0864 11.416 26.0384 11.368C26.0304 11.368 26.0264 11.368 26.0264 11.368C26.0264 11.36 26.0184 11.356 26.0024 11.356C25.9864 11.364 25.9664 11.38 25.9424 11.404C25.9264 11.428 25.9144 11.448 25.9064 11.464C25.8824 11.504 25.8544 11.556 25.8224 11.62C25.7904 11.676 25.7504 11.716 25.7024 11.74C25.6464 11.772 25.5944 11.752 25.5464 11.68C25.4984 11.608 25.4584 11.556 25.4264 11.524C25.4104 11.508 25.3984 11.5 25.3904 11.5L25.2824 11.608C25.2584 11.624 25.2344 11.64 25.2104 11.656C25.1864 11.672 25.1624 11.688 25.1384 11.704C25.0904 11.728 25.0384 11.748 24.9824 11.764C24.9344 11.772 24.8864 11.784 24.8384 11.8C24.7424 11.832 24.6464 11.868 24.5504 11.908C24.4624 11.94 24.3704 11.964 24.2744 11.98C24.1544 11.996 24.0424 11.972 23.9384 11.908C23.8344 11.836 23.7224 11.804 23.6024 11.812C23.4904 11.812 23.3784 11.808 23.2664 11.8C23.1624 11.792 23.0544 11.772 22.9424 11.74C22.9104 11.724 22.8904 11.716 22.8824 11.716C22.8744 11.716 22.8664 11.72 22.8584 11.728C22.8504 11.736 22.8424 11.736 22.8344 11.728C22.8264 11.72 22.8184 11.712 22.8104 11.704C22.8104 11.696 22.8024 11.688 22.7864 11.68C22.7784 11.664 22.7664 11.648 22.7504 11.632C22.7344 11.616 22.7264 11.608 22.7264 11.608C22.7184 11.6 22.7064 11.58 22.6904 11.548C22.6744 11.5 22.6704 11.452 22.6784 11.404C22.6864 11.348 22.6984 11.296 22.7144 11.248C22.7224 11.224 22.7304 11.2 22.7384 11.176C22.7464 11.152 22.7544 11.124 22.7624 11.092C22.8424 10.94 22.9304 10.808 23.0264 10.696C23.1144 10.584 23.2184 10.476 23.3384 10.372C23.4664 10.268 23.6104 10.176 23.7704 10.096C23.8344 10.04 23.9104 9.992 23.9984 9.952C24.0784 9.912 24.1624 9.88 24.2504 9.856C24.3464 9.832 24.4424 9.812 24.5384 9.796C24.7224 9.748 24.9224 9.712 25.1384 9.688C25.3544 9.656 25.5904 9.64 25.8464 9.64H26.0864C26.1344 9.64 26.1784 9.64 26.2184 9.64C26.2584 9.64 26.2904 9.644 26.3144 9.652L26.3984 9.664H26.4584C26.5624 9.664 26.6384 9.676 26.6864 9.7C26.8224 9.708 26.9584 9.732 27.0944 9.772C27.1904 9.788 27.2824 9.808 27.3704 9.832C27.4664 9.856 27.5504 9.888 27.6224 9.928C27.7264 9.96 27.8264 10.008 27.9224 10.072C28.0264 10.136 28.1184 10.2 28.1984 10.264C28.1984 10.272 28.1984 10.276 28.1984 10.276C28.2064 10.276 28.2104 10.276 28.2104 10.276C28.2344 10.292 28.2544 10.312 28.2704 10.336C28.2944 10.352 28.3144 10.368 28.3304 10.384C28.7144 10.728 28.9424 11.188 29.0144 11.764C29.0224 11.772 29.0264 11.784 29.0264 11.8C29.0504 11.968 29.0584 12.136 29.0504 12.304C29.0504 12.472 29.0504 12.64 29.0504 12.808V15.292C29.0504 15.332 29.0504 15.376 29.0504 15.424C29.0584 15.472 29.0624 15.52 29.0624 15.568ZM26.2064 13.564V13.42C26.2064 13.412 26.1984 13.412 26.1824 13.42C26.1744 13.42 26.1624 13.424 26.1464 13.432C26.1384 13.432 26.1304 13.432 26.1224 13.432C26.0904 13.448 26.0544 13.464 26.0144 13.48C25.9744 13.488 25.9344 13.5 25.8944 13.516C25.8144 13.548 25.7304 13.572 25.6424 13.588C25.5624 13.596 25.4784 13.608 25.3904 13.624C25.3504 13.632 25.3064 13.644 25.2584 13.66C25.2104 13.676 25.1664 13.696 25.1264 13.72C25.0944 13.744 25.0704 13.768 25.0544 13.792C24.9984 13.864 24.9704 13.936 24.9704 14.008C24.9704 14.064 24.9984 14.136 25.0544 14.224C25.0704 14.232 25.0864 14.244 25.1024 14.26C25.1264 14.268 25.1504 14.28 25.1744 14.296L25.2344 14.32C25.3384 14.328 25.3944 14.336 25.4024 14.344C25.4104 14.344 25.4584 14.34 25.5464 14.332C25.8904 14.284 26.0984 14.088 26.1704 13.744C26.1864 13.696 26.1944 13.652 26.1944 13.612C26.1944 13.588 26.1984 13.572 26.2064 13.564ZM31.6793 9.496C31.5833 9.512 31.4833 9.5 31.3793 9.46C31.2833 9.42 31.1873 9.372 31.0913 9.316C31.0673 9.308 31.0393 9.3 31.0073 9.292C30.9833 9.276 30.9553 9.264 30.9233 9.256C30.8593 9.24 30.7913 9.224 30.7193 9.208C30.6553 9.184 30.5913 9.16 30.5273 9.136C30.5033 9.128 30.4793 9.124 30.4553 9.124C30.4393 9.116 30.4193 9.108 30.3953 9.1L30.2993 9.064C30.2913 9.048 30.2793 9.036 30.2633 9.028C30.2553 9.02 30.2433 9.012 30.2273 9.004C30.1713 8.948 30.1393 8.888 30.1313 8.824V7.6C30.1313 7.528 30.1273 7.448 30.1193 7.36C30.1193 7.272 30.1433 7.196 30.1913 7.132L30.2633 7.06C30.2873 7.044 30.3233 7.028 30.3713 7.012C30.4353 6.996 30.4993 6.988 30.5633 6.988C30.6353 6.988 30.6993 6.992 30.7553 7H32.1113C32.1833 6.992 32.2553 6.988 32.3273 6.988C32.4073 6.98 32.4833 6.984 32.5553 7C32.5633 7 32.5673 7.004 32.5673 7.012C32.5673 7.012 32.5713 7.012 32.5793 7.012C32.5873 7.012 32.6073 7.02 32.6393 7.036C32.6793 7.052 32.7113 7.08 32.7353 7.12C32.7753 7.168 32.7953 7.212 32.7953 7.252C32.8033 7.292 32.8073 7.324 32.8073 7.348C32.8153 7.38 32.8193 7.412 32.8193 7.444C32.8193 7.468 32.8193 7.496 32.8193 7.528C32.8193 7.696 32.8153 7.868 32.8073 8.044C32.8073 8.22 32.8073 8.392 32.8073 8.56V8.776C32.8073 8.816 32.8033 8.848 32.7953 8.872C32.7873 8.912 32.7633 8.952 32.7233 8.992L32.6753 9.04C32.6593 9.056 32.6433 9.064 32.6273 9.064C32.6193 9.072 32.6113 9.084 32.6033 9.1C32.6033 9.116 32.5953 9.128 32.5793 9.136C32.5793 9.136 32.5713 9.136 32.5553 9.136C32.5393 9.128 32.5233 9.124 32.5073 9.124C32.4913 9.124 32.4713 9.128 32.4473 9.136C32.4233 9.144 32.4033 9.152 32.3873 9.16C32.3713 9.168 32.3513 9.176 32.3273 9.184C32.3033 9.184 32.2833 9.188 32.2673 9.196C32.2513 9.196 32.2393 9.2 32.2313 9.208C32.1753 9.232 32.1193 9.264 32.0633 9.304C32.0073 9.344 31.9473 9.384 31.8833 9.424C31.8193 9.456 31.7513 9.48 31.6793 9.496ZM32.8553 15.784C32.8473 15.792 32.8433 15.8 32.8433 15.808C32.8433 15.816 32.8393 15.824 32.8313 15.832V15.844C32.8153 15.86 32.7993 15.876 32.7833 15.892C32.7673 15.908 32.7513 15.924 32.7353 15.94C32.7353 15.94 32.7313 15.944 32.7233 15.952C32.7233 15.952 32.7193 15.952 32.7113 15.952C32.7113 15.952 32.7073 15.956 32.6992 15.964C32.6992 15.964 32.6953 15.964 32.6873 15.964C32.6713 15.98 32.6553 16.004 32.6393 16.036C32.6313 16.044 32.6233 16.056 32.6152 16.072C32.6152 16.088 32.6073 16.1 32.5913 16.108C32.5593 16.148 32.5273 16.184 32.4953 16.216C32.4633 16.256 32.4313 16.296 32.3993 16.336V16.348H32.3873C32.3873 16.356 32.3793 16.368 32.3633 16.384L32.2073 16.648C32.1673 16.72 32.1193 16.772 32.0633 16.804C32.0313 16.82 32.0153 16.828 32.0153 16.828C32.0073 16.892 32.0113 16.968 32.0273 17.056C32.0433 17.152 32.0513 17.232 32.0513 17.296C32.0513 17.368 32.0233 17.396 31.9673 17.38C31.9033 17.364 31.8713 17.32 31.8713 17.248C31.8713 17.184 31.8793 17.108 31.8953 17.02C31.9193 16.94 31.9273 16.868 31.9193 16.804C31.9113 16.804 31.8953 16.792 31.8713 16.768C31.8473 16.744 31.8273 16.716 31.8113 16.684C31.7953 16.66 31.7793 16.632 31.7633 16.6C31.7393 16.576 31.7233 16.556 31.7153 16.54L31.6073 16.432C31.5993 16.488 31.5993 16.568 31.6073 16.672C31.6233 16.776 31.6113 16.812 31.5713 16.78C31.5153 16.74 31.4993 16.68 31.5233 16.6C31.5473 16.52 31.5513 16.448 31.5353 16.384C31.5273 16.368 31.5153 16.356 31.4993 16.348C31.4913 16.34 31.4793 16.328 31.4633 16.312L31.3793 16.228C31.3633 16.204 31.3393 16.176 31.3073 16.144C31.2913 16.224 31.2833 16.308 31.2833 16.396C31.2833 16.484 31.2753 16.572 31.2593 16.66C31.2513 16.668 31.2433 16.664 31.2353 16.648C31.2273 16.632 31.2193 16.62 31.2113 16.612C31.1873 16.58 31.1633 16.552 31.1393 16.528C31.1233 16.504 31.0993 16.484 31.0673 16.468C31.0273 16.452 30.9873 16.448 30.9473 16.456C30.9073 16.464 30.8673 16.452 30.8273 16.42C30.7953 16.396 30.7673 16.368 30.7433 16.336C30.7273 16.312 30.7073 16.284 30.6833 16.252C30.6753 16.252 30.6673 16.248 30.6593 16.24C30.6513 16.232 30.6433 16.236 30.6353 16.252C30.6273 16.388 30.6193 16.528 30.6113 16.672C30.6113 16.816 30.6033 16.96 30.5873 17.104C30.5873 17.12 30.5793 17.108 30.5633 17.068C30.5553 17.036 30.5473 17.012 30.5393 16.996C30.5233 16.948 30.5073 16.892 30.4913 16.828C30.4753 16.772 30.4593 16.72 30.4433 16.672C30.4113 16.56 30.3913 16.484 30.3833 16.444C30.3833 16.404 30.3833 16.372 30.3833 16.348C30.3913 16.324 30.3873 16.288 30.3713 16.24C30.3633 16.2 30.3353 16.116 30.2873 15.988L30.2153 15.952C30.1593 15.912 30.1193 15.864 30.0953 15.808C30.0793 15.752 30.0713 15.696 30.0713 15.64C30.0633 15.584 30.0593 15.528 30.0593 15.472C30.0673 15.408 30.0713 15.348 30.0713 15.292V10.084C30.0713 10.044 30.0753 10.012 30.0833 9.988C30.0993 9.94 30.1153 9.908 30.1313 9.892L30.2033 9.82C30.2353 9.796 30.2873 9.776 30.3593 9.76C30.4393 9.744 30.5193 9.74 30.5993 9.748C30.6873 9.756 30.7633 9.76 30.8273 9.76H32.0153C32.1113 9.76 32.2073 9.756 32.3033 9.748C32.4073 9.74 32.5073 9.744 32.6033 9.76C32.6193 9.76 32.6353 9.764 32.6513 9.772C32.6673 9.78 32.6833 9.788 32.6992 9.796C32.7233 9.804 32.7393 9.812 32.7473 9.82C32.7713 9.844 32.7873 9.864 32.7953 9.88C32.8273 9.912 32.8513 9.964 32.8673 10.036C32.8753 10.068 32.8753 10.108 32.8673 10.156C32.8673 10.196 32.8673 10.236 32.8673 10.276C32.8753 10.428 32.8753 10.58 32.8673 10.732C32.8673 10.876 32.8673 11.024 32.8673 11.176V15.34C32.8673 15.372 32.8673 15.404 32.8673 15.436C32.8673 15.468 32.8713 15.504 32.8793 15.544C32.8793 15.576 32.8793 15.608 32.8793 15.64C32.8793 15.672 32.8713 15.72 32.8553 15.784ZM36.7582 15.652C36.7582 15.692 36.7502 15.736 36.7342 15.784C36.7342 15.784 36.7262 15.8 36.7102 15.832L36.6982 15.844C36.6902 15.868 36.6622 15.9 36.6142 15.94C36.5742 15.972 36.5502 15.992 36.5422 16L36.5302 16.012C36.5302 16.02 36.5262 16.024 36.5182 16.024C36.5182 16.024 36.5182 16.028 36.5182 16.036C36.5022 16.076 36.4862 16.096 36.4702 16.096C36.4382 16.144 36.4062 16.192 36.3742 16.24C36.3502 16.288 36.3182 16.332 36.2782 16.372C36.2462 16.412 36.2062 16.448 36.1582 16.48C36.1182 16.512 36.0782 16.548 36.0382 16.588C35.9982 16.628 35.9662 16.672 35.9422 16.72C35.9342 16.744 35.9222 16.764 35.9062 16.78C35.8982 16.804 35.8902 16.824 35.8822 16.84C35.8262 16.952 35.7902 17.04 35.7742 17.104C35.7582 17.168 35.7142 17.26 35.6422 17.38C35.6342 17.412 35.6062 17.444 35.5582 17.476C35.5502 17.492 35.5342 17.532 35.5102 17.596C35.4942 17.66 35.4622 17.688 35.4142 17.68C35.3982 17.68 35.3782 17.664 35.3542 17.632C35.3382 17.608 35.3262 17.592 35.3182 17.584C35.2942 17.544 35.2742 17.504 35.2582 17.464C35.2422 17.424 35.2182 17.388 35.1862 17.356C35.1702 17.34 35.1582 17.324 35.1502 17.308C35.1182 17.284 35.0822 17.248 35.0422 17.2C35.0342 17.184 35.0222 17.168 35.0062 17.152C34.9982 17.136 34.9862 17.124 34.9702 17.116C34.9142 17.044 34.8662 16.964 34.8262 16.876C34.7862 16.796 34.7462 16.716 34.7062 16.636C34.6982 16.612 34.6902 16.588 34.6822 16.564C34.6742 16.54 34.6622 16.516 34.6462 16.492L34.5742 16.348C34.5182 16.252 34.4582 16.172 34.3942 16.108C34.3942 16.132 34.3862 16.144 34.3702 16.144C34.3622 16.144 34.3542 16.132 34.3462 16.108C34.3382 16.092 34.3302 16.08 34.3222 16.072C34.3222 16.064 34.3182 16.056 34.3102 16.048C34.2862 16.128 34.2702 16.248 34.2622 16.408C34.2542 16.576 34.2502 16.74 34.2502 16.9C34.2582 17.068 34.2622 17.2 34.2622 17.296C34.2622 17.392 34.2582 17.412 34.2502 17.356C34.2022 17.172 34.1862 16.948 34.2022 16.684C34.2182 16.428 34.2062 16.196 34.1662 15.988C34.1502 15.98 34.1342 15.972 34.1182 15.964C34.1102 15.956 34.0982 15.948 34.0822 15.94C33.9942 15.868 33.9502 15.788 33.9502 15.7C33.9422 15.62 33.9382 15.54 33.9382 15.46C33.9462 15.38 33.9502 15.304 33.9502 15.232V8.092C33.9502 8.012 33.9462 7.928 33.9382 7.84C33.9382 7.752 33.9622 7.676 34.0102 7.612L34.0822 7.54C34.1382 7.5 34.2022 7.48 34.2742 7.48H36.2782C36.3182 7.48 36.3582 7.48 36.3982 7.48C36.4462 7.472 36.4902 7.476 36.5302 7.492C36.5542 7.5 36.5742 7.512 36.5902 7.528C36.6142 7.536 36.6342 7.548 36.6502 7.564C36.6662 7.58 36.6822 7.604 36.6982 7.636C36.7302 7.676 36.7462 7.732 36.7462 7.804V15.292C36.7462 15.348 36.7502 15.408 36.7582 15.472C36.7662 15.528 36.7662 15.588 36.7582 15.652ZM47.4291 10.42L47.2851 10.852C47.2611 10.956 47.2331 11.048 47.2011 11.128L47.0931 11.512C47.0851 11.52 47.0811 11.528 47.0811 11.536C47.0811 11.544 47.0771 11.552 47.0691 11.56C47.0691 11.568 47.0651 11.576 47.0571 11.584C47.0571 11.584 47.0571 11.588 47.0571 11.596L46.6251 12.964C46.5931 13.092 46.5651 13.22 46.5411 13.348C46.5171 13.468 46.4891 13.564 46.4571 13.636C46.4411 13.692 46.4251 13.744 46.4091 13.792C46.4011 13.84 46.3891 13.884 46.3731 13.924C46.3651 13.932 46.3611 13.944 46.3611 13.96C46.3611 13.976 46.3571 13.992 46.3491 14.008C46.2931 14.248 46.2331 14.46 46.1691 14.644C46.1051 14.828 46.0411 14.952 45.9771 15.016C45.9771 15.032 45.9731 15.048 45.9651 15.064C45.9411 15.152 45.9131 15.24 45.8811 15.328C45.8571 15.416 45.8291 15.504 45.7971 15.592C45.7971 15.6 45.7931 15.608 45.7851 15.616C45.7851 15.624 45.7851 15.636 45.7851 15.652C45.7771 15.676 45.7691 15.7 45.7611 15.724C45.7531 15.748 45.7411 15.772 45.7251 15.796C45.7091 15.812 45.7011 15.824 45.7011 15.832C45.6931 15.84 45.6851 15.852 45.6771 15.868C45.6691 15.876 45.6571 15.884 45.6411 15.892C45.6251 15.924 45.6091 15.944 45.5931 15.952L45.5571 16.024C45.5011 16.144 45.4451 16.264 45.3891 16.384C45.3331 16.512 45.2731 16.636 45.2091 16.756C45.1931 16.804 45.1731 16.848 45.1491 16.888C45.1251 16.936 45.1051 16.98 45.0891 17.02C45.0731 17.036 45.0651 17.052 45.0651 17.068L44.9931 17.176C44.9851 17.208 44.9731 17.228 44.9571 17.236C44.9411 17.252 44.9331 17.26 44.9331 17.26L44.8731 17.32C44.8651 17.32 44.8611 17.32 44.8611 17.32C44.8611 17.328 44.8571 17.332 44.8491 17.332C44.8491 17.348 44.8411 17.396 44.8251 17.476C44.8171 17.564 44.8051 17.652 44.7891 17.74C44.7731 17.828 44.7571 17.888 44.7411 17.92C44.7331 17.928 44.7131 17.92 44.6811 17.896C44.6731 17.856 44.6651 17.812 44.6571 17.764C44.6491 17.724 44.6411 17.688 44.6331 17.656C44.6251 17.592 44.6211 17.532 44.6211 17.476C44.6211 17.42 44.6131 17.364 44.5971 17.308L44.5011 17.212L44.4171 17.104C44.4011 17.088 44.3931 17.072 44.3931 17.056C44.3611 17.016 44.3331 16.976 44.3091 16.936C44.2931 16.896 44.2731 16.856 44.2491 16.816C44.2171 16.776 44.1851 16.732 44.1531 16.684C44.1211 16.644 44.0851 16.608 44.0451 16.576C43.9971 16.528 43.9691 16.536 43.9611 16.6C43.9611 16.672 43.9371 16.708 43.8891 16.708C43.8651 16.708 43.8491 16.7 43.8411 16.684C43.8331 16.676 43.8251 16.656 43.8171 16.624C43.8091 16.6 43.8051 16.596 43.8051 16.612C43.7971 16.644 43.7891 16.692 43.7811 16.756C43.7811 16.828 43.7811 16.884 43.7811 16.924C43.7811 16.972 43.7731 16.98 43.7571 16.948C43.7331 16.852 43.7251 16.752 43.7331 16.648C43.7411 16.552 43.7371 16.452 43.7211 16.348L43.6851 16.312C43.6691 16.296 43.6531 16.276 43.6371 16.252C43.6291 16.228 43.6171 16.204 43.6011 16.18C43.6011 16.18 43.5931 16.164 43.5771 16.132C43.5771 16.14 43.5731 16.144 43.5651 16.144C43.5491 16.144 43.5411 16.128 43.5411 16.096C43.5411 16.072 43.5371 16.052 43.5291 16.036L43.4931 15.94C43.4931 15.932 43.4891 15.924 43.4811 15.916C43.4811 15.908 43.4811 15.9 43.4811 15.892C43.4331 15.844 43.3971 15.796 43.3731 15.748C43.3651 15.716 43.3531 15.684 43.3371 15.652C43.3211 15.612 43.3051 15.576 43.2891 15.544C43.2491 15.432 43.2091 15.32 43.1691 15.208C43.1371 15.088 43.1011 14.972 43.0611 14.86C43.0531 14.844 43.0491 14.828 43.0491 14.812C43.0491 14.796 43.0451 14.784 43.0371 14.776L42.9411 14.488C42.9331 14.48 42.9291 14.472 42.9291 14.464C42.9291 14.456 42.9251 14.448 42.9171 14.44C42.9011 14.4 42.8851 14.356 42.8691 14.308C42.8531 14.26 42.8371 14.216 42.8211 14.176C42.8211 14.16 42.8131 14.136 42.7971 14.104L42.5811 13.492C42.5811 13.476 42.5771 13.464 42.5691 13.456L42.5451 13.372C42.5371 13.364 42.5331 13.356 42.5331 13.348C42.5331 13.34 42.5291 13.332 42.5211 13.324V13.288C42.5131 13.312 42.5051 13.324 42.4971 13.324C42.4971 13.332 42.4931 13.34 42.4851 13.348C42.4851 13.348 42.4851 13.352 42.4851 13.36C42.4851 13.36 42.4811 13.364 42.4731 13.372C42.4731 13.372 42.4731 13.376 42.4731 13.384L42.4491 13.444L42.4251 13.516C42.4171 13.54 42.4091 13.564 42.4011 13.588C42.3931 13.604 42.3851 13.628 42.3771 13.66C42.3691 13.684 42.3611 13.712 42.3531 13.744C42.3451 13.768 42.3331 13.792 42.3171 13.816L42.1851 14.2C42.1771 14.208 42.1731 14.22 42.1731 14.236L41.9931 14.728C41.9451 14.88 41.8971 15.028 41.8491 15.172C41.8091 15.308 41.7651 15.42 41.7171 15.508C41.6851 15.636 41.6371 15.748 41.5731 15.844C41.5651 15.852 41.5531 15.868 41.5371 15.892C41.5291 15.908 41.5091 15.924 41.4771 15.94C41.4691 15.956 41.4611 15.976 41.4531 16C41.4531 16.032 41.4491 16.06 41.4411 16.084C41.4251 16.108 41.4091 16.152 41.3931 16.216C41.3851 16.232 41.3771 16.26 41.3691 16.3C41.3691 16.34 41.3611 16.352 41.3451 16.336C41.3371 16.32 41.3291 16.296 41.3211 16.264C41.3211 16.24 41.3211 16.216 41.3211 16.192C41.2891 16.24 41.2571 16.284 41.2251 16.324C41.1931 16.372 41.1611 16.42 41.1291 16.468C41.1131 16.508 41.0891 16.548 41.0571 16.588C41.0331 16.628 41.0011 16.664 40.9611 16.696C40.9451 16.704 40.9291 16.716 40.9131 16.732C40.9051 16.852 40.8971 16.972 40.8891 17.092C40.8891 17.212 40.8811 17.332 40.8651 17.452C40.8571 17.5 40.8611 17.556 40.8771 17.62C40.8931 17.692 40.8731 17.736 40.8171 17.752C40.7691 17.76 40.7491 17.724 40.7571 17.644C40.7731 17.572 40.7771 17.512 40.7691 17.464C40.7611 17.36 40.7571 17.256 40.7571 17.152C40.7571 17.056 40.7491 16.956 40.7331 16.852L40.5891 16.996H40.5771L40.5411 17.032C40.5331 17.152 40.5251 17.272 40.5171 17.392C40.5171 17.52 40.5091 17.648 40.4931 17.776C40.4931 17.784 40.4811 17.788 40.4571 17.788C40.4411 17.788 40.4331 17.784 40.4331 17.776C40.4171 17.648 40.4091 17.52 40.4091 17.392C40.4091 17.272 40.4011 17.148 40.3851 17.02C40.3771 17.012 40.3691 17 40.3611 16.984C40.3531 16.976 40.3411 16.968 40.3251 16.96L40.2651 16.852C40.2571 16.836 40.2491 16.816 40.2411 16.792C40.2331 16.776 40.2251 16.76 40.2171 16.744C40.2171 16.736 40.2131 16.728 40.2051 16.72C40.2051 16.72 40.2051 16.716 40.2051 16.708L40.1811 16.648C40.1491 16.584 40.1171 16.516 40.0851 16.444C40.0531 16.38 40.0171 16.32 39.9771 16.264C39.9451 16.216 39.9171 16.18 39.8931 16.156C39.8691 16.132 39.8491 16.116 39.8331 16.108C39.8171 16.156 39.8091 16.208 39.8091 16.264C39.8171 16.32 39.8091 16.372 39.7851 16.42C39.7771 16.436 39.7691 16.42 39.7611 16.372C39.7531 16.332 39.7451 16.3 39.7371 16.276C39.7451 16.332 39.7491 16.384 39.7491 16.432C39.7491 16.48 39.7291 16.5 39.6891 16.492C39.6251 16.468 39.6051 16.408 39.6291 16.312C39.6611 16.224 39.6651 16.148 39.6411 16.084L39.5691 16C39.4731 15.984 39.4011 15.948 39.3531 15.892C39.3051 15.828 39.2691 15.76 39.2451 15.688C39.2371 15.672 39.2291 15.652 39.2211 15.628C39.2131 15.604 39.2051 15.584 39.1971 15.568L39.1611 15.448C39.1291 15.344 39.0971 15.244 39.0651 15.148C39.0331 15.044 39.0011 14.94 38.9691 14.836C38.9291 14.796 38.8771 14.7 38.8131 14.548C38.7571 14.404 38.7091 14.256 38.6691 14.104C38.6291 13.952 38.5891 13.8 38.5491 13.648C38.5251 13.56 38.4971 13.46 38.4651 13.348C38.4411 13.236 38.4171 13.12 38.3931 13L37.8291 11.224C37.7971 11.16 37.7731 11.096 37.7571 11.032C37.7411 10.968 37.7251 10.904 37.7091 10.84C37.7091 10.824 37.7051 10.808 37.6971 10.792C37.6971 10.8 37.6931 10.792 37.6851 10.768C37.6771 10.736 37.6771 10.728 37.6851 10.744C37.6531 10.648 37.6171 10.552 37.5771 10.456C37.5371 10.352 37.5091 10.248 37.4931 10.144C37.4851 10.112 37.4811 10.08 37.4811 10.048C37.4811 9.984 37.5011 9.924 37.5411 9.868C37.5731 9.836 37.6011 9.812 37.6251 9.796C37.6971 9.764 37.7851 9.748 37.8891 9.748C37.9371 9.748 37.9851 9.752 38.0331 9.76C38.0811 9.76 38.1211 9.76 38.1531 9.76H39.6171C39.6571 9.76 39.6931 9.764 39.7251 9.772C39.7651 9.78 39.8011 9.792 39.8331 9.808C39.8571 9.816 39.8771 9.828 39.8931 9.844C39.9091 9.852 39.9291 9.876 39.9531 9.916C39.9691 9.932 39.9851 9.96 40.0011 10C40.0171 10.032 40.0291 10.056 40.0371 10.072C40.0531 10.104 40.0651 10.14 40.0731 10.18C40.0811 10.212 40.0891 10.244 40.0971 10.276L40.3491 11.14C40.3731 11.22 40.3971 11.304 40.4211 11.392C40.4451 11.48 40.4691 11.568 40.4931 11.656L40.6971 12.34L40.7331 12.448L40.7691 12.496C40.7691 12.472 40.7771 12.452 40.7931 12.436L40.8651 12.208C40.8811 12.16 40.8931 12.112 40.9011 12.064C40.9171 12.016 40.9331 11.968 40.9491 11.92L41.2131 11.08C41.2371 10.984 41.2611 10.892 41.2851 10.804C41.3091 10.708 41.3371 10.62 41.3691 10.54C41.3931 10.444 41.4251 10.356 41.4651 10.276C41.4811 10.236 41.4931 10.196 41.5011 10.156C41.5171 10.108 41.5331 10.064 41.5491 10.024C41.5651 9.968 41.5891 9.924 41.6211 9.892C41.6611 9.852 41.7051 9.82 41.7531 9.796C41.7611 9.796 41.7691 9.792 41.7771 9.784C41.8251 9.768 41.8611 9.76 41.8851 9.76C41.9011 9.76 41.9131 9.76 41.9211 9.76C41.9371 9.752 41.9491 9.748 41.9571 9.748H42.0771C42.1251 9.748 42.1731 9.752 42.2211 9.76C42.2771 9.76 42.3251 9.76 42.3651 9.76H43.0611C43.1011 9.76 43.1291 9.764 43.1451 9.772C43.2091 9.772 43.2611 9.788 43.3011 9.82C43.3171 9.828 43.3411 9.848 43.3731 9.88C43.3811 9.888 43.3851 9.896 43.3851 9.904C43.3851 9.904 43.3891 9.908 43.3971 9.916C43.4371 9.956 43.4611 9.996 43.4691 10.036L43.5411 10.276C43.5811 10.396 43.6211 10.516 43.6611 10.636C43.7011 10.756 43.7371 10.876 43.7691 10.996C43.7691 11.004 43.7691 11.012 43.7691 11.02C43.7771 11.02 43.7811 11.024 43.7811 11.032C43.7971 11.088 43.8131 11.14 43.8291 11.188C43.8451 11.236 43.8611 11.288 43.8771 11.344L43.9131 11.452C43.9531 11.564 43.9891 11.676 44.0211 11.788C44.0531 11.9 44.0851 12.012 44.1171 12.124L44.1411 12.184C44.1491 12.192 44.1531 12.204 44.1531 12.22C44.1531 12.236 44.1571 12.252 44.1651 12.268L44.2011 12.376C44.2011 12.384 44.2091 12.412 44.2251 12.46C44.2251 12.54 44.2291 12.568 44.2371 12.544C44.2531 12.52 44.2611 12.504 44.2611 12.496C44.2611 12.488 44.2611 12.48 44.2611 12.472C44.2691 12.464 44.2731 12.456 44.2731 12.448L44.3331 12.28V12.244L44.4411 11.896C44.4571 11.832 44.4731 11.776 44.4891 11.728C44.5051 11.672 44.5211 11.616 44.5371 11.56C44.5451 11.528 44.5531 11.5 44.5611 11.476C44.5691 11.444 44.5771 11.412 44.5851 11.38L44.8011 10.636C44.8171 10.612 44.8251 10.588 44.8251 10.564C44.8331 10.532 44.8411 10.504 44.8491 10.48C44.8651 10.448 44.8731 10.424 44.8731 10.408L44.9091 10.276V10.264C44.9251 10.216 44.9371 10.164 44.9451 10.108C44.9611 10.052 44.9851 10.004 45.0171 9.964C45.0331 9.924 45.0491 9.896 45.0651 9.88C45.0891 9.864 45.1091 9.852 45.1251 9.844C45.1811 9.804 45.2531 9.776 45.3411 9.76C45.3891 9.752 45.4371 9.752 45.4851 9.76C45.5331 9.76 45.5811 9.76 45.6291 9.76H47.2371C47.2611 9.76 47.2971 9.768 47.3451 9.784C47.3931 9.792 47.4331 9.82 47.4651 9.868C47.4811 9.884 47.4971 9.916 47.5131 9.964C47.5211 9.98 47.5251 10.008 47.5251 10.048C47.5251 10.08 47.5211 10.116 47.5131 10.156L47.4291 10.42ZM49.8668 9.496C49.7708 9.512 49.6708 9.5 49.5668 9.46C49.4708 9.42 49.3748 9.372 49.2788 9.316C49.2548 9.308 49.2268 9.3 49.1948 9.292C49.1708 9.276 49.1428 9.264 49.1108 9.256C49.0468 9.24 48.9788 9.224 48.9068 9.208C48.8428 9.184 48.7788 9.16 48.7148 9.136C48.6908 9.128 48.6668 9.124 48.6428 9.124C48.6268 9.116 48.6068 9.108 48.5828 9.1L48.4868 9.064C48.4788 9.048 48.4668 9.036 48.4508 9.028C48.4428 9.02 48.4308 9.012 48.4148 9.004C48.3588 8.948 48.3268 8.888 48.3188 8.824V7.6C48.3188 7.528 48.3148 7.448 48.3068 7.36C48.3068 7.272 48.3308 7.196 48.3788 7.132L48.4508 7.06C48.4748 7.044 48.5108 7.028 48.5588 7.012C48.6228 6.996 48.6868 6.988 48.7508 6.988C48.8228 6.988 48.8868 6.992 48.9428 7H50.2988C50.3708 6.992 50.4428 6.988 50.5148 6.988C50.5948 6.98 50.6708 6.984 50.7428 7C50.7508 7 50.7548 7.004 50.7548 7.012C50.7548 7.012 50.7588 7.012 50.7668 7.012C50.7748 7.012 50.7948 7.02 50.8268 7.036C50.8668 7.052 50.8988 7.08 50.9228 7.12C50.9628 7.168 50.9828 7.212 50.9828 7.252C50.9908 7.292 50.9948 7.324 50.9948 7.348C51.0028 7.38 51.0068 7.412 51.0068 7.444C51.0068 7.468 51.0068 7.496 51.0068 7.528C51.0068 7.696 51.0028 7.868 50.9948 8.044C50.9948 8.22 50.9948 8.392 50.9948 8.56V8.776C50.9948 8.816 50.9908 8.848 50.9828 8.872C50.9748 8.912 50.9508 8.952 50.9108 8.992L50.8628 9.04C50.8468 9.056 50.8308 9.064 50.8148 9.064C50.8068 9.072 50.7988 9.084 50.7908 9.1C50.7908 9.116 50.7828 9.128 50.7668 9.136C50.7668 9.136 50.7588 9.136 50.7428 9.136C50.7268 9.128 50.7108 9.124 50.6948 9.124C50.6788 9.124 50.6588 9.128 50.6348 9.136C50.6108 9.144 50.5908 9.152 50.5748 9.16C50.5588 9.168 50.5388 9.176 50.5148 9.184C50.4908 9.184 50.4708 9.188 50.4548 9.196C50.4388 9.196 50.4268 9.2 50.4188 9.208C50.3628 9.232 50.3068 9.264 50.2508 9.304C50.1948 9.344 50.1348 9.384 50.0708 9.424C50.0068 9.456 49.9388 9.48 49.8668 9.496ZM51.0428 15.784C51.0348 15.792 51.0308 15.8 51.0308 15.808C51.0308 15.816 51.0268 15.824 51.0188 15.832V15.844C51.0028 15.86 50.9868 15.876 50.9708 15.892C50.9548 15.908 50.9388 15.924 50.9228 15.94C50.9228 15.94 50.9188 15.944 50.9108 15.952C50.9108 15.952 50.9068 15.952 50.8988 15.952C50.8988 15.952 50.8948 15.956 50.8867 15.964C50.8867 15.964 50.8828 15.964 50.8748 15.964C50.8588 15.98 50.8428 16.004 50.8268 16.036C50.8188 16.044 50.8108 16.056 50.8027 16.072C50.8027 16.088 50.7948 16.1 50.7788 16.108C50.7468 16.148 50.7148 16.184 50.6828 16.216C50.6508 16.256 50.6188 16.296 50.5868 16.336V16.348H50.5748C50.5748 16.356 50.5668 16.368 50.5508 16.384L50.3948 16.648C50.3548 16.72 50.3068 16.772 50.2508 16.804C50.2188 16.82 50.2028 16.828 50.2028 16.828C50.1948 16.892 50.1988 16.968 50.2148 17.056C50.2308 17.152 50.2388 17.232 50.2388 17.296C50.2388 17.368 50.2108 17.396 50.1548 17.38C50.0908 17.364 50.0588 17.32 50.0588 17.248C50.0588 17.184 50.0668 17.108 50.0828 17.02C50.1068 16.94 50.1148 16.868 50.1068 16.804C50.0988 16.804 50.0828 16.792 50.0588 16.768C50.0348 16.744 50.0148 16.716 49.9988 16.684C49.9828 16.66 49.9668 16.632 49.9508 16.6C49.9268 16.576 49.9108 16.556 49.9028 16.54L49.7948 16.432C49.7868 16.488 49.7868 16.568 49.7948 16.672C49.8108 16.776 49.7988 16.812 49.7588 16.78C49.7028 16.74 49.6868 16.68 49.7108 16.6C49.7348 16.52 49.7388 16.448 49.7228 16.384C49.7148 16.368 49.7028 16.356 49.6868 16.348C49.6788 16.34 49.6668 16.328 49.6508 16.312L49.5668 16.228C49.5508 16.204 49.5268 16.176 49.4948 16.144C49.4788 16.224 49.4708 16.308 49.4708 16.396C49.4708 16.484 49.4628 16.572 49.4468 16.66C49.4388 16.668 49.4308 16.664 49.4228 16.648C49.4148 16.632 49.4068 16.62 49.3988 16.612C49.3748 16.58 49.3508 16.552 49.3268 16.528C49.3108 16.504 49.2868 16.484 49.2548 16.468C49.2148 16.452 49.1748 16.448 49.1348 16.456C49.0948 16.464 49.0548 16.452 49.0148 16.42C48.9828 16.396 48.9548 16.368 48.9308 16.336C48.9148 16.312 48.8948 16.284 48.8708 16.252C48.8628 16.252 48.8548 16.248 48.8468 16.24C48.8388 16.232 48.8308 16.236 48.8228 16.252C48.8148 16.388 48.8068 16.528 48.7988 16.672C48.7988 16.816 48.7908 16.96 48.7748 17.104C48.7748 17.12 48.7668 17.108 48.7508 17.068C48.7428 17.036 48.7348 17.012 48.7268 16.996C48.7108 16.948 48.6948 16.892 48.6788 16.828C48.6628 16.772 48.6468 16.72 48.6308 16.672C48.5988 16.56 48.5788 16.484 48.5708 16.444C48.5708 16.404 48.5708 16.372 48.5708 16.348C48.5788 16.324 48.5748 16.288 48.5588 16.24C48.5508 16.2 48.5228 16.116 48.4748 15.988L48.4028 15.952C48.3468 15.912 48.3068 15.864 48.2828 15.808C48.2668 15.752 48.2588 15.696 48.2588 15.64C48.2508 15.584 48.2468 15.528 48.2468 15.472C48.2548 15.408 48.2588 15.348 48.2588 15.292V10.084C48.2588 10.044 48.2628 10.012 48.2708 9.988C48.2868 9.94 48.3028 9.908 48.3188 9.892L48.3908 9.82C48.4228 9.796 48.4748 9.776 48.5468 9.76C48.6268 9.744 48.7068 9.74 48.7868 9.748C48.8748 9.756 48.9508 9.76 49.0148 9.76H50.2028C50.2988 9.76 50.3948 9.756 50.4908 9.748C50.5948 9.74 50.6948 9.744 50.7908 9.76C50.8068 9.76 50.8228 9.764 50.8388 9.772C50.8548 9.78 50.8708 9.788 50.8867 9.796C50.9108 9.804 50.9268 9.812 50.9348 9.82C50.9588 9.844 50.9748 9.864 50.9828 9.88C51.0148 9.912 51.0388 9.964 51.0548 10.036C51.0628 10.068 51.0628 10.108 51.0548 10.156C51.0548 10.196 51.0548 10.236 51.0548 10.276C51.0628 10.428 51.0628 10.58 51.0548 10.732C51.0548 10.876 51.0548 11.024 51.0548 11.176V15.34C51.0548 15.372 51.0548 15.404 51.0548 15.436C51.0548 15.468 51.0588 15.504 51.0668 15.544C51.0668 15.576 51.0668 15.608 51.0668 15.64C51.0668 15.672 51.0588 15.72 51.0428 15.784ZM59.8033 14.956C59.8033 15.068 59.8073 15.184 59.8153 15.304C59.8233 15.424 59.8193 15.54 59.8033 15.652C59.8033 15.716 59.7993 15.76 59.7913 15.784C59.7673 15.848 59.7273 15.9 59.6713 15.94C59.6713 15.94 59.6673 15.944 59.6593 15.952C59.6593 15.952 59.6553 15.952 59.6473 15.952C59.6473 15.952 59.6433 15.956 59.6353 15.964C59.6353 15.964 59.6313 15.964 59.6233 15.964C59.6153 15.972 59.5993 16 59.5753 16.048C59.5513 16.096 59.5313 16.12 59.5153 16.12C59.4753 16.184 59.4313 16.236 59.3833 16.276C59.3753 16.284 59.3673 16.288 59.3593 16.288C59.3513 16.296 59.3433 16.304 59.3353 16.312C59.3033 16.456 59.2793 16.6 59.2633 16.744C59.2553 16.896 59.2313 17.044 59.1913 17.188C59.1753 17.252 59.1593 17.296 59.1433 17.32C59.1193 17.344 59.1033 17.352 59.0953 17.344C59.0873 17.344 59.0713 17.324 59.0473 17.284C59.0393 17.252 59.0233 17.204 58.9993 17.14C58.9833 17.084 58.9713 17.04 58.9633 17.008C58.9473 16.952 58.9313 16.896 58.9153 16.84C58.8993 16.792 58.8793 16.74 58.8553 16.684C58.8473 16.668 58.8393 16.648 58.8313 16.624C58.8313 16.6 58.8233 16.584 58.8073 16.576C58.8073 16.576 58.7993 16.572 58.7833 16.564C58.7673 16.556 58.7553 16.548 58.7473 16.54C58.7393 16.524 58.7273 16.512 58.7113 16.504C58.7033 16.496 58.6953 16.488 58.6873 16.48C58.6473 16.424 58.6313 16.396 58.6393 16.396C58.6473 16.404 58.6513 16.408 58.6513 16.408C58.6513 16.408 58.6233 16.38 58.5673 16.324C58.5593 16.332 58.5433 16.336 58.5193 16.336C58.4953 16.336 58.4793 16.34 58.4713 16.348C58.4633 16.524 58.4553 16.752 58.4473 17.032C58.4473 17.32 58.4393 17.556 58.4233 17.74C58.4233 17.756 58.4073 17.756 58.3753 17.74C58.3513 17.724 58.3393 17.716 58.3393 17.716C58.3073 17.684 58.2793 17.644 58.2553 17.596C58.2313 17.556 58.2113 17.52 58.1953 17.488C58.1873 17.464 58.1753 17.44 58.1593 17.416C58.1513 17.4 58.1473 17.384 58.1473 17.368C58.1313 17.184 58.1233 16.996 58.1233 16.804C58.1233 16.612 58.1153 16.428 58.0993 16.252C58.0833 16.236 58.0713 16.228 58.0633 16.228C58.0553 16.252 58.0513 16.276 58.0513 16.3C58.0513 16.332 58.0433 16.36 58.0273 16.384C58.0193 16.408 57.9993 16.404 57.9673 16.372C57.9273 16.356 57.8873 16.336 57.8473 16.312C57.8153 16.296 57.7793 16.28 57.7393 16.264C57.7073 16.248 57.6673 16.232 57.6193 16.216C57.5793 16.208 57.5473 16.192 57.5233 16.168C57.4913 16.232 57.4393 16.272 57.3673 16.288C57.3033 16.304 57.2433 16.288 57.1873 16.24C57.1393 16.2 57.0993 16.152 57.0673 16.096C57.0433 16.04 57.0073 15.976 56.9593 15.904C56.9433 15.888 56.9273 15.872 56.9113 15.856C56.8953 15.832 56.8833 15.804 56.8753 15.772C56.8673 15.74 56.8633 15.688 56.8633 15.616V12.448C56.8633 12.392 56.8593 12.348 56.8513 12.316C56.8353 12.18 56.7873 12.064 56.7073 11.968C56.6993 11.952 56.6873 11.94 56.6713 11.932C56.6633 11.916 56.6513 11.904 56.6353 11.896C56.6273 11.888 56.6153 11.884 56.5993 11.884C56.5833 11.908 56.5713 11.936 56.5633 11.968C56.5633 11.992 56.5553 12.016 56.5393 12.04C56.4993 12.08 56.4753 12.088 56.4673 12.064C56.4513 12.032 56.4433 12.012 56.4433 12.004C56.4193 12.028 56.3913 12.064 56.3593 12.112C56.3433 12.16 56.3273 12.192 56.3113 12.208C56.3033 12.224 56.2953 12.248 56.2873 12.28C56.2793 12.312 56.2713 12.32 56.2633 12.304C56.2473 12.256 56.2353 12.208 56.2273 12.16C56.2273 12.112 56.2233 12.06 56.2153 12.004C56.2153 12.02 56.2113 12.028 56.2033 12.028C56.2033 12.044 56.1993 12.052 56.1913 12.052C56.1833 12.076 56.1673 12.108 56.1433 12.148C56.1273 12.188 56.1033 12.216 56.0713 12.232C56.0553 12.296 56.0593 12.384 56.0833 12.496C56.1073 12.6 56.0873 12.644 56.0233 12.628C55.9513 12.612 55.9273 12.556 55.9513 12.46C55.9833 12.356 55.9913 12.264 55.9753 12.184C55.9673 12.176 55.9633 12.156 55.9633 12.124V12.064C55.9633 12.04 55.9633 12.016 55.9633 11.992C55.9633 11.96 55.9513 11.94 55.9273 11.932C55.9273 11.932 55.9153 11.932 55.8913 11.932C55.8753 11.924 55.8633 11.92 55.8553 11.92C55.7593 12.008 55.6993 12.132 55.6753 12.292C55.6673 12.332 55.6633 12.376 55.6633 12.424C55.6633 12.464 55.6633 12.504 55.6633 12.544V15.424C55.6633 15.48 55.6633 15.54 55.6633 15.604C55.6713 15.668 55.6673 15.728 55.6513 15.784C55.6433 15.808 55.6313 15.832 55.6153 15.856C55.5993 15.88 55.5833 15.9 55.5673 15.916C55.5593 15.916 55.5553 15.92 55.5553 15.928C55.5553 15.928 55.5513 15.928 55.5433 15.928C55.5433 15.928 55.5353 15.936 55.5193 15.952C55.5113 15.976 55.5033 16 55.4953 16.024C55.4953 16.048 55.4873 16.072 55.4713 16.096C55.4713 16.104 55.4673 16.108 55.4593 16.108C55.4513 16.116 55.4433 16.116 55.4353 16.108C55.4273 16.1 55.4193 16.084 55.4113 16.06C55.4113 16.044 55.4073 16.032 55.3993 16.024C55.3833 16.04 55.3673 16.052 55.3513 16.06C55.3433 16.076 55.3393 16.096 55.3393 16.12C55.3473 16.144 55.3473 16.164 55.3393 16.18C55.3233 16.228 55.3073 16.26 55.2913 16.276C55.2833 16.284 55.2673 16.28 55.2433 16.264C55.2273 16.224 55.2273 16.208 55.2433 16.216C55.2593 16.232 55.2433 16.216 55.1953 16.168C55.1873 16.16 55.1833 16.152 55.1833 16.144C55.1593 16.16 55.1393 16.176 55.1233 16.192C55.1073 16.216 55.0873 16.236 55.0633 16.252C55.0553 16.26 55.0473 16.268 55.0393 16.276C55.0313 16.292 55.0073 16.308 54.9673 16.324H54.9553C54.9313 16.332 54.8953 16.336 54.8473 16.336C54.8153 16.336 54.7833 16.328 54.7513 16.312C54.7273 16.304 54.6993 16.296 54.6673 16.288C54.6273 16.264 54.5833 16.236 54.5353 16.204C54.4953 16.172 54.4633 16.148 54.4393 16.132C54.3833 16.1 54.3593 16.084 54.3673 16.084C54.3673 16.084 54.3593 16.08 54.3433 16.072C54.3273 16.08 54.3113 16.076 54.2953 16.06C54.2793 16.052 54.2633 16.048 54.2473 16.048C54.2393 16.056 54.2273 16.068 54.2113 16.084C54.2033 16.1 54.1913 16.116 54.1753 16.132C54.1673 16.14 54.1593 16.148 54.1513 16.156C54.1433 16.164 54.1313 16.172 54.1153 16.18C54.1073 16.18 54.1033 16.18 54.1033 16.18C54.1033 16.188 54.1033 16.192 54.1033 16.192C54.0953 16.192 54.0913 16.196 54.0913 16.204C54.0833 16.204 54.0753 16.204 54.0673 16.204C54.0673 16.212 54.0673 16.216 54.0673 16.216C54.0593 16.224 54.0513 16.248 54.0433 16.288C54.0353 16.336 54.0113 16.36 53.9713 16.36C53.9633 16.36 53.9433 16.348 53.9113 16.324C53.8873 16.308 53.8713 16.3 53.8633 16.3C53.8473 16.284 53.8353 16.276 53.8273 16.276C53.7953 16.26 53.7633 16.24 53.7313 16.216C53.7073 16.192 53.6873 16.168 53.6713 16.144C53.6713 16.136 53.6673 16.132 53.6593 16.132C53.6593 16.132 53.6593 16.128 53.6593 16.12C53.6513 16.152 53.6473 16.184 53.6473 16.216C53.6473 16.248 53.6393 16.28 53.6233 16.312C53.6233 16.32 53.6193 16.32 53.6113 16.312C53.6033 16.312 53.5953 16.316 53.5873 16.324C53.5553 16.324 53.5393 16.328 53.5393 16.336C53.5313 16.304 53.5233 16.272 53.5153 16.24C53.5153 16.208 53.5113 16.176 53.5033 16.144C53.4953 16.16 53.4753 16.184 53.4433 16.216C53.4353 16.224 53.4273 16.228 53.4193 16.228C53.4113 16.236 53.4033 16.244 53.3953 16.252C53.3873 16.308 53.3793 16.36 53.3713 16.408C53.3713 16.464 53.3633 16.524 53.3473 16.588C53.3393 16.604 53.3313 16.628 53.3233 16.66C53.3233 16.7 53.3153 16.716 53.2993 16.708C53.2673 16.692 53.2513 16.664 53.2513 16.624C53.2593 16.592 53.2593 16.564 53.2513 16.54C53.2433 16.476 53.2393 16.416 53.2393 16.36C53.2393 16.312 53.2313 16.26 53.2153 16.204C53.1993 16.188 53.1793 16.168 53.1553 16.144C53.1393 16.12 53.1233 16.096 53.1073 16.072C53.0913 16.056 53.0793 16.04 53.0713 16.024C53.0393 16.008 53.0153 16 52.9993 16C52.9913 16 52.9833 16 52.9753 16C52.9753 15.992 52.9673 15.988 52.9513 15.988C52.8873 15.964 52.8353 15.924 52.7953 15.868C52.7793 15.852 52.7633 15.82 52.7473 15.772C52.7313 15.716 52.7233 15.652 52.7233 15.58C52.7313 15.508 52.7353 15.444 52.7353 15.388V10.192C52.7273 10.168 52.7233 10.148 52.7233 10.132C52.7313 10.108 52.7353 10.084 52.7353 10.06C52.7433 9.972 52.7793 9.9 52.8433 9.844C52.9073 9.788 52.9833 9.76 53.0713 9.76C53.1353 9.752 53.1993 9.752 53.2633 9.76C53.3353 9.76 53.3993 9.76 53.4553 9.76H54.7273C54.7673 9.76 54.8313 9.76 54.9193 9.76C55.0073 9.752 55.0873 9.752 55.1593 9.76C55.2073 9.76 55.2633 9.776 55.3273 9.808C55.3993 9.848 55.4473 9.908 55.4713 9.988C55.4873 10.036 55.4913 10.088 55.4833 10.144C55.4833 10.2 55.4833 10.252 55.4833 10.3L55.5073 10.444L55.5793 10.372C55.6273 10.324 55.6793 10.28 55.7353 10.24C55.7913 10.192 55.8473 10.148 55.9033 10.108L56.0113 10.036H56.0233C56.1033 9.98 56.1833 9.936 56.2633 9.904C56.3113 9.856 56.3953 9.82 56.5153 9.796C56.5313 9.788 56.5513 9.784 56.5753 9.784C56.8553 9.688 57.1553 9.64 57.4753 9.64C57.8433 9.64 58.1913 9.72 58.5193 9.88C58.8473 10.032 59.1233 10.276 59.3473 10.612C59.5793 10.94 59.7233 11.364 59.7793 11.884C59.7873 11.916 59.7913 11.948 59.7913 11.98C59.7913 12.004 59.7913 12.032 59.7913 12.064C59.7993 12.12 59.8033 12.176 59.8033 12.232C59.8033 12.288 59.8033 12.344 59.8033 12.4V14.956ZM67.6853 15.64C67.6853 15.664 67.6813 15.688 67.6733 15.712C67.6733 15.736 67.6693 15.76 67.6613 15.784C67.6453 15.816 67.6333 15.836 67.6253 15.844C67.5933 15.892 67.5653 15.924 67.5413 15.94C67.5253 15.948 67.5013 15.968 67.4693 16C67.4533 16.016 67.4413 16.032 67.4333 16.048C67.4013 16.08 67.3733 16.116 67.3493 16.156C67.3253 16.196 67.2933 16.232 67.2533 16.264L67.2173 16.3C67.1853 16.396 67.1653 16.5 67.1573 16.612C67.1573 16.732 67.1293 16.836 67.0733 16.924C67.0493 16.972 67.0173 16.96 66.9773 16.888C66.9613 16.848 66.9453 16.792 66.9293 16.72C66.9133 16.656 66.8973 16.608 66.8813 16.576C66.8733 16.544 66.8693 16.508 66.8693 16.468C66.8693 16.436 66.8533 16.412 66.8213 16.396C66.8133 16.388 66.8013 16.384 66.7853 16.384C66.7613 16.384 66.7333 16.376 66.7013 16.36C66.7013 16.368 66.7133 16.392 66.7373 16.432C66.7613 16.472 66.7773 16.504 66.7853 16.528C66.8013 16.56 66.7813 16.564 66.7253 16.54C66.7013 16.524 66.6813 16.488 66.6653 16.432C66.6573 16.376 66.6533 16.34 66.6533 16.324C66.6213 16.292 66.5973 16.264 66.5813 16.24C66.5733 16.224 66.5613 16.204 66.5453 16.18C66.5293 16.164 66.5133 16.144 66.4973 16.12C66.4813 16.208 66.4733 16.296 66.4733 16.384C66.4733 16.472 66.4653 16.56 66.4492 16.648C66.4492 16.656 66.4333 16.66 66.4013 16.66C66.3693 16.668 66.3373 16.672 66.3053 16.672C66.2733 16.672 66.2413 16.668 66.2093 16.66C66.1053 16.636 65.9973 16.604 65.8853 16.564C65.7813 16.532 65.6853 16.48 65.5973 16.408C65.4773 16.328 65.3613 16.236 65.2493 16.132L65.1773 16.024C65.1693 16.016 65.1613 16.008 65.1533 16C65.1453 15.992 65.1333 15.972 65.1173 15.94V15.928C65.0613 15.888 65.0253 15.848 65.0093 15.808C65.0013 15.768 64.9933 15.728 64.9853 15.688V15.4C64.9773 15.408 64.9693 15.416 64.9613 15.424C64.9533 15.432 64.9413 15.444 64.9253 15.46C64.9253 15.468 64.9213 15.476 64.9133 15.484C64.9053 15.492 64.9013 15.496 64.9013 15.496C64.8933 15.504 64.8853 15.512 64.8773 15.52C64.8693 15.52 64.8613 15.524 64.8533 15.532C64.8373 15.556 64.8173 15.58 64.7933 15.604C64.7693 15.62 64.7453 15.636 64.7213 15.652L64.6853 15.784C64.6853 15.792 64.6813 15.8 64.6733 15.808C64.6733 15.808 64.6733 15.816 64.6733 15.832V15.844L64.6013 16.036C64.5773 16.092 64.5533 16.148 64.5293 16.204C64.5053 16.26 64.4773 16.308 64.4453 16.348C64.4213 16.388 64.3933 16.412 64.3613 16.42C64.3533 16.436 64.3413 16.464 64.3253 16.504C64.3173 16.544 64.2933 16.56 64.2533 16.552C64.2213 16.536 64.1933 16.508 64.1693 16.468C64.1533 16.428 64.1253 16.408 64.0853 16.408C64.0773 16.416 64.0613 16.428 64.0373 16.444C64.0213 16.46 64.0093 16.472 64.0013 16.48C63.9933 16.488 63.9733 16.512 63.9413 16.552C63.9093 16.592 63.8813 16.628 63.8573 16.66C63.8493 16.668 63.8413 16.672 63.8333 16.672C63.8253 16.68 63.8133 16.688 63.7973 16.696C63.7893 16.8 63.8013 16.928 63.8333 17.08C63.8653 17.24 63.8813 17.376 63.8813 17.488C63.8893 17.608 63.8413 17.66 63.7373 17.644C63.6333 17.62 63.5813 17.552 63.5813 17.44C63.5893 17.328 63.6093 17.2 63.6413 17.056C63.6813 16.912 63.6973 16.788 63.6893 16.684L63.6533 16.648C63.6533 16.648 63.6493 16.648 63.6413 16.648C63.6413 16.648 63.6413 16.644 63.6413 16.636C63.6333 16.636 63.6173 16.624 63.5933 16.6C63.5773 16.584 63.5653 16.572 63.5573 16.564L63.3053 16.24C63.2973 16.232 63.2933 16.224 63.2933 16.216C63.2933 16.216 63.2893 16.212 63.2812 16.204C63.2573 16.244 63.2493 16.276 63.2573 16.3C63.2653 16.324 63.2493 16.264 63.2093 16.12H63.0773C63.0373 16.12 63.0093 16.116 62.9933 16.108C62.5933 16.084 62.2413 15.996 61.9373 15.844C61.9053 15.828 61.8733 15.812 61.8413 15.796C61.8173 15.78 61.7933 15.76 61.7693 15.736C61.4493 15.528 61.1893 15.232 60.9893 14.848C60.7973 14.456 60.6893 13.956 60.6653 13.348C60.6573 13.228 60.6533 13.12 60.6533 13.024C60.6533 12.928 60.6533 12.828 60.6533 12.724V12.652C60.6533 12.628 60.6573 12.608 60.6653 12.592V12.4C60.6813 11.88 60.7733 11.436 60.9413 11.068C61.1093 10.692 61.3293 10.392 61.6013 10.168C61.6413 10.128 61.6853 10.096 61.7333 10.072C62.1413 9.784 62.6333 9.64 63.2093 9.64C63.2573 9.64 63.3053 9.64 63.3533 9.64C63.4093 9.64 63.4573 9.644 63.4973 9.652C63.5613 9.652 63.6213 9.656 63.6773 9.664C63.7413 9.672 63.8013 9.684 63.8573 9.7C63.8733 9.708 63.8933 9.716 63.9173 9.724C63.9413 9.724 63.9653 9.732 63.9893 9.748C64.1893 9.804 64.3733 9.888 64.5413 10L64.6133 10.048C64.6453 10.064 64.6693 10.084 64.6853 10.108C64.7093 10.124 64.7333 10.14 64.7573 10.156C64.7573 10.164 64.7573 10.168 64.7573 10.168C64.7653 10.168 64.7693 10.168 64.7693 10.168C64.7693 10.168 64.7693 10.172 64.7693 10.18C64.7693 10.18 64.7733 10.18 64.7813 10.18C64.7813 10.26 64.7813 10.296 64.7813 10.288C64.7893 10.28 64.7933 10.256 64.7933 10.216C64.8013 10.176 64.8053 10.156 64.8053 10.156V8.224C64.7973 8.144 64.7893 8.06 64.7813 7.972C64.7813 7.884 64.7893 7.804 64.8053 7.732C64.8293 7.644 64.8733 7.584 64.9373 7.552C64.9853 7.504 65.0493 7.48 65.1293 7.48H66.7373C66.8013 7.48 66.8933 7.48 67.0133 7.48C67.1333 7.472 67.2453 7.472 67.3493 7.48C67.4213 7.48 67.4733 7.496 67.5053 7.528C67.5373 7.544 67.5573 7.556 67.5653 7.564C67.6373 7.62 67.6733 7.704 67.6733 7.816V15.088C67.6733 15.168 67.6773 15.26 67.6853 15.364C67.6933 15.46 67.6933 15.552 67.6853 15.64ZM64.5053 13.912C64.5773 13.872 64.6333 13.824 64.6733 13.768C64.7133 13.704 64.7453 13.632 64.7693 13.552C64.7933 13.44 64.8053 13.328 64.8053 13.216C64.8053 13.2 64.8053 13.184 64.8053 13.168C64.8133 13.144 64.8173 13.124 64.8173 13.108V12.856C64.8253 12.792 64.8253 12.724 64.8173 12.652C64.8173 12.572 64.8133 12.468 64.8053 12.34C64.7973 12.324 64.7933 12.304 64.7933 12.28L64.7573 12.124C64.7493 12.108 64.7413 12.092 64.7333 12.076C64.7253 12.052 64.7173 12.032 64.7093 12.016L64.6493 11.944L64.6253 11.92C64.6093 11.912 64.5933 11.9 64.5773 11.884C64.5533 11.876 64.5213 11.872 64.4813 11.872H64.4093C64.3533 11.872 64.2933 11.876 64.2293 11.884C64.1733 11.884 64.1133 11.884 64.0493 11.884C64.0253 11.884 63.9973 11.884 63.9653 11.884C63.9333 11.876 63.9013 11.876 63.8693 11.884C63.8053 11.924 63.7573 11.976 63.7253 12.04C63.7173 12.04 63.7133 12.044 63.7133 12.052C63.7133 12.052 63.7053 12.068 63.6893 12.1C63.6813 12.124 63.6733 12.148 63.6653 12.172C63.6573 12.196 63.6493 12.22 63.6413 12.244C63.6413 12.26 63.6373 12.28 63.6293 12.304C63.6293 12.32 63.6293 12.336 63.6293 12.352C63.6213 12.384 63.6133 12.416 63.6053 12.448C63.6053 12.48 63.6053 12.512 63.6053 12.544C63.6053 12.568 63.6013 12.592 63.5933 12.616C63.5933 12.64 63.5933 12.664 63.5933 12.688C63.5853 12.784 63.5813 12.884 63.5813 12.988C63.5893 13.092 63.5973 13.192 63.6053 13.288C63.6053 13.304 63.6053 13.32 63.6053 13.336C63.6133 13.352 63.6173 13.368 63.6173 13.384L63.6413 13.48C63.6573 13.552 63.6773 13.624 63.7013 13.696C63.7333 13.76 63.7773 13.816 63.8333 13.864L63.8933 13.9C63.9733 13.948 64.0533 13.972 64.1333 13.972C64.2133 13.972 64.2733 13.968 64.3133 13.96C64.3533 13.96 64.3853 13.956 64.4093 13.948C64.4413 13.932 64.4733 13.92 64.5053 13.912ZM71.4548 13.6C71.4628 13.656 71.4628 13.716 71.4548 13.78C71.4548 13.836 71.4548 13.892 71.4548 13.948V15.736C71.4548 15.736 71.4508 15.752 71.4428 15.784C71.4348 15.808 71.4268 15.82 71.4188 15.82C71.4188 15.828 71.4148 15.836 71.4068 15.844C71.4068 15.852 71.3988 15.864 71.3828 15.88C71.3748 15.888 71.3668 15.896 71.3588 15.904C71.3508 15.912 71.3428 15.92 71.3348 15.928C71.2708 15.992 71.2388 16.02 71.2388 16.012C71.2468 16.004 71.2668 15.984 71.2988 15.952C71.2908 15.96 71.2748 15.976 71.2508 16C71.2268 16.016 71.2188 16.02 71.2268 16.012C71.2188 16.02 71.2188 16.02 71.2268 16.012C71.2428 16.012 71.2268 16.032 71.1788 16.072C71.1708 16.08 71.1628 16.088 71.1548 16.096C71.1548 16.112 71.1468 16.116 71.1308 16.108C71.0988 16.14 71.0708 16.168 71.0468 16.192C71.0228 16.224 70.9988 16.256 70.9748 16.288C70.9668 16.296 70.9548 16.308 70.9388 16.324C70.9228 16.34 70.9068 16.352 70.8908 16.36C70.8748 16.368 70.8588 16.38 70.8428 16.396C70.8348 16.5 70.8348 16.608 70.8428 16.72C70.8508 16.832 70.8348 16.936 70.7948 17.032C70.7788 17.072 70.7668 17.064 70.7588 17.008C70.7588 16.96 70.7588 16.892 70.7588 16.804C70.7668 16.716 70.7628 16.652 70.7468 16.612C70.7468 16.596 70.7428 16.596 70.7348 16.612C70.7268 16.628 70.7148 16.636 70.6988 16.636C70.6908 16.636 70.6788 16.628 70.6628 16.612C70.6468 16.596 70.6308 16.572 70.6148 16.54C70.6068 16.524 70.5988 16.5 70.5908 16.468C70.5828 16.444 70.5748 16.44 70.5668 16.456C70.5428 16.488 70.5308 16.516 70.5308 16.54C70.5228 16.516 70.5148 16.484 70.5068 16.444C70.4988 16.412 70.4868 16.372 70.4708 16.324L70.4108 16.396L70.3748 16.432C70.3588 16.44 70.3428 16.452 70.3268 16.468C70.3188 16.484 70.3108 16.504 70.3028 16.528C70.3028 16.552 70.2948 16.56 70.2788 16.552C70.2548 16.536 70.2428 16.512 70.2428 16.48C70.2508 16.456 70.2468 16.432 70.2308 16.408C70.1988 16.368 70.1748 16.324 70.1588 16.276C70.1428 16.228 70.1268 16.184 70.1108 16.144C70.0948 16.144 70.0868 16.148 70.0868 16.156C70.0708 16.268 70.0628 16.38 70.0628 16.492C70.0628 16.604 70.0548 16.716 70.0388 16.828C70.0388 16.836 70.0308 16.84 70.0148 16.84C69.9988 16.848 69.9908 16.848 69.9908 16.84C69.9748 16.736 69.9668 16.632 69.9668 16.528C69.9748 16.424 69.9708 16.32 69.9548 16.216C69.9228 16.248 69.9028 16.264 69.8948 16.264C69.8948 16.264 69.8868 16.264 69.8708 16.264C69.8468 16.288 69.8188 16.3 69.7868 16.3C69.7548 16.308 69.7348 16.3 69.7268 16.276C69.7268 16.252 69.7188 16.224 69.7028 16.192L69.6188 16.12H69.5948C69.5948 16.176 69.5828 16.212 69.5588 16.228C69.5588 16.228 69.5468 16.208 69.5228 16.168C69.5148 16.224 69.5188 16.296 69.5348 16.384C69.5588 16.472 69.5388 16.52 69.4748 16.528C69.4348 16.528 69.4188 16.496 69.4268 16.432C69.4428 16.376 69.4548 16.316 69.4628 16.252C69.4788 16.188 69.4668 16.152 69.4268 16.144C69.3868 16.136 69.3708 16.164 69.3788 16.228C69.3948 16.292 69.4068 16.356 69.4148 16.42C69.4308 16.484 69.4188 16.508 69.3788 16.492C69.3228 16.468 69.3068 16.412 69.3308 16.324C69.3628 16.236 69.3628 16.164 69.3308 16.108C69.3148 16.068 69.3068 16.084 69.3068 16.156C69.3068 16.236 69.2988 16.292 69.2828 16.324C69.2748 16.332 69.2668 16.32 69.2588 16.288C69.2508 16.264 69.2428 16.244 69.2348 16.228C69.1868 16.164 69.1348 16.116 69.0788 16.084C69.0308 16.052 68.9828 16.02 68.9348 15.988C68.9188 15.98 68.9028 15.972 68.8868 15.964C68.8708 15.948 68.8548 15.936 68.8388 15.928C68.7588 15.864 68.7188 15.78 68.7188 15.676V13.792C68.7188 13.728 68.7188 13.66 68.7188 13.588C68.7188 13.516 68.7388 13.452 68.7788 13.396L68.8508 13.324C68.9068 13.284 68.9708 13.264 69.0428 13.264H70.4468C70.5108 13.264 70.5708 13.264 70.6268 13.264C70.6828 13.256 70.7308 13.252 70.7708 13.252C70.7948 13.252 70.8508 13.252 70.9388 13.252C71.0348 13.244 71.1188 13.248 71.1908 13.264C71.3188 13.296 71.4028 13.372 71.4428 13.492C71.4508 13.516 71.4548 13.552 71.4548 13.6ZM79.8971 14.764L79.8251 14.836C79.8091 14.86 79.7891 14.884 79.7651 14.908C79.7491 14.932 79.7291 14.952 79.7051 14.968C79.6971 14.984 79.6771 15.008 79.6451 15.04C79.6291 15.056 79.6171 15.064 79.6091 15.064L79.5011 15.172C79.4691 15.204 79.4491 15.228 79.4411 15.244C79.4251 15.308 79.4091 15.376 79.3931 15.448C79.3771 15.52 79.3611 15.588 79.3451 15.652C79.3291 15.716 79.3131 15.78 79.2971 15.844C79.2811 15.908 79.2651 15.972 79.2491 16.036L79.1051 16.552C79.0971 16.584 79.0851 16.62 79.0691 16.66C79.0611 16.7 79.0491 16.74 79.0331 16.78C79.0091 16.86 78.9731 16.936 78.9251 17.008L78.8891 17.044C78.8811 17.052 78.8731 17.06 78.8651 17.068C78.8571 17.076 78.8491 17.084 78.8411 17.092C78.8331 17.116 78.8251 17.14 78.8171 17.164C78.8091 17.196 78.7971 17.224 78.7811 17.248C78.7651 17.264 78.7451 17.264 78.7211 17.248C78.6651 17.208 78.6411 17.18 78.6491 17.164C78.6571 17.148 78.6691 17.14 78.6851 17.14C78.7011 17.148 78.6931 17.16 78.6611 17.176L78.6131 17.2C78.6051 17.208 78.5971 17.216 78.5891 17.224C78.5891 17.232 78.5891 17.236 78.5891 17.236C78.5651 17.268 78.5411 17.3 78.5171 17.332C78.5011 17.372 78.4811 17.408 78.4571 17.44C78.4491 17.448 78.4371 17.46 78.4211 17.476C78.4051 17.492 78.3851 17.5 78.3611 17.5C78.3371 17.5 78.3171 17.488 78.3011 17.464L78.2771 17.44C78.2611 17.408 78.2451 17.376 78.2291 17.344C78.2211 17.312 78.2091 17.28 78.1931 17.248C78.1931 17.24 78.1891 17.232 78.1811 17.224C78.1811 17.224 78.1811 17.22 78.1811 17.212C78.1251 17.06 78.0651 16.908 78.0011 16.756C77.9451 16.612 77.8811 16.468 77.8091 16.324C77.7931 16.292 77.7811 16.272 77.7731 16.264C77.7651 16.264 77.7571 16.26 77.7491 16.252C77.7411 16.252 77.7291 16.252 77.7131 16.252C77.6811 16.252 77.6651 16.252 77.6651 16.252C77.6571 16.356 77.6691 16.484 77.7011 16.636C77.7411 16.788 77.7611 16.92 77.7611 17.032C77.7691 17.144 77.7211 17.196 77.6171 17.188C77.5211 17.18 77.4731 17.12 77.4731 17.008C77.4731 16.904 77.4891 16.78 77.5211 16.636C77.5611 16.5 77.5771 16.38 77.5691 16.276C77.5611 16.324 77.5451 16.368 77.5211 16.408C77.4971 16.448 77.4771 16.488 77.4611 16.528L77.3771 16.672C77.3691 16.68 77.3571 16.688 77.3411 16.696C77.3331 16.712 77.3211 16.728 77.3051 16.744L77.2931 16.756C77.2611 16.772 77.2451 16.78 77.2451 16.78C77.2371 16.86 77.2331 16.944 77.2331 17.032C77.2411 17.12 77.2451 17.208 77.2451 17.296C77.2291 17.168 77.1931 17.1 77.1371 17.092C77.0891 17.076 77.0571 17.1 77.0411 17.164C77.0411 17.084 77.0411 17.004 77.0411 16.924C77.0491 16.852 77.0491 16.78 77.0411 16.708C77.0331 16.708 77.0211 16.704 77.0051 16.696C76.9971 16.688 76.9971 16.684 77.0051 16.684L76.9571 16.636L76.8131 16.48C76.7651 16.44 76.7171 16.4 76.6691 16.36C76.6291 16.32 76.5771 16.272 76.5131 16.216C76.4491 16.168 76.4211 16.144 76.4291 16.144C76.4451 16.152 76.4571 16.156 76.4651 16.156C76.4731 16.164 76.4411 16.152 76.3691 16.12C76.3531 16.136 76.3451 16.164 76.3451 16.204C76.3531 16.244 76.3571 16.264 76.3571 16.264C76.3571 16.264 76.3411 16.216 76.3091 16.12C75.5331 16.104 74.8451 15.976 74.2451 15.736C73.6531 15.488 73.1931 15.1 72.8651 14.572C72.7291 14.348 72.6251 14.112 72.5531 13.864C72.5291 13.816 72.5051 13.756 72.4811 13.684C72.4811 13.668 72.4771 13.656 72.4691 13.648C72.4691 13.64 72.4691 13.632 72.4691 13.624C72.4371 13.504 72.4131 13.348 72.3971 13.156C72.3811 12.956 72.3731 12.76 72.3731 12.568C72.3731 12.368 72.3731 12.208 72.3731 12.088C72.3731 11.976 72.3691 11.824 72.3611 11.632C72.3611 11.432 72.3651 11.228 72.3731 11.02C72.3811 10.812 72.3931 10.636 72.4091 10.492C72.4171 10.452 72.4211 10.42 72.4211 10.396C72.4211 10.364 72.4251 10.332 72.4331 10.3C72.4331 10.292 72.4331 10.288 72.4331 10.288C72.4411 10.28 72.4451 10.272 72.4451 10.264C72.4851 10.008 72.5451 9.772 72.6251 9.556C72.7131 9.332 72.8211 9.128 72.9491 8.944C72.9971 8.856 73.0691 8.764 73.1651 8.668C73.5251 8.268 73.9851 7.972 74.5451 7.78C75.1051 7.58 75.7291 7.48 76.4171 7.48H76.7051C76.7291 7.48 76.7491 7.484 76.7651 7.492C77.4211 7.524 78.0371 7.66 78.6131 7.9C79.1891 8.132 79.6451 8.484 79.9811 8.956C80.0451 9.028 80.0971 9.108 80.1371 9.196C80.1851 9.284 80.2251 9.376 80.2571 9.472C80.3131 9.6 80.3571 9.736 80.3891 9.88C80.4211 10.024 80.4411 10.168 80.4491 10.312C80.4491 10.32 80.4491 10.34 80.4491 10.372C80.4571 10.396 80.4611 10.408 80.4611 10.408V10.42C80.4611 10.452 80.4611 10.484 80.4611 10.516C80.4691 10.54 80.4691 10.568 80.4611 10.6C80.4531 10.608 80.4491 10.62 80.4491 10.636C80.4491 10.644 80.4451 10.656 80.4371 10.672C80.4211 10.688 80.4091 10.704 80.4011 10.72L80.3891 10.732C80.3731 10.756 80.3491 10.784 80.3171 10.816C80.2931 10.84 80.2771 10.86 80.2691 10.876C80.2691 10.892 80.2611 10.9 80.2451 10.9C80.2371 10.9 80.2291 10.892 80.2211 10.876C80.2211 10.86 80.2131 10.848 80.1971 10.84C80.2051 10.832 80.2011 10.836 80.1851 10.852C80.1691 10.86 80.1571 10.864 80.1491 10.864C80.0851 10.88 80.0371 10.904 80.0051 10.936C79.9571 10.968 79.9171 11.008 79.8851 11.056C79.8531 11.104 79.8171 11.148 79.7771 11.188C79.7611 11.204 79.7411 11.224 79.7171 11.248C79.7011 11.272 79.6811 11.292 79.6571 11.308C79.6091 11.316 79.5851 11.296 79.5851 11.248C79.5851 11.2 79.5651 11.188 79.5251 11.212C79.5171 11.212 79.4971 11.224 79.4651 11.248C79.4411 11.272 79.4291 11.284 79.4291 11.284C79.3811 11.324 79.3291 11.368 79.2731 11.416C79.2171 11.456 79.1531 11.48 79.0811 11.488C79.0411 11.488 79.0011 11.48 78.9611 11.464C78.9291 11.448 78.8931 11.436 78.8531 11.428C78.7891 11.396 78.7251 11.364 78.6611 11.332C78.5971 11.3 78.5331 11.276 78.4691 11.26C78.3971 11.236 78.3211 11.22 78.2411 11.212C78.1691 11.196 78.1011 11.168 78.0371 11.128C77.9891 11.096 77.9411 11.064 77.8931 11.032C77.8451 10.992 77.7971 10.956 77.7491 10.924C77.7411 10.916 77.7331 10.912 77.7251 10.912C77.7171 10.904 77.7051 10.896 77.6891 10.888C77.6651 10.864 77.6491 10.852 77.6411 10.852C77.6411 10.852 77.6371 10.86 77.6291 10.876C77.6291 10.884 77.6291 10.896 77.6291 10.912C77.6211 10.92 77.6171 10.932 77.6171 10.948C77.6171 10.956 77.6091 10.964 77.5931 10.972C77.5771 10.988 77.5691 10.98 77.5691 10.948C77.5611 10.94 77.5571 10.932 77.5571 10.924C77.5571 10.916 77.5531 10.908 77.5451 10.9C77.5211 10.876 77.5091 10.852 77.5091 10.828C77.4931 10.804 77.4771 10.776 77.4611 10.744C77.4211 10.704 77.3891 10.66 77.3651 10.612C77.3171 10.516 77.2771 10.424 77.2451 10.336C77.2131 10.24 77.1571 10.152 77.0771 10.072C77.0691 10.056 77.0611 10.044 77.0531 10.036C77.0451 10.028 77.0371 10.02 77.0291 10.012C77.0211 10.012 77.0131 10.012 77.0051 10.012C77.0051 10.004 77.0051 10 77.0051 10C76.9891 9.984 76.9771 9.976 76.9691 9.976C76.9691 9.976 76.9571 9.976 76.9331 9.976C76.9011 9.976 76.8771 9.972 76.8611 9.964C76.8371 9.964 76.8171 9.968 76.8011 9.976C76.7931 9.976 76.7851 9.984 76.7771 10C76.7691 10.008 76.7571 10.008 76.7411 10C76.7331 10 76.7291 9.992 76.7291 9.976C76.6731 10.008 76.6291 10.056 76.5971 10.12C76.5651 10.184 76.5331 10.24 76.5011 10.288C76.4851 10.32 76.4651 10.36 76.4411 10.408C76.4171 10.448 76.3851 10.476 76.3451 10.492C76.3371 10.5 76.3251 10.508 76.3091 10.516C76.3011 10.524 76.2971 10.524 76.2971 10.516C76.2811 10.428 76.2731 10.344 76.2731 10.264C76.2811 10.176 76.2771 10.092 76.2611 10.012C76.2371 10.044 76.2131 10.076 76.1891 10.108C76.1731 10.14 76.1531 10.172 76.1291 10.204C76.1211 10.212 76.1011 10.228 76.0691 10.252C76.0451 10.276 76.0251 10.284 76.0091 10.276C75.9931 10.276 75.9771 10.268 75.9611 10.252C75.9291 10.236 75.9051 10.212 75.8891 10.18C75.8731 10.14 75.8571 10.108 75.8411 10.084C75.8331 10.068 75.8291 10.052 75.8291 10.036C75.8291 10.02 75.8211 10.008 75.8051 10L75.7691 10.036C75.7451 10.06 75.7171 10.096 75.6851 10.144C75.6851 10.152 75.6811 10.156 75.6731 10.156C75.6731 10.156 75.6731 10.16 75.6731 10.168C75.6731 10.176 75.6691 10.18 75.6611 10.18C75.6611 10.18 75.6611 10.184 75.6611 10.192C75.6291 10.24 75.6011 10.304 75.5771 10.384C75.5451 10.488 75.5251 10.588 75.5171 10.684V10.9C75.5091 11.012 75.5051 11.128 75.5051 11.248C75.5051 11.36 75.5051 11.472 75.5051 11.584V12.34C75.5051 12.42 75.5051 12.5 75.5051 12.58C75.5131 12.652 75.5171 12.728 75.5171 12.808C75.5171 12.84 75.5171 12.876 75.5171 12.916C75.5251 12.948 75.5291 12.984 75.5291 13.024C75.5371 13.032 75.5411 13.044 75.5411 13.06C75.5411 13.076 75.5451 13.092 75.5531 13.108C75.5531 13.132 75.5571 13.148 75.5651 13.156C75.5731 13.188 75.5811 13.22 75.5891 13.252C75.6051 13.276 75.6171 13.304 75.6251 13.336C75.6971 13.44 75.8091 13.524 75.9611 13.588C76.1211 13.644 76.2891 13.676 76.4651 13.684C76.6491 13.692 76.8091 13.664 76.9451 13.6C76.9851 13.576 77.0251 13.548 77.0651 13.516C77.1051 13.484 77.1411 13.448 77.1731 13.408C77.2051 13.368 77.2331 13.316 77.2571 13.252C77.2731 13.212 77.2851 13.176 77.2931 13.144C77.3091 13.112 77.3211 13.08 77.3291 13.048C77.3451 13.008 77.3611 12.972 77.3771 12.94C77.4011 12.908 77.4371 12.872 77.4851 12.832C77.5011 12.824 77.5131 12.82 77.5211 12.82C77.5291 12.82 77.5371 12.816 77.5451 12.808C77.5851 12.792 77.6251 12.784 77.6651 12.784C77.7131 12.776 77.7611 12.772 77.8091 12.772C77.8571 12.772 77.9051 12.776 77.9531 12.784C78.0011 12.784 78.0451 12.784 78.0851 12.784H79.8491C79.8651 12.784 79.9131 12.784 79.9931 12.784C80.0731 12.776 80.1411 12.776 80.1971 12.784C80.2691 12.784 80.3291 12.808 80.3771 12.856C80.4251 12.904 80.4531 12.952 80.4611 13C80.4691 13.024 80.4731 13.052 80.4731 13.084C80.4731 13.108 80.4731 13.136 80.4731 13.168L80.4371 13.444C80.3811 13.836 80.2571 14.192 80.0651 14.512C80.0251 14.592 79.9691 14.676 79.8971 14.764ZM77.0531 17.668C77.0451 17.58 77.0371 17.488 77.0291 17.392C77.0211 17.296 77.0251 17.22 77.0411 17.164C77.0411 17.244 77.0411 17.324 77.0411 17.404C77.0411 17.492 77.0451 17.58 77.0531 17.668ZM77.1851 17.908C77.1691 17.964 77.1651 17.968 77.1731 17.92C77.1811 17.872 77.1931 17.8 77.2091 17.704C77.2331 17.608 77.2451 17.512 77.2451 17.416C77.2451 17.496 77.2411 17.576 77.2331 17.656C77.2251 17.744 77.2091 17.828 77.1851 17.908ZM77.0531 17.668C77.0611 17.708 77.0651 17.748 77.0651 17.788C77.0731 17.828 77.0811 17.86 77.0891 17.884C77.0651 17.812 77.0531 17.74 77.0531 17.668ZM87.5819 14.188C87.5579 14.524 87.4499 14.824 87.2579 15.088C87.2499 15.104 87.2379 15.12 87.2219 15.136C87.2059 15.152 87.1899 15.168 87.1739 15.184C87.1419 15.216 87.1059 15.252 87.0659 15.292C87.0259 15.332 86.9819 15.372 86.9339 15.412C86.8939 15.468 86.8539 15.528 86.8139 15.592C86.7819 15.656 86.7419 15.716 86.6939 15.772C86.6619 15.804 86.6379 15.812 86.6219 15.796C86.5579 15.94 86.4939 16.064 86.4299 16.168C86.4139 16.2 86.3939 16.228 86.3699 16.252C86.3459 16.284 86.3219 16.316 86.2979 16.348C86.2659 16.38 86.2499 16.392 86.2499 16.384C86.2419 16.32 86.2379 16.252 86.2379 16.18C86.2379 16.116 86.2339 16.052 86.2259 15.988C86.2019 16.004 86.1819 16.024 86.1659 16.048C86.1579 16.056 86.1499 16.06 86.1419 16.06C86.1339 16.068 86.1259 16.08 86.1179 16.096C86.1099 16.176 86.1019 16.26 86.0939 16.348C86.0859 16.436 86.0739 16.524 86.0579 16.612C86.0499 16.652 86.0419 16.712 86.0339 16.792C86.0259 16.872 86.0139 16.892 85.9979 16.852C85.9579 16.724 85.9499 16.628 85.9739 16.564C85.9979 16.508 85.9779 16.408 85.9139 16.264C85.9059 16.32 85.9019 16.376 85.9019 16.432C85.9019 16.488 85.8979 16.544 85.8899 16.6C85.8899 16.608 85.8819 16.612 85.8659 16.612C85.8579 16.612 85.8499 16.616 85.8419 16.624C85.8339 16.624 85.8259 16.624 85.8179 16.624C85.8179 16.632 85.8099 16.636 85.7939 16.636C85.7459 16.676 85.7019 16.72 85.6619 16.768C85.6059 16.832 85.5579 16.912 85.5179 17.008C85.5099 17.016 85.5019 17.028 85.4939 17.044C85.4859 17.06 85.4779 17.076 85.4699 17.092C85.4619 17.108 85.4499 17.128 85.4339 17.152C85.4259 17.184 85.4219 17.196 85.4219 17.188C85.4059 17.044 85.3979 16.9 85.3979 16.756C85.3979 16.612 85.3899 16.468 85.3739 16.324C85.3579 16.308 85.3419 16.3 85.3259 16.3C85.3099 16.308 85.2939 16.312 85.2779 16.312C85.2619 16.32 85.2459 16.328 85.2299 16.336C85.1819 16.352 85.1379 16.36 85.0979 16.36C85.0979 16.368 85.0939 16.372 85.0859 16.372C85.0859 16.372 85.0859 16.376 85.0859 16.384C85.0059 16.472 84.9659 16.516 84.9659 16.516C84.9659 16.516 84.9819 16.5 85.0139 16.468C85.0459 16.436 85.0659 16.416 85.0739 16.408C85.0899 16.408 85.0619 16.452 84.9899 16.54C84.9739 16.556 84.9579 16.58 84.9419 16.612C84.9339 16.62 84.9259 16.636 84.9179 16.66C84.9099 16.684 84.9019 16.692 84.8939 16.684C84.8699 16.644 84.8579 16.58 84.8579 16.492C84.8659 16.412 84.8619 16.392 84.8459 16.432C84.8219 16.472 84.8179 16.524 84.8339 16.588C84.8499 16.66 84.8579 16.72 84.8579 16.768C84.8659 16.824 84.8459 16.852 84.7979 16.852C84.7259 16.852 84.7019 16.8 84.7259 16.696C84.7579 16.592 84.7659 16.504 84.7499 16.432C84.7499 16.424 84.7339 16.42 84.7019 16.42C84.6779 16.42 84.6619 16.416 84.6539 16.408C84.6299 16.408 84.6099 16.4 84.5939 16.384C84.5859 16.456 84.5819 16.528 84.5819 16.6C84.5819 16.672 84.5739 16.744 84.5579 16.816C84.5499 16.84 84.5419 16.832 84.5339 16.792C84.5259 16.752 84.5179 16.724 84.5099 16.708C84.5019 16.684 84.4939 16.66 84.4859 16.636C84.4779 16.62 84.4699 16.604 84.4619 16.588L84.3539 16.312C84.3539 16.344 84.3499 16.38 84.3419 16.42C84.3419 16.468 84.3339 16.508 84.3179 16.54C84.3099 16.556 84.3019 16.544 84.2939 16.504C84.2939 16.472 84.2859 16.448 84.2699 16.432L84.1259 16.12H84.0539C83.3419 16.104 82.7659 16 82.3259 15.808C81.8859 15.608 81.5619 15.384 81.3539 15.136C81.3219 15.096 81.2859 15.052 81.2459 15.004C81.2139 14.956 81.1859 14.908 81.1619 14.86C81.1299 14.804 81.1059 14.752 81.0899 14.704C81.0739 14.648 81.0579 14.596 81.0419 14.548C81.0179 14.452 81.0139 14.368 81.0299 14.296C81.0299 14.28 81.0339 14.264 81.0419 14.248C81.0499 14.232 81.0579 14.22 81.0659 14.212C81.0739 14.196 81.0899 14.176 81.1139 14.152C81.1619 14.104 81.2219 14.08 81.2939 14.08C81.3579 14.064 81.4419 14.06 81.5459 14.068C81.6499 14.076 81.7419 14.08 81.8219 14.08H82.9139C83.0019 14.08 83.0939 14.076 83.1899 14.068C83.2859 14.06 83.3779 14.064 83.4659 14.08C83.4819 14.088 83.4939 14.092 83.5019 14.092C83.5179 14.092 83.5339 14.096 83.5499 14.104C83.6059 14.12 83.6579 14.144 83.7059 14.176C83.7539 14.2 83.8019 14.232 83.8499 14.272L83.9339 14.32C83.9659 14.336 83.9979 14.352 84.0299 14.368C84.0619 14.384 84.0939 14.4 84.1259 14.416C84.1659 14.424 84.1979 14.432 84.2219 14.44C84.2459 14.44 84.2739 14.44 84.3059 14.44C84.3699 14.44 84.4259 14.428 84.4739 14.404C84.5379 14.38 84.5739 14.332 84.5819 14.26V14.176C84.5739 14.168 84.5699 14.16 84.5699 14.152C84.5379 14.088 84.4739 14.036 84.3779 13.996L84.2819 13.96C84.2659 13.952 84.2499 13.948 84.2339 13.948C84.2179 13.94 84.2019 13.936 84.1859 13.936C84.1459 13.928 84.0979 13.928 84.0419 13.936C83.9939 13.936 83.9499 13.932 83.9099 13.924C83.8539 13.916 83.7979 13.904 83.7419 13.888C83.6939 13.872 83.6379 13.868 83.5739 13.876C83.5339 13.884 83.4899 13.896 83.4419 13.912C83.4019 13.92 83.3619 13.928 83.3219 13.936C83.2819 13.944 83.2419 13.944 83.2019 13.936C83.1619 13.928 83.1219 13.924 83.0819 13.924C83.0499 13.916 83.0139 13.912 82.9739 13.912C82.9419 13.912 82.9059 13.908 82.8659 13.9C82.7779 13.884 82.6859 13.852 82.5899 13.804C82.4939 13.748 82.4059 13.692 82.3259 13.636C82.2699 13.588 82.2059 13.524 82.1339 13.444C82.0699 13.364 81.9979 13.284 81.9179 13.204C81.8939 13.18 81.8819 13.168 81.8819 13.168C81.8739 13.168 81.8659 13.176 81.8579 13.192C81.8579 13.208 81.8499 13.212 81.8339 13.204C81.8259 13.196 81.8179 13.184 81.8099 13.168C81.8099 13.152 81.8059 13.136 81.7979 13.12C81.7739 13.072 81.7379 13.028 81.6899 12.988C81.6739 12.972 81.6579 12.956 81.6419 12.94C81.6339 12.924 81.6219 12.912 81.6059 12.904C81.6219 12.912 81.6099 12.9 81.5699 12.868C81.5299 12.828 81.5099 12.804 81.5099 12.796C81.4619 12.732 81.4219 12.676 81.3899 12.628C81.3339 12.532 81.2939 12.46 81.2699 12.412C81.2539 12.356 81.2339 12.288 81.2099 12.208C81.1539 12.016 81.1299 11.816 81.1379 11.608C81.1379 11.584 81.1419 11.564 81.1499 11.548C81.1899 11.124 81.4019 10.736 81.7859 10.384C82.1779 10.024 82.7299 9.792 83.4419 9.688C83.4819 9.68 83.5219 9.676 83.5619 9.676C83.6019 9.668 83.6419 9.664 83.6819 9.664C83.7219 9.656 83.7619 9.652 83.8019 9.652C83.8499 9.644 83.8939 9.64 83.9339 9.64H84.0179C84.1219 9.632 84.2219 9.628 84.3179 9.628C84.4219 9.628 84.5179 9.636 84.6059 9.652C84.6219 9.652 84.6339 9.656 84.6419 9.664C85.1779 9.704 85.6339 9.812 86.0099 9.988C86.3859 10.164 86.6899 10.368 86.9219 10.6C86.9539 10.632 86.9819 10.664 87.0059 10.696C87.0299 10.72 87.0579 10.752 87.0899 10.792C87.1859 10.912 87.2499 11.036 87.2819 11.164C87.2979 11.22 87.3099 11.28 87.3179 11.344C87.3259 11.4 87.3179 11.456 87.2939 11.512C87.2859 11.52 87.2819 11.532 87.2819 11.548C87.2739 11.548 87.2699 11.552 87.2699 11.56L87.1859 11.644C87.1779 11.644 87.1699 11.648 87.1619 11.656C87.1619 11.656 87.1579 11.656 87.1499 11.656C87.1499 11.664 87.1459 11.684 87.1379 11.716C87.1299 11.74 87.1179 11.752 87.1019 11.752C87.1019 11.752 87.0979 11.752 87.0899 11.752C87.0899 11.752 87.0859 11.748 87.0779 11.74C87.0779 11.74 87.0699 11.732 87.0539 11.716H87.0179C87.0179 11.724 87.0139 11.732 87.0059 11.74C87.0059 11.74 87.0059 11.744 87.0059 11.752C86.9979 11.8 86.9979 11.852 87.0059 11.908C87.0139 11.964 86.9979 12.012 86.9579 12.052C86.9339 12.084 86.9219 12.068 86.9219 12.004C86.9299 11.932 86.9259 11.88 86.9099 11.848C86.9019 11.84 86.8939 11.844 86.8859 11.86C86.8779 11.876 86.8699 11.888 86.8619 11.896L86.7179 12.04C86.6059 12.136 86.4739 12.204 86.3219 12.244C86.2579 12.26 86.2019 12.268 86.1539 12.268C86.4739 12.396 86.7339 12.548 86.9339 12.724C87.1339 12.892 87.2859 13.08 87.3899 13.288C87.4219 13.336 87.4419 13.372 87.4499 13.396C87.4819 13.476 87.5099 13.556 87.5339 13.636C87.5579 13.708 87.5739 13.788 87.5819 13.876V14.188ZM85.2419 12.04C85.3219 12.048 85.3979 12.06 85.4699 12.076C85.5419 12.092 85.6139 12.108 85.6859 12.124C85.6539 12.092 85.6179 12.064 85.5779 12.04C85.5379 12.008 85.4979 11.98 85.4579 11.956C85.3779 11.972 85.2899 11.988 85.1939 12.004C85.1059 12.012 85.0179 12 84.9299 11.968C84.8259 11.928 84.7379 11.868 84.6659 11.788C84.5939 11.708 84.5179 11.632 84.4379 11.56C84.3979 11.576 84.3539 11.576 84.3059 11.56C84.2739 11.544 84.2419 11.528 84.2099 11.512C84.1779 11.488 84.1419 11.464 84.1019 11.44C84.0859 11.424 84.0699 11.408 84.0539 11.392C84.0379 11.376 84.0219 11.372 84.0059 11.38C83.9659 11.404 83.9419 11.432 83.9339 11.464V11.476C83.9259 11.484 83.9219 11.496 83.9219 11.512V11.584C83.9299 11.592 83.9339 11.6 83.9339 11.608C83.9499 11.64 83.9739 11.672 84.0059 11.704C84.0379 11.736 84.0699 11.76 84.1019 11.776C84.1339 11.792 84.1539 11.8 84.1619 11.8C84.2339 11.832 84.3299 11.864 84.4499 11.896C84.5699 11.92 84.7219 11.952 84.9059 11.992L85.1939 12.028C85.1859 12.028 85.1939 12.032 85.2179 12.04C85.2499 12.048 85.2579 12.048 85.2419 12.04ZM94.66 14.188C94.636 14.524 94.528 14.824 94.336 15.088C94.328 15.104 94.316 15.12 94.3 15.136C94.284 15.152 94.268 15.168 94.252 15.184C94.22 15.216 94.184 15.252 94.144 15.292C94.104 15.332 94.06 15.372 94.012 15.412C93.972 15.468 93.932 15.528 93.892 15.592C93.86 15.656 93.82 15.716 93.772 15.772C93.74 15.804 93.716 15.812 93.7 15.796C93.636 15.94 93.572 16.064 93.508 16.168C93.492 16.2 93.472 16.228 93.448 16.252C93.424 16.284 93.4 16.316 93.376 16.348C93.344 16.38 93.328 16.392 93.328 16.384C93.32 16.32 93.316 16.252 93.316 16.18C93.316 16.116 93.312 16.052 93.304 15.988C93.28 16.004 93.26 16.024 93.244 16.048C93.236 16.056 93.228 16.06 93.22 16.06C93.212 16.068 93.204 16.08 93.196 16.096C93.188 16.176 93.18 16.26 93.172 16.348C93.164 16.436 93.152 16.524 93.136 16.612C93.128 16.652 93.12 16.712 93.112 16.792C93.104 16.872 93.092 16.892 93.076 16.852C93.036 16.724 93.028 16.628 93.052 16.564C93.076 16.508 93.056 16.408 92.992 16.264C92.984 16.32 92.98 16.376 92.98 16.432C92.98 16.488 92.976 16.544 92.968 16.6C92.968 16.608 92.96 16.612 92.944 16.612C92.936 16.612 92.928 16.616 92.92 16.624C92.912 16.624 92.904 16.624 92.896 16.624C92.896 16.632 92.888 16.636 92.872 16.636C92.824 16.676 92.78 16.72 92.74 16.768C92.684 16.832 92.636 16.912 92.596 17.008C92.588 17.016 92.58 17.028 92.572 17.044C92.564 17.06 92.556 17.076 92.548 17.092C92.54 17.108 92.528 17.128 92.512 17.152C92.504 17.184 92.5 17.196 92.5 17.188C92.484 17.044 92.476 16.9 92.476 16.756C92.476 16.612 92.468 16.468 92.452 16.324C92.436 16.308 92.42 16.3 92.404 16.3C92.388 16.308 92.372 16.312 92.356 16.312C92.34 16.32 92.324 16.328 92.308 16.336C92.26 16.352 92.216 16.36 92.176 16.36C92.176 16.368 92.172 16.372 92.164 16.372C92.164 16.372 92.164 16.376 92.164 16.384C92.084 16.472 92.044 16.516 92.044 16.516C92.044 16.516 92.06 16.5 92.092 16.468C92.124 16.436 92.144 16.416 92.152 16.408C92.168 16.408 92.14 16.452 92.068 16.54C92.052 16.556 92.036 16.58 92.02 16.612C92.012 16.62 92.004 16.636 91.996 16.66C91.988 16.684 91.98 16.692 91.972 16.684C91.948 16.644 91.936 16.58 91.936 16.492C91.944 16.412 91.94 16.392 91.924 16.432C91.9 16.472 91.896 16.524 91.912 16.588C91.928 16.66 91.936 16.72 91.936 16.768C91.944 16.824 91.924 16.852 91.876 16.852C91.804 16.852 91.78 16.8 91.804 16.696C91.836 16.592 91.844 16.504 91.828 16.432C91.828 16.424 91.812 16.42 91.78 16.42C91.756 16.42 91.74 16.416 91.732 16.408C91.708 16.408 91.688 16.4 91.672 16.384C91.664 16.456 91.66 16.528 91.66 16.6C91.66 16.672 91.652 16.744 91.636 16.816C91.628 16.84 91.62 16.832 91.612 16.792C91.604 16.752 91.596 16.724 91.588 16.708C91.58 16.684 91.572 16.66 91.564 16.636C91.556 16.62 91.548 16.604 91.54 16.588L91.432 16.312C91.432 16.344 91.428 16.38 91.42 16.42C91.42 16.468 91.412 16.508 91.396 16.54C91.388 16.556 91.38 16.544 91.372 16.504C91.372 16.472 91.364 16.448 91.348 16.432L91.204 16.12H91.132C90.42 16.104 89.844 16 89.404 15.808C88.964 15.608 88.64 15.384 88.432 15.136C88.4 15.096 88.364 15.052 88.324 15.004C88.292 14.956 88.264 14.908 88.24 14.86C88.208 14.804 88.184 14.752 88.168 14.704C88.152 14.648 88.136 14.596 88.12 14.548C88.096 14.452 88.092 14.368 88.108 14.296C88.108 14.28 88.112 14.264 88.12 14.248C88.128 14.232 88.136 14.22 88.144 14.212C88.152 14.196 88.168 14.176 88.192 14.152C88.24 14.104 88.3 14.08 88.372 14.08C88.436 14.064 88.52 14.06 88.624 14.068C88.728 14.076 88.82 14.08 88.9 14.08H89.992C90.08 14.08 90.172 14.076 90.268 14.068C90.364 14.06 90.456 14.064 90.544 14.08C90.56 14.088 90.572 14.092 90.58 14.092C90.596 14.092 90.612 14.096 90.628 14.104C90.684 14.12 90.736 14.144 90.784 14.176C90.832 14.2 90.88 14.232 90.928 14.272L91.012 14.32C91.044 14.336 91.076 14.352 91.108 14.368C91.14 14.384 91.172 14.4 91.204 14.416C91.244 14.424 91.276 14.432 91.3 14.44C91.324 14.44 91.352 14.44 91.384 14.44C91.448 14.44 91.504 14.428 91.552 14.404C91.616 14.38 91.652 14.332 91.66 14.26V14.176C91.652 14.168 91.648 14.16 91.648 14.152C91.616 14.088 91.552 14.036 91.456 13.996L91.36 13.96C91.344 13.952 91.328 13.948 91.312 13.948C91.296 13.94 91.28 13.936 91.264 13.936C91.224 13.928 91.176 13.928 91.12 13.936C91.072 13.936 91.028 13.932 90.988 13.924C90.932 13.916 90.876 13.904 90.82 13.888C90.772 13.872 90.716 13.868 90.652 13.876C90.612 13.884 90.568 13.896 90.52 13.912C90.48 13.92 90.44 13.928 90.4 13.936C90.36 13.944 90.32 13.944 90.28 13.936C90.24 13.928 90.2 13.924 90.16 13.924C90.128 13.916 90.092 13.912 90.052 13.912C90.02 13.912 89.984 13.908 89.944 13.9C89.856 13.884 89.764 13.852 89.668 13.804C89.572 13.748 89.484 13.692 89.404 13.636C89.348 13.588 89.284 13.524 89.212 13.444C89.148 13.364 89.076 13.284 88.996 13.204C88.972 13.18 88.96 13.168 88.96 13.168C88.952 13.168 88.944 13.176 88.936 13.192C88.936 13.208 88.928 13.212 88.912 13.204C88.904 13.196 88.896 13.184 88.888 13.168C88.888 13.152 88.884 13.136 88.876 13.12C88.852 13.072 88.816 13.028 88.768 12.988C88.752 12.972 88.736 12.956 88.72 12.94C88.712 12.924 88.7 12.912 88.684 12.904C88.7 12.912 88.688 12.9 88.648 12.868C88.608 12.828 88.588 12.804 88.588 12.796C88.54 12.732 88.5 12.676 88.468 12.628C88.412 12.532 88.372 12.46 88.348 12.412C88.332 12.356 88.312 12.288 88.288 12.208C88.232 12.016 88.208 11.816 88.216 11.608C88.216 11.584 88.22 11.564 88.228 11.548C88.268 11.124 88.48 10.736 88.864 10.384C89.256 10.024 89.808 9.792 90.52 9.688C90.56 9.68 90.6 9.676 90.64 9.676C90.68 9.668 90.72 9.664 90.76 9.664C90.8 9.656 90.84 9.652 90.88 9.652C90.928 9.644 90.972 9.64 91.012 9.64H91.096C91.2 9.632 91.3 9.628 91.396 9.628C91.5 9.628 91.596 9.636 91.684 9.652C91.7 9.652 91.712 9.656 91.72 9.664C92.256 9.704 92.712 9.812 93.088 9.988C93.464 10.164 93.768 10.368 94 10.6C94.032 10.632 94.06 10.664 94.084 10.696C94.108 10.72 94.136 10.752 94.168 10.792C94.264 10.912 94.328 11.036 94.36 11.164C94.376 11.22 94.388 11.28 94.396 11.344C94.404 11.4 94.396 11.456 94.372 11.512C94.364 11.52 94.36 11.532 94.36 11.548C94.352 11.548 94.348 11.552 94.348 11.56L94.264 11.644C94.256 11.644 94.248 11.648 94.24 11.656C94.24 11.656 94.236 11.656 94.228 11.656C94.228 11.664 94.224 11.684 94.216 11.716C94.208 11.74 94.196 11.752 94.18 11.752C94.18 11.752 94.176 11.752 94.168 11.752C94.168 11.752 94.164 11.748 94.156 11.74C94.156 11.74 94.148 11.732 94.132 11.716H94.096C94.096 11.724 94.092 11.732 94.084 11.74C94.084 11.74 94.084 11.744 94.084 11.752C94.076 11.8 94.076 11.852 94.084 11.908C94.092 11.964 94.076 12.012 94.036 12.052C94.012 12.084 94 12.068 94 12.004C94.008 11.932 94.004 11.88 93.988 11.848C93.98 11.84 93.972 11.844 93.964 11.86C93.956 11.876 93.948 11.888 93.94 11.896L93.796 12.04C93.684 12.136 93.552 12.204 93.4 12.244C93.336 12.26 93.28 12.268 93.232 12.268C93.552 12.396 93.812 12.548 94.012 12.724C94.212 12.892 94.364 13.08 94.468 13.288C94.5 13.336 94.52 13.372 94.528 13.396C94.56 13.476 94.588 13.556 94.612 13.636C94.636 13.708 94.652 13.788 94.66 13.876V14.188ZM92.32 12.04C92.4 12.048 92.476 12.06 92.548 12.076C92.62 12.092 92.692 12.108 92.764 12.124C92.732 12.092 92.696 12.064 92.656 12.04C92.616 12.008 92.576 11.98 92.536 11.956C92.456 11.972 92.368 11.988 92.272 12.004C92.184 12.012 92.096 12 92.008 11.968C91.904 11.928 91.816 11.868 91.744 11.788C91.672 11.708 91.596 11.632 91.516 11.56C91.476 11.576 91.432 11.576 91.384 11.56C91.352 11.544 91.32 11.528 91.288 11.512C91.256 11.488 91.22 11.464 91.18 11.44C91.164 11.424 91.148 11.408 91.132 11.392C91.116 11.376 91.1 11.372 91.084 11.38C91.044 11.404 91.02 11.432 91.012 11.464V11.476C91.004 11.484 91 11.496 91 11.512V11.584C91.008 11.592 91.012 11.6 91.012 11.608C91.028 11.64 91.052 11.672 91.084 11.704C91.116 11.736 91.148 11.76 91.18 11.776C91.212 11.792 91.232 11.8 91.24 11.8C91.312 11.832 91.408 11.864 91.528 11.896C91.648 11.92 91.8 11.952 91.984 11.992L92.272 12.028C92.264 12.028 92.272 12.032 92.296 12.04C92.328 12.048 92.336 12.048 92.32 12.04Z" fill="white"/>
</g>
<defs>
<filter id="filter0_d_201_43" x="0.900024" y="0.899902" width="108.2" height="30.1934" filterUnits="userSpaceOnUse" color-interpolation-filters="sRGB">
<feFlood flood-opacity="0" result="BackgroundImageFix"/>
<feColorMatrix in="SourceAlpha" type="matrix" values="0 0 0 0 0 0 0 0 0 0 0 0 0 0 0 0 0 0 127 0" result="hardAlpha"/>
<feOffset dy="4"/>
<feGaussianBlur stdDeviation="2"/>
<feComposite in2="hardAlpha" operator="out"/>
<feColorMatrix type="matrix" values="0 0 0 0 0 0 0 0 0 0 0 0 0 0 0 0 0 0 0.25 0"/>
<feBlend mode="normal" in2="BackgroundImageFix" result="effect1_dropShadow_201_43"/>
<feBlend mode="normal" in="SourceGraphic" in2="effect1_dropShadow_201_43" result="shape"/>
</filter>
<linearGradient id="paint0_linear_201_43" x1="56.1365" y1="1" x2="56.1365" y2="21.7676" gradientUnits="userSpaceOnUse">
<stop stop-color="#D9F049"/>
<stop offset="0.416667" stop-color="#D7F67F" stop-opacity="0.583333"/>
<stop offset="1" stop-color="#7EFF7B"/>
</linearGradient>
</defs>
</svg>
