<svg width="120" height="40" viewBox="0 0 120 40" fill="none" xmlns="http://www.w3.org/2000/svg">
<rect width="120" height="40" fill="black"/>
<path d="M20.7969 12.4883H26.4414V21.707C26.4414 22.2279 26.5098 22.6803 26.6465 23.0645C26.7897 23.4421 26.985 23.7578 27.2324 24.0117C27.4863 24.2591 27.7826 24.4447 28.1211 24.5684C28.4596 24.6921 28.8242 24.7539 29.2148 24.7539C29.6445 24.7539 30.0286 24.6921 30.3672 24.5684C30.7122 24.4447 31.0052 24.2559 31.2461 24.002C31.487 23.748 31.6725 23.429 31.8027 23.0449C31.9329 22.6608 31.998 22.2083 31.998 21.6875V12.4883H34.1465V21.3555C34.1465 22.2539 34 23.0645 33.707 23.7871C33.4206 24.5098 33.0104 25.1283 32.4766 25.6426C31.9427 26.1504 31.2982 26.541 30.543 26.8145C29.7878 27.0879 28.9447 27.2246 28.0137 27.2246C26.7441 27.2246 25.6536 27.0911 24.7422 26.8242C23.8307 26.5508 23.082 26.1634 22.4961 25.6621C21.9102 25.1543 21.4805 24.5423 21.207 23.8262C20.9336 23.11 20.7969 22.3027 20.7969 21.4043V12.4883ZM37.125 12.4883H42.7793L42.7695 27H37.125V12.4883ZM59.127 12.2539L61.793 13.6992L54.6641 27.2246L51.998 25.7891L59.127 12.2539ZM70.582 12.4883H76.2266V21.707C76.2266 22.2279 76.2949 22.6803 76.4316 23.0645C76.5749 23.4421 76.7702 23.7578 77.0176 24.0117C77.2715 24.2591 77.5677 24.4447 77.9062 24.5684C78.2448 24.6921 78.6094 24.7539 79 24.7539C79.4297 24.7539 79.8138 24.6921 80.1523 24.5684C80.4974 24.4447 80.7904 24.2559 81.0312 24.002C81.2721 23.748 81.4577 23.429 81.5879 23.0449C81.7181 22.6608 81.7832 22.2083 81.7832 21.6875V12.4883H83.9316V21.3555C83.9316 22.2539 83.7852 23.0645 83.4922 23.7871C83.2057 24.5098 82.7956 25.1283 82.2617 25.6426C81.7279 26.1504 81.0833 26.541 80.3281 26.8145C79.5729 27.0879 78.7298 27.2246 77.7988 27.2246C76.5293 27.2246 75.4388 27.0911 74.5273 26.8242C73.6159 26.5508 72.8672 26.1634 72.2812 25.6621C71.6953 25.1543 71.2656 24.5423 70.9922 23.8262C70.7188 23.11 70.582 22.3027 70.582 21.4043V12.4883ZM90.0547 20.0273L85.3477 12.4883H91.7246L94.5566 17.0195L97.4473 12.4883H99.9961L95.7578 18.9531L100.797 27L94.4199 27.0098L91.2363 21.9316L87.9453 27.0098H85.3867L90.0547 20.0273Z" fill="white"/>
</svg>
